M48
;Layer_Color=9474304
;FILE_FORMAT=4:4
METRIC,LZ
;TYPE=PLATED
T01F00S00C0.2000
T03F00S00C0.8000
T04F00S00C0.9300
T05F00S00C1.1000
T06F00S00C1.5100
T08F00S00C3.5560
;TYPE=NON_PLATED
T09F00S00C0.6000
T10F00S00C3.0000
T11F00S00C4.0000
%
T01
X044577Y0250812
Y0251587
Y0252362
X0444995Y0251587
X0446545
X044577Y0384162
Y0384937
Y0385712
X0444995Y0384937
X0446545
X038392Y0409322
X038282
Y0410422
Y0411522
Y0412622
X038172
X038062
Y0411522
X038172
Y0410422
X038062
Y0409322
X038172
X038392Y0410422
Y0411522
Y0412622
Y0437008
X038282
Y0438108
Y0439208
Y0440308
X038172
X038062
Y0439208
X038172
Y0438108
X038062
Y0437008
X038172
X038392Y0438108
Y0439208
Y0440308
T03
X0224324Y0029322
Y0031322
Y0033322
Y0035322
Y0037322
Y0039322
Y0041322
Y0043322
X0535051Y0246039
Y0248539
Y0251039
Y0379389
Y0381889
Y0384389
T04
X0300641Y0248813
X0302641
X0304641
Y0251313
X0302641
X0300641
Y0382163
X0302641
X0304641
Y0384663
X0302641
X0300641
T05
X0276773Y008394
Y009844
Y0104895
X0279273
X0281773
Y009844
Y008394
X0279273
X0281773Y0119395
X0276773
T06
X0297641Y0250063
X0307641
Y0383413
X0297641
T08
X0181483Y0506222
X0187579
X0193548
Y0497332
X0187579
X0181483
X0199644
X020574
X0211709
X0217805
X0223774
Y0506222
X0217805
X0211709
X020574
X0199644
T09
X0472344Y0197736
X0478124
X0472344Y0331086
X0478124
T10
X122936Y0458998
X122301Y0461538
X1207389Y0458998
X12010389Y0461538
X1185418Y0458998
X1179068Y0461538
X11633199Y0458998
X115697Y0461538
X1141349Y0458998
X1134999Y0461538
X11193781Y0458998
X1113028Y0461538
X109728Y0458998
X10909301Y0461538
X1017651Y0458998
X1011301Y0461538
X099568Y0458998
X098933Y0461538
X0973582Y0458998
X0967232Y0461538
X0951611Y0458998
X0945261Y0461538
X092964Y0458998
X092329Y0461538
X0907542Y0458998
X0901192Y0461538
X0885571Y0458998
X0879221Y0461538
X0805815Y0458998
X0799465Y0461538
X0783844Y0458998
X0777494Y0461538
X0761873Y0458998
X0755523Y0461538
X0739775Y0458998
X0733425Y0461538
X0717804Y0458998
X0711454Y0461538
X0695833Y0458998
X0689483Y0461538
X0673862Y0458998
X0667512Y0461538
X0594106Y0458998
X0587756Y0461538
X0572135Y0458998
X0565785Y0461538
X0550037Y0458998
X0543687Y0461538
X0528066Y0458998
X0521716Y0461538
X0506095Y0458998
X0499745Y0461538
X0483997Y0458998
X0477647Y0461538
X0462026Y0458998
X0455676Y0461538
X0382397Y0458998
X0376047Y0461538
X0360299Y0458998
X0353949Y0461538
X0338328Y0458998
X0331978Y0461538
X0316357Y0458998
X0310007Y0461538
X0294259Y0458998
X0287909Y0461538
X0272288Y0458998
X0265938Y0461538
X0250317Y0458998
X0243967Y0461538
Y0485668
X0250317Y0483128
X0265938Y0485668
X0272288Y0483128
X0287909Y0485668
X0294259Y0483128
X0310007Y0485668
X0316357Y0483128
X0331978Y0485668
X0338328Y0483128
X0353949Y0485668
X0360299Y0483128
X0376047Y0485668
X0382397Y0483128
X0455676Y0485668
X0462026Y0483128
X0477647Y0485668
X0483997Y0483128
X0499745Y0485668
X0506095Y0483128
X0521716Y0485668
X0528066Y0483128
X0543687Y0485668
X0550037Y0483128
X0565785Y0485668
X0572135Y0483128
X0587756Y0485668
X0594106Y0483128
X0667512Y0485668
X0673862Y0483128
X0689483Y0485668
X0695833Y0483128
X0711454Y0485668
X0717804Y0483128
X0733425Y0485668
X0739775Y0483128
X0755523Y0485668
X0761873Y0483128
X0777494Y0485668
X0783844Y0483128
X0799465Y0485668
X0805815Y0483128
X0879221Y0485668
X0885571Y0483128
X0901192Y0485668
X0907542Y0483128
X092329Y0485668
X092964Y0483128
X0945261Y0485668
X0951611Y0483128
X0967232Y0485668
X0973582Y0483128
X098933Y0485668
X099568Y0483128
X1011301Y0485668
X1017651Y0483128
X10909301Y0485668
X109728Y0483128
X1113028Y0485668
X11193781Y0483128
X1134999Y0485668
X1141349Y0483128
X115697Y0485668
X11633199Y0483128
X1179068Y0485668
X1185418Y0483128
X12010389Y0485668
X1207389Y0483128
X122301Y0485668
X122936Y0483128
T11
X122555Y0456438
X1203579
X1181608
X115951
X11375389
X1115568
X109347
X1013841
X099187
X0969772
X0947801
X092583
X0903732
X0881761
X0802005
X0780034
X0758063
X0735965
X0713994
X0692023
X0670052
X0590296
X0568325
X0546227
X0524256
X0502285
X0480187
X0458216
X0378587
X0356489
X0334518
X0312547
X0290449
X0268478
X0246507
Y0480568
X0268478
X0290449
X0312547
X0334518
X0356489
X0378587
X0458216
X0480187
X0502285
X0524256
X0546227
X0568325
X0590296
X0670052
X0692023
X0713994
X0735965
X0758063
X0780034
X0802005
X0881761
X0903732
X092583
X0947801
X0969772
X099187
X1013841
X109347
X1115568
X11375389
X115951
X1181608
X1203579
X122555
M30
