M48
;Layer_Color=9474304
;FILE_FORMAT=4:4
METRIC,LZ
;TYPE=PLATED
T02F00S00C0.3302
;TYPE=NON_PLATED
%
T02
X0027621Y0037257
X00248335Y0040175
X00261874Y00597916
X00284734Y0060198
X00279654Y00660146
X00266439Y00683395
X0028829Y00696722
X00287559Y00705671
X00313944Y0064897
X0034671Y00667004
X0013208Y00565912
X0012192Y00566674
X00128016Y00552704
X00156464Y00769874
X00168068Y00779192
X00171958Y00788162
X00193642Y00780305
X00214976Y00783882
X00233013Y00810291
X00315722Y00766064
X00361431Y00794755
X00369824Y00800354
M30
