M48
;Layer_Color=9474304
;FILE_FORMAT=4:4
METRIC,LZ
;TYPE=PLATED
T01F00S00C0.2000
T02F00S00C0.3302
T04F00S00C0.8000
T05F00S00C0.9300
T06F00S00C1.0200
T07F00S00C1.1000
T08F00S00C1.5100
T10F00S00C3.5560
;TYPE=NON_PLATED
T11F00S00C0.6000
T12F00S00C3.0000
%
T01
X00268602Y00407416
X00276352
X00284102
X00276352Y00399666
Y00415166
X00276292Y00747548
X00265624
X0026537Y00758724
Y00769138
Y00780314
X00276546
Y00769392
X00276292Y00758724
X00254448Y00758978
X00254194Y00769138
X00243526
X00243272Y00758724
X00243018Y00747802
X00254194
Y00780314
X00243526Y00780568
T02
X0029845Y-0055753
X0033655
X0037465
X003937Y-0051943
X004318
X0045085Y-0048133
X0048895
X0052705
X0041275
X0037465
X003556Y-0051943
X0029845Y-0048133
X0026035
X01747644Y-00199006
X0174625Y-0017653
X0178435
X017653Y-0013843
X0178435Y-0010033
X017653Y-0021463
X017272
X016891
X0170815Y-0017653
X017272Y-0013843
X01651
X016129
X015748
X015367
X0155575Y-0017653
X0159385
X01578356Y-002032
X0157607Y-00217932
X01624584Y-00209296
X0159385Y-0010033
X0151765Y-0017653
X01458214Y-00198628
Y-00216154
X01398524Y-00212598
X013843Y-0021463
X013462
X0136525Y-0017653
X0140335
X014224Y-0013843
X014605
X013843
X013462
X0136525Y-0010033
X0140335
X013081Y-0013843
X0127
X012319
X011938
X011557
X0117475Y-0010033
X0121285
X0125095
Y-0017653
X0128905
X0128778Y-0018669
X01317244Y-0017272
X01309878Y-0021844
X0127Y-0021463
X012319
X011938
X011557
X011176
X01087882Y-00207772
X010795Y-0021463
X010414
X010033
X009652
X00965962Y-00177878
X0098425Y-0017653
X0102235
X0106045
X01076661Y-00174384
X010795Y-0013843
X010414
X010033
X009652
X0098425Y-0010033
X0102235
X0106045
X0113665
X0112014Y-0016129
X0117475Y-0017653
X0121285
X0102235Y-0025273
X0098425
X00936244Y-0015748
X00914654Y-00168656
X0090805Y-0017653
X0086995
X00889Y-0013843
X008509
X008128
X007747
X007366
X006985
X006604
X006223
X005842
X005461
X0056515Y-0010033
X0060325
X0064135
X0067945
X0075565
Y-0017653
X0079375
X008128Y-0021463
X007747
X007366
X006985
X0071755Y-0025273
X0067945
X006985Y-0029083
X007366
X007747
X0079375Y-0025273
X0075565Y-0032893
X0071755
X0067945
X0064135
X0060325
X00596851Y-00316787
X00580898Y-00360934
X005842Y-0036703
X006223
X006604
X006985
X007366
X007747
X0067945Y-0040513
X0064135
X0060325
X0056515
X005842Y-0044323
X006223
X005461
Y-0036703
X00554069Y-00338423
X005461Y-0029083
X0056515Y-0025273
X0060325
X005842Y-0021463
X005461
X0064135Y-0017653
X006604Y-0029083
X00508
X0052705Y-0032893
X00508Y-0036703
X0048768Y-00399034
X00463296Y-00387858
X0047117Y-00437642
X00451104Y-00436372
X004318Y-0044323
X00508
X0052705Y-0040513
X00369824Y-00400558
X00356616Y-0042291
X003556Y-0044323
X0033655Y-0040513
X0029845
X002794Y-0036703
X0029845Y-0032893
X0026035
X002794Y-0029083
X003175
X003556
X003937
X004318
X00443738Y-00317246
X0048895Y-0025273
X00508Y-0021463
X004699
X004318
X003937
X00391414Y-00181102
X0041275Y-0017653
X0045085
X0048895
X0052705
X00508Y-0013843
X004699
X004318
X0045085Y-0010033
X0048895
X0052705
X0041275
X0037465
X00355854Y-00116078
X003556Y-0013843
X003175
X0030988Y-0011049
X0029845Y-0010033
X00284988Y-00081534
X0026035Y-0010033
X00233426Y-00108712
X002413Y-0013843
X002794
X00301752Y-00165354
X0029845Y-0017653
X0033655
X0036957Y-00166116
X0037465Y-0025273
X003175Y-0021463
X002794
X002413
X002032
X0022225Y-0017653
X002159Y-00151638
X0018415Y-0017653
X0026035
Y-0025273
X0022225
X0014605
X001651Y-0029083
X0018415Y-0032893
X002032Y-0036703
X0022225Y-0040513
X002413Y-0044323
X00127Y-0021463
X0010795Y-0017653
X00127Y-0013843
X000889
X0006985Y-0010033
X000889Y-0006223
X000508
X0006985Y-0002413
X0010795
X00127Y0001397
X000508
X000127
X0003175Y00147066
X00078502Y00251189
X0008001Y00276352
X00088392Y0028067
X00108458Y00296418
X00110597Y00264307
X00079502Y00325882
X001651Y0001397
X002032
X002413
X0026035Y-0002413
X0029845
X002794Y-0006223
X002413
X002032
X001651
X0014605Y-0002413
X0022225
X003556Y0001397
X003937
X004318
X004699
X00465328Y-0002921
X0048895Y-0002413
X0052705
X00508Y-0006223
X004318
X00429514Y-00027178
X003937Y-0006223
X0048895Y0005207
X004699Y0009017
Y0016637
X00508
Y0024257
X0048514Y0024511
X004699Y0024257
X0052705Y0028067
X00508Y0031877
X005461
X0056515Y0028067
X0060325
X0064135
X00640588Y00262636
X006223Y0024257
X00636778Y00226314
X0064135Y0020447
X0067945
X0071755
X007366Y0016637
X007747
X008128
X00814514Y00190119
X00787654Y00193294
X0083058Y00205994
X00822706Y00218694
X0082169Y0023749
X008509Y0024257
X00889
X009271
Y0016637
X0090805Y0012827
Y0005207
X0086995
X0083185
X00811899Y00056019
X0079375Y0005207
X00811784Y0003302
X008128Y0001397
X008509
X00889
X009271
X00889Y-0006223
X008509
X008128
X007747
X007366
X006985
X006604
X0066675Y-00034544
X0067945Y-0002413
X00683514Y0
X006604Y0001397
X00645922Y00007366
X006223Y0001397
X00622554Y00043942
X0063373Y00053848
X00641858Y00076454
X006604Y0009017
X006985
X0067945Y0012827
X0064135
X0060325
X005842Y0009017
X00590804Y00061722
X0056515Y0005207
X005842Y0001397
X0060325Y-0002413
X0064135
X006223Y-0006223
X005842
X005461
X0056515Y-0002413
X0071755
X007366Y0001397
X007747
X0079375Y-0002413
X0083185
X008509Y0009017
X008128
X007747
X0075565Y0012827
X0083185
X008509Y0016637
X00846328Y00183388
X00878586Y00197358
X0086995Y0028067
X0083185
X0079375
X007747Y0024257
X006985
Y0031877
X007366
X006604
X006223
X005842Y0024257
X005461
X0056515Y0020447
X0060325
X006604Y0016637
X006985
X0067945Y0005207
X008509Y0031877
X00889
X0098425Y0028067
X0102235
X0101981Y00246634
X01021334Y002286
X010033Y0024257
X009652
X0098425Y0020447
X0094615
X009652Y0016637
X010033
X01016Y00190754
X0103251Y00175768
X010414Y0016637
X0106045Y0020447
X0109855
X0113665
X011557Y0024257
X011938
X01190498Y00233172
X01189736Y0021717
X01205484Y00209296
X01238207Y00212809
X0125095Y0020447
X0128905
X0132715
X013081Y0016637
X0132715Y0012827
X0128905
X0121285
X0117475
X011938Y0009017
X01180592Y00076835
Y00043688
X01161321Y00034808
X011557Y0001397
X0111252Y0001778
X010795Y0001397
X010414
X010033
X01003808Y00021336
X01008888Y00001524
X0102235Y-0002413
X0098425
X0094615
X009652Y0001397
X0098425Y0005207
X01015238Y00058969
X01015746Y00038354
X0106045Y0005207
X0109855
X011176Y0009017
X011557
X012319
X0125095Y0005207
X01239012Y00017272
X01202563Y00022352
X01208786Y00034808
X0121285Y-0002413
X01222756Y-0001524
X012319Y-0006223
X0127
X011938
X011557
X0117475Y-0002413
X0113665
X010795Y-0006223
X010414
Y0009017
X010795
X010033
X009652
X0094615Y0012827
X0102235
X011176Y0016637
X011557
X012319
X0122428Y0017526
X012319Y0024257
X0127
X0125095Y0028067
X0121285
X0117475
X0113665
X011557Y0031877
X011938
X012319
X0127
X010414
X0106045Y0028067
X0132715Y0005207
X013081Y0001397
X0132715Y-0002413
X0136525
X0140335
X0141351Y-00024892
X01408925Y-00002966
X014224Y0001397
X01391158Y00019812
X0140335Y0005207
X01391158Y00066548
X013843Y0009017
X014224
X014605
X0147955Y0005207
X0151765
X0155575
X0159385
X0163195
X0167005
X016891Y0009017
X01651
X016129
X0163195Y0012827
X0159385
X0155575
X0151765
X015367Y0016637
X01529334Y00183642
X01537208Y00199898
X0151765Y0020447
X015367Y0024257
X01574038Y00217678
X01575054Y00195834
X016129Y0016637
X01651
X016891
X017272
X016891Y0024257
X01651
X016129
X0163195Y0028067
X0167005
X0170815
X01651Y0031877
X016129
X0159385Y0028067
X015367Y0031877
X014986
X014224
X0140335Y0028067
X0136525
X01388364Y00255778
Y00214503
X01404405Y00201868
X0144145Y0020447
X01433576Y00173736
X0141732Y0013462
X0140335Y0012827
X013462Y0016637
Y0024257
X014224
X014605
X014986Y0016637
X0144145Y0005207
X014605Y0001397
X0146177Y-00016002
X0147955Y-0002413
X0151765
X0155575
X01602232Y-0002921
X01604772Y-00007493
X01575816Y00009652
X01576578Y00025654
X015367Y0001397
Y-0006223
X014986
X014224
X013462Y0001397
Y0009017
X01642364Y-00029718
X016129Y-0006223
X016891
X017272
X017653
X0178435Y-0002413
X0174625
X018034Y0001397
X018415
X0186055Y0005207
X0182245
X0178435
Y0012827
X0182245
X0186055
X018415Y0016637
X0179981Y00162071
X017653Y0016637
X0177419Y00178054
X01788414Y00209804
X0182245Y0020447
X0186055
X018415Y0024257
X0186055Y0028067
X0182245
X018415Y0031877
X017653
Y0024257
X0174625Y0012827
X018415Y0009017
X0186055Y0035687
X0182245
X0178435
X0174625
X017653Y0039497
X0178435Y0043307
X0182245
X0186055
X018415Y0047117
X0186055Y0050927
X0182245
X0178435
X0174625
X017653Y0054737
X0178435Y0058547
X01782966Y00605904
X01798828Y00604774
X0182245Y0058547
X0186055
X018415Y0062357
X0186055Y0066167
X018415Y0069977
X018034
X017653
Y00614837
X018415Y0054737
Y0039497
X01688084Y00357632
X01643888Y00345268
X0163576Y00371348
X0163195Y0043307
X0167005
X016891Y0047117
X01651
X016129
X0163195Y0050927
X0159385
X0155575
X0151765
X015367Y0054737
X01578864Y00541528
X016129Y0054737
X01651
X016891
X0170815Y0066167
X0167005
X0163195
X0159385
X016129Y0069977
X01651
X015748
X015367
X014986
X0147955Y0066167
X014605Y0062357
X014224
X013843
X01389126Y00636016
Y00599694
X0140335Y0058547
X01416812Y00562356
X0141732Y00545338
X013843Y0054737
X013462
X0136525Y0058547
Y0066167
X0140335
X014224Y0069977
X01463802Y00558292
X014605Y0054737
Y0047117
X014224
X013843
X01388364Y00445516
X0140335Y0043307
X0144145
X0141478Y00385064
X01412748Y00363728
X0140335Y0035687
X0136525
X01387094Y00408432
X0136525Y0043307
X013462Y0047117
X0140335Y0050927
X0151765Y0043307
X0155575
X0159385
X0157861Y00415036
X01579372Y00393446
X01460246Y0035941
X015367Y0062357
X015748
X01584975Y00596377
X0132715Y0058547
X0128905
X01268476Y00589788
X01227582Y00593344
X0121285Y0058547
X0117475
X01181354Y00625602
Y00640842
X0117475Y0066167
X0121285
X0125095
X0127Y0069977
X012319
X011938
X011557
X010795
X010414
X0106045Y0066167
X0109855
X0102235
X0098425
X010033Y0062357
X01009904Y00629833
X01011174Y0060833
X01045972Y00608076
X0107823Y0060198
X0102997Y00583184
X010414Y0054737
X010033
X009652
X0098425Y0058547
X0094615
X009652Y0062357
X0094615Y0050927
X009652Y0047117
X010033
X010414
X01042162Y00423164
X010414Y0039497
X0103124Y00393446
X01016254Y0041995
X01015746Y00436626
X0098425Y0043307
Y0035687
X0102235
X0094615
X010795Y0039497
X01073912Y0041783
X011176Y0039497
X011557
X0113665Y0035687
X0121285
X0127Y0039497
X013081
X0132715Y0043307
Y0050927
X0125095
X0121285
X012319Y0054737
X01225804Y00560324
X011938Y0054737
X011176
X0106045Y0050927
X0102235
X01178306Y00456692
X01178214Y00441325
X01232506Y00435102
X012319Y0047117
X0124841Y00459486
X0127Y0047117
X0132715Y0035687
X00875792Y00381508
X00882904Y0040005
X00843026Y00401066
X0083058Y00407045
X00831088Y00425704
X0086995Y0043307
X0090805
Y0050927
X009271Y0054737
X0090805Y0058547
X00886206Y00577342
X00838454Y00573786
X00839535Y00594743
X00823735Y00587743
X00826008Y00607822
X0079375Y0058547
X0075565
X00708406Y00577088
X006985Y0054737
X007366
X007747
X008128
X008509
X0083185Y0050927
X008509Y0047117
X008128
X007747
X0075565Y0050927
X006985Y0047117
X006604
X006223
X0064135Y0050927
X0060325
X0056515
X0054483Y0051943
X005461Y0047117
X0056388Y00551942
X005842Y0054737
X006223
X006604
X00666496Y00559308
X0065913Y00576072
X00639826Y00588264
X0060325Y0058547
X0056515
X005842Y0062357
X006223
X006604
Y0069977
X00639318Y00699008
X006985Y0069977
X007366
X0079375Y0066167
X0083185
X0086995
X00889Y0069977
X008509
X009271Y0062357
X0083185Y0035687
X0079375
X0075565
X0071755
X0067945
X0064135
X0063627Y0036449
Y00379476
X00657098Y0038227
X00661292Y00398272
X006985Y0039497
X00705104Y00384556
X006223Y0039497
X005842
X00601726Y00363982
X00579374Y00341122
X00621792Y00338328
X005461Y0069977
X00458377Y00709999
X00445951Y00721179
X00408872Y0066205
X00417322Y00637032
X00378714Y00641604
X0037846Y00629793
X00339638Y00643024
X00335851Y00656399
X00325697Y00655556
X00321088Y00659924
X00309697Y00659123
X00304982Y00642611
X00321991Y00642857
X00294768Y00652526
X00284226Y00658876
X00273855Y00659802
X00273812Y00647192
X00271526Y00624078
X00269541Y00604821
X00236982Y00587502
X00227584Y00587725
X0022098Y00586994
X00220726Y00627126
X0022733Y00624967
X0023594Y0063061
X00219964Y00645668
X00232664Y00665734
X00234188Y00694436
X00242365Y00698674
X00232664Y0070866
X00216755Y00693674
X00261874Y00695706
X00274066Y00696027
X00294894Y00703326
X00306483Y00702723
X00305352Y00724613
X00332359Y00717423
X00344777Y00725043
X00318817Y00685753
X00328422Y00675386
X00298704Y00678873
X00290957Y00636143
X00189506Y0062029
X00194785Y00604647
X00176181Y00606457
X00157503Y0059436
X0014605Y00595122
X00169053Y00581056
X00153416Y0056515
X00177285Y0051943
X00270256Y00490474
X00306324Y00494538
X00338963Y00464947
X00337947Y00447421
X00301752Y00411988
X00286619Y00380893
X00262636Y00383794
X00251714Y00415544
X00228092Y00419354
X00264922Y00431546
X00266065Y00338709
X00285115Y00337947
X00338201Y00375031
X003937Y0034671
X0052705Y0035687
Y0050927
X0048895
X00508Y0054737
X0052578Y0054991
X00458724Y00545846
X00452882Y00578358
X0045339Y0059182
X00454406Y00602742
X0046228Y00613918
X00441579Y00590677
X00433204Y0057416
X00398272Y00573278
X00395388Y0059182
X00409325Y00592713
X0048895Y0058547
X00153416Y00724154
X00144399Y007239
X00182626Y00353314
X0018664Y00332027
X00124968Y0044323
X00126238Y00473964
X00125222Y00658062
X00125694Y00670778
X00064312Y00719188
X00040855Y00713217
X00036068Y00724154
X00033782Y00732536
X00047688Y0073843
X00046904Y00751078
X00058784Y00743114
X00066542Y00733687
X00074155Y00725997
X00054356Y00729488
X00055372Y00769112
X00034798
X00008636Y00796798
Y00804926
Y008128
Y00821944
Y0083058
Y00840486
X00008382Y00849376
X0000889Y00859028
X00008636Y00868426
Y00878332
Y00887476
Y00896874
X00020066Y00897636
X00032766
X00045466
X00058166
X00070866
X0006985Y0089027
X00083566Y00897636
X00096266
X00108966
X0010795Y0089027
X00121666Y00897636
X0013335
X00134353Y00850633
X00138684Y00832104
X00105156Y00849376
Y00865642
X00119888Y00794324
X00088138Y00792988
X00065532Y00799338
X00147561Y00814057
X00149098Y00821944
X00157608Y00822073
X0017759Y00821848
X0018034Y00816102
X00178816Y00837946
X00214122Y0083439
X00233295Y00839108
X00260858Y00842518
Y00835152
Y00828294
X00261112Y00820928
Y00814578
X00261366Y00808736
X0027432Y00809752
X00274828Y00816102
Y0082296
Y0083058
Y0084963
Y00856996
X00275082Y00863854
X00275336Y00870458
X00277622Y00876554
X00277368Y00883158
Y00890016
X00278638Y00896874
X0028702
X00295148
X00302006Y00896112
X00310134Y00896366
X00318008Y0089662
X00326136
X00335026
X00324358Y00904748
X00324104Y009144
X00324358Y00923036
Y00931164
Y0093853
Y0094615
Y00954278
Y00961898
Y0097028
Y009779
Y00985012
Y00992886
X00332232Y00992632
X0034544
X00341122Y00987298
X0035814Y00992886
X00370586
X00383032
X00395732
X00408432
X00421132
X0042799Y00987552
X00433832Y00992886
X0041275Y0096647
X0037465
X00361442Y00922274
X0035814Y00897128
X00365506
X00379984Y008763
X00400304Y00863854
X003937Y0085217
X00367538
X00356305Y00836168
X00382524
X00335534Y0084328
X00315976Y0083947
X003175Y0085217
X00344509Y00868058
X0029845Y0089027
X00258826Y00889254
Y00895604
X00253238Y00897636
X00244348Y0089789
X00235204
X00225044
X00213868Y00897636
X00203708Y00897382
X00194056Y00897636
X00182372
X0018415Y0089027
X00170688Y00897636
X00158496
X0014605
Y0089027
X00151879Y00851141
X00167732Y00804764
X00175998Y00771593
X00197612Y0077216
X00215646Y00798322
X00225552Y0079756
X0022479Y0080899
X002493Y0081534
X00290068Y00815594
X00286404Y00806951
X00293116Y00798576
X00305185Y00797175
X00304292Y0081661
X00304625Y00765685
X00316073Y00733649
X00332486Y00743443
X00336866Y00779646
X00335026Y00790956
X00352044Y00776732
X00364998Y00785865
X00365114Y00794755
X00277876Y00790194
X00272288
X00261112Y00849884
Y00856996
X00260858Y00863854
X0026035Y00870458
X0025908Y00876554
Y00883158
X00235271Y00870458
X00223815Y00730964
X00293624Y00729742
X00499872Y00743204
X00510032Y00752348
X0051054Y00774192
X00519684Y0077089
X00535877Y00776541
X00539249Y00783837
X00503555Y00788353
X00503381Y00797456
X0049911Y00776478
X00472768Y0081044
X00443557Y00832685
X00455676Y00844804
X00415036Y00924814
X00541227Y00842319
X00551347Y00839041
X00551942Y00797814
X005588Y00771017
X00581406Y00764794
X00604901Y00793188
X00624078Y00795401
X00647192Y00782955
X00700024Y00789178
X00709168Y0083947
X00736532Y00819561
X0075565Y0081407
X0079375
X0083185
X0086995
X0090805
X009271Y0077597
X0083185Y0073787
X0079375
X0075565
X0071755
X00737616Y0076454
X00588772Y00830326
X0094615Y0081407
X0098425
X0097765Y00804925
X00995172Y00786384
X010033Y0077597
X010414
X010795
X011176
X011557
X011938
X012319
X0127
X013081
X0132715Y0081407
X0128905
X0125095
X0121285
X0117475
X0113665
X0109855
X0106045
X0102235
Y0073787
X0098425
X0094615
X009652Y0077597
X0113665Y0073787
X0117475
X0121285
X0132715
X0136525
X0140335
X0144145
X0147955
X0151765
X0155575
X0159385
X0163195
X0167005
X0170815
X017272Y0077597
X016891
X01651
X016129
X01601978Y00785876
X015748Y0077597
X015367
X014986
X014605
X0141859Y00772668
X013843Y0077597
X013462
X0136525Y0081407
X0140335
X01410716Y00842137
X0144145Y0081407
X0147955
X0151765
X0155575
X01588649Y00810514
X0163195Y0081407
X0167005
X0170815
X0174625
X0178435
X0182245
X018415Y0077597
X018034
X017653
X0178435Y0073787
X0182245
X0174625
T04
X00193398Y00556602
X00213398
X00233398
X00253398
X00273398
X00293398
X00313398
X00333398
X00136144Y00387458
Y00362458
Y00337458
T05
X00022806Y0042069
Y0044069
Y0046069
X00047806
Y0044069
Y0042069
T06
X00150876Y00876046
X00176276
T07
X00064662Y00608942
X00114662
Y00753942
X00089662
X00064662
T08
X00035306Y0039069
Y0049069
T10
X00782574Y-00330962
X00036576Y0086995
T11
X00058134Y0025943
Y0031723
T12
X00297942Y-00510249
X01535918Y-00091177
X01726419
X0067437Y-00188722
X0061087Y-00163322
X00501874Y-00268496
X00438373Y-00243096
X002106Y-00268349
X00220353Y-00336041
X00288189Y-00442557
X00138565Y-00163575
X00128812Y-00095883
X00317246Y00016002
X00380746Y-00009398
X00521716Y00192532
X00585216Y00167132
X00712978Y00145796
X00776478Y00120396
X0090271Y00158211
X00900914Y-00034026
X007747Y00310388
X00964414Y00321577
X0096621Y00132811
X01092708Y0017272
X01156208Y0014732
X01283714Y00158211
X012827Y-00033274
X01155446Y-00042672
X01091946Y-00017272
X00964414Y-00059426
X013462Y-00058674
X01472418Y-00065777
X01662919
X01710544Y00124725
X01710544Y00315226
X01535918Y00289826
X01472418Y00315226
X01345417Y00321577
X01347213Y00132811
X01472418Y00124725
X01535918Y00099325
X01774044
X01774044Y00289826
X01775206Y0048133
X01775968Y00672338
X01712468Y00697738
X01711706Y0050673
X01537208Y0048133
X01473708Y0050673
X0134747Y0051435
X01347213Y00704315
X01475486Y00696468
X01538986Y00671068
X0128397Y0053975
X01157732Y0052959
X01094232Y0055499
X0096621Y00513813
X00966216Y00704088
X01156716Y00720344
X01154915Y00337553
X01091415Y00362953
X01281917Y00346977
X00900914
X0090271Y00539213
X00775709Y00501113
X00712209Y00526513
X00710412Y00715254
X00773912Y00689854
X00585216Y00692658
X00584962Y0045339
X007112Y00335788
X00521462Y0047879
X00521716Y00718058
X00902716Y00729488
X01093216Y00745744
X01283714Y00729715
M30
