G04*
G04 #@! TF.GenerationSoftware,Altium Limited,Altium Designer,24.5.2 (23)*
G04*
G04 Layer_Color=128*
%FSLAX44Y44*%
%MOMM*%
G71*
G04*
G04 #@! TF.SameCoordinates,46E3B4B0-CD5B-4495-8DDB-E651780D3609*
G04*
G04*
G04 #@! TF.FilePolarity,Positive*
G04*
G01*
G75*
%ADD195R,1.5000X0.9000*%
D195*
X903616Y-160010D02*
D03*
Y-127010D02*
D03*
X952616Y-160010D02*
D03*
Y-127010D02*
D03*
X763640Y433822D02*
D03*
Y400822D02*
D03*
X714640Y433822D02*
D03*
Y400822D02*
D03*
X907680Y413014D02*
D03*
Y446014D02*
D03*
X956680Y413014D02*
D03*
Y446014D02*
D03*
X1147180Y462270D02*
D03*
Y429270D02*
D03*
X1098180Y462270D02*
D03*
Y429270D02*
D03*
X327544Y-110988D02*
D03*
Y-77988D02*
D03*
X376544Y-110988D02*
D03*
Y-77988D02*
D03*
X1475624Y-211318D02*
D03*
Y-178318D02*
D03*
X1524624Y-211318D02*
D03*
Y-178318D02*
D03*
X1335394Y-134884D02*
D03*
Y-167884D02*
D03*
X1286394Y-134884D02*
D03*
Y-167884D02*
D03*
X1087766Y-150612D02*
D03*
Y-117612D02*
D03*
X1136766Y-150612D02*
D03*
Y-117612D02*
D03*
X612786Y-314696D02*
D03*
Y-281696D02*
D03*
X661786Y-314696D02*
D03*
Y-281696D02*
D03*
X493638Y-345196D02*
D03*
Y-378196D02*
D03*
X444638Y-345196D02*
D03*
Y-378196D02*
D03*
X378344Y-451856D02*
D03*
Y-418856D02*
D03*
X427344Y-451856D02*
D03*
Y-418856D02*
D03*
X1761860Y4308D02*
D03*
Y-28692D02*
D03*
X1712860Y4308D02*
D03*
Y-28692D02*
D03*
X1472830Y-29200D02*
D03*
Y3800D02*
D03*
X1521830Y-29200D02*
D03*
Y3800D02*
D03*
X1335648Y36312D02*
D03*
Y3312D02*
D03*
X1286648Y36312D02*
D03*
Y3312D02*
D03*
X1091576Y17790D02*
D03*
Y50790D02*
D03*
X1140576Y17790D02*
D03*
Y50790D02*
D03*
X956172Y37074D02*
D03*
Y4074D02*
D03*
X907172Y37074D02*
D03*
Y4074D02*
D03*
X704226Y-4562D02*
D03*
Y28438D02*
D03*
X753226Y-4562D02*
D03*
Y28438D02*
D03*
X569584Y73904D02*
D03*
Y40904D02*
D03*
X520584Y73904D02*
D03*
Y40904D02*
D03*
X299858Y-268214D02*
D03*
Y-235214D02*
D03*
X348858Y-268214D02*
D03*
Y-235214D02*
D03*
X1762622Y197348D02*
D03*
Y164348D02*
D03*
X1713622Y197348D02*
D03*
Y164348D02*
D03*
X1469782D02*
D03*
Y197348D02*
D03*
X1518782Y164348D02*
D03*
Y197348D02*
D03*
X1332854Y228590D02*
D03*
Y195590D02*
D03*
X1283854Y228590D02*
D03*
Y195590D02*
D03*
X1092338Y215402D02*
D03*
Y248402D02*
D03*
X1141338Y215402D02*
D03*
Y248402D02*
D03*
X949706Y230104D02*
D03*
Y197104D02*
D03*
X900706Y230104D02*
D03*
Y197104D02*
D03*
X709052Y185938D02*
D03*
Y218938D02*
D03*
X758052Y185938D02*
D03*
Y218938D02*
D03*
X211771Y-90222D02*
D03*
Y-57222D02*
D03*
X260771Y-90222D02*
D03*
Y-57222D02*
D03*
X1762622Y390388D02*
D03*
Y357388D02*
D03*
X1713622Y390388D02*
D03*
Y357388D02*
D03*
X1478418Y354086D02*
D03*
Y387086D02*
D03*
X1527418Y354086D02*
D03*
Y387086D02*
D03*
X1335648Y418582D02*
D03*
Y385582D02*
D03*
X1286648Y418582D02*
D03*
Y385582D02*
D03*
X571870Y360416D02*
D03*
Y327416D02*
D03*
X522870Y360416D02*
D03*
Y327416D02*
D03*
X1762622Y577332D02*
D03*
Y544332D02*
D03*
X1713622Y577332D02*
D03*
Y544332D02*
D03*
X1527672Y580634D02*
D03*
Y547634D02*
D03*
X1478672Y580634D02*
D03*
Y547634D02*
D03*
X1288172Y578876D02*
D03*
Y611876D02*
D03*
X1337172Y578876D02*
D03*
Y611876D02*
D03*
X1140576Y622798D02*
D03*
Y589798D02*
D03*
X1091576Y622798D02*
D03*
Y589798D02*
D03*
X901584Y572526D02*
D03*
Y605526D02*
D03*
X950584Y572526D02*
D03*
Y605526D02*
D03*
X762116Y596382D02*
D03*
Y563382D02*
D03*
X713116Y596382D02*
D03*
Y563382D02*
D03*
X523378Y569732D02*
D03*
Y602732D02*
D03*
X572378Y569732D02*
D03*
Y602732D02*
D03*
X1718680Y-178318D02*
D03*
Y-211318D02*
D03*
X1669680Y-178318D02*
D03*
Y-211318D02*
D03*
M02*
