G04*
G04 #@! TF.GenerationSoftware,Altium Limited,Altium Designer,24.5.2 (23)*
G04*
G04 Layer_Color=255*
%FSLAX44Y44*%
%MOMM*%
G71*
G04*
G04 #@! TF.SameCoordinates,B2DEAD2E-F19F-4043-ADCB-FE0AD24F75F7*
G04*
G04*
G04 #@! TF.FilePolarity,Positive*
G04*
G01*
G75*
%ADD160C,1.3080*%
%ADD161R,1.3080X1.3080*%
%ADD162O,3.0000X6.0000*%
%ADD163C,1.6500*%
%ADD164R,1.6500X1.6500*%
%ADD165C,0.3000*%
G04:AMPARAMS|DCode=166|XSize=1.308mm|YSize=1.308mm|CornerRadius=0.327mm|HoleSize=0mm|Usage=FLASHONLY|Rotation=90.000|XOffset=0mm|YOffset=0mm|HoleType=Round|Shape=RoundedRectangle|*
%AMROUNDEDRECTD166*
21,1,1.3080,0.6540,0,0,90.0*
21,1,0.6540,1.3080,0,0,90.0*
1,1,0.6540,0.3270,0.3270*
1,1,0.6540,0.3270,-0.3270*
1,1,0.6540,-0.3270,-0.3270*
1,1,0.6540,-0.3270,0.3270*
%
%ADD166ROUNDEDRECTD166*%
%ADD167O,1.7000X0.9000*%
%ADD168O,2.0000X0.9000*%
%ADD169C,0.6000*%
%ADD170C,4.5720*%
%ADD171C,2.2650*%
%ADD172C,1.4380*%
%ADD173R,1.4380X1.4380*%
%ADD174C,4.0000*%
%ADD175C,5.9000*%
%ADD199R,1.5000X0.9000*%
D160*
X193398Y556602D02*
D03*
X213398D02*
D03*
X233398D02*
D03*
X253398D02*
D03*
X273398D02*
D03*
X293398D02*
D03*
X313398D02*
D03*
X136144Y362458D02*
D03*
Y337458D02*
D03*
D161*
X333398Y556602D02*
D03*
D162*
X147170Y678434D02*
D03*
X33170D02*
D03*
D163*
X115170Y753434D02*
D03*
X90170D02*
D03*
X65170D02*
D03*
X115170Y608434D02*
D03*
D164*
X65170D02*
D03*
D165*
X268602Y407416D02*
D03*
X276352D02*
D03*
X284102D02*
D03*
X276352Y399666D02*
D03*
Y415166D02*
D03*
D166*
X136144Y387458D02*
D03*
D167*
X21334Y245080D02*
D03*
Y331580D02*
D03*
D168*
X63034Y245080D02*
D03*
Y331580D02*
D03*
D169*
X58134Y259430D02*
D03*
Y317230D02*
D03*
D170*
X782574Y-330962D02*
D03*
X36576Y869950D02*
D03*
D171*
X34036Y390652D02*
D03*
Y490652D02*
D03*
D172*
X21536Y420652D02*
D03*
Y440652D02*
D03*
Y460652D02*
D03*
X46536Y420652D02*
D03*
Y440652D02*
D03*
D173*
Y460652D02*
D03*
D174*
X1499615Y456463D02*
D03*
X1737741Y75460D02*
D03*
X1118612Y-67314D02*
D03*
X250688Y-288346D02*
D03*
X737609Y94511D02*
D03*
X1499615Y265962D02*
D03*
X1118612Y694691D02*
D03*
X928110Y297712D02*
D03*
X547108Y427888D02*
D03*
Y665990D02*
D03*
X737609Y285012D02*
D03*
X1309113Y678715D02*
D03*
Y107211D02*
D03*
X547108Y142136D02*
D03*
X463773Y-294096D02*
D03*
X1309113Y-83291D02*
D03*
X1499615Y75460D02*
D03*
X1499615Y646939D02*
D03*
X1737742Y456463D02*
D03*
X1690116Y-115041D02*
D03*
X928110Y-83291D02*
D03*
X170195Y-115701D02*
D03*
X928110Y107211D02*
D03*
X1309113Y297712D02*
D03*
X928110Y678715D02*
D03*
Y488213D02*
D03*
X737609Y475513D02*
D03*
Y665990D02*
D03*
X1118612Y504190D02*
D03*
X1309113Y488213D02*
D03*
X1118612Y123188D02*
D03*
X342840Y-35208D02*
D03*
X636418Y-213577D02*
D03*
X1499615Y-115041D02*
D03*
X1737742Y265962D02*
D03*
Y646939D02*
D03*
D175*
X361716Y-355465D02*
D03*
D199*
X1525386Y-179080D02*
D03*
Y-212080D02*
D03*
X1476386Y-179080D02*
D03*
Y-212080D02*
D03*
X1333362Y-156220D02*
D03*
Y-189220D02*
D03*
X1284362Y-156220D02*
D03*
Y-189220D02*
D03*
X1140830Y-141996D02*
D03*
Y-174996D02*
D03*
X1091830Y-141996D02*
D03*
Y-174996D02*
D03*
X951854Y-136154D02*
D03*
Y-169154D02*
D03*
X902854Y-136154D02*
D03*
Y-169154D02*
D03*
X662294Y-254772D02*
D03*
Y-287772D02*
D03*
X613294Y-254772D02*
D03*
Y-287772D02*
D03*
X494400Y-365516D02*
D03*
Y-398516D02*
D03*
X445400Y-365516D02*
D03*
Y-398516D02*
D03*
X422772Y-408188D02*
D03*
Y-441188D02*
D03*
X373772Y-408188D02*
D03*
Y-441188D02*
D03*
X1762622Y4562D02*
D03*
Y-28438D02*
D03*
X1713622Y4562D02*
D03*
Y-28438D02*
D03*
X1522338Y5324D02*
D03*
Y-27676D02*
D03*
X1473338Y5324D02*
D03*
Y-27676D02*
D03*
X1335140Y35550D02*
D03*
Y2550D02*
D03*
X1286140Y35550D02*
D03*
Y2550D02*
D03*
X1138290Y51298D02*
D03*
Y18298D02*
D03*
X1089290Y51298D02*
D03*
Y18298D02*
D03*
X956680Y37074D02*
D03*
Y4074D02*
D03*
X907680Y37074D02*
D03*
Y4074D02*
D03*
X759322Y24374D02*
D03*
Y-8626D02*
D03*
X710322Y24374D02*
D03*
Y-8626D02*
D03*
X569584Y71618D02*
D03*
Y38618D02*
D03*
X520584Y71618D02*
D03*
Y38618D02*
D03*
X349620Y-233690D02*
D03*
Y-266690D02*
D03*
X300620Y-233690D02*
D03*
Y-266690D02*
D03*
X1763130Y194046D02*
D03*
Y161046D02*
D03*
X1714130Y194046D02*
D03*
Y161046D02*
D03*
X1519798Y196586D02*
D03*
Y163586D02*
D03*
X1470798Y196586D02*
D03*
Y163586D02*
D03*
X1332092Y227066D02*
D03*
Y194066D02*
D03*
X1283092Y227066D02*
D03*
Y194066D02*
D03*
X1143878Y240274D02*
D03*
Y207274D02*
D03*
X1094878Y240274D02*
D03*
Y207274D02*
D03*
X949314Y226812D02*
D03*
Y193812D02*
D03*
X900314Y226812D02*
D03*
Y193812D02*
D03*
X759322Y215128D02*
D03*
Y182128D02*
D03*
X710322Y215128D02*
D03*
Y182128D02*
D03*
X371718Y-106944D02*
D03*
Y-139944D02*
D03*
X322718Y-106944D02*
D03*
Y-139944D02*
D03*
X257632Y-60361D02*
D03*
Y-93361D02*
D03*
X208632Y-60361D02*
D03*
Y-93361D02*
D03*
X1762876Y388864D02*
D03*
Y355864D02*
D03*
X1713876Y388864D02*
D03*
Y355864D02*
D03*
X1530466Y387594D02*
D03*
Y354594D02*
D03*
X1481466Y387594D02*
D03*
Y354594D02*
D03*
X1335394Y419852D02*
D03*
Y386852D02*
D03*
X1286394Y419852D02*
D03*
Y386852D02*
D03*
X1146164Y430520D02*
D03*
Y397520D02*
D03*
X1097164Y430520D02*
D03*
Y397520D02*
D03*
X954394Y417058D02*
D03*
Y384058D02*
D03*
X905394Y417058D02*
D03*
Y384058D02*
D03*
X762624Y404866D02*
D03*
Y371866D02*
D03*
X713624Y404866D02*
D03*
Y371866D02*
D03*
X574664Y356352D02*
D03*
Y323352D02*
D03*
X525664Y356352D02*
D03*
Y323352D02*
D03*
X1713114Y544586D02*
D03*
Y577586D02*
D03*
X1762114Y544586D02*
D03*
Y577586D02*
D03*
X1526148Y575808D02*
D03*
Y542808D02*
D03*
X1477148Y575808D02*
D03*
Y542808D02*
D03*
X1333870Y610352D02*
D03*
Y577352D02*
D03*
X1284870Y610352D02*
D03*
Y577352D02*
D03*
X1143370Y620258D02*
D03*
Y587258D02*
D03*
X1094370Y620258D02*
D03*
Y587258D02*
D03*
X950076Y611876D02*
D03*
Y578876D02*
D03*
X901076Y611876D02*
D03*
Y578876D02*
D03*
X762624Y595112D02*
D03*
Y562112D02*
D03*
X713624Y595112D02*
D03*
Y562112D02*
D03*
X569584Y598668D02*
D03*
Y565668D02*
D03*
X520584Y598668D02*
D03*
Y565668D02*
D03*
X1718426Y-179080D02*
D03*
Y-212080D02*
D03*
X1669426Y-179080D02*
D03*
Y-212080D02*
D03*
M02*
