G04*
G04 #@! TF.GenerationSoftware,Altium Limited,Altium Designer,24.5.2 (23)*
G04*
G04 Layer_Color=16711935*
%FSLAX44Y44*%
%MOMM*%
G71*
G04*
G04 #@! TF.SameCoordinates,B2DEAD2E-F19F-4043-ADCB-FE0AD24F75F7*
G04*
G04*
G04 #@! TF.FilePolarity,Positive*
G04*
G01*
G75*
%ADD11C,0.2000*%
%ADD13C,0.1000*%
%ADD14C,0.2540*%
%ADD16C,0.1270*%
%ADD201C,0.0000*%
%ADD202C,0.0254*%
%ADD203C,0.1400*%
%ADD204C,0.1540*%
D11*
X403732Y624180D02*
G03*
X403732Y624180I-1000J0D01*
G01*
X502030Y809600D02*
G03*
X502030Y809600I-1000J0D01*
G01*
X334398Y532602D02*
G03*
X334398Y532602I-1000J0D01*
G01*
X49170Y602434D02*
G03*
X49170Y602434I-1000J0D01*
G01*
X267352Y377916D02*
G03*
X267352Y377916I-1000J0D01*
G01*
X82334Y320330D02*
G03*
X82334Y320330I-1000J0D01*
G01*
X446532Y971190D02*
G03*
X446532Y971190I-1000J0D01*
G01*
X70536Y460652D02*
G03*
X70536Y460652I-1000J0D01*
G01*
D13*
X87900Y824642D02*
G03*
X87900Y824642I-5000J0D01*
G01*
X291282Y737304D02*
G03*
X291282Y737304I-5000J0D01*
G01*
X166766Y827450D02*
Y848950D01*
X152766Y827450D02*
Y848950D01*
Y827450D02*
X166766D01*
X152766Y848950D02*
X166766D01*
X138602Y570118D02*
X160102D01*
X138602Y556118D02*
X160102D01*
Y570118D01*
X138602Y556118D02*
Y570118D01*
X610534Y806816D02*
X632034D01*
X610534Y820816D02*
X632034D01*
X610534Y806816D02*
Y820816D01*
X632034Y806816D02*
Y820816D01*
X73900Y803642D02*
Y833642D01*
X103900Y803642D02*
Y833642D01*
X73900D02*
X103900D01*
X73900Y803642D02*
X103900D01*
X311548Y772748D02*
X329548D01*
X311548Y782748D02*
X329548D01*
Y772748D02*
Y782748D01*
X311548Y772748D02*
Y782748D01*
X343806Y762334D02*
X361806D01*
X343806Y772334D02*
X361806D01*
Y762334D02*
Y772334D01*
X343806Y762334D02*
Y772334D01*
X230522Y874696D02*
X248522D01*
X230522Y864696D02*
X248522D01*
X230522D02*
Y874696D01*
X248522Y864696D02*
Y874696D01*
X240428Y831262D02*
X258428D01*
X240428Y821262D02*
X258428D01*
X240428D02*
Y831262D01*
X258428Y821262D02*
Y831262D01*
X345063Y742250D02*
X363063D01*
X345063Y732250D02*
X363063D01*
X345063D02*
Y742250D01*
X363063Y732250D02*
Y742250D01*
X350694Y818532D02*
Y836532D01*
X340694Y818532D02*
Y836532D01*
X350694D01*
X340694Y818532D02*
X350694D01*
X224426Y698674D02*
X242426D01*
X224426Y688674D02*
X242426D01*
X224426D02*
Y698674D01*
X242426Y688674D02*
Y698674D01*
X253826Y690008D02*
Y708008D01*
X263826Y690008D02*
Y708008D01*
X253826Y690008D02*
X263826D01*
X253826Y708008D02*
X263826D01*
X192960Y754524D02*
Y772524D01*
X182960Y754524D02*
Y772524D01*
X192960D01*
X182960Y754524D02*
X192960D01*
X269320Y689754D02*
Y707754D01*
X279320Y689754D02*
Y707754D01*
X269320Y689754D02*
X279320D01*
X269320Y707754D02*
X279320D01*
X224426Y713914D02*
X242426D01*
X224426Y703914D02*
X242426D01*
X224426D02*
Y713914D01*
X242426Y703914D02*
Y713914D01*
X241444Y656670D02*
X259444D01*
X241444Y666670D02*
X259444D01*
Y656670D02*
Y666670D01*
X241444Y656670D02*
Y666670D01*
Y637366D02*
X259444D01*
X241444Y647366D02*
X259444D01*
Y637366D02*
Y647366D01*
X241444Y637366D02*
Y647366D01*
X407814Y905176D02*
X425814D01*
X407814Y895176D02*
X425814D01*
X407814D02*
Y905176D01*
X425814Y895176D02*
Y905176D01*
X213280Y754664D02*
Y772664D01*
X203280Y754664D02*
Y772664D01*
X213280D01*
X203280Y754664D02*
X213280D01*
X263732Y463948D02*
Y481948D01*
X273732Y463948D02*
Y481948D01*
X263732Y463948D02*
X273732D01*
X263732Y481948D02*
X273732D01*
X289454Y348610D02*
Y366610D01*
X279454Y348610D02*
Y366610D01*
X289454D01*
X279454Y348610D02*
X289454D01*
X246498Y344736D02*
X264498D01*
X246498Y354736D02*
X264498D01*
Y344736D02*
Y354736D01*
X246498Y344736D02*
Y354736D01*
X244522Y401350D02*
Y419350D01*
X234522Y401350D02*
Y419350D01*
X244522D01*
X234522Y401350D02*
X244522D01*
X220392Y401210D02*
Y419210D01*
X210392Y401210D02*
Y419210D01*
X220392D01*
X210392Y401210D02*
X220392D01*
X667686Y806848D02*
Y824848D01*
X657686Y806848D02*
Y824848D01*
X667686D01*
X657686Y806848D02*
X667686D01*
X261454Y843994D02*
X272454D01*
X261454Y837994D02*
X272454D01*
X261454D02*
Y843994D01*
X272454Y837994D02*
Y843994D01*
X175696Y738006D02*
Y755006D01*
X166696Y738006D02*
Y755006D01*
X175696D01*
X166696Y738006D02*
X175696D01*
X378088Y894406D02*
X395088D01*
X378088Y903406D02*
X395088D01*
Y894406D02*
Y903406D01*
X378088Y894406D02*
Y903406D01*
X92020Y426220D02*
Y443220D01*
X101020Y426220D02*
Y443220D01*
X92020Y426220D02*
X101020D01*
X92020Y443220D02*
X101020D01*
X1433250Y782202D02*
Y799202D01*
X1424250Y782202D02*
Y799202D01*
X1433250D01*
X1424250Y782202D02*
X1433250D01*
X1218620Y785250D02*
Y802250D01*
X1209620Y785250D02*
Y802250D01*
X1218620D01*
X1209620Y785250D02*
X1218620D01*
X1016944Y782202D02*
Y799202D01*
X1007944Y782202D02*
Y799202D01*
X1016944D01*
X1007944Y782202D02*
X1016944D01*
X844732Y770772D02*
Y787772D01*
X835732Y770772D02*
Y787772D01*
X844732D01*
X835732Y770772D02*
X844732D01*
X630864Y755024D02*
Y772024D01*
X621864Y755024D02*
Y772024D01*
X630864D01*
X621864Y755024D02*
X630864D01*
X90860Y-45710D02*
Y-28710D01*
X81860Y-45710D02*
Y-28710D01*
X90860D01*
X81860Y-45710D02*
X90860D01*
X440318Y673282D02*
X457318D01*
X440318Y664282D02*
X457318D01*
X440318D02*
Y673282D01*
X457318Y664282D02*
Y673282D01*
X566302Y798394D02*
X583302D01*
X566302Y807394D02*
X583302D01*
Y798394D02*
Y807394D01*
X566302Y798394D02*
Y807394D01*
X289442Y671504D02*
X306442D01*
X289442Y662504D02*
X306442D01*
X289442D02*
Y671504D01*
X306442Y662504D02*
Y671504D01*
X289696Y689538D02*
X306696D01*
X289696Y680538D02*
X306696D01*
X289696D02*
Y689538D01*
X306696Y680538D02*
Y689538D01*
X240674Y817554D02*
X257674D01*
X240674Y808554D02*
X257674D01*
X240674D02*
Y817554D01*
X257674Y808554D02*
Y817554D01*
X217352Y815222D02*
Y832222D01*
X208352Y815222D02*
Y832222D01*
X217352D01*
X208352Y815222D02*
X217352D01*
X1860986Y792616D02*
Y809616D01*
X1851986Y792616D02*
Y809616D01*
X1860986D01*
X1851986Y792616D02*
X1860986D01*
X231276Y858448D02*
X248276D01*
X231276Y849448D02*
X248276D01*
X231276D02*
Y858448D01*
X248276Y849448D02*
Y858448D01*
X566302Y791646D02*
X583302D01*
X566302Y782646D02*
X583302D01*
X566302D02*
Y791646D01*
X583302Y782646D02*
Y791646D01*
X387422Y645550D02*
Y662550D01*
X396422Y645550D02*
Y662550D01*
X387422Y645550D02*
X396422D01*
X387422Y662550D02*
X396422D01*
X292790Y442096D02*
Y459096D01*
X283790Y442096D02*
Y459096D01*
X292790D01*
X283790Y442096D02*
X292790D01*
X312784Y452703D02*
X329784D01*
X312784Y443703D02*
X329784D01*
X312784D02*
Y452703D01*
X329784Y443703D02*
Y452703D01*
X312784Y380398D02*
X329784D01*
X312784Y371398D02*
X329784D01*
X312784D02*
Y380398D01*
X329784Y371398D02*
Y380398D01*
X312784Y425627D02*
X329784D01*
X312784Y434627D02*
X329784D01*
Y425627D02*
Y434627D01*
X312784Y425627D02*
Y434627D01*
Y407550D02*
X329784D01*
X312784Y416550D02*
X329784D01*
Y407550D02*
Y416550D01*
X312784Y407550D02*
Y416550D01*
Y389474D02*
X329784D01*
X312784Y398474D02*
X329784D01*
Y389474D02*
Y398474D01*
X312784Y389474D02*
Y398474D01*
X84208Y259954D02*
X101208D01*
X84208Y268954D02*
X101208D01*
Y259954D02*
Y268954D01*
X84208Y259954D02*
Y268954D01*
X83192Y289672D02*
X100192D01*
X83192Y298672D02*
X100192D01*
Y289672D02*
Y298672D01*
X83192Y289672D02*
Y298672D01*
X312784Y470779D02*
X329784D01*
X312784Y461779D02*
X329784D01*
X312784D02*
Y470779D01*
X329784Y461779D02*
Y470779D01*
X312784Y479855D02*
X329784D01*
X312784Y488856D02*
X329784D01*
Y479855D02*
Y488856D01*
X312784Y479855D02*
Y488856D01*
X1627052Y786266D02*
Y803266D01*
X1618052Y786266D02*
Y803266D01*
X1627052D01*
X1618052Y786266D02*
X1627052D01*
X268780Y853020D02*
X274780D01*
X268780Y864020D02*
X274780D01*
X268780Y853020D02*
Y864020D01*
X274780Y853020D02*
Y864020D01*
X194866Y849210D02*
X200866D01*
X194866Y860210D02*
X200866D01*
X194866Y849210D02*
Y860210D01*
X200866Y849210D02*
Y860210D01*
X427276Y651080D02*
X433276D01*
X427276Y640080D02*
X433276D01*
Y651080D01*
X427276Y640080D02*
Y651080D01*
X464400Y818182D02*
Y824182D01*
X475400Y818182D02*
Y824182D01*
X464400D02*
X475400D01*
X464400Y818182D02*
X475400D01*
X236177Y835817D02*
Y841817D01*
X247177Y835817D02*
Y841817D01*
X236177D02*
X247177D01*
X236177Y835817D02*
X247177D01*
X209053Y335477D02*
X215053D01*
X209053Y324477D02*
X215053D01*
Y335477D01*
X209053Y324477D02*
Y335477D01*
X640128Y810094D02*
X646128D01*
X640128Y821094D02*
X646128D01*
X640128Y810094D02*
Y821094D01*
X646128Y810094D02*
Y821094D01*
X172006Y549568D02*
X178006D01*
X172006Y538568D02*
X178006D01*
Y549568D01*
X172006Y538568D02*
Y549568D01*
X343552Y758110D02*
X361552D01*
X343552Y748110D02*
X361552D01*
X343552D02*
Y758110D01*
X361552Y748110D02*
Y758110D01*
X230776Y880190D02*
X248776D01*
X230776Y890190D02*
X248776D01*
Y880190D02*
Y890190D01*
X230776Y880190D02*
Y890190D01*
X274759Y815936D02*
Y826936D01*
X268759Y815936D02*
Y826936D01*
X274759D01*
X268759Y815936D02*
X274759D01*
X274760Y874610D02*
Y885610D01*
X268760Y874610D02*
Y885610D01*
X274760D01*
X268760Y874610D02*
X274760D01*
X279742Y655526D02*
X290742D01*
X279742Y649526D02*
X290742D01*
X279742D02*
Y655526D01*
X290742Y649526D02*
Y655526D01*
X330572Y746324D02*
Y755324D01*
X313572Y746324D02*
Y755324D01*
Y746324D02*
X330572D01*
X313572Y755324D02*
X330572D01*
X301362Y481148D02*
Y490148D01*
X284362Y481148D02*
Y490148D01*
Y481148D02*
X301362D01*
X284362Y490148D02*
X301362D01*
X110054Y443094D02*
X119054D01*
X110054Y426094D02*
X119054D01*
Y443094D01*
X110054Y426094D02*
Y443094D01*
X295282Y728304D02*
Y799304D01*
X224282Y728304D02*
Y799304D01*
Y728304D02*
X295282D01*
X224282Y799304D02*
X295282D01*
X416814Y601513D02*
Y604845D01*
X415981Y605678D01*
X414315D01*
X413482Y604845D01*
Y601513D01*
X414315Y600680D01*
X415981D01*
X415148Y602346D02*
X416814Y600680D01*
X415981D02*
X416814Y601513D01*
X418480Y604845D02*
X419313Y605678D01*
X420979D01*
X421813Y604845D01*
Y604012D01*
X420979Y603179D01*
X420146D01*
X420979D01*
X421813Y602346D01*
Y601513D01*
X420979Y600680D01*
X419313D01*
X418480Y601513D01*
X515112Y786933D02*
Y790265D01*
X514279Y791098D01*
X512613D01*
X511780Y790265D01*
Y786933D01*
X512613Y786100D01*
X514279D01*
X513446Y787766D02*
X515112Y786100D01*
X514279D02*
X515112Y786933D01*
X519277Y786100D02*
Y791098D01*
X516778Y788599D01*
X520111D01*
X162434Y847117D02*
Y843784D01*
X163267Y842951D01*
X164933D01*
X165766Y843784D01*
Y847117D01*
X164933Y847950D01*
X163267D01*
X164100Y846284D02*
X162434Y847950D01*
X163267D02*
X162434Y847117D01*
X157435Y842951D02*
X160768D01*
Y845451D01*
X159101Y844617D01*
X158268D01*
X157435Y845451D01*
Y847117D01*
X158268Y847950D01*
X159935D01*
X160768Y847117D01*
X140435Y565786D02*
X143767D01*
X144600Y566619D01*
Y568285D01*
X143767Y569118D01*
X140435D01*
X139602Y568285D01*
Y566619D01*
X141268Y567452D02*
X139602Y565786D01*
Y566619D02*
X140435Y565786D01*
X144600Y564120D02*
Y560787D01*
X143767D01*
X140435Y564120D01*
X139602D01*
X630201Y811148D02*
X626869D01*
X626035Y810315D01*
Y808649D01*
X626869Y807816D01*
X630201D01*
X631034Y808649D01*
Y810315D01*
X629368Y809482D02*
X631034Y811148D01*
Y810315D02*
X630201Y811148D01*
X626869Y812814D02*
X626035Y813648D01*
Y815314D01*
X626869Y816147D01*
X627702D01*
X628535Y815314D01*
X629368Y816147D01*
X630201D01*
X631034Y815314D01*
Y813648D01*
X630201Y812814D01*
X629368D01*
X628535Y813648D01*
X627702Y812814D01*
X626869D01*
X628535Y813648D02*
Y815314D01*
X81565Y806308D02*
Y812973D01*
X79898Y814639D01*
X76566D01*
X74900Y812973D01*
Y806308D01*
X76566Y804642D01*
X79898D01*
X78232Y807974D02*
X81565Y804642D01*
X79898D02*
X81565Y806308D01*
X91561Y814639D02*
X88229Y812973D01*
X84897Y809640D01*
Y806308D01*
X86563Y804642D01*
X89895D01*
X91561Y806308D01*
Y807974D01*
X89895Y809640D01*
X84897D01*
X314214Y776080D02*
X313547Y776747D01*
X312214D01*
X311548Y776080D01*
Y773414D01*
X312214Y772748D01*
X313547D01*
X314214Y773414D01*
X318213Y772748D02*
X315547D01*
X318213Y775414D01*
Y776080D01*
X317546Y776747D01*
X316213D01*
X315547Y776080D01*
X346472Y765666D02*
X345805Y766333D01*
X344472D01*
X343806Y765666D01*
Y763000D01*
X344472Y762334D01*
X345805D01*
X346472Y763000D01*
X347805Y765666D02*
X348471Y766333D01*
X349804D01*
X350471Y765666D01*
Y765000D01*
X349804Y764333D01*
X349138D01*
X349804D01*
X350471Y763667D01*
Y763000D01*
X349804Y762334D01*
X348471D01*
X347805Y763000D01*
X245856Y871364D02*
X246523Y870697D01*
X247856D01*
X248522Y871364D01*
Y874030D01*
X247856Y874696D01*
X246523D01*
X245856Y874030D01*
X242524Y874696D02*
Y870697D01*
X244523Y872697D01*
X241857D01*
X255762Y827930D02*
X256429Y827263D01*
X257762D01*
X258428Y827930D01*
Y830596D01*
X257762Y831262D01*
X256429D01*
X255762Y830596D01*
X251763Y827263D02*
X254429D01*
Y829263D01*
X253096Y828596D01*
X252430D01*
X251763Y829263D01*
Y830596D01*
X252430Y831262D01*
X253763D01*
X254429Y830596D01*
X360397Y738917D02*
X361064Y738251D01*
X362397D01*
X363063Y738917D01*
Y741583D01*
X362397Y742250D01*
X361064D01*
X360397Y741583D01*
X356399Y738251D02*
X357732Y738917D01*
X359064Y740250D01*
Y741583D01*
X358398Y742250D01*
X357065D01*
X356399Y741583D01*
Y740917D01*
X357065Y740250D01*
X359064D01*
X347362Y821198D02*
X346695Y820531D01*
Y819198D01*
X347362Y818532D01*
X350028D01*
X350694Y819198D01*
Y820531D01*
X350028Y821198D01*
X346695Y822531D02*
Y825197D01*
X347362D01*
X350028Y822531D01*
X350694D01*
X239760Y695342D02*
X240427Y694675D01*
X241760D01*
X242426Y695342D01*
Y698008D01*
X241760Y698674D01*
X240427D01*
X239760Y698008D01*
X238427Y695342D02*
X237761Y694675D01*
X236428D01*
X235762Y695342D01*
Y696008D01*
X236428Y696675D01*
X235762Y697341D01*
Y698008D01*
X236428Y698674D01*
X237761D01*
X238427Y698008D01*
Y697341D01*
X237761Y696675D01*
X238427Y696008D01*
Y695342D01*
X237761Y696675D02*
X236428D01*
X257158Y705342D02*
X257825Y706009D01*
Y707342D01*
X257158Y708008D01*
X254492D01*
X253826Y707342D01*
Y706009D01*
X254492Y705342D01*
Y704009D02*
X253826Y703343D01*
Y702010D01*
X254492Y701344D01*
X257158D01*
X257825Y702010D01*
Y703343D01*
X257158Y704009D01*
X256492D01*
X255825Y703343D01*
Y701344D01*
X189628Y757190D02*
X188961Y756523D01*
Y755190D01*
X189628Y754524D01*
X192294D01*
X192960Y755190D01*
Y756523D01*
X192294Y757190D01*
X192960Y758523D02*
Y759856D01*
Y759189D01*
X188961D01*
X189628Y758523D01*
Y761855D02*
X188961Y762521D01*
Y763854D01*
X189628Y764521D01*
X192294D01*
X192960Y763854D01*
Y762521D01*
X192294Y761855D01*
X189628D01*
X272652Y705088D02*
X273319Y705755D01*
Y707088D01*
X272652Y707754D01*
X269986D01*
X269320Y707088D01*
Y705755D01*
X269986Y705088D01*
X269320Y703755D02*
Y702422D01*
Y703089D01*
X273319D01*
X272652Y703755D01*
X269320Y697757D02*
Y700423D01*
X271986Y697757D01*
X272652D01*
X273319Y698424D01*
Y699757D01*
X272652Y700423D01*
X239760Y710582D02*
X240427Y709915D01*
X241760D01*
X242426Y710582D01*
Y713248D01*
X241760Y713914D01*
X240427D01*
X239760Y713248D01*
X238427Y713914D02*
X237094D01*
X237761D01*
Y709915D01*
X238427Y710582D01*
X235095D02*
X234429Y709915D01*
X233096D01*
X232429Y710582D01*
Y711248D01*
X233096Y711915D01*
X233762D01*
X233096D01*
X232429Y712581D01*
Y713248D01*
X233096Y713914D01*
X234429D01*
X235095Y713248D01*
X244110Y660002D02*
X243443Y660669D01*
X242110D01*
X241444Y660002D01*
Y657336D01*
X242110Y656670D01*
X243443D01*
X244110Y657336D01*
X248109Y656670D02*
X245443D01*
X248109Y659336D01*
Y660002D01*
X247442Y660669D01*
X246109D01*
X245443Y660002D01*
X249441D02*
X250108Y660669D01*
X251441D01*
X252107Y660002D01*
Y657336D01*
X251441Y656670D01*
X250108D01*
X249441Y657336D01*
Y660002D01*
X244110Y640698D02*
X243443Y641365D01*
X242110D01*
X241444Y640698D01*
Y638032D01*
X242110Y637366D01*
X243443D01*
X244110Y638032D01*
X248109Y637366D02*
X245443D01*
X248109Y640032D01*
Y640698D01*
X247442Y641365D01*
X246109D01*
X245443Y640698D01*
X249441Y637366D02*
X250774D01*
X250108D01*
Y641365D01*
X249441Y640698D01*
X423148Y901844D02*
X423815Y901177D01*
X425148D01*
X425814Y901844D01*
Y904510D01*
X425148Y905176D01*
X423815D01*
X423148Y904510D01*
X421815Y905176D02*
X420482D01*
X421149D01*
Y901177D01*
X421815Y901844D01*
X416484Y905176D02*
Y901177D01*
X418483Y903177D01*
X415817D01*
X209948Y757330D02*
X209281Y756664D01*
Y755331D01*
X209948Y754664D01*
X212614D01*
X213280Y755331D01*
Y756664D01*
X212614Y757330D01*
X213280Y758663D02*
Y759996D01*
Y759329D01*
X209281D01*
X209948Y758663D01*
X213280Y761995D02*
Y763328D01*
Y762662D01*
X209281D01*
X209948Y761995D01*
X267064Y479282D02*
X267731Y479949D01*
Y481282D01*
X267064Y481948D01*
X264398D01*
X263732Y481282D01*
Y479949D01*
X264398Y479282D01*
X263732Y477949D02*
Y476616D01*
Y477283D01*
X267731D01*
X267064Y477949D01*
X264398Y474617D02*
X263732Y473951D01*
Y472618D01*
X264398Y471951D01*
X267064D01*
X267731Y472618D01*
Y473951D01*
X267064Y474617D01*
X266398D01*
X265731Y473951D01*
Y471951D01*
X286122Y351275D02*
X285455Y350609D01*
Y349276D01*
X286122Y348610D01*
X288788D01*
X289454Y349276D01*
Y350609D01*
X288788Y351275D01*
X289454Y352608D02*
Y353941D01*
Y353275D01*
X285455D01*
X286122Y352608D01*
Y355941D02*
X285455Y356607D01*
Y357940D01*
X286122Y358606D01*
X286788D01*
X287455Y357940D01*
X288121Y358606D01*
X288788D01*
X289454Y357940D01*
Y356607D01*
X288788Y355941D01*
X288121D01*
X287455Y356607D01*
X286788Y355941D01*
X286122D01*
X287455Y356607D02*
Y357940D01*
X249164Y348068D02*
X248497Y348734D01*
X247164D01*
X246498Y348068D01*
Y345402D01*
X247164Y344736D01*
X248497D01*
X249164Y345402D01*
X250497Y344736D02*
X251830D01*
X251163D01*
Y348734D01*
X250497Y348068D01*
X253829Y348734D02*
X256495D01*
Y348068D01*
X253829Y345402D01*
Y344736D01*
X241190Y404016D02*
X240523Y403350D01*
Y402017D01*
X241190Y401350D01*
X243856D01*
X244522Y402017D01*
Y403350D01*
X243856Y404016D01*
X244522Y405349D02*
Y406682D01*
Y406015D01*
X240523D01*
X241190Y405349D01*
X240523Y411347D02*
X241190Y410014D01*
X242523Y408681D01*
X243856D01*
X244522Y409348D01*
Y410681D01*
X243856Y411347D01*
X243189D01*
X242523Y410681D01*
Y408681D01*
X217060Y403876D02*
X216393Y403209D01*
Y401876D01*
X217060Y401210D01*
X219726D01*
X220392Y401876D01*
Y403209D01*
X219726Y403876D01*
X220392Y405209D02*
Y406542D01*
Y405875D01*
X216393D01*
X217060Y405209D01*
X216393Y411207D02*
Y408541D01*
X218393D01*
X217726Y409874D01*
Y410540D01*
X218393Y411207D01*
X219726D01*
X220392Y410540D01*
Y409207D01*
X219726Y408541D01*
X664354Y809514D02*
X663687Y808847D01*
Y807514D01*
X664354Y806848D01*
X667020D01*
X667686Y807514D01*
Y808847D01*
X667020Y809514D01*
X667686Y813512D02*
Y810847D01*
X665020Y813512D01*
X664354D01*
X663687Y812846D01*
Y811513D01*
X664354Y810847D01*
X663687Y817511D02*
X664354Y816178D01*
X665687Y814845D01*
X667020D01*
X667686Y815512D01*
Y816845D01*
X667020Y817511D01*
X666353D01*
X665687Y816845D01*
Y814845D01*
X269788Y840662D02*
X270455Y839995D01*
X271787D01*
X272454Y840662D01*
Y843327D01*
X271787Y843994D01*
X270455D01*
X269788Y843327D01*
X268455Y843994D02*
X267122D01*
X267789D01*
Y839995D01*
X268455Y840662D01*
X173736Y740156D02*
X169737D01*
Y742155D01*
X170404Y742822D01*
X171737D01*
X172403Y742155D01*
Y740156D01*
Y741489D02*
X173736Y742822D01*
X169737Y746821D02*
Y744155D01*
X171737D01*
X171070Y745488D01*
Y746154D01*
X171737Y746821D01*
X173070D01*
X173736Y746154D01*
Y744821D01*
X173070Y744155D01*
X380238Y896366D02*
Y900365D01*
X382237D01*
X382904Y899698D01*
Y898365D01*
X382237Y897699D01*
X380238D01*
X381571D02*
X382904Y896366D01*
X386903Y900365D02*
X385570Y899698D01*
X384237Y898365D01*
Y897032D01*
X384903Y896366D01*
X386236D01*
X386903Y897032D01*
Y897699D01*
X386236Y898365D01*
X384237D01*
X93980Y441070D02*
X97979D01*
Y439071D01*
X97312Y438404D01*
X95979D01*
X95313Y439071D01*
Y441070D01*
Y439737D02*
X93980Y438404D01*
X97312Y437071D02*
X97979Y436405D01*
Y435072D01*
X97312Y434406D01*
X96646D01*
X95979Y435072D01*
X95313Y434406D01*
X94646D01*
X93980Y435072D01*
Y436405D01*
X94646Y437071D01*
X95313D01*
X95979Y436405D01*
X96646Y437071D01*
X97312D01*
X95979Y436405D02*
Y435072D01*
X1431290Y784352D02*
X1427291D01*
Y786351D01*
X1427958Y787018D01*
X1429291D01*
X1429957Y786351D01*
Y784352D01*
Y785685D02*
X1431290Y787018D01*
Y791016D02*
Y788351D01*
X1428624Y791016D01*
X1427958D01*
X1427291Y790350D01*
Y789017D01*
X1427958Y788351D01*
Y792349D02*
X1427291Y793016D01*
Y794349D01*
X1427958Y795015D01*
X1430624D01*
X1431290Y794349D01*
Y793016D01*
X1430624Y792349D01*
X1427958D01*
X1216660Y787400D02*
X1212661D01*
Y789399D01*
X1213328Y790066D01*
X1214661D01*
X1215327Y789399D01*
Y787400D01*
Y788733D02*
X1216660Y790066D01*
Y794064D02*
Y791399D01*
X1213994Y794064D01*
X1213328D01*
X1212661Y793398D01*
Y792065D01*
X1213328Y791399D01*
X1216660Y795397D02*
Y796730D01*
Y796064D01*
X1212661D01*
X1213328Y795397D01*
X1014984Y784352D02*
X1010985D01*
Y786351D01*
X1011652Y787018D01*
X1012985D01*
X1013651Y786351D01*
Y784352D01*
Y785685D02*
X1014984Y787018D01*
Y791016D02*
Y788351D01*
X1012318Y791016D01*
X1011652D01*
X1010985Y790350D01*
Y789017D01*
X1011652Y788351D01*
X1014984Y795015D02*
Y792349D01*
X1012318Y795015D01*
X1011652D01*
X1010985Y794349D01*
Y793016D01*
X1011652Y792349D01*
X842772Y772922D02*
X838773D01*
Y774921D01*
X839440Y775588D01*
X840773D01*
X841439Y774921D01*
Y772922D01*
Y774255D02*
X842772Y775588D01*
Y779586D02*
Y776921D01*
X840106Y779586D01*
X839440D01*
X838773Y778920D01*
Y777587D01*
X839440Y776921D01*
Y780919D02*
X838773Y781586D01*
Y782919D01*
X839440Y783585D01*
X840106D01*
X840773Y782919D01*
Y782252D01*
Y782919D01*
X841439Y783585D01*
X842106D01*
X842772Y782919D01*
Y781586D01*
X842106Y780919D01*
X628904Y757174D02*
X624905D01*
Y759173D01*
X625572Y759840D01*
X626905D01*
X627571Y759173D01*
Y757174D01*
Y758507D02*
X628904Y759840D01*
Y763839D02*
Y761173D01*
X626238Y763839D01*
X625572D01*
X624905Y763172D01*
Y761839D01*
X625572Y761173D01*
X628904Y767171D02*
X624905D01*
X626905Y765171D01*
Y767837D01*
X88900Y-43560D02*
X84901D01*
Y-41561D01*
X85568Y-40894D01*
X86900D01*
X87567Y-41561D01*
Y-43560D01*
Y-42227D02*
X88900Y-40894D01*
Y-36895D02*
Y-39561D01*
X86234Y-36895D01*
X85568D01*
X84901Y-37562D01*
Y-38895D01*
X85568Y-39561D01*
X84901Y-32897D02*
Y-35563D01*
X86900D01*
X86234Y-34230D01*
Y-33563D01*
X86900Y-32897D01*
X88233D01*
X88900Y-33563D01*
Y-34896D01*
X88233Y-35563D01*
X455168Y671322D02*
Y667323D01*
X453169D01*
X452502Y667990D01*
Y669323D01*
X453169Y669989D01*
X455168D01*
X453835D02*
X452502Y671322D01*
X448503D02*
X451169D01*
X448503Y668656D01*
Y667990D01*
X449170Y667323D01*
X450503D01*
X451169Y667990D01*
X444505Y667323D02*
X445838Y667990D01*
X447171Y669323D01*
Y670656D01*
X446504Y671322D01*
X445171D01*
X444505Y670656D01*
Y669989D01*
X445171Y669323D01*
X447171D01*
X568452Y800354D02*
Y804353D01*
X570451D01*
X571118Y803686D01*
Y802353D01*
X570451Y801687D01*
X568452D01*
X569785D02*
X571118Y800354D01*
X572451Y803686D02*
X573117Y804353D01*
X574450D01*
X575117Y803686D01*
Y803020D01*
X574450Y802353D01*
X573784D01*
X574450D01*
X575117Y801687D01*
Y801020D01*
X574450Y800354D01*
X573117D01*
X572451Y801020D01*
X576449Y803686D02*
X577116Y804353D01*
X578449D01*
X579115Y803686D01*
Y801020D01*
X578449Y800354D01*
X577116D01*
X576449Y801020D01*
Y803686D01*
X304292Y669544D02*
Y665545D01*
X302293D01*
X301626Y666212D01*
Y667545D01*
X302293Y668211D01*
X304292D01*
X302959D02*
X301626Y669544D01*
X300293Y666212D02*
X299627Y665545D01*
X298294D01*
X297628Y666212D01*
Y666878D01*
X298294Y667545D01*
X298960D01*
X298294D01*
X297628Y668211D01*
Y668878D01*
X298294Y669544D01*
X299627D01*
X300293Y668878D01*
X296295Y669544D02*
X294962D01*
X295628D01*
Y665545D01*
X296295Y666212D01*
X304546Y687578D02*
Y683579D01*
X302547D01*
X301880Y684246D01*
Y685579D01*
X302547Y686245D01*
X304546D01*
X303213D02*
X301880Y687578D01*
X300547Y684246D02*
X299881Y683579D01*
X298548D01*
X297882Y684246D01*
Y684912D01*
X298548Y685579D01*
X299214D01*
X298548D01*
X297882Y686245D01*
Y686912D01*
X298548Y687578D01*
X299881D01*
X300547Y686912D01*
X293883Y687578D02*
X296549D01*
X293883Y684912D01*
Y684246D01*
X294549Y683579D01*
X295882D01*
X296549Y684246D01*
X255524Y815594D02*
Y811595D01*
X253525D01*
X252858Y812262D01*
Y813595D01*
X253525Y814261D01*
X255524D01*
X254191D02*
X252858Y815594D01*
X251525Y812262D02*
X250859Y811595D01*
X249526D01*
X248860Y812262D01*
Y812928D01*
X249526Y813595D01*
X250192D01*
X249526D01*
X248860Y814261D01*
Y814928D01*
X249526Y815594D01*
X250859D01*
X251525Y814928D01*
X244861Y811595D02*
X246194Y812262D01*
X247527Y813595D01*
Y814928D01*
X246860Y815594D01*
X245527D01*
X244861Y814928D01*
Y814261D01*
X245527Y813595D01*
X247527D01*
X215392Y817372D02*
X211393D01*
Y819371D01*
X212060Y820038D01*
X213393D01*
X214059Y819371D01*
Y817372D01*
Y818705D02*
X215392Y820038D01*
X212060Y821371D02*
X211393Y822037D01*
Y823370D01*
X212060Y824036D01*
X212726D01*
X213393Y823370D01*
Y822704D01*
Y823370D01*
X214059Y824036D01*
X214726D01*
X215392Y823370D01*
Y822037D01*
X214726Y821371D01*
X1859026Y794766D02*
X1855027D01*
Y796765D01*
X1855694Y797432D01*
X1857027D01*
X1857693Y796765D01*
Y794766D01*
Y796099D02*
X1859026Y797432D01*
Y798765D02*
Y800098D01*
Y799431D01*
X1855027D01*
X1855694Y798765D01*
X1855027Y804763D02*
X1855694Y803430D01*
X1857027Y802097D01*
X1858360D01*
X1859026Y802763D01*
Y804096D01*
X1858360Y804763D01*
X1857693D01*
X1857027Y804096D01*
Y802097D01*
X246126Y856488D02*
Y852489D01*
X244127D01*
X243460Y853156D01*
Y854489D01*
X244127Y855155D01*
X246126D01*
X244793D02*
X243460Y856488D01*
X242127Y853156D02*
X241461Y852489D01*
X240128D01*
X239461Y853156D01*
Y853822D01*
X240128Y854489D01*
X240794D01*
X240128D01*
X239461Y855155D01*
Y855822D01*
X240128Y856488D01*
X241461D01*
X242127Y855822D01*
X238129Y853156D02*
X237462Y852489D01*
X236129D01*
X235463Y853156D01*
Y853822D01*
X236129Y854489D01*
X236796D01*
X236129D01*
X235463Y855155D01*
Y855822D01*
X236129Y856488D01*
X237462D01*
X238129Y855822D01*
X581152Y789686D02*
Y785687D01*
X579153D01*
X578486Y786354D01*
Y787687D01*
X579153Y788353D01*
X581152D01*
X579819D02*
X578486Y789686D01*
X577153Y786354D02*
X576487Y785687D01*
X575154D01*
X574487Y786354D01*
Y787020D01*
X575154Y787687D01*
X575820D01*
X575154D01*
X574487Y788353D01*
Y789020D01*
X575154Y789686D01*
X576487D01*
X577153Y789020D01*
X571155Y789686D02*
Y785687D01*
X573155Y787687D01*
X570489D01*
X389382Y660400D02*
X393381D01*
Y658401D01*
X392714Y657734D01*
X391381D01*
X390715Y658401D01*
Y660400D01*
Y659067D02*
X389382Y657734D01*
X392714Y656401D02*
X393381Y655735D01*
Y654402D01*
X392714Y653736D01*
X392048D01*
X391381Y654402D01*
Y655068D01*
Y654402D01*
X390715Y653736D01*
X390048D01*
X389382Y654402D01*
Y655735D01*
X390048Y656401D01*
X393381Y649737D02*
Y652403D01*
X391381D01*
X392048Y651070D01*
Y650403D01*
X391381Y649737D01*
X390048D01*
X389382Y650403D01*
Y651736D01*
X390048Y652403D01*
X290830Y444246D02*
X286831D01*
Y446245D01*
X287498Y446912D01*
X288831D01*
X289497Y446245D01*
Y444246D01*
Y445579D02*
X290830Y446912D01*
Y448245D02*
Y449578D01*
Y448911D01*
X286831D01*
X287498Y448245D01*
Y451577D02*
X286831Y452243D01*
Y453576D01*
X287498Y454243D01*
X288164D01*
X288831Y453576D01*
X289497Y454243D01*
X290164D01*
X290830Y453576D01*
Y452243D01*
X290164Y451577D01*
X289497D01*
X288831Y452243D01*
X288164Y451577D01*
X287498D01*
X288831Y452243D02*
Y453576D01*
X327634Y450743D02*
Y446744D01*
X325634D01*
X324968Y447411D01*
Y448743D01*
X325634Y449410D01*
X327634D01*
X326301D02*
X324968Y450743D01*
X323635D02*
X322302D01*
X322969D01*
Y446744D01*
X323635Y447411D01*
X320303Y446744D02*
X317637D01*
Y447411D01*
X320303Y450076D01*
Y450743D01*
X327634Y378438D02*
Y374439D01*
X325635D01*
X324968Y375105D01*
Y376438D01*
X325635Y377105D01*
X327634D01*
X326301D02*
X324968Y378438D01*
X323635D02*
X322303D01*
X322969D01*
Y374439D01*
X323635Y375105D01*
X317637Y374439D02*
X320303D01*
Y376438D01*
X318970Y375772D01*
X318304D01*
X317637Y376438D01*
Y377771D01*
X318304Y378438D01*
X319637D01*
X320303Y377771D01*
X314934Y427587D02*
Y431585D01*
X316933D01*
X317600Y430919D01*
Y429586D01*
X316933Y428919D01*
X314934D01*
X316267D02*
X317600Y427587D01*
X318933D02*
X320266D01*
X319599D01*
Y431585D01*
X318933Y430919D01*
X324264Y427587D02*
Y431585D01*
X322265Y429586D01*
X324931D01*
X314934Y409510D02*
Y413509D01*
X316933D01*
X317600Y412842D01*
Y411510D01*
X316933Y410843D01*
X314934D01*
X316267D02*
X317600Y409510D01*
X318933D02*
X320266D01*
X319599D01*
Y413509D01*
X318933Y412842D01*
X324931Y409510D02*
X322265D01*
X324931Y412176D01*
Y412842D01*
X324264Y413509D01*
X322932D01*
X322265Y412842D01*
X314934Y391434D02*
Y395433D01*
X316933D01*
X317600Y394766D01*
Y393433D01*
X316933Y392767D01*
X314934D01*
X316267D02*
X317600Y391434D01*
X318933D02*
X320266D01*
X319599D01*
Y395433D01*
X318933Y394766D01*
X322265Y391434D02*
X323598D01*
X322932D01*
Y395433D01*
X322265Y394766D01*
X86358Y261914D02*
Y265913D01*
X88357D01*
X89024Y265246D01*
Y263913D01*
X88357Y263247D01*
X86358D01*
X87691D02*
X89024Y261914D01*
X90357D02*
X91690D01*
X91023D01*
Y265913D01*
X90357Y265246D01*
X93689D02*
X94355Y265913D01*
X95688D01*
X96355Y265246D01*
Y262581D01*
X95688Y261914D01*
X94355D01*
X93689Y262581D01*
Y265246D01*
X85342Y291632D02*
Y295631D01*
X87341D01*
X88008Y294964D01*
Y293631D01*
X87341Y292965D01*
X85342D01*
X86675D02*
X88008Y291632D01*
X89341Y292299D02*
X90007Y291632D01*
X91340D01*
X92007Y292299D01*
Y294964D01*
X91340Y295631D01*
X90007D01*
X89341Y294964D01*
Y294298D01*
X90007Y293631D01*
X92007D01*
X327634Y468819D02*
Y464821D01*
X325635D01*
X324968Y465487D01*
Y466820D01*
X325635Y467486D01*
X327634D01*
X326301D02*
X324968Y468819D01*
X323635Y464821D02*
X320970D01*
Y465487D01*
X323635Y468153D01*
Y468819D01*
X314934Y481815D02*
Y485814D01*
X316933D01*
X317600Y485148D01*
Y483815D01*
X316933Y483148D01*
X314934D01*
X316267D02*
X317600Y481815D01*
X321599D02*
X318933D01*
X321599Y484481D01*
Y485148D01*
X320932Y485814D01*
X319599D01*
X318933Y485148D01*
X1625092Y788416D02*
X1621093D01*
Y790415D01*
X1621760Y791082D01*
X1623093D01*
X1623759Y790415D01*
Y788416D01*
Y789749D02*
X1625092Y791082D01*
Y792415D02*
Y793748D01*
Y793081D01*
X1621093D01*
X1621760Y792415D01*
X1624426Y795747D02*
X1625092Y796413D01*
Y797746D01*
X1624426Y798413D01*
X1621760D01*
X1621093Y797746D01*
Y796413D01*
X1621760Y795747D01*
X1622426D01*
X1623093Y796413D01*
Y798413D01*
X274780Y853020D02*
X270781D01*
Y855019D01*
X271448Y855686D01*
X272781D01*
X273447Y855019D01*
Y853020D01*
Y854353D02*
X274780Y855686D01*
Y857019D02*
Y858352D01*
Y857685D01*
X270781D01*
X271448Y857019D01*
X200866Y849210D02*
X196867D01*
Y851209D01*
X197534Y851876D01*
X198867D01*
X199533Y851209D01*
Y849210D01*
Y850543D02*
X200866Y851876D01*
Y855208D02*
X196867D01*
X198867Y853209D01*
Y855874D01*
X427276Y651080D02*
X431275D01*
Y649081D01*
X430608Y648414D01*
X429275D01*
X428609Y649081D01*
Y651080D01*
Y649747D02*
X427276Y648414D01*
Y644416D02*
Y647081D01*
X429942Y644416D01*
X430608D01*
X431275Y645082D01*
Y646415D01*
X430608Y647081D01*
X431275Y643083D02*
Y640417D01*
X430608D01*
X427943Y643083D01*
X427276D01*
X464400Y818182D02*
Y822181D01*
X466399D01*
X467066Y821514D01*
Y820181D01*
X466399Y819515D01*
X464400D01*
X465733D02*
X467066Y818182D01*
X471064D02*
X468399D01*
X471064Y820848D01*
Y821514D01*
X470398Y822181D01*
X469065D01*
X468399Y821514D01*
X472397D02*
X473064Y822181D01*
X474397D01*
X475063Y821514D01*
Y820848D01*
X474397Y820181D01*
X475063Y819515D01*
Y818848D01*
X474397Y818182D01*
X473064D01*
X472397Y818848D01*
Y819515D01*
X473064Y820181D01*
X472397Y820848D01*
Y821514D01*
X473064Y820181D02*
X474397D01*
X236177Y835817D02*
Y839815D01*
X238176D01*
X238843Y839149D01*
Y837816D01*
X238176Y837150D01*
X236177D01*
X237510D02*
X238843Y835817D01*
X242841D02*
X240175D01*
X242841Y838482D01*
Y839149D01*
X242175Y839815D01*
X240842D01*
X240175Y839149D01*
X244174Y836483D02*
X244841Y835817D01*
X246173D01*
X246840Y836483D01*
Y839149D01*
X246173Y839815D01*
X244841D01*
X244174Y839149D01*
Y838482D01*
X244841Y837816D01*
X246840D01*
X209053Y335477D02*
X213052D01*
Y333478D01*
X212386Y332811D01*
X211053D01*
X210386Y333478D01*
Y335477D01*
Y334144D02*
X209053Y332811D01*
Y331479D02*
Y330146D01*
Y330812D01*
X213052D01*
X212386Y331479D01*
Y328146D02*
X213052Y327480D01*
Y326147D01*
X212386Y325480D01*
X211719D01*
X211053Y326147D01*
Y326813D01*
Y326147D01*
X210386Y325480D01*
X209720D01*
X209053Y326147D01*
Y327480D01*
X209720Y328146D01*
X646128Y810094D02*
X642129D01*
Y812093D01*
X642796Y812760D01*
X644129D01*
X644795Y812093D01*
Y810094D01*
Y811427D02*
X646128Y812760D01*
X642796Y814093D02*
X642129Y814759D01*
Y816092D01*
X642796Y816758D01*
X643462D01*
X644129Y816092D01*
Y815426D01*
Y816092D01*
X644795Y816758D01*
X645462D01*
X646128Y816092D01*
Y814759D01*
X645462Y814093D01*
X642129Y818091D02*
Y820757D01*
X642796D01*
X645462Y818091D01*
X646128D01*
X172006Y549568D02*
X176005D01*
Y547569D01*
X175338Y546902D01*
X174005D01*
X173339Y547569D01*
Y549568D01*
Y548235D02*
X172006Y546902D01*
X175338Y545569D02*
X176005Y544903D01*
Y543570D01*
X175338Y542904D01*
X174672D01*
X174005Y543570D01*
Y544236D01*
Y543570D01*
X173339Y542904D01*
X172673D01*
X172006Y543570D01*
Y544903D01*
X172673Y545569D01*
X175338Y541571D02*
X176005Y540904D01*
Y539571D01*
X175338Y538905D01*
X174672D01*
X174005Y539571D01*
Y540238D01*
Y539571D01*
X173339Y538905D01*
X172673D01*
X172006Y539571D01*
Y540904D01*
X172673Y541571D01*
X175338Y537572D02*
X176005Y536906D01*
Y535573D01*
X175338Y534906D01*
X174672D01*
X174005Y535573D01*
Y536239D01*
Y535573D01*
X173339Y534906D01*
X172673D01*
X172006Y535573D01*
Y536906D01*
X172673Y537572D01*
X361552Y754111D02*
Y758110D01*
X358886D01*
X357553Y754778D02*
X356887Y754111D01*
X355554D01*
X354888Y754778D01*
Y755444D01*
X355554Y756111D01*
X356220D01*
X355554D01*
X354888Y756777D01*
Y757444D01*
X355554Y758110D01*
X356887D01*
X357553Y757444D01*
X230776Y884189D02*
Y880190D01*
X233442D01*
X236774D02*
Y884189D01*
X234775Y882189D01*
X237440D01*
X270761Y815936D02*
X274759D01*
Y818602D01*
Y819935D02*
Y821268D01*
Y820601D01*
X270761D01*
X271427Y819935D01*
X270761Y874610D02*
X274760D01*
Y877276D01*
Y881274D02*
Y878609D01*
X272094Y881274D01*
X271427D01*
X270761Y880608D01*
Y879275D01*
X271427Y878609D01*
X290742Y651527D02*
Y655526D01*
X288076D01*
X284077Y651527D02*
X285410Y652194D01*
X286743Y653527D01*
Y654859D01*
X286077Y655526D01*
X284744D01*
X284077Y654859D01*
Y654193D01*
X284744Y653527D01*
X286743D01*
X291185Y397580D02*
X284521D01*
X282855Y395914D01*
Y392582D01*
X284521Y390916D01*
X291185D01*
X292852Y392582D01*
Y395914D01*
X289519Y394248D02*
X292852Y397580D01*
Y395914D02*
X291185Y397580D01*
X292852Y407577D02*
Y400913D01*
X286187Y407577D01*
X284521D01*
X282855Y405911D01*
Y402579D01*
X284521Y400913D01*
D14*
X1784941Y-76953D02*
G03*
X1784941Y-76953I-4166J0D01*
G01*
X1594440D02*
G03*
X1594440Y-76953I-4166J0D01*
G01*
X1404722Y-44450D02*
G03*
X1404722Y-44450I-4166J0D01*
G01*
X1213968Y-28448D02*
G03*
X1213968Y-28448I-4166J0D01*
G01*
X1022936Y-45202D02*
G03*
X1022936Y-45202I-4166J0D01*
G01*
X732892Y-174498D02*
G03*
X732892Y-174498I-4166J0D01*
G01*
X560395Y-254272D02*
G03*
X560395Y-254272I-4166J0D01*
G01*
X1832566Y113549D02*
G03*
X1832566Y113549I-4166J0D01*
G01*
X1594440D02*
G03*
X1594440Y113549I-4166J0D01*
G01*
X1405735Y147035D02*
G03*
X1405735Y147035I-4166J0D01*
G01*
X1214730Y161544D02*
G03*
X1214730Y161544I-4166J0D01*
G01*
X1024732Y147035D02*
G03*
X1024732Y147035I-4166J0D01*
G01*
X835000Y134620D02*
G03*
X835000Y134620I-4166J0D01*
G01*
X643738Y181356D02*
G03*
X643738Y181356I-4166J0D01*
G01*
X1832566Y304050D02*
G03*
X1832566Y304050I-4166J0D01*
G01*
X1594440D02*
G03*
X1594440Y304050I-4166J0D01*
G01*
X1403938Y335801D02*
G03*
X1403938Y335801I-4166J0D01*
G01*
X1213437Y351777D02*
G03*
X1213437Y351777I-4166J0D01*
G01*
X1022936Y335801D02*
G03*
X1022936Y335801I-4166J0D01*
G01*
X833222Y324612D02*
G03*
X833222Y324612I-4166J0D01*
G01*
X437664Y2880D02*
G03*
X437664Y2880I-4166J0D01*
G01*
X1833728Y495554D02*
G03*
X1833728Y495554I-4166J0D01*
G01*
X1595730D02*
G03*
X1595730Y495554I-4166J0D01*
G01*
X1405992Y528574D02*
G03*
X1405992Y528574I-4166J0D01*
G01*
X1216254Y543814D02*
G03*
X1216254Y543814I-4166J0D01*
G01*
X1024732Y528037D02*
G03*
X1024732Y528037I-4166J0D01*
G01*
X834231Y515337D02*
G03*
X834231Y515337I-4166J0D01*
G01*
X641933Y465976D02*
G03*
X641933Y465976I-4166J0D01*
G01*
X1834490Y686562D02*
G03*
X1834490Y686562I-4166J0D01*
G01*
X1597508Y685292D02*
G03*
X1597508Y685292I-4166J0D01*
G01*
X1405735Y718539D02*
G03*
X1405735Y718539I-4166J0D01*
G01*
X1213437Y732780D02*
G03*
X1213437Y732780I-4166J0D01*
G01*
X1022936Y716803D02*
G03*
X1022936Y716803I-4166J0D01*
G01*
X832434Y704078D02*
G03*
X832434Y704078I-4166J0D01*
G01*
X643738Y706882D02*
G03*
X643738Y706882I-4166J0D01*
G01*
X252859Y-402595D02*
G03*
X252859Y-402595I-4166J0D01*
G01*
X175270Y-228387D02*
G03*
X175270Y-228387I-4166J0D01*
G01*
X93482Y-55921D02*
G03*
X93482Y-55921I-4166J0D01*
G01*
X267352Y377916D02*
G03*
X267352Y377916I-1000J0D01*
G01*
X172212Y635508D02*
X220980D01*
Y684022D01*
X172212D02*
X220980D01*
X172212Y635508D02*
Y684022D01*
X235712Y341884D02*
Y390652D01*
X187198D02*
X235712D01*
X187198Y341884D02*
Y390652D01*
Y341884D02*
X235712D01*
X1759947Y-195371D02*
Y-109011D01*
X1770869D01*
X1773155Y-106725D01*
Y-71927D01*
X1770615Y-69387D02*
X1773155Y-71927D01*
X1760963Y-69387D02*
X1770615D01*
X1759947Y-68371D02*
X1760963Y-69387D01*
X1759947Y-68371D02*
Y-39415D01*
X1617707D02*
X1759947D01*
X1617453Y-39669D02*
X1617707Y-39415D01*
X1617453Y-195371D02*
Y-39669D01*
Y-195371D02*
X1759947D01*
X1569446D02*
Y-109011D01*
X1580368D01*
X1582654Y-106725D01*
Y-71927D01*
X1580114Y-69387D02*
X1582654Y-71927D01*
X1570462Y-69387D02*
X1580114D01*
X1569446Y-68371D02*
X1570462Y-69387D01*
X1569446Y-68371D02*
Y-39415D01*
X1427206D02*
X1569446D01*
X1426952Y-39669D02*
X1427206Y-39415D01*
X1426952Y-195371D02*
Y-39669D01*
Y-195371D02*
X1569446D01*
X1379728Y-162868D02*
Y-76508D01*
X1390650D01*
X1392936Y-74222D01*
Y-39424D01*
X1390396Y-36884D02*
X1392936Y-39424D01*
X1380744Y-36884D02*
X1390396D01*
X1379728Y-35868D02*
X1380744Y-36884D01*
X1379728Y-35868D02*
Y-6912D01*
X1237488D02*
X1379728D01*
X1237234Y-7166D02*
X1237488Y-6912D01*
X1237234Y-162868D02*
Y-7166D01*
Y-162868D02*
X1379728D01*
X1188974Y-146866D02*
Y-60506D01*
X1199896D01*
X1202182Y-58220D01*
Y-23422D01*
X1199642Y-20882D02*
X1202182Y-23422D01*
X1189990Y-20882D02*
X1199642D01*
X1188974Y-19866D02*
X1189990Y-20882D01*
X1188974Y-19866D02*
Y9090D01*
X1046734D02*
X1188974D01*
X1046480Y8836D02*
X1046734Y9090D01*
X1046480Y-146866D02*
Y8836D01*
Y-146866D02*
X1188974D01*
X997942Y-163620D02*
Y-77260D01*
X1008864D01*
X1011150Y-74974D01*
Y-40176D01*
X1008610Y-37636D02*
X1011150Y-40176D01*
X998958Y-37636D02*
X1008610D01*
X997942Y-36620D02*
X998958Y-37636D01*
X997942Y-36620D02*
Y-7664D01*
X855702D02*
X997942D01*
X855448Y-7918D02*
X855702Y-7664D01*
X855448Y-163620D02*
Y-7918D01*
Y-163620D02*
X997942D01*
X707898Y-292916D02*
Y-206556D01*
X718820D01*
X721106Y-204270D01*
Y-169472D01*
X718566Y-166932D02*
X721106Y-169472D01*
X708914Y-166932D02*
X718566D01*
X707898Y-165916D02*
X708914Y-166932D01*
X707898Y-165916D02*
Y-136960D01*
X565658D02*
X707898D01*
X565404Y-137214D02*
X565658Y-136960D01*
X565404Y-292916D02*
Y-137214D01*
Y-292916D02*
X707898D01*
X535401Y-372690D02*
Y-286330D01*
X546324D01*
X548610Y-284044D01*
Y-249246D01*
X546069Y-246706D02*
X548610Y-249246D01*
X536418Y-246706D02*
X546069D01*
X535401Y-245690D02*
X536418Y-246706D01*
X535401Y-245690D02*
Y-216734D01*
X393162D02*
X535401D01*
X392907Y-216988D02*
X393162Y-216734D01*
X392907Y-372690D02*
Y-216988D01*
Y-372690D02*
X535401D01*
X1807572Y-4869D02*
Y81491D01*
X1818494D01*
X1820780Y83777D01*
Y118575D01*
X1818240Y121115D02*
X1820780Y118575D01*
X1808588Y121115D02*
X1818240D01*
X1807572Y122131D02*
X1808588Y121115D01*
X1807572Y122131D02*
Y151087D01*
X1665332D02*
X1807572D01*
X1665078Y150833D02*
X1665332Y151087D01*
X1665078Y-4869D02*
Y150833D01*
Y-4869D02*
X1807572D01*
X1569446D02*
Y81491D01*
X1580368D01*
X1582654Y83777D01*
Y118575D01*
X1580114Y121115D02*
X1582654Y118575D01*
X1570462Y121115D02*
X1580114D01*
X1569446Y122131D02*
X1570462Y121115D01*
X1569446Y122131D02*
Y151087D01*
X1427206D02*
X1569446D01*
X1426952Y150833D02*
X1427206Y151087D01*
X1426952Y-4869D02*
Y150833D01*
Y-4869D02*
X1569446D01*
X1380741Y28617D02*
Y114977D01*
X1391664D01*
X1393949Y117263D01*
Y152061D01*
X1391409Y154601D02*
X1393949Y152061D01*
X1381758Y154601D02*
X1391409D01*
X1380741Y155617D02*
X1381758Y154601D01*
X1380741Y155617D02*
Y184573D01*
X1238502D02*
X1380741D01*
X1238248Y184319D02*
X1238502Y184573D01*
X1238248Y28617D02*
Y184319D01*
Y28617D02*
X1380741D01*
X1189736Y43126D02*
Y129486D01*
X1200658D01*
X1202944Y131772D01*
Y166570D01*
X1200404Y169110D02*
X1202944Y166570D01*
X1190752Y169110D02*
X1200404D01*
X1189736Y170126D02*
X1190752Y169110D01*
X1189736Y170126D02*
Y199082D01*
X1047496D02*
X1189736D01*
X1047242Y198828D02*
X1047496Y199082D01*
X1047242Y43126D02*
Y198828D01*
Y43126D02*
X1189736D01*
X999738Y28617D02*
Y114977D01*
X1010660D01*
X1012946Y117263D01*
Y152061D01*
X1010406Y154601D02*
X1012946Y152061D01*
X1000754Y154601D02*
X1010406D01*
X999738Y155617D02*
X1000754Y154601D01*
X999738Y155617D02*
Y184573D01*
X857498D02*
X999738D01*
X857244Y184319D02*
X857498Y184573D01*
X857244Y28617D02*
Y184319D01*
Y28617D02*
X999738D01*
X810006Y16202D02*
Y102562D01*
X820928D01*
X823214Y104848D01*
Y139646D01*
X820674Y142186D02*
X823214Y139646D01*
X811022Y142186D02*
X820674D01*
X810006Y143202D02*
X811022Y142186D01*
X810006Y143202D02*
Y172158D01*
X667766D02*
X810006D01*
X667512Y171904D02*
X667766Y172158D01*
X667512Y16202D02*
Y171904D01*
Y16202D02*
X810006D01*
X618744Y62938D02*
Y149298D01*
X629666D01*
X631952Y151584D01*
Y186382D01*
X629412Y188922D02*
X631952Y186382D01*
X619760Y188922D02*
X629412D01*
X618744Y189938D02*
X619760Y188922D01*
X618744Y189938D02*
Y218894D01*
X476504D02*
X618744D01*
X476250Y218640D02*
X476504Y218894D01*
X476250Y62938D02*
Y218640D01*
Y62938D02*
X618744D01*
X1807572Y185632D02*
Y271992D01*
X1818494D01*
X1820780Y274278D01*
Y309076D01*
X1818240Y311616D02*
X1820780Y309076D01*
X1808588Y311616D02*
X1818240D01*
X1807572Y312632D02*
X1808588Y311616D01*
X1807572Y312632D02*
Y341588D01*
X1665332D02*
X1807572D01*
X1665078Y341334D02*
X1665332Y341588D01*
X1665078Y185632D02*
Y341334D01*
Y185632D02*
X1807572D01*
X1569446D02*
Y271992D01*
X1580368D01*
X1582654Y274278D01*
Y309076D01*
X1580114Y311616D02*
X1582654Y309076D01*
X1570462Y311616D02*
X1580114D01*
X1569446Y312632D02*
X1570462Y311616D01*
X1569446Y312632D02*
Y341588D01*
X1427206D02*
X1569446D01*
X1426952Y341334D02*
X1427206Y341588D01*
X1426952Y185632D02*
Y341334D01*
Y185632D02*
X1569446D01*
X1378945Y217383D02*
Y303743D01*
X1389867D01*
X1392153Y306029D01*
Y340827D01*
X1389613Y343367D02*
X1392153Y340827D01*
X1379961Y343367D02*
X1389613D01*
X1378945Y344383D02*
X1379961Y343367D01*
X1378945Y344383D02*
Y373339D01*
X1236705D02*
X1378945D01*
X1236451Y373085D02*
X1236705Y373339D01*
X1236451Y217383D02*
Y373085D01*
Y217383D02*
X1378945D01*
X1188443Y233359D02*
Y319719D01*
X1199365D01*
X1201651Y322005D01*
Y356803D01*
X1199111Y359343D02*
X1201651Y356803D01*
X1189459Y359343D02*
X1199111D01*
X1188443Y360359D02*
X1189459Y359343D01*
X1188443Y360359D02*
Y389315D01*
X1046203D02*
X1188443D01*
X1045949Y389061D02*
X1046203Y389315D01*
X1045949Y233359D02*
Y389061D01*
Y233359D02*
X1188443D01*
X997942Y217383D02*
Y303743D01*
X1008864D01*
X1011150Y306029D01*
Y340827D01*
X1008610Y343367D02*
X1011150Y340827D01*
X998958Y343367D02*
X1008610D01*
X997942Y344383D02*
X998958Y343367D01*
X997942Y344383D02*
Y373339D01*
X855702D02*
X997942D01*
X855448Y373085D02*
X855702Y373339D01*
X855448Y217383D02*
Y373085D01*
Y217383D02*
X997942D01*
X808228Y206194D02*
Y292554D01*
X819150D01*
X821436Y294840D01*
Y329638D01*
X818896Y332178D02*
X821436Y329638D01*
X809244Y332178D02*
X818896D01*
X808228Y333194D02*
X809244Y332178D01*
X808228Y333194D02*
Y362150D01*
X665988D02*
X808228D01*
X665734Y361896D02*
X665988Y362150D01*
X665734Y206194D02*
Y361896D01*
Y206194D02*
X808228D01*
X412670Y-115538D02*
Y-29178D01*
X423592D01*
X425878Y-26892D01*
Y7906D01*
X423338Y10446D02*
X425878Y7906D01*
X413686Y10446D02*
X423338D01*
X412670Y11462D02*
X413686Y10446D01*
X412670Y11462D02*
Y40418D01*
X270430D02*
X412670D01*
X270176Y40164D02*
X270430Y40418D01*
X270176Y-115538D02*
Y40164D01*
Y-115538D02*
X412670D01*
X1808734Y377136D02*
Y463496D01*
X1819656D01*
X1821942Y465782D01*
Y500580D01*
X1819402Y503120D02*
X1821942Y500580D01*
X1809750Y503120D02*
X1819402D01*
X1808734Y504136D02*
X1809750Y503120D01*
X1808734Y504136D02*
Y533092D01*
X1666494D02*
X1808734D01*
X1666240Y532838D02*
X1666494Y533092D01*
X1666240Y377136D02*
Y532838D01*
Y377136D02*
X1808734D01*
X1570736D02*
Y463496D01*
X1581658D01*
X1583944Y465782D01*
Y500580D01*
X1581404Y503120D02*
X1583944Y500580D01*
X1571752Y503120D02*
X1581404D01*
X1570736Y504136D02*
X1571752Y503120D01*
X1570736Y504136D02*
Y533092D01*
X1428496D02*
X1570736D01*
X1428242Y532838D02*
X1428496Y533092D01*
X1428242Y377136D02*
Y532838D01*
Y377136D02*
X1570736D01*
X1380998Y410156D02*
Y496516D01*
X1391920D01*
X1394206Y498802D01*
Y533600D01*
X1391666Y536140D02*
X1394206Y533600D01*
X1382014Y536140D02*
X1391666D01*
X1380998Y537156D02*
X1382014Y536140D01*
X1380998Y537156D02*
Y566112D01*
X1238758D02*
X1380998D01*
X1238504Y565858D02*
X1238758Y566112D01*
X1238504Y410156D02*
Y565858D01*
Y410156D02*
X1380998D01*
X1191260Y425396D02*
Y511756D01*
X1202182D01*
X1204468Y514042D01*
Y548840D01*
X1201928Y551380D02*
X1204468Y548840D01*
X1192276Y551380D02*
X1201928D01*
X1191260Y552396D02*
X1192276Y551380D01*
X1191260Y552396D02*
Y581352D01*
X1049020D02*
X1191260D01*
X1048766Y581098D02*
X1049020Y581352D01*
X1048766Y425396D02*
Y581098D01*
Y425396D02*
X1191260D01*
X999738Y409619D02*
Y495979D01*
X1010660D01*
X1012946Y498265D01*
Y533063D01*
X1010406Y535603D02*
X1012946Y533063D01*
X1000754Y535603D02*
X1010406D01*
X999738Y536619D02*
X1000754Y535603D01*
X999738Y536619D02*
Y565575D01*
X857498D02*
X999738D01*
X857244Y565321D02*
X857498Y565575D01*
X857244Y409619D02*
Y565321D01*
Y409619D02*
X999738D01*
X809237Y396919D02*
Y483279D01*
X820159D01*
X822445Y485565D01*
Y520363D01*
X819905Y522903D02*
X822445Y520363D01*
X810253Y522903D02*
X819905D01*
X809237Y523919D02*
X810253Y522903D01*
X809237Y523919D02*
Y552875D01*
X666997D02*
X809237D01*
X666743Y552621D02*
X666997Y552875D01*
X666743Y396919D02*
Y552621D01*
Y396919D02*
X809237D01*
X616939Y347558D02*
Y433918D01*
X627861D01*
X630147Y436204D01*
Y471002D01*
X627607Y473542D02*
X630147Y471002D01*
X617955Y473542D02*
X627607D01*
X616939Y474558D02*
X617955Y473542D01*
X616939Y474558D02*
Y503514D01*
X474699D02*
X616939D01*
X474445Y503260D02*
X474699Y503514D01*
X474445Y347558D02*
Y503260D01*
Y347558D02*
X616939D01*
X1809496Y568144D02*
Y654504D01*
X1820418D01*
X1822704Y656790D01*
Y691588D01*
X1820164Y694128D02*
X1822704Y691588D01*
X1810512Y694128D02*
X1820164D01*
X1809496Y695144D02*
X1810512Y694128D01*
X1809496Y695144D02*
Y724100D01*
X1667256D02*
X1809496D01*
X1667002Y723846D02*
X1667256Y724100D01*
X1667002Y568144D02*
Y723846D01*
Y568144D02*
X1809496D01*
X1572514Y566874D02*
Y653234D01*
X1583436D01*
X1585722Y655520D01*
Y690318D01*
X1583182Y692858D02*
X1585722Y690318D01*
X1573530Y692858D02*
X1583182D01*
X1572514Y693874D02*
X1573530Y692858D01*
X1572514Y693874D02*
Y722830D01*
X1430274D02*
X1572514D01*
X1430020Y722576D02*
X1430274Y722830D01*
X1430020Y566874D02*
Y722576D01*
Y566874D02*
X1572514D01*
X1380741Y600121D02*
Y686481D01*
X1391664D01*
X1393949Y688767D01*
Y723565D01*
X1391409Y726105D02*
X1393949Y723565D01*
X1381758Y726105D02*
X1391409D01*
X1380741Y727121D02*
X1381758Y726105D01*
X1380741Y727121D02*
Y756077D01*
X1238502D02*
X1380741D01*
X1238248Y755823D02*
X1238502Y756077D01*
X1238248Y600121D02*
Y755823D01*
Y600121D02*
X1380741D01*
X1188443Y614362D02*
Y700722D01*
X1199365D01*
X1201651Y703008D01*
Y737806D01*
X1199111Y740346D02*
X1201651Y737806D01*
X1189459Y740346D02*
X1199111D01*
X1188443Y741362D02*
X1189459Y740346D01*
X1188443Y741362D02*
Y770318D01*
X1046203D02*
X1188443D01*
X1045949Y770064D02*
X1046203Y770318D01*
X1045949Y614362D02*
Y770064D01*
Y614362D02*
X1188443D01*
X997942Y598385D02*
Y684745D01*
X1008864D01*
X1011150Y687031D01*
Y721829D01*
X1008610Y724369D02*
X1011150Y721829D01*
X998958Y724369D02*
X1008610D01*
X997942Y725385D02*
X998958Y724369D01*
X997942Y725385D02*
Y754341D01*
X855702D02*
X997942D01*
X855448Y754087D02*
X855702Y754341D01*
X855448Y598385D02*
Y754087D01*
Y598385D02*
X997942D01*
X807440Y585660D02*
Y672020D01*
X818362D01*
X820648Y674306D01*
Y709104D01*
X818108Y711644D02*
X820648Y709104D01*
X808456Y711644D02*
X818108D01*
X807440Y712660D02*
X808456Y711644D01*
X807440Y712660D02*
Y741616D01*
X665200D02*
X807440D01*
X664946Y741362D02*
X665200Y741616D01*
X664946Y585660D02*
Y741362D01*
Y585660D02*
X807440D01*
X618744Y588464D02*
Y674824D01*
X629666D01*
X631952Y677110D01*
Y711908D01*
X629412Y714448D02*
X631952Y711908D01*
X619760Y714448D02*
X629412D01*
X618744Y715464D02*
X619760Y714448D01*
X618744Y715464D02*
Y744420D01*
X476504D02*
X618744D01*
X476250Y744166D02*
X476504Y744420D01*
X476250Y588464D02*
Y744166D01*
Y588464D02*
X618744D01*
X286870Y-404604D02*
X361660Y-361424D01*
X281409Y-395145D02*
X286870Y-404604D01*
X278286Y-394308D02*
X281409Y-395145D01*
X248150Y-411707D02*
X278286Y-394308D01*
X247220Y-415177D02*
X248150Y-411707D01*
X247220Y-415177D02*
X252046Y-423536D01*
X251674Y-424924D02*
X252046Y-423536D01*
X226598Y-439402D02*
X251674Y-424924D01*
X226598Y-439402D02*
X297718Y-562585D01*
X298065Y-562678D01*
X432907Y-484827D01*
X361660Y-361424D02*
X432907Y-484827D01*
X209281Y-230396D02*
X284071Y-187216D01*
X203820Y-220937D02*
X209281Y-230396D01*
X200697Y-220100D02*
X203820Y-220937D01*
X170561Y-237499D02*
X200697Y-220100D01*
X169631Y-240969D02*
X170561Y-237499D01*
X169631Y-240969D02*
X174457Y-249328D01*
X174086Y-250716D02*
X174457Y-249328D01*
X149009Y-265194D02*
X174086Y-250716D01*
X149009Y-265194D02*
X220129Y-388377D01*
X220476Y-388470D01*
X355318Y-310619D01*
X284071Y-187216D02*
X355318Y-310619D01*
X127493Y-57930D02*
X202283Y-14750D01*
X122032Y-48471D02*
X127493Y-57930D01*
X118909Y-47634D02*
X122032Y-48471D01*
X88773Y-65033D02*
X118909Y-47634D01*
X87843Y-68503D02*
X88773Y-65033D01*
X87843Y-68503D02*
X92669Y-76862D01*
X92297Y-78250D02*
X92669Y-76862D01*
X67221Y-92728D02*
X92297Y-78250D01*
X67221Y-92728D02*
X138341Y-215911D01*
X138688Y-216004D01*
X273530Y-138153D01*
X202283Y-14750D02*
X273530Y-138153D01*
X221234Y434946D02*
X258826D01*
X221234D02*
Y472284D01*
X258826D01*
Y434946D02*
Y472284D01*
X174752Y653283D02*
Y638048D01*
X184909D01*
X200144Y653283D02*
X189987D01*
Y645666D01*
X195065Y648205D01*
X197605D01*
X200144Y645666D01*
Y640587D01*
X197605Y638048D01*
X192526D01*
X189987Y640587D01*
X217937Y344424D02*
X233172D01*
Y354581D01*
X220476Y359659D02*
X217937Y362198D01*
Y367277D01*
X220476Y369816D01*
X223015D01*
X225554Y367277D01*
X228093Y369816D01*
X230633D01*
X233172Y367277D01*
Y362198D01*
X230633Y359659D01*
X228093D01*
X225554Y362198D01*
X223015Y359659D01*
X220476D01*
X225554Y362198D02*
Y367277D01*
X240035Y437326D02*
X255270D01*
Y447483D01*
X240035Y452561D02*
Y462718D01*
X242574D01*
X252731Y452561D01*
X255270D01*
X2334Y236330D02*
X8428D01*
Y233283D01*
X7412Y232267D01*
X5381D01*
X4365Y233283D01*
Y236330D01*
X7412Y226173D02*
X8428Y227189D01*
Y229220D01*
X7412Y230236D01*
X3350D01*
X2334Y229220D01*
Y227189D01*
X3350Y226173D01*
X8428Y224142D02*
X2334D01*
Y221095D01*
X3350Y220079D01*
X4365D01*
X5381Y221095D01*
Y224142D01*
Y221095D01*
X6397Y220079D01*
X7412D01*
X8428Y221095D01*
Y224142D01*
Y207891D02*
Y211954D01*
X2334D01*
Y207891D01*
X5381Y211954D02*
Y209923D01*
X8428Y205860D02*
X2334D01*
Y202813D01*
X3350Y201797D01*
X7412D01*
X8428Y202813D01*
Y205860D01*
X7412Y195703D02*
X8428Y196719D01*
Y198750D01*
X7412Y199766D01*
X3350D01*
X2334Y198750D01*
Y196719D01*
X3350Y195703D01*
X5381D01*
Y197735D01*
X8428Y189609D02*
Y193672D01*
X2334D01*
Y189609D01*
X5381Y193672D02*
Y191641D01*
D16*
X120170Y678434D02*
G03*
X120170Y678434I-30000J0D01*
G01*
X412482Y599680D02*
X442482D01*
X412482Y629680D02*
X442482D01*
Y599680D02*
Y629680D01*
X412482Y599680D02*
Y629680D01*
X510780Y785100D02*
X540780D01*
X510780Y815100D02*
X540780D01*
Y785100D02*
Y815100D01*
X510780Y785100D02*
Y815100D01*
X173898Y539602D02*
Y584602D01*
Y539602D02*
X352898D01*
Y584602D01*
X173898D02*
X352898D01*
X189858Y707900D02*
X204858D01*
X189858Y739900D02*
X204858D01*
X189858Y707900D02*
Y739900D01*
X204858Y707900D02*
Y739900D01*
X27670Y611434D02*
Y745434D01*
X152670D01*
Y611434D02*
Y745434D01*
X27670Y611434D02*
X152670D01*
X94500Y466510D02*
Y480910D01*
X116500Y466510D02*
Y480910D01*
X94500D02*
X116500D01*
X94500Y466510D02*
X116500D01*
X103720Y497090D02*
Y519090D01*
X89320Y497090D02*
Y519090D01*
X103720D01*
X89320Y497090D02*
X103720D01*
X239952Y611290D02*
Y625690D01*
X261952Y611290D02*
Y625690D01*
X239952D02*
X261952D01*
X239952Y611290D02*
X261952D01*
X327064Y190676D02*
Y212676D01*
X341464Y190676D02*
Y212676D01*
X327064Y190676D02*
X341464D01*
X327064Y212676D02*
X341464D01*
X-2178Y124460D02*
X11822D01*
X441822D02*
X455822D01*
X448822Y117460D02*
Y131460D01*
X16822Y178562D02*
X436822D01*
X16822Y68072D02*
Y178562D01*
Y68072D02*
X436822D01*
Y178562D01*
X293852Y389916D02*
Y424916D01*
X258852Y389916D02*
Y424916D01*
X293852D01*
X258852Y389916D02*
X293852D01*
X101854Y411734D02*
X159258D01*
X101854Y313436D02*
X159258D01*
Y411734D01*
X101854Y313436D02*
Y411734D01*
X234Y198330D02*
Y343330D01*
X-4666Y333030D02*
X68834D01*
Y243630D02*
Y333030D01*
X-4666Y243630D02*
X68834D01*
X-4666D02*
Y333030D01*
X413032Y918690D02*
Y978690D01*
X353032D02*
X413032D01*
X353032Y918690D02*
Y978690D01*
Y918690D02*
X413032D01*
X-35964Y435652D02*
X4036D01*
X-35964D02*
Y465652D01*
X4036D01*
X64036Y388652D02*
Y492652D01*
X4036Y388652D02*
X64036D01*
X4036D02*
Y435652D01*
Y465652D01*
Y492652D01*
X64036D01*
D201*
X326923Y796163D02*
G03*
X326923Y796163I-762J0D01*
G01*
X330327Y797814D02*
G03*
X330327Y791718I0J-3048D01*
G01*
D202*
X1715770Y-181483D02*
Y-159385D01*
Y-181483D02*
X1720850D01*
Y-159385D01*
X1715770D02*
X1720850D01*
X1670050Y-181483D02*
Y-159385D01*
X1664970D02*
X1670050D01*
X1664970Y-181483D02*
Y-159385D01*
Y-181483D02*
X1670050D01*
X1705927Y-190119D02*
X1715770Y-180277D01*
X1705927Y-150749D02*
X1715770Y-160592D01*
X1670050Y-150749D02*
X1715770D01*
X1670050Y-190119D02*
Y-150749D01*
Y-190119D02*
X1715770D01*
Y-150749D01*
X1524508Y-180213D02*
Y-158115D01*
Y-180213D02*
X1529588D01*
Y-158115D01*
X1524508D02*
X1529588D01*
X1478788Y-180213D02*
Y-158115D01*
X1473708D02*
X1478788D01*
X1473708Y-180213D02*
Y-158115D01*
Y-180213D02*
X1478788D01*
X1514666Y-188849D02*
X1524508Y-179007D01*
X1514666Y-149479D02*
X1524508Y-159321D01*
X1478788Y-149479D02*
X1524508D01*
X1478788Y-188849D02*
Y-149479D01*
Y-188849D02*
X1524508D01*
Y-149479D01*
X1332484Y-150495D02*
Y-128397D01*
Y-150495D02*
X1337564D01*
Y-128397D01*
X1332484D02*
X1337564D01*
X1286764Y-150495D02*
Y-128397D01*
X1281684D02*
X1286764D01*
X1281684Y-150495D02*
Y-128397D01*
Y-150495D02*
X1286764D01*
X1322641Y-159131D02*
X1332484Y-149289D01*
X1322641Y-119761D02*
X1332484Y-129604D01*
X1286764Y-119761D02*
X1332484D01*
X1286764Y-159131D02*
Y-119761D01*
Y-159131D02*
X1332484D01*
Y-119761D01*
X1138682Y-135001D02*
Y-112903D01*
Y-135001D02*
X1143762D01*
Y-112903D01*
X1138682D02*
X1143762D01*
X1092962Y-135001D02*
Y-112903D01*
X1087882D02*
X1092962D01*
X1087882Y-135001D02*
Y-112903D01*
Y-135001D02*
X1092962D01*
X1128839Y-143637D02*
X1138682Y-133794D01*
X1128839Y-104267D02*
X1138682Y-114109D01*
X1092962Y-104267D02*
X1138682D01*
X1092962Y-143637D02*
Y-104267D01*
Y-143637D02*
X1138682D01*
Y-104267D01*
X949706Y-148463D02*
Y-126365D01*
Y-148463D02*
X954786D01*
Y-126365D01*
X949706D02*
X954786D01*
X903986Y-148463D02*
Y-126365D01*
X898906D02*
X903986D01*
X898906Y-148463D02*
Y-126365D01*
Y-148463D02*
X903986D01*
X939864Y-157099D02*
X949706Y-147256D01*
X939864Y-117729D02*
X949706Y-127571D01*
X903986Y-117729D02*
X949706D01*
X903986Y-157099D02*
Y-117729D01*
Y-157099D02*
X949706D01*
Y-117729D01*
X659384Y-280543D02*
Y-258445D01*
Y-280543D02*
X664464D01*
Y-258445D01*
X659384D02*
X664464D01*
X613664Y-280543D02*
Y-258445D01*
X608584D02*
X613664D01*
X608584Y-280543D02*
Y-258445D01*
Y-280543D02*
X613664D01*
X649541Y-289179D02*
X659384Y-279336D01*
X649541Y-249809D02*
X659384Y-259652D01*
X613664Y-249809D02*
X659384D01*
X613664Y-289179D02*
Y-249809D01*
Y-289179D02*
X659384D01*
Y-249809D01*
X483870Y-361061D02*
Y-338963D01*
Y-361061D02*
X488950D01*
Y-338963D01*
X483870D02*
X488950D01*
X438150Y-361061D02*
Y-338963D01*
X433070D02*
X438150D01*
X433070Y-361061D02*
Y-338963D01*
Y-361061D02*
X438150D01*
X474027Y-369697D02*
X483870Y-359855D01*
X474027Y-330327D02*
X483870Y-340169D01*
X438150Y-330327D02*
X483870D01*
X438150Y-369697D02*
Y-330327D01*
Y-369697D02*
X483870D01*
Y-330327D01*
X1759712Y9017D02*
Y31115D01*
Y9017D02*
X1764792D01*
Y31115D01*
X1759712D02*
X1764792D01*
X1713992Y9017D02*
Y31115D01*
X1708912D02*
X1713992D01*
X1708912Y9017D02*
Y31115D01*
Y9017D02*
X1713992D01*
X1749870Y381D02*
X1759712Y10223D01*
X1749870Y39751D02*
X1759712Y29908D01*
X1713992Y39751D02*
X1759712D01*
X1713992Y381D02*
Y39751D01*
Y381D02*
X1759712D01*
Y39751D01*
X1519948Y7119D02*
Y29217D01*
Y7119D02*
X1525028D01*
Y29217D01*
X1519948D02*
X1525028D01*
X1474228Y7119D02*
Y29217D01*
X1469148D02*
X1474228D01*
X1469148Y7119D02*
Y29217D01*
Y7119D02*
X1474228D01*
X1510106Y-1517D02*
X1519948Y8326D01*
X1510106Y37853D02*
X1519948Y28011D01*
X1474228Y37853D02*
X1519948D01*
X1474228Y-1517D02*
Y37853D01*
Y-1517D02*
X1519948D01*
Y37853D01*
X1333004Y38869D02*
Y60967D01*
Y38869D02*
X1338084D01*
Y60967D01*
X1333004D02*
X1338084D01*
X1287284Y38869D02*
Y60967D01*
X1282204D02*
X1287284D01*
X1282204Y38869D02*
Y60967D01*
Y38869D02*
X1287284D01*
X1323162Y30233D02*
X1333004Y40076D01*
X1323162Y69603D02*
X1333004Y59761D01*
X1287284Y69603D02*
X1333004D01*
X1287284Y30233D02*
Y69603D01*
Y30233D02*
X1333004D01*
Y69603D01*
X1139710Y56141D02*
Y78239D01*
Y56141D02*
X1144790D01*
Y78239D01*
X1139710D02*
X1144790D01*
X1093990Y56141D02*
Y78239D01*
X1088910D02*
X1093990D01*
X1088910Y56141D02*
Y78239D01*
Y56141D02*
X1093990D01*
X1129868Y47505D02*
X1139710Y57348D01*
X1129868Y86875D02*
X1139710Y77033D01*
X1093990Y86875D02*
X1139710D01*
X1093990Y47505D02*
Y86875D01*
Y47505D02*
X1139710D01*
Y86875D01*
X952766Y38869D02*
Y60967D01*
Y38869D02*
X957846D01*
Y60967D01*
X952766D02*
X957846D01*
X907046Y38869D02*
Y60967D01*
X901966D02*
X907046D01*
X901966Y38869D02*
Y60967D01*
Y38869D02*
X907046D01*
X942924Y30233D02*
X952766Y40076D01*
X942924Y69603D02*
X952766Y59761D01*
X907046Y69603D02*
X952766D01*
X907046Y30233D02*
Y69603D01*
Y30233D02*
X952766D01*
Y69603D01*
X759206Y29845D02*
Y51943D01*
Y29845D02*
X764286D01*
Y51943D01*
X759206D02*
X764286D01*
X713486Y29845D02*
Y51943D01*
X708406D02*
X713486D01*
X708406Y29845D02*
Y51943D01*
Y29845D02*
X713486D01*
X749363Y21209D02*
X759206Y31051D01*
X749363Y60579D02*
X759206Y50736D01*
X713486Y60579D02*
X759206D01*
X713486Y21209D02*
Y60579D01*
Y21209D02*
X759206D01*
Y60579D01*
X567182Y74549D02*
Y96647D01*
Y74549D02*
X572262D01*
Y96647D01*
X567182D02*
X572262D01*
X521462Y74549D02*
Y96647D01*
X516382D02*
X521462D01*
X516382Y74549D02*
Y96647D01*
Y74549D02*
X521462D01*
X557340Y65913D02*
X567182Y75756D01*
X557340Y105283D02*
X567182Y95441D01*
X521462Y105283D02*
X567182D01*
X521462Y65913D02*
Y105283D01*
Y65913D02*
X567182D01*
Y105283D01*
X1760728Y200279D02*
Y222377D01*
Y200279D02*
X1765808D01*
Y222377D01*
X1760728D02*
X1765808D01*
X1715008Y200279D02*
Y222377D01*
X1709928D02*
X1715008D01*
X1709928Y200279D02*
Y222377D01*
Y200279D02*
X1715008D01*
X1750885Y191643D02*
X1760728Y201486D01*
X1750885Y231013D02*
X1760728Y221171D01*
X1715008Y231013D02*
X1760728D01*
X1715008Y191643D02*
Y231013D01*
Y191643D02*
X1760728D01*
Y231013D01*
X1518932Y195587D02*
Y217685D01*
Y195587D02*
X1524012D01*
Y217685D01*
X1518932D02*
X1524012D01*
X1473212Y195587D02*
Y217685D01*
X1468132D02*
X1473212D01*
X1468132Y195587D02*
Y217685D01*
Y195587D02*
X1473212D01*
X1509090Y186951D02*
X1518932Y196794D01*
X1509090Y226321D02*
X1518932Y216479D01*
X1473212Y226321D02*
X1518932D01*
X1473212Y186951D02*
Y226321D01*
Y186951D02*
X1518932D01*
Y226321D01*
X1334782Y227337D02*
Y249435D01*
Y227337D02*
X1339862D01*
Y249435D01*
X1334782D02*
X1339862D01*
X1289062Y227337D02*
Y249435D01*
X1283982D02*
X1289062D01*
X1283982Y227337D02*
Y249435D01*
Y227337D02*
X1289062D01*
X1324940Y218701D02*
X1334782Y228544D01*
X1324940Y258071D02*
X1334782Y248229D01*
X1289062Y258071D02*
X1334782D01*
X1289062Y218701D02*
Y258071D01*
Y218701D02*
X1334782D01*
Y258071D01*
X1142250Y245371D02*
Y267469D01*
Y245371D02*
X1147330D01*
Y267469D01*
X1142250D02*
X1147330D01*
X1096530Y245371D02*
Y267469D01*
X1091450D02*
X1096530D01*
X1091450Y245371D02*
Y267469D01*
Y245371D02*
X1096530D01*
X1132408Y236735D02*
X1142250Y246578D01*
X1132408Y276105D02*
X1142250Y266263D01*
X1096530Y276105D02*
X1142250D01*
X1096530Y236735D02*
Y276105D01*
Y236735D02*
X1142250D01*
Y276105D01*
X949464Y227337D02*
Y249435D01*
Y227337D02*
X954544D01*
Y249435D01*
X949464D02*
X954544D01*
X903744Y227337D02*
Y249435D01*
X898664D02*
X903744D01*
X898664Y227337D02*
Y249435D01*
Y227337D02*
X903744D01*
X939622Y218701D02*
X949464Y228544D01*
X939622Y258071D02*
X949464Y248229D01*
X903744Y258071D02*
X949464D01*
X903744Y218701D02*
Y258071D01*
Y218701D02*
X949464D01*
Y258071D01*
X757174Y218059D02*
Y240157D01*
Y218059D02*
X762254D01*
Y240157D01*
X757174D02*
X762254D01*
X711454Y218059D02*
Y240157D01*
X706374D02*
X711454D01*
X706374Y218059D02*
Y240157D01*
Y218059D02*
X711454D01*
X747331Y209423D02*
X757174Y219265D01*
X747331Y248793D02*
X757174Y238951D01*
X711454Y248793D02*
X757174D01*
X711454Y209423D02*
Y248793D01*
Y209423D02*
X757174D01*
Y248793D01*
X367792Y-101219D02*
Y-79121D01*
Y-101219D02*
X372872D01*
Y-79121D01*
X367792D02*
X372872D01*
X322072Y-101219D02*
Y-79121D01*
X316992D02*
X322072D01*
X316992Y-101219D02*
Y-79121D01*
Y-101219D02*
X322072D01*
X357949Y-109855D02*
X367792Y-100013D01*
X357949Y-70485D02*
X367792Y-80328D01*
X322072Y-70485D02*
X367792D01*
X322072Y-109855D02*
Y-70485D01*
Y-109855D02*
X367792D01*
Y-70485D01*
X1761502Y391929D02*
Y414027D01*
Y391929D02*
X1766582D01*
Y414027D01*
X1761502D02*
X1766582D01*
X1715782Y391929D02*
Y414027D01*
X1710702D02*
X1715782D01*
X1710702Y391929D02*
Y414027D01*
Y391929D02*
X1715782D01*
X1751660Y383293D02*
X1761502Y393136D01*
X1751660Y422663D02*
X1761502Y412821D01*
X1715782Y422663D02*
X1761502D01*
X1715782Y383293D02*
Y422663D01*
Y383293D02*
X1761502D01*
Y422663D01*
X1525282Y392945D02*
Y415043D01*
Y392945D02*
X1530362D01*
Y415043D01*
X1525282D02*
X1530362D01*
X1479562Y392945D02*
Y415043D01*
X1474482D02*
X1479562D01*
X1474482Y392945D02*
Y415043D01*
Y392945D02*
X1479562D01*
X1515440Y384309D02*
X1525282Y394152D01*
X1515440Y423679D02*
X1525282Y413837D01*
X1479562Y423679D02*
X1525282D01*
X1479562Y384309D02*
Y423679D01*
Y384309D02*
X1525282D01*
Y423679D01*
X1329702Y422409D02*
Y444507D01*
Y422409D02*
X1334782D01*
Y444507D01*
X1329702D02*
X1334782D01*
X1283982Y422409D02*
Y444507D01*
X1278902D02*
X1283982D01*
X1278902Y422409D02*
Y444507D01*
Y422409D02*
X1283982D01*
X1319860Y413773D02*
X1329702Y423616D01*
X1319860Y453143D02*
X1329702Y443301D01*
X1283982Y453143D02*
X1329702D01*
X1283982Y413773D02*
Y453143D01*
Y413773D02*
X1329702D01*
Y453143D01*
X1143254Y435483D02*
Y457581D01*
Y435483D02*
X1148334D01*
Y457581D01*
X1143254D02*
X1148334D01*
X1097534Y435483D02*
Y457581D01*
X1092454D02*
X1097534D01*
X1092454Y435483D02*
Y457581D01*
Y435483D02*
X1097534D01*
X1133411Y426847D02*
X1143254Y436689D01*
X1133411Y466217D02*
X1143254Y456375D01*
X1097534Y466217D02*
X1143254D01*
X1097534Y426847D02*
Y466217D01*
Y426847D02*
X1143254D01*
Y466217D01*
X950988Y417837D02*
Y439935D01*
Y417837D02*
X956068D01*
Y439935D01*
X950988D02*
X956068D01*
X905268Y417837D02*
Y439935D01*
X900188D02*
X905268D01*
X900188Y417837D02*
Y439935D01*
Y417837D02*
X905268D01*
X941146Y409201D02*
X950988Y419044D01*
X941146Y448571D02*
X950988Y438729D01*
X905268Y448571D02*
X950988D01*
X905268Y409201D02*
Y448571D01*
Y409201D02*
X950988D01*
Y448571D01*
X761492Y410845D02*
Y432943D01*
Y410845D02*
X766572D01*
Y432943D01*
X761492D02*
X766572D01*
X715772Y410845D02*
Y432943D01*
X710692D02*
X715772D01*
X710692Y410845D02*
Y432943D01*
Y410845D02*
X715772D01*
X751649Y402209D02*
X761492Y412052D01*
X751649Y441579D02*
X761492Y431736D01*
X715772Y441579D02*
X761492D01*
X715772Y402209D02*
Y441579D01*
Y402209D02*
X761492D01*
Y441579D01*
X571754Y363093D02*
Y385191D01*
Y363093D02*
X576834D01*
Y385191D01*
X571754D02*
X576834D01*
X526034Y363093D02*
Y385191D01*
X520954D02*
X526034D01*
X520954Y363093D02*
Y385191D01*
Y363093D02*
X526034D01*
X561912Y354457D02*
X571754Y364300D01*
X561912Y393827D02*
X571754Y383984D01*
X526034Y393827D02*
X571754D01*
X526034Y354457D02*
Y393827D01*
Y354457D02*
X571754D01*
Y393827D01*
X1759216Y580651D02*
Y602749D01*
Y580651D02*
X1764296D01*
Y602749D01*
X1759216D02*
X1764296D01*
X1713496Y580651D02*
Y602749D01*
X1708416D02*
X1713496D01*
X1708416Y580651D02*
Y602749D01*
Y580651D02*
X1713496D01*
X1749374Y572015D02*
X1759216Y581858D01*
X1749374Y611385D02*
X1759216Y601543D01*
X1713496Y611385D02*
X1759216D01*
X1713496Y572015D02*
Y611385D01*
Y572015D02*
X1759216D01*
Y611385D01*
X1523758Y580651D02*
Y602749D01*
Y580651D02*
X1528838D01*
Y602749D01*
X1523758D02*
X1528838D01*
X1478038Y580651D02*
Y602749D01*
X1472958D02*
X1478038D01*
X1472958Y580651D02*
Y602749D01*
Y580651D02*
X1478038D01*
X1513916Y572015D02*
X1523758Y581858D01*
X1513916Y611385D02*
X1523758Y601543D01*
X1478038Y611385D02*
X1523758D01*
X1478038Y572015D02*
Y611385D01*
Y572015D02*
X1523758D01*
Y611385D01*
X1334274Y611131D02*
Y633229D01*
Y611131D02*
X1339354D01*
Y633229D01*
X1334274D02*
X1339354D01*
X1288554Y611131D02*
Y633229D01*
X1283474D02*
X1288554D01*
X1283474Y611131D02*
Y633229D01*
Y611131D02*
X1288554D01*
X1324432Y602495D02*
X1334274Y612338D01*
X1324432Y641865D02*
X1334274Y632023D01*
X1288554Y641865D02*
X1334274D01*
X1288554Y602495D02*
Y641865D01*
Y602495D02*
X1334274D01*
Y641865D01*
X1141996Y621545D02*
Y643643D01*
Y621545D02*
X1147076D01*
Y643643D01*
X1141996D02*
X1147076D01*
X1096276Y621545D02*
Y643643D01*
X1091196D02*
X1096276D01*
X1091196Y621545D02*
Y643643D01*
Y621545D02*
X1096276D01*
X1132154Y612909D02*
X1141996Y622752D01*
X1132154Y652279D02*
X1141996Y642437D01*
X1096276Y652279D02*
X1141996D01*
X1096276Y612909D02*
Y652279D01*
Y612909D02*
X1141996D01*
Y652279D01*
X949464Y611131D02*
Y633229D01*
Y611131D02*
X954544D01*
Y633229D01*
X949464D02*
X954544D01*
X903744Y611131D02*
Y633229D01*
X898664D02*
X903744D01*
X898664Y611131D02*
Y633229D01*
Y611131D02*
X903744D01*
X939622Y602495D02*
X949464Y612338D01*
X939622Y641865D02*
X949464Y632023D01*
X903744Y641865D02*
X949464D01*
X903744Y602495D02*
Y641865D01*
Y602495D02*
X949464D01*
Y641865D01*
X668274Y598297D02*
Y620395D01*
X663194D02*
X668274D01*
X663194Y598297D02*
Y620395D01*
Y598297D02*
X668274D01*
X713994D02*
Y620395D01*
Y598297D02*
X719074D01*
Y620395D01*
X713994D02*
X719074D01*
X668274Y619188D02*
X678117Y629031D01*
X668274Y599504D02*
X678117Y589661D01*
X668274D02*
X713994D01*
Y629031D01*
X668274D02*
X713994D01*
X668274Y589661D02*
Y629031D01*
X476758Y598297D02*
Y620395D01*
X471678D02*
X476758D01*
X471678Y598297D02*
Y620395D01*
Y598297D02*
X476758D01*
X522478D02*
Y620395D01*
Y598297D02*
X527558D01*
Y620395D01*
X522478D02*
X527558D01*
X476758Y619188D02*
X486600Y629031D01*
X476758Y599504D02*
X486600Y589661D01*
X476758D02*
X522478D01*
Y629031D01*
X476758D02*
X522478D01*
X476758Y589661D02*
Y629031D01*
X422910Y-430657D02*
Y-408559D01*
Y-430657D02*
X427990D01*
Y-408559D01*
X422910D02*
X427990D01*
X377190Y-430657D02*
Y-408559D01*
X372110D02*
X377190D01*
X372110Y-430657D02*
Y-408559D01*
Y-430657D02*
X377190D01*
X413068Y-439293D02*
X422910Y-429450D01*
X413068Y-399923D02*
X422910Y-409766D01*
X377190Y-399923D02*
X422910D01*
X377190Y-439293D02*
Y-399923D01*
Y-439293D02*
X422910D01*
Y-399923D01*
X341376Y-252857D02*
Y-230759D01*
Y-252857D02*
X346456D01*
Y-230759D01*
X341376D02*
X346456D01*
X295656Y-252857D02*
Y-230759D01*
X290576D02*
X295656D01*
X290576Y-252857D02*
Y-230759D01*
Y-252857D02*
X295656D01*
X331534Y-261493D02*
X341376Y-251651D01*
X331534Y-222123D02*
X341376Y-231966D01*
X295656Y-222123D02*
X341376D01*
X295656Y-261493D02*
Y-222123D01*
Y-261493D02*
X341376D01*
Y-222123D01*
X249682Y-73533D02*
Y-51435D01*
Y-73533D02*
X254762D01*
Y-51435D01*
X249682D02*
X254762D01*
X203962Y-73533D02*
Y-51435D01*
X198882D02*
X203962D01*
X198882Y-73533D02*
Y-51435D01*
Y-73533D02*
X203962D01*
X239839Y-82169D02*
X249682Y-72326D01*
X239839Y-42799D02*
X249682Y-52642D01*
X203962Y-42799D02*
X249682D01*
X203962Y-82169D02*
Y-42799D01*
Y-82169D02*
X249682D01*
Y-42799D01*
X322199Y286512D02*
X344297D01*
Y291592D01*
X322199D02*
X344297D01*
X322199Y286512D02*
Y291592D01*
Y240792D02*
X344297D01*
X322199Y235712D02*
Y240792D01*
Y235712D02*
X344297D01*
Y240792D01*
X343091Y286512D02*
X352933Y276670D01*
X313563D02*
X323405Y286512D01*
X313563Y240792D02*
Y286512D01*
Y240792D02*
X352933D01*
Y286512D01*
X313563D02*
X352933D01*
X309245Y786257D02*
Y803275D01*
Y786257D02*
X330327D01*
Y803275D01*
X309245D02*
X330327D01*
D203*
X1625517Y-185640D02*
X1623851Y-183974D01*
X1620519D01*
X1618853Y-185640D01*
Y-187306D01*
X1620519Y-188972D01*
X1623851D01*
X1625517Y-190638D01*
Y-192304D01*
X1623851Y-193971D01*
X1620519D01*
X1618853Y-192304D01*
X1628850Y-183974D02*
Y-193971D01*
X1632182Y-190638D01*
X1635514Y-193971D01*
Y-183974D01*
X1645511Y-193971D02*
X1638847D01*
X1645511Y-187306D01*
Y-185640D01*
X1643845Y-183974D01*
X1640513D01*
X1638847Y-185640D01*
X1435016D02*
X1433350Y-183974D01*
X1430018D01*
X1428352Y-185640D01*
Y-187306D01*
X1430018Y-188972D01*
X1433350D01*
X1435016Y-190638D01*
Y-192304D01*
X1433350Y-193971D01*
X1430018D01*
X1428352Y-192304D01*
X1438349Y-183974D02*
Y-193971D01*
X1441681Y-190638D01*
X1445013Y-193971D01*
Y-183974D01*
X1448345Y-185640D02*
X1450011Y-183974D01*
X1453344D01*
X1455010Y-185640D01*
Y-187306D01*
X1453344Y-188972D01*
X1451678D01*
X1453344D01*
X1455010Y-190638D01*
Y-192304D01*
X1453344Y-193971D01*
X1450011D01*
X1448345Y-192304D01*
X1245299Y-153137D02*
X1243633Y-151471D01*
X1240300D01*
X1238634Y-153137D01*
Y-154803D01*
X1240300Y-156469D01*
X1243633D01*
X1245299Y-158135D01*
Y-159802D01*
X1243633Y-161468D01*
X1240300D01*
X1238634Y-159802D01*
X1248631Y-151471D02*
Y-161468D01*
X1251963Y-158135D01*
X1255295Y-161468D01*
Y-151471D01*
X1263626Y-161468D02*
Y-151471D01*
X1258628Y-156469D01*
X1265292D01*
X1054544Y-137135D02*
X1052878Y-135469D01*
X1049546D01*
X1047880Y-137135D01*
Y-138802D01*
X1049546Y-140468D01*
X1052878D01*
X1054544Y-142134D01*
Y-143800D01*
X1052878Y-145466D01*
X1049546D01*
X1047880Y-143800D01*
X1057877Y-135469D02*
Y-145466D01*
X1061209Y-142134D01*
X1064541Y-145466D01*
Y-135469D01*
X1074538D02*
X1067873D01*
Y-140468D01*
X1071206Y-138802D01*
X1072872D01*
X1074538Y-140468D01*
Y-143800D01*
X1072872Y-145466D01*
X1069539D01*
X1067873Y-143800D01*
X863512Y-153890D02*
X861846Y-152223D01*
X858514D01*
X856848Y-153890D01*
Y-155556D01*
X858514Y-157222D01*
X861846D01*
X863512Y-158888D01*
Y-160554D01*
X861846Y-162220D01*
X858514D01*
X856848Y-160554D01*
X866844Y-152223D02*
Y-162220D01*
X870177Y-158888D01*
X873509Y-162220D01*
Y-152223D01*
X883506D02*
X880173Y-153890D01*
X876841Y-157222D01*
Y-160554D01*
X878507Y-162220D01*
X881840D01*
X883506Y-160554D01*
Y-158888D01*
X881840Y-157222D01*
X876841D01*
X573469Y-283185D02*
X571802Y-281519D01*
X568470D01*
X566804Y-283185D01*
Y-284851D01*
X568470Y-286518D01*
X571802D01*
X573469Y-288184D01*
Y-289850D01*
X571802Y-291516D01*
X568470D01*
X566804Y-289850D01*
X576801Y-281519D02*
Y-291516D01*
X580133Y-288184D01*
X583465Y-291516D01*
Y-281519D01*
X586798D02*
X593462D01*
Y-283185D01*
X586798Y-289850D01*
Y-291516D01*
X400972Y-362959D02*
X399306Y-361293D01*
X395974D01*
X394308Y-362959D01*
Y-364626D01*
X395974Y-366292D01*
X399306D01*
X400972Y-367958D01*
Y-369624D01*
X399306Y-371290D01*
X395974D01*
X394308Y-369624D01*
X404304Y-361293D02*
Y-371290D01*
X407636Y-367958D01*
X410969Y-371290D01*
Y-361293D01*
X414301Y-362959D02*
X415967Y-361293D01*
X419299D01*
X420965Y-362959D01*
Y-364626D01*
X419299Y-366292D01*
X420965Y-367958D01*
Y-369624D01*
X419299Y-371290D01*
X415967D01*
X414301Y-369624D01*
Y-367958D01*
X415967Y-366292D01*
X414301Y-364626D01*
Y-362959D01*
X415967Y-366292D02*
X419299D01*
X1673143Y4861D02*
X1671477Y6528D01*
X1668144D01*
X1666478Y4861D01*
Y3195D01*
X1668144Y1529D01*
X1671477D01*
X1673143Y-137D01*
Y-1803D01*
X1671477Y-3469D01*
X1668144D01*
X1666478Y-1803D01*
X1676475Y6528D02*
Y-3469D01*
X1679807Y-137D01*
X1683139Y-3469D01*
Y6528D01*
X1686472Y-1803D02*
X1688138Y-3469D01*
X1691470D01*
X1693136Y-1803D01*
Y4861D01*
X1691470Y6528D01*
X1688138D01*
X1686472Y4861D01*
Y3195D01*
X1688138Y1529D01*
X1693136D01*
X1435016Y4861D02*
X1433350Y6528D01*
X1430018D01*
X1428352Y4861D01*
Y3195D01*
X1430018Y1529D01*
X1433350D01*
X1435016Y-137D01*
Y-1803D01*
X1433350Y-3469D01*
X1430018D01*
X1428352Y-1803D01*
X1438349Y6528D02*
Y-3469D01*
X1441681Y-137D01*
X1445013Y-3469D01*
Y6528D01*
X1448345Y-3469D02*
X1451678D01*
X1450011D01*
Y6528D01*
X1448345Y4861D01*
X1456676D02*
X1458342Y6528D01*
X1461674D01*
X1463340Y4861D01*
Y-1803D01*
X1461674Y-3469D01*
X1458342D01*
X1456676Y-1803D01*
Y4861D01*
X1246312Y38347D02*
X1244646Y40014D01*
X1241314D01*
X1239648Y38347D01*
Y36681D01*
X1241314Y35015D01*
X1244646D01*
X1246312Y33349D01*
Y31683D01*
X1244646Y30017D01*
X1241314D01*
X1239648Y31683D01*
X1249644Y40014D02*
Y30017D01*
X1252977Y33349D01*
X1256309Y30017D01*
Y40014D01*
X1259641Y30017D02*
X1262973D01*
X1261307D01*
Y40014D01*
X1259641Y38347D01*
X1267972Y30017D02*
X1271304D01*
X1269638D01*
Y40014D01*
X1267972Y38347D01*
X1055306Y52857D02*
X1053640Y54523D01*
X1050308D01*
X1048642Y52857D01*
Y51191D01*
X1050308Y49525D01*
X1053640D01*
X1055306Y47859D01*
Y46192D01*
X1053640Y44526D01*
X1050308D01*
X1048642Y46192D01*
X1058639Y54523D02*
Y44526D01*
X1061971Y47859D01*
X1065303Y44526D01*
Y54523D01*
X1068635Y44526D02*
X1071968D01*
X1070302D01*
Y54523D01*
X1068635Y52857D01*
X1083631Y44526D02*
X1076966D01*
X1083631Y51191D01*
Y52857D01*
X1081964Y54523D01*
X1078632D01*
X1076966Y52857D01*
X865309Y38347D02*
X863643Y40014D01*
X860311D01*
X858644Y38347D01*
Y36681D01*
X860311Y35015D01*
X863643D01*
X865309Y33349D01*
Y31683D01*
X863643Y30017D01*
X860311D01*
X858644Y31683D01*
X868641Y40014D02*
Y30017D01*
X871973Y33349D01*
X875306Y30017D01*
Y40014D01*
X878638Y30017D02*
X881970D01*
X880304D01*
Y40014D01*
X878638Y38347D01*
X886969D02*
X888635Y40014D01*
X891967D01*
X893633Y38347D01*
Y36681D01*
X891967Y35015D01*
X890301D01*
X891967D01*
X893633Y33349D01*
Y31683D01*
X891967Y30017D01*
X888635D01*
X886969Y31683D01*
X675576Y25933D02*
X673910Y27599D01*
X670578D01*
X668912Y25933D01*
Y24267D01*
X670578Y22600D01*
X673910D01*
X675576Y20934D01*
Y19268D01*
X673910Y17602D01*
X670578D01*
X668912Y19268D01*
X678909Y27599D02*
Y17602D01*
X682241Y20934D01*
X685573Y17602D01*
Y27599D01*
X688906Y17602D02*
X692238D01*
X690572D01*
Y27599D01*
X688906Y25933D01*
X702235Y17602D02*
Y27599D01*
X697236Y22600D01*
X703901D01*
X484314Y72669D02*
X482648Y74335D01*
X479316D01*
X477650Y72669D01*
Y71002D01*
X479316Y69336D01*
X482648D01*
X484314Y67670D01*
Y66004D01*
X482648Y64338D01*
X479316D01*
X477650Y66004D01*
X487647Y74335D02*
Y64338D01*
X490979Y67670D01*
X494311Y64338D01*
Y74335D01*
X497644Y64338D02*
X500976D01*
X499310D01*
Y74335D01*
X497644Y72669D01*
X512639Y74335D02*
X505974D01*
Y69336D01*
X509306Y71002D01*
X510973D01*
X512639Y69336D01*
Y66004D01*
X510973Y64338D01*
X507640D01*
X505974Y66004D01*
X1673143Y195363D02*
X1671477Y197029D01*
X1668145D01*
X1666478Y195363D01*
Y193697D01*
X1668145Y192031D01*
X1671477D01*
X1673143Y190364D01*
Y188698D01*
X1671477Y187032D01*
X1668145D01*
X1666478Y188698D01*
X1676475Y197029D02*
Y187032D01*
X1679807Y190364D01*
X1683140Y187032D01*
Y197029D01*
X1686472Y187032D02*
X1689804D01*
X1688138D01*
Y197029D01*
X1686472Y195363D01*
X1701467Y197029D02*
X1698135Y195363D01*
X1694803Y192031D01*
Y188698D01*
X1696469Y187032D01*
X1699801D01*
X1701467Y188698D01*
Y190364D01*
X1699801Y192031D01*
X1694803D01*
X1435016Y195363D02*
X1433350Y197029D01*
X1430018D01*
X1428352Y195363D01*
Y193697D01*
X1430018Y192031D01*
X1433350D01*
X1435016Y190364D01*
Y188698D01*
X1433350Y187032D01*
X1430018D01*
X1428352Y188698D01*
X1438349Y197029D02*
Y187032D01*
X1441681Y190364D01*
X1445013Y187032D01*
Y197029D01*
X1448345Y187032D02*
X1451678D01*
X1450011D01*
Y197029D01*
X1448345Y195363D01*
X1456676Y197029D02*
X1463340D01*
Y195363D01*
X1456676Y188698D01*
Y187032D01*
X1244515Y227113D02*
X1242849Y228779D01*
X1239517D01*
X1237851Y227113D01*
Y225447D01*
X1239517Y223781D01*
X1242849D01*
X1244515Y222115D01*
Y220449D01*
X1242849Y218783D01*
X1239517D01*
X1237851Y220449D01*
X1247847Y228779D02*
Y218783D01*
X1251180Y222115D01*
X1254512Y218783D01*
Y228779D01*
X1257844Y218783D02*
X1261176D01*
X1259510D01*
Y228779D01*
X1257844Y227113D01*
X1266175D02*
X1267841Y228779D01*
X1271173D01*
X1272839Y227113D01*
Y225447D01*
X1271173Y223781D01*
X1272839Y222115D01*
Y220449D01*
X1271173Y218783D01*
X1267841D01*
X1266175Y220449D01*
Y222115D01*
X1267841Y223781D01*
X1266175Y225447D01*
Y227113D01*
X1267841Y223781D02*
X1271173D01*
X1054013Y243090D02*
X1052347Y244756D01*
X1049015D01*
X1047349Y243090D01*
Y241423D01*
X1049015Y239757D01*
X1052347D01*
X1054013Y238091D01*
Y236425D01*
X1052347Y234759D01*
X1049015D01*
X1047349Y236425D01*
X1057346Y244756D02*
Y234759D01*
X1060678Y238091D01*
X1064010Y234759D01*
Y244756D01*
X1067343Y234759D02*
X1070675D01*
X1069009D01*
Y244756D01*
X1067343Y243090D01*
X1075673Y236425D02*
X1077339Y234759D01*
X1080671D01*
X1082338Y236425D01*
Y243090D01*
X1080671Y244756D01*
X1077339D01*
X1075673Y243090D01*
Y241423D01*
X1077339Y239757D01*
X1082338D01*
X863512Y227113D02*
X861846Y228779D01*
X858514D01*
X856848Y227113D01*
Y225447D01*
X858514Y223781D01*
X861846D01*
X863512Y222115D01*
Y220449D01*
X861846Y218783D01*
X858514D01*
X856848Y220449D01*
X866844Y228779D02*
Y218783D01*
X870177Y222115D01*
X873509Y218783D01*
Y228779D01*
X883506Y218783D02*
X876841D01*
X883506Y225447D01*
Y227113D01*
X881840Y228779D01*
X878507D01*
X876841Y227113D01*
X886838D02*
X888504Y228779D01*
X891836D01*
X893503Y227113D01*
Y220449D01*
X891836Y218783D01*
X888504D01*
X886838Y220449D01*
Y227113D01*
X673799Y215925D02*
X672132Y217591D01*
X668800D01*
X667134Y215925D01*
Y214258D01*
X668800Y212592D01*
X672132D01*
X673799Y210926D01*
Y209260D01*
X672132Y207594D01*
X668800D01*
X667134Y209260D01*
X677131Y217591D02*
Y207594D01*
X680463Y210926D01*
X683795Y207594D01*
Y217591D01*
X693792Y207594D02*
X687128D01*
X693792Y214258D01*
Y215925D01*
X692126Y217591D01*
X688794D01*
X687128Y215925D01*
X697124Y207594D02*
X700457D01*
X698791D01*
Y217591D01*
X697124Y215925D01*
X278241Y-105807D02*
X276575Y-104141D01*
X273243D01*
X271576Y-105807D01*
Y-107473D01*
X273243Y-109139D01*
X276575D01*
X278241Y-110805D01*
Y-112472D01*
X276575Y-114138D01*
X273243D01*
X271576Y-112472D01*
X281573Y-104141D02*
Y-114138D01*
X284905Y-110805D01*
X288238Y-114138D01*
Y-104141D01*
X298235Y-114138D02*
X291570D01*
X298235Y-107473D01*
Y-105807D01*
X296568Y-104141D01*
X293236D01*
X291570Y-105807D01*
X308231Y-114138D02*
X301567D01*
X308231Y-107473D01*
Y-105807D01*
X306565Y-104141D01*
X303233D01*
X301567Y-105807D01*
X1674305Y386867D02*
X1672639Y388533D01*
X1669306D01*
X1667640Y386867D01*
Y385201D01*
X1669306Y383535D01*
X1672639D01*
X1674305Y381868D01*
Y380202D01*
X1672639Y378536D01*
X1669306D01*
X1667640Y380202D01*
X1677637Y388533D02*
Y378536D01*
X1680969Y381868D01*
X1684301Y378536D01*
Y388533D01*
X1694298Y378536D02*
X1687634D01*
X1694298Y385201D01*
Y386867D01*
X1692632Y388533D01*
X1689300D01*
X1687634Y386867D01*
X1697630D02*
X1699297Y388533D01*
X1702629D01*
X1704295Y386867D01*
Y385201D01*
X1702629Y383535D01*
X1700963D01*
X1702629D01*
X1704295Y381868D01*
Y380202D01*
X1702629Y378536D01*
X1699297D01*
X1697630Y380202D01*
X1436307Y386867D02*
X1434641Y388533D01*
X1431308D01*
X1429642Y386867D01*
Y385201D01*
X1431308Y383535D01*
X1434641D01*
X1436307Y381868D01*
Y380202D01*
X1434641Y378536D01*
X1431308D01*
X1429642Y380202D01*
X1439639Y388533D02*
Y378536D01*
X1442971Y381868D01*
X1446303Y378536D01*
Y388533D01*
X1456300Y378536D02*
X1449636D01*
X1456300Y385201D01*
Y386867D01*
X1454634Y388533D01*
X1451302D01*
X1449636Y386867D01*
X1464631Y378536D02*
Y388533D01*
X1459632Y383535D01*
X1466297D01*
X1246568Y419887D02*
X1244902Y421553D01*
X1241570D01*
X1239904Y419887D01*
Y418221D01*
X1241570Y416554D01*
X1244902D01*
X1246568Y414888D01*
Y413222D01*
X1244902Y411556D01*
X1241570D01*
X1239904Y413222D01*
X1249901Y421553D02*
Y411556D01*
X1253233Y414888D01*
X1256565Y411556D01*
Y421553D01*
X1266562Y411556D02*
X1259898D01*
X1266562Y418221D01*
Y419887D01*
X1264896Y421553D01*
X1261564D01*
X1259898Y419887D01*
X1276559Y421553D02*
X1269894D01*
Y416554D01*
X1273226Y418221D01*
X1274893D01*
X1276559Y416554D01*
Y413222D01*
X1274893Y411556D01*
X1271560D01*
X1269894Y413222D01*
X1056830Y435126D02*
X1055164Y436793D01*
X1051832D01*
X1050166Y435126D01*
Y433460D01*
X1051832Y431794D01*
X1055164D01*
X1056830Y430128D01*
Y428462D01*
X1055164Y426796D01*
X1051832D01*
X1050166Y428462D01*
X1060163Y436793D02*
Y426796D01*
X1063495Y430128D01*
X1066827Y426796D01*
Y436793D01*
X1076824Y426796D02*
X1070159D01*
X1076824Y433460D01*
Y435126D01*
X1075158Y436793D01*
X1071825D01*
X1070159Y435126D01*
X1086821Y436793D02*
X1083488Y435126D01*
X1080156Y431794D01*
Y428462D01*
X1081822Y426796D01*
X1085154D01*
X1086821Y428462D01*
Y430128D01*
X1085154Y431794D01*
X1080156D01*
X865309Y419350D02*
X863643Y421016D01*
X860311D01*
X858644Y419350D01*
Y417684D01*
X860311Y416018D01*
X863643D01*
X865309Y414351D01*
Y412685D01*
X863643Y411019D01*
X860311D01*
X858644Y412685D01*
X868641Y421016D02*
Y411019D01*
X871973Y414351D01*
X875306Y411019D01*
Y421016D01*
X885303Y411019D02*
X878638D01*
X885303Y417684D01*
Y419350D01*
X883636Y421016D01*
X880304D01*
X878638Y419350D01*
X888635Y421016D02*
X895299D01*
Y419350D01*
X888635Y412685D01*
Y411019D01*
X674808Y406650D02*
X673142Y408316D01*
X669809D01*
X668143Y406650D01*
Y404984D01*
X669809Y403318D01*
X673142D01*
X674808Y401651D01*
Y399985D01*
X673142Y398319D01*
X669809D01*
X668143Y399985D01*
X678140Y408316D02*
Y398319D01*
X681472Y401651D01*
X684805Y398319D01*
Y408316D01*
X694801Y398319D02*
X688137D01*
X694801Y404984D01*
Y406650D01*
X693135Y408316D01*
X689803D01*
X688137Y406650D01*
X698134D02*
X699800Y408316D01*
X703132D01*
X704798Y406650D01*
Y404984D01*
X703132Y403318D01*
X704798Y401651D01*
Y399985D01*
X703132Y398319D01*
X699800D01*
X698134Y399985D01*
Y401651D01*
X699800Y403318D01*
X698134Y404984D01*
Y406650D01*
X699800Y403318D02*
X703132D01*
X482509Y357289D02*
X480843Y358955D01*
X477511D01*
X475845Y357289D01*
Y355623D01*
X477511Y353957D01*
X480843D01*
X482509Y352290D01*
Y350624D01*
X480843Y348958D01*
X477511D01*
X475845Y350624D01*
X485842Y358955D02*
Y348958D01*
X489174Y352290D01*
X492506Y348958D01*
Y358955D01*
X502503Y348958D02*
X495838D01*
X502503Y355623D01*
Y357289D01*
X500837Y358955D01*
X497505D01*
X495838Y357289D01*
X505835Y350624D02*
X507501Y348958D01*
X510834D01*
X512500Y350624D01*
Y357289D01*
X510834Y358955D01*
X507501D01*
X505835Y357289D01*
Y355623D01*
X507501Y353957D01*
X512500D01*
X1675067Y577874D02*
X1673400Y579541D01*
X1670068D01*
X1668402Y577874D01*
Y576208D01*
X1670068Y574542D01*
X1673400D01*
X1675067Y572876D01*
Y571210D01*
X1673400Y569544D01*
X1670068D01*
X1668402Y571210D01*
X1678399Y579541D02*
Y569544D01*
X1681731Y572876D01*
X1685063Y569544D01*
Y579541D01*
X1688396Y577874D02*
X1690062Y579541D01*
X1693394D01*
X1695060Y577874D01*
Y576208D01*
X1693394Y574542D01*
X1691728D01*
X1693394D01*
X1695060Y572876D01*
Y571210D01*
X1693394Y569544D01*
X1690062D01*
X1688396Y571210D01*
X1698392Y577874D02*
X1700058Y579541D01*
X1703391D01*
X1705057Y577874D01*
Y571210D01*
X1703391Y569544D01*
X1700058D01*
X1698392Y571210D01*
Y577874D01*
X1438085Y576605D02*
X1436418Y578271D01*
X1433086D01*
X1431420Y576605D01*
Y574939D01*
X1433086Y573273D01*
X1436418D01*
X1438085Y571606D01*
Y569940D01*
X1436418Y568274D01*
X1433086D01*
X1431420Y569940D01*
X1441417Y578271D02*
Y568274D01*
X1444749Y571606D01*
X1448081Y568274D01*
Y578271D01*
X1451414Y576605D02*
X1453080Y578271D01*
X1456412D01*
X1458078Y576605D01*
Y574939D01*
X1456412Y573273D01*
X1454746D01*
X1456412D01*
X1458078Y571606D01*
Y569940D01*
X1456412Y568274D01*
X1453080D01*
X1451414Y569940D01*
X1461410Y568274D02*
X1464743D01*
X1463077D01*
Y578271D01*
X1461410Y576605D01*
X1246312Y609852D02*
X1244646Y611518D01*
X1241314D01*
X1239648Y609852D01*
Y608185D01*
X1241314Y606519D01*
X1244646D01*
X1246312Y604853D01*
Y603187D01*
X1244646Y601521D01*
X1241314D01*
X1239648Y603187D01*
X1249644Y611518D02*
Y601521D01*
X1252977Y604853D01*
X1256309Y601521D01*
Y611518D01*
X1259641Y609852D02*
X1261307Y611518D01*
X1264639D01*
X1266305Y609852D01*
Y608185D01*
X1264639Y606519D01*
X1262973D01*
X1264639D01*
X1266305Y604853D01*
Y603187D01*
X1264639Y601521D01*
X1261307D01*
X1259641Y603187D01*
X1276302Y601521D02*
X1269638D01*
X1276302Y608185D01*
Y609852D01*
X1274636Y611518D01*
X1271304D01*
X1269638Y609852D01*
X1054013Y624092D02*
X1052347Y625759D01*
X1049015D01*
X1047349Y624092D01*
Y622426D01*
X1049015Y620760D01*
X1052347D01*
X1054013Y619094D01*
Y617428D01*
X1052347Y615762D01*
X1049015D01*
X1047349Y617428D01*
X1057346Y625759D02*
Y615762D01*
X1060678Y619094D01*
X1064010Y615762D01*
Y625759D01*
X1067343Y624092D02*
X1069009Y625759D01*
X1072341D01*
X1074007Y624092D01*
Y622426D01*
X1072341Y620760D01*
X1070675D01*
X1072341D01*
X1074007Y619094D01*
Y617428D01*
X1072341Y615762D01*
X1069009D01*
X1067343Y617428D01*
X1077339Y624092D02*
X1079005Y625759D01*
X1082338D01*
X1084004Y624092D01*
Y622426D01*
X1082338Y620760D01*
X1080671D01*
X1082338D01*
X1084004Y619094D01*
Y617428D01*
X1082338Y615762D01*
X1079005D01*
X1077339Y617428D01*
X863512Y608116D02*
X861846Y609782D01*
X858514D01*
X856848Y608116D01*
Y606450D01*
X858514Y604784D01*
X861846D01*
X863512Y603117D01*
Y601451D01*
X861846Y599785D01*
X858514D01*
X856848Y601451D01*
X866844Y609782D02*
Y599785D01*
X870177Y603117D01*
X873509Y599785D01*
Y609782D01*
X876841Y608116D02*
X878507Y609782D01*
X881840D01*
X883506Y608116D01*
Y606450D01*
X881840Y604784D01*
X880173D01*
X881840D01*
X883506Y603117D01*
Y601451D01*
X881840Y599785D01*
X878507D01*
X876841Y601451D01*
X891836Y599785D02*
Y609782D01*
X886838Y604784D01*
X893503D01*
X673011Y595390D02*
X671345Y597057D01*
X668012D01*
X666346Y595390D01*
Y593724D01*
X668012Y592058D01*
X671345D01*
X673011Y590392D01*
Y588726D01*
X671345Y587060D01*
X668012D01*
X666346Y588726D01*
X676343Y597057D02*
Y587060D01*
X679675Y590392D01*
X683007Y587060D01*
Y597057D01*
X686340Y595390D02*
X688006Y597057D01*
X691338D01*
X693004Y595390D01*
Y593724D01*
X691338Y592058D01*
X689672D01*
X691338D01*
X693004Y590392D01*
Y588726D01*
X691338Y587060D01*
X688006D01*
X686340Y588726D01*
X703001Y597057D02*
X696336D01*
Y592058D01*
X699669Y593724D01*
X701335D01*
X703001Y592058D01*
Y588726D01*
X701335Y587060D01*
X698003D01*
X696336Y588726D01*
X484314Y598195D02*
X482648Y599861D01*
X479316D01*
X477650Y598195D01*
Y596528D01*
X479316Y594862D01*
X482648D01*
X484314Y593196D01*
Y591530D01*
X482648Y589864D01*
X479316D01*
X477650Y591530D01*
X487647Y599861D02*
Y589864D01*
X490979Y593196D01*
X494311Y589864D01*
Y599861D01*
X497643Y598195D02*
X499310Y599861D01*
X502642D01*
X504308Y598195D01*
Y596528D01*
X502642Y594862D01*
X500976D01*
X502642D01*
X504308Y593196D01*
Y591530D01*
X502642Y589864D01*
X499310D01*
X497643Y591530D01*
X514305Y599861D02*
X510972Y598195D01*
X507640Y594862D01*
Y591530D01*
X509306Y589864D01*
X512639D01*
X514305Y591530D01*
Y593196D01*
X512639Y594862D01*
X507640D01*
X420447Y-482709D02*
X419837Y-484985D01*
X421503Y-487870D01*
X423779Y-488480D01*
X425222Y-487647D01*
X425832Y-485371D01*
X424166Y-482485D01*
X424776Y-480209D01*
X426219Y-479376D01*
X428495Y-479986D01*
X430161Y-482872D01*
X429551Y-485148D01*
X417338Y-480656D02*
X425996Y-475657D01*
X421444Y-474438D01*
X422663Y-469886D01*
X414006Y-474884D01*
X413783Y-471165D02*
X411507Y-470555D01*
X409841Y-467670D01*
X410450Y-465394D01*
X411893Y-464561D01*
X414169Y-465170D01*
X415002Y-466613D01*
X414169Y-465170D01*
X414779Y-462895D01*
X416222Y-462061D01*
X418498Y-462671D01*
X420164Y-465557D01*
X419554Y-467833D01*
X407341Y-463341D02*
X404009Y-457569D01*
X405452Y-456736D01*
X414556Y-459176D01*
X415999Y-458343D01*
X342858Y-308500D02*
X342248Y-310776D01*
X343914Y-313662D01*
X346190Y-314272D01*
X347633Y-313439D01*
X348243Y-311163D01*
X346577Y-308277D01*
X347187Y-306001D01*
X348630Y-305168D01*
X350906Y-305778D01*
X352572Y-308664D01*
X351962Y-310940D01*
X339749Y-306448D02*
X348407Y-301449D01*
X343855Y-300230D01*
X345074Y-295678D01*
X336417Y-300676D01*
X336194Y-296957D02*
X333918Y-296347D01*
X332252Y-293461D01*
X332862Y-291185D01*
X334304Y-290352D01*
X336580Y-290962D01*
X337413Y-292405D01*
X336580Y-290962D01*
X337190Y-288686D01*
X338633Y-287853D01*
X340909Y-288463D01*
X342575Y-291349D01*
X341965Y-293625D01*
X331195Y-288300D02*
X328919Y-287690D01*
X327253Y-284804D01*
X327863Y-282528D01*
X329306Y-281695D01*
X331582Y-282305D01*
X332192Y-280029D01*
X333635Y-279196D01*
X335911Y-279806D01*
X337577Y-282691D01*
X336967Y-284967D01*
X335524Y-285800D01*
X333248Y-285191D01*
X332638Y-287467D01*
X331195Y-288300D01*
X333248Y-285191D02*
X331582Y-282305D01*
X261070Y-136034D02*
X260460Y-138310D01*
X262127Y-141196D01*
X264403Y-141806D01*
X265845Y-140973D01*
X266455Y-138697D01*
X264789Y-135811D01*
X265399Y-133535D01*
X266842Y-132702D01*
X269118Y-133312D01*
X270784Y-136198D01*
X270174Y-138474D01*
X257961Y-133982D02*
X266619Y-128983D01*
X262067Y-127764D01*
X263286Y-123212D01*
X254629Y-128210D01*
X254406Y-124491D02*
X252130Y-123881D01*
X250464Y-120996D01*
X251073Y-118720D01*
X252516Y-117886D01*
X254792Y-118496D01*
X255625Y-119939D01*
X254792Y-118496D01*
X255402Y-116220D01*
X256845Y-115387D01*
X259121Y-115997D01*
X260787Y-118883D01*
X260177Y-121159D01*
X255179Y-112501D02*
X255789Y-110225D01*
X254123Y-107340D01*
X251847Y-106730D01*
X246075Y-110062D01*
X245465Y-112338D01*
X247131Y-115224D01*
X249407Y-115834D01*
X250850Y-115001D01*
X251460Y-112725D01*
X248961Y-108396D01*
D204*
X287078Y796098D02*
Y789433D01*
X288744Y787767D01*
X292076D01*
X293742Y789433D01*
Y796098D01*
X292076Y797764D01*
X288744D01*
X290410Y794432D02*
X287078Y797764D01*
X288744D02*
X287078Y796098D01*
X283745Y797764D02*
X280413D01*
X282079D01*
Y787767D01*
X283745Y789433D01*
M02*
