G04*
G04 #@! TF.GenerationSoftware,Altium Limited,Altium Designer,24.5.2 (23)*
G04*
G04 Layer_Color=32896*
%FSLAX44Y44*%
%MOMM*%
G71*
G04*
G04 #@! TF.SameCoordinates,B2DEAD2E-F19F-4043-ADCB-FE0AD24F75F7*
G04*
G04*
G04 #@! TF.FilePolarity,Positive*
G04*
G01*
G75*
%ADD11C,0.2000*%
%ADD14C,0.2540*%
%ADD16C,0.1270*%
D11*
X49170Y602434D02*
G03*
X49170Y602434I-1000J0D01*
G01*
D14*
X1724406Y-140213D02*
Y-155448D01*
X1714249D01*
X1699014Y-140213D02*
X1709171D01*
Y-155448D01*
X1699014D01*
X1709171Y-147830D02*
X1704093D01*
X1693936Y-140213D02*
Y-155448D01*
X1686318D01*
X1683779Y-152909D01*
Y-142752D01*
X1686318Y-140213D01*
X1693936D01*
X575564Y637535D02*
Y622300D01*
X565407D01*
X550172Y637535D02*
X560329D01*
Y622300D01*
X550172D01*
X560329Y629917D02*
X555251D01*
X545094Y637535D02*
Y622300D01*
X537476D01*
X534937Y624839D01*
Y634996D01*
X537476Y637535D01*
X545094D01*
X522241Y622300D02*
Y637535D01*
X529859Y629917D01*
X519702D01*
X514624Y622300D02*
X509545D01*
X512085D01*
Y637535D01*
X514624Y634996D01*
X768604Y633979D02*
Y618744D01*
X758447D01*
X743212Y633979D02*
X753369D01*
Y618744D01*
X743212D01*
X753369Y626362D02*
X748291D01*
X738134Y633979D02*
Y618744D01*
X730516D01*
X727977Y621283D01*
Y631440D01*
X730516Y633979D01*
X738134D01*
X715281Y618744D02*
Y633979D01*
X722899Y626362D01*
X712742D01*
X707664Y631440D02*
X705125Y633979D01*
X700046D01*
X697507Y631440D01*
Y621283D01*
X700046Y618744D01*
X705125D01*
X707664Y621283D01*
Y631440D01*
X956056Y650743D02*
Y635508D01*
X945899D01*
X930664Y650743D02*
X940821D01*
Y635508D01*
X930664D01*
X940821Y643126D02*
X935743D01*
X925586Y650743D02*
Y635508D01*
X917968D01*
X915429Y638047D01*
Y648204D01*
X917968Y650743D01*
X925586D01*
X910351Y648204D02*
X907812Y650743D01*
X902733D01*
X900194Y648204D01*
Y645665D01*
X902733Y643126D01*
X905272D01*
X902733D01*
X900194Y640586D01*
Y638047D01*
X902733Y635508D01*
X907812D01*
X910351Y638047D01*
X895116D02*
X892577Y635508D01*
X887498D01*
X884959Y638047D01*
Y648204D01*
X887498Y650743D01*
X892577D01*
X895116Y648204D01*
Y645665D01*
X892577Y643126D01*
X884959D01*
X1149350Y659125D02*
Y643890D01*
X1139193D01*
X1123958Y659125D02*
X1134115D01*
Y643890D01*
X1123958D01*
X1134115Y651507D02*
X1129037D01*
X1118880Y659125D02*
Y643890D01*
X1111262D01*
X1108723Y646429D01*
Y656586D01*
X1111262Y659125D01*
X1118880D01*
X1103645Y656586D02*
X1101106Y659125D01*
X1096027D01*
X1093488Y656586D01*
Y654047D01*
X1096027Y651507D01*
X1098566D01*
X1096027D01*
X1093488Y648968D01*
Y646429D01*
X1096027Y643890D01*
X1101106D01*
X1103645Y646429D01*
X1088410Y656586D02*
X1085871Y659125D01*
X1080792D01*
X1078253Y656586D01*
Y654047D01*
X1080792Y651507D01*
X1078253Y648968D01*
Y646429D01*
X1080792Y643890D01*
X1085871D01*
X1088410Y646429D01*
Y648968D01*
X1085871Y651507D01*
X1088410Y654047D01*
Y656586D01*
X1085871Y651507D02*
X1080792D01*
X1339850Y649219D02*
Y633984D01*
X1329693D01*
X1314458Y649219D02*
X1324615D01*
Y633984D01*
X1314458D01*
X1324615Y641601D02*
X1319537D01*
X1309380Y649219D02*
Y633984D01*
X1301762D01*
X1299223Y636523D01*
Y646680D01*
X1301762Y649219D01*
X1309380D01*
X1294145Y646680D02*
X1291606Y649219D01*
X1286527D01*
X1283988Y646680D01*
Y644141D01*
X1286527Y641601D01*
X1289066D01*
X1286527D01*
X1283988Y639062D01*
Y636523D01*
X1286527Y633984D01*
X1291606D01*
X1294145Y636523D01*
X1278910Y649219D02*
X1268753D01*
Y646680D01*
X1278910Y636523D01*
Y633984D01*
X1532128Y614675D02*
Y599440D01*
X1521971D01*
X1506736Y614675D02*
X1516893D01*
Y599440D01*
X1506736D01*
X1516893Y607057D02*
X1511815D01*
X1501658Y614675D02*
Y599440D01*
X1494040D01*
X1491501Y601979D01*
Y612136D01*
X1494040Y614675D01*
X1501658D01*
X1486423Y612136D02*
X1483884Y614675D01*
X1478805D01*
X1476266Y612136D01*
Y609597D01*
X1478805Y607057D01*
X1481344D01*
X1478805D01*
X1476266Y604518D01*
Y601979D01*
X1478805Y599440D01*
X1483884D01*
X1486423Y601979D01*
X1461031Y614675D02*
X1466109Y612136D01*
X1471188Y607057D01*
Y601979D01*
X1468649Y599440D01*
X1463570D01*
X1461031Y601979D01*
Y604518D01*
X1463570Y607057D01*
X1471188D01*
X1768094Y609595D02*
Y594360D01*
X1757937D01*
X1742702Y609595D02*
X1752859D01*
Y594360D01*
X1742702D01*
X1752859Y601978D02*
X1747781D01*
X1737624Y609595D02*
Y594360D01*
X1730006D01*
X1727467Y596899D01*
Y607056D01*
X1730006Y609595D01*
X1737624D01*
X1722389Y607056D02*
X1719850Y609595D01*
X1714771D01*
X1712232Y607056D01*
Y604517D01*
X1714771Y601978D01*
X1717310D01*
X1714771D01*
X1712232Y599438D01*
Y596899D01*
X1714771Y594360D01*
X1719850D01*
X1722389Y596899D01*
X1696997Y609595D02*
X1707154D01*
Y601978D01*
X1702075Y604517D01*
X1699536D01*
X1696997Y601978D01*
Y596899D01*
X1699536Y594360D01*
X1704615D01*
X1707154Y596899D01*
X580644Y395219D02*
Y379984D01*
X570487D01*
X555252Y395219D02*
X565409D01*
Y379984D01*
X555252D01*
X565409Y387602D02*
X560331D01*
X550174Y395219D02*
Y379984D01*
X542556D01*
X540017Y382523D01*
Y392680D01*
X542556Y395219D01*
X550174D01*
X534939Y392680D02*
X532400Y395219D01*
X527321D01*
X524782Y392680D01*
Y390141D01*
X527321Y387602D01*
X529860D01*
X527321D01*
X524782Y385062D01*
Y382523D01*
X527321Y379984D01*
X532400D01*
X534939Y382523D01*
X512086Y379984D02*
Y395219D01*
X519704Y387602D01*
X509547D01*
X768604Y443733D02*
Y428498D01*
X758447D01*
X743212Y443733D02*
X753369D01*
Y428498D01*
X743212D01*
X753369Y436115D02*
X748291D01*
X738134Y443733D02*
Y428498D01*
X730516D01*
X727977Y431037D01*
Y441194D01*
X730516Y443733D01*
X738134D01*
X722899Y441194D02*
X720360Y443733D01*
X715281D01*
X712742Y441194D01*
Y438655D01*
X715281Y436115D01*
X717820D01*
X715281D01*
X712742Y433576D01*
Y431037D01*
X715281Y428498D01*
X720360D01*
X722899Y431037D01*
X707664Y441194D02*
X705125Y443733D01*
X700046D01*
X697507Y441194D01*
Y438655D01*
X700046Y436115D01*
X702585D01*
X700046D01*
X697507Y433576D01*
Y431037D01*
X700046Y428498D01*
X705125D01*
X707664Y431037D01*
X960374Y455925D02*
Y440690D01*
X950217D01*
X934982Y455925D02*
X945139D01*
Y440690D01*
X934982D01*
X945139Y448307D02*
X940061D01*
X929904Y455925D02*
Y440690D01*
X922286D01*
X919747Y443229D01*
Y453386D01*
X922286Y455925D01*
X929904D01*
X914669Y453386D02*
X912130Y455925D01*
X907051D01*
X904512Y453386D01*
Y450847D01*
X907051Y448307D01*
X909590D01*
X907051D01*
X904512Y445768D01*
Y443229D01*
X907051Y440690D01*
X912130D01*
X914669Y443229D01*
X889277Y440690D02*
X899434D01*
X889277Y450847D01*
Y453386D01*
X891816Y455925D01*
X896895D01*
X899434Y453386D01*
X1152144Y469387D02*
Y454152D01*
X1141987D01*
X1126752Y469387D02*
X1136909D01*
Y454152D01*
X1126752D01*
X1136909Y461769D02*
X1131831D01*
X1121674Y469387D02*
Y454152D01*
X1114056D01*
X1111517Y456691D01*
Y466848D01*
X1114056Y469387D01*
X1121674D01*
X1106439Y466848D02*
X1103900Y469387D01*
X1098821D01*
X1096282Y466848D01*
Y464309D01*
X1098821Y461769D01*
X1101360D01*
X1098821D01*
X1096282Y459230D01*
Y456691D01*
X1098821Y454152D01*
X1103900D01*
X1106439Y456691D01*
X1091204Y454152D02*
X1086125D01*
X1088664D01*
Y469387D01*
X1091204Y466848D01*
X1341374Y458719D02*
Y443484D01*
X1331217D01*
X1315982Y458719D02*
X1326139D01*
Y443484D01*
X1315982D01*
X1326139Y451101D02*
X1321061D01*
X1310904Y458719D02*
Y443484D01*
X1303286D01*
X1300747Y446023D01*
Y456180D01*
X1303286Y458719D01*
X1310904D01*
X1295669Y456180D02*
X1293130Y458719D01*
X1288051D01*
X1285512Y456180D01*
Y453641D01*
X1288051Y451101D01*
X1290590D01*
X1288051D01*
X1285512Y448562D01*
Y446023D01*
X1288051Y443484D01*
X1293130D01*
X1295669Y446023D01*
X1280434Y456180D02*
X1277895Y458719D01*
X1272816D01*
X1270277Y456180D01*
Y446023D01*
X1272816Y443484D01*
X1277895D01*
X1280434Y446023D01*
Y456180D01*
X1536446Y426461D02*
Y411226D01*
X1526289D01*
X1511054Y426461D02*
X1521211D01*
Y411226D01*
X1511054D01*
X1521211Y418843D02*
X1516133D01*
X1505976Y426461D02*
Y411226D01*
X1498358D01*
X1495819Y413765D01*
Y423922D01*
X1498358Y426461D01*
X1505976D01*
X1480584Y411226D02*
X1490741D01*
X1480584Y421383D01*
Y423922D01*
X1483123Y426461D01*
X1488202D01*
X1490741Y423922D01*
X1475506Y413765D02*
X1472966Y411226D01*
X1467888D01*
X1465349Y413765D01*
Y423922D01*
X1467888Y426461D01*
X1472966D01*
X1475506Y423922D01*
Y421383D01*
X1472966Y418843D01*
X1465349D01*
X1768856Y427731D02*
Y412496D01*
X1758699D01*
X1743464Y427731D02*
X1753621D01*
Y412496D01*
X1743464D01*
X1753621Y420113D02*
X1748543D01*
X1738386Y427731D02*
Y412496D01*
X1730768D01*
X1728229Y415035D01*
Y425192D01*
X1730768Y427731D01*
X1738386D01*
X1712994Y412496D02*
X1723151D01*
X1712994Y422653D01*
Y425192D01*
X1715533Y427731D01*
X1720612D01*
X1723151Y425192D01*
X1707916D02*
X1705376Y427731D01*
X1700298D01*
X1697759Y425192D01*
Y422653D01*
X1700298Y420113D01*
X1697759Y417574D01*
Y415035D01*
X1700298Y412496D01*
X1705376D01*
X1707916Y415035D01*
Y417574D01*
X1705376Y420113D01*
X1707916Y422653D01*
Y425192D01*
X1705376Y420113D02*
X1700298D01*
X263652Y-21341D02*
Y-36576D01*
X253495D01*
X238260Y-21341D02*
X248417D01*
Y-36576D01*
X238260D01*
X248417Y-28958D02*
X243339D01*
X233182Y-21341D02*
Y-36576D01*
X225564D01*
X223025Y-34037D01*
Y-23880D01*
X225564Y-21341D01*
X233182D01*
X207790Y-36576D02*
X217947D01*
X207790Y-26419D01*
Y-23880D01*
X210329Y-21341D01*
X215408D01*
X217947Y-23880D01*
X202712Y-21341D02*
X192555D01*
Y-23880D01*
X202712Y-34037D01*
Y-36576D01*
X377698Y-68077D02*
Y-83312D01*
X367541D01*
X352306Y-68077D02*
X362463D01*
Y-83312D01*
X352306D01*
X362463Y-75694D02*
X357385D01*
X347228Y-68077D02*
Y-83312D01*
X339610D01*
X337071Y-80773D01*
Y-70616D01*
X339610Y-68077D01*
X347228D01*
X321836Y-83312D02*
X331993D01*
X321836Y-73155D01*
Y-70616D01*
X324375Y-68077D01*
X329454D01*
X331993Y-70616D01*
X306601Y-68077D02*
X311679Y-70616D01*
X316758Y-75694D01*
Y-80773D01*
X314219Y-83312D01*
X309140D01*
X306601Y-80773D01*
Y-78234D01*
X309140Y-75694D01*
X316758D01*
X765302Y253995D02*
Y238760D01*
X755145D01*
X739910Y253995D02*
X750067D01*
Y238760D01*
X739910D01*
X750067Y246378D02*
X744989D01*
X734832Y253995D02*
Y238760D01*
X727214D01*
X724675Y241299D01*
Y251456D01*
X727214Y253995D01*
X734832D01*
X709440Y238760D02*
X719597D01*
X709440Y248917D01*
Y251456D01*
X711979Y253995D01*
X717058D01*
X719597Y251456D01*
X694205Y253995D02*
X704362D01*
Y246378D01*
X699283Y248917D01*
X696744D01*
X694205Y246378D01*
Y241299D01*
X696744Y238760D01*
X701823D01*
X704362Y241299D01*
X955294Y265679D02*
Y250444D01*
X945137D01*
X929902Y265679D02*
X940059D01*
Y250444D01*
X929902D01*
X940059Y258062D02*
X934981D01*
X924824Y265679D02*
Y250444D01*
X917206D01*
X914667Y252983D01*
Y263140D01*
X917206Y265679D01*
X924824D01*
X899432Y250444D02*
X909589D01*
X899432Y260601D01*
Y263140D01*
X901971Y265679D01*
X907050D01*
X909589Y263140D01*
X886736Y250444D02*
Y265679D01*
X894354Y258062D01*
X884197D01*
X1149858Y279141D02*
Y263906D01*
X1139701D01*
X1124466Y279141D02*
X1134623D01*
Y263906D01*
X1124466D01*
X1134623Y271523D02*
X1129545D01*
X1119388Y279141D02*
Y263906D01*
X1111770D01*
X1109231Y266445D01*
Y276602D01*
X1111770Y279141D01*
X1119388D01*
X1093996Y263906D02*
X1104153D01*
X1093996Y274063D01*
Y276602D01*
X1096535Y279141D01*
X1101614D01*
X1104153Y276602D01*
X1088918D02*
X1086378Y279141D01*
X1081300D01*
X1078761Y276602D01*
Y274063D01*
X1081300Y271523D01*
X1083839D01*
X1081300D01*
X1078761Y268984D01*
Y266445D01*
X1081300Y263906D01*
X1086378D01*
X1088918Y266445D01*
X1338072Y265933D02*
Y250698D01*
X1327915D01*
X1312680Y265933D02*
X1322837D01*
Y250698D01*
X1312680D01*
X1322837Y258316D02*
X1317759D01*
X1307602Y265933D02*
Y250698D01*
X1299984D01*
X1297445Y253237D01*
Y263394D01*
X1299984Y265933D01*
X1307602D01*
X1282210Y250698D02*
X1292367D01*
X1282210Y260855D01*
Y263394D01*
X1284749Y265933D01*
X1289828D01*
X1292367Y263394D01*
X1266975Y250698D02*
X1277132D01*
X1266975Y260855D01*
Y263394D01*
X1269514Y265933D01*
X1274593D01*
X1277132Y263394D01*
X1525778Y235453D02*
Y220218D01*
X1515621D01*
X1500386Y235453D02*
X1510543D01*
Y220218D01*
X1500386D01*
X1510543Y227836D02*
X1505465D01*
X1495308Y235453D02*
Y220218D01*
X1487690D01*
X1485151Y222757D01*
Y232914D01*
X1487690Y235453D01*
X1495308D01*
X1469916Y220218D02*
X1480073D01*
X1469916Y230375D01*
Y232914D01*
X1472455Y235453D01*
X1477534D01*
X1480073Y232914D01*
X1464838Y220218D02*
X1459759D01*
X1462298D01*
Y235453D01*
X1464838Y232914D01*
X1769110Y232913D02*
Y217678D01*
X1758953D01*
X1743718Y232913D02*
X1753875D01*
Y217678D01*
X1743718D01*
X1753875Y225296D02*
X1748797D01*
X1738640Y232913D02*
Y217678D01*
X1731022D01*
X1728483Y220217D01*
Y230374D01*
X1731022Y232913D01*
X1738640D01*
X1713248Y217678D02*
X1723405D01*
X1713248Y227835D01*
Y230374D01*
X1715787Y232913D01*
X1720866D01*
X1723405Y230374D01*
X1708170D02*
X1705630Y232913D01*
X1700552D01*
X1698013Y230374D01*
Y220217D01*
X1700552Y217678D01*
X1705630D01*
X1708170Y220217D01*
Y230374D01*
X355600Y-194823D02*
Y-210058D01*
X345443D01*
X330208Y-194823D02*
X340365D01*
Y-210058D01*
X330208D01*
X340365Y-202440D02*
X335287D01*
X325130Y-194823D02*
Y-210058D01*
X317512D01*
X314973Y-207519D01*
Y-197362D01*
X317512Y-194823D01*
X325130D01*
X309895Y-210058D02*
X304816D01*
X307356D01*
Y-194823D01*
X309895Y-197362D01*
X297199Y-207519D02*
X294660Y-210058D01*
X289581D01*
X287042Y-207519D01*
Y-197362D01*
X289581Y-194823D01*
X294660D01*
X297199Y-197362D01*
Y-199901D01*
X294660Y-202440D01*
X287042D01*
X575564Y110485D02*
Y95250D01*
X565407D01*
X550172Y110485D02*
X560329D01*
Y95250D01*
X550172D01*
X560329Y102867D02*
X555251D01*
X545094Y110485D02*
Y95250D01*
X537476D01*
X534937Y97789D01*
Y107946D01*
X537476Y110485D01*
X545094D01*
X529859Y95250D02*
X524780D01*
X527320D01*
Y110485D01*
X529859Y107946D01*
X517163D02*
X514624Y110485D01*
X509545D01*
X507006Y107946D01*
Y105407D01*
X509545Y102867D01*
X507006Y100328D01*
Y97789D01*
X509545Y95250D01*
X514624D01*
X517163Y97789D01*
Y100328D01*
X514624Y102867D01*
X517163Y105407D01*
Y107946D01*
X514624Y102867D02*
X509545D01*
X765302Y63241D02*
Y48006D01*
X755145D01*
X739910Y63241D02*
X750067D01*
Y48006D01*
X739910D01*
X750067Y55623D02*
X744989D01*
X734832Y63241D02*
Y48006D01*
X727214D01*
X724675Y50545D01*
Y60702D01*
X727214Y63241D01*
X734832D01*
X719597Y48006D02*
X714518D01*
X717058D01*
Y63241D01*
X719597Y60702D01*
X706901Y63241D02*
X696744D01*
Y60702D01*
X706901Y50545D01*
Y48006D01*
X962660Y75941D02*
Y60706D01*
X952503D01*
X937268Y75941D02*
X947425D01*
Y60706D01*
X937268D01*
X947425Y68323D02*
X942347D01*
X932190Y75941D02*
Y60706D01*
X924572D01*
X922033Y63245D01*
Y73402D01*
X924572Y75941D01*
X932190D01*
X916955Y60706D02*
X911876D01*
X914416D01*
Y75941D01*
X916955Y73402D01*
X894102Y75941D02*
X899181Y73402D01*
X904259Y68323D01*
Y63245D01*
X901720Y60706D01*
X896641D01*
X894102Y63245D01*
Y65784D01*
X896641Y68323D01*
X904259D01*
X1144270Y90165D02*
Y74930D01*
X1134113D01*
X1118878Y90165D02*
X1129035D01*
Y74930D01*
X1118878D01*
X1129035Y82548D02*
X1123957D01*
X1113800Y90165D02*
Y74930D01*
X1106182D01*
X1103643Y77469D01*
Y87626D01*
X1106182Y90165D01*
X1113800D01*
X1098565Y74930D02*
X1093486D01*
X1096026D01*
Y90165D01*
X1098565Y87626D01*
X1075712Y90165D02*
X1085869D01*
Y82548D01*
X1080790Y85087D01*
X1078251D01*
X1075712Y82548D01*
Y77469D01*
X1078251Y74930D01*
X1083330D01*
X1085869Y77469D01*
X1341120Y74417D02*
Y59182D01*
X1330963D01*
X1315728Y74417D02*
X1325885D01*
Y59182D01*
X1315728D01*
X1325885Y66800D02*
X1320807D01*
X1310650Y74417D02*
Y59182D01*
X1303032D01*
X1300493Y61721D01*
Y71878D01*
X1303032Y74417D01*
X1310650D01*
X1295415Y59182D02*
X1290336D01*
X1292876D01*
Y74417D01*
X1295415Y71878D01*
X1275101Y59182D02*
Y74417D01*
X1282719Y66800D01*
X1272562D01*
X1528318Y44191D02*
Y28956D01*
X1518161D01*
X1502926Y44191D02*
X1513083D01*
Y28956D01*
X1502926D01*
X1513083Y36574D02*
X1508005D01*
X1497848Y44191D02*
Y28956D01*
X1490230D01*
X1487691Y31495D01*
Y41652D01*
X1490230Y44191D01*
X1497848D01*
X1482613Y28956D02*
X1477534D01*
X1480074D01*
Y44191D01*
X1482613Y41652D01*
X1469917D02*
X1467378Y44191D01*
X1462299D01*
X1459760Y41652D01*
Y39113D01*
X1462299Y36574D01*
X1464839D01*
X1462299D01*
X1459760Y34034D01*
Y31495D01*
X1462299Y28956D01*
X1467378D01*
X1469917Y31495D01*
X1768602Y43429D02*
Y28194D01*
X1758445D01*
X1743210Y43429D02*
X1753367D01*
Y28194D01*
X1743210D01*
X1753367Y35812D02*
X1748289D01*
X1738132Y43429D02*
Y28194D01*
X1730514D01*
X1727975Y30733D01*
Y40890D01*
X1730514Y43429D01*
X1738132D01*
X1722897Y28194D02*
X1717818D01*
X1720358D01*
Y43429D01*
X1722897Y40890D01*
X1700044Y28194D02*
X1710201D01*
X1700044Y38351D01*
Y40890D01*
X1702583Y43429D01*
X1707662D01*
X1710201Y40890D01*
X431292Y-369321D02*
Y-384556D01*
X421135D01*
X405900Y-369321D02*
X416057D01*
Y-384556D01*
X405900D01*
X416057Y-376939D02*
X410979D01*
X400822Y-369321D02*
Y-384556D01*
X393204D01*
X390665Y-382017D01*
Y-371860D01*
X393204Y-369321D01*
X400822D01*
X385587Y-384556D02*
X380508D01*
X383048D01*
Y-369321D01*
X385587Y-371860D01*
X372891Y-384556D02*
X367812D01*
X370352D01*
Y-369321D01*
X372891Y-371860D01*
X500380Y-326649D02*
Y-341884D01*
X490223D01*
X474988Y-326649D02*
X485145D01*
Y-341884D01*
X474988D01*
X485145Y-334267D02*
X480067D01*
X469910Y-326649D02*
Y-341884D01*
X462292D01*
X459753Y-339345D01*
Y-329188D01*
X462292Y-326649D01*
X469910D01*
X454675Y-341884D02*
X449596D01*
X452136D01*
Y-326649D01*
X454675Y-329188D01*
X441979D02*
X439440Y-326649D01*
X434361D01*
X431822Y-329188D01*
Y-339345D01*
X434361Y-341884D01*
X439440D01*
X441979Y-339345D01*
Y-329188D01*
X663194Y-215905D02*
Y-231140D01*
X653037D01*
X637802Y-215905D02*
X647959D01*
Y-231140D01*
X637802D01*
X647959Y-223522D02*
X642881D01*
X632724Y-215905D02*
Y-231140D01*
X625106D01*
X622567Y-228601D01*
Y-218444D01*
X625106Y-215905D01*
X632724D01*
X617489Y-228601D02*
X614950Y-231140D01*
X609871D01*
X607332Y-228601D01*
Y-218444D01*
X609871Y-215905D01*
X614950D01*
X617489Y-218444D01*
Y-220983D01*
X614950Y-223522D01*
X607332D01*
X957834Y-97287D02*
Y-112522D01*
X947677D01*
X932442Y-97287D02*
X942599D01*
Y-112522D01*
X932442D01*
X942599Y-104904D02*
X937521D01*
X927364Y-97287D02*
Y-112522D01*
X919746D01*
X917207Y-109983D01*
Y-99826D01*
X919746Y-97287D01*
X927364D01*
X912129Y-99826D02*
X909590Y-97287D01*
X904511D01*
X901972Y-99826D01*
Y-102365D01*
X904511Y-104904D01*
X901972Y-107444D01*
Y-109983D01*
X904511Y-112522D01*
X909590D01*
X912129Y-109983D01*
Y-107444D01*
X909590Y-104904D01*
X912129Y-102365D01*
Y-99826D01*
X909590Y-104904D02*
X904511D01*
X1146810Y-103129D02*
Y-118364D01*
X1136653D01*
X1121418Y-103129D02*
X1131575D01*
Y-118364D01*
X1121418D01*
X1131575Y-110746D02*
X1126497D01*
X1116340Y-103129D02*
Y-118364D01*
X1108722D01*
X1106183Y-115825D01*
Y-105668D01*
X1108722Y-103129D01*
X1116340D01*
X1101105D02*
X1090948D01*
Y-105668D01*
X1101105Y-115825D01*
Y-118364D01*
X1339342Y-117353D02*
Y-132588D01*
X1329185D01*
X1313950Y-117353D02*
X1324107D01*
Y-132588D01*
X1313950D01*
X1324107Y-124971D02*
X1319029D01*
X1308872Y-117353D02*
Y-132588D01*
X1301254D01*
X1298715Y-130049D01*
Y-119892D01*
X1301254Y-117353D01*
X1308872D01*
X1283480D02*
X1288558Y-119892D01*
X1293637Y-124971D01*
Y-130049D01*
X1291098Y-132588D01*
X1286019D01*
X1283480Y-130049D01*
Y-127510D01*
X1286019Y-124971D01*
X1293637D01*
X1531366Y-140213D02*
Y-155448D01*
X1521209D01*
X1505974Y-140213D02*
X1516131D01*
Y-155448D01*
X1505974D01*
X1516131Y-147830D02*
X1511053D01*
X1500896Y-140213D02*
Y-155448D01*
X1493278D01*
X1490739Y-152909D01*
Y-142752D01*
X1493278Y-140213D01*
X1500896D01*
X1475504D02*
X1485661D01*
Y-147830D01*
X1480582Y-145291D01*
X1478043D01*
X1475504Y-147830D01*
Y-152909D01*
X1478043Y-155448D01*
X1483122D01*
X1485661Y-152909D01*
D16*
X1518091Y-195580D02*
G03*
X1518091Y-195580I-17205J0D01*
G01*
X1326067Y-172720D02*
G03*
X1326067Y-172720I-17205J0D01*
G01*
X1133535Y-158496D02*
G03*
X1133535Y-158496I-17205J0D01*
G01*
X944559Y-152654D02*
G03*
X944559Y-152654I-17205J0D01*
G01*
X654999Y-271272D02*
G03*
X654999Y-271272I-17205J0D01*
G01*
X487105Y-382016D02*
G03*
X487105Y-382016I-17205J0D01*
G01*
X415477Y-424688D02*
G03*
X415477Y-424688I-17205J0D01*
G01*
X1755327Y-11938D02*
G03*
X1755327Y-11938I-17205J0D01*
G01*
X1515043Y-11176D02*
G03*
X1515043Y-11176I-17205J0D01*
G01*
X1327845Y19050D02*
G03*
X1327845Y19050I-17205J0D01*
G01*
X1130995Y34798D02*
G03*
X1130995Y34798I-17205J0D01*
G01*
X949385Y20574D02*
G03*
X949385Y20574I-17205J0D01*
G01*
X752027Y7874D02*
G03*
X752027Y7874I-17205J0D01*
G01*
X562289Y55118D02*
G03*
X562289Y55118I-17205J0D01*
G01*
X342325Y-250190D02*
G03*
X342325Y-250190I-17205J0D01*
G01*
X1755835Y177546D02*
G03*
X1755835Y177546I-17205J0D01*
G01*
X1512503Y180086D02*
G03*
X1512503Y180086I-17205J0D01*
G01*
X1324797Y210566D02*
G03*
X1324797Y210566I-17205J0D01*
G01*
X1136583Y223774D02*
G03*
X1136583Y223774I-17205J0D01*
G01*
X942019Y210312D02*
G03*
X942019Y210312I-17205J0D01*
G01*
X752027Y198628D02*
G03*
X752027Y198628I-17205J0D01*
G01*
X364423Y-123444D02*
G03*
X364423Y-123444I-17205J0D01*
G01*
X250337Y-76861D02*
G03*
X250337Y-76861I-17205J0D01*
G01*
X1755581Y372364D02*
G03*
X1755581Y372364I-17205J0D01*
G01*
X1523171Y371094D02*
G03*
X1523171Y371094I-17205J0D01*
G01*
X1328099Y403352D02*
G03*
X1328099Y403352I-17205J0D01*
G01*
X1138869Y414020D02*
G03*
X1138869Y414020I-17205J0D01*
G01*
X947099Y400558D02*
G03*
X947099Y400558I-17205J0D01*
G01*
X755329Y388366D02*
G03*
X755329Y388366I-17205J0D01*
G01*
X567369Y339852D02*
G03*
X567369Y339852I-17205J0D01*
G01*
X1754819Y561086D02*
G03*
X1754819Y561086I-17205J0D01*
G01*
X1518853Y559308D02*
G03*
X1518853Y559308I-17205J0D01*
G01*
X1326575Y593852D02*
G03*
X1326575Y593852I-17205J0D01*
G01*
X1136075Y603758D02*
G03*
X1136075Y603758I-17205J0D01*
G01*
X942781Y595376D02*
G03*
X942781Y595376I-17205J0D01*
G01*
X755329Y578612D02*
G03*
X755329Y578612I-17205J0D01*
G01*
X562289Y582168D02*
G03*
X562289Y582168I-17205J0D01*
G01*
X1711131Y-195580D02*
G03*
X1711131Y-195580I-17205J0D01*
G01*
X152670Y712434D02*
Y745434D01*
X127170D02*
X152670D01*
X27670D02*
X53170D01*
X27670Y712434D02*
Y745434D01*
X152670Y611434D02*
Y644434D01*
X127170Y611434D02*
X152670D01*
X27670D02*
X53170D01*
X27670D02*
Y644434D01*
X1517886Y-163580D02*
X1525886Y-170580D01*
X1513886Y-167580D02*
X1517886Y-163580D01*
X1513886Y-167580D02*
X1516886Y-170580D01*
X1525886Y-179580D01*
X1475886Y-220580D02*
Y-170580D01*
X1516886D01*
X1525886D01*
Y-179580D02*
Y-170580D01*
Y-220580D02*
Y-179580D01*
X1475886Y-220580D02*
X1525886D01*
X1325862Y-140720D02*
X1333862Y-147720D01*
X1321862Y-144720D02*
X1325862Y-140720D01*
X1321862Y-144720D02*
X1324862Y-147720D01*
X1333862Y-156720D01*
X1283862Y-197720D02*
Y-147720D01*
X1324862D01*
X1333862D01*
Y-156720D02*
Y-147720D01*
Y-197720D02*
Y-156720D01*
X1283862Y-197720D02*
X1333862D01*
X1133330Y-126496D02*
X1141330Y-133496D01*
X1129330Y-130496D02*
X1133330Y-126496D01*
X1129330Y-130496D02*
X1132330Y-133496D01*
X1141330Y-142496D01*
X1091330Y-183496D02*
Y-133496D01*
X1132330D01*
X1141330D01*
Y-142496D02*
Y-133496D01*
Y-183496D02*
Y-142496D01*
X1091330Y-183496D02*
X1141330D01*
X944354Y-120654D02*
X952354Y-127654D01*
X940354Y-124654D02*
X944354Y-120654D01*
X940354Y-124654D02*
X943354Y-127654D01*
X952354Y-136654D01*
X902354Y-177654D02*
Y-127654D01*
X943354D01*
X952354D01*
Y-136654D02*
Y-127654D01*
Y-177654D02*
Y-136654D01*
X902354Y-177654D02*
X952354D01*
X654794Y-239272D02*
X662794Y-246272D01*
X650794Y-243272D02*
X654794Y-239272D01*
X650794Y-243272D02*
X653794Y-246272D01*
X662794Y-255272D01*
X612794Y-296272D02*
Y-246272D01*
X653794D01*
X662794D01*
Y-255272D02*
Y-246272D01*
Y-296272D02*
Y-255272D01*
X612794Y-296272D02*
X662794D01*
X486900Y-350016D02*
X494900Y-357016D01*
X482900Y-354016D02*
X486900Y-350016D01*
X482900Y-354016D02*
X485900Y-357016D01*
X494900Y-366016D01*
X444900Y-407016D02*
Y-357016D01*
X485900D01*
X494900D01*
Y-366016D02*
Y-357016D01*
Y-407016D02*
Y-366016D01*
X444900Y-407016D02*
X494900D01*
X415272Y-392688D02*
X423272Y-399688D01*
X411272Y-396688D02*
X415272Y-392688D01*
X411272Y-396688D02*
X414272Y-399688D01*
X423272Y-408688D01*
X373272Y-449688D02*
Y-399688D01*
X414272D01*
X423272D01*
Y-408688D02*
Y-399688D01*
Y-449688D02*
Y-408688D01*
X373272Y-449688D02*
X423272D01*
X1755122Y20062D02*
X1763122Y13062D01*
X1751122Y16062D02*
X1755122Y20062D01*
X1751122Y16062D02*
X1754122Y13062D01*
X1763122Y4062D01*
X1713122Y-36938D02*
Y13062D01*
X1754122D01*
X1763122D01*
Y4062D02*
Y13062D01*
Y-36938D02*
Y4062D01*
X1713122Y-36938D02*
X1763122D01*
X1514838Y20824D02*
X1522838Y13824D01*
X1510838Y16824D02*
X1514838Y20824D01*
X1510838Y16824D02*
X1513838Y13824D01*
X1522838Y4824D01*
X1472838Y-36176D02*
Y13824D01*
X1513838D01*
X1522838D01*
Y4824D02*
Y13824D01*
Y-36176D02*
Y4824D01*
X1472838Y-36176D02*
X1522838D01*
X1327640Y51050D02*
X1335640Y44050D01*
X1323640Y47050D02*
X1327640Y51050D01*
X1323640Y47050D02*
X1326640Y44050D01*
X1335640Y35050D01*
X1285640Y-5950D02*
Y44050D01*
X1326640D01*
X1335640D01*
Y35050D02*
Y44050D01*
Y-5950D02*
Y35050D01*
X1285640Y-5950D02*
X1335640D01*
X1130790Y66798D02*
X1138790Y59798D01*
X1126790Y62798D02*
X1130790Y66798D01*
X1126790Y62798D02*
X1129790Y59798D01*
X1138790Y50798D01*
X1088790Y9798D02*
Y59798D01*
X1129790D01*
X1138790D01*
Y50798D02*
Y59798D01*
Y9798D02*
Y50798D01*
X1088790Y9798D02*
X1138790D01*
X949180Y52574D02*
X957180Y45574D01*
X945180Y48574D02*
X949180Y52574D01*
X945180Y48574D02*
X948180Y45574D01*
X957180Y36574D01*
X907180Y-4426D02*
Y45574D01*
X948180D01*
X957180D01*
Y36574D02*
Y45574D01*
Y-4426D02*
Y36574D01*
X907180Y-4426D02*
X957180D01*
X751822Y39874D02*
X759822Y32874D01*
X747822Y35874D02*
X751822Y39874D01*
X747822Y35874D02*
X750822Y32874D01*
X759822Y23874D01*
X709822Y-17126D02*
Y32874D01*
X750822D01*
X759822D01*
Y23874D02*
Y32874D01*
Y-17126D02*
Y23874D01*
X709822Y-17126D02*
X759822D01*
X562084Y87118D02*
X570084Y80118D01*
X558084Y83118D02*
X562084Y87118D01*
X558084Y83118D02*
X561084Y80118D01*
X570084Y71118D01*
X520084Y30118D02*
Y80118D01*
X561084D01*
X570084D01*
Y71118D02*
Y80118D01*
Y30118D02*
Y71118D01*
X520084Y30118D02*
X570084D01*
X342120Y-218190D02*
X350120Y-225190D01*
X338120Y-222190D02*
X342120Y-218190D01*
X338120Y-222190D02*
X341120Y-225190D01*
X350120Y-234190D01*
X300120Y-275190D02*
Y-225190D01*
X341120D01*
X350120D01*
Y-234190D02*
Y-225190D01*
Y-275190D02*
Y-234190D01*
X300120Y-275190D02*
X350120D01*
X1755630Y209546D02*
X1763630Y202546D01*
X1751630Y205546D02*
X1755630Y209546D01*
X1751630Y205546D02*
X1754630Y202546D01*
X1763630Y193546D01*
X1713630Y152546D02*
Y202546D01*
X1754630D01*
X1763630D01*
Y193546D02*
Y202546D01*
Y152546D02*
Y193546D01*
X1713630Y152546D02*
X1763630D01*
X1512298Y212086D02*
X1520298Y205086D01*
X1508298Y208086D02*
X1512298Y212086D01*
X1508298Y208086D02*
X1511298Y205086D01*
X1520298Y196086D01*
X1470298Y155086D02*
Y205086D01*
X1511298D01*
X1520298D01*
Y196086D02*
Y205086D01*
Y155086D02*
Y196086D01*
X1470298Y155086D02*
X1520298D01*
X1324592Y242566D02*
X1332592Y235566D01*
X1320592Y238566D02*
X1324592Y242566D01*
X1320592Y238566D02*
X1323592Y235566D01*
X1332592Y226566D01*
X1282592Y185566D02*
Y235566D01*
X1323592D01*
X1332592D01*
Y226566D02*
Y235566D01*
Y185566D02*
Y226566D01*
X1282592Y185566D02*
X1332592D01*
X1136378Y255774D02*
X1144378Y248774D01*
X1132378Y251774D02*
X1136378Y255774D01*
X1132378Y251774D02*
X1135378Y248774D01*
X1144378Y239774D01*
X1094378Y198774D02*
Y248774D01*
X1135378D01*
X1144378D01*
Y239774D02*
Y248774D01*
Y198774D02*
Y239774D01*
X1094378Y198774D02*
X1144378D01*
X941814Y242312D02*
X949814Y235312D01*
X937814Y238312D02*
X941814Y242312D01*
X937814Y238312D02*
X940814Y235312D01*
X949814Y226312D01*
X899814Y185312D02*
Y235312D01*
X940814D01*
X949814D01*
Y226312D02*
Y235312D01*
Y185312D02*
Y226312D01*
X899814Y185312D02*
X949814D01*
X751822Y230628D02*
X759822Y223628D01*
X747822Y226628D02*
X751822Y230628D01*
X747822Y226628D02*
X750822Y223628D01*
X759822Y214628D01*
X709822Y173628D02*
Y223628D01*
X750822D01*
X759822D01*
Y214628D02*
Y223628D01*
Y173628D02*
Y214628D01*
X709822Y173628D02*
X759822D01*
X364218Y-91444D02*
X372218Y-98444D01*
X360218Y-95444D02*
X364218Y-91444D01*
X360218Y-95444D02*
X363218Y-98444D01*
X372218Y-107444D01*
X322218Y-148444D02*
Y-98444D01*
X363218D01*
X372218D01*
Y-107444D02*
Y-98444D01*
Y-148444D02*
Y-107444D01*
X322218Y-148444D02*
X372218D01*
X250132Y-44861D02*
X258132Y-51861D01*
X246132Y-48861D02*
X250132Y-44861D01*
X246132Y-48861D02*
X249132Y-51861D01*
X258132Y-60861D01*
X208132Y-101861D02*
Y-51861D01*
X249132D01*
X258132D01*
Y-60861D02*
Y-51861D01*
Y-101861D02*
Y-60861D01*
X208132Y-101861D02*
X258132D01*
X1755376Y404364D02*
X1763376Y397364D01*
X1751376Y400364D02*
X1755376Y404364D01*
X1751376Y400364D02*
X1754376Y397364D01*
X1763376Y388364D01*
X1713376Y347364D02*
Y397364D01*
X1754376D01*
X1763376D01*
Y388364D02*
Y397364D01*
Y347364D02*
Y388364D01*
X1713376Y347364D02*
X1763376D01*
X1522966Y403094D02*
X1530966Y396094D01*
X1518966Y399094D02*
X1522966Y403094D01*
X1518966Y399094D02*
X1521966Y396094D01*
X1530966Y387094D01*
X1480966Y346094D02*
Y396094D01*
X1521966D01*
X1530966D01*
Y387094D02*
Y396094D01*
Y346094D02*
Y387094D01*
X1480966Y346094D02*
X1530966D01*
X1327894Y435352D02*
X1335894Y428352D01*
X1323894Y431352D02*
X1327894Y435352D01*
X1323894Y431352D02*
X1326894Y428352D01*
X1335894Y419352D01*
X1285894Y378352D02*
Y428352D01*
X1326894D01*
X1335894D01*
Y419352D02*
Y428352D01*
Y378352D02*
Y419352D01*
X1285894Y378352D02*
X1335894D01*
X1138664Y446020D02*
X1146664Y439020D01*
X1134664Y442020D02*
X1138664Y446020D01*
X1134664Y442020D02*
X1137664Y439020D01*
X1146664Y430020D01*
X1096664Y389020D02*
Y439020D01*
X1137664D01*
X1146664D01*
Y430020D02*
Y439020D01*
Y389020D02*
Y430020D01*
X1096664Y389020D02*
X1146664D01*
X946894Y432558D02*
X954894Y425558D01*
X942894Y428558D02*
X946894Y432558D01*
X942894Y428558D02*
X945894Y425558D01*
X954894Y416558D01*
X904894Y375558D02*
Y425558D01*
X945894D01*
X954894D01*
Y416558D02*
Y425558D01*
Y375558D02*
Y416558D01*
X904894Y375558D02*
X954894D01*
X755124Y420366D02*
X763124Y413366D01*
X751124Y416366D02*
X755124Y420366D01*
X751124Y416366D02*
X754124Y413366D01*
X763124Y404366D01*
X713124Y363366D02*
Y413366D01*
X754124D01*
X763124D01*
Y404366D02*
Y413366D01*
Y363366D02*
Y404366D01*
X713124Y363366D02*
X763124D01*
X567164Y371852D02*
X575164Y364852D01*
X563164Y367852D02*
X567164Y371852D01*
X563164Y367852D02*
X566164Y364852D01*
X575164Y355852D01*
X525164Y314852D02*
Y364852D01*
X566164D01*
X575164D01*
Y355852D02*
Y364852D01*
Y314852D02*
Y355852D01*
X525164Y314852D02*
X575164D01*
X1712614Y536086D02*
X1720614Y529086D01*
X1724614Y533086D01*
X1721614Y536086D02*
X1724614Y533086D01*
X1712614Y545086D02*
X1721614Y536086D01*
X1762614D02*
Y586086D01*
X1721614Y536086D02*
X1762614D01*
X1712614D02*
X1721614D01*
X1712614D02*
Y545086D01*
Y586086D01*
X1762614D01*
X1518648Y591308D02*
X1526648Y584308D01*
X1514648Y587308D02*
X1518648Y591308D01*
X1514648Y587308D02*
X1517648Y584308D01*
X1526648Y575308D01*
X1476648Y534308D02*
Y584308D01*
X1517648D01*
X1526648D01*
Y575308D02*
Y584308D01*
Y534308D02*
Y575308D01*
X1476648Y534308D02*
X1526648D01*
X1326370Y625852D02*
X1334370Y618852D01*
X1322370Y621852D02*
X1326370Y625852D01*
X1322370Y621852D02*
X1325370Y618852D01*
X1334370Y609852D01*
X1284370Y568852D02*
Y618852D01*
X1325370D01*
X1334370D01*
Y609852D02*
Y618852D01*
Y568852D02*
Y609852D01*
X1284370Y568852D02*
X1334370D01*
X1135870Y635758D02*
X1143870Y628758D01*
X1131870Y631758D02*
X1135870Y635758D01*
X1131870Y631758D02*
X1134870Y628758D01*
X1143870Y619758D01*
X1093870Y578758D02*
Y628758D01*
X1134870D01*
X1143870D01*
Y619758D02*
Y628758D01*
Y578758D02*
Y619758D01*
X1093870Y578758D02*
X1143870D01*
X942576Y627376D02*
X950576Y620376D01*
X938576Y623376D02*
X942576Y627376D01*
X938576Y623376D02*
X941576Y620376D01*
X950576Y611376D01*
X900576Y570376D02*
Y620376D01*
X941576D01*
X950576D01*
Y611376D02*
Y620376D01*
Y570376D02*
Y611376D01*
X900576Y570376D02*
X950576D01*
X755124Y610612D02*
X763124Y603612D01*
X751124Y606612D02*
X755124Y610612D01*
X751124Y606612D02*
X754124Y603612D01*
X763124Y594612D01*
X713124Y553612D02*
Y603612D01*
X754124D01*
X763124D01*
Y594612D02*
Y603612D01*
Y553612D02*
Y594612D01*
X713124Y553612D02*
X763124D01*
X562084Y614168D02*
X570084Y607168D01*
X558084Y610168D02*
X562084Y614168D01*
X558084Y610168D02*
X561084Y607168D01*
X570084Y598168D01*
X520084Y557168D02*
Y607168D01*
X561084D01*
X570084D01*
Y598168D02*
Y607168D01*
Y557168D02*
Y598168D01*
X520084Y557168D02*
X570084D01*
X1710926Y-163580D02*
X1718926Y-170580D01*
X1706926Y-167580D02*
X1710926Y-163580D01*
X1706926Y-167580D02*
X1709926Y-170580D01*
X1718926Y-179580D01*
X1668926Y-220580D02*
Y-170580D01*
X1709926D01*
X1718926D01*
Y-179580D02*
Y-170580D01*
Y-220580D02*
Y-179580D01*
X1668926Y-220580D02*
X1718926D01*
X26162Y771144D02*
Y775207D01*
X24808Y773852D01*
X23454Y775207D01*
Y771144D01*
X22099Y775207D02*
X19391D01*
X20745D01*
Y771144D01*
X18037D02*
X16682D01*
X17359D01*
Y775207D01*
X18037Y774530D01*
M02*
