G04*
G04 #@! TF.GenerationSoftware,Altium Limited,Altium Designer,24.5.2 (23)*
G04*
G04 Layer_Physical_Order=3*
G04 Layer_Color=128*
%FSLAX44Y44*%
%MOMM*%
G71*
G04*
G04 #@! TF.SameCoordinates,960C30EB-BCCC-465A-99A9-4967EBCBCE3C*
G04*
G04*
G04 #@! TF.FilePolarity,Negative*
G04*
G01*
G75*
%ADD13C,0.1524*%
%ADD186C,1.0160*%
%ADD187C,4.0160*%
%ADD188C,1.8160*%
%ADD189C,2.0360*%
%ADD190C,1.6160*%
%ADD191C,1.9460*%
%ADD192C,2.5260*%
%ADD193C,2.1160*%
%ADD194C,1.3462*%
G36*
X443230Y911352D02*
X5334D01*
Y994918D01*
X443230D01*
Y911352D01*
D02*
G37*
G36*
X1124806Y715149D02*
X1128668Y713550D01*
X1132143Y711227D01*
X1135099Y708271D01*
X1137421Y704796D01*
X1139021Y700934D01*
X1139837Y696834D01*
Y694744D01*
Y692654D01*
X1139021Y688554D01*
X1137421Y684692D01*
X1135099Y681217D01*
X1132143Y678261D01*
X1128668Y675938D01*
X1124806Y674339D01*
X1120706Y673523D01*
X1116526D01*
X1112426Y674339D01*
X1108564Y675938D01*
X1105088Y678261D01*
X1102132Y681217D01*
X1099810Y684692D01*
X1098211Y688554D01*
X1097395Y692654D01*
Y694744D01*
Y696834D01*
X1098211Y700934D01*
X1099810Y704796D01*
X1102132Y708271D01*
X1105088Y711227D01*
X1108564Y713550D01*
X1112426Y715149D01*
X1116526Y715965D01*
X1120706D01*
X1124806Y715149D01*
D02*
G37*
G36*
X1315303Y699120D02*
X1319165Y697521D01*
X1322641Y695198D01*
X1325597Y692242D01*
X1327919Y688767D01*
X1329519Y684905D01*
X1330334Y680805D01*
Y678715D01*
Y676625D01*
X1329519Y672525D01*
X1327919Y668663D01*
X1325597Y665187D01*
X1322641Y662232D01*
X1319165Y659909D01*
X1315303Y658310D01*
X1311203Y657494D01*
X1307023D01*
X1302924Y658310D01*
X1299062Y659909D01*
X1295586Y662232D01*
X1292630Y665187D01*
X1290308Y668663D01*
X1288708Y672525D01*
X1287893Y676625D01*
Y678715D01*
Y680805D01*
X1288708Y684905D01*
X1290308Y688767D01*
X1292630Y692242D01*
X1295586Y695198D01*
X1299062Y697521D01*
X1302924Y699120D01*
X1307023Y699936D01*
X1311203D01*
X1315303Y699120D01*
D02*
G37*
G36*
X934306Y698893D02*
X938168Y697294D01*
X941644Y694971D01*
X944599Y692016D01*
X946922Y688540D01*
X948521Y684678D01*
X949337Y680578D01*
Y678488D01*
Y676398D01*
X948521Y672298D01*
X946922Y668436D01*
X944599Y664961D01*
X941644Y662005D01*
X938168Y659682D01*
X934306Y658083D01*
X930206Y657267D01*
X926026D01*
X921926Y658083D01*
X918064Y659682D01*
X914589Y662005D01*
X911633Y664961D01*
X909311Y668436D01*
X907711Y672298D01*
X906895Y676398D01*
Y678488D01*
Y680578D01*
X907711Y684678D01*
X909311Y688540D01*
X911633Y692016D01*
X914589Y694971D01*
X918064Y697294D01*
X921926Y698893D01*
X926026Y699709D01*
X930206D01*
X934306Y698893D01*
D02*
G37*
G36*
X553306Y687463D02*
X557168Y685863D01*
X560643Y683541D01*
X563599Y680585D01*
X565921Y677110D01*
X567521Y673248D01*
X568337Y669148D01*
Y667058D01*
Y664968D01*
X567521Y660868D01*
X565921Y657006D01*
X563599Y653530D01*
X560643Y650575D01*
X557168Y648252D01*
X553306Y646653D01*
X549206Y645837D01*
X545026D01*
X540926Y646653D01*
X537064Y648252D01*
X533588Y650575D01*
X530633Y653530D01*
X528310Y657006D01*
X526711Y660868D01*
X525895Y664968D01*
Y667058D01*
Y669148D01*
X526711Y673248D01*
X528310Y677110D01*
X530633Y680585D01*
X533588Y683541D01*
X537064Y685863D01*
X540926Y687463D01*
X545026Y688279D01*
X549206D01*
X553306Y687463D01*
D02*
G37*
G36*
X742002Y684659D02*
X745864Y683059D01*
X749340Y680737D01*
X752295Y677781D01*
X754618Y674305D01*
X756217Y670443D01*
X757033Y666344D01*
Y664254D01*
Y662164D01*
X756217Y658064D01*
X754618Y654202D01*
X752295Y650726D01*
X749340Y647770D01*
X745864Y645448D01*
X742002Y643848D01*
X737902Y643033D01*
X733722D01*
X729622Y643848D01*
X725760Y645448D01*
X722285Y647770D01*
X719329Y650726D01*
X717007Y654202D01*
X715407Y658064D01*
X714591Y662164D01*
Y664254D01*
Y666344D01*
X715407Y670443D01*
X717007Y674305D01*
X719329Y677781D01*
X722285Y680737D01*
X725760Y683059D01*
X729622Y684659D01*
X733722Y685474D01*
X737902D01*
X742002Y684659D01*
D02*
G37*
G36*
X1744058Y667143D02*
X1747920Y665543D01*
X1751396Y663221D01*
X1754351Y660265D01*
X1756674Y656790D01*
X1758273Y652928D01*
X1759089Y648828D01*
Y646738D01*
Y644648D01*
X1758273Y640548D01*
X1756674Y636686D01*
X1754351Y633210D01*
X1751396Y630255D01*
X1747920Y627932D01*
X1744058Y626333D01*
X1739958Y625517D01*
X1735778D01*
X1731678Y626333D01*
X1727816Y627932D01*
X1724341Y630255D01*
X1721385Y633210D01*
X1719062Y636686D01*
X1717463Y640548D01*
X1716647Y644648D01*
Y646738D01*
Y648828D01*
X1717463Y652928D01*
X1719062Y656790D01*
X1721385Y660265D01*
X1724341Y663221D01*
X1727816Y665543D01*
X1731678Y667143D01*
X1735778Y667959D01*
X1739958D01*
X1744058Y667143D01*
D02*
G37*
G36*
X1507076Y665873D02*
X1510938Y664274D01*
X1514414Y661951D01*
X1517369Y658996D01*
X1519692Y655520D01*
X1521291Y651658D01*
X1522107Y647558D01*
Y645468D01*
Y643378D01*
X1521291Y639278D01*
X1519692Y635416D01*
X1517369Y631941D01*
X1514414Y628985D01*
X1510938Y626662D01*
X1507076Y625063D01*
X1502976Y624247D01*
X1498796D01*
X1494696Y625063D01*
X1490834Y626662D01*
X1487359Y628985D01*
X1484403Y631941D01*
X1482081Y635416D01*
X1480481Y639278D01*
X1479665Y643378D01*
Y645468D01*
Y647558D01*
X1480481Y651658D01*
X1482081Y655520D01*
X1484403Y658996D01*
X1487359Y661951D01*
X1490834Y664274D01*
X1494696Y665873D01*
X1498796Y666689D01*
X1502976D01*
X1507076Y665873D01*
D02*
G37*
G36*
X1125822Y524395D02*
X1129684Y522795D01*
X1133159Y520473D01*
X1136115Y517517D01*
X1138437Y514042D01*
X1140037Y510180D01*
X1140853Y506080D01*
Y503990D01*
Y501900D01*
X1140037Y497800D01*
X1138437Y493938D01*
X1136115Y490462D01*
X1133159Y487507D01*
X1129684Y485184D01*
X1125822Y483585D01*
X1121722Y482769D01*
X1117542D01*
X1113442Y483585D01*
X1109580Y485184D01*
X1106104Y487507D01*
X1103148Y490462D01*
X1100826Y493938D01*
X1099227Y497800D01*
X1098411Y501900D01*
Y503990D01*
Y506080D01*
X1099227Y510180D01*
X1100826Y514042D01*
X1103148Y517517D01*
X1106104Y520473D01*
X1109580Y522795D01*
X1113442Y524395D01*
X1117542Y525211D01*
X1121722D01*
X1125822Y524395D01*
D02*
G37*
G36*
X1315560Y509155D02*
X1319422Y507556D01*
X1322897Y505233D01*
X1325853Y502278D01*
X1328176Y498802D01*
X1329775Y494940D01*
X1330591Y490840D01*
Y488750D01*
Y486660D01*
X1329775Y482560D01*
X1328176Y478698D01*
X1325853Y475223D01*
X1322897Y472267D01*
X1319422Y469944D01*
X1315560Y468345D01*
X1311460Y467529D01*
X1307280D01*
X1303180Y468345D01*
X1299318Y469944D01*
X1295842Y472267D01*
X1292887Y475223D01*
X1290564Y478698D01*
X1288965Y482560D01*
X1288149Y486660D01*
Y488750D01*
Y490840D01*
X1288965Y494940D01*
X1290564Y498802D01*
X1292887Y502278D01*
X1295842Y505233D01*
X1299318Y507556D01*
X1303180Y509155D01*
X1307280Y509971D01*
X1311460D01*
X1315560Y509155D01*
D02*
G37*
G36*
X934300Y508619D02*
X938162Y507019D01*
X941638Y504697D01*
X944594Y501741D01*
X946916Y498265D01*
X948516Y494403D01*
X949331Y490303D01*
Y488213D01*
Y486123D01*
X948516Y482023D01*
X946916Y478161D01*
X944594Y474686D01*
X941638Y471730D01*
X938162Y469408D01*
X934300Y467808D01*
X930201Y466992D01*
X926020D01*
X921921Y467808D01*
X918059Y469408D01*
X914583Y471730D01*
X911627Y474686D01*
X909305Y478161D01*
X907705Y482023D01*
X906890Y486123D01*
Y488213D01*
Y490303D01*
X907705Y494403D01*
X909305Y498265D01*
X911627Y501741D01*
X914583Y504697D01*
X918059Y507019D01*
X921921Y508619D01*
X926020Y509434D01*
X930201D01*
X934300Y508619D01*
D02*
G37*
G36*
X743799Y495919D02*
X747661Y494319D01*
X751137Y491996D01*
X754093Y489041D01*
X756415Y485565D01*
X758015Y481703D01*
X758830Y477603D01*
Y475513D01*
Y473423D01*
X758015Y469323D01*
X756415Y465461D01*
X754093Y461986D01*
X751137Y459030D01*
X747661Y456708D01*
X743799Y455108D01*
X739699Y454292D01*
X735519D01*
X731420Y455108D01*
X727558Y456708D01*
X724082Y459030D01*
X721126Y461986D01*
X718804Y465461D01*
X717204Y469323D01*
X716389Y473423D01*
Y475513D01*
Y477603D01*
X717204Y481703D01*
X718804Y485565D01*
X721126Y489041D01*
X724082Y491996D01*
X727558Y494319D01*
X731420Y495919D01*
X735519Y496734D01*
X739699D01*
X743799Y495919D01*
D02*
G37*
G36*
X1743296Y476135D02*
X1747158Y474536D01*
X1750634Y472213D01*
X1753589Y469258D01*
X1755912Y465782D01*
X1757511Y461920D01*
X1758327Y457820D01*
Y455730D01*
Y453640D01*
X1757511Y449540D01*
X1755912Y445678D01*
X1753589Y442203D01*
X1750634Y439247D01*
X1747158Y436925D01*
X1743296Y435325D01*
X1739196Y434509D01*
X1735016D01*
X1730916Y435325D01*
X1727054Y436925D01*
X1723579Y439247D01*
X1720623Y442203D01*
X1718301Y445678D01*
X1716701Y449540D01*
X1715885Y453640D01*
Y455730D01*
Y457820D01*
X1716701Y461920D01*
X1718301Y465782D01*
X1720623Y469258D01*
X1723579Y472213D01*
X1727054Y474536D01*
X1730916Y476135D01*
X1735016Y476951D01*
X1739196D01*
X1743296Y476135D01*
D02*
G37*
G36*
X1505298D02*
X1509160Y474536D01*
X1512636Y472213D01*
X1515591Y469258D01*
X1517914Y465782D01*
X1519513Y461920D01*
X1520329Y457820D01*
Y455730D01*
Y453640D01*
X1519513Y449540D01*
X1517914Y445678D01*
X1515591Y442203D01*
X1512636Y439247D01*
X1509160Y436925D01*
X1505298Y435325D01*
X1501198Y434509D01*
X1497018D01*
X1492918Y435325D01*
X1489056Y436925D01*
X1485581Y439247D01*
X1482625Y442203D01*
X1480302Y445678D01*
X1478703Y449540D01*
X1477887Y453640D01*
Y455730D01*
Y457820D01*
X1478703Y461920D01*
X1480302Y465782D01*
X1482625Y469258D01*
X1485581Y472213D01*
X1489056Y474536D01*
X1492918Y476135D01*
X1497018Y476951D01*
X1501198D01*
X1505298Y476135D01*
D02*
G37*
G36*
X553052Y448195D02*
X556914Y446596D01*
X560389Y444273D01*
X563345Y441317D01*
X565667Y437842D01*
X567267Y433980D01*
X568083Y429880D01*
Y427790D01*
Y425700D01*
X567267Y421600D01*
X565667Y417738D01*
X563345Y414263D01*
X560389Y411307D01*
X556914Y408984D01*
X553052Y407385D01*
X548952Y406569D01*
X544772D01*
X540672Y407385D01*
X536810Y408984D01*
X533334Y411307D01*
X530378Y414263D01*
X528056Y417738D01*
X526456Y421600D01*
X525641Y425700D01*
Y427790D01*
Y429880D01*
X526456Y433980D01*
X528056Y437842D01*
X530378Y441317D01*
X533334Y444273D01*
X536810Y446596D01*
X540672Y448195D01*
X544772Y449011D01*
X548952D01*
X553052Y448195D01*
D02*
G37*
G36*
X1222998Y415629D02*
X1226445Y414705D01*
X1229741Y413340D01*
X1232831Y411556D01*
X1235662Y409384D01*
X1238186Y406860D01*
X1240358Y404029D01*
X1242142Y400939D01*
X1243507Y397643D01*
X1244431Y394196D01*
X1244897Y390658D01*
Y388874D01*
Y387090D01*
X1244431Y383552D01*
X1243507Y380105D01*
X1242142Y376809D01*
X1240358Y373718D01*
X1238186Y370888D01*
X1235662Y368364D01*
X1232831Y366192D01*
X1229741Y364408D01*
X1226445Y363043D01*
X1222998Y362119D01*
X1219460Y361653D01*
X1215892D01*
X1212354Y362119D01*
X1208907Y363043D01*
X1205611Y364408D01*
X1202521Y366192D01*
X1199690Y368364D01*
X1197167Y370888D01*
X1194994Y373718D01*
X1193210Y376809D01*
X1191845Y380105D01*
X1190921Y383552D01*
X1190455Y387090D01*
Y388874D01*
Y390658D01*
X1190921Y394196D01*
X1191845Y397643D01*
X1193210Y400939D01*
X1194994Y404029D01*
X1197167Y406860D01*
X1199690Y409384D01*
X1202521Y411556D01*
X1205611Y413340D01*
X1208907Y414705D01*
X1212354Y415629D01*
X1215892Y416095D01*
X1219460D01*
X1222998Y415629D01*
D02*
G37*
G36*
X1123005Y332358D02*
X1126867Y330759D01*
X1130342Y328436D01*
X1133298Y325480D01*
X1135620Y322005D01*
X1137220Y318143D01*
X1138036Y314043D01*
Y311953D01*
Y309863D01*
X1137220Y305763D01*
X1135620Y301901D01*
X1133298Y298426D01*
X1130342Y295470D01*
X1126867Y293147D01*
X1123005Y291548D01*
X1118905Y290732D01*
X1114725D01*
X1110625Y291548D01*
X1106763Y293147D01*
X1103288Y295470D01*
X1100332Y298426D01*
X1098009Y301901D01*
X1096410Y305763D01*
X1095594Y309863D01*
Y311953D01*
Y314043D01*
X1096410Y318143D01*
X1098009Y322005D01*
X1100332Y325480D01*
X1103288Y328436D01*
X1106763Y330759D01*
X1110625Y332358D01*
X1114725Y333174D01*
X1118905D01*
X1123005Y332358D01*
D02*
G37*
G36*
X1313506Y316382D02*
X1317368Y314782D01*
X1320844Y312460D01*
X1323800Y309504D01*
X1326122Y306028D01*
X1327722Y302167D01*
X1328537Y298067D01*
Y295977D01*
Y293887D01*
X1327722Y289787D01*
X1326122Y285925D01*
X1323800Y282449D01*
X1320844Y279493D01*
X1317368Y277171D01*
X1313506Y275571D01*
X1309407Y274756D01*
X1305226D01*
X1301127Y275571D01*
X1297265Y277171D01*
X1293789Y279493D01*
X1290833Y282449D01*
X1288511Y285925D01*
X1286911Y289787D01*
X1286096Y293887D01*
Y295977D01*
Y298067D01*
X1286911Y302167D01*
X1288511Y306028D01*
X1290833Y309504D01*
X1293789Y312460D01*
X1297265Y314782D01*
X1301127Y316382D01*
X1305226Y317197D01*
X1309407D01*
X1313506Y316382D01*
D02*
G37*
G36*
X932504D02*
X936366Y314782D01*
X939841Y312460D01*
X942797Y309504D01*
X945119Y306028D01*
X946719Y302167D01*
X947534Y298067D01*
Y295977D01*
Y293887D01*
X946719Y289787D01*
X945119Y285925D01*
X942797Y282449D01*
X939841Y279493D01*
X936366Y277171D01*
X932504Y275571D01*
X928404Y274756D01*
X924224D01*
X920124Y275571D01*
X916262Y277171D01*
X912786Y279493D01*
X909830Y282449D01*
X907508Y285925D01*
X905908Y289787D01*
X905093Y293887D01*
Y295977D01*
Y298067D01*
X905908Y302167D01*
X907508Y306028D01*
X909830Y309504D01*
X912786Y312460D01*
X916262Y314782D01*
X920124Y316382D01*
X924224Y317197D01*
X928404D01*
X932504Y316382D01*
D02*
G37*
G36*
X742790Y305193D02*
X746652Y303594D01*
X750127Y301271D01*
X753083Y298315D01*
X755406Y294840D01*
X757005Y290978D01*
X757821Y286878D01*
Y284788D01*
Y282698D01*
X757005Y278598D01*
X755406Y274736D01*
X753083Y271261D01*
X750127Y268305D01*
X746652Y265982D01*
X742790Y264383D01*
X738690Y263567D01*
X734510D01*
X730410Y264383D01*
X726548Y265982D01*
X723073Y268305D01*
X720117Y271261D01*
X717794Y274736D01*
X716195Y278598D01*
X715379Y282698D01*
Y284788D01*
Y286878D01*
X716195Y290978D01*
X717794Y294840D01*
X720117Y298315D01*
X723073Y301271D01*
X726548Y303594D01*
X730410Y305193D01*
X734510Y306009D01*
X738690D01*
X742790Y305193D01*
D02*
G37*
G36*
X1742134Y284632D02*
X1745996Y283032D01*
X1749472Y280709D01*
X1752428Y277754D01*
X1754750Y274278D01*
X1756350Y270416D01*
X1757165Y266316D01*
Y264226D01*
Y262136D01*
X1756350Y258036D01*
X1754750Y254174D01*
X1752428Y250699D01*
X1749472Y247743D01*
X1745996Y245421D01*
X1742134Y243821D01*
X1738035Y243006D01*
X1733854D01*
X1729754Y243821D01*
X1725893Y245421D01*
X1722417Y247743D01*
X1719461Y250699D01*
X1717139Y254174D01*
X1715539Y258036D01*
X1714724Y262136D01*
Y264226D01*
Y266316D01*
X1715539Y270416D01*
X1717139Y274278D01*
X1719461Y277754D01*
X1722417Y280709D01*
X1725893Y283032D01*
X1729754Y284632D01*
X1733854Y285447D01*
X1738035D01*
X1742134Y284632D01*
D02*
G37*
G36*
X1504008D02*
X1507870Y283032D01*
X1511345Y280709D01*
X1514301Y277754D01*
X1516623Y274278D01*
X1518223Y270416D01*
X1519039Y266316D01*
Y264226D01*
Y262136D01*
X1518223Y258036D01*
X1516623Y254174D01*
X1514301Y250699D01*
X1511345Y247743D01*
X1507870Y245421D01*
X1504008Y243821D01*
X1499908Y243006D01*
X1495728D01*
X1491628Y243821D01*
X1487766Y245421D01*
X1484290Y247743D01*
X1481335Y250699D01*
X1479012Y254174D01*
X1477413Y258036D01*
X1476597Y262136D01*
Y264226D01*
Y266316D01*
X1477413Y270416D01*
X1479012Y274278D01*
X1481335Y277754D01*
X1484290Y280709D01*
X1487766Y283032D01*
X1491628Y284632D01*
X1495728Y285447D01*
X1499908D01*
X1504008Y284632D01*
D02*
G37*
G36*
X553306Y161937D02*
X557168Y160338D01*
X560644Y158015D01*
X563599Y155059D01*
X565922Y151584D01*
X567521Y147722D01*
X568337Y143622D01*
Y141532D01*
Y139442D01*
X567521Y135342D01*
X565922Y131480D01*
X563599Y128005D01*
X560644Y125049D01*
X557168Y122726D01*
X553306Y121127D01*
X549206Y120311D01*
X545026D01*
X540926Y121127D01*
X537064Y122726D01*
X533588Y125049D01*
X530633Y128005D01*
X528310Y131480D01*
X526711Y135342D01*
X525895Y139442D01*
Y141532D01*
Y143622D01*
X526711Y147722D01*
X528310Y151584D01*
X530633Y155059D01*
X533588Y158015D01*
X537064Y160338D01*
X540926Y161937D01*
X545026Y162753D01*
X549206D01*
X553306Y161937D01*
D02*
G37*
G36*
X1124298Y142126D02*
X1128160Y140526D01*
X1131635Y138203D01*
X1134591Y135248D01*
X1136913Y131772D01*
X1138513Y127910D01*
X1139329Y123810D01*
Y121720D01*
Y119630D01*
X1138513Y115530D01*
X1136913Y111668D01*
X1134591Y108193D01*
X1131635Y105237D01*
X1128160Y102915D01*
X1124298Y101315D01*
X1120198Y100499D01*
X1116018D01*
X1111918Y101315D01*
X1108056Y102915D01*
X1104580Y105237D01*
X1101625Y108193D01*
X1099302Y111668D01*
X1097703Y115530D01*
X1096887Y119630D01*
Y121720D01*
Y123810D01*
X1097703Y127910D01*
X1099302Y131772D01*
X1101625Y135248D01*
X1104580Y138203D01*
X1108056Y140526D01*
X1111918Y142126D01*
X1116018Y142941D01*
X1120198D01*
X1124298Y142126D01*
D02*
G37*
G36*
X1315303Y127616D02*
X1319165Y126017D01*
X1322641Y123694D01*
X1325597Y120738D01*
X1327919Y117263D01*
X1329519Y113401D01*
X1330334Y109301D01*
Y107211D01*
Y105121D01*
X1329519Y101021D01*
X1327919Y97159D01*
X1325597Y93683D01*
X1322641Y90728D01*
X1319165Y88405D01*
X1315303Y86806D01*
X1311203Y85990D01*
X1307023D01*
X1302924Y86806D01*
X1299062Y88405D01*
X1295586Y90728D01*
X1292630Y93683D01*
X1290308Y97159D01*
X1288708Y101021D01*
X1287893Y105121D01*
Y107211D01*
Y109301D01*
X1288708Y113401D01*
X1290308Y117263D01*
X1292630Y120738D01*
X1295586Y123694D01*
X1299062Y126017D01*
X1302924Y127616D01*
X1307023Y128432D01*
X1311203D01*
X1315303Y127616D01*
D02*
G37*
G36*
X934300D02*
X938162Y126017D01*
X941638Y123694D01*
X944594Y120738D01*
X946916Y117263D01*
X948516Y113401D01*
X949331Y109301D01*
Y107211D01*
Y105121D01*
X948516Y101021D01*
X946916Y97159D01*
X944594Y93683D01*
X941638Y90728D01*
X938162Y88405D01*
X934300Y86806D01*
X930201Y85990D01*
X926020D01*
X921920Y86806D01*
X918059Y88405D01*
X914583Y90728D01*
X911627Y93683D01*
X909305Y97159D01*
X907705Y101021D01*
X906890Y105121D01*
Y107211D01*
Y109301D01*
X907705Y113401D01*
X909305Y117263D01*
X911627Y120738D01*
X914583Y123694D01*
X918059Y126017D01*
X921920Y127616D01*
X926020Y128432D01*
X930201D01*
X934300Y127616D01*
D02*
G37*
G36*
X744568Y115201D02*
X748430Y113602D01*
X751906Y111279D01*
X754861Y108323D01*
X757184Y104848D01*
X758783Y100986D01*
X759599Y96886D01*
Y94796D01*
Y92706D01*
X758783Y88606D01*
X757184Y84744D01*
X754861Y81269D01*
X751906Y78313D01*
X748430Y75990D01*
X744568Y74391D01*
X740468Y73575D01*
X736288D01*
X732188Y74391D01*
X728326Y75990D01*
X724850Y78313D01*
X721895Y81269D01*
X719572Y84744D01*
X717973Y88606D01*
X717157Y92706D01*
Y94796D01*
Y96886D01*
X717973Y100986D01*
X719572Y104848D01*
X721895Y108323D01*
X724850Y111279D01*
X728326Y113602D01*
X732188Y115201D01*
X736288Y116017D01*
X740468D01*
X744568Y115201D01*
D02*
G37*
G36*
X1742134Y94130D02*
X1745996Y92530D01*
X1749472Y90208D01*
X1752428Y87252D01*
X1754750Y83777D01*
X1756349Y79915D01*
X1757165Y75815D01*
Y73725D01*
Y71635D01*
X1756349Y67535D01*
X1754750Y63673D01*
X1752428Y60197D01*
X1749472Y57242D01*
X1745996Y54919D01*
X1742134Y53320D01*
X1738034Y52504D01*
X1733854D01*
X1729754Y53320D01*
X1725892Y54919D01*
X1722417Y57242D01*
X1719461Y60197D01*
X1717139Y63673D01*
X1715539Y67535D01*
X1714723Y71635D01*
Y73725D01*
Y75815D01*
X1715539Y79915D01*
X1717139Y83777D01*
X1719461Y87252D01*
X1722417Y90208D01*
X1725892Y92530D01*
X1729754Y94130D01*
X1733854Y94946D01*
X1738034D01*
X1742134Y94130D01*
D02*
G37*
G36*
X1504008D02*
X1507870Y92530D01*
X1511345Y90208D01*
X1514301Y87252D01*
X1516623Y83777D01*
X1518223Y79915D01*
X1519039Y75815D01*
Y73725D01*
Y71635D01*
X1518223Y67535D01*
X1516623Y63673D01*
X1514301Y60197D01*
X1511345Y57242D01*
X1507870Y54919D01*
X1504008Y53320D01*
X1499908Y52504D01*
X1495728D01*
X1491628Y53320D01*
X1487766Y54919D01*
X1484290Y57242D01*
X1481335Y60197D01*
X1479012Y63673D01*
X1477413Y67535D01*
X1476597Y71635D01*
Y73725D01*
Y75815D01*
X1477413Y79915D01*
X1479012Y83777D01*
X1481335Y87252D01*
X1484290Y90208D01*
X1487766Y92530D01*
X1491628Y94130D01*
X1495728Y94946D01*
X1499908D01*
X1504008Y94130D01*
D02*
G37*
G36*
X348836Y-14593D02*
X352698Y-16192D01*
X356174Y-18515D01*
X359129Y-21470D01*
X361452Y-24946D01*
X363051Y-28808D01*
X363867Y-32908D01*
Y-34998D01*
Y-37088D01*
X363051Y-41188D01*
X361452Y-45050D01*
X359129Y-48525D01*
X356174Y-51481D01*
X352698Y-53804D01*
X348836Y-55403D01*
X344736Y-56219D01*
X340556D01*
X336456Y-55403D01*
X332594Y-53804D01*
X329119Y-51481D01*
X326163Y-48525D01*
X323841Y-45050D01*
X322241Y-41188D01*
X321425Y-37088D01*
Y-34998D01*
Y-32908D01*
X322241Y-28808D01*
X323841Y-24946D01*
X326163Y-21470D01*
X329119Y-18515D01*
X332594Y-16192D01*
X336456Y-14593D01*
X340556Y-13777D01*
X344736D01*
X348836Y-14593D01*
D02*
G37*
G36*
X1123536Y-47867D02*
X1127398Y-49467D01*
X1130873Y-51789D01*
X1133829Y-54745D01*
X1136151Y-58220D01*
X1137751Y-62082D01*
X1138567Y-66182D01*
Y-68272D01*
Y-70362D01*
X1137751Y-74462D01*
X1136151Y-78324D01*
X1133829Y-81800D01*
X1130873Y-84755D01*
X1127398Y-87078D01*
X1123536Y-88677D01*
X1119436Y-89493D01*
X1115256D01*
X1111156Y-88677D01*
X1107294Y-87078D01*
X1103818Y-84755D01*
X1100863Y-81800D01*
X1098540Y-78324D01*
X1096941Y-74462D01*
X1096125Y-70362D01*
Y-68272D01*
Y-66182D01*
X1096941Y-62082D01*
X1098540Y-58220D01*
X1100863Y-54745D01*
X1103818Y-51789D01*
X1107294Y-49467D01*
X1111156Y-47867D01*
X1115256Y-47051D01*
X1119436D01*
X1123536Y-47867D01*
D02*
G37*
G36*
X1314290Y-63868D02*
X1318152Y-65468D01*
X1321628Y-67790D01*
X1324583Y-70746D01*
X1326906Y-74222D01*
X1328505Y-78084D01*
X1329321Y-82184D01*
Y-84274D01*
Y-86364D01*
X1328505Y-90464D01*
X1326906Y-94326D01*
X1324583Y-97801D01*
X1321628Y-100757D01*
X1318152Y-103079D01*
X1314290Y-104679D01*
X1310190Y-105495D01*
X1306010D01*
X1301910Y-104679D01*
X1298048Y-103079D01*
X1294573Y-100757D01*
X1291617Y-97801D01*
X1289294Y-94326D01*
X1287695Y-90464D01*
X1286879Y-86364D01*
Y-84274D01*
Y-82184D01*
X1287695Y-78084D01*
X1289294Y-74222D01*
X1291617Y-70746D01*
X1294573Y-67790D01*
X1298048Y-65468D01*
X1301910Y-63868D01*
X1306010Y-63053D01*
X1310190D01*
X1314290Y-63868D01*
D02*
G37*
G36*
X932504Y-64621D02*
X936366Y-66221D01*
X939841Y-68543D01*
X942797Y-71499D01*
X945119Y-74974D01*
X946719Y-78836D01*
X947534Y-82936D01*
Y-85026D01*
Y-87116D01*
X946719Y-91216D01*
X945119Y-95078D01*
X942797Y-98554D01*
X939841Y-101510D01*
X936366Y-103832D01*
X932504Y-105431D01*
X928404Y-106247D01*
X924224D01*
X920124Y-105431D01*
X916262Y-103832D01*
X912786Y-101510D01*
X909830Y-98554D01*
X907508Y-95078D01*
X905908Y-91216D01*
X905093Y-87116D01*
Y-85026D01*
Y-82936D01*
X905908Y-78836D01*
X907508Y-74974D01*
X909830Y-71499D01*
X912786Y-68543D01*
X916262Y-66221D01*
X920124Y-64621D01*
X924224Y-63805D01*
X928404D01*
X932504Y-64621D01*
D02*
G37*
G36*
X173506Y-95040D02*
X177544Y-96122D01*
X181292Y-97970D01*
X184609Y-100515D01*
X187365Y-103658D01*
X188410Y-105468D01*
X189455Y-107278D01*
X190799Y-111236D01*
X191344Y-115381D01*
X191071Y-119552D01*
X189989Y-123589D01*
X188140Y-127339D01*
X185595Y-130655D01*
X182453Y-133411D01*
X180643Y-134456D01*
X178833Y-135501D01*
X174874Y-136845D01*
X170730Y-137390D01*
X166559Y-137117D01*
X162521Y-136035D01*
X158772Y-134186D01*
X155456Y-131642D01*
X152700Y-128499D01*
X151655Y-126689D01*
X150610Y-124879D01*
X149266Y-120920D01*
X148720Y-116776D01*
X148994Y-112605D01*
X150076Y-108567D01*
X151924Y-104818D01*
X154469Y-101502D01*
X157612Y-98746D01*
X159422Y-97701D01*
X161232Y-96656D01*
X165190Y-95312D01*
X169335Y-94766D01*
X173506Y-95040D01*
D02*
G37*
G36*
X1694509Y-96371D02*
X1698371Y-97971D01*
X1701846Y-100293D01*
X1704802Y-103249D01*
X1707125Y-106725D01*
X1708724Y-110587D01*
X1709540Y-114686D01*
Y-116777D01*
Y-118867D01*
X1708724Y-122966D01*
X1707125Y-126828D01*
X1704802Y-130304D01*
X1701846Y-133260D01*
X1698371Y-135582D01*
X1694509Y-137182D01*
X1690409Y-137997D01*
X1686229D01*
X1682129Y-137182D01*
X1678267Y-135582D01*
X1674792Y-133260D01*
X1671836Y-130304D01*
X1669513Y-126828D01*
X1667914Y-122966D01*
X1667098Y-118867D01*
Y-116777D01*
Y-114686D01*
X1667914Y-110587D01*
X1669513Y-106725D01*
X1671836Y-103249D01*
X1674792Y-100293D01*
X1678267Y-97971D01*
X1682129Y-96371D01*
X1686229Y-95556D01*
X1690409D01*
X1694509Y-96371D01*
D02*
G37*
G36*
X1504008D02*
X1507870Y-97971D01*
X1511345Y-100293D01*
X1514301Y-103249D01*
X1516623Y-106725D01*
X1518223Y-110587D01*
X1519039Y-114686D01*
Y-116777D01*
Y-118867D01*
X1518223Y-122966D01*
X1516623Y-126828D01*
X1514301Y-130304D01*
X1511345Y-133260D01*
X1507870Y-135582D01*
X1504008Y-137182D01*
X1499908Y-137997D01*
X1495728D01*
X1491628Y-137182D01*
X1487766Y-135582D01*
X1484290Y-133260D01*
X1481335Y-130304D01*
X1479012Y-126828D01*
X1477413Y-122966D01*
X1476597Y-118867D01*
Y-116777D01*
Y-114686D01*
X1477413Y-110587D01*
X1479012Y-106725D01*
X1481335Y-103249D01*
X1484290Y-100293D01*
X1487766Y-97971D01*
X1491628Y-96371D01*
X1495728Y-95556D01*
X1499908D01*
X1504008Y-96371D01*
D02*
G37*
G36*
X642460Y-193917D02*
X646322Y-195516D01*
X649798Y-197839D01*
X652753Y-200795D01*
X655076Y-204270D01*
X656675Y-208132D01*
X657491Y-212232D01*
Y-214322D01*
Y-216412D01*
X656675Y-220512D01*
X655076Y-224374D01*
X652753Y-227850D01*
X649798Y-230805D01*
X646322Y-233128D01*
X642460Y-234727D01*
X638360Y-235543D01*
X634180D01*
X630080Y-234727D01*
X626218Y-233128D01*
X622743Y-230805D01*
X619787Y-227850D01*
X617464Y-224374D01*
X615865Y-220512D01*
X615049Y-216412D01*
Y-214322D01*
Y-212232D01*
X615865Y-208132D01*
X617464Y-204270D01*
X619787Y-200795D01*
X622743Y-197839D01*
X626218Y-195516D01*
X630080Y-193917D01*
X634180Y-193101D01*
X638360D01*
X642460Y-193917D01*
D02*
G37*
G36*
X255294Y-267506D02*
X259331Y-268588D01*
X263081Y-270436D01*
X266397Y-272981D01*
X269153Y-276124D01*
X270198Y-277934D01*
X271243Y-279744D01*
X272587Y-283702D01*
X273132Y-287847D01*
X272859Y-292018D01*
X271777Y-296056D01*
X269928Y-299805D01*
X267383Y-303121D01*
X264241Y-305877D01*
X262431Y-306922D01*
X260621Y-307967D01*
X256662Y-309311D01*
X252518Y-309856D01*
X248347Y-309583D01*
X244309Y-308501D01*
X240560Y-306652D01*
X237244Y-304108D01*
X234488Y-300965D01*
X233442Y-299155D01*
X232397Y-297345D01*
X231054Y-293386D01*
X230508Y-289242D01*
X230782Y-285071D01*
X231863Y-281033D01*
X233712Y-277284D01*
X236257Y-273968D01*
X239400Y-271212D01*
X241210Y-270167D01*
X243020Y-269122D01*
X246978Y-267778D01*
X251123Y-267232D01*
X255294Y-267506D01*
D02*
G37*
G36*
X469963Y-273691D02*
X473825Y-275290D01*
X477301Y-277613D01*
X480257Y-280569D01*
X482579Y-284044D01*
X484179Y-287906D01*
X484994Y-292006D01*
Y-294096D01*
Y-296186D01*
X484179Y-300286D01*
X482579Y-304148D01*
X480257Y-307624D01*
X477301Y-310579D01*
X473825Y-312902D01*
X469963Y-314501D01*
X465863Y-315317D01*
X461683D01*
X457584Y-314501D01*
X453722Y-312902D01*
X450246Y-310579D01*
X447290Y-307624D01*
X444968Y-304148D01*
X443368Y-300286D01*
X442553Y-296186D01*
Y-294096D01*
Y-292006D01*
X443368Y-287906D01*
X444968Y-284044D01*
X447290Y-280569D01*
X450246Y-277613D01*
X453722Y-275290D01*
X457584Y-273691D01*
X461683Y-272875D01*
X465863D01*
X469963Y-273691D01*
D02*
G37*
G36*
X368642Y-322728D02*
X372811Y-323845D01*
X376799Y-325497D01*
X380536Y-327655D01*
X383961Y-330283D01*
X387013Y-333335D01*
X389641Y-336759D01*
X391799Y-340498D01*
X393451Y-344485D01*
X394568Y-348655D01*
X395131Y-352934D01*
Y-355092D01*
Y-357250D01*
X394568Y-361530D01*
X393451Y-365699D01*
X391799Y-369687D01*
X389641Y-373425D01*
X387013Y-376849D01*
X383961Y-379901D01*
X380536Y-382529D01*
X376799Y-384687D01*
X372811Y-386339D01*
X368642Y-387456D01*
X364362Y-388019D01*
X360046D01*
X355766Y-387456D01*
X351597Y-386339D01*
X347609Y-384687D01*
X343871Y-382529D01*
X340447Y-379901D01*
X337395Y-376849D01*
X334767Y-373425D01*
X332609Y-369687D01*
X330957Y-365699D01*
X329840Y-361530D01*
X329277Y-357250D01*
Y-355092D01*
Y-352934D01*
X329840Y-348655D01*
X330957Y-344485D01*
X332609Y-340498D01*
X334767Y-336759D01*
X337395Y-333335D01*
X340447Y-330283D01*
X343871Y-327655D01*
X347609Y-325497D01*
X351597Y-323845D01*
X355766Y-322728D01*
X360046Y-322165D01*
X364362D01*
X368642Y-322728D01*
D02*
G37*
G36*
X332883Y-441714D02*
X336920Y-442796D01*
X340670Y-444645D01*
X343986Y-447189D01*
X346742Y-450332D01*
X347787Y-452142D01*
X348832Y-453952D01*
X350176Y-457910D01*
X350721Y-462055D01*
X350448Y-466226D01*
X349366Y-470264D01*
X347517Y-474013D01*
X344972Y-477329D01*
X341830Y-480085D01*
X340020Y-481130D01*
X338210Y-482175D01*
X334251Y-483519D01*
X330107Y-484064D01*
X325936Y-483791D01*
X321898Y-482709D01*
X318149Y-480860D01*
X314833Y-478316D01*
X312076Y-475173D01*
X311031Y-473363D01*
X309986Y-471553D01*
X308643Y-467594D01*
X308097Y-463450D01*
X308371Y-459279D01*
X309452Y-455241D01*
X311301Y-451492D01*
X313846Y-448176D01*
X316989Y-445420D01*
X318799Y-444375D01*
X320609Y-443330D01*
X324567Y-441986D01*
X328712Y-441440D01*
X332883Y-441714D01*
D02*
G37*
D13*
X2794Y910590D02*
X447040D01*
D186*
X348836Y-14593D02*
X352698Y-16192D01*
X356174Y-18515D01*
X359129Y-21470D01*
X361452Y-24946D01*
X363051Y-28808D01*
X363867Y-32908D01*
Y-34998D02*
Y-32908D01*
X328712Y-441440D02*
X332883Y-441714D01*
X336920Y-442796D01*
X340670Y-444645D01*
X343986Y-447189D01*
X346742Y-450332D01*
X347787Y-452142D01*
X348832Y-453952D01*
X350176Y-457910D01*
X350721Y-462055D01*
X350448Y-466226D02*
X350721Y-462055D01*
X349366Y-470264D02*
X350448Y-466226D01*
X347517Y-474013D02*
X349366Y-470264D01*
X344972Y-477329D02*
X347517Y-474013D01*
X341830Y-480085D02*
X344972Y-477329D01*
X340020Y-481130D02*
X341830Y-480085D01*
X338210Y-482175D02*
X340020Y-481130D01*
X334251Y-483519D02*
X338210Y-482175D01*
X330107Y-484064D02*
X334251Y-483519D01*
X325936Y-483791D02*
X330107Y-484064D01*
X321898Y-482709D02*
X325936Y-483791D01*
X318149Y-480860D02*
X321898Y-482709D01*
X314833Y-478316D02*
X318149Y-480860D01*
X312076Y-475173D02*
X314833Y-478316D01*
X311031Y-473363D02*
X312076Y-475173D01*
X309986Y-471553D02*
X311031Y-473363D01*
X308643Y-467594D02*
X309986Y-471553D01*
X308097Y-463450D02*
X308643Y-467594D01*
X308097Y-463450D02*
X308371Y-459279D01*
X309452Y-455241D01*
X311301Y-451492D01*
X313846Y-448176D01*
X316989Y-445420D01*
X318799Y-444375D01*
X320609Y-443330D01*
X324567Y-441986D01*
X328712Y-441440D01*
X364362Y-322165D02*
X368642Y-322728D01*
X372811Y-323845D01*
X376799Y-325497D01*
X380536Y-327655D01*
X383961Y-330283D01*
X387013Y-333335D01*
X389641Y-336759D01*
X391799Y-340498D01*
X393451Y-344485D01*
X394568Y-348655D01*
X395131Y-352934D01*
Y-355092D02*
Y-352934D01*
Y-357250D02*
Y-355092D01*
X394568Y-361530D02*
X395131Y-357250D01*
X393451Y-365699D02*
X394568Y-361530D01*
X391799Y-369687D02*
X393451Y-365699D01*
X389641Y-373425D02*
X391799Y-369687D01*
X387013Y-376849D02*
X389641Y-373425D01*
X383961Y-379901D02*
X387013Y-376849D01*
X380536Y-382529D02*
X383961Y-379901D01*
X376799Y-384687D02*
X380536Y-382529D01*
X372811Y-386339D02*
X376799Y-384687D01*
X368642Y-387456D02*
X372811Y-386339D01*
X364362Y-388019D02*
X368642Y-387456D01*
X360046Y-388019D02*
X364362D01*
X355766Y-387456D02*
X360046Y-388019D01*
X351597Y-386339D02*
X355766Y-387456D01*
X347609Y-384687D02*
X351597Y-386339D01*
X343871Y-382529D02*
X347609Y-384687D01*
X340447Y-379901D02*
X343871Y-382529D01*
X337395Y-376849D02*
X340447Y-379901D01*
X334767Y-373425D02*
X337395Y-376849D01*
X332609Y-369687D02*
X334767Y-373425D01*
X330957Y-365699D02*
X332609Y-369687D01*
X329840Y-361530D02*
X330957Y-365699D01*
X329277Y-357250D02*
X329840Y-361530D01*
X329277Y-357250D02*
Y-355092D01*
Y-352934D01*
X329840Y-348655D01*
X330957Y-344485D01*
X332609Y-340498D01*
X334767Y-336759D01*
X337395Y-333335D01*
X340447Y-330283D01*
X343871Y-327655D01*
X347609Y-325497D01*
X351597Y-323845D01*
X355766Y-322728D01*
X360046Y-322165D01*
X364362D01*
X469963Y-273691D02*
X473825Y-275290D01*
X477301Y-277613D01*
X480257Y-280569D01*
X482579Y-284044D01*
X484179Y-287906D01*
X484994Y-292006D01*
Y-294096D02*
Y-292006D01*
X251123Y-267232D02*
X255294Y-267506D01*
X259331Y-268588D01*
X263081Y-270436D01*
X266397Y-272981D01*
X269153Y-276124D01*
X270198Y-277934D01*
X271243Y-279744D01*
X272587Y-283702D01*
X273132Y-287847D01*
X272859Y-292018D02*
X273132Y-287847D01*
X271777Y-296056D02*
X272859Y-292018D01*
X269928Y-299805D02*
X271777Y-296056D01*
X267383Y-303121D02*
X269928Y-299805D01*
X264241Y-305877D02*
X267383Y-303121D01*
X262431Y-306922D02*
X264241Y-305877D01*
X260621Y-307967D02*
X262431Y-306922D01*
X256662Y-309311D02*
X260621Y-307967D01*
X252518Y-309856D02*
X256662Y-309311D01*
X248347Y-309583D02*
X252518Y-309856D01*
X244309Y-308501D02*
X248347Y-309583D01*
X240560Y-306652D02*
X244309Y-308501D01*
X237244Y-304108D02*
X240560Y-306652D01*
X234488Y-300965D02*
X237244Y-304108D01*
X233442Y-299155D02*
X234488Y-300965D01*
X232397Y-297345D02*
X233442Y-299155D01*
X231054Y-293386D02*
X232397Y-297345D01*
X230508Y-289242D02*
X231054Y-293386D01*
X230508Y-289242D02*
X230782Y-285071D01*
X231863Y-281033D01*
X233712Y-277284D01*
X236257Y-273968D01*
X239400Y-271212D01*
X241210Y-270167D01*
X243020Y-269122D01*
X246978Y-267778D01*
X251123Y-267232D01*
X642460Y-193917D02*
X646322Y-195516D01*
X649798Y-197839D01*
X652753Y-200795D01*
X655076Y-204270D01*
X656675Y-208132D01*
X657491Y-212232D01*
Y-214322D02*
Y-212232D01*
X1504008Y-96371D02*
X1507870Y-97971D01*
X1511345Y-100293D01*
X1514301Y-103249D01*
X1516623Y-106725D01*
X1518223Y-110587D01*
X1519039Y-114686D01*
Y-116777D02*
Y-114686D01*
X1694509Y-96371D02*
X1698371Y-97971D01*
X1701846Y-100293D01*
X1704802Y-103249D01*
X1707125Y-106725D01*
X1708724Y-110587D01*
X1709540Y-114686D01*
Y-116777D02*
Y-114686D01*
X169335Y-94766D02*
X173506Y-95040D01*
X177544Y-96122D01*
X181292Y-97970D01*
X184609Y-100515D01*
X187365Y-103658D01*
X188410Y-105468D01*
X189455Y-107278D01*
X190799Y-111236D01*
X191344Y-115381D01*
X191071Y-119552D02*
X191344Y-115381D01*
X189989Y-123589D02*
X191071Y-119552D01*
X188140Y-127339D02*
X189989Y-123589D01*
X185595Y-130655D02*
X188140Y-127339D01*
X182453Y-133411D02*
X185595Y-130655D01*
X180643Y-134456D02*
X182453Y-133411D01*
X178833Y-135501D02*
X180643Y-134456D01*
X174874Y-136845D02*
X178833Y-135501D01*
X170730Y-137390D02*
X174874Y-136845D01*
X166559Y-137117D02*
X170730Y-137390D01*
X162521Y-136035D02*
X166559Y-137117D01*
X158772Y-134186D02*
X162521Y-136035D01*
X155456Y-131642D02*
X158772Y-134186D01*
X152700Y-128499D02*
X155456Y-131642D01*
X151655Y-126689D02*
X152700Y-128499D01*
X150610Y-124879D02*
X151655Y-126689D01*
X149266Y-120920D02*
X150610Y-124879D01*
X148720Y-116776D02*
X149266Y-120920D01*
X148720Y-116776D02*
X148994Y-112605D01*
X150076Y-108567D01*
X151924Y-104818D01*
X154469Y-101502D01*
X157612Y-98746D01*
X159422Y-97701D01*
X161232Y-96656D01*
X165190Y-95312D01*
X169335Y-94766D01*
X932504Y-64621D02*
X936366Y-66221D01*
X939841Y-68543D01*
X942797Y-71499D01*
X945119Y-74974D01*
X946719Y-78836D01*
X947534Y-82936D01*
Y-85026D02*
Y-82936D01*
X1314290Y-63868D02*
X1318152Y-65468D01*
X1321628Y-67790D01*
X1324583Y-70746D01*
X1326906Y-74222D01*
X1328505Y-78084D01*
X1329321Y-82184D01*
Y-84274D02*
Y-82184D01*
X1123536Y-47867D02*
X1127398Y-49467D01*
X1130873Y-51789D01*
X1133829Y-54745D01*
X1136151Y-58220D01*
X1137751Y-62082D01*
X1138567Y-66182D01*
Y-68272D02*
Y-66182D01*
X1504008Y94130D02*
X1507870Y92530D01*
X1511345Y90208D01*
X1514301Y87252D01*
X1516623Y83777D01*
X1518223Y79915D01*
X1519039Y75815D01*
Y73725D02*
Y75815D01*
X1742134Y94130D02*
X1745996Y92530D01*
X1749472Y90208D01*
X1752428Y87252D01*
X1754750Y83777D01*
X1756349Y79915D01*
X1757165Y75815D01*
Y73725D02*
Y75815D01*
X744568Y115201D02*
X748430Y113602D01*
X751906Y111279D01*
X754861Y108323D01*
X757184Y104848D01*
X758783Y100986D01*
X759599Y96886D01*
Y94796D02*
Y96886D01*
X934300Y127616D02*
X938162Y126017D01*
X941638Y123694D01*
X944594Y120738D01*
X946916Y117263D01*
X948516Y113401D01*
X949331Y109301D01*
Y107211D02*
Y109301D01*
X1315303Y127616D02*
X1319165Y126017D01*
X1322641Y123694D01*
X1325597Y120738D01*
X1327919Y117263D01*
X1329519Y113401D01*
X1330334Y109301D01*
Y107211D02*
Y109301D01*
X1124298Y142126D02*
X1128160Y140526D01*
X1131635Y138203D01*
X1134591Y135248D01*
X1136913Y131772D01*
X1138513Y127910D01*
X1139329Y123810D01*
Y121720D02*
Y123810D01*
X553306Y161937D02*
X557168Y160338D01*
X560644Y158015D01*
X563599Y155059D01*
X565922Y151584D01*
X567521Y147722D01*
X568337Y143622D01*
Y141532D02*
Y143622D01*
X1504008Y284632D02*
X1507870Y283032D01*
X1511345Y280709D01*
X1514301Y277754D01*
X1516623Y274278D01*
X1518223Y270416D01*
X1519039Y266316D01*
Y264226D02*
Y266316D01*
X1742134Y284632D02*
X1745996Y283032D01*
X1749472Y280709D01*
X1752428Y277754D01*
X1754750Y274278D01*
X1756350Y270416D01*
X1757165Y266316D01*
Y264226D02*
Y266316D01*
X742790Y305193D02*
X746652Y303594D01*
X750127Y301271D01*
X753083Y298315D01*
X755406Y294840D01*
X757005Y290978D01*
X757821Y286878D01*
Y284788D02*
Y286878D01*
X932504Y316382D02*
X936366Y314782D01*
X939841Y312460D01*
X942797Y309504D01*
X945119Y306028D01*
X946719Y302167D01*
X947534Y298067D01*
Y295977D02*
Y298067D01*
X1313506Y316382D02*
X1317368Y314782D01*
X1320844Y312460D01*
X1323800Y309504D01*
X1326122Y306028D01*
X1327722Y302167D01*
X1328537Y298067D01*
Y295977D02*
Y298067D01*
X1123005Y332358D02*
X1126867Y330759D01*
X1130342Y328436D01*
X1133298Y325480D01*
X1135620Y322005D01*
X1137220Y318143D01*
X1138036Y314043D01*
Y311953D02*
Y314043D01*
X1219460Y416095D02*
X1222998Y415629D01*
X1226445Y414705D01*
X1229741Y413340D01*
X1232831Y411556D01*
X1235662Y409384D01*
X1238186Y406860D01*
X1240358Y404029D01*
X1242142Y400939D01*
X1243507Y397643D01*
X1244431Y394196D01*
X1244897Y390658D01*
Y388874D02*
Y390658D01*
Y387090D02*
Y388874D01*
X1244431Y383552D02*
X1244897Y387090D01*
X1243507Y380105D02*
X1244431Y383552D01*
X1242142Y376809D02*
X1243507Y380105D01*
X1240358Y373718D02*
X1242142Y376809D01*
X1238186Y370888D02*
X1240358Y373718D01*
X1235662Y368364D02*
X1238186Y370888D01*
X1232831Y366192D02*
X1235662Y368364D01*
X1229741Y364408D02*
X1232831Y366192D01*
X1226445Y363043D02*
X1229741Y364408D01*
X1222998Y362119D02*
X1226445Y363043D01*
X1219460Y361653D02*
X1222998Y362119D01*
X1215892Y361653D02*
X1219460D01*
X1212354Y362119D02*
X1215892Y361653D01*
X1208907Y363043D02*
X1212354Y362119D01*
X1205611Y364408D02*
X1208907Y363043D01*
X1202521Y366192D02*
X1205611Y364408D01*
X1199690Y368364D02*
X1202521Y366192D01*
X1197167Y370888D02*
X1199690Y368364D01*
X1194994Y373718D02*
X1197167Y370888D01*
X1193210Y376809D02*
X1194994Y373718D01*
X1191845Y380105D02*
X1193210Y376809D01*
X1190921Y383552D02*
X1191845Y380105D01*
X1190455Y387090D02*
X1190921Y383552D01*
X1190455Y387090D02*
Y388874D01*
Y390658D01*
X1190921Y394196D01*
X1191845Y397643D01*
X1193210Y400939D01*
X1194994Y404029D01*
X1197167Y406860D01*
X1199690Y409384D01*
X1202521Y411556D01*
X1205611Y413340D01*
X1208907Y414705D01*
X1212354Y415629D01*
X1215892Y416095D01*
X1219460D01*
X553052Y448195D02*
X556914Y446596D01*
X560389Y444273D01*
X563345Y441317D01*
X565667Y437842D01*
X567267Y433980D01*
X568083Y429880D01*
Y427790D02*
Y429880D01*
X1505298Y476135D02*
X1509160Y474536D01*
X1512636Y472213D01*
X1515591Y469258D01*
X1517914Y465782D01*
X1519513Y461920D01*
X1520329Y457820D01*
Y455730D02*
Y457820D01*
X1743296Y476135D02*
X1747158Y474536D01*
X1750634Y472213D01*
X1753589Y469258D01*
X1755912Y465782D01*
X1757511Y461920D01*
X1758327Y457820D01*
Y455730D02*
Y457820D01*
X743799Y495919D02*
X747661Y494319D01*
X751137Y491996D01*
X754093Y489041D01*
X756415Y485565D01*
X758015Y481703D01*
X758830Y477603D01*
Y475513D02*
Y477603D01*
X934300Y508619D02*
X938162Y507019D01*
X941638Y504697D01*
X944594Y501741D01*
X946916Y498265D01*
X948516Y494403D01*
X949331Y490303D01*
Y488213D02*
Y490303D01*
X1315560Y509155D02*
X1319422Y507556D01*
X1322897Y505233D01*
X1325853Y502278D01*
X1328176Y498802D01*
X1329775Y494940D01*
X1330591Y490840D01*
Y488750D02*
Y490840D01*
X1125822Y524395D02*
X1129684Y522795D01*
X1133159Y520473D01*
X1136115Y517517D01*
X1138437Y514042D01*
X1140037Y510180D01*
X1140853Y506080D01*
Y503990D02*
Y506080D01*
X1507076Y665873D02*
X1510938Y664274D01*
X1514414Y661951D01*
X1517369Y658996D01*
X1519692Y655520D01*
X1521291Y651658D01*
X1522107Y647558D01*
Y645468D02*
Y647558D01*
X1744058Y667143D02*
X1747920Y665543D01*
X1751396Y663221D01*
X1754351Y660265D01*
X1756674Y656790D01*
X1758273Y652928D01*
X1759089Y648828D01*
Y646738D02*
Y648828D01*
X742002Y684659D02*
X745864Y683059D01*
X749340Y680737D01*
X752295Y677781D01*
X754618Y674305D01*
X756217Y670443D01*
X757033Y666344D01*
Y664254D02*
Y666344D01*
X553306Y687463D02*
X557168Y685863D01*
X560643Y683541D01*
X563599Y680585D01*
X565921Y677110D01*
X567521Y673248D01*
X568337Y669148D01*
Y667058D02*
Y669148D01*
X934306Y698893D02*
X938168Y697294D01*
X941644Y694971D01*
X944599Y692016D01*
X946922Y688540D01*
X948521Y684678D01*
X949337Y680578D01*
Y678488D02*
Y680578D01*
X1315303Y699120D02*
X1319165Y697521D01*
X1322641Y695198D01*
X1325597Y692242D01*
X1327919Y688767D01*
X1329519Y684905D01*
X1330334Y680805D01*
Y678715D02*
Y680805D01*
X1124806Y715149D02*
X1128668Y713550D01*
X1132143Y711227D01*
X1135099Y708271D01*
X1137421Y704796D01*
X1139021Y700934D01*
X1139837Y696834D01*
Y694744D02*
Y696834D01*
X1073831Y1000424D02*
X1793831Y1000424D01*
X1073831Y868735D02*
Y1000424D01*
X943831Y868735D02*
X1073831D01*
X943831D02*
Y1000424D01*
X563831D02*
X943831D01*
X563831Y868735D02*
Y1000424D01*
X447040Y868735D02*
X563831D01*
X447040D02*
Y999425D01*
X467Y999425D02*
X447040Y999425D01*
X1Y-24D02*
X467Y999425D01*
X1Y-24D02*
X37193D01*
X37193Y-73608D02*
X37193Y-24D01*
X37193Y-73608D02*
X121717Y-254871D01*
X202015Y-427069D01*
X286538Y-608330D01*
X845164Y-347838D01*
X795379Y-241072D02*
X845164Y-347838D01*
X795379Y-241072D02*
X913199Y-186132D01*
X962984Y-292897D01*
X1096633Y-230576D01*
X1804181Y-230576D01*
Y-54474D01*
X1890480D01*
X1890480Y868734D01*
X1793831D02*
X1890480D01*
X1793831D02*
Y1000424D01*
X1116526Y715965D02*
X1120706D01*
X1112426Y715149D02*
X1116526Y715965D01*
X1108564Y713550D02*
X1112426Y715149D01*
X1105088Y711227D02*
X1108564Y713550D01*
X1102132Y708271D02*
X1105088Y711227D01*
X1099810Y704796D02*
X1102132Y708271D01*
X1098211Y700934D02*
X1099810Y704796D01*
X1097395Y696834D02*
X1098211Y700934D01*
X1097395Y694744D02*
Y696834D01*
Y692654D02*
Y694744D01*
Y692654D02*
X1098211Y688554D01*
X1099810Y684692D01*
X1102132Y681217D01*
X1105088Y678261D01*
X1108564Y675938D01*
X1112426Y674339D01*
X1116526Y673523D01*
X1120706D01*
X1124806Y674339D01*
X1128668Y675938D01*
X1132143Y678261D01*
X1135099Y681217D01*
X1137421Y684692D01*
X1139021Y688554D01*
X1139837Y692654D01*
Y694744D01*
X1120706Y715965D02*
X1124806Y715149D01*
X1307023Y699936D02*
X1311203D01*
X1302924Y699120D02*
X1307023Y699936D01*
X1299062Y697521D02*
X1302924Y699120D01*
X1295586Y695198D02*
X1299062Y697521D01*
X1292630Y692242D02*
X1295586Y695198D01*
X1290308Y688767D02*
X1292630Y692242D01*
X1288708Y684905D02*
X1290308Y688767D01*
X1287893Y680805D02*
X1288708Y684905D01*
X1287893Y678715D02*
Y680805D01*
Y676625D02*
Y678715D01*
Y676625D02*
X1288708Y672525D01*
X1290308Y668663D01*
X1292630Y665187D01*
X1295586Y662232D01*
X1299062Y659909D01*
X1302924Y658310D01*
X1307023Y657494D01*
X1311203D01*
X1315303Y658310D01*
X1319165Y659909D01*
X1322641Y662232D01*
X1325597Y665187D01*
X1327919Y668663D01*
X1329519Y672525D01*
X1330334Y676625D01*
Y678715D01*
X1311203Y699936D02*
X1315303Y699120D01*
X926026Y699709D02*
X930206D01*
X921926Y698893D02*
X926026Y699709D01*
X918064Y697294D02*
X921926Y698893D01*
X914589Y694971D02*
X918064Y697294D01*
X911633Y692016D02*
X914589Y694971D01*
X909311Y688540D02*
X911633Y692016D01*
X907711Y684678D02*
X909311Y688540D01*
X906895Y680578D02*
X907711Y684678D01*
X906895Y678488D02*
Y680578D01*
Y676398D02*
Y678488D01*
Y676398D02*
X907711Y672298D01*
X909311Y668436D01*
X911633Y664961D01*
X914589Y662005D01*
X918064Y659682D01*
X921926Y658083D01*
X926026Y657267D01*
X930206D01*
X934306Y658083D01*
X938168Y659682D01*
X941644Y662005D01*
X944599Y664961D01*
X946922Y668436D01*
X948521Y672298D01*
X949337Y676398D01*
Y678488D01*
X930206Y699709D02*
X934306Y698893D01*
X545026Y688279D02*
X549206D01*
X540926Y687463D02*
X545026Y688279D01*
X537064Y685863D02*
X540926Y687463D01*
X533588Y683541D02*
X537064Y685863D01*
X530633Y680585D02*
X533588Y683541D01*
X528310Y677110D02*
X530633Y680585D01*
X526711Y673248D02*
X528310Y677110D01*
X525895Y669148D02*
X526711Y673248D01*
X525895Y667058D02*
Y669148D01*
Y664968D02*
Y667058D01*
Y664968D02*
X526711Y660868D01*
X528310Y657006D01*
X530633Y653530D01*
X533588Y650575D01*
X537064Y648252D01*
X540926Y646653D01*
X545026Y645837D01*
X549206D01*
X553306Y646653D01*
X557168Y648252D01*
X560643Y650575D01*
X563599Y653530D01*
X565921Y657006D01*
X567521Y660868D01*
X568337Y664968D01*
Y667058D01*
X549206Y688279D02*
X553306Y687463D01*
X733722Y685474D02*
X737902D01*
X729622Y684659D02*
X733722Y685474D01*
X725760Y683059D02*
X729622Y684659D01*
X722285Y680737D02*
X725760Y683059D01*
X719329Y677781D02*
X722285Y680737D01*
X717007Y674305D02*
X719329Y677781D01*
X715407Y670443D02*
X717007Y674305D01*
X714591Y666344D02*
X715407Y670443D01*
X714591Y664254D02*
Y666344D01*
Y662164D02*
Y664254D01*
Y662164D02*
X715407Y658064D01*
X717007Y654202D01*
X719329Y650726D01*
X722285Y647770D01*
X725760Y645448D01*
X729622Y643848D01*
X733722Y643033D01*
X737902D01*
X742002Y643848D01*
X745864Y645448D01*
X749340Y647770D01*
X752295Y650726D01*
X754618Y654202D01*
X756217Y658064D01*
X757033Y662164D01*
Y664254D01*
X737902Y685474D02*
X742002Y684659D01*
X1735778Y667959D02*
X1739958D01*
X1731678Y667143D02*
X1735778Y667959D01*
X1727816Y665543D02*
X1731678Y667143D01*
X1724341Y663221D02*
X1727816Y665543D01*
X1721385Y660265D02*
X1724341Y663221D01*
X1719062Y656790D02*
X1721385Y660265D01*
X1717463Y652928D02*
X1719062Y656790D01*
X1716647Y648828D02*
X1717463Y652928D01*
X1716647Y646738D02*
Y648828D01*
Y644648D02*
Y646738D01*
Y644648D02*
X1717463Y640548D01*
X1719062Y636686D01*
X1721385Y633210D01*
X1724341Y630255D01*
X1727816Y627932D01*
X1731678Y626333D01*
X1735778Y625517D01*
X1739958D01*
X1744058Y626333D01*
X1747920Y627932D01*
X1751396Y630255D01*
X1754351Y633210D01*
X1756674Y636686D01*
X1758273Y640548D01*
X1759089Y644648D01*
Y646738D01*
X1739958Y667959D02*
X1744058Y667143D01*
X1498796Y666689D02*
X1502976D01*
X1494696Y665873D02*
X1498796Y666689D01*
X1490834Y664274D02*
X1494696Y665873D01*
X1487359Y661951D02*
X1490834Y664274D01*
X1484403Y658996D02*
X1487359Y661951D01*
X1482081Y655520D02*
X1484403Y658996D01*
X1480481Y651658D02*
X1482081Y655520D01*
X1479665Y647558D02*
X1480481Y651658D01*
X1479665Y645468D02*
Y647558D01*
Y643378D02*
Y645468D01*
Y643378D02*
X1480481Y639278D01*
X1482081Y635416D01*
X1484403Y631941D01*
X1487359Y628985D01*
X1490834Y626662D01*
X1494696Y625063D01*
X1498796Y624247D01*
X1502976D01*
X1507076Y625063D01*
X1510938Y626662D01*
X1514414Y628985D01*
X1517369Y631941D01*
X1519692Y635416D01*
X1521291Y639278D01*
X1522107Y643378D01*
Y645468D01*
X1502976Y666689D02*
X1507076Y665873D01*
X1117542Y525211D02*
X1121722D01*
X1113442Y524395D02*
X1117542Y525211D01*
X1109580Y522795D02*
X1113442Y524395D01*
X1106104Y520473D02*
X1109580Y522795D01*
X1103148Y517517D02*
X1106104Y520473D01*
X1100826Y514042D02*
X1103148Y517517D01*
X1099227Y510180D02*
X1100826Y514042D01*
X1098411Y506080D02*
X1099227Y510180D01*
X1098411Y503990D02*
Y506080D01*
Y501900D02*
Y503990D01*
Y501900D02*
X1099227Y497800D01*
X1100826Y493938D01*
X1103148Y490462D01*
X1106104Y487507D01*
X1109580Y485184D01*
X1113442Y483585D01*
X1117542Y482769D01*
X1121722D01*
X1125822Y483585D01*
X1129684Y485184D01*
X1133159Y487507D01*
X1136115Y490462D01*
X1138437Y493938D01*
X1140037Y497800D01*
X1140853Y501900D01*
Y503990D01*
X1121722Y525211D02*
X1125822Y524395D01*
X1307280Y509971D02*
X1311460D01*
X1303180Y509155D02*
X1307280Y509971D01*
X1299318Y507556D02*
X1303180Y509155D01*
X1295842Y505233D02*
X1299318Y507556D01*
X1292887Y502278D02*
X1295842Y505233D01*
X1290564Y498802D02*
X1292887Y502278D01*
X1288965Y494940D02*
X1290564Y498802D01*
X1288149Y490840D02*
X1288965Y494940D01*
X1288149Y488750D02*
Y490840D01*
Y486660D02*
Y488750D01*
Y486660D02*
X1288965Y482560D01*
X1290564Y478698D01*
X1292887Y475223D01*
X1295842Y472267D01*
X1299318Y469944D01*
X1303180Y468345D01*
X1307280Y467529D01*
X1311460D01*
X1315560Y468345D01*
X1319422Y469944D01*
X1322897Y472267D01*
X1325853Y475223D01*
X1328176Y478698D01*
X1329775Y482560D01*
X1330591Y486660D01*
Y488750D01*
X1311460Y509971D02*
X1315560Y509155D01*
X926020Y509434D02*
X930201D01*
X921921Y508619D02*
X926020Y509434D01*
X918059Y507019D02*
X921921Y508619D01*
X914583Y504697D02*
X918059Y507019D01*
X911627Y501741D02*
X914583Y504697D01*
X909305Y498265D02*
X911627Y501741D01*
X907705Y494403D02*
X909305Y498265D01*
X906890Y490303D02*
X907705Y494403D01*
X906890Y488213D02*
Y490303D01*
Y486123D02*
Y488213D01*
Y486123D02*
X907705Y482023D01*
X909305Y478161D01*
X911627Y474686D01*
X914583Y471730D01*
X918059Y469408D01*
X921921Y467808D01*
X926020Y466992D01*
X930201D01*
X934300Y467808D01*
X938162Y469408D01*
X941638Y471730D01*
X944594Y474686D01*
X946916Y478161D01*
X948516Y482023D01*
X949331Y486123D01*
Y488213D01*
X930201Y509434D02*
X934300Y508619D01*
X735519Y496734D02*
X739699D01*
X731420Y495919D02*
X735519Y496734D01*
X727558Y494319D02*
X731420Y495919D01*
X724082Y491996D02*
X727558Y494319D01*
X721126Y489041D02*
X724082Y491996D01*
X718804Y485565D02*
X721126Y489041D01*
X717204Y481703D02*
X718804Y485565D01*
X716389Y477603D02*
X717204Y481703D01*
X716389Y475513D02*
Y477603D01*
Y473423D02*
Y475513D01*
Y473423D02*
X717204Y469323D01*
X718804Y465461D01*
X721126Y461986D01*
X724082Y459030D01*
X727558Y456708D01*
X731420Y455108D01*
X735519Y454292D01*
X739699D01*
X743799Y455108D01*
X747661Y456708D01*
X751137Y459030D01*
X754093Y461986D01*
X756415Y465461D01*
X758015Y469323D01*
X758830Y473423D01*
Y475513D01*
X739699Y496734D02*
X743799Y495919D01*
X1735016Y476951D02*
X1739196D01*
X1730916Y476135D02*
X1735016Y476951D01*
X1727054Y474536D02*
X1730916Y476135D01*
X1723579Y472213D02*
X1727054Y474536D01*
X1720623Y469258D02*
X1723579Y472213D01*
X1718301Y465782D02*
X1720623Y469258D01*
X1716701Y461920D02*
X1718301Y465782D01*
X1715885Y457820D02*
X1716701Y461920D01*
X1715885Y455730D02*
Y457820D01*
Y453640D02*
Y455730D01*
Y453640D02*
X1716701Y449540D01*
X1718301Y445678D01*
X1720623Y442203D01*
X1723579Y439247D01*
X1727054Y436925D01*
X1730916Y435325D01*
X1735016Y434509D01*
X1739196D01*
X1743296Y435325D01*
X1747158Y436925D01*
X1750634Y439247D01*
X1753589Y442203D01*
X1755912Y445678D01*
X1757511Y449540D01*
X1758327Y453640D01*
Y455730D01*
X1739196Y476951D02*
X1743296Y476135D01*
X1497018Y476951D02*
X1501198D01*
X1492918Y476135D02*
X1497018Y476951D01*
X1489056Y474536D02*
X1492918Y476135D01*
X1485581Y472213D02*
X1489056Y474536D01*
X1482625Y469258D02*
X1485581Y472213D01*
X1480302Y465782D02*
X1482625Y469258D01*
X1478703Y461920D02*
X1480302Y465782D01*
X1477887Y457820D02*
X1478703Y461920D01*
X1477887Y455730D02*
Y457820D01*
Y453640D02*
Y455730D01*
Y453640D02*
X1478703Y449540D01*
X1480302Y445678D01*
X1482625Y442203D01*
X1485581Y439247D01*
X1489056Y436925D01*
X1492918Y435325D01*
X1497018Y434509D01*
X1501198D01*
X1505298Y435325D01*
X1509160Y436925D01*
X1512636Y439247D01*
X1515591Y442203D01*
X1517914Y445678D01*
X1519513Y449540D01*
X1520329Y453640D01*
Y455730D01*
X1501198Y476951D02*
X1505298Y476135D01*
X544772Y449011D02*
X548952D01*
X540672Y448195D02*
X544772Y449011D01*
X536810Y446596D02*
X540672Y448195D01*
X533334Y444273D02*
X536810Y446596D01*
X530378Y441317D02*
X533334Y444273D01*
X528056Y437842D02*
X530378Y441317D01*
X526456Y433980D02*
X528056Y437842D01*
X525641Y429880D02*
X526456Y433980D01*
X525641Y427790D02*
Y429880D01*
Y425700D02*
Y427790D01*
Y425700D02*
X526456Y421600D01*
X528056Y417738D01*
X530378Y414263D01*
X533334Y411307D01*
X536810Y408984D01*
X540672Y407385D01*
X544772Y406569D01*
X548952D01*
X553052Y407385D01*
X556914Y408984D01*
X560389Y411307D01*
X563345Y414263D01*
X565667Y417738D01*
X567267Y421600D01*
X568083Y425700D01*
Y427790D01*
X548952Y449011D02*
X553052Y448195D01*
X1114725Y333174D02*
X1118905D01*
X1110625Y332358D02*
X1114725Y333174D01*
X1106763Y330759D02*
X1110625Y332358D01*
X1103288Y328436D02*
X1106763Y330759D01*
X1100332Y325480D02*
X1103288Y328436D01*
X1098009Y322005D02*
X1100332Y325480D01*
X1096410Y318143D02*
X1098009Y322005D01*
X1095594Y314043D02*
X1096410Y318143D01*
X1095594Y311953D02*
Y314043D01*
Y309863D02*
Y311953D01*
Y309863D02*
X1096410Y305763D01*
X1098009Y301901D01*
X1100332Y298426D01*
X1103288Y295470D01*
X1106763Y293147D01*
X1110625Y291548D01*
X1114725Y290732D01*
X1118905D01*
X1123005Y291548D01*
X1126867Y293147D01*
X1130342Y295470D01*
X1133298Y298426D01*
X1135620Y301901D01*
X1137220Y305763D01*
X1138036Y309863D01*
Y311953D01*
X1118905Y333174D02*
X1123005Y332358D01*
X1305226Y317197D02*
X1309407D01*
X1301127Y316382D02*
X1305226Y317197D01*
X1297265Y314782D02*
X1301127Y316382D01*
X1293789Y312460D02*
X1297265Y314782D01*
X1290833Y309504D02*
X1293789Y312460D01*
X1288511Y306028D02*
X1290833Y309504D01*
X1286911Y302167D02*
X1288511Y306028D01*
X1286096Y298067D02*
X1286911Y302167D01*
X1286096Y295977D02*
Y298067D01*
Y293887D02*
Y295977D01*
Y293887D02*
X1286911Y289787D01*
X1288511Y285925D01*
X1290833Y282449D01*
X1293789Y279493D01*
X1297265Y277171D01*
X1301127Y275571D01*
X1305226Y274756D01*
X1309407D01*
X1313506Y275571D01*
X1317368Y277171D01*
X1320844Y279493D01*
X1323800Y282449D01*
X1326122Y285925D01*
X1327722Y289787D01*
X1328537Y293887D01*
Y295977D01*
X1309407Y317197D02*
X1313506Y316382D01*
X924224Y317197D02*
X928404D01*
X920124Y316382D02*
X924224Y317197D01*
X916262Y314782D02*
X920124Y316382D01*
X912786Y312460D02*
X916262Y314782D01*
X909830Y309504D02*
X912786Y312460D01*
X907508Y306028D02*
X909830Y309504D01*
X905908Y302167D02*
X907508Y306028D01*
X905093Y298067D02*
X905908Y302167D01*
X905093Y295977D02*
Y298067D01*
Y293887D02*
Y295977D01*
Y293887D02*
X905908Y289787D01*
X907508Y285925D01*
X909830Y282449D01*
X912786Y279493D01*
X916262Y277171D01*
X920124Y275571D01*
X924224Y274756D01*
X928404D01*
X932504Y275571D01*
X936366Y277171D01*
X939841Y279493D01*
X942797Y282449D01*
X945119Y285925D01*
X946719Y289787D01*
X947534Y293887D01*
Y295977D01*
X928404Y317197D02*
X932504Y316382D01*
X734510Y306009D02*
X738690D01*
X730410Y305193D02*
X734510Y306009D01*
X726548Y303594D02*
X730410Y305193D01*
X723073Y301271D02*
X726548Y303594D01*
X720117Y298315D02*
X723073Y301271D01*
X717794Y294840D02*
X720117Y298315D01*
X716195Y290978D02*
X717794Y294840D01*
X715379Y286878D02*
X716195Y290978D01*
X715379Y284788D02*
Y286878D01*
Y282698D02*
Y284788D01*
Y282698D02*
X716195Y278598D01*
X717794Y274736D01*
X720117Y271261D01*
X723073Y268305D01*
X726548Y265982D01*
X730410Y264383D01*
X734510Y263567D01*
X738690D01*
X742790Y264383D01*
X746652Y265982D01*
X750127Y268305D01*
X753083Y271261D01*
X755406Y274736D01*
X757005Y278598D01*
X757821Y282698D01*
Y284788D01*
X738690Y306009D02*
X742790Y305193D01*
X1733854Y285447D02*
X1738035D01*
X1729754Y284632D02*
X1733854Y285447D01*
X1725893Y283032D02*
X1729754Y284632D01*
X1722417Y280709D02*
X1725893Y283032D01*
X1719461Y277754D02*
X1722417Y280709D01*
X1717139Y274278D02*
X1719461Y277754D01*
X1715539Y270416D02*
X1717139Y274278D01*
X1714724Y266316D02*
X1715539Y270416D01*
X1714724Y264226D02*
Y266316D01*
Y262136D02*
Y264226D01*
Y262136D02*
X1715539Y258036D01*
X1717139Y254174D01*
X1719461Y250699D01*
X1722417Y247743D01*
X1725893Y245421D01*
X1729754Y243821D01*
X1733854Y243006D01*
X1738035D01*
X1742134Y243821D01*
X1745996Y245421D01*
X1749472Y247743D01*
X1752428Y250699D01*
X1754750Y254174D01*
X1756350Y258036D01*
X1757165Y262136D01*
Y264226D01*
X1738035Y285447D02*
X1742134Y284632D01*
X1495728Y285447D02*
X1499908D01*
X1491628Y284632D02*
X1495728Y285447D01*
X1487766Y283032D02*
X1491628Y284632D01*
X1484290Y280709D02*
X1487766Y283032D01*
X1481335Y277754D02*
X1484290Y280709D01*
X1479012Y274278D02*
X1481335Y277754D01*
X1477413Y270416D02*
X1479012Y274278D01*
X1476597Y266316D02*
X1477413Y270416D01*
X1476597Y264226D02*
Y266316D01*
Y262136D02*
Y264226D01*
Y262136D02*
X1477413Y258036D01*
X1479012Y254174D01*
X1481335Y250699D01*
X1484290Y247743D01*
X1487766Y245421D01*
X1491628Y243821D01*
X1495728Y243006D01*
X1499908D01*
X1504008Y243821D01*
X1507870Y245421D01*
X1511345Y247743D01*
X1514301Y250699D01*
X1516623Y254174D01*
X1518223Y258036D01*
X1519039Y262136D01*
Y264226D01*
X1499908Y285447D02*
X1504008Y284632D01*
X545026Y162753D02*
X549206D01*
X540926Y161937D02*
X545026Y162753D01*
X537064Y160338D02*
X540926Y161937D01*
X533588Y158015D02*
X537064Y160338D01*
X530633Y155059D02*
X533588Y158015D01*
X528310Y151584D02*
X530633Y155059D01*
X526711Y147722D02*
X528310Y151584D01*
X525895Y143622D02*
X526711Y147722D01*
X525895Y141532D02*
Y143622D01*
Y139442D02*
Y141532D01*
Y139442D02*
X526711Y135342D01*
X528310Y131480D01*
X530633Y128005D01*
X533588Y125049D01*
X537064Y122726D01*
X540926Y121127D01*
X545026Y120311D01*
X549206D01*
X553306Y121127D01*
X557168Y122726D01*
X560644Y125049D01*
X563599Y128005D01*
X565922Y131480D01*
X567521Y135342D01*
X568337Y139442D01*
Y141532D01*
X549206Y162753D02*
X553306Y161937D01*
X1116018Y142941D02*
X1120198D01*
X1111918Y142126D02*
X1116018Y142941D01*
X1108056Y140526D02*
X1111918Y142126D01*
X1104580Y138203D02*
X1108056Y140526D01*
X1101625Y135248D02*
X1104580Y138203D01*
X1099302Y131772D02*
X1101625Y135248D01*
X1097703Y127910D02*
X1099302Y131772D01*
X1096887Y123810D02*
X1097703Y127910D01*
X1096887Y121720D02*
Y123810D01*
Y119630D02*
Y121720D01*
Y119630D02*
X1097703Y115530D01*
X1099302Y111668D01*
X1101625Y108193D01*
X1104580Y105237D01*
X1108056Y102915D01*
X1111918Y101315D01*
X1116018Y100499D01*
X1120198D01*
X1124298Y101315D01*
X1128160Y102915D01*
X1131635Y105237D01*
X1134591Y108193D01*
X1136913Y111668D01*
X1138513Y115530D01*
X1139329Y119630D01*
Y121720D01*
X1120198Y142941D02*
X1124298Y142126D01*
X1307023Y128432D02*
X1311203D01*
X1302924Y127616D02*
X1307023Y128432D01*
X1299062Y126017D02*
X1302924Y127616D01*
X1295586Y123694D02*
X1299062Y126017D01*
X1292630Y120738D02*
X1295586Y123694D01*
X1290308Y117263D02*
X1292630Y120738D01*
X1288708Y113401D02*
X1290308Y117263D01*
X1287893Y109301D02*
X1288708Y113401D01*
X1287893Y107211D02*
Y109301D01*
Y105121D02*
Y107211D01*
Y105121D02*
X1288708Y101021D01*
X1290308Y97159D01*
X1292630Y93683D01*
X1295586Y90728D01*
X1299062Y88405D01*
X1302924Y86806D01*
X1307023Y85990D01*
X1311203D01*
X1315303Y86806D01*
X1319165Y88405D01*
X1322641Y90728D01*
X1325597Y93683D01*
X1327919Y97159D01*
X1329519Y101021D01*
X1330334Y105121D01*
Y107211D01*
X1311203Y128432D02*
X1315303Y127616D01*
X926020Y128432D02*
X930201D01*
X921920Y127616D02*
X926020Y128432D01*
X918059Y126017D02*
X921920Y127616D01*
X914583Y123694D02*
X918059Y126017D01*
X911627Y120738D02*
X914583Y123694D01*
X909305Y117263D02*
X911627Y120738D01*
X907705Y113401D02*
X909305Y117263D01*
X906890Y109301D02*
X907705Y113401D01*
X906890Y107211D02*
Y109301D01*
Y105121D02*
Y107211D01*
Y105121D02*
X907705Y101021D01*
X909305Y97159D01*
X911627Y93683D01*
X914583Y90728D01*
X918059Y88405D01*
X921920Y86806D01*
X926020Y85990D01*
X930201D01*
X934300Y86806D01*
X938162Y88405D01*
X941638Y90728D01*
X944594Y93683D01*
X946916Y97159D01*
X948516Y101021D01*
X949331Y105121D01*
Y107211D01*
X930201Y128432D02*
X934300Y127616D01*
X736288Y116017D02*
X740468D01*
X732188Y115201D02*
X736288Y116017D01*
X728326Y113602D02*
X732188Y115201D01*
X724850Y111279D02*
X728326Y113602D01*
X721895Y108323D02*
X724850Y111279D01*
X719572Y104848D02*
X721895Y108323D01*
X717973Y100986D02*
X719572Y104848D01*
X717157Y96886D02*
X717973Y100986D01*
X717157Y94796D02*
Y96886D01*
Y92706D02*
Y94796D01*
Y92706D02*
X717973Y88606D01*
X719572Y84744D01*
X721895Y81269D01*
X724850Y78313D01*
X728326Y75990D01*
X732188Y74391D01*
X736288Y73575D01*
X740468D01*
X744568Y74391D01*
X748430Y75990D01*
X751906Y78313D01*
X754861Y81269D01*
X757184Y84744D01*
X758783Y88606D01*
X759599Y92706D01*
Y94796D01*
X740468Y116017D02*
X744568Y115201D01*
X1733854Y94946D02*
X1738034D01*
X1729754Y94130D02*
X1733854Y94946D01*
X1725892Y92530D02*
X1729754Y94130D01*
X1722417Y90208D02*
X1725892Y92530D01*
X1719461Y87252D02*
X1722417Y90208D01*
X1717139Y83777D02*
X1719461Y87252D01*
X1715539Y79915D02*
X1717139Y83777D01*
X1714723Y75815D02*
X1715539Y79915D01*
X1714723Y73725D02*
Y75815D01*
Y71635D02*
Y73725D01*
Y71635D02*
X1715539Y67535D01*
X1717139Y63673D01*
X1719461Y60197D01*
X1722417Y57242D01*
X1725892Y54919D01*
X1729754Y53320D01*
X1733854Y52504D01*
X1738034D01*
X1742134Y53320D01*
X1745996Y54919D01*
X1749472Y57242D01*
X1752428Y60197D01*
X1754750Y63673D01*
X1756349Y67535D01*
X1757165Y71635D01*
Y73725D01*
X1738034Y94946D02*
X1742134Y94130D01*
X1495728Y94946D02*
X1499908D01*
X1491628Y94130D02*
X1495728Y94946D01*
X1487766Y92530D02*
X1491628Y94130D01*
X1484290Y90208D02*
X1487766Y92530D01*
X1481335Y87252D02*
X1484290Y90208D01*
X1479012Y83777D02*
X1481335Y87252D01*
X1477413Y79915D02*
X1479012Y83777D01*
X1476597Y75815D02*
X1477413Y79915D01*
X1476597Y73725D02*
Y75815D01*
Y71635D02*
Y73725D01*
Y71635D02*
X1477413Y67535D01*
X1479012Y63673D01*
X1481335Y60197D01*
X1484290Y57242D01*
X1487766Y54919D01*
X1491628Y53320D01*
X1495728Y52504D01*
X1499908D01*
X1504008Y53320D01*
X1507870Y54919D01*
X1511345Y57242D01*
X1514301Y60197D01*
X1516623Y63673D01*
X1518223Y67535D01*
X1519039Y71635D01*
Y73725D01*
X1499908Y94946D02*
X1504008Y94130D01*
X340556Y-13777D02*
X344736D01*
X336456Y-14593D02*
X340556Y-13777D01*
X332594Y-16192D02*
X336456Y-14593D01*
X329119Y-18515D02*
X332594Y-16192D01*
X326163Y-21470D02*
X329119Y-18515D01*
X323841Y-24946D02*
X326163Y-21470D01*
X322241Y-28808D02*
X323841Y-24946D01*
X321425Y-32908D02*
X322241Y-28808D01*
X321425Y-34998D02*
Y-32908D01*
Y-37088D02*
Y-34998D01*
Y-37088D02*
X322241Y-41188D01*
X323841Y-45050D01*
X326163Y-48525D01*
X329119Y-51481D01*
X332594Y-53804D01*
X336456Y-55403D01*
X340556Y-56219D01*
X344736D01*
X348836Y-55403D01*
X352698Y-53804D01*
X356174Y-51481D01*
X359129Y-48525D01*
X361452Y-45050D01*
X363051Y-41188D01*
X363867Y-37088D01*
Y-34998D01*
X344736Y-13777D02*
X348836Y-14593D01*
X1115256Y-47051D02*
X1119436D01*
X1111156Y-47867D02*
X1115256Y-47051D01*
X1107294Y-49467D02*
X1111156Y-47867D01*
X1103818Y-51789D02*
X1107294Y-49467D01*
X1100863Y-54745D02*
X1103818Y-51789D01*
X1098540Y-58220D02*
X1100863Y-54745D01*
X1096941Y-62082D02*
X1098540Y-58220D01*
X1096125Y-66182D02*
X1096941Y-62082D01*
X1096125Y-68272D02*
Y-66182D01*
Y-70362D02*
Y-68272D01*
Y-70362D02*
X1096941Y-74462D01*
X1098540Y-78324D01*
X1100863Y-81800D01*
X1103818Y-84755D01*
X1107294Y-87078D01*
X1111156Y-88677D01*
X1115256Y-89493D01*
X1119436D01*
X1123536Y-88677D01*
X1127398Y-87078D01*
X1130873Y-84755D01*
X1133829Y-81800D01*
X1136151Y-78324D01*
X1137751Y-74462D01*
X1138567Y-70362D01*
Y-68272D01*
X1119436Y-47051D02*
X1123536Y-47867D01*
X1306010Y-63053D02*
X1310190D01*
X1301910Y-63868D02*
X1306010Y-63053D01*
X1298048Y-65468D02*
X1301910Y-63868D01*
X1294573Y-67790D02*
X1298048Y-65468D01*
X1291617Y-70746D02*
X1294573Y-67790D01*
X1289294Y-74222D02*
X1291617Y-70746D01*
X1287695Y-78084D02*
X1289294Y-74222D01*
X1286879Y-82184D02*
X1287695Y-78084D01*
X1286879Y-84274D02*
Y-82184D01*
Y-86364D02*
Y-84274D01*
Y-86364D02*
X1287695Y-90464D01*
X1289294Y-94326D01*
X1291617Y-97801D01*
X1294573Y-100757D01*
X1298048Y-103079D01*
X1301910Y-104679D01*
X1306010Y-105495D01*
X1310190D01*
X1314290Y-104679D01*
X1318152Y-103079D01*
X1321628Y-100757D01*
X1324583Y-97801D01*
X1326906Y-94326D01*
X1328505Y-90464D01*
X1329321Y-86364D01*
Y-84274D01*
X1310190Y-63053D02*
X1314290Y-63868D01*
X924224Y-63805D02*
X928404D01*
X920124Y-64621D02*
X924224Y-63805D01*
X916262Y-66221D02*
X920124Y-64621D01*
X912786Y-68543D02*
X916262Y-66221D01*
X909830Y-71499D02*
X912786Y-68543D01*
X907508Y-74974D02*
X909830Y-71499D01*
X905908Y-78836D02*
X907508Y-74974D01*
X905093Y-82936D02*
X905908Y-78836D01*
X905093Y-85026D02*
Y-82936D01*
Y-87116D02*
Y-85026D01*
Y-87116D02*
X905908Y-91216D01*
X907508Y-95078D01*
X909830Y-98554D01*
X912786Y-101510D01*
X916262Y-103832D01*
X920124Y-105431D01*
X924224Y-106247D01*
X928404D01*
X932504Y-105431D01*
X936366Y-103832D01*
X939841Y-101510D01*
X942797Y-98554D01*
X945119Y-95078D01*
X946719Y-91216D01*
X947534Y-87116D01*
Y-85026D01*
X928404Y-63805D02*
X932504Y-64621D01*
X1686229Y-95556D02*
X1690409D01*
X1682129Y-96371D02*
X1686229Y-95556D01*
X1678267Y-97971D02*
X1682129Y-96371D01*
X1674792Y-100293D02*
X1678267Y-97971D01*
X1671836Y-103249D02*
X1674792Y-100293D01*
X1669513Y-106725D02*
X1671836Y-103249D01*
X1667914Y-110587D02*
X1669513Y-106725D01*
X1667098Y-114686D02*
X1667914Y-110587D01*
X1667098Y-116777D02*
Y-114686D01*
Y-118867D02*
Y-116777D01*
Y-118867D02*
X1667914Y-122966D01*
X1669513Y-126828D01*
X1671836Y-130304D01*
X1674792Y-133260D01*
X1678267Y-135582D01*
X1682129Y-137182D01*
X1686229Y-137997D01*
X1690409D01*
X1694509Y-137182D01*
X1698371Y-135582D01*
X1701846Y-133260D01*
X1704802Y-130304D01*
X1707125Y-126828D01*
X1708724Y-122966D01*
X1709540Y-118867D01*
Y-116777D01*
X1690409Y-95556D02*
X1694509Y-96371D01*
X1495728Y-95556D02*
X1499908D01*
X1491628Y-96371D02*
X1495728Y-95556D01*
X1487766Y-97971D02*
X1491628Y-96371D01*
X1484290Y-100293D02*
X1487766Y-97971D01*
X1481335Y-103249D02*
X1484290Y-100293D01*
X1479012Y-106725D02*
X1481335Y-103249D01*
X1477413Y-110587D02*
X1479012Y-106725D01*
X1476597Y-114686D02*
X1477413Y-110587D01*
X1476597Y-116777D02*
Y-114686D01*
Y-118867D02*
Y-116777D01*
Y-118867D02*
X1477413Y-122966D01*
X1479012Y-126828D01*
X1481335Y-130304D01*
X1484290Y-133260D01*
X1487766Y-135582D01*
X1491628Y-137182D01*
X1495728Y-137997D01*
X1499908D01*
X1504008Y-137182D01*
X1507870Y-135582D01*
X1511345Y-133260D01*
X1514301Y-130304D01*
X1516623Y-126828D01*
X1518223Y-122966D01*
X1519039Y-118867D01*
Y-116777D01*
X1499908Y-95556D02*
X1504008Y-96371D01*
X634180Y-193101D02*
X638360D01*
X630080Y-193917D02*
X634180Y-193101D01*
X626218Y-195516D02*
X630080Y-193917D01*
X622743Y-197839D02*
X626218Y-195516D01*
X619787Y-200795D02*
X622743Y-197839D01*
X617464Y-204270D02*
X619787Y-200795D01*
X615865Y-208132D02*
X617464Y-204270D01*
X615049Y-212232D02*
X615865Y-208132D01*
X615049Y-214322D02*
Y-212232D01*
Y-216412D02*
Y-214322D01*
Y-216412D02*
X615865Y-220512D01*
X617464Y-224374D01*
X619787Y-227850D01*
X622743Y-230805D01*
X626218Y-233128D01*
X630080Y-234727D01*
X634180Y-235543D01*
X638360D01*
X642460Y-234727D01*
X646322Y-233128D01*
X649798Y-230805D01*
X652753Y-227850D01*
X655076Y-224374D01*
X656675Y-220512D01*
X657491Y-216412D01*
Y-214322D01*
X638360Y-193101D02*
X642460Y-193917D01*
X461683Y-272875D02*
X465863D01*
X457584Y-273691D02*
X461683Y-272875D01*
X453722Y-275290D02*
X457584Y-273691D01*
X450246Y-277613D02*
X453722Y-275290D01*
X447290Y-280569D02*
X450246Y-277613D01*
X444968Y-284044D02*
X447290Y-280569D01*
X443368Y-287906D02*
X444968Y-284044D01*
X442553Y-292006D02*
X443368Y-287906D01*
X442553Y-294096D02*
Y-292006D01*
Y-296186D02*
Y-294096D01*
Y-296186D02*
X443368Y-300286D01*
X444968Y-304148D01*
X447290Y-307624D01*
X450246Y-310579D01*
X453722Y-312902D01*
X457584Y-314501D01*
X461683Y-315317D01*
X465863D01*
X469963Y-314501D01*
X473825Y-312902D01*
X477301Y-310579D01*
X480257Y-307624D01*
X482579Y-304148D01*
X484179Y-300286D01*
X484994Y-296186D01*
Y-294096D01*
X465863Y-272875D02*
X469963Y-273691D01*
D187*
X1662919Y-65777D02*
D03*
X1726419Y-91177D02*
D03*
X1535918D02*
D03*
X1472418Y-65777D02*
D03*
X1282700Y-33274D02*
D03*
X1346200Y-58674D02*
D03*
X1155446Y-42672D02*
D03*
X1091946Y-17272D02*
D03*
X900914Y-34026D02*
D03*
X964414Y-59426D02*
D03*
X674370Y-188722D02*
D03*
X610870Y-163322D02*
D03*
X438373Y-243096D02*
D03*
X501874Y-268496D02*
D03*
X1774044Y99325D02*
D03*
X1710544Y124725D02*
D03*
X1472418D02*
D03*
X1535918Y99325D02*
D03*
X1347213Y132811D02*
D03*
X1283714Y158211D02*
D03*
X1092708Y172720D02*
D03*
X1156208Y147320D02*
D03*
X966210Y132811D02*
D03*
X902710Y158211D02*
D03*
X712978Y145796D02*
D03*
X776478Y120396D02*
D03*
X585216Y167132D02*
D03*
X521716Y192532D02*
D03*
X1710544Y315226D02*
D03*
X1774044Y289826D02*
D03*
X1535918D02*
D03*
X1472418Y315226D02*
D03*
X1281917Y346977D02*
D03*
X1345417Y321577D02*
D03*
X1154915Y337553D02*
D03*
X1091415Y362953D02*
D03*
X900914Y346977D02*
D03*
X964414Y321577D02*
D03*
X774700Y310388D02*
D03*
X711200Y335788D02*
D03*
X317246Y16002D02*
D03*
X380746Y-9398D02*
D03*
X1775206Y481330D02*
D03*
X1711706Y506730D02*
D03*
X1473708D02*
D03*
X1537208Y481330D02*
D03*
X1347470Y514350D02*
D03*
X1283970Y539750D02*
D03*
X1094232Y554990D02*
D03*
X1157732Y529590D02*
D03*
X966210Y513813D02*
D03*
X902710Y539213D02*
D03*
X712209Y526513D02*
D03*
X775709Y501113D02*
D03*
X584962Y453390D02*
D03*
X521462Y478790D02*
D03*
X1712468Y697738D02*
D03*
X1775968Y672338D02*
D03*
X1538986Y671068D02*
D03*
X1475486Y696468D02*
D03*
X1283714Y729715D02*
D03*
X1347213Y704315D02*
D03*
X1156716Y720344D02*
D03*
X1093216Y745744D02*
D03*
X902716Y729488D02*
D03*
X966216Y704088D02*
D03*
X773912Y689854D02*
D03*
X710412Y715254D02*
D03*
X521716Y718058D02*
D03*
X585216Y692658D02*
D03*
X288189Y-442557D02*
D03*
X297942Y-510249D02*
D03*
X220353Y-336041D02*
D03*
X210600Y-268349D02*
D03*
X128812Y-95883D02*
D03*
X138565Y-163575D02*
D03*
D188*
X136144Y362458D02*
D03*
Y387458D02*
D03*
X333398Y556602D02*
D03*
X313398D02*
D03*
X293398D02*
D03*
X273398D02*
D03*
X253398D02*
D03*
X233398D02*
D03*
X193398D02*
D03*
D189*
X155702Y880110D02*
D03*
X181102D02*
D03*
D190*
X58134Y317230D02*
D03*
Y259430D02*
D03*
D191*
X47806Y460690D02*
D03*
Y440690D02*
D03*
Y420690D02*
D03*
X22806Y460690D02*
D03*
Y440690D02*
D03*
Y420690D02*
D03*
D192*
X35306Y490690D02*
D03*
Y390690D02*
D03*
D193*
X65170Y608434D02*
D03*
X115170D02*
D03*
X65170Y753434D02*
D03*
X115170D02*
D03*
D194*
X229330Y809558D02*
D03*
X324866Y760222D02*
D03*
X315722Y761859D02*
D03*
X240030Y861568D02*
D03*
X413132Y593852D02*
D03*
X220949Y800077D02*
D03*
X209642Y796147D02*
D03*
X217873Y763823D02*
D03*
X218600Y772713D02*
D03*
X214976Y783882D02*
D03*
X204915Y803973D02*
D03*
X186944Y807974D02*
D03*
X80010Y276352D02*
D03*
X88392Y280670D02*
D03*
X398272Y573278D02*
D03*
X257302Y805942D02*
D03*
X598752Y770890D02*
D03*
X226060Y621792D02*
D03*
X249543Y407660D02*
D03*
X248192Y400441D02*
D03*
X246634Y355600D02*
D03*
X361431Y794755D02*
D03*
X614934Y815594D02*
D03*
X121920Y566674D02*
D03*
X276210Y372570D02*
D03*
X171958Y788162D02*
D03*
X313944Y648970D02*
D03*
X288290Y696722D02*
D03*
X266439Y683395D02*
D03*
X346710Y667004D02*
D03*
X284734Y601980D02*
D03*
X279654Y660146D02*
D03*
X168068Y779192D02*
D03*
X193642Y780305D02*
D03*
X369824Y800354D02*
D03*
X128016Y552704D02*
D03*
X606806Y791972D02*
D03*
X287559Y705671D02*
D03*
X156464Y769874D02*
D03*
X261874Y597916D02*
D03*
X132080Y565912D02*
D03*
X499110Y776478D02*
D03*
X271399Y379984D02*
D03*
X117356Y584708D02*
D03*
X502722Y800093D02*
D03*
X498856Y789940D02*
D03*
X539249Y783837D02*
D03*
X182727Y763585D02*
D03*
X203482Y596365D02*
D03*
X295275Y696087D02*
D03*
X263200Y715478D02*
D03*
X301498Y717550D02*
D03*
X242316Y719074D02*
D03*
X455168Y697230D02*
D03*
X822706Y218694D02*
D03*
X636270Y364490D02*
D03*
X1579372Y393446D02*
D03*
X1190498Y233172D02*
D03*
X1388364Y255778D02*
D03*
Y209550D02*
D03*
X1391158Y66548D02*
D03*
Y19812D02*
D03*
X556260Y836501D02*
D03*
X465328Y-29210D02*
D03*
X363487Y721726D02*
D03*
X554990Y844296D02*
D03*
X1410716Y842264D02*
D03*
X177437Y618635D02*
D03*
X179324Y823722D02*
D03*
X200248Y410114D02*
D03*
X682244Y802132D02*
D03*
X1588649Y810514D02*
D03*
X1601978Y785876D02*
D03*
X1578864Y602488D02*
D03*
Y541528D02*
D03*
X1578610Y415036D02*
D03*
X1574038Y217678D02*
D03*
X1575054Y195834D02*
D03*
X1576578Y25654D02*
D03*
X1575816Y9652D02*
D03*
X737616Y764540D02*
D03*
X536448Y775970D02*
D03*
X551942Y797814D02*
D03*
X647192Y792226D02*
D03*
X977650Y804925D02*
D03*
X995172Y786384D02*
D03*
X639318Y699008D02*
D03*
X639826Y588264D02*
D03*
X636270Y379476D02*
D03*
X640588Y262636D02*
D03*
X636778Y226314D02*
D03*
X641858Y76454D02*
D03*
X633730Y53848D02*
D03*
X429514Y-27178D02*
D03*
X811899Y56019D02*
D03*
X1418590Y772668D02*
D03*
X539242Y824055D02*
D03*
X424434Y704850D02*
D03*
X1015746Y38354D02*
D03*
X1181354Y640842D02*
D03*
Y625602D02*
D03*
X1178306Y456692D02*
D03*
X1178214Y435448D02*
D03*
X1189736Y217170D02*
D03*
X1182116Y81534D02*
D03*
X1180592Y43688D02*
D03*
X1389126Y636016D02*
D03*
Y599694D02*
D03*
X1388364Y445516D02*
D03*
X1387094Y408432D02*
D03*
X318389Y677291D02*
D03*
X390398Y592328D02*
D03*
X227330Y653542D02*
D03*
X811784Y33020D02*
D03*
X821690Y237490D02*
D03*
X831088Y425704D02*
D03*
X830580Y403860D02*
D03*
X826008Y607822D02*
D03*
X824992Y586486D02*
D03*
X1009904Y629920D02*
D03*
X1011174Y608330D02*
D03*
X1015746Y436626D02*
D03*
X1016254Y419354D02*
D03*
X1019810Y246634D02*
D03*
X1021334Y228600D02*
D03*
X1015238Y58969D02*
D03*
M02*
