G04*
G04 #@! TF.GenerationSoftware,Altium Limited,Altium Designer,24.8.2 (39)*
G04*
G04 Layer_Physical_Order=3*
G04 Layer_Color=128*
%FSLAX44Y44*%
%MOMM*%
G71*
G04*
G04 #@! TF.SameCoordinates,725FF0F6-F25A-4342-A06E-65F6636654C1*
G04*
G04*
G04 #@! TF.FilePolarity,Negative*
G04*
G01*
G75*
%ADD13C,0.1524*%
%ADD185C,1.0160*%
G04:AMPARAMS|DCode=186|XSize=1.724mm|YSize=1.724mm|CornerRadius=0mm|HoleSize=0mm|Usage=FLASHONLY|Rotation=0.000|XOffset=0mm|YOffset=0mm|HoleType=Round|Shape=Relief|Width=0.254mm|Gap=0.254mm|Entries=4|*
%AMTHD186*
7,0,0,1.7240,1.2160,0.2540,45*
%
%ADD186THD186*%
%ADD187C,1.6160*%
%AMTHOVALD188*
21,1,1.1000,2.1240,0,0,0.0*
1,1,2.1240,-0.5500,0.0000*
1,1,2.1240,0.5500,0.0000*
21,0,1.1000,1.6160,0,0,0.0*
1,0,1.6160,-0.5500,0.0000*
1,0,1.6160,0.5500,0.0000*
4,0,4,-0.4602,-0.0898,-1.2111,-0.8408,-1.3908,-0.6611,-0.6398,0.0898,-0.4602,-0.0898,0.0*
4,0,4,0.6398,-0.0898,1.3908,0.6611,1.2111,0.8408,0.4602,0.0898,0.6398,-0.0898,0.0*
4,0,4,-0.6398,-0.0898,-1.3908,0.6611,-1.2111,0.8408,-0.4602,0.0898,-0.6398,-0.0898,0.0*
4,0,4,0.4602,-0.0898,1.2111,-0.8408,1.3908,-0.6611,0.6398,0.0898,0.4602,-0.0898,0.0*
%
%ADD188THOVALD188*%

%AMTHOVALD189*
21,1,0.8000,2.1240,0,0,0.0*
1,1,2.1240,-0.4000,0.0000*
1,1,2.1240,0.4000,0.0000*
21,0,0.8000,1.6160,0,0,0.0*
1,0,1.6160,-0.4000,0.0000*
1,0,1.6160,0.4000,0.0000*
4,0,4,-0.3102,-0.0898,-1.0611,-0.8408,-1.2408,-0.6611,-0.4898,0.0898,-0.3102,-0.0898,0.0*
4,0,4,0.4898,-0.0898,1.2408,0.6611,1.0611,0.8408,0.3102,0.0898,0.4898,-0.0898,0.0*
4,0,4,-0.4898,-0.0898,-1.2408,0.6611,-1.0611,0.8408,-0.3102,0.0898,-0.4898,-0.0898,0.0*
4,0,4,0.3102,-0.0898,1.0611,-0.8408,1.2408,-0.6611,0.4898,0.0898,0.3102,-0.0898,0.0*
%
%ADD189THOVALD189*%

%ADD190C,1.9460*%
%ADD191C,2.5260*%
%ADD192C,5.0160*%
%ADD193C,4.0160*%
%ADD194C,1.8160*%
G04:AMPARAMS|DCode=195|XSize=2.324mm|YSize=2.324mm|CornerRadius=0mm|HoleSize=0mm|Usage=FLASHONLY|Rotation=0.000|XOffset=0mm|YOffset=0mm|HoleType=Round|Shape=Relief|Width=0.254mm|Gap=0.254mm|Entries=4|*
%AMTHD195*
7,0,0,2.3240,1.8160,0.2540,45*
%
%ADD195THD195*%
%ADD196C,2.1160*%
G04:AMPARAMS|DCode=197|XSize=2.624mm|YSize=2.624mm|CornerRadius=0mm|HoleSize=0mm|Usage=FLASHONLY|Rotation=0.000|XOffset=0mm|YOffset=0mm|HoleType=Round|Shape=Relief|Width=0.254mm|Gap=0.254mm|Entries=4|*
%AMTHD197*
7,0,0,2.6240,2.1160,0.2540,45*
%
%ADD197THD197*%
%AMTHRECTD198*
4,1,4,-1.7620,2.1620,1.7620,2.1620,1.7620,-2.1620,-1.7620,-2.1620,-1.7620,2.1620,0.0*
4,0,4,-1.5080,1.9080,1.5080,1.9080,1.5080,-1.9080,-1.5080,-1.9080,-1.5080,1.9080,0.0*
20,0,0.2540,0.0000,0.4000,-3.5240,3.9240,0*
20,0,0.2540,0.0000,-0.4000,3.5240,-3.9240,0*
20,0,0.2540,0.0000,0.4000,3.5240,3.9240,0*
20,0,0.2540,0.0000,-0.4000,-3.5240,-3.9240,0*
%
%ADD198THRECTD198*%

G04:AMPARAMS|DCode=199|XSize=5.08mm|YSize=5.08mm|CornerRadius=0mm|HoleSize=0mm|Usage=FLASHONLY|Rotation=0.000|XOffset=0mm|YOffset=0mm|HoleType=Round|Shape=Relief|Width=0.254mm|Gap=0.254mm|Entries=4|*
%AMTHD199*
7,0,0,5.0800,4.5720,0.2540,45*
%
%ADD199THD199*%
%ADD200C,5.0160*%
%ADD201C,6.9160*%
G04:AMPARAMS|DCode=202|XSize=1.8542mm|YSize=1.8542mm|CornerRadius=0mm|HoleSize=0mm|Usage=FLASHONLY|Rotation=0.000|XOffset=0mm|YOffset=0mm|HoleType=Round|Shape=Relief|Width=0.254mm|Gap=0.254mm|Entries=4|*
%AMTHD202*
7,0,0,1.8542,1.3462,0.2540,45*
%
%ADD202THD202*%
%ADD203C,1.3462*%
G36*
X1224480Y418412D02*
X1229594Y416749D01*
X1234330Y414200D01*
X1238534Y410847D01*
X1242072Y406797D01*
X1244830Y402180D01*
X1246720Y397145D01*
X1247680Y391853D01*
Y386475D01*
X1246720Y381184D01*
X1244830Y376149D01*
X1242072Y371532D01*
X1238534Y367482D01*
X1234330Y364129D01*
X1229594Y361580D01*
X1224480Y359917D01*
X1219151Y359195D01*
X1213778Y359435D01*
X1208535Y360631D01*
X1203589Y362744D01*
X1199101Y365706D01*
X1195213Y369422D01*
X1192051Y373772D01*
X1189716Y378617D01*
X1188284Y383800D01*
X1187801Y389156D01*
Y389173D01*
X1188284Y394529D01*
X1189716Y399712D01*
X1192051Y404557D01*
X1195213Y408907D01*
X1199101Y412623D01*
X1203589Y415585D01*
X1208535Y417698D01*
X1213778Y418894D01*
X1219151Y419134D01*
X1224480Y418412D01*
D02*
G37*
D13*
X2794Y910590D02*
X447040D01*
D185*
X1219151Y419134D02*
X1224480Y418412D01*
X1229594Y416749D01*
X1234330Y414200D01*
X1238534Y410847D01*
X1242072Y406797D01*
X1244830Y402180D01*
X1246720Y397145D01*
X1247680Y391853D01*
Y386475D02*
Y391853D01*
X1246720Y381184D02*
X1247680Y386475D01*
X1244830Y376149D02*
X1246720Y381184D01*
X1242072Y371532D02*
X1244830Y376149D01*
X1238534Y367482D02*
X1242072Y371532D01*
X1234330Y364129D02*
X1238534Y367482D01*
X1229594Y361580D02*
X1234330Y364129D01*
X1224480Y359917D02*
X1229594Y361580D01*
X1219151Y359195D02*
X1224480Y359917D01*
X1213778Y359435D02*
X1219151Y359195D01*
X1208535Y360631D02*
X1213778Y359435D01*
X1203589Y362744D02*
X1208535Y360631D01*
X1199101Y365706D02*
X1203589Y362744D01*
X1195213Y369422D02*
X1199101Y365706D01*
X1192051Y373772D02*
X1195213Y369422D01*
X1189716Y378617D02*
X1192051Y373772D01*
X1188284Y383800D02*
X1189716Y378617D01*
X1187801Y389156D02*
X1188284Y383800D01*
X1187801Y389156D02*
Y389173D01*
X1188284Y394529D01*
X1189716Y399712D01*
X1192051Y404557D01*
X1195213Y408907D01*
X1199101Y412623D01*
X1203589Y415585D01*
X1208535Y417698D01*
X1213778Y418894D01*
X1219151Y419134D01*
X1073831Y1000424D02*
X1793831Y1000424D01*
X1073831Y868735D02*
Y1000424D01*
X943831Y868735D02*
X1073831D01*
X943831D02*
Y1000424D01*
X563831D02*
X943831D01*
X563831Y868735D02*
Y1000424D01*
X447040Y868735D02*
X563831D01*
X447040D02*
Y999425D01*
X467Y999425D02*
X447040Y999425D01*
X1Y-24D02*
X467Y999425D01*
X1Y-24D02*
X37193D01*
X37193Y-73608D02*
X37193Y-24D01*
X37193Y-73608D02*
X121717Y-254871D01*
X202015Y-427069D01*
X286538Y-608330D01*
X845164Y-347838D01*
X795379Y-241072D02*
X845164Y-347838D01*
X795379Y-241072D02*
X913199Y-186132D01*
X962984Y-292897D01*
X1096633Y-230576D01*
X1804181Y-230576D01*
Y-54474D01*
X1890480D01*
X1890480Y868734D01*
X1793831D02*
X1890480D01*
X1793831D02*
Y1000424D01*
D186*
X242764Y747802D02*
D03*
X243018Y758724D02*
D03*
X243272Y769138D02*
D03*
Y780568D02*
D03*
X253940Y780314D02*
D03*
Y747802D02*
D03*
X254194Y758978D02*
D03*
X253940Y769138D02*
D03*
X265116D02*
D03*
Y758724D02*
D03*
X265370Y747548D02*
D03*
X276038D02*
D03*
Y758724D02*
D03*
X276292Y769392D02*
D03*
Y780314D02*
D03*
X265116D02*
D03*
X268602Y407416D02*
D03*
X276352D02*
D03*
X284102D02*
D03*
X276352Y399666D02*
D03*
Y415166D02*
D03*
D187*
X58134Y317230D02*
D03*
Y259430D02*
D03*
D188*
X63034Y331580D02*
D03*
Y245080D02*
D03*
D189*
X21334Y331580D02*
D03*
Y245080D02*
D03*
D190*
X47806Y460690D02*
D03*
Y440690D02*
D03*
Y420690D02*
D03*
X22806Y460690D02*
D03*
Y440690D02*
D03*
Y420690D02*
D03*
D191*
X35306Y490690D02*
D03*
Y390690D02*
D03*
D192*
X463773Y-294096D02*
D03*
X1307317Y295977D02*
D03*
X547116Y667058D02*
D03*
X329409Y-462752D02*
D03*
X251820Y-288545D02*
D03*
X170032Y-116079D02*
D03*
X736600Y284788D02*
D03*
X342646Y-34998D02*
D03*
X1737106Y455730D02*
D03*
X1499108D02*
D03*
X1309370Y488750D02*
D03*
X1119632Y503990D02*
D03*
X928110Y488213D02*
D03*
X737609Y475513D02*
D03*
X546862Y427790D02*
D03*
X1737868Y646738D02*
D03*
X1500886Y645468D02*
D03*
X1309114Y678715D02*
D03*
X1118616Y694744D02*
D03*
X928116Y678488D02*
D03*
X735812Y664254D02*
D03*
X1688319Y-116777D02*
D03*
X1497818D02*
D03*
X1308100Y-84274D02*
D03*
X1117346Y-68272D02*
D03*
X926314Y-85026D02*
D03*
X636270Y-214322D02*
D03*
X1735944Y73725D02*
D03*
X1497818D02*
D03*
X1309113Y107211D02*
D03*
X1118108Y121720D02*
D03*
X928110Y107211D02*
D03*
X738378Y94796D02*
D03*
X547116Y141532D02*
D03*
X1735944Y264226D02*
D03*
X1497818D02*
D03*
X1116815Y311953D02*
D03*
X926314Y295977D02*
D03*
D193*
X501874Y-268496D02*
D03*
X438373Y-243096D02*
D03*
X1345417Y321577D02*
D03*
X1281917Y346977D02*
D03*
X521716Y718058D02*
D03*
X585216Y692658D02*
D03*
X288189Y-442557D02*
D03*
X297942Y-510249D02*
D03*
X220353Y-336041D02*
D03*
X210600Y-268349D02*
D03*
X128812Y-95883D02*
D03*
X138565Y-163575D02*
D03*
X774700Y310388D02*
D03*
X711200Y335788D02*
D03*
X317246Y16002D02*
D03*
X380746Y-9398D02*
D03*
X1775206Y481330D02*
D03*
X1711706Y506730D02*
D03*
X1473708D02*
D03*
X1537208Y481330D02*
D03*
X1347470Y514350D02*
D03*
X1283970Y539750D02*
D03*
X1094232Y554990D02*
D03*
X1157732Y529590D02*
D03*
X966210Y513813D02*
D03*
X902710Y539213D02*
D03*
X712209Y526513D02*
D03*
X775709Y501113D02*
D03*
X584962Y453390D02*
D03*
X521462Y478790D02*
D03*
X1712468Y697738D02*
D03*
X1775968Y672338D02*
D03*
X1538986Y671068D02*
D03*
X1475486Y696468D02*
D03*
X1283714Y729715D02*
D03*
X1347214Y704315D02*
D03*
X1156716Y720344D02*
D03*
X1093216Y745744D02*
D03*
X902716Y729488D02*
D03*
X966216Y704088D02*
D03*
X773912Y689854D02*
D03*
X710412Y715254D02*
D03*
X1662919Y-65776D02*
D03*
X1726419Y-91176D02*
D03*
X1535918D02*
D03*
X1472418Y-65776D02*
D03*
X1282700Y-33274D02*
D03*
X1346200Y-58674D02*
D03*
X1155446Y-42672D02*
D03*
X1091946Y-17272D02*
D03*
X900914Y-34026D02*
D03*
X964414Y-59426D02*
D03*
X674370Y-188722D02*
D03*
X610870Y-163322D02*
D03*
X1774044Y99325D02*
D03*
X1710544Y124725D02*
D03*
X1472418D02*
D03*
X1535918Y99325D02*
D03*
X1347213Y132811D02*
D03*
X1283713Y158211D02*
D03*
X1092708Y172720D02*
D03*
X1156208Y147320D02*
D03*
X966210Y132811D02*
D03*
X902710Y158211D02*
D03*
X712978Y145796D02*
D03*
X776478Y120396D02*
D03*
X585216Y167132D02*
D03*
X521716Y192532D02*
D03*
X1710544Y315226D02*
D03*
X1774044Y289826D02*
D03*
X1535918D02*
D03*
X1472418Y315226D02*
D03*
X1154915Y337553D02*
D03*
X1091415Y362953D02*
D03*
X900914Y346977D02*
D03*
X964414Y321577D02*
D03*
D194*
X333398Y556602D02*
D03*
X313398D02*
D03*
X293398D02*
D03*
X273398D02*
D03*
X253398D02*
D03*
X233398D02*
D03*
X193398D02*
D03*
X136144Y387458D02*
D03*
Y362458D02*
D03*
D195*
X213398Y556602D02*
D03*
X136144Y337458D02*
D03*
D196*
X65170Y608434D02*
D03*
X115170D02*
D03*
X65170Y753434D02*
D03*
X115170D02*
D03*
D197*
X90170D02*
D03*
D198*
X33170Y678434D02*
D03*
X147170D02*
D03*
D199*
X36576Y869950D02*
D03*
X782574Y-330962D02*
D03*
D200*
X1499615Y456463D02*
D03*
X1737741Y75460D02*
D03*
X1118612Y-67314D02*
D03*
X250688Y-288346D02*
D03*
X737609Y94511D02*
D03*
X1499615Y265962D02*
D03*
X1118612Y694691D02*
D03*
X928110Y297712D02*
D03*
X547108Y427888D02*
D03*
Y665990D02*
D03*
X737609Y285012D02*
D03*
X1309113Y678715D02*
D03*
Y107211D02*
D03*
X547108Y142136D02*
D03*
X463773Y-294096D02*
D03*
X1309113Y-83291D02*
D03*
X1499615Y75460D02*
D03*
X1499615Y646939D02*
D03*
X1737742Y456463D02*
D03*
X1690116Y-115041D02*
D03*
X928110Y-83291D02*
D03*
X170195Y-115701D02*
D03*
X928110Y107211D02*
D03*
X1309113Y297712D02*
D03*
X928110Y678715D02*
D03*
Y488213D02*
D03*
X737609Y475513D02*
D03*
Y665990D02*
D03*
X1118612Y504190D02*
D03*
X1309113Y488213D02*
D03*
X1118612Y123188D02*
D03*
X342840Y-35208D02*
D03*
X636418Y-213577D02*
D03*
X1499615Y-115041D02*
D03*
X1737742Y265962D02*
D03*
Y646939D02*
D03*
D201*
X361716Y-355465D02*
D03*
D202*
X415290Y821690D02*
D03*
X393700Y605790D02*
D03*
Y519430D02*
D03*
X415290Y476250D02*
D03*
X393700Y433070D02*
D03*
X415290Y389890D02*
D03*
X393700Y346710D02*
D03*
X415290Y303530D02*
D03*
X393700Y260350D02*
D03*
X415290Y217170D02*
D03*
X393700Y173990D02*
D03*
Y87630D02*
D03*
X415290Y44450D02*
D03*
X372110Y648970D02*
D03*
X350520Y605790D02*
D03*
X372110Y562610D02*
D03*
X350520Y519430D02*
D03*
X372110Y476250D02*
D03*
X350520Y433070D02*
D03*
X372110Y389890D02*
D03*
X350520Y346710D02*
D03*
X372110Y303530D02*
D03*
X350520Y260350D02*
D03*
X372110Y217170D02*
D03*
Y130810D02*
D03*
X350520Y87630D02*
D03*
X372110Y44450D02*
D03*
X350520Y1270D02*
D03*
X328930Y735330D02*
D03*
X307340Y605790D02*
D03*
Y519430D02*
D03*
Y346710D02*
D03*
Y260350D02*
D03*
Y173990D02*
D03*
X328930Y130810D02*
D03*
X307340Y87630D02*
D03*
X328930Y44450D02*
D03*
X264160Y519430D02*
D03*
Y260350D02*
D03*
X285750Y217170D02*
D03*
X264160Y173990D02*
D03*
X285750Y130810D02*
D03*
X264160Y87630D02*
D03*
Y1270D02*
D03*
X242570Y562610D02*
D03*
X220980Y519430D02*
D03*
Y433070D02*
D03*
X242570Y389890D02*
D03*
X220980Y260350D02*
D03*
X242570Y217170D02*
D03*
X220980Y173990D02*
D03*
X242570Y130810D02*
D03*
X220980Y87630D02*
D03*
X242570Y44450D02*
D03*
X220980Y1270D02*
D03*
X177800Y692150D02*
D03*
Y605790D02*
D03*
Y519430D02*
D03*
X199390Y476250D02*
D03*
X177800Y433070D02*
D03*
X199390Y303530D02*
D03*
X177800Y260350D02*
D03*
X199390Y217170D02*
D03*
X177800Y173990D02*
D03*
X199390Y130810D02*
D03*
X177800Y87630D02*
D03*
X199390Y44450D02*
D03*
X177800Y1270D02*
D03*
X156210Y821690D02*
D03*
Y735330D02*
D03*
X134620Y605790D02*
D03*
Y519430D02*
D03*
X156210Y476250D02*
D03*
X134620Y433070D02*
D03*
X156210Y303530D02*
D03*
Y217170D02*
D03*
X134620Y173990D02*
D03*
X156210Y130810D02*
D03*
X134620Y87630D02*
D03*
X156210Y44450D02*
D03*
X134620Y1270D02*
D03*
X91440Y605790D02*
D03*
X113030Y562610D02*
D03*
X91440Y346710D02*
D03*
X113030Y217170D02*
D03*
X91440Y173990D02*
D03*
X113030Y130810D02*
D03*
Y44450D02*
D03*
X69850Y735330D02*
D03*
Y648970D02*
D03*
X48260Y605790D02*
D03*
X69850Y562610D02*
D03*
Y476250D02*
D03*
Y389890D02*
D03*
X48260Y346710D02*
D03*
Y260350D02*
D03*
X69850Y217170D02*
D03*
X48260Y173990D02*
D03*
X69850Y130810D02*
D03*
X48260Y87630D02*
D03*
X69850Y44450D02*
D03*
X48260Y1270D02*
D03*
X123698Y579120D02*
D03*
X280670Y826135D02*
D03*
X289814Y817245D02*
D03*
X267796Y806878D02*
D03*
X278511Y807339D02*
D03*
X262382Y847090D02*
D03*
X262128Y866902D02*
D03*
X280670Y867918D02*
D03*
X251714Y415544D02*
D03*
X30734Y155956D02*
D03*
X321945Y750189D02*
D03*
X338201Y777621D02*
D03*
X269488Y661442D02*
D03*
X206629Y781685D02*
D03*
X306324Y494538D02*
D03*
X175998Y771593D02*
D03*
X228092Y419354D02*
D03*
X301752Y411988D02*
D03*
X273431Y687925D02*
D03*
X338963Y464947D02*
D03*
X433204Y574160D02*
D03*
X441579Y590677D02*
D03*
X676402Y815340D02*
D03*
X624078Y791464D02*
D03*
X594106Y638810D02*
D03*
X780874Y641858D02*
D03*
X596148Y388102D02*
D03*
X584195Y106167D02*
D03*
X1735074Y556437D02*
D03*
X1356746Y67178D02*
D03*
X1161796Y81534D02*
D03*
X976884Y649986D02*
D03*
X1165352Y653796D02*
D03*
X1362710Y644398D02*
D03*
X1543128Y618490D02*
D03*
X1537970Y42672D02*
D03*
X787654Y439166D02*
D03*
X972566Y453644D02*
D03*
X1160272Y472362D02*
D03*
X1350264Y462749D02*
D03*
X1540002Y434340D02*
D03*
X1781810Y424434D02*
D03*
X1786890Y231902D02*
D03*
X1537467Y226309D02*
D03*
X1357884Y258318D02*
D03*
X1173988Y277114D02*
D03*
X985520Y267716D02*
D03*
X777494Y62992D02*
D03*
X777870Y247264D02*
D03*
X1777746Y42672D02*
D03*
X977392Y60706D02*
D03*
X965200Y-110998D02*
D03*
X1154176Y-107950D02*
D03*
X1353312Y-123190D02*
D03*
X1535684Y-138430D02*
D03*
X1742694Y-145288D02*
D03*
X389128Y-65532D02*
D03*
X358902Y-213614D02*
D03*
X410464Y-389382D02*
D03*
X688340Y-250952D02*
D03*
X506984Y-326136D02*
D03*
X265430Y-44196D02*
D03*
X150643Y332564D02*
D03*
X407924Y902716D02*
D03*
X382524D02*
D03*
X369824D02*
D03*
X357124D02*
D03*
X344424D02*
D03*
X331724D02*
D03*
X319024D02*
D03*
X306324D02*
D03*
X293624D02*
D03*
X242824D02*
D03*
X230124D02*
D03*
X217424D02*
D03*
X204724D02*
D03*
X192024D02*
D03*
X179324D02*
D03*
X166624D02*
D03*
X153924D02*
D03*
X141224D02*
D03*
X128524D02*
D03*
X115824D02*
D03*
X103124D02*
D03*
X90424D02*
D03*
X77724D02*
D03*
X65024D02*
D03*
X52324D02*
D03*
X39624D02*
D03*
X26924D02*
D03*
X14224D02*
D03*
X336169Y736219D02*
D03*
X202819Y825881D02*
D03*
X270891Y620141D02*
D03*
X280670Y830834D02*
D03*
Y838708D02*
D03*
Y847344D02*
D03*
Y856742D02*
D03*
X280416Y883412D02*
D03*
Y890524D02*
D03*
Y897636D02*
D03*
X260350D02*
D03*
X261874Y890524D02*
D03*
Y883412D02*
D03*
X280416Y876300D02*
D03*
X262128Y856488D02*
D03*
Y876300D02*
D03*
X267716Y455676D02*
D03*
X262516Y446292D02*
D03*
Y433965D02*
D03*
X65532Y799338D02*
D03*
X180975Y838073D02*
D03*
X284607Y807593D02*
D03*
X335026Y790956D02*
D03*
X305054Y797306D02*
D03*
X469773Y811403D02*
D03*
X290957Y636143D02*
D03*
X270121Y643763D02*
D03*
X129413Y443865D02*
D03*
X131699Y473837D02*
D03*
X107823Y300101D02*
D03*
X110597Y264307D02*
D03*
X531749Y770001D02*
D03*
X259461Y679831D02*
D03*
X215773Y695071D02*
D03*
X417322Y637032D02*
D03*
X368427Y775524D02*
D03*
X338201Y375031D02*
D03*
X337947Y447421D02*
D03*
X266065Y338709D02*
D03*
X285115Y337947D02*
D03*
X80645Y323723D02*
D03*
X78502Y251189D02*
D03*
X220980Y866140D02*
D03*
X241554Y845820D02*
D03*
X224050Y723011D02*
D03*
X215767Y703193D02*
D03*
X255016Y376428D02*
D03*
X245683Y370738D02*
D03*
X263906Y363474D02*
D03*
X203454Y365252D02*
D03*
X176756Y366762D02*
D03*
X176022Y387858D02*
D03*
X261954Y839181D02*
D03*
D203*
X257302Y805942D02*
D03*
X598752Y770890D02*
D03*
X226060Y621792D02*
D03*
X241586Y860565D02*
D03*
D03*
D03*
X249543Y407660D02*
D03*
X248192Y400441D02*
D03*
X246634Y355600D02*
D03*
X361431Y794755D02*
D03*
X315722Y766064D02*
D03*
X315446Y759720D02*
D03*
X614934Y815594D02*
D03*
X121920Y566674D02*
D03*
X276210Y372570D02*
D03*
X214976Y783882D02*
D03*
X171958Y788162D02*
D03*
X313944Y648970D02*
D03*
X288290Y696722D02*
D03*
X266439Y683395D02*
D03*
X346710Y667004D02*
D03*
X284734Y601980D02*
D03*
X279654Y660146D02*
D03*
X168068Y779192D02*
D03*
X193642Y780305D02*
D03*
X369824Y800354D02*
D03*
X128016Y552704D02*
D03*
X606806Y791972D02*
D03*
X287559Y705671D02*
D03*
X156464Y769874D02*
D03*
X233013Y810291D02*
D03*
X261874Y597916D02*
D03*
X132080Y565912D02*
D03*
X499110Y776478D02*
D03*
X271399Y379984D02*
D03*
X204915Y803973D02*
D03*
X210058Y796544D02*
D03*
X117356Y584708D02*
D03*
X218600Y772713D02*
D03*
X502722Y800093D02*
D03*
X498856Y789940D02*
D03*
X539249Y783837D02*
D03*
X182727Y763585D02*
D03*
X203482Y596365D02*
D03*
X295275Y696087D02*
D03*
X263200Y715478D02*
D03*
X301498Y717550D02*
D03*
X218120Y765260D02*
D03*
X242316Y719074D02*
D03*
X455168Y697230D02*
D03*
X822706Y218694D02*
D03*
D03*
D03*
X636270Y364490D02*
D03*
X1579372Y393446D02*
D03*
X1190498Y233172D02*
D03*
X280416Y905256D02*
D03*
X259842D02*
D03*
X1388364Y255778D02*
D03*
Y209550D02*
D03*
X1391158Y66548D02*
D03*
Y19812D02*
D03*
X556260Y836501D02*
D03*
X465328Y-29210D02*
D03*
X363474Y723392D02*
D03*
X554990Y844296D02*
D03*
X1410716Y842264D02*
D03*
X186944Y807974D02*
D03*
X177437Y618635D02*
D03*
X179324Y823722D02*
D03*
X200248Y410114D02*
D03*
X682244Y802132D02*
D03*
X1588649Y810514D02*
D03*
X1601978Y785876D02*
D03*
X1578864Y602488D02*
D03*
Y541528D02*
D03*
X1578610Y415036D02*
D03*
X1574038Y217678D02*
D03*
X1575054Y195834D02*
D03*
X1576578Y25654D02*
D03*
X1575816Y9652D02*
D03*
X737616Y764540D02*
D03*
X536448Y775970D02*
D03*
X551942Y797814D02*
D03*
X647192Y792226D02*
D03*
X977650Y804925D02*
D03*
X995172Y786384D02*
D03*
X639318Y699008D02*
D03*
X639826Y588264D02*
D03*
X636270Y379476D02*
D03*
X640588Y262636D02*
D03*
X636778Y226314D02*
D03*
X641858Y76454D02*
D03*
X633730Y53848D02*
D03*
X429514Y-27178D02*
D03*
X811899Y56019D02*
D03*
X1418590Y772668D02*
D03*
X539242Y824055D02*
D03*
X424434Y704850D02*
D03*
X1015746Y38354D02*
D03*
X1181354Y640842D02*
D03*
Y625602D02*
D03*
X1178306Y456692D02*
D03*
X1178214Y435448D02*
D03*
X1189736Y217170D02*
D03*
X1182116Y81534D02*
D03*
X1180592Y43688D02*
D03*
X1389126Y636016D02*
D03*
Y599694D02*
D03*
X1388364Y445516D02*
D03*
X1387094Y408432D02*
D03*
X318389Y677291D02*
D03*
X398272Y573278D02*
D03*
X390398Y592328D02*
D03*
X410464Y593852D02*
D03*
X227330Y653542D02*
D03*
X811784Y33020D02*
D03*
X821690Y237490D02*
D03*
D03*
D03*
X831088Y425704D02*
D03*
X830580Y403860D02*
D03*
X826008Y607822D02*
D03*
X824992Y586486D02*
D03*
X1009904Y629920D02*
D03*
X1011174Y608330D02*
D03*
X1015746Y436626D02*
D03*
X1016254Y419354D02*
D03*
X1019810Y246634D02*
D03*
X1021334Y228600D02*
D03*
X1015238Y58969D02*
D03*
M02*
