G04*
G04 #@! TF.GenerationSoftware,Altium Limited,Altium Designer,24.5.2 (23)*
G04*
G04 Layer_Color=65535*
%FSLAX44Y44*%
%MOMM*%
G71*
G04*
G04 #@! TF.SameCoordinates,B2DEAD2E-F19F-4043-ADCB-FE0AD24F75F7*
G04*
G04*
G04 #@! TF.FilePolarity,Positive*
G04*
G01*
G75*
%ADD10C,0.3000*%
%ADD11C,0.2000*%
%ADD12C,0.2500*%
%ADD13C,0.1000*%
%ADD14C,0.2540*%
%ADD15C,0.1524*%
%ADD16C,0.1270*%
%ADD17C,0.2050*%
%ADD18C,0.2032*%
D10*
X391158Y809845D02*
G03*
X391027Y809851I0J1500D01*
G01*
D11*
X403732Y624180D02*
G03*
X403732Y624180I-1000J0D01*
G01*
X502030Y809600D02*
G03*
X502030Y809600I-1000J0D01*
G01*
X334398Y532602D02*
G03*
X334398Y532602I-1000J0D01*
G01*
X267352Y377916D02*
G03*
X267352Y377916I-1000J0D01*
G01*
X82334Y320330D02*
G03*
X82334Y320330I-1000J0D01*
G01*
X446532Y971190D02*
G03*
X446532Y971190I-1000J0D01*
G01*
X70536Y460652D02*
G03*
X70536Y460652I-1000J0D01*
G01*
X156766Y827200D02*
X162766D01*
X156766Y849200D02*
X162766D01*
Y827200D02*
Y849200D01*
X156766Y827200D02*
Y849200D01*
X160352Y560118D02*
Y566118D01*
X138352Y560118D02*
Y566118D01*
X160352D01*
X138352Y560118D02*
X160352D01*
X610284Y810816D02*
Y816816D01*
X632284Y810816D02*
Y816816D01*
X610284Y810816D02*
X632284D01*
X610284Y816816D02*
X632284D01*
X72400Y834892D02*
Y835142D01*
Y802142D02*
Y802392D01*
X105400Y834892D02*
Y835142D01*
Y802142D02*
Y802392D01*
X72400Y835142D02*
X77500D01*
X100300D02*
X105400D01*
X72400Y802142D02*
X77500D01*
X100300D02*
X105400D01*
X319548Y772498D02*
X321548D01*
X319548Y782998D02*
X321548D01*
X351806Y762084D02*
X353806D01*
X351806Y772584D02*
X353806D01*
X238522Y874946D02*
X240522D01*
X238522Y864446D02*
X240522D01*
X248428Y831512D02*
X250428D01*
X248428Y821012D02*
X250428D01*
X353063Y742500D02*
X355063D01*
X353063Y732000D02*
X355063D01*
X350944Y826532D02*
Y828532D01*
X340444Y826532D02*
Y828532D01*
X232426Y698924D02*
X234426D01*
X232426Y688424D02*
X234426D01*
X253576Y698008D02*
Y700008D01*
X264076Y698008D02*
Y700008D01*
X193210Y762524D02*
Y764524D01*
X182710Y762524D02*
Y764524D01*
X269070Y697754D02*
Y699754D01*
X279570Y697754D02*
Y699754D01*
X232426Y714164D02*
X234426D01*
X232426Y703664D02*
X234426D01*
X249444Y656420D02*
X251444D01*
X249444Y666920D02*
X251444D01*
X249444Y637116D02*
X251444D01*
X249444Y647616D02*
X251444D01*
X415814Y905426D02*
X417814D01*
X415814Y894926D02*
X417814D01*
X213530Y762664D02*
Y764664D01*
X203030Y762664D02*
Y764664D01*
X263482Y471948D02*
Y473948D01*
X273982Y471948D02*
Y473948D01*
X289704Y356610D02*
Y358610D01*
X279204Y356610D02*
Y358610D01*
X254498Y344486D02*
X256498D01*
X254498Y354986D02*
X256498D01*
X244772Y409350D02*
Y411350D01*
X234272Y409350D02*
Y411350D01*
X220642Y409210D02*
Y411210D01*
X210142Y409210D02*
Y411210D01*
X667936Y814848D02*
Y816848D01*
X657436Y814848D02*
Y816848D01*
X265954Y846244D02*
X267954D01*
X265954Y835744D02*
X267954D01*
X351552Y758360D02*
X353552D01*
X351552Y747860D02*
X353552D01*
X238776Y879940D02*
X240776D01*
X238776Y890440D02*
X240776D01*
X277010Y820436D02*
Y822436D01*
X266509Y820436D02*
Y822436D01*
X277010Y879110D02*
Y881110D01*
X266510Y879110D02*
Y881110D01*
X284242Y657776D02*
X286242D01*
X284242Y647276D02*
X286242D01*
X321572Y750824D02*
X323572D01*
X292362Y485648D02*
X294362D01*
X114554Y434094D02*
Y436094D01*
X295282Y728304D02*
Y731004D01*
X292582Y728304D02*
X295282D01*
X224282D02*
X226982D01*
X224282D02*
Y731004D01*
Y796604D02*
Y799304D01*
X226982D01*
X295282Y796604D02*
Y799304D01*
X292582D02*
X295282D01*
D12*
X172016Y824200D02*
G03*
X172016Y824200I-1250J0D01*
G01*
X164602Y574118D02*
G03*
X164602Y574118I-1250J0D01*
G01*
X608534Y802816D02*
G03*
X608534Y802816I-1250J0D01*
G01*
X303032Y729804D02*
G03*
X303032Y729804I-1250J0D01*
G01*
D13*
X68900Y835142D02*
G03*
X68900Y835142I-500J0D01*
G01*
X277375Y835673D02*
G03*
X277375Y835673I-500J0D01*
G01*
X266938Y811515D02*
G03*
X266938Y811515I-500J0D01*
G01*
X266938Y870189D02*
G03*
X266938Y870189I-500J0D01*
G01*
X295663Y647205D02*
G03*
X295663Y647205I-500J0D01*
G01*
X333572Y743824D02*
G03*
X333572Y743824I-500J0D01*
G01*
X304362Y478648D02*
G03*
X304362Y478648I-500J0D01*
G01*
X122054Y445594D02*
G03*
X122054Y445594I-500J0D01*
G01*
D14*
X184016Y701802D02*
G03*
X184016Y701802I-1136J0D01*
G01*
X396494Y815594D02*
X472694D01*
X396494Y741934D02*
Y815594D01*
Y741934D02*
X472694D01*
Y815594D01*
X172212Y635508D02*
Y684022D01*
Y635508D02*
X220726D01*
X172212Y684022D02*
X220726D01*
Y635508D02*
Y684022D01*
X187198Y341884D02*
X235712D01*
Y390398D01*
X187198Y341884D02*
Y390398D01*
X235712D01*
X1728197Y-35297D02*
X1758931D01*
X1619993D02*
X1646155D01*
X1679683Y-53331D02*
Y-48759D01*
Y-53331D02*
X1680445Y-54093D01*
X1706353D01*
X1707115Y-53331D01*
Y-49267D01*
X1537696Y-35297D02*
X1568430D01*
X1429492D02*
X1455654D01*
X1489182Y-53331D02*
Y-48759D01*
Y-53331D02*
X1489944Y-54093D01*
X1515852D01*
X1516614Y-53331D01*
Y-49267D01*
X1347978Y-2794D02*
X1378712D01*
X1239774D02*
X1265936D01*
X1299464Y-20828D02*
Y-16256D01*
Y-20828D02*
X1300226Y-21590D01*
X1326134D01*
X1326896Y-20828D01*
Y-16764D01*
X1157224Y13208D02*
X1187958D01*
X1049020D02*
X1075182D01*
X1108710Y-4826D02*
Y-254D01*
Y-4826D02*
X1109472Y-5588D01*
X1135380D01*
X1136142Y-4826D01*
Y-762D01*
X966192Y-3546D02*
X996926D01*
X857988D02*
X884150D01*
X917678Y-21580D02*
Y-17008D01*
Y-21580D02*
X918440Y-22342D01*
X944348D01*
X945110Y-21580D01*
Y-17516D01*
X676148Y-132842D02*
X706882D01*
X567944D02*
X594106D01*
X627634Y-150876D02*
Y-146304D01*
Y-150876D02*
X628396Y-151638D01*
X654304D01*
X655066Y-150876D01*
Y-146812D01*
X503652Y-212616D02*
X534385D01*
X395448D02*
X421609D01*
X455137Y-230650D02*
Y-226078D01*
Y-230650D02*
X455900Y-231412D01*
X481808D01*
X482570Y-230650D01*
Y-226586D01*
X1775822Y155205D02*
X1806556D01*
X1667618D02*
X1693780D01*
X1727308Y137171D02*
Y141743D01*
Y137171D02*
X1728070Y136409D01*
X1753978D01*
X1754740Y137171D01*
Y141235D01*
X1537696Y155205D02*
X1568430D01*
X1429492D02*
X1455654D01*
X1489182Y137171D02*
Y141743D01*
Y137171D02*
X1489944Y136409D01*
X1515852D01*
X1516614Y137171D01*
Y141235D01*
X1348992Y188691D02*
X1379725D01*
X1240788D02*
X1266949D01*
X1300477Y170657D02*
Y175229D01*
Y170657D02*
X1301239Y169895D01*
X1327148D01*
X1327910Y170657D01*
Y174721D01*
X1157986Y203200D02*
X1188720D01*
X1049782D02*
X1075944D01*
X1109472Y185166D02*
Y189738D01*
Y185166D02*
X1110234Y184404D01*
X1136142D01*
X1136904Y185166D01*
Y189230D01*
X967988Y188691D02*
X998722D01*
X859784D02*
X885946D01*
X919474Y170657D02*
Y175229D01*
Y170657D02*
X920236Y169895D01*
X946144D01*
X946906Y170657D01*
Y174721D01*
X778256Y176276D02*
X808990D01*
X670052D02*
X696214D01*
X729742Y158242D02*
Y162814D01*
Y158242D02*
X730504Y157480D01*
X756412D01*
X757174Y158242D01*
Y162306D01*
X586994Y223012D02*
X617728D01*
X478790D02*
X504952D01*
X538480Y204978D02*
Y209550D01*
Y204978D02*
X539242Y204216D01*
X565150D01*
X565912Y204978D01*
Y209042D01*
X1775822Y345706D02*
X1806556D01*
X1667618D02*
X1693780D01*
X1727308Y327672D02*
Y332244D01*
Y327672D02*
X1728070Y326910D01*
X1753978D01*
X1754740Y327672D01*
Y331736D01*
X1537696Y345706D02*
X1568430D01*
X1429492D02*
X1455654D01*
X1489182Y327672D02*
Y332244D01*
Y327672D02*
X1489944Y326910D01*
X1515852D01*
X1516614Y327672D01*
Y331736D01*
X1347195Y377457D02*
X1377929D01*
X1238991D02*
X1265153D01*
X1298681Y359423D02*
Y363995D01*
Y359423D02*
X1299443Y358661D01*
X1325351D01*
X1326113Y359423D01*
Y363487D01*
X1156693Y393433D02*
X1187427D01*
X1048489D02*
X1074651D01*
X1108179Y375399D02*
Y379971D01*
Y375399D02*
X1108941Y374637D01*
X1134849D01*
X1135611Y375399D01*
Y379463D01*
X966192Y377457D02*
X996926D01*
X857988D02*
X884150D01*
X917678Y359423D02*
Y363995D01*
Y359423D02*
X918440Y358661D01*
X944348D01*
X945110Y359423D01*
Y363487D01*
X776478Y366268D02*
X807212D01*
X668274D02*
X694436D01*
X727964Y348234D02*
Y352806D01*
Y348234D02*
X728726Y347472D01*
X754634D01*
X755396Y348234D01*
Y352298D01*
X380920Y44536D02*
X411654D01*
X272716D02*
X298878D01*
X332406Y26502D02*
Y31074D01*
Y26502D02*
X333168Y25740D01*
X359076D01*
X359838Y26502D01*
Y30566D01*
X1776984Y537210D02*
X1807718D01*
X1668780D02*
X1694942D01*
X1728470Y519176D02*
Y523748D01*
Y519176D02*
X1729232Y518414D01*
X1755140D01*
X1755902Y519176D01*
Y523240D01*
X1538986Y537210D02*
X1569720D01*
X1430782D02*
X1456944D01*
X1490472Y519176D02*
Y523748D01*
Y519176D02*
X1491234Y518414D01*
X1517142D01*
X1517904Y519176D01*
Y523240D01*
X1349248Y570230D02*
X1379982D01*
X1241044D02*
X1267206D01*
X1300734Y552196D02*
Y556768D01*
Y552196D02*
X1301496Y551434D01*
X1327404D01*
X1328166Y552196D01*
Y556260D01*
X1159510Y585470D02*
X1190244D01*
X1051306D02*
X1077468D01*
X1110996Y567436D02*
Y572008D01*
Y567436D02*
X1111758Y566674D01*
X1137666D01*
X1138428Y567436D01*
Y571500D01*
X967989Y569693D02*
X998723D01*
X859784D02*
X885947D01*
X919474Y551659D02*
Y556231D01*
Y551659D02*
X920237Y550897D01*
X946144D01*
X946907Y551659D01*
Y555723D01*
X777487Y556993D02*
X808221D01*
X669283D02*
X695445D01*
X728973Y538959D02*
Y543531D01*
Y538959D02*
X729735Y538197D01*
X755643D01*
X756405Y538959D01*
Y543023D01*
X585189Y507632D02*
X615923D01*
X476985D02*
X503147D01*
X536675Y489598D02*
Y494170D01*
Y489598D02*
X537437Y488836D01*
X563345D01*
X564107Y489598D01*
Y493662D01*
X1777746Y728218D02*
X1808480D01*
X1669542D02*
X1695704D01*
X1729232Y710184D02*
Y714756D01*
Y710184D02*
X1729994Y709422D01*
X1755902D01*
X1756664Y710184D01*
Y714248D01*
X1540764Y726948D02*
X1571498D01*
X1432560D02*
X1458722D01*
X1492250Y708914D02*
Y713486D01*
Y708914D02*
X1493012Y708152D01*
X1518920D01*
X1519682Y708914D01*
Y712978D01*
X1348992Y760195D02*
X1379725D01*
X1240788D02*
X1266949D01*
X1300477Y742161D02*
Y746733D01*
Y742161D02*
X1301239Y741399D01*
X1327148D01*
X1327910Y742161D01*
Y746225D01*
X1156693Y774436D02*
X1187427D01*
X1048489D02*
X1074651D01*
X1108179Y756402D02*
Y760974D01*
Y756402D02*
X1108941Y755640D01*
X1134849D01*
X1135611Y756402D01*
Y760466D01*
X966192Y758459D02*
X996926D01*
X857988D02*
X884150D01*
X917678Y740425D02*
Y744997D01*
Y740425D02*
X918440Y739663D01*
X944348D01*
X945110Y740425D01*
Y744489D01*
X775690Y745734D02*
X806424D01*
X667486D02*
X693648D01*
X727176Y727700D02*
Y732272D01*
Y727700D02*
X727938Y726938D01*
X753846D01*
X754608Y727700D01*
Y731764D01*
X586994Y748538D02*
X617728D01*
X478790D02*
X504952D01*
X538480Y730504D02*
Y735076D01*
Y730504D02*
X539242Y729742D01*
X565150D01*
X565912Y730504D01*
Y734568D01*
X223540Y-442341D02*
X238906Y-468957D01*
X279928Y-540008D02*
X293008Y-562664D01*
X274822Y-504240D02*
X278781Y-501954D01*
X279060Y-500914D01*
X266106Y-478476D02*
X279060Y-500914D01*
X265065Y-478198D02*
X266106Y-478476D01*
X261546Y-480230D02*
X265065Y-478198D01*
X145951Y-268132D02*
X161318Y-294749D01*
X202339Y-365799D02*
X215420Y-388456D01*
X197233Y-330032D02*
X201192Y-327746D01*
X201471Y-326705D01*
X188517Y-304268D02*
X201471Y-326705D01*
X187477Y-303990D02*
X188517Y-304268D01*
X183957Y-306021D02*
X187477Y-303990D01*
X64163Y-95667D02*
X79530Y-122283D01*
X120551Y-193333D02*
X133632Y-215990D01*
X115445Y-157566D02*
X119404Y-155280D01*
X119683Y-154239D01*
X106729Y-131802D02*
X119683Y-154239D01*
X105688Y-131524D02*
X106729Y-131802D01*
X102169Y-133555D02*
X105688Y-131524D01*
X221234Y472284D02*
X258572D01*
Y434946D02*
Y472284D01*
X221234Y434946D02*
X258572D01*
X221234D02*
Y472284D01*
X666747Y854198D02*
X664208Y856737D01*
X659129D01*
X656590Y854198D01*
Y844041D01*
X659129Y841502D01*
X664208D01*
X666747Y844041D01*
X681982Y841502D02*
X671825D01*
X681982Y851659D01*
Y854198D01*
X679443Y856737D01*
X674364D01*
X671825Y854198D01*
X697217Y856737D02*
X692139Y854198D01*
X687060Y849119D01*
Y844041D01*
X689599Y841502D01*
X694678D01*
X697217Y844041D01*
Y846580D01*
X694678Y849119D01*
X687060D01*
X172720Y560832D02*
Y576067D01*
X180338D01*
X182877Y573528D01*
Y568450D01*
X180338Y565910D01*
X172720D01*
X177798D02*
X182877Y560832D01*
X187955Y573528D02*
X190494Y576067D01*
X195573D01*
X198112Y573528D01*
Y570989D01*
X195573Y568450D01*
X193033D01*
X195573D01*
X198112Y565910D01*
Y563371D01*
X195573Y560832D01*
X190494D01*
X187955Y563371D01*
X203190Y573528D02*
X205729Y576067D01*
X210808D01*
X213347Y573528D01*
Y570989D01*
X210808Y568450D01*
X208269D01*
X210808D01*
X213347Y565910D01*
Y563371D01*
X210808Y560832D01*
X205729D01*
X203190Y563371D01*
X218425Y573528D02*
X220964Y576067D01*
X226043D01*
X228582Y573528D01*
Y570989D01*
X226043Y568450D01*
X223504D01*
X226043D01*
X228582Y565910D01*
Y563371D01*
X226043Y560832D01*
X220964D01*
X218425Y563371D01*
X604774Y832358D02*
Y847593D01*
X612392D01*
X614931Y845054D01*
Y839976D01*
X612392Y837436D01*
X604774D01*
X609852D02*
X614931Y832358D01*
X620009Y845054D02*
X622548Y847593D01*
X627627D01*
X630166Y845054D01*
Y842515D01*
X627627Y839976D01*
X625087D01*
X627627D01*
X630166Y837436D01*
Y834897D01*
X627627Y832358D01*
X622548D01*
X620009Y834897D01*
X635244Y847593D02*
X645401D01*
Y845054D01*
X635244Y834897D01*
Y832358D01*
X617471Y842263D02*
Y852420D01*
X614931Y854959D01*
X609853D01*
X607314Y852420D01*
Y842263D01*
X609853Y839724D01*
X614931D01*
X612392Y844802D02*
X617471Y839724D01*
X614931D02*
X617471Y842263D01*
X622549Y852420D02*
X625088Y854959D01*
X630167D01*
X632706Y852420D01*
Y849881D01*
X630167Y847342D01*
X632706Y844802D01*
Y842263D01*
X630167Y839724D01*
X625088D01*
X622549Y842263D01*
Y844802D01*
X625088Y847342D01*
X622549Y849881D01*
Y852420D01*
X625088Y847342D02*
X630167D01*
X148333Y591565D02*
Y601722D01*
X145794Y604261D01*
X140715D01*
X138176Y601722D01*
Y591565D01*
X140715Y589026D01*
X145794D01*
X143254Y594104D02*
X148333Y589026D01*
X145794D02*
X148333Y591565D01*
X153411Y604261D02*
X163568D01*
Y601722D01*
X153411Y591565D01*
Y589026D01*
X173736Y610103D02*
Y594868D01*
X181353D01*
X183893Y597407D01*
Y599946D01*
X181353Y602486D01*
X173736D01*
X181353D01*
X183893Y605025D01*
Y607564D01*
X181353Y610103D01*
X173736D01*
X188971D02*
X199128D01*
X194049D01*
Y594868D01*
X204206Y607564D02*
X206745Y610103D01*
X211824D01*
X214363Y607564D01*
Y605025D01*
X211824Y602486D01*
X209284D01*
X211824D01*
X214363Y599946D01*
Y597407D01*
X211824Y594868D01*
X206745D01*
X204206Y597407D01*
D15*
X327177Y815263D02*
G03*
X327177Y815263I-1016J0D01*
G01*
X118634Y265470D02*
G03*
X118634Y265470I-1796J0D01*
G01*
X1668780Y-191389D02*
Y-185064D01*
Y-149479D02*
X1717040D01*
X1668780Y-155804D02*
Y-149479D01*
Y-191389D02*
X1717040D01*
Y-185064D01*
Y-155804D02*
Y-149479D01*
X1477518Y-190119D02*
Y-183794D01*
Y-148209D02*
X1525778D01*
X1477518Y-154534D02*
Y-148209D01*
Y-190119D02*
X1525778D01*
Y-183794D01*
Y-154534D02*
Y-148209D01*
X1285494Y-160401D02*
Y-154076D01*
Y-118491D02*
X1333754D01*
X1285494Y-124816D02*
Y-118491D01*
Y-160401D02*
X1333754D01*
Y-154076D01*
Y-124816D02*
Y-118491D01*
X1091692Y-144907D02*
Y-138582D01*
Y-102997D02*
X1139952D01*
X1091692Y-109322D02*
Y-102997D01*
Y-144907D02*
X1139952D01*
Y-138582D01*
Y-109322D02*
Y-102997D01*
X902716Y-158369D02*
Y-152044D01*
Y-116459D02*
X950976D01*
X902716Y-122784D02*
Y-116459D01*
Y-158369D02*
X950976D01*
Y-152044D01*
Y-122784D02*
Y-116459D01*
X612394Y-290449D02*
Y-284124D01*
Y-248539D02*
X660654D01*
X612394Y-254864D02*
Y-248539D01*
Y-290449D02*
X660654D01*
Y-284124D01*
Y-254864D02*
Y-248539D01*
X436880Y-370967D02*
Y-364642D01*
Y-329057D02*
X485140D01*
X436880Y-335382D02*
Y-329057D01*
Y-370967D02*
X485140D01*
Y-364642D01*
Y-335382D02*
Y-329057D01*
X1712722Y-889D02*
Y5436D01*
Y41021D02*
X1760982D01*
X1712722Y34696D02*
Y41021D01*
Y-889D02*
X1760982D01*
Y5436D01*
Y34696D02*
Y41021D01*
X1472958Y-2787D02*
Y3538D01*
Y39123D02*
X1521218D01*
X1472958Y32799D02*
Y39123D01*
Y-2787D02*
X1521218D01*
Y3538D01*
Y32799D02*
Y39123D01*
X1286014Y28963D02*
Y35288D01*
Y70873D02*
X1334274D01*
X1286014Y64549D02*
Y70873D01*
Y28963D02*
X1334274D01*
Y35288D01*
Y64549D02*
Y70873D01*
X1092720Y46235D02*
Y52560D01*
Y88145D02*
X1140980D01*
X1092720Y81821D02*
Y88145D01*
Y46235D02*
X1140980D01*
Y52560D01*
Y81821D02*
Y88145D01*
X905776Y28963D02*
Y35288D01*
Y70873D02*
X954036D01*
X905776Y64549D02*
Y70873D01*
Y28963D02*
X954036D01*
Y35288D01*
Y64549D02*
Y70873D01*
X712216Y19939D02*
Y26264D01*
Y61849D02*
X760476D01*
X712216Y55524D02*
Y61849D01*
Y19939D02*
X760476D01*
Y26264D01*
Y55524D02*
Y61849D01*
X520192Y64643D02*
Y70968D01*
Y106553D02*
X568452D01*
X520192Y100228D02*
Y106553D01*
Y64643D02*
X568452D01*
Y70968D01*
Y100228D02*
Y106553D01*
X1713738Y190373D02*
Y196698D01*
Y232283D02*
X1761998D01*
X1713738Y225958D02*
Y232283D01*
Y190373D02*
X1761998D01*
Y196698D01*
Y225958D02*
Y232283D01*
X1471942Y185681D02*
Y192006D01*
Y227591D02*
X1520202D01*
X1471942Y221267D02*
Y227591D01*
Y185681D02*
X1520202D01*
Y192006D01*
Y221267D02*
Y227591D01*
X1287792Y217431D02*
Y223756D01*
Y259341D02*
X1336052D01*
X1287792Y253017D02*
Y259341D01*
Y217431D02*
X1336052D01*
Y223756D01*
Y253017D02*
Y259341D01*
X1095260Y235465D02*
Y241790D01*
Y277375D02*
X1143520D01*
X1095260Y271051D02*
Y277375D01*
Y235465D02*
X1143520D01*
Y241790D01*
Y271051D02*
Y277375D01*
X902474Y217431D02*
Y223756D01*
Y259341D02*
X950734D01*
X902474Y253017D02*
Y259341D01*
Y217431D02*
X950734D01*
Y223756D01*
Y253017D02*
Y259341D01*
X710184Y208153D02*
Y214478D01*
Y250063D02*
X758444D01*
X710184Y243738D02*
Y250063D01*
Y208153D02*
X758444D01*
Y214478D01*
Y243738D02*
Y250063D01*
X320802Y-111125D02*
Y-104800D01*
Y-69215D02*
X369062D01*
X320802Y-75540D02*
Y-69215D01*
Y-111125D02*
X369062D01*
Y-104800D01*
Y-75540D02*
Y-69215D01*
X1714512Y382023D02*
Y388348D01*
Y423933D02*
X1762772D01*
X1714512Y417609D02*
Y423933D01*
Y382023D02*
X1762772D01*
Y388348D01*
Y417609D02*
Y423933D01*
X1478292Y383039D02*
Y389364D01*
Y424949D02*
X1526552D01*
X1478292Y418625D02*
Y424949D01*
Y383039D02*
X1526552D01*
Y389364D01*
Y418625D02*
Y424949D01*
X1282712Y412503D02*
Y418828D01*
Y454413D02*
X1330972D01*
X1282712Y448089D02*
Y454413D01*
Y412503D02*
X1330972D01*
Y418828D01*
Y448089D02*
Y454413D01*
X1096264Y425577D02*
Y431902D01*
Y467487D02*
X1144524D01*
X1096264Y461162D02*
Y467487D01*
Y425577D02*
X1144524D01*
Y431902D01*
Y461162D02*
Y467487D01*
X903998Y407931D02*
Y414256D01*
Y449841D02*
X952258D01*
X903998Y443517D02*
Y449841D01*
Y407931D02*
X952258D01*
Y414256D01*
Y443517D02*
Y449841D01*
X714502Y400939D02*
Y407264D01*
Y442849D02*
X762762D01*
X714502Y436524D02*
Y442849D01*
Y400939D02*
X762762D01*
Y407264D01*
Y436524D02*
Y442849D01*
X524764Y353187D02*
Y359512D01*
Y395097D02*
X573024D01*
X524764Y388772D02*
Y395097D01*
Y353187D02*
X573024D01*
Y359512D01*
Y388772D02*
Y395097D01*
X1712226Y570745D02*
Y577070D01*
Y612655D02*
X1760486D01*
X1712226Y606331D02*
Y612655D01*
Y570745D02*
X1760486D01*
Y577070D01*
Y606331D02*
Y612655D01*
X1476768Y570745D02*
Y577070D01*
Y612655D02*
X1525028D01*
X1476768Y606331D02*
Y612655D01*
Y570745D02*
X1525028D01*
Y577070D01*
Y606331D02*
Y612655D01*
X1287284Y601225D02*
Y607550D01*
Y643135D02*
X1335544D01*
X1287284Y636811D02*
Y643135D01*
Y601225D02*
X1335544D01*
Y607550D01*
Y636811D02*
Y643135D01*
X1095006Y611639D02*
Y617964D01*
Y653549D02*
X1143266D01*
X1095006Y647225D02*
Y653549D01*
Y611639D02*
X1143266D01*
Y617964D01*
Y647225D02*
Y653549D01*
X902474Y601225D02*
Y607550D01*
Y643135D02*
X950734D01*
X902474Y636811D02*
Y643135D01*
Y601225D02*
X950734D01*
Y607550D01*
Y636811D02*
Y643135D01*
X715264Y623976D02*
Y630301D01*
X667004Y588391D02*
X715264D01*
Y594716D01*
X667004Y630301D02*
X715264D01*
X667004Y623976D02*
Y630301D01*
Y588391D02*
Y594716D01*
X523748Y623976D02*
Y630301D01*
X475488Y588391D02*
X523748D01*
Y594716D01*
X475488Y630301D02*
X523748D01*
X475488Y623976D02*
Y630301D01*
Y588391D02*
Y594716D01*
X375920Y-440563D02*
Y-434238D01*
Y-398653D02*
X424180D01*
X375920Y-404978D02*
Y-398653D01*
Y-440563D02*
X424180D01*
Y-434238D01*
Y-404978D02*
Y-398653D01*
X294386Y-262763D02*
Y-256438D01*
Y-220853D02*
X342646D01*
X294386Y-227178D02*
Y-220853D01*
Y-262763D02*
X342646D01*
Y-256438D01*
Y-227178D02*
Y-220853D01*
X202692Y-83439D02*
Y-77114D01*
Y-41529D02*
X250952D01*
X202692Y-47854D02*
Y-41529D01*
Y-83439D02*
X250952D01*
Y-77114D01*
Y-47854D02*
Y-41529D01*
X347878Y239522D02*
X354203D01*
X312293D02*
Y287782D01*
Y239522D02*
X318618D01*
X354203D02*
Y287782D01*
X347878D02*
X354203D01*
X312293D02*
X318618D01*
X318989Y784987D02*
X320583D01*
X318989Y804545D02*
X320583D01*
D16*
X439482Y599680D02*
X442482D01*
X439482Y629680D02*
X442482D01*
X412482Y599680D02*
X415482D01*
X412482Y629680D02*
X415482D01*
X442482Y599680D02*
Y602680D01*
Y626680D02*
Y629680D01*
X412482Y599680D02*
Y602680D01*
Y626680D02*
Y629680D01*
X537780Y785100D02*
X540780D01*
X537780Y815100D02*
X540780D01*
X510780Y785100D02*
X513780D01*
X510780Y815100D02*
X513780D01*
X540780Y785100D02*
Y788100D01*
Y812100D02*
Y815100D01*
X510780Y785100D02*
Y788100D01*
Y812100D02*
Y815100D01*
X173898Y539602D02*
X352898D01*
Y584602D01*
X173898Y539602D02*
Y584602D01*
X352898D01*
X189858Y720100D02*
Y727700D01*
X204858Y720100D02*
Y727700D01*
X-2178Y124460D02*
X11822D01*
X441822D02*
X455822D01*
X448822Y117460D02*
Y131460D01*
X16822Y177800D02*
X436822D01*
X16822Y67310D02*
Y177800D01*
Y67310D02*
X436822D01*
Y177800D01*
X293852Y389916D02*
Y393016D01*
Y421816D02*
Y424916D01*
X258852Y389916D02*
Y393016D01*
Y421816D02*
Y424916D01*
X261952D01*
X290752D02*
X293852D01*
X258852Y389916D02*
X261952D01*
X290752D02*
X293852D01*
X101854Y313436D02*
X159258D01*
X101854Y411734D02*
X159258D01*
X101854Y313436D02*
Y411734D01*
X159258Y313436D02*
Y411734D01*
X-4666Y243630D02*
Y333030D01*
X9634D01*
X33034D02*
X49834D01*
X-4666Y243630D02*
X9634D01*
X33034D02*
X49834D01*
X353032Y918690D02*
X413032D01*
X353032D02*
Y978690D01*
X413032D01*
Y918690D02*
Y978690D01*
X-35964Y415652D02*
X4036D01*
X-35964D02*
Y465652D01*
X4036D01*
X64036Y388652D02*
Y492652D01*
X4036Y388652D02*
Y415652D01*
Y465652D01*
Y492652D01*
Y388652D02*
X19511D01*
X48561D02*
X64036D01*
X4036Y492652D02*
X19511D01*
X48561D02*
X64036D01*
X18459Y188467D02*
Y184405D01*
X20490D01*
X21168Y185082D01*
Y185759D01*
X20490Y186436D01*
X18459D01*
X20490D01*
X21168Y187113D01*
Y187790D01*
X20490Y188467D01*
X18459D01*
X22522D02*
X25230D01*
X23876D01*
Y184405D01*
X29293D02*
X26584D01*
X29293Y187113D01*
Y187790D01*
X28616Y188467D01*
X27262D01*
X26584Y187790D01*
X1617474Y810515D02*
Y814577D01*
X1619505D01*
X1620182Y813900D01*
Y812546D01*
X1619505Y811869D01*
X1617474D01*
X1618828D02*
X1620182Y810515D01*
X1621536D02*
X1622891D01*
X1622213D01*
Y814577D01*
X1621536Y813900D01*
X1624922Y811192D02*
X1625599Y810515D01*
X1626953D01*
X1627630Y811192D01*
Y813900D01*
X1626953Y814577D01*
X1625599D01*
X1624922Y813900D01*
Y813223D01*
X1625599Y812546D01*
X1627630D01*
X203878Y406316D02*
X203201Y405639D01*
Y404285D01*
X203878Y403608D01*
X206586D01*
X207263Y404285D01*
Y405639D01*
X206586Y406316D01*
X207263Y407670D02*
Y409025D01*
Y408348D01*
X203201D01*
X203878Y407670D01*
X203201Y413764D02*
Y411056D01*
X205232D01*
X204555Y412410D01*
Y413087D01*
X205232Y413764D01*
X206586D01*
X207263Y413087D01*
Y411733D01*
X206586Y411056D01*
X226738Y407586D02*
X226061Y406909D01*
Y405555D01*
X226738Y404878D01*
X229446D01*
X230123Y405555D01*
Y406909D01*
X229446Y407586D01*
X230123Y408940D02*
Y410295D01*
Y409618D01*
X226061D01*
X226738Y408940D01*
X226061Y415034D02*
X226738Y413680D01*
X228092Y412326D01*
X229446D01*
X230123Y413003D01*
Y414357D01*
X229446Y415034D01*
X228769D01*
X228092Y414357D01*
Y412326D01*
X255074Y336951D02*
X255751Y336274D01*
X257105D01*
X257782Y336951D01*
Y339660D01*
X257105Y340337D01*
X255751D01*
X255074Y339660D01*
X253720Y340337D02*
X252365D01*
X253043D01*
Y336274D01*
X253720Y336951D01*
X250334Y336274D02*
X247626D01*
Y336951D01*
X250334Y339660D01*
Y340337D01*
X296930Y351176D02*
X296252Y350499D01*
Y349144D01*
X296930Y348467D01*
X299638D01*
X300315Y349144D01*
Y350499D01*
X299638Y351176D01*
X300315Y352530D02*
Y353884D01*
Y353207D01*
X296252D01*
X296930Y352530D01*
Y355916D02*
X296252Y356593D01*
Y357947D01*
X296930Y358624D01*
X297607D01*
X298284Y357947D01*
X298961Y358624D01*
X299638D01*
X300315Y357947D01*
Y356593D01*
X299638Y355916D01*
X298961D01*
X298284Y356593D01*
X297607Y355916D01*
X296930D01*
X298284Y356593D02*
Y357947D01*
X264074Y500718D02*
X263397Y501395D01*
X262043D01*
X261366Y500718D01*
Y498009D01*
X262043Y497332D01*
X263397D01*
X264074Y498009D01*
X265429Y497332D02*
X266783D01*
X266106D01*
Y501395D01*
X265429Y500718D01*
X268814Y498009D02*
X269491Y497332D01*
X270846D01*
X271523Y498009D01*
Y500718D01*
X270846Y501395D01*
X269491D01*
X268814Y500718D01*
Y500041D01*
X269491Y499363D01*
X271523D01*
X328083Y228684D02*
X327405Y229361D01*
X326051D01*
X325374Y228684D01*
Y225975D01*
X326051Y225298D01*
X327405D01*
X328083Y225975D01*
X332145Y225298D02*
X329437D01*
X332145Y228006D01*
Y228684D01*
X331468Y229361D01*
X330114D01*
X329437Y228684D01*
X333499D02*
X334176Y229361D01*
X335531D01*
X336208Y228684D01*
Y228006D01*
X335531Y227329D01*
X334854D01*
X335531D01*
X336208Y226652D01*
Y225975D01*
X335531Y225298D01*
X334176D01*
X333499Y225975D01*
X311404Y308863D02*
Y304800D01*
X313435D01*
X314112Y305477D01*
Y308186D01*
X313435Y308863D01*
X311404D01*
X315467Y304800D02*
X316821D01*
X316144D01*
Y308863D01*
X315467Y308186D01*
X132948Y277193D02*
X137010D01*
Y279225D01*
X136333Y279902D01*
X133625D01*
X132948Y279225D01*
Y277193D01*
X137010Y283964D02*
Y281256D01*
X134302Y283964D01*
X133625D01*
X132948Y283287D01*
Y281933D01*
X133625Y281256D01*
X37169Y343915D02*
X35815D01*
X36492D01*
Y340530D01*
X35815Y339853D01*
X35138D01*
X34460Y340530D01*
X41232Y339853D02*
X38523D01*
X41232Y342561D01*
Y343238D01*
X40554Y343915D01*
X39200D01*
X38523Y343238D01*
X245702Y450441D02*
Y454503D01*
X242993D01*
X241639Y450441D02*
X238930D01*
Y451118D01*
X241639Y453826D01*
Y454503D01*
X208196Y369645D02*
Y365583D01*
X210905D01*
X212259Y368968D02*
X212936Y369645D01*
X214291D01*
X214968Y368968D01*
Y368291D01*
X214291Y367614D01*
X214968Y366937D01*
Y366260D01*
X214291Y365583D01*
X212936D01*
X212259Y366260D01*
Y366937D01*
X212936Y367614D01*
X212259Y368291D01*
Y368968D01*
X212936Y367614D02*
X214291D01*
X122429Y427569D02*
X126491D01*
Y430277D01*
X122429Y434340D02*
Y431632D01*
X126491D01*
Y434340D01*
X124460Y431632D02*
Y432986D01*
X122429Y435694D02*
X126491D01*
Y437726D01*
X125814Y438403D01*
X123106D01*
X122429Y437726D01*
Y435694D01*
X126491Y439757D02*
Y441111D01*
Y440434D01*
X122429D01*
X123106Y439757D01*
X301451Y428373D02*
X298743D01*
X298066Y427696D01*
Y426342D01*
X298743Y425664D01*
X301451D01*
X302128Y426342D01*
Y427696D01*
X300774Y427019D02*
X302128Y428373D01*
Y427696D02*
X301451Y428373D01*
X302128Y432435D02*
Y429727D01*
X299420Y432435D01*
X298743D01*
X298066Y431758D01*
Y430404D01*
X298743Y429727D01*
X341095Y480970D02*
X337033D01*
Y483001D01*
X337710Y483679D01*
X339064D01*
X339741Y483001D01*
Y480970D01*
Y482324D02*
X341095Y483679D01*
Y487741D02*
Y485033D01*
X338387Y487741D01*
X337710D01*
X337033Y487064D01*
Y485710D01*
X337710Y485033D01*
X351509Y462386D02*
X347447D01*
Y464417D01*
X348124Y465094D01*
X349478D01*
X350155Y464417D01*
Y462386D01*
Y463740D02*
X351509Y465094D01*
X347447Y466448D02*
Y469157D01*
X348124D01*
X350832Y466448D01*
X351509D01*
X88308Y300229D02*
Y304291D01*
X90340D01*
X91017Y303614D01*
Y302260D01*
X90340Y301583D01*
X88308D01*
X89663D02*
X91017Y300229D01*
X92371Y300906D02*
X93048Y300229D01*
X94403D01*
X95080Y300906D01*
Y303614D01*
X94403Y304291D01*
X93048D01*
X92371Y303614D01*
Y302937D01*
X93048Y302260D01*
X95080D01*
X86616Y253239D02*
Y257301D01*
X88647D01*
X89324Y256624D01*
Y255270D01*
X88647Y254593D01*
X86616D01*
X87970D02*
X89324Y253239D01*
X90678D02*
X92033D01*
X91355D01*
Y257301D01*
X90678Y256624D01*
X94064D02*
X94741Y257301D01*
X96095D01*
X96772Y256624D01*
Y253916D01*
X96095Y253239D01*
X94741D01*
X94064Y253916D01*
Y256624D01*
X341349Y388862D02*
X337287D01*
Y390893D01*
X337964Y391570D01*
X339318D01*
X339995Y390893D01*
Y388862D01*
Y390216D02*
X341349Y391570D01*
Y392924D02*
Y394278D01*
Y393601D01*
X337287D01*
X337964Y392924D01*
X341349Y396310D02*
Y397664D01*
Y396987D01*
X337287D01*
X337964Y396310D01*
X341349Y407582D02*
X337287D01*
Y409613D01*
X337964Y410290D01*
X339318D01*
X339995Y409613D01*
Y407582D01*
Y408936D02*
X341349Y410290D01*
Y411644D02*
Y412999D01*
Y412321D01*
X337287D01*
X337964Y411644D01*
X341349Y417738D02*
Y415030D01*
X338641Y417738D01*
X337964D01*
X337287Y417061D01*
Y415707D01*
X337964Y415030D01*
X206211Y325153D02*
X202148D01*
Y327184D01*
X202825Y327861D01*
X204179D01*
X204856Y327184D01*
Y325153D01*
Y326507D02*
X206211Y327861D01*
Y329216D02*
Y330570D01*
Y329893D01*
X202148D01*
X202825Y329216D01*
Y332601D02*
X202148Y333278D01*
Y334632D01*
X202825Y335309D01*
X203502D01*
X204179Y334632D01*
Y333955D01*
Y334632D01*
X204856Y335309D01*
X205534D01*
X206211Y334632D01*
Y333278D01*
X205534Y332601D01*
X341349Y425709D02*
X337287D01*
Y427740D01*
X337964Y428417D01*
X339318D01*
X339995Y427740D01*
Y425709D01*
Y427063D02*
X341349Y428417D01*
Y429771D02*
Y431126D01*
Y430448D01*
X337287D01*
X337964Y429771D01*
X341349Y435188D02*
X337287D01*
X339318Y433157D01*
Y435865D01*
X350773Y371858D02*
X346711D01*
Y373889D01*
X347388Y374566D01*
X348742D01*
X349419Y373889D01*
Y371858D01*
Y373212D02*
X350773Y374566D01*
Y375920D02*
Y377275D01*
Y376598D01*
X346711D01*
X347388Y375920D01*
X346711Y382014D02*
Y379306D01*
X348742D01*
X348065Y380660D01*
Y381337D01*
X348742Y382014D01*
X350096D01*
X350773Y381337D01*
Y379983D01*
X350096Y379306D01*
X351509Y442566D02*
X347447D01*
Y444597D01*
X348124Y445274D01*
X349478D01*
X350155Y444597D01*
Y442566D01*
Y443920D02*
X351509Y445274D01*
Y446628D02*
Y447983D01*
Y447306D01*
X347447D01*
X348124Y446628D01*
X347447Y450014D02*
Y452723D01*
X348124D01*
X350832Y450014D01*
X351509D01*
X282194Y472186D02*
Y476249D01*
X284225D01*
X284902Y475572D01*
Y474217D01*
X284225Y473540D01*
X282194D01*
X283548D02*
X284902Y472186D01*
X286257D02*
X287611D01*
X286934D01*
Y476249D01*
X286257Y475572D01*
X289642D02*
X290319Y476249D01*
X291674D01*
X292351Y475572D01*
Y474894D01*
X291674Y474217D01*
X292351Y473540D01*
Y472863D01*
X291674Y472186D01*
X290319D01*
X289642Y472863D01*
Y473540D01*
X290319Y474217D01*
X289642Y474894D01*
Y475572D01*
X290319Y474217D02*
X291674D01*
X357126Y239267D02*
X359835D01*
X358480D01*
Y235205D01*
X361189D02*
Y239267D01*
X363220D01*
X363897Y238590D01*
Y237236D01*
X363220Y236559D01*
X361189D01*
X365252Y235205D02*
X366606D01*
X365929D01*
Y239267D01*
X365252Y238590D01*
X371346Y239267D02*
X368637D01*
Y237236D01*
X369991Y237913D01*
X370669D01*
X371346Y237236D01*
Y235882D01*
X370669Y235205D01*
X369314D01*
X368637Y235882D01*
X177142Y316903D02*
Y319612D01*
Y318258D01*
X181204D01*
Y320966D02*
X177142D01*
Y322997D01*
X177819Y323675D01*
X179173D01*
X179850Y322997D01*
Y320966D01*
X181204Y325029D02*
Y326383D01*
Y325706D01*
X177142D01*
X177819Y325029D01*
X177142Y331123D02*
X177819Y329769D01*
X179173Y328414D01*
X180527D01*
X181204Y329091D01*
Y330446D01*
X180527Y331123D01*
X179850D01*
X179173Y330446D01*
Y328414D01*
X178818Y412495D02*
X181527D01*
X180173D01*
Y408433D01*
X182881D02*
Y412495D01*
X184912D01*
X185589Y411818D01*
Y410464D01*
X184912Y409787D01*
X182881D01*
X186944Y408433D02*
X188298D01*
X187621D01*
Y412495D01*
X186944Y411818D01*
X190329Y412495D02*
X193038D01*
Y411818D01*
X190329Y409110D01*
Y408433D01*
X75439Y376176D02*
Y378885D01*
Y377531D01*
X79501D01*
Y380239D02*
X75439D01*
Y382270D01*
X76116Y382948D01*
X77470D01*
X78147Y382270D01*
Y380239D01*
X79501Y384302D02*
Y385656D01*
Y384979D01*
X75439D01*
X76116Y384302D01*
Y387687D02*
X75439Y388364D01*
Y389719D01*
X76116Y390396D01*
X76793D01*
X77470Y389719D01*
X78147Y390396D01*
X78824D01*
X79501Y389719D01*
Y388364D01*
X78824Y387687D01*
X78147D01*
X77470Y388364D01*
X76793Y387687D01*
X76116D01*
X77470Y388364D02*
Y389719D01*
X249513Y605874D02*
X248836Y606551D01*
X247482D01*
X246805Y605874D01*
Y603166D01*
X247482Y602489D01*
X248836D01*
X249513Y603166D01*
X253576Y602489D02*
X250868D01*
X253576Y605197D01*
Y605874D01*
X252899Y606551D01*
X251545D01*
X250868Y605874D01*
X257639Y606551D02*
X254930D01*
Y604520D01*
X256285Y605197D01*
X256962D01*
X257639Y604520D01*
Y603166D01*
X256962Y602489D01*
X255608D01*
X254930Y603166D01*
X90338Y535262D02*
X89661Y535939D01*
X88307D01*
X87630Y535262D01*
Y532553D01*
X88307Y531876D01*
X89661D01*
X90338Y532553D01*
X94401Y531876D02*
X91693D01*
X94401Y534585D01*
Y535262D01*
X93724Y535939D01*
X92370D01*
X91693Y535262D01*
X97787Y531876D02*
Y535939D01*
X95755Y533907D01*
X98464D01*
X398609Y638301D02*
Y634239D01*
X396578D01*
X395900Y634916D01*
Y636270D01*
X396578Y636947D01*
X398609D01*
X397255D02*
X395900Y638301D01*
X394546Y634916D02*
X393869Y634239D01*
X392515D01*
X391838Y634916D01*
Y635593D01*
X392515Y636270D01*
X393192D01*
X392515D01*
X391838Y636947D01*
Y637624D01*
X392515Y638301D01*
X393869D01*
X394546Y637624D01*
X387775Y634239D02*
X390484D01*
Y636270D01*
X389129Y635593D01*
X388452D01*
X387775Y636270D01*
Y637624D01*
X388452Y638301D01*
X389806D01*
X390484Y637624D01*
X557359Y789177D02*
Y785115D01*
X555328D01*
X554650Y785792D01*
Y787146D01*
X555328Y787823D01*
X557359D01*
X556005D02*
X554650Y789177D01*
X553296Y785792D02*
X552619Y785115D01*
X551265D01*
X550588Y785792D01*
Y786469D01*
X551265Y787146D01*
X551942D01*
X551265D01*
X550588Y787823D01*
Y788500D01*
X551265Y789177D01*
X552619D01*
X553296Y788500D01*
X547202Y789177D02*
Y785115D01*
X549234Y787146D01*
X546525D01*
X225806Y867664D02*
Y871727D01*
X227837D01*
X228514Y871050D01*
Y869695D01*
X227837Y869018D01*
X225806D01*
X227160D02*
X228514Y867664D01*
X229869Y871050D02*
X230546Y871727D01*
X231900D01*
X232577Y871050D01*
Y870372D01*
X231900Y869695D01*
X231223D01*
X231900D01*
X232577Y869018D01*
Y868341D01*
X231900Y867664D01*
X230546D01*
X229869Y868341D01*
X233931Y871050D02*
X234608Y871727D01*
X235963D01*
X236640Y871050D01*
Y870372D01*
X235963Y869695D01*
X235286D01*
X235963D01*
X236640Y869018D01*
Y868341D01*
X235963Y867664D01*
X234608D01*
X233931Y868341D01*
X1864615Y804924D02*
X1868677D01*
Y802893D01*
X1868000Y802216D01*
X1866646D01*
X1865969Y802893D01*
Y804924D01*
Y803570D02*
X1864615Y802216D01*
Y800862D02*
Y799507D01*
Y800184D01*
X1868677D01*
X1868000Y800862D01*
X1868677Y794768D02*
X1868000Y796122D01*
X1866646Y797476D01*
X1865292D01*
X1864615Y796799D01*
Y795445D01*
X1865292Y794768D01*
X1865969D01*
X1866646Y795445D01*
Y797476D01*
X218441Y827108D02*
X222503D01*
Y825076D01*
X221826Y824399D01*
X220472D01*
X219795Y825076D01*
Y827108D01*
Y825753D02*
X218441Y824399D01*
X221826Y823045D02*
X222503Y822368D01*
Y821013D01*
X221826Y820336D01*
X221149D01*
X220472Y821013D01*
Y821691D01*
Y821013D01*
X219795Y820336D01*
X219118D01*
X218441Y821013D01*
Y822368D01*
X219118Y823045D01*
X231731Y812545D02*
Y808483D01*
X229700D01*
X229023Y809160D01*
Y810514D01*
X229700Y811191D01*
X231731D01*
X230377D02*
X229023Y812545D01*
X227668Y809160D02*
X226991Y808483D01*
X225637D01*
X224960Y809160D01*
Y809837D01*
X225637Y810514D01*
X226314D01*
X225637D01*
X224960Y811191D01*
Y811868D01*
X225637Y812545D01*
X226991D01*
X227668Y811868D01*
X220897Y808483D02*
X222251Y809160D01*
X223605Y810514D01*
Y811868D01*
X222928Y812545D01*
X221574D01*
X220897Y811868D01*
Y811191D01*
X221574Y810514D01*
X223605D01*
X206587Y746984D02*
X205910Y747662D01*
X204556D01*
X203879Y746984D01*
Y744276D01*
X204556Y743599D01*
X205910D01*
X206587Y744276D01*
X207941Y743599D02*
X209296D01*
X208619D01*
Y747662D01*
X207941Y746984D01*
X211327Y743599D02*
X212681D01*
X212004D01*
Y747662D01*
X211327Y746984D01*
X438996Y902038D02*
X439673Y902715D01*
Y904069D01*
X438996Y904746D01*
X436288D01*
X435611Y904069D01*
Y902715D01*
X436288Y902038D01*
X435611Y900684D02*
Y899329D01*
Y900006D01*
X439673D01*
X438996Y900684D01*
X435611Y895267D02*
X439673D01*
X437642Y897298D01*
Y894590D01*
X13970Y904239D02*
Y900176D01*
Y902207D01*
X16679D01*
Y904239D01*
Y900176D01*
X18033D02*
X19387D01*
X18710D01*
Y904239D01*
X18033Y903562D01*
X286430Y500633D02*
Y496571D01*
X289138D01*
X293201Y500633D02*
X290492D01*
Y496571D01*
X293201D01*
X290492Y498602D02*
X291847D01*
X294555Y500633D02*
Y496571D01*
X296586D01*
X297264Y497248D01*
Y499956D01*
X296586Y500633D01*
X294555D01*
X300649Y496571D02*
Y500633D01*
X298618Y498602D01*
X301326D01*
X53509Y18372D02*
X52831Y19049D01*
X51477D01*
X50800Y18372D01*
Y17694D01*
X51477Y17017D01*
X52831D01*
X53509Y16340D01*
Y15663D01*
X52831Y14986D01*
X51477D01*
X50800Y15663D01*
X54863Y19049D02*
Y14986D01*
X56217Y16340D01*
X57571Y14986D01*
Y19049D01*
X58925Y18372D02*
X59602Y19049D01*
X60957D01*
X61634Y18372D01*
Y17694D01*
X60957Y17017D01*
X60280D01*
X60957D01*
X61634Y16340D01*
Y15663D01*
X60957Y14986D01*
X59602D01*
X58925Y15663D01*
X62988D02*
X63665Y14986D01*
X65019D01*
X65697Y15663D01*
Y18372D01*
X65019Y19049D01*
X63665D01*
X62988Y18372D01*
Y17694D01*
X63665Y17017D01*
X65697D01*
X135296Y-154094D02*
X134619Y-153417D01*
X133265D01*
X132588Y-154094D01*
Y-154771D01*
X133265Y-155449D01*
X134619D01*
X135296Y-156126D01*
Y-156803D01*
X134619Y-157480D01*
X133265D01*
X132588Y-156803D01*
X136651Y-153417D02*
Y-157480D01*
X138005Y-156126D01*
X139359Y-157480D01*
Y-153417D01*
X140713Y-154094D02*
X141390Y-153417D01*
X142745D01*
X143422Y-154094D01*
Y-154771D01*
X142745Y-155449D01*
X142068D01*
X142745D01*
X143422Y-156126D01*
Y-156803D01*
X142745Y-157480D01*
X141390D01*
X140713Y-156803D01*
X144776Y-154094D02*
X145453Y-153417D01*
X146807D01*
X147485Y-154094D01*
Y-154771D01*
X146807Y-155449D01*
X147485Y-156126D01*
Y-156803D01*
X146807Y-157480D01*
X145453D01*
X144776Y-156803D01*
Y-156126D01*
X145453Y-155449D01*
X144776Y-154771D01*
Y-154094D01*
X145453Y-155449D02*
X146807D01*
X212766Y-328338D02*
X212089Y-327661D01*
X210735D01*
X210058Y-328338D01*
Y-329016D01*
X210735Y-329693D01*
X212089D01*
X212766Y-330370D01*
Y-331047D01*
X212089Y-331724D01*
X210735D01*
X210058Y-331047D01*
X214121Y-327661D02*
Y-331724D01*
X215475Y-330370D01*
X216829Y-331724D01*
Y-327661D01*
X218183Y-328338D02*
X218860Y-327661D01*
X220215D01*
X220892Y-328338D01*
Y-329016D01*
X220215Y-329693D01*
X219538D01*
X220215D01*
X220892Y-330370D01*
Y-331047D01*
X220215Y-331724D01*
X218860D01*
X218183Y-331047D01*
X222246Y-327661D02*
X224954D01*
Y-328338D01*
X222246Y-331047D01*
Y-331724D01*
X193294Y-29211D02*
Y-33274D01*
X195325D01*
X196003Y-32597D01*
Y-29888D01*
X195325Y-29211D01*
X193294D01*
X199388Y-33274D02*
Y-29211D01*
X197357Y-31243D01*
X200065D01*
X201419Y-29888D02*
X202097Y-29211D01*
X203451D01*
X204128Y-29888D01*
Y-32597D01*
X203451Y-33274D01*
X202097D01*
X201419Y-32597D01*
Y-29888D01*
X284988Y-208535D02*
Y-212598D01*
X287019D01*
X287696Y-211921D01*
Y-209212D01*
X287019Y-208535D01*
X284988D01*
X289051Y-209212D02*
X289728Y-208535D01*
X291082D01*
X291759Y-209212D01*
Y-209890D01*
X291082Y-210567D01*
X290405D01*
X291082D01*
X291759Y-211244D01*
Y-211921D01*
X291082Y-212598D01*
X289728D01*
X289051Y-211921D01*
X293113D02*
X293790Y-212598D01*
X295145D01*
X295822Y-211921D01*
Y-209212D01*
X295145Y-208535D01*
X293790D01*
X293113Y-209212D01*
Y-209890D01*
X293790Y-210567D01*
X295822D01*
X366522Y-386335D02*
Y-390398D01*
X368553D01*
X369230Y-389721D01*
Y-387012D01*
X368553Y-386335D01*
X366522D01*
X370585Y-387012D02*
X371262Y-386335D01*
X372616D01*
X373293Y-387012D01*
Y-387690D01*
X372616Y-388367D01*
X371939D01*
X372616D01*
X373293Y-389044D01*
Y-389721D01*
X372616Y-390398D01*
X371262D01*
X370585Y-389721D01*
X374647Y-387012D02*
X375325Y-386335D01*
X376679D01*
X377356Y-387012D01*
Y-387690D01*
X376679Y-388367D01*
X377356Y-389044D01*
Y-389721D01*
X376679Y-390398D01*
X375325D01*
X374647Y-389721D01*
Y-389044D01*
X375325Y-388367D01*
X374647Y-387690D01*
Y-387012D01*
X375325Y-388367D02*
X376679D01*
X200001Y727344D02*
X195939Y724635D01*
X200001D02*
X195939Y727344D01*
Y720573D02*
Y723281D01*
X198647Y720573D01*
X199324D01*
X200001Y721250D01*
Y722604D01*
X199324Y723281D01*
X321817Y812714D02*
X317755Y810006D01*
X321817D02*
X317755Y812714D01*
Y808652D02*
Y807298D01*
Y807975D01*
X321817D01*
X321140Y808652D01*
X50038Y845565D02*
X52747D01*
X51392D01*
Y841502D01*
X54101D02*
Y845565D01*
X56132D01*
X56809Y844888D01*
Y843533D01*
X56132Y842856D01*
X54101D01*
X58163Y844888D02*
X58840Y845565D01*
X60195D01*
X60872Y844888D01*
Y844211D01*
X60195Y843533D01*
X59518D01*
X60195D01*
X60872Y842856D01*
Y842179D01*
X60195Y841502D01*
X58840D01*
X58163Y842179D01*
X64257Y841502D02*
Y845565D01*
X62226Y843533D01*
X64935D01*
X112268Y846581D02*
X114977D01*
X113622D01*
Y842518D01*
X116331D02*
Y846581D01*
X118362D01*
X119039Y845904D01*
Y844549D01*
X118362Y843872D01*
X116331D01*
X120393Y845904D02*
X121070Y846581D01*
X122425D01*
X123102Y845904D01*
Y845227D01*
X122425Y844549D01*
X121748D01*
X122425D01*
X123102Y843872D01*
Y843195D01*
X122425Y842518D01*
X121070D01*
X120393Y843195D01*
X124456Y845904D02*
X125133Y846581D01*
X126487D01*
X127164Y845904D01*
Y845227D01*
X126487Y844549D01*
X125810D01*
X126487D01*
X127164Y843872D01*
Y843195D01*
X126487Y842518D01*
X125133D01*
X124456Y843195D01*
X421132Y600201D02*
X423840D01*
X422486D01*
Y596138D01*
X425195D02*
Y600201D01*
X427226D01*
X427903Y599524D01*
Y598169D01*
X427226Y597492D01*
X425195D01*
X429257Y599524D02*
X429935Y600201D01*
X431289D01*
X431966Y599524D01*
Y598847D01*
X431289Y598169D01*
X430612D01*
X431289D01*
X431966Y597492D01*
Y596815D01*
X431289Y596138D01*
X429935D01*
X429257Y596815D01*
X436029Y596138D02*
X433320D01*
X436029Y598847D01*
Y599524D01*
X435351Y600201D01*
X433997D01*
X433320Y599524D01*
X358989Y847851D02*
X361697D01*
X360343D01*
Y843789D01*
X363051D02*
Y847851D01*
X365083D01*
X365760Y847174D01*
Y845820D01*
X365083Y845143D01*
X363051D01*
X367114Y847174D02*
X367791Y847851D01*
X369146D01*
X369823Y847174D01*
Y846497D01*
X369146Y845820D01*
X368469D01*
X369146D01*
X369823Y845143D01*
Y844466D01*
X369146Y843789D01*
X367791D01*
X367114Y844466D01*
X371177Y843789D02*
X372531D01*
X371854D01*
Y847851D01*
X371177Y847174D01*
X281431Y632796D02*
Y630088D01*
Y631442D01*
X277369D01*
Y628734D02*
X281431D01*
Y626702D01*
X280754Y626025D01*
X279400D01*
X278723Y626702D01*
Y628734D01*
X280754Y624671D02*
X281431Y623994D01*
Y622640D01*
X280754Y621962D01*
X280077D01*
X279400Y622640D01*
Y623317D01*
Y622640D01*
X278723Y621962D01*
X278046D01*
X277369Y622640D01*
Y623994D01*
X278046Y624671D01*
X280754Y620608D02*
X281431Y619931D01*
Y618577D01*
X280754Y617900D01*
X278046D01*
X277369Y618577D01*
Y619931D01*
X278046Y620608D01*
X280754D01*
X518414Y778255D02*
X521123D01*
X519768D01*
Y774192D01*
X522477D02*
Y778255D01*
X524508D01*
X525185Y777578D01*
Y776223D01*
X524508Y775546D01*
X522477D01*
X529248Y774192D02*
X526539D01*
X529248Y776900D01*
Y777578D01*
X528571Y778255D01*
X527216D01*
X526539Y777578D01*
X530602Y774869D02*
X531279Y774192D01*
X532633D01*
X533311Y774869D01*
Y777578D01*
X532633Y778255D01*
X531279D01*
X530602Y777578D01*
Y776900D01*
X531279Y776223D01*
X533311D01*
X477520Y821181D02*
X480229D01*
X478874D01*
Y817118D01*
X481583D02*
Y821181D01*
X483614D01*
X484291Y820504D01*
Y819149D01*
X483614Y818472D01*
X481583D01*
X488354Y817118D02*
X485645D01*
X488354Y819827D01*
Y820504D01*
X487677Y821181D01*
X486323D01*
X485645Y820504D01*
X489708D02*
X490385Y821181D01*
X491739D01*
X492416Y820504D01*
Y819827D01*
X491739Y819149D01*
X492416Y818472D01*
Y817795D01*
X491739Y817118D01*
X490385D01*
X489708Y817795D01*
Y818472D01*
X490385Y819149D01*
X489708Y819827D01*
Y820504D01*
X490385Y819149D02*
X491739D01*
X112522Y831849D02*
X115231D01*
X113876D01*
Y827786D01*
X116585D02*
Y831849D01*
X118616D01*
X119293Y831172D01*
Y829817D01*
X118616Y829140D01*
X116585D01*
X123356Y827786D02*
X120647D01*
X123356Y830495D01*
Y831172D01*
X122679Y831849D01*
X121325D01*
X120647Y831172D01*
X124710Y831849D02*
X127418D01*
Y831172D01*
X124710Y828463D01*
Y827786D01*
X394208Y848867D02*
X396917D01*
X395562D01*
Y844804D01*
X398271D02*
Y848867D01*
X400302D01*
X400979Y848190D01*
Y846835D01*
X400302Y846158D01*
X398271D01*
X405042Y844804D02*
X402333D01*
X405042Y847513D01*
Y848190D01*
X404365Y848867D01*
X403010D01*
X402333Y848190D01*
X409104Y848867D02*
X406396D01*
Y846835D01*
X407750Y847513D01*
X408427D01*
X409104Y846835D01*
Y845481D01*
X408427Y844804D01*
X407073D01*
X406396Y845481D01*
X561848Y836675D02*
X564557D01*
X563202D01*
Y832612D01*
X565911D02*
Y836675D01*
X567942D01*
X568619Y835998D01*
Y834643D01*
X567942Y833966D01*
X565911D01*
X572682Y832612D02*
X569973D01*
X572682Y835321D01*
Y835998D01*
X572005Y836675D01*
X570650D01*
X569973Y835998D01*
X576067Y832612D02*
Y836675D01*
X574036Y834643D01*
X576744D01*
X453898Y671321D02*
X456606D01*
X455252D01*
Y667258D01*
X457961D02*
Y671321D01*
X459992D01*
X460669Y670644D01*
Y669289D01*
X459992Y668612D01*
X457961D01*
X464732Y667258D02*
X462023D01*
X464732Y669967D01*
Y670644D01*
X464055Y671321D01*
X462701D01*
X462023Y670644D01*
X466086D02*
X466763Y671321D01*
X468117D01*
X468795Y670644D01*
Y669967D01*
X468117Y669289D01*
X467440D01*
X468117D01*
X468795Y668612D01*
Y667935D01*
X468117Y667258D01*
X466763D01*
X466086Y667935D01*
X342900Y907541D02*
X345608D01*
X344254D01*
Y903478D01*
X346963D02*
Y907541D01*
X348994D01*
X349671Y906864D01*
Y905509D01*
X348994Y904832D01*
X346963D01*
X353734Y903478D02*
X351025D01*
X353734Y906187D01*
Y906864D01*
X353057Y907541D01*
X351702D01*
X351025Y906864D01*
X357797Y903478D02*
X355088D01*
X357797Y906187D01*
Y906864D01*
X357119Y907541D01*
X355765D01*
X355088Y906864D01*
X219964Y649985D02*
X222673D01*
X221318D01*
Y645922D01*
X224027D02*
Y649985D01*
X226058D01*
X226735Y649308D01*
Y647953D01*
X226058Y647276D01*
X224027D01*
X230798Y645922D02*
X228089D01*
X230798Y648631D01*
Y649308D01*
X230121Y649985D01*
X228766D01*
X228089Y649308D01*
X232152Y645922D02*
X233506D01*
X232829D01*
Y649985D01*
X232152Y649308D01*
X125902Y501141D02*
X128610D01*
X127256D01*
Y497079D01*
X129965D02*
Y501141D01*
X131996D01*
X132673Y500464D01*
Y499110D01*
X131996Y498433D01*
X129965D01*
X136736Y497079D02*
X134027D01*
X136736Y499787D01*
Y500464D01*
X136059Y501141D01*
X134704D01*
X134027Y500464D01*
X138090D02*
X138767Y501141D01*
X140121D01*
X140798Y500464D01*
Y497756D01*
X140121Y497079D01*
X138767D01*
X138090Y497756D01*
Y500464D01*
X475744Y785875D02*
X478453D01*
X477099D01*
Y781813D01*
X479807D02*
Y785875D01*
X481838D01*
X482515Y785198D01*
Y783844D01*
X481838Y783167D01*
X479807D01*
X483870Y781813D02*
X485224D01*
X484547D01*
Y785875D01*
X483870Y785198D01*
X487255D02*
X487932Y785875D01*
X489287D01*
X489964Y785198D01*
Y784521D01*
X489287Y783844D01*
X488610D01*
X489287D01*
X489964Y783167D01*
Y782490D01*
X489287Y781813D01*
X487932D01*
X487255Y782490D01*
X445010Y740409D02*
X447719D01*
X446365D01*
Y736347D01*
X449073D02*
Y740409D01*
X451104D01*
X451781Y739732D01*
Y738378D01*
X451104Y737701D01*
X449073D01*
X453136Y736347D02*
X454490D01*
X453813D01*
Y740409D01*
X453136Y739732D01*
X459230Y736347D02*
X456521D01*
X459230Y739055D01*
Y739732D01*
X458553Y740409D01*
X457198D01*
X456521Y739732D01*
X476421Y771651D02*
X479130D01*
X477776D01*
Y767589D01*
X480484D02*
Y771651D01*
X482515D01*
X483193Y770974D01*
Y769620D01*
X482515Y768943D01*
X480484D01*
X484547Y767589D02*
X485901D01*
X485224D01*
Y771651D01*
X484547Y770974D01*
X487932Y767589D02*
X489287D01*
X488610D01*
Y771651D01*
X487932Y770974D01*
X378460Y792733D02*
X381169D01*
X379814D01*
Y788670D01*
X382523D02*
Y792733D01*
X384554D01*
X385231Y792056D01*
Y790701D01*
X384554Y790024D01*
X382523D01*
X386585Y788670D02*
X387940D01*
X387262D01*
Y792733D01*
X386585Y792056D01*
X389971D02*
X390648Y792733D01*
X392002D01*
X392679Y792056D01*
Y789347D01*
X392002Y788670D01*
X390648D01*
X389971Y789347D01*
Y792056D01*
X476167Y799845D02*
X478876D01*
X477521D01*
Y795783D01*
X480230D02*
Y799845D01*
X482261D01*
X482938Y799168D01*
Y797814D01*
X482261Y797137D01*
X480230D01*
X484292Y796460D02*
X484970Y795783D01*
X486324D01*
X487001Y796460D01*
Y799168D01*
X486324Y799845D01*
X484970D01*
X484292Y799168D01*
Y798491D01*
X484970Y797814D01*
X487001D01*
X399713Y727963D02*
X402421D01*
X401067D01*
Y723901D01*
X403776D02*
Y727963D01*
X405807D01*
X406484Y727286D01*
Y725932D01*
X405807Y725255D01*
X403776D01*
X407839Y727286D02*
X408516Y727963D01*
X409870D01*
X410547Y727286D01*
Y726609D01*
X409870Y725932D01*
X410547Y725255D01*
Y724578D01*
X409870Y723901D01*
X408516D01*
X407839Y724578D01*
Y725255D01*
X408516Y725932D01*
X407839Y726609D01*
Y727286D01*
X408516Y725932D02*
X409870D01*
X381761Y761829D02*
Y759120D01*
Y760475D01*
X377699D01*
Y757766D02*
X381761D01*
Y755735D01*
X381084Y755058D01*
X379730D01*
X379053Y755735D01*
Y757766D01*
X381761Y753704D02*
Y750995D01*
X381084D01*
X378376Y753704D01*
X377699D01*
X378713Y800437D02*
Y797729D01*
Y799083D01*
X374651D01*
Y796374D02*
X378713D01*
Y794343D01*
X378036Y793666D01*
X376682D01*
X376005Y794343D01*
Y796374D01*
X378713Y789603D02*
X378036Y790957D01*
X376682Y792311D01*
X375328D01*
X374651Y791634D01*
Y790280D01*
X375328Y789603D01*
X376005D01*
X376682Y790280D01*
Y792311D01*
X355345Y806787D02*
Y804079D01*
Y805433D01*
X351283D01*
Y802724D02*
X355345D01*
Y800693D01*
X354668Y800016D01*
X353314D01*
X352637Y800693D01*
Y802724D01*
X354668Y798661D02*
X355345Y797984D01*
Y796630D01*
X354668Y795953D01*
X353991D01*
X353314Y796630D01*
Y797307D01*
Y796630D01*
X352637Y795953D01*
X351960D01*
X351283Y796630D01*
Y797984D01*
X351960Y798661D01*
X356869Y790785D02*
Y788076D01*
Y789431D01*
X352807D01*
Y786722D02*
X356869D01*
Y784691D01*
X356192Y784014D01*
X354838D01*
X354161Y784691D01*
Y786722D01*
X352807Y779951D02*
Y782660D01*
X355515Y779951D01*
X356192D01*
X356869Y780628D01*
Y781982D01*
X356192Y782660D01*
X341376Y867409D02*
X344085D01*
X342730D01*
Y863346D01*
X345439D02*
Y867409D01*
X347470D01*
X348147Y866732D01*
Y865377D01*
X347470Y864700D01*
X345439D01*
X349501Y863346D02*
X350856D01*
X350178D01*
Y867409D01*
X349501Y866732D01*
X486015Y754728D02*
X485338Y755406D01*
X483984D01*
X483307Y754728D01*
Y754051D01*
X483984Y753374D01*
X485338D01*
X486015Y752697D01*
Y752020D01*
X485338Y751343D01*
X483984D01*
X483307Y752020D01*
X487369Y755406D02*
Y751343D01*
X488724Y752697D01*
X490078Y751343D01*
Y755406D01*
X491432Y754728D02*
X492109Y755406D01*
X493463D01*
X494141Y754728D01*
Y754051D01*
X493463Y753374D01*
X492786D01*
X493463D01*
X494141Y752697D01*
Y752020D01*
X493463Y751343D01*
X492109D01*
X491432Y752020D01*
X498203Y755406D02*
X496849Y754728D01*
X495495Y753374D01*
Y752020D01*
X496172Y751343D01*
X497526D01*
X498203Y752020D01*
Y752697D01*
X497526Y753374D01*
X495495D01*
X667427Y756750D02*
X666749Y757427D01*
X665395D01*
X664718Y756750D01*
Y756072D01*
X665395Y755395D01*
X666749D01*
X667427Y754718D01*
Y754041D01*
X666749Y753364D01*
X665395D01*
X664718Y754041D01*
X668781Y757427D02*
Y753364D01*
X670135Y754718D01*
X671489Y753364D01*
Y757427D01*
X672843Y756750D02*
X673521Y757427D01*
X674875D01*
X675552Y756750D01*
Y756072D01*
X674875Y755395D01*
X674198D01*
X674875D01*
X675552Y754718D01*
Y754041D01*
X674875Y753364D01*
X673521D01*
X672843Y754041D01*
X679614Y757427D02*
X676906D01*
Y755395D01*
X678260Y756072D01*
X678937D01*
X679614Y755395D01*
Y754041D01*
X678937Y753364D01*
X677583D01*
X676906Y754041D01*
X857926Y769450D02*
X857249Y770127D01*
X855895D01*
X855218Y769450D01*
Y768773D01*
X855895Y768095D01*
X857249D01*
X857926Y767418D01*
Y766741D01*
X857249Y766064D01*
X855895D01*
X855218Y766741D01*
X859281Y770127D02*
Y766064D01*
X860635Y767418D01*
X861989Y766064D01*
Y770127D01*
X863343Y769450D02*
X864020Y770127D01*
X865375D01*
X866052Y769450D01*
Y768773D01*
X865375Y768095D01*
X864698D01*
X865375D01*
X866052Y767418D01*
Y766741D01*
X865375Y766064D01*
X864020D01*
X863343Y766741D01*
X869437Y766064D02*
Y770127D01*
X867406Y768095D01*
X870115D01*
X1048427Y785452D02*
X1047749Y786129D01*
X1046395D01*
X1045718Y785452D01*
Y784774D01*
X1046395Y784097D01*
X1047749D01*
X1048427Y783420D01*
Y782743D01*
X1047749Y782066D01*
X1046395D01*
X1045718Y782743D01*
X1049781Y786129D02*
Y782066D01*
X1051135Y783420D01*
X1052489Y782066D01*
Y786129D01*
X1053843Y785452D02*
X1054520Y786129D01*
X1055875D01*
X1056552Y785452D01*
Y784774D01*
X1055875Y784097D01*
X1055198D01*
X1055875D01*
X1056552Y783420D01*
Y782743D01*
X1055875Y782066D01*
X1054520D01*
X1053843Y782743D01*
X1057906Y785452D02*
X1058583Y786129D01*
X1059937D01*
X1060614Y785452D01*
Y784774D01*
X1059937Y784097D01*
X1059260D01*
X1059937D01*
X1060614Y783420D01*
Y782743D01*
X1059937Y782066D01*
X1058583D01*
X1057906Y782743D01*
X1240704Y771228D02*
X1240027Y771905D01*
X1238673D01*
X1237996Y771228D01*
Y770551D01*
X1238673Y769873D01*
X1240027D01*
X1240704Y769196D01*
Y768519D01*
X1240027Y767842D01*
X1238673D01*
X1237996Y768519D01*
X1242059Y771905D02*
Y767842D01*
X1243413Y769196D01*
X1244767Y767842D01*
Y771905D01*
X1246121Y771228D02*
X1246798Y771905D01*
X1248153D01*
X1248830Y771228D01*
Y770551D01*
X1248153Y769873D01*
X1247476D01*
X1248153D01*
X1248830Y769196D01*
Y768519D01*
X1248153Y767842D01*
X1246798D01*
X1246121Y768519D01*
X1252893Y767842D02*
X1250184D01*
X1252893Y770551D01*
Y771228D01*
X1252215Y771905D01*
X1250861D01*
X1250184Y771228D01*
X1432475Y737954D02*
X1431797Y738631D01*
X1430443D01*
X1429766Y737954D01*
Y737277D01*
X1430443Y736599D01*
X1431797D01*
X1432475Y735922D01*
Y735245D01*
X1431797Y734568D01*
X1430443D01*
X1429766Y735245D01*
X1433829Y738631D02*
Y734568D01*
X1435183Y735922D01*
X1436537Y734568D01*
Y738631D01*
X1437891Y737954D02*
X1438569Y738631D01*
X1439923D01*
X1440600Y737954D01*
Y737277D01*
X1439923Y736599D01*
X1439246D01*
X1439923D01*
X1440600Y735922D01*
Y735245D01*
X1439923Y734568D01*
X1438569D01*
X1437891Y735245D01*
X1441954Y734568D02*
X1443308D01*
X1442631D01*
Y738631D01*
X1441954Y737954D01*
X1669456Y739224D02*
X1668779Y739901D01*
X1667425D01*
X1666748Y739224D01*
Y738547D01*
X1667425Y737869D01*
X1668779D01*
X1669456Y737192D01*
Y736515D01*
X1668779Y735838D01*
X1667425D01*
X1666748Y736515D01*
X1670811Y739901D02*
Y735838D01*
X1672165Y737192D01*
X1673519Y735838D01*
Y739901D01*
X1674873Y739224D02*
X1675551Y739901D01*
X1676905D01*
X1677582Y739224D01*
Y738547D01*
X1676905Y737869D01*
X1676228D01*
X1676905D01*
X1677582Y737192D01*
Y736515D01*
X1676905Y735838D01*
X1675551D01*
X1674873Y736515D01*
X1678936Y739224D02*
X1679613Y739901D01*
X1680967D01*
X1681644Y739224D01*
Y736515D01*
X1680967Y735838D01*
X1679613D01*
X1678936Y736515D01*
Y739224D01*
X476926Y518752D02*
X476249Y519429D01*
X474895D01*
X474218Y518752D01*
Y518074D01*
X474895Y517397D01*
X476249D01*
X476926Y516720D01*
Y516043D01*
X476249Y515366D01*
X474895D01*
X474218Y516043D01*
X478281Y519429D02*
Y515366D01*
X479635Y516720D01*
X480989Y515366D01*
Y519429D01*
X485052Y515366D02*
X482343D01*
X485052Y518074D01*
Y518752D01*
X484375Y519429D01*
X483021D01*
X482343Y518752D01*
X486406Y516043D02*
X487083Y515366D01*
X488437D01*
X489114Y516043D01*
Y518752D01*
X488437Y519429D01*
X487083D01*
X486406Y518752D01*
Y518074D01*
X487083Y517397D01*
X489114D01*
X669204Y568028D02*
X668527Y568705D01*
X667173D01*
X666496Y568028D01*
Y567351D01*
X667173Y566673D01*
X668527D01*
X669204Y565996D01*
Y565319D01*
X668527Y564642D01*
X667173D01*
X666496Y565319D01*
X670559Y568705D02*
Y564642D01*
X671913Y565996D01*
X673267Y564642D01*
Y568705D01*
X677330Y564642D02*
X674621D01*
X677330Y567351D01*
Y568028D01*
X676653Y568705D01*
X675298D01*
X674621Y568028D01*
X678684D02*
X679361Y568705D01*
X680715D01*
X681393Y568028D01*
Y567351D01*
X680715Y566673D01*
X681393Y565996D01*
Y565319D01*
X680715Y564642D01*
X679361D01*
X678684Y565319D01*
Y565996D01*
X679361Y566673D01*
X678684Y567351D01*
Y568028D01*
X679361Y566673D02*
X680715D01*
X859705Y580728D02*
X859027Y581405D01*
X857673D01*
X856996Y580728D01*
Y580051D01*
X857673Y579373D01*
X859027D01*
X859705Y578696D01*
Y578019D01*
X859027Y577342D01*
X857673D01*
X856996Y578019D01*
X861059Y581405D02*
Y577342D01*
X862413Y578696D01*
X863767Y577342D01*
Y581405D01*
X867830Y577342D02*
X865121D01*
X867830Y580051D01*
Y580728D01*
X867153Y581405D01*
X865798D01*
X865121Y580728D01*
X869184Y581405D02*
X871892D01*
Y580728D01*
X869184Y578019D01*
Y577342D01*
X1051220Y596476D02*
X1050543Y597153D01*
X1049189D01*
X1048512Y596476D01*
Y595798D01*
X1049189Y595121D01*
X1050543D01*
X1051220Y594444D01*
Y593767D01*
X1050543Y593090D01*
X1049189D01*
X1048512Y593767D01*
X1052575Y597153D02*
Y593090D01*
X1053929Y594444D01*
X1055283Y593090D01*
Y597153D01*
X1059346Y593090D02*
X1056637D01*
X1059346Y595798D01*
Y596476D01*
X1058669Y597153D01*
X1057315D01*
X1056637Y596476D01*
X1063409Y597153D02*
X1062054Y596476D01*
X1060700Y595121D01*
Y593767D01*
X1061377Y593090D01*
X1062731D01*
X1063409Y593767D01*
Y594444D01*
X1062731Y595121D01*
X1060700D01*
X1240958Y581236D02*
X1240281Y581913D01*
X1238927D01*
X1238250Y581236D01*
Y580559D01*
X1238927Y579881D01*
X1240281D01*
X1240958Y579204D01*
Y578527D01*
X1240281Y577850D01*
X1238927D01*
X1238250Y578527D01*
X1242313Y581913D02*
Y577850D01*
X1243667Y579204D01*
X1245021Y577850D01*
Y581913D01*
X1249084Y577850D02*
X1246375D01*
X1249084Y580559D01*
Y581236D01*
X1248407Y581913D01*
X1247053D01*
X1246375Y581236D01*
X1253147Y581913D02*
X1250438D01*
Y579881D01*
X1251792Y580559D01*
X1252469D01*
X1253147Y579881D01*
Y578527D01*
X1252469Y577850D01*
X1251115D01*
X1250438Y578527D01*
X1430697Y548216D02*
X1430019Y548893D01*
X1428665D01*
X1427988Y548216D01*
Y547538D01*
X1428665Y546861D01*
X1430019D01*
X1430697Y546184D01*
Y545507D01*
X1430019Y544830D01*
X1428665D01*
X1427988Y545507D01*
X1432051Y548893D02*
Y544830D01*
X1433405Y546184D01*
X1434759Y544830D01*
Y548893D01*
X1438822Y544830D02*
X1436113D01*
X1438822Y547538D01*
Y548216D01*
X1438145Y548893D01*
X1436790D01*
X1436113Y548216D01*
X1442207Y544830D02*
Y548893D01*
X1440176Y546861D01*
X1442885D01*
X1668694Y548216D02*
X1668017Y548893D01*
X1666663D01*
X1665986Y548216D01*
Y547538D01*
X1666663Y546861D01*
X1668017D01*
X1668694Y546184D01*
Y545507D01*
X1668017Y544830D01*
X1666663D01*
X1665986Y545507D01*
X1670049Y548893D02*
Y544830D01*
X1671403Y546184D01*
X1672757Y544830D01*
Y548893D01*
X1676820Y544830D02*
X1674111D01*
X1676820Y547538D01*
Y548216D01*
X1676143Y548893D01*
X1674789D01*
X1674111Y548216D01*
X1678174D02*
X1678851Y548893D01*
X1680205D01*
X1680883Y548216D01*
Y547538D01*
X1680205Y546861D01*
X1679528D01*
X1680205D01*
X1680883Y546184D01*
Y545507D01*
X1680205Y544830D01*
X1678851D01*
X1678174Y545507D01*
X272710Y55456D02*
X272033Y56133D01*
X270679D01*
X270002Y55456D01*
Y54778D01*
X270679Y54101D01*
X272033D01*
X272710Y53424D01*
Y52747D01*
X272033Y52070D01*
X270679D01*
X270002Y52747D01*
X274065Y56133D02*
Y52070D01*
X275419Y53424D01*
X276773Y52070D01*
Y56133D01*
X280836Y52070D02*
X278127D01*
X280836Y54778D01*
Y55456D01*
X280159Y56133D01*
X278804D01*
X278127Y55456D01*
X284898Y52070D02*
X282190D01*
X284898Y54778D01*
Y55456D01*
X284221Y56133D01*
X282867D01*
X282190Y55456D01*
X668188Y377274D02*
X667511Y377951D01*
X666157D01*
X665480Y377274D01*
Y376596D01*
X666157Y375919D01*
X667511D01*
X668188Y375242D01*
Y374565D01*
X667511Y373888D01*
X666157D01*
X665480Y374565D01*
X669543Y377951D02*
Y373888D01*
X670897Y375242D01*
X672251Y373888D01*
Y377951D01*
X676314Y373888D02*
X673605D01*
X676314Y376596D01*
Y377274D01*
X675637Y377951D01*
X674283D01*
X673605Y377274D01*
X677668Y373888D02*
X679022D01*
X678345D01*
Y377951D01*
X677668Y377274D01*
X857926Y388450D02*
X857249Y389127D01*
X855895D01*
X855218Y388450D01*
Y387772D01*
X855895Y387095D01*
X857249D01*
X857926Y386418D01*
Y385741D01*
X857249Y385064D01*
X855895D01*
X855218Y385741D01*
X859281Y389127D02*
Y385064D01*
X860635Y386418D01*
X861989Y385064D01*
Y389127D01*
X866052Y385064D02*
X863343D01*
X866052Y387772D01*
Y388450D01*
X865375Y389127D01*
X864020D01*
X863343Y388450D01*
X867406D02*
X868083Y389127D01*
X869437D01*
X870115Y388450D01*
Y385741D01*
X869437Y385064D01*
X868083D01*
X867406Y385741D01*
Y388450D01*
X1048427Y404452D02*
X1047749Y405129D01*
X1046395D01*
X1045718Y404452D01*
Y403774D01*
X1046395Y403097D01*
X1047749D01*
X1048427Y402420D01*
Y401743D01*
X1047749Y401066D01*
X1046395D01*
X1045718Y401743D01*
X1049781Y405129D02*
Y401066D01*
X1051135Y402420D01*
X1052489Y401066D01*
Y405129D01*
X1053843Y401066D02*
X1055198D01*
X1054520D01*
Y405129D01*
X1053843Y404452D01*
X1057229Y401743D02*
X1057906Y401066D01*
X1059260D01*
X1059937Y401743D01*
Y404452D01*
X1059260Y405129D01*
X1057906D01*
X1057229Y404452D01*
Y403774D01*
X1057906Y403097D01*
X1059937D01*
X1261281Y385148D02*
X1260604Y385825D01*
X1259249D01*
X1258572Y385148D01*
Y384471D01*
X1259249Y383794D01*
X1260604D01*
X1261281Y383117D01*
Y382440D01*
X1260604Y381763D01*
X1259249D01*
X1258572Y382440D01*
X1262635Y385825D02*
Y381763D01*
X1263989Y383117D01*
X1265343Y381763D01*
Y385825D01*
X1266698Y381763D02*
X1268052D01*
X1267375D01*
Y385825D01*
X1266698Y385148D01*
X1270083D02*
X1270760Y385825D01*
X1272115D01*
X1272792Y385148D01*
Y384471D01*
X1272115Y383794D01*
X1272792Y383117D01*
Y382440D01*
X1272115Y381763D01*
X1270760D01*
X1270083Y382440D01*
Y383117D01*
X1270760Y383794D01*
X1270083Y384471D01*
Y385148D01*
X1270760Y383794D02*
X1272115D01*
X1429427Y356700D02*
X1428749Y357377D01*
X1427395D01*
X1426718Y356700D01*
Y356022D01*
X1427395Y355345D01*
X1428749D01*
X1429427Y354668D01*
Y353991D01*
X1428749Y353314D01*
X1427395D01*
X1426718Y353991D01*
X1430781Y357377D02*
Y353314D01*
X1432135Y354668D01*
X1433489Y353314D01*
Y357377D01*
X1434843Y353314D02*
X1436198D01*
X1435520D01*
Y357377D01*
X1434843Y356700D01*
X1438229Y357377D02*
X1440937D01*
Y356700D01*
X1438229Y353991D01*
Y353314D01*
X1667424Y356700D02*
X1666747Y357377D01*
X1665393D01*
X1664716Y356700D01*
Y356022D01*
X1665393Y355345D01*
X1666747D01*
X1667424Y354668D01*
Y353991D01*
X1666747Y353314D01*
X1665393D01*
X1664716Y353991D01*
X1668779Y357377D02*
Y353314D01*
X1670133Y354668D01*
X1671487Y353314D01*
Y357377D01*
X1672841Y353314D02*
X1674196D01*
X1673519D01*
Y357377D01*
X1672841Y356700D01*
X1678935Y357377D02*
X1677581Y356700D01*
X1676227Y355345D01*
Y353991D01*
X1676904Y353314D01*
X1678258D01*
X1678935Y353991D01*
Y354668D01*
X1678258Y355345D01*
X1676227D01*
X478704Y234018D02*
X478027Y234695D01*
X476673D01*
X475996Y234018D01*
Y233340D01*
X476673Y232663D01*
X478027D01*
X478704Y231986D01*
Y231309D01*
X478027Y230632D01*
X476673D01*
X475996Y231309D01*
X480059Y234695D02*
Y230632D01*
X481413Y231986D01*
X482767Y230632D01*
Y234695D01*
X484121Y230632D02*
X485476D01*
X484799D01*
Y234695D01*
X484121Y234018D01*
X490215Y234695D02*
X487507D01*
Y232663D01*
X488861Y233340D01*
X489538D01*
X490215Y232663D01*
Y231309D01*
X489538Y230632D01*
X488184D01*
X487507Y231309D01*
X669967Y187282D02*
X669289Y187959D01*
X667935D01*
X667258Y187282D01*
Y186604D01*
X667935Y185927D01*
X669289D01*
X669967Y185250D01*
Y184573D01*
X669289Y183896D01*
X667935D01*
X667258Y184573D01*
X671321Y187959D02*
Y183896D01*
X672675Y185250D01*
X674029Y183896D01*
Y187959D01*
X675383Y183896D02*
X676738D01*
X676060D01*
Y187959D01*
X675383Y187282D01*
X680800Y183896D02*
Y187959D01*
X678769Y185927D01*
X681477D01*
X859705Y199728D02*
X859027Y200405D01*
X857673D01*
X856996Y199728D01*
Y199051D01*
X857673Y198373D01*
X859027D01*
X859705Y197696D01*
Y197019D01*
X859027Y196342D01*
X857673D01*
X856996Y197019D01*
X861059Y200405D02*
Y196342D01*
X862413Y197696D01*
X863767Y196342D01*
Y200405D01*
X865121Y196342D02*
X866476D01*
X865798D01*
Y200405D01*
X865121Y199728D01*
X868507D02*
X869184Y200405D01*
X870538D01*
X871215Y199728D01*
Y199051D01*
X870538Y198373D01*
X869861D01*
X870538D01*
X871215Y197696D01*
Y197019D01*
X870538Y196342D01*
X869184D01*
X868507Y197019D01*
X1049697Y214206D02*
X1049019Y214883D01*
X1047665D01*
X1046988Y214206D01*
Y213528D01*
X1047665Y212851D01*
X1049019D01*
X1049697Y212174D01*
Y211497D01*
X1049019Y210820D01*
X1047665D01*
X1046988Y211497D01*
X1051051Y214883D02*
Y210820D01*
X1052405Y212174D01*
X1053759Y210820D01*
Y214883D01*
X1055113Y210820D02*
X1056468D01*
X1055790D01*
Y214883D01*
X1055113Y214206D01*
X1061207Y210820D02*
X1058499D01*
X1061207Y213528D01*
Y214206D01*
X1060530Y214883D01*
X1059176D01*
X1058499Y214206D01*
X1240704Y199728D02*
X1240027Y200405D01*
X1238673D01*
X1237996Y199728D01*
Y199051D01*
X1238673Y198373D01*
X1240027D01*
X1240704Y197696D01*
Y197019D01*
X1240027Y196342D01*
X1238673D01*
X1237996Y197019D01*
X1242059Y200405D02*
Y196342D01*
X1243413Y197696D01*
X1244767Y196342D01*
Y200405D01*
X1246121Y196342D02*
X1247476D01*
X1246798D01*
Y200405D01*
X1246121Y199728D01*
X1249507Y196342D02*
X1250861D01*
X1250184D01*
Y200405D01*
X1249507Y199728D01*
X1429427Y166200D02*
X1428749Y166877D01*
X1427395D01*
X1426718Y166200D01*
Y165522D01*
X1427395Y164845D01*
X1428749D01*
X1429427Y164168D01*
Y163491D01*
X1428749Y162814D01*
X1427395D01*
X1426718Y163491D01*
X1430781Y166877D02*
Y162814D01*
X1432135Y164168D01*
X1433489Y162814D01*
Y166877D01*
X1434843Y162814D02*
X1436198D01*
X1435520D01*
Y166877D01*
X1434843Y166200D01*
X1438229D02*
X1438906Y166877D01*
X1440260D01*
X1440937Y166200D01*
Y163491D01*
X1440260Y162814D01*
X1438906D01*
X1438229Y163491D01*
Y166200D01*
X1667424D02*
X1666747Y166877D01*
X1665393D01*
X1664716Y166200D01*
Y165522D01*
X1665393Y164845D01*
X1666747D01*
X1667424Y164168D01*
Y163491D01*
X1666747Y162814D01*
X1665393D01*
X1664716Y163491D01*
X1668779Y166877D02*
Y162814D01*
X1670133Y164168D01*
X1671487Y162814D01*
Y166877D01*
X1672841Y163491D02*
X1673519Y162814D01*
X1674873D01*
X1675550Y163491D01*
Y166200D01*
X1674873Y166877D01*
X1673519D01*
X1672841Y166200D01*
Y165522D01*
X1673519Y164845D01*
X1675550D01*
X395392Y-201592D02*
X394715Y-200915D01*
X393361D01*
X392684Y-201592D01*
Y-202269D01*
X393361Y-202947D01*
X394715D01*
X395392Y-203624D01*
Y-204301D01*
X394715Y-204978D01*
X393361D01*
X392684Y-204301D01*
X396747Y-200915D02*
Y-204978D01*
X398101Y-203624D01*
X399455Y-204978D01*
Y-200915D01*
X400809Y-201592D02*
X401487Y-200915D01*
X402841D01*
X403518Y-201592D01*
Y-202269D01*
X402841Y-202947D01*
X403518Y-203624D01*
Y-204301D01*
X402841Y-204978D01*
X401487D01*
X400809Y-204301D01*
Y-203624D01*
X401487Y-202947D01*
X400809Y-202269D01*
Y-201592D01*
X401487Y-202947D02*
X402841D01*
X567859Y-121836D02*
X567181Y-121159D01*
X565827D01*
X565150Y-121836D01*
Y-122514D01*
X565827Y-123191D01*
X567181D01*
X567859Y-123868D01*
Y-124545D01*
X567181Y-125222D01*
X565827D01*
X565150Y-124545D01*
X569213Y-121159D02*
Y-125222D01*
X570567Y-123868D01*
X571921Y-125222D01*
Y-121159D01*
X573275D02*
X575984D01*
Y-121836D01*
X573275Y-124545D01*
Y-125222D01*
X857926Y7450D02*
X857249Y8127D01*
X855895D01*
X855218Y7450D01*
Y6773D01*
X855895Y6095D01*
X857249D01*
X857926Y5418D01*
Y4741D01*
X857249Y4064D01*
X855895D01*
X855218Y4741D01*
X859281Y8127D02*
Y4064D01*
X860635Y5418D01*
X861989Y4064D01*
Y8127D01*
X866052D02*
X864698Y7450D01*
X863343Y6095D01*
Y4741D01*
X864020Y4064D01*
X865375D01*
X866052Y4741D01*
Y5418D01*
X865375Y6095D01*
X863343D01*
X1048934Y24214D02*
X1048257Y24891D01*
X1046903D01*
X1046226Y24214D01*
Y23537D01*
X1046903Y22859D01*
X1048257D01*
X1048934Y22182D01*
Y21505D01*
X1048257Y20828D01*
X1046903D01*
X1046226Y21505D01*
X1050289Y24891D02*
Y20828D01*
X1051643Y22182D01*
X1052997Y20828D01*
Y24891D01*
X1057060D02*
X1054351D01*
Y22859D01*
X1055706Y23537D01*
X1056383D01*
X1057060Y22859D01*
Y21505D01*
X1056383Y20828D01*
X1055029D01*
X1054351Y21505D01*
X1239688Y8212D02*
X1239011Y8889D01*
X1237657D01*
X1236980Y8212D01*
Y7534D01*
X1237657Y6857D01*
X1239011D01*
X1239688Y6180D01*
Y5503D01*
X1239011Y4826D01*
X1237657D01*
X1236980Y5503D01*
X1241043Y8889D02*
Y4826D01*
X1242397Y6180D01*
X1243751Y4826D01*
Y8889D01*
X1247137Y4826D02*
Y8889D01*
X1245105Y6857D01*
X1247814D01*
X1429427Y-24300D02*
X1428749Y-23623D01*
X1427395D01*
X1426718Y-24300D01*
Y-24978D01*
X1427395Y-25655D01*
X1428749D01*
X1429427Y-26332D01*
Y-27009D01*
X1428749Y-27686D01*
X1427395D01*
X1426718Y-27009D01*
X1430781Y-23623D02*
Y-27686D01*
X1432135Y-26332D01*
X1433489Y-27686D01*
Y-23623D01*
X1434843Y-24300D02*
X1435520Y-23623D01*
X1436875D01*
X1437552Y-24300D01*
Y-24978D01*
X1436875Y-25655D01*
X1436198D01*
X1436875D01*
X1437552Y-26332D01*
Y-27009D01*
X1436875Y-27686D01*
X1435520D01*
X1434843Y-27009D01*
X1619926Y-24300D02*
X1619249Y-23623D01*
X1617895D01*
X1617218Y-24300D01*
Y-24978D01*
X1617895Y-25655D01*
X1619249D01*
X1619926Y-26332D01*
Y-27009D01*
X1619249Y-27686D01*
X1617895D01*
X1617218Y-27009D01*
X1621281Y-23623D02*
Y-27686D01*
X1622635Y-26332D01*
X1623989Y-27686D01*
Y-23623D01*
X1628052Y-27686D02*
X1625343D01*
X1628052Y-24978D01*
Y-24300D01*
X1627375Y-23623D01*
X1626021D01*
X1625343Y-24300D01*
X52833Y500972D02*
X52155Y501649D01*
X50801D01*
X50124Y500972D01*
Y500295D01*
X50801Y499618D01*
X52155D01*
X52833Y498941D01*
Y498264D01*
X52155Y497587D01*
X50801D01*
X50124Y498264D01*
X54187Y501649D02*
Y497587D01*
X55541Y498941D01*
X56895Y497587D01*
Y501649D01*
X58250Y497587D02*
X59604D01*
X58927D01*
Y501649D01*
X58250Y500972D01*
X384386Y948944D02*
X385063Y949621D01*
Y950975D01*
X384386Y951653D01*
X383709D01*
X383032Y950975D01*
Y949621D01*
X382355Y948944D01*
X381678D01*
X381001Y949621D01*
Y950975D01*
X381678Y951653D01*
X381001Y947590D02*
Y946236D01*
Y946913D01*
X385063D01*
X384386Y947590D01*
X294049Y675387D02*
Y679449D01*
X296080D01*
X296758Y678772D01*
Y677418D01*
X296080Y676741D01*
X294049D01*
X295403D02*
X296758Y675387D01*
X298112Y678772D02*
X298789Y679449D01*
X300143D01*
X300820Y678772D01*
Y678095D01*
X300143Y677418D01*
X299466D01*
X300143D01*
X300820Y676741D01*
Y676064D01*
X300143Y675387D01*
X298789D01*
X298112Y676064D01*
X304883Y675387D02*
X302174D01*
X304883Y678095D01*
Y678772D01*
X304206Y679449D01*
X302852D01*
X302174Y678772D01*
X283972Y680720D02*
Y684783D01*
X286003D01*
X286681Y684106D01*
Y682751D01*
X286003Y682074D01*
X283972D01*
X285326D02*
X286681Y680720D01*
X288035Y684106D02*
X288712Y684783D01*
X290066D01*
X290743Y684106D01*
Y683428D01*
X290066Y682751D01*
X289389D01*
X290066D01*
X290743Y682074D01*
Y681397D01*
X290066Y680720D01*
X288712D01*
X288035Y681397D01*
X292097Y680720D02*
X293452D01*
X292775D01*
Y684783D01*
X292097Y684106D01*
X560832Y816610D02*
Y820673D01*
X562863D01*
X563540Y819996D01*
Y818641D01*
X562863Y817964D01*
X560832D01*
X562186D02*
X563540Y816610D01*
X564895Y819996D02*
X565572Y820673D01*
X566926D01*
X567603Y819996D01*
Y819318D01*
X566926Y818641D01*
X566249D01*
X566926D01*
X567603Y817964D01*
Y817287D01*
X566926Y816610D01*
X565572D01*
X564895Y817287D01*
X568957Y819996D02*
X569635Y820673D01*
X570989D01*
X571666Y819996D01*
Y817287D01*
X570989Y816610D01*
X569635D01*
X568957Y817287D01*
Y819996D01*
X221020Y836785D02*
Y840848D01*
X223051D01*
X223728Y840171D01*
Y838817D01*
X223051Y838139D01*
X221020D01*
X222374D02*
X223728Y836785D01*
X227791D02*
X225082D01*
X227791Y839494D01*
Y840171D01*
X227114Y840848D01*
X225760D01*
X225082Y840171D01*
X229145Y837462D02*
X229822Y836785D01*
X231176D01*
X231854Y837462D01*
Y840171D01*
X231176Y840848D01*
X229822D01*
X229145Y840171D01*
Y839494D01*
X229822Y838817D01*
X231854D01*
X462026Y832358D02*
Y836421D01*
X464057D01*
X464734Y835744D01*
Y834389D01*
X464057Y833712D01*
X462026D01*
X463380D02*
X464734Y832358D01*
X468797D02*
X466089D01*
X468797Y835067D01*
Y835744D01*
X468120Y836421D01*
X466766D01*
X466089Y835744D01*
X470151D02*
X470829Y836421D01*
X472183D01*
X472860Y835744D01*
Y835067D01*
X472183Y834389D01*
X472860Y833712D01*
Y833035D01*
X472183Y832358D01*
X470829D01*
X470151Y833035D01*
Y833712D01*
X470829Y834389D01*
X470151Y835067D01*
Y835744D01*
X470829Y834389D02*
X472183D01*
X425113Y658027D02*
Y662089D01*
X427144D01*
X427822Y661412D01*
Y660058D01*
X427144Y659381D01*
X425113D01*
X426467D02*
X427822Y658027D01*
X431884D02*
X429176D01*
X431884Y660735D01*
Y661412D01*
X431207Y662089D01*
X429853D01*
X429176Y661412D01*
X433238Y662089D02*
X435947D01*
Y661412D01*
X433238Y658704D01*
Y658027D01*
X434848Y682498D02*
Y686561D01*
X436879D01*
X437556Y685884D01*
Y684529D01*
X436879Y683852D01*
X434848D01*
X436202D02*
X437556Y682498D01*
X441619D02*
X438911D01*
X441619Y685207D01*
Y685884D01*
X440942Y686561D01*
X439588D01*
X438911Y685884D01*
X445682Y686561D02*
X444328Y685884D01*
X442973Y684529D01*
Y683175D01*
X443651Y682498D01*
X445005D01*
X445682Y683175D01*
Y683852D01*
X445005Y684529D01*
X442973D01*
X91565Y-51776D02*
Y-55839D01*
X89534D01*
X88857Y-55162D01*
Y-53807D01*
X89534Y-53130D01*
X91565D01*
X90211D02*
X88857Y-51776D01*
X84794D02*
X87502D01*
X84794Y-54485D01*
Y-55162D01*
X85471Y-55839D01*
X86825D01*
X87502Y-55162D01*
X80731Y-55839D02*
X83440D01*
Y-53807D01*
X82086Y-54485D01*
X81408D01*
X80731Y-53807D01*
Y-52453D01*
X81408Y-51776D01*
X82763D01*
X83440Y-52453D01*
X620268Y785114D02*
Y789177D01*
X622299D01*
X622976Y788500D01*
Y787145D01*
X622299Y786468D01*
X620268D01*
X621622D02*
X622976Y785114D01*
X627039D02*
X624331D01*
X627039Y787822D01*
Y788500D01*
X626362Y789177D01*
X625008D01*
X624331Y788500D01*
X630425Y785114D02*
Y789177D01*
X628393Y787145D01*
X631102D01*
X834136Y800862D02*
Y804925D01*
X836167D01*
X836844Y804248D01*
Y802893D01*
X836167Y802216D01*
X834136D01*
X835490D02*
X836844Y800862D01*
X840907D02*
X838199D01*
X840907Y803570D01*
Y804248D01*
X840230Y804925D01*
X838876D01*
X838199Y804248D01*
X842261D02*
X842939Y804925D01*
X844293D01*
X844970Y804248D01*
Y803570D01*
X844293Y802893D01*
X843616D01*
X844293D01*
X844970Y802216D01*
Y801539D01*
X844293Y800862D01*
X842939D01*
X842261Y801539D01*
X1006348Y812292D02*
Y816355D01*
X1008379D01*
X1009056Y815678D01*
Y814323D01*
X1008379Y813646D01*
X1006348D01*
X1007702D02*
X1009056Y812292D01*
X1013119D02*
X1010411D01*
X1013119Y815001D01*
Y815678D01*
X1012442Y816355D01*
X1011088D01*
X1010411Y815678D01*
X1017182Y812292D02*
X1014473D01*
X1017182Y815001D01*
Y815678D01*
X1016505Y816355D01*
X1015151D01*
X1014473Y815678D01*
X1208024Y815340D02*
Y819403D01*
X1210055D01*
X1210732Y818726D01*
Y817371D01*
X1210055Y816694D01*
X1208024D01*
X1209378D02*
X1210732Y815340D01*
X1214795D02*
X1212087D01*
X1214795Y818048D01*
Y818726D01*
X1214118Y819403D01*
X1212764D01*
X1212087Y818726D01*
X1216149Y815340D02*
X1217504D01*
X1216826D01*
Y819403D01*
X1216149Y818726D01*
X1422654Y812292D02*
Y816355D01*
X1424685D01*
X1425363Y815678D01*
Y814323D01*
X1424685Y813646D01*
X1422654D01*
X1424008D02*
X1425363Y812292D01*
X1429425D02*
X1426717D01*
X1429425Y815001D01*
Y815678D01*
X1428748Y816355D01*
X1427394D01*
X1426717Y815678D01*
X1430779D02*
X1431456Y816355D01*
X1432811D01*
X1433488Y815678D01*
Y812969D01*
X1432811Y812292D01*
X1431456D01*
X1430779Y812969D01*
Y815678D01*
X90424Y456438D02*
Y460501D01*
X92455D01*
X93132Y459824D01*
Y458469D01*
X92455Y457792D01*
X90424D01*
X91778D02*
X93132Y456438D01*
X94487Y459824D02*
X95164Y460501D01*
X96518D01*
X97195Y459824D01*
Y459146D01*
X96518Y458469D01*
X97195Y457792D01*
Y457115D01*
X96518Y456438D01*
X95164D01*
X94487Y457115D01*
Y457792D01*
X95164Y458469D01*
X94487Y459146D01*
Y459824D01*
X95164Y458469D02*
X96518D01*
X382822Y908305D02*
Y912367D01*
X384854D01*
X385531Y911690D01*
Y910336D01*
X384854Y909659D01*
X382822D01*
X384177D02*
X385531Y908305D01*
X389594Y912367D02*
X388239Y911690D01*
X386885Y910336D01*
Y908982D01*
X387562Y908305D01*
X388917D01*
X389594Y908982D01*
Y909659D01*
X388917Y910336D01*
X386885D01*
X154856Y744729D02*
Y748791D01*
X156888D01*
X157565Y748114D01*
Y746760D01*
X156888Y746083D01*
X154856D01*
X156211D02*
X157565Y744729D01*
X161628Y748791D02*
X158919D01*
Y746760D01*
X160273Y747437D01*
X160951D01*
X161628Y746760D01*
Y745406D01*
X160951Y744729D01*
X159596D01*
X158919Y745406D01*
X194310Y870204D02*
Y874267D01*
X196341D01*
X197019Y873590D01*
Y872235D01*
X196341Y871558D01*
X194310D01*
X195664D02*
X197019Y870204D01*
X200404D02*
Y874267D01*
X198373Y872235D01*
X201081D01*
X280417Y861228D02*
X284479D01*
Y859197D01*
X283802Y858520D01*
X282448D01*
X281771Y859197D01*
Y861228D01*
Y859874D02*
X280417Y858520D01*
Y857166D02*
Y855811D01*
Y856489D01*
X284479D01*
X283802Y857166D01*
X90847Y800946D02*
Y798238D01*
X91524Y797561D01*
X92878D01*
X93555Y798238D01*
Y800946D01*
X92878Y801623D01*
X91524D01*
X92201Y800269D02*
X90847Y801623D01*
X91524D02*
X90847Y800946D01*
X86784Y797561D02*
X88138Y798238D01*
X89493Y799592D01*
Y800946D01*
X88815Y801623D01*
X87461D01*
X86784Y800946D01*
Y800269D01*
X87461Y799592D01*
X89493D01*
X145456Y858943D02*
Y861652D01*
X144779Y862329D01*
X143425D01*
X142748Y861652D01*
Y858943D01*
X143425Y858266D01*
X144779D01*
X144102Y859620D02*
X145456Y858266D01*
X144779D02*
X145456Y858943D01*
X149519Y862329D02*
X146811D01*
Y860297D01*
X148165Y860975D01*
X148842D01*
X149519Y860297D01*
Y858943D01*
X148842Y858266D01*
X147488D01*
X146811Y858943D01*
X503088Y828463D02*
Y831172D01*
X502411Y831849D01*
X501057D01*
X500380Y831172D01*
Y828463D01*
X501057Y827786D01*
X502411D01*
X501734Y829140D02*
X503088Y827786D01*
X502411D02*
X503088Y828463D01*
X506474Y827786D02*
Y831849D01*
X504443Y829817D01*
X507151D01*
X404790Y643043D02*
Y645752D01*
X404113Y646429D01*
X402759D01*
X402082Y645752D01*
Y643043D01*
X402759Y642366D01*
X404113D01*
X403436Y643720D02*
X404790Y642366D01*
X404113D02*
X404790Y643043D01*
X406145Y645752D02*
X406822Y646429D01*
X408176D01*
X408853Y645752D01*
Y645074D01*
X408176Y644397D01*
X407499D01*
X408176D01*
X408853Y643720D01*
Y643043D01*
X408176Y642366D01*
X406822D01*
X406145Y643043D01*
X298366Y806196D02*
X301074D01*
X301751Y806873D01*
Y808227D01*
X301074Y808904D01*
X298366D01*
X297689Y808227D01*
Y806873D01*
X299043Y807550D02*
X297689Y806196D01*
Y806873D02*
X298366Y806196D01*
X297689Y804842D02*
Y803487D01*
Y804165D01*
X301751D01*
X301074Y804842D01*
X309880Y767587D02*
Y763524D01*
X312589D01*
X316651Y767587D02*
X313943D01*
Y763524D01*
X316651D01*
X313943Y765555D02*
X315297D01*
X318005Y767587D02*
Y763524D01*
X320037D01*
X320714Y764201D01*
Y766910D01*
X320037Y767587D01*
X318005D01*
X324776Y763524D02*
X322068D01*
X324776Y766233D01*
Y766910D01*
X324099Y767587D01*
X322745D01*
X322068Y766910D01*
X288628Y640335D02*
Y644397D01*
X285919D01*
X281856Y640335D02*
X283211Y641012D01*
X284565Y642366D01*
Y643720D01*
X283888Y644397D01*
X282533D01*
X281856Y643720D01*
Y643043D01*
X282533Y642366D01*
X284565D01*
X201338Y631189D02*
Y627127D01*
X204047D01*
X208110Y631189D02*
X205401D01*
Y629158D01*
X206755Y629835D01*
X207432D01*
X208110Y629158D01*
Y627804D01*
X207432Y627127D01*
X206078D01*
X205401Y627804D01*
X243585Y901784D02*
X239523D01*
Y899075D01*
Y895689D02*
X243585D01*
X241554Y897721D01*
Y895012D01*
X349143Y765817D02*
Y761754D01*
X351852D01*
X353206Y765140D02*
X353883Y765817D01*
X355237D01*
X355914Y765140D01*
Y764463D01*
X355237Y763785D01*
X354560D01*
X355237D01*
X355914Y763108D01*
Y762431D01*
X355237Y761754D01*
X353883D01*
X353206Y762431D01*
X285983Y883749D02*
X281920D01*
Y881041D01*
Y876978D02*
Y879687D01*
X284629Y876978D01*
X285306D01*
X285983Y877655D01*
Y879010D01*
X285306Y879687D01*
X285983Y824652D02*
X281920D01*
Y821944D01*
Y820590D02*
Y819236D01*
Y819913D01*
X285983D01*
X285306Y820590D01*
X481837Y814408D02*
X477775D01*
X479806D01*
Y811699D01*
X481837D01*
X477775D01*
X478452Y810345D02*
X477775Y809668D01*
Y808314D01*
X478452Y807636D01*
X481160D01*
X481837Y808314D01*
Y809668D01*
X481160Y810345D01*
X480483D01*
X479806Y809668D01*
Y807636D01*
X759968Y-296673D02*
Y-300736D01*
Y-298705D01*
X762676D01*
Y-296673D01*
Y-300736D01*
X766739D02*
X764031D01*
X766739Y-298027D01*
Y-297350D01*
X766062Y-296673D01*
X764708D01*
X764031Y-297350D01*
X466090Y642873D02*
Y638810D01*
X468121D01*
X468798Y639487D01*
Y642196D01*
X468121Y642873D01*
X466090D01*
X470153Y642196D02*
X470830Y642873D01*
X472184D01*
X472861Y642196D01*
Y641518D01*
X472184Y640841D01*
X471507D01*
X472184D01*
X472861Y640164D01*
Y639487D01*
X472184Y638810D01*
X470830D01*
X470153Y639487D01*
X474215Y642873D02*
X476924D01*
Y642196D01*
X474215Y639487D01*
Y638810D01*
X657606Y642873D02*
Y638810D01*
X659637D01*
X660314Y639487D01*
Y642196D01*
X659637Y642873D01*
X657606D01*
X661669Y642196D02*
X662346Y642873D01*
X663700D01*
X664377Y642196D01*
Y641518D01*
X663700Y640841D01*
X663023D01*
X663700D01*
X664377Y640164D01*
Y639487D01*
X663700Y638810D01*
X662346D01*
X661669Y639487D01*
X668440Y642873D02*
X667086Y642196D01*
X665731Y640841D01*
Y639487D01*
X666408Y638810D01*
X667763D01*
X668440Y639487D01*
Y640164D01*
X667763Y640841D01*
X665731D01*
X893064Y655573D02*
Y651510D01*
X895095D01*
X895772Y652187D01*
Y654896D01*
X895095Y655573D01*
X893064D01*
X897127Y654896D02*
X897804Y655573D01*
X899158D01*
X899835Y654896D01*
Y654219D01*
X899158Y653541D01*
X898481D01*
X899158D01*
X899835Y652864D01*
Y652187D01*
X899158Y651510D01*
X897804D01*
X897127Y652187D01*
X903898Y655573D02*
X901189D01*
Y653541D01*
X902544Y654219D01*
X903221D01*
X903898Y653541D01*
Y652187D01*
X903221Y651510D01*
X901867D01*
X901189Y652187D01*
X1085596Y665987D02*
Y661924D01*
X1087627D01*
X1088305Y662601D01*
Y665310D01*
X1087627Y665987D01*
X1085596D01*
X1089659Y665310D02*
X1090336Y665987D01*
X1091690D01*
X1092367Y665310D01*
Y664632D01*
X1091690Y663955D01*
X1091013D01*
X1091690D01*
X1092367Y663278D01*
Y662601D01*
X1091690Y661924D01*
X1090336D01*
X1089659Y662601D01*
X1095753Y661924D02*
Y665987D01*
X1093721Y663955D01*
X1096430D01*
X1277874Y655573D02*
Y651510D01*
X1279905D01*
X1280582Y652187D01*
Y654896D01*
X1279905Y655573D01*
X1277874D01*
X1281937Y654896D02*
X1282614Y655573D01*
X1283968D01*
X1284645Y654896D01*
Y654219D01*
X1283968Y653541D01*
X1283291D01*
X1283968D01*
X1284645Y652864D01*
Y652187D01*
X1283968Y651510D01*
X1282614D01*
X1281937Y652187D01*
X1285999Y654896D02*
X1286676Y655573D01*
X1288031D01*
X1288708Y654896D01*
Y654219D01*
X1288031Y653541D01*
X1287354D01*
X1288031D01*
X1288708Y652864D01*
Y652187D01*
X1288031Y651510D01*
X1286676D01*
X1285999Y652187D01*
X1467358Y625093D02*
Y621030D01*
X1469389D01*
X1470067Y621707D01*
Y624416D01*
X1469389Y625093D01*
X1467358D01*
X1471421Y624416D02*
X1472098Y625093D01*
X1473452D01*
X1474129Y624416D01*
Y623739D01*
X1473452Y623061D01*
X1472775D01*
X1473452D01*
X1474129Y622384D01*
Y621707D01*
X1473452Y621030D01*
X1472098D01*
X1471421Y621707D01*
X1478192Y621030D02*
X1475483D01*
X1478192Y623739D01*
Y624416D01*
X1477515Y625093D01*
X1476160D01*
X1475483Y624416D01*
X1702816Y625093D02*
Y621030D01*
X1704847D01*
X1705524Y621707D01*
Y624416D01*
X1704847Y625093D01*
X1702816D01*
X1706879Y624416D02*
X1707556Y625093D01*
X1708910D01*
X1709587Y624416D01*
Y623739D01*
X1708910Y623061D01*
X1708233D01*
X1708910D01*
X1709587Y622384D01*
Y621707D01*
X1708910Y621030D01*
X1707556D01*
X1706879Y621707D01*
X1710941Y621030D02*
X1712296D01*
X1711618D01*
Y625093D01*
X1710941Y624416D01*
X515366Y407669D02*
Y403606D01*
X517397D01*
X518074Y404283D01*
Y406992D01*
X517397Y407669D01*
X515366D01*
X519429Y406992D02*
X520106Y407669D01*
X521460D01*
X522137Y406992D01*
Y406315D01*
X521460Y405637D01*
X520783D01*
X521460D01*
X522137Y404960D01*
Y404283D01*
X521460Y403606D01*
X520106D01*
X519429Y404283D01*
X523491Y406992D02*
X524169Y407669D01*
X525523D01*
X526200Y406992D01*
Y404283D01*
X525523Y403606D01*
X524169D01*
X523491Y404283D01*
Y406992D01*
X705104Y455421D02*
Y451358D01*
X707135D01*
X707812Y452035D01*
Y454744D01*
X707135Y455421D01*
X705104D01*
X711875Y451358D02*
X709167D01*
X711875Y454067D01*
Y454744D01*
X711198Y455421D01*
X709844D01*
X709167Y454744D01*
X713229Y452035D02*
X713906Y451358D01*
X715261D01*
X715938Y452035D01*
Y454744D01*
X715261Y455421D01*
X713906D01*
X713229Y454744D01*
Y454067D01*
X713906Y453389D01*
X715938D01*
X894588Y462279D02*
Y458216D01*
X896619D01*
X897297Y458893D01*
Y461602D01*
X896619Y462279D01*
X894588D01*
X901359Y458216D02*
X898651D01*
X901359Y460924D01*
Y461602D01*
X900682Y462279D01*
X899328D01*
X898651Y461602D01*
X902713D02*
X903391Y462279D01*
X904745D01*
X905422Y461602D01*
Y460924D01*
X904745Y460247D01*
X905422Y459570D01*
Y458893D01*
X904745Y458216D01*
X903391D01*
X902713Y458893D01*
Y459570D01*
X903391Y460247D01*
X902713Y460924D01*
Y461602D01*
X903391Y460247D02*
X904745D01*
X1086866Y479805D02*
Y475742D01*
X1088897D01*
X1089575Y476419D01*
Y479128D01*
X1088897Y479805D01*
X1086866D01*
X1093637Y475742D02*
X1090929D01*
X1093637Y478451D01*
Y479128D01*
X1092960Y479805D01*
X1091606D01*
X1090929Y479128D01*
X1094991Y479805D02*
X1097700D01*
Y479128D01*
X1094991Y476419D01*
Y475742D01*
X1273302Y466851D02*
Y462788D01*
X1275333D01*
X1276011Y463465D01*
Y466174D01*
X1275333Y466851D01*
X1273302D01*
X1280073Y462788D02*
X1277365D01*
X1280073Y465496D01*
Y466174D01*
X1279396Y466851D01*
X1278042D01*
X1277365Y466174D01*
X1284136Y466851D02*
X1282782Y466174D01*
X1281427Y464819D01*
Y463465D01*
X1282104Y462788D01*
X1283459D01*
X1284136Y463465D01*
Y464142D01*
X1283459Y464819D01*
X1281427D01*
X1468882Y437387D02*
Y433324D01*
X1470913D01*
X1471591Y434001D01*
Y436710D01*
X1470913Y437387D01*
X1468882D01*
X1475653Y433324D02*
X1472945D01*
X1475653Y436032D01*
Y436710D01*
X1474976Y437387D01*
X1473622D01*
X1472945Y436710D01*
X1479716Y437387D02*
X1477007D01*
Y435355D01*
X1478362Y436032D01*
X1479039D01*
X1479716Y435355D01*
Y434001D01*
X1479039Y433324D01*
X1477684D01*
X1477007Y434001D01*
X1705102Y436371D02*
Y432308D01*
X1707133D01*
X1707811Y432985D01*
Y435694D01*
X1707133Y436371D01*
X1705102D01*
X1711873Y432308D02*
X1709165D01*
X1711873Y435017D01*
Y435694D01*
X1711196Y436371D01*
X1709842D01*
X1709165Y435694D01*
X1715259Y432308D02*
Y436371D01*
X1713227Y434339D01*
X1715936D01*
X311404Y-56643D02*
Y-60706D01*
X313435D01*
X314112Y-60029D01*
Y-57320D01*
X313435Y-56643D01*
X311404D01*
X318175Y-60706D02*
X315467D01*
X318175Y-57997D01*
Y-57320D01*
X317498Y-56643D01*
X316144D01*
X315467Y-57320D01*
X319529D02*
X320206Y-56643D01*
X321561D01*
X322238Y-57320D01*
Y-57997D01*
X321561Y-58675D01*
X320884D01*
X321561D01*
X322238Y-59352D01*
Y-60029D01*
X321561Y-60706D01*
X320206D01*
X319529Y-60029D01*
X700786Y262381D02*
Y258318D01*
X702817D01*
X703494Y258995D01*
Y261704D01*
X702817Y262381D01*
X700786D01*
X707557Y258318D02*
X704849D01*
X707557Y261026D01*
Y261704D01*
X706880Y262381D01*
X705526D01*
X704849Y261704D01*
X711620Y258318D02*
X708911D01*
X711620Y261026D01*
Y261704D01*
X710943Y262381D01*
X709588D01*
X708911Y261704D01*
X893064Y271779D02*
Y267716D01*
X895095D01*
X895772Y268393D01*
Y271102D01*
X895095Y271779D01*
X893064D01*
X899835Y267716D02*
X897127D01*
X899835Y270424D01*
Y271102D01*
X899158Y271779D01*
X897804D01*
X897127Y271102D01*
X901189Y267716D02*
X902544D01*
X901867D01*
Y271779D01*
X901189Y271102D01*
X1085850Y289813D02*
Y285750D01*
X1087881D01*
X1088559Y286427D01*
Y289136D01*
X1087881Y289813D01*
X1085850D01*
X1092621Y285750D02*
X1089913D01*
X1092621Y288458D01*
Y289136D01*
X1091944Y289813D01*
X1090590D01*
X1089913Y289136D01*
X1093975D02*
X1094652Y289813D01*
X1096007D01*
X1096684Y289136D01*
Y286427D01*
X1096007Y285750D01*
X1094652D01*
X1093975Y286427D01*
Y289136D01*
X1278382Y271779D02*
Y267716D01*
X1280413D01*
X1281091Y268393D01*
Y271102D01*
X1280413Y271779D01*
X1278382D01*
X1282445Y267716D02*
X1283799D01*
X1283122D01*
Y271779D01*
X1282445Y271102D01*
X1285830Y268393D02*
X1286507Y267716D01*
X1287862D01*
X1288539Y268393D01*
Y271102D01*
X1287862Y271779D01*
X1286507D01*
X1285830Y271102D01*
Y270424D01*
X1286507Y269747D01*
X1288539D01*
X1462532Y240029D02*
Y235966D01*
X1464563D01*
X1465240Y236643D01*
Y239352D01*
X1464563Y240029D01*
X1462532D01*
X1466595Y235966D02*
X1467949D01*
X1467272D01*
Y240029D01*
X1466595Y239352D01*
X1469980D02*
X1470657Y240029D01*
X1472012D01*
X1472689Y239352D01*
Y238675D01*
X1472012Y237997D01*
X1472689Y237320D01*
Y236643D01*
X1472012Y235966D01*
X1470657D01*
X1469980Y236643D01*
Y237320D01*
X1470657Y237997D01*
X1469980Y238675D01*
Y239352D01*
X1470657Y237997D02*
X1472012D01*
X1704340Y244601D02*
Y240538D01*
X1706371D01*
X1707048Y241215D01*
Y243924D01*
X1706371Y244601D01*
X1704340D01*
X1708403Y240538D02*
X1709757D01*
X1709080D01*
Y244601D01*
X1708403Y243924D01*
X1711788Y244601D02*
X1714497D01*
Y243924D01*
X1711788Y241215D01*
Y240538D01*
X510794Y119125D02*
Y115062D01*
X512825D01*
X513503Y115739D01*
Y118448D01*
X512825Y119125D01*
X510794D01*
X514857Y115062D02*
X516211D01*
X515534D01*
Y119125D01*
X514857Y118448D01*
X520951Y119125D02*
X519596Y118448D01*
X518242Y117093D01*
Y115739D01*
X518919Y115062D01*
X520274D01*
X520951Y115739D01*
Y116416D01*
X520274Y117093D01*
X518242D01*
X702818Y74421D02*
Y70358D01*
X704849D01*
X705527Y71035D01*
Y73744D01*
X704849Y74421D01*
X702818D01*
X706881Y70358D02*
X708235D01*
X707558D01*
Y74421D01*
X706881Y73744D01*
X712975Y74421D02*
X710266D01*
Y72389D01*
X711620Y73067D01*
X712298D01*
X712975Y72389D01*
Y71035D01*
X712298Y70358D01*
X710943D01*
X710266Y71035D01*
X896366Y83311D02*
Y79248D01*
X898397D01*
X899074Y79925D01*
Y82634D01*
X898397Y83311D01*
X896366D01*
X900429Y79248D02*
X901783D01*
X901106D01*
Y83311D01*
X900429Y82634D01*
X905846Y79248D02*
Y83311D01*
X903814Y81279D01*
X906523D01*
X1083310Y100583D02*
Y96520D01*
X1085341D01*
X1086019Y97197D01*
Y99906D01*
X1085341Y100583D01*
X1083310D01*
X1087373Y96520D02*
X1088727D01*
X1088050D01*
Y100583D01*
X1087373Y99906D01*
X1090758D02*
X1091435Y100583D01*
X1092790D01*
X1093467Y99906D01*
Y99228D01*
X1092790Y98551D01*
X1092113D01*
X1092790D01*
X1093467Y97874D01*
Y97197D01*
X1092790Y96520D01*
X1091435D01*
X1090758Y97197D01*
X1276604Y83311D02*
Y79248D01*
X1278635D01*
X1279313Y79925D01*
Y82634D01*
X1278635Y83311D01*
X1276604D01*
X1280667Y79248D02*
X1282021D01*
X1281344D01*
Y83311D01*
X1280667Y82634D01*
X1286761Y79248D02*
X1284052D01*
X1286761Y81957D01*
Y82634D01*
X1286084Y83311D01*
X1284729D01*
X1284052Y82634D01*
X1463548Y51561D02*
Y47498D01*
X1465579D01*
X1466257Y48175D01*
Y50884D01*
X1465579Y51561D01*
X1463548D01*
X1467611Y47498D02*
X1468965D01*
X1468288D01*
Y51561D01*
X1467611Y50884D01*
X1470996Y47498D02*
X1472350D01*
X1471673D01*
Y51561D01*
X1470996Y50884D01*
X1703324Y53593D02*
Y49530D01*
X1705355D01*
X1706033Y50207D01*
Y52916D01*
X1705355Y53593D01*
X1703324D01*
X1707387Y49530D02*
X1708741D01*
X1708064D01*
Y53593D01*
X1707387Y52916D01*
X1710772D02*
X1711449Y53593D01*
X1712804D01*
X1713481Y52916D01*
Y50207D01*
X1712804Y49530D01*
X1711449D01*
X1710772Y50207D01*
Y52916D01*
X427482Y-316739D02*
Y-320802D01*
X429513D01*
X430191Y-320125D01*
Y-317416D01*
X429513Y-316739D01*
X427482D01*
X431545Y-320125D02*
X432222Y-320802D01*
X433576D01*
X434253Y-320125D01*
Y-317416D01*
X433576Y-316739D01*
X432222D01*
X431545Y-317416D01*
Y-318093D01*
X432222Y-318771D01*
X434253D01*
X602996Y-235967D02*
Y-240030D01*
X605027D01*
X605704Y-239353D01*
Y-236644D01*
X605027Y-235967D01*
X602996D01*
X607059Y-236644D02*
X607736Y-235967D01*
X609090D01*
X609767Y-236644D01*
Y-237321D01*
X609090Y-237999D01*
X609767Y-238676D01*
Y-239353D01*
X609090Y-240030D01*
X607736D01*
X607059Y-239353D01*
Y-238676D01*
X607736Y-237999D01*
X607059Y-237321D01*
Y-236644D01*
X607736Y-237999D02*
X609090D01*
X893318Y-103887D02*
Y-107950D01*
X895349D01*
X896027Y-107273D01*
Y-104564D01*
X895349Y-103887D01*
X893318D01*
X897381D02*
X900089D01*
Y-104564D01*
X897381Y-107273D01*
Y-107950D01*
X1082294Y-90679D02*
Y-94742D01*
X1084325D01*
X1085003Y-94065D01*
Y-91356D01*
X1084325Y-90679D01*
X1082294D01*
X1089065D02*
X1087711Y-91356D01*
X1086357Y-92711D01*
Y-94065D01*
X1087034Y-94742D01*
X1088388D01*
X1089065Y-94065D01*
Y-93388D01*
X1088388Y-92711D01*
X1086357D01*
X1276096Y-105919D02*
Y-109982D01*
X1278127D01*
X1278804Y-109305D01*
Y-106596D01*
X1278127Y-105919D01*
X1276096D01*
X1282867D02*
X1280159D01*
Y-107951D01*
X1281513Y-107274D01*
X1282190D01*
X1282867Y-107951D01*
Y-109305D01*
X1282190Y-109982D01*
X1280836D01*
X1280159Y-109305D01*
X1468120Y-135891D02*
Y-139954D01*
X1470151D01*
X1470829Y-139277D01*
Y-136568D01*
X1470151Y-135891D01*
X1468120D01*
X1474214Y-139954D02*
Y-135891D01*
X1472183Y-137923D01*
X1474891D01*
X1659382Y-136907D02*
Y-140970D01*
X1661413D01*
X1662090Y-140293D01*
Y-137584D01*
X1661413Y-136907D01*
X1659382D01*
X1663445Y-137584D02*
X1664122Y-136907D01*
X1665476D01*
X1666153Y-137584D01*
Y-138261D01*
X1665476Y-138939D01*
X1664799D01*
X1665476D01*
X1666153Y-139616D01*
Y-140293D01*
X1665476Y-140970D01*
X1664122D01*
X1663445Y-140293D01*
X103972Y487764D02*
X103294Y488441D01*
X101940D01*
X101263Y487764D01*
Y485056D01*
X101940Y484379D01*
X103294D01*
X103972Y485056D01*
X108034Y484379D02*
X105326D01*
X108034Y487087D01*
Y487764D01*
X107357Y488441D01*
X106003D01*
X105326Y487764D01*
X112097Y484379D02*
X109389D01*
X112097Y487087D01*
Y487764D01*
X111420Y488441D01*
X110066D01*
X109389Y487764D01*
X249429Y632290D02*
X248752Y632967D01*
X247397D01*
X246720Y632290D01*
Y629582D01*
X247397Y628905D01*
X248752D01*
X249429Y629582D01*
X253491Y628905D02*
X250783D01*
X253491Y631613D01*
Y632290D01*
X252814Y632967D01*
X251460D01*
X250783Y632290D01*
X254846Y628905D02*
X256200D01*
X255523D01*
Y632967D01*
X254846Y632290D01*
X248081Y651594D02*
X247404Y652271D01*
X246049D01*
X245372Y651594D01*
Y648886D01*
X246049Y648209D01*
X247404D01*
X248081Y648886D01*
X252143Y648209D02*
X249435D01*
X252143Y650917D01*
Y651594D01*
X251466Y652271D01*
X250112D01*
X249435Y651594D01*
X253498D02*
X254175Y652271D01*
X255529D01*
X256206Y651594D01*
Y648886D01*
X255529Y648209D01*
X254175D01*
X253498Y648886D01*
Y651594D01*
X230040Y721698D02*
X229363Y722375D01*
X228009D01*
X227332Y721698D01*
Y718990D01*
X228009Y718313D01*
X229363D01*
X230040Y718990D01*
X231394Y718313D02*
X232749D01*
X232071D01*
Y722375D01*
X231394Y721698D01*
X234780D02*
X235457Y722375D01*
X236811D01*
X237488Y721698D01*
Y721021D01*
X236811Y720344D01*
X236134D01*
X236811D01*
X237488Y719667D01*
Y718990D01*
X236811Y718313D01*
X235457D01*
X234780Y718990D01*
X285834Y700108D02*
X286511Y700785D01*
Y702139D01*
X285834Y702816D01*
X283126D01*
X282449Y702139D01*
Y700785D01*
X283126Y700108D01*
X282449Y698754D02*
Y697399D01*
Y698076D01*
X286511D01*
X285834Y698754D01*
X282449Y692660D02*
Y695368D01*
X285157Y692660D01*
X285834D01*
X286511Y693337D01*
Y694691D01*
X285834Y695368D01*
X185475Y746844D02*
X184798Y747521D01*
X183444D01*
X182767Y746844D01*
Y744136D01*
X183444Y743459D01*
X184798D01*
X185475Y744136D01*
X186829Y743459D02*
X188183D01*
X187506D01*
Y747521D01*
X186829Y746844D01*
X190215D02*
X190892Y747521D01*
X192246D01*
X192923Y746844D01*
Y744136D01*
X192246Y743459D01*
X190892D01*
X190215Y744136D01*
Y746844D01*
X261450Y676939D02*
X262127Y677616D01*
Y678970D01*
X261450Y679647D01*
X258742D01*
X258065Y678970D01*
Y677616D01*
X258742Y676939D01*
Y675585D02*
X258065Y674908D01*
Y673553D01*
X258742Y672876D01*
X261450D01*
X262127Y673553D01*
Y674908D01*
X261450Y675585D01*
X260773D01*
X260096Y674908D01*
Y672876D01*
X231733Y705188D02*
X231056Y705865D01*
X229701D01*
X229024Y705188D01*
Y702480D01*
X229701Y701803D01*
X231056D01*
X231733Y702480D01*
X233087Y705188D02*
X233764Y705865D01*
X235119D01*
X235796Y705188D01*
Y704511D01*
X235119Y703834D01*
X235796Y703157D01*
Y702480D01*
X235119Y701803D01*
X233764D01*
X233087Y702480D01*
Y703157D01*
X233764Y703834D01*
X233087Y704511D01*
Y705188D01*
X233764Y703834D02*
X235119D01*
X333672Y826601D02*
X332995Y825924D01*
Y824569D01*
X333672Y823892D01*
X336380D01*
X337057Y824569D01*
Y825924D01*
X336380Y826601D01*
X332995Y827955D02*
Y830664D01*
X333672D01*
X336380Y827955D01*
X337057D01*
X354994Y725735D02*
X355671Y725058D01*
X357025D01*
X357703Y725735D01*
Y728444D01*
X357025Y729121D01*
X355671D01*
X354994Y728444D01*
X350932Y725058D02*
X352286Y725735D01*
X353640Y727090D01*
Y728444D01*
X352963Y729121D01*
X351609D01*
X350932Y728444D01*
Y727767D01*
X351609Y727090D01*
X353640D01*
X248725Y817524D02*
X248048Y818201D01*
X246694D01*
X246017Y817524D01*
Y814816D01*
X246694Y814138D01*
X248048D01*
X248725Y814816D01*
X252788Y818201D02*
X250079D01*
Y816170D01*
X251434Y816847D01*
X252111D01*
X252788Y816170D01*
Y814816D01*
X252111Y814138D01*
X250756D01*
X250079Y814816D01*
X240369Y883750D02*
X239692Y884427D01*
X238337D01*
X237660Y883750D01*
Y881042D01*
X238337Y880365D01*
X239692D01*
X240369Y881042D01*
X243755Y880365D02*
Y884427D01*
X241723Y882396D01*
X244432D01*
X381986Y769281D02*
X382663Y769958D01*
Y771312D01*
X381986Y771990D01*
X379278D01*
X378601Y771312D01*
Y769958D01*
X379278Y769281D01*
X381986Y767927D02*
X382663Y767250D01*
Y765895D01*
X381986Y765218D01*
X381309D01*
X380632Y765895D01*
Y766573D01*
Y765895D01*
X379955Y765218D01*
X379278D01*
X378601Y765895D01*
Y767250D01*
X379278Y767927D01*
X349448Y778425D02*
X350125Y779102D01*
Y780456D01*
X349448Y781133D01*
X346740D01*
X346063Y780456D01*
Y779102D01*
X346740Y778425D01*
X346063Y774362D02*
Y777071D01*
X348771Y774362D01*
X349448D01*
X350125Y775040D01*
Y776394D01*
X349448Y777071D01*
X284310Y841756D02*
X284987Y842433D01*
Y843787D01*
X284310Y844464D01*
X281602D01*
X280925Y843787D01*
Y842433D01*
X281602Y841756D01*
X280925Y840402D02*
Y839047D01*
Y839725D01*
X284987D01*
X284310Y840402D01*
X100584Y425195D02*
Y421132D01*
X102615D01*
X103293Y421809D01*
Y422486D01*
X102615Y423163D01*
X100584D01*
X102615D01*
X103293Y423840D01*
Y424518D01*
X102615Y425195D01*
X100584D01*
X104647D02*
X107355D01*
X106001D01*
Y421132D01*
X108709D02*
X110064D01*
X109387D01*
Y425195D01*
X108709Y424518D01*
X96861Y902209D02*
Y904917D01*
X98215Y906271D01*
X99569Y904917D01*
Y902209D01*
Y904240D01*
X96861D01*
X100924Y906271D02*
X103632D01*
X102278D01*
Y902209D01*
X104986Y906271D02*
X107695D01*
X106341D01*
Y902209D01*
X109049D02*
X110403D01*
X109726D01*
Y906271D01*
X109049Y905594D01*
D17*
X320572Y754824D02*
X323572Y750824D01*
X320572Y746824D02*
X323572Y750824D01*
X320572Y746824D02*
Y754824D01*
X291362Y489648D02*
X294362Y485648D01*
X291362Y481648D02*
X294362Y485648D01*
X291362Y481648D02*
Y489648D01*
X110554Y433094D02*
X114554Y436094D01*
X118554Y433094D01*
X110554D02*
X118554D01*
D18*
X151636Y272822D02*
Y287822D01*
X119124Y272582D02*
Y287582D01*
M02*
