G04*
G04 #@! TF.GenerationSoftware,Altium Limited,Altium Designer,24.5.2 (23)*
G04*
G04 Layer_Color=32896*
%FSLAX44Y44*%
%MOMM*%
G71*
G04*
G04 #@! TF.SameCoordinates,960C30EB-BCCC-465A-99A9-4967EBCBCE3C*
G04*
G04*
G04 #@! TF.FilePolarity,Positive*
G04*
G01*
G75*
%ADD11C,0.2000*%
%ADD16C,0.1270*%
D11*
X49170Y602434D02*
G03*
X49170Y602434I-1000J0D01*
G01*
D16*
X945321Y-143510D02*
G03*
X945321Y-143510I-17205J0D01*
G01*
X756345Y417322D02*
G03*
X756345Y417322I-17205J0D01*
G01*
X949385Y429514D02*
G03*
X949385Y429514I-17205J0D01*
G01*
X1139885Y445770D02*
G03*
X1139885Y445770I-17205J0D01*
G01*
X369249Y-94488D02*
G03*
X369249Y-94488I-17205J0D01*
G01*
X1517329Y-194818D02*
G03*
X1517329Y-194818I-17205J0D01*
G01*
X1328099Y-151384D02*
G03*
X1328099Y-151384I-17205J0D01*
G01*
X1129471Y-134112D02*
G03*
X1129471Y-134112I-17205J0D01*
G01*
X654491Y-298196D02*
G03*
X654491Y-298196I-17205J0D01*
G01*
X486343Y-361696D02*
G03*
X486343Y-361696I-17205J0D01*
G01*
X420049Y-435356D02*
G03*
X420049Y-435356I-17205J0D01*
G01*
X1754565Y-12192D02*
G03*
X1754565Y-12192I-17205J0D01*
G01*
X1514535Y-12700D02*
G03*
X1514535Y-12700I-17205J0D01*
G01*
X1328353Y19812D02*
G03*
X1328353Y19812I-17205J0D01*
G01*
X1133281Y34290D02*
G03*
X1133281Y34290I-17205J0D01*
G01*
X948877Y20574D02*
G03*
X948877Y20574I-17205J0D01*
G01*
X745931Y11938D02*
G03*
X745931Y11938I-17205J0D01*
G01*
X562289Y57404D02*
G03*
X562289Y57404I-17205J0D01*
G01*
X341563Y-251714D02*
G03*
X341563Y-251714I-17205J0D01*
G01*
X1755327Y180848D02*
G03*
X1755327Y180848I-17205J0D01*
G01*
X1511487D02*
G03*
X1511487Y180848I-17205J0D01*
G01*
X1325559Y212090D02*
G03*
X1325559Y212090I-17205J0D01*
G01*
X1134043Y231902D02*
G03*
X1134043Y231902I-17205J0D01*
G01*
X942411Y213604D02*
G03*
X942411Y213604I-17205J0D01*
G01*
X750757Y202438D02*
G03*
X750757Y202438I-17205J0D01*
G01*
X253476Y-73722D02*
G03*
X253476Y-73722I-17205J0D01*
G01*
X1755327Y373888D02*
G03*
X1755327Y373888I-17205J0D01*
G01*
X1520123Y370586D02*
G03*
X1520123Y370586I-17205J0D01*
G01*
X1328353Y402082D02*
G03*
X1328353Y402082I-17205J0D01*
G01*
X564575Y343916D02*
G03*
X564575Y343916I-17205J0D01*
G01*
X1755327Y560832D02*
G03*
X1755327Y560832I-17205J0D01*
G01*
X1520377Y564134D02*
G03*
X1520377Y564134I-17205J0D01*
G01*
X1329877Y595376D02*
G03*
X1329877Y595376I-17205J0D01*
G01*
X1133281Y606298D02*
G03*
X1133281Y606298I-17205J0D01*
G01*
X943289Y589026D02*
G03*
X943289Y589026I-17205J0D01*
G01*
X754821Y579882D02*
G03*
X754821Y579882I-17205J0D01*
G01*
X565083Y586232D02*
G03*
X565083Y586232I-17205J0D01*
G01*
X1711385Y-194818D02*
G03*
X1711385Y-194818I-17205J0D01*
G01*
X944116Y-118510D02*
X953116D01*
X941116Y-115510D02*
X944116Y-118510D01*
X941116Y-115510D02*
X945116Y-111510D01*
X953116Y-118510D01*
X953008Y-151892D02*
X953116Y-133858D01*
X904856Y-168510D02*
X949852D01*
X903116Y-152400D02*
X903224Y-133604D01*
X905872Y-118510D02*
X944116D01*
X716896Y442322D02*
X755140D01*
X714140Y408432D02*
X714248Y427228D01*
X715880Y392322D02*
X760876D01*
X764032Y408940D02*
X764140Y426974D01*
X756140Y449322D02*
X764140Y442322D01*
X752140Y445322D02*
X756140Y449322D01*
X752140Y445322D02*
X755140Y442322D01*
X764140D01*
X948180Y454514D02*
X957180D01*
X945180Y457514D02*
X948180Y454514D01*
X945180Y457514D02*
X949180Y461514D01*
X957180Y454514D01*
X957072Y421132D02*
X957180Y439166D01*
X908920Y404514D02*
X953916D01*
X907180Y420624D02*
X907288Y439420D01*
X909936Y454514D02*
X948180D01*
X1100436Y470770D02*
X1138680D01*
X1097680Y436880D02*
X1097788Y455676D01*
X1099420Y420770D02*
X1144416D01*
X1147572Y437388D02*
X1147680Y455422D01*
X1139680Y477770D02*
X1147680Y470770D01*
X1135680Y473770D02*
X1139680Y477770D01*
X1135680Y473770D02*
X1138680Y470770D01*
X1147680D01*
X368044Y-69488D02*
X377044D01*
X365044Y-66488D02*
X368044Y-69488D01*
X365044Y-66488D02*
X369044Y-62488D01*
X377044Y-69488D01*
X376936Y-102870D02*
X377044Y-84836D01*
X328784Y-119488D02*
X373780D01*
X327044Y-103378D02*
X327152Y-84582D01*
X329800Y-69488D02*
X368044D01*
X1516124Y-169818D02*
X1525124D01*
X1513124Y-166818D02*
X1516124Y-169818D01*
X1513124Y-166818D02*
X1517124Y-162818D01*
X1525124Y-169818D01*
X1525016Y-203200D02*
X1525124Y-185166D01*
X1476864Y-219818D02*
X1521860D01*
X1475124Y-203708D02*
X1475232Y-184912D01*
X1477880Y-169818D02*
X1516124D01*
X1288650Y-126384D02*
X1326894D01*
X1285894Y-160274D02*
X1286002Y-141478D01*
X1287634Y-176384D02*
X1332630D01*
X1335786Y-159766D02*
X1335894Y-141732D01*
X1327894Y-119384D02*
X1335894Y-126384D01*
X1323894Y-123384D02*
X1327894Y-119384D01*
X1323894Y-123384D02*
X1326894Y-126384D01*
X1335894D01*
X1128266Y-109112D02*
X1137266D01*
X1125266Y-106112D02*
X1128266Y-109112D01*
X1125266Y-106112D02*
X1129266Y-102112D01*
X1137266Y-109112D01*
X1137158Y-142494D02*
X1137266Y-124460D01*
X1089006Y-159112D02*
X1134002D01*
X1087266Y-143002D02*
X1087374Y-124206D01*
X1090022Y-109112D02*
X1128266D01*
X653286Y-273196D02*
X662286D01*
X650286Y-270196D02*
X653286Y-273196D01*
X650286Y-270196D02*
X654286Y-266196D01*
X662286Y-273196D01*
X662178Y-306578D02*
X662286Y-288544D01*
X614026Y-323196D02*
X659022D01*
X612286Y-307086D02*
X612394Y-288290D01*
X615042Y-273196D02*
X653286D01*
X446894Y-336696D02*
X485138D01*
X444138Y-370586D02*
X444246Y-351790D01*
X445878Y-386696D02*
X490874D01*
X494030Y-370078D02*
X494138Y-352044D01*
X486138Y-329696D02*
X494138Y-336696D01*
X482138Y-333696D02*
X486138Y-329696D01*
X482138Y-333696D02*
X485138Y-336696D01*
X494138D01*
X418844Y-410356D02*
X427844D01*
X415844Y-407356D02*
X418844Y-410356D01*
X415844Y-407356D02*
X419844Y-403356D01*
X427844Y-410356D01*
X427736Y-443738D02*
X427844Y-425704D01*
X379584Y-460356D02*
X424580D01*
X377844Y-444246D02*
X377952Y-425450D01*
X380600Y-410356D02*
X418844D01*
X1715116Y12808D02*
X1753360D01*
X1712360Y-21082D02*
X1712468Y-2286D01*
X1714100Y-37192D02*
X1759096D01*
X1762252Y-20574D02*
X1762360Y-2540D01*
X1754360Y19808D02*
X1762360Y12808D01*
X1750360Y15808D02*
X1754360Y19808D01*
X1750360Y15808D02*
X1753360Y12808D01*
X1762360D01*
X1513330Y12300D02*
X1522330D01*
X1510330Y15300D02*
X1513330Y12300D01*
X1510330Y15300D02*
X1514330Y19300D01*
X1522330Y12300D01*
X1522222Y-21082D02*
X1522330Y-3048D01*
X1474070Y-37700D02*
X1519066D01*
X1472330Y-21590D02*
X1472438Y-2794D01*
X1475086Y12300D02*
X1513330D01*
X1288904Y44812D02*
X1327148D01*
X1286148Y10922D02*
X1286256Y29718D01*
X1287888Y-5188D02*
X1332884D01*
X1336040Y11430D02*
X1336148Y29464D01*
X1328148Y51812D02*
X1336148Y44812D01*
X1324148Y47812D02*
X1328148Y51812D01*
X1324148Y47812D02*
X1327148Y44812D01*
X1336148D01*
X1132076Y59290D02*
X1141076D01*
X1129076Y62290D02*
X1132076Y59290D01*
X1129076Y62290D02*
X1133076Y66290D01*
X1141076Y59290D01*
X1140968Y25908D02*
X1141076Y43942D01*
X1092816Y9290D02*
X1137812D01*
X1091076Y25400D02*
X1091184Y44196D01*
X1093832Y59290D02*
X1132076D01*
X909428Y45574D02*
X947672D01*
X906672Y11684D02*
X906780Y30480D01*
X908412Y-4426D02*
X953408D01*
X956564Y12192D02*
X956672Y30226D01*
X948672Y52574D02*
X956672Y45574D01*
X944672Y48574D02*
X948672Y52574D01*
X944672Y48574D02*
X947672Y45574D01*
X956672D01*
X744726Y36938D02*
X753726D01*
X741726Y39938D02*
X744726Y36938D01*
X741726Y39938D02*
X745726Y43938D01*
X753726Y36938D01*
X753618Y3556D02*
X753726Y21590D01*
X705466Y-13062D02*
X750462D01*
X703726Y3048D02*
X703834Y21844D01*
X706482Y36938D02*
X744726D01*
X522840Y82404D02*
X561084D01*
X520084Y48514D02*
X520192Y67310D01*
X521824Y32404D02*
X566820D01*
X569976Y49022D02*
X570084Y67056D01*
X562084Y89404D02*
X570084Y82404D01*
X558084Y85404D02*
X562084Y89404D01*
X558084Y85404D02*
X561084Y82404D01*
X570084D01*
X340358Y-226714D02*
X349358D01*
X337358Y-223714D02*
X340358Y-226714D01*
X337358Y-223714D02*
X341358Y-219714D01*
X349358Y-226714D01*
X349250Y-260096D02*
X349358Y-242062D01*
X301098Y-276714D02*
X346094D01*
X299358Y-260604D02*
X299466Y-241808D01*
X302114Y-226714D02*
X340358D01*
X1715878Y205848D02*
X1754122D01*
X1713122Y171958D02*
X1713230Y190754D01*
X1714862Y155848D02*
X1759858D01*
X1763014Y172466D02*
X1763122Y190500D01*
X1755122Y212848D02*
X1763122Y205848D01*
X1751122Y208848D02*
X1755122Y212848D01*
X1751122Y208848D02*
X1754122Y205848D01*
X1763122D01*
X1510282D02*
X1519282D01*
X1507282Y208848D02*
X1510282Y205848D01*
X1507282Y208848D02*
X1511282Y212848D01*
X1519282Y205848D01*
X1519174Y172466D02*
X1519282Y190500D01*
X1471022Y155848D02*
X1516018D01*
X1469282Y171958D02*
X1469390Y190754D01*
X1472038Y205848D02*
X1510282D01*
X1286110Y237090D02*
X1324354D01*
X1283354Y203200D02*
X1283462Y221996D01*
X1285094Y187090D02*
X1330090D01*
X1333246Y203708D02*
X1333354Y221742D01*
X1325354Y244090D02*
X1333354Y237090D01*
X1321354Y240090D02*
X1325354Y244090D01*
X1321354Y240090D02*
X1324354Y237090D01*
X1333354D01*
X1132838Y256902D02*
X1141838D01*
X1129838Y259902D02*
X1132838Y256902D01*
X1129838Y259902D02*
X1133838Y263902D01*
X1141838Y256902D01*
X1141730Y223520D02*
X1141838Y241554D01*
X1093578Y206902D02*
X1138574D01*
X1091838Y223012D02*
X1091946Y241808D01*
X1094594Y256902D02*
X1132838D01*
X902962Y238604D02*
X941206D01*
X900206Y204714D02*
X900314Y223510D01*
X901946Y188604D02*
X946942D01*
X950098Y205222D02*
X950206Y223256D01*
X942206Y245604D02*
X950206Y238604D01*
X938206Y241604D02*
X942206Y245604D01*
X938206Y241604D02*
X941206Y238604D01*
X950206D01*
X749552Y227438D02*
X758552D01*
X746552Y230438D02*
X749552Y227438D01*
X746552Y230438D02*
X750552Y234438D01*
X758552Y227438D01*
X758444Y194056D02*
X758552Y212090D01*
X710292Y177438D02*
X755288D01*
X708552Y193548D02*
X708660Y212344D01*
X711308Y227438D02*
X749552D01*
X252271Y-48722D02*
X261271D01*
X249271Y-45722D02*
X252271Y-48722D01*
X249271Y-45722D02*
X253271Y-41722D01*
X261271Y-48722D01*
X261163Y-82104D02*
X261271Y-64070D01*
X213011Y-98722D02*
X258007D01*
X211271Y-82612D02*
X211379Y-63816D01*
X214027Y-48722D02*
X252271D01*
X1715878Y398888D02*
X1754122D01*
X1713122Y364998D02*
X1713230Y383794D01*
X1714862Y348888D02*
X1759858D01*
X1763014Y365506D02*
X1763122Y383540D01*
X1755122Y405888D02*
X1763122Y398888D01*
X1751122Y401888D02*
X1755122Y405888D01*
X1751122Y401888D02*
X1754122Y398888D01*
X1763122D01*
X1518918Y395586D02*
X1527918D01*
X1515918Y398586D02*
X1518918Y395586D01*
X1515918Y398586D02*
X1519918Y402586D01*
X1527918Y395586D01*
X1527810Y362204D02*
X1527918Y380238D01*
X1479658Y345586D02*
X1524654D01*
X1477918Y361696D02*
X1478026Y380492D01*
X1480674Y395586D02*
X1518918D01*
X1288904Y427082D02*
X1327148D01*
X1286148Y393192D02*
X1286256Y411988D01*
X1287888Y377082D02*
X1332884D01*
X1336040Y393700D02*
X1336148Y411734D01*
X1328148Y434082D02*
X1336148Y427082D01*
X1324148Y430082D02*
X1328148Y434082D01*
X1324148Y430082D02*
X1327148Y427082D01*
X1336148D01*
X525126Y368916D02*
X563370D01*
X522370Y335026D02*
X522478Y353822D01*
X524110Y318916D02*
X569106D01*
X572262Y335534D02*
X572370Y353568D01*
X564370Y375916D02*
X572370Y368916D01*
X560370Y371916D02*
X564370Y375916D01*
X560370Y371916D02*
X563370Y368916D01*
X572370D01*
X1713122Y535832D02*
X1722122D01*
X1725122Y532832D01*
X1721122Y528832D02*
X1725122Y532832D01*
X1713122Y535832D02*
X1721122Y528832D01*
X1713122Y551180D02*
X1713230Y569214D01*
X1716386Y585832D02*
X1761382D01*
X1763014Y550926D02*
X1763122Y569722D01*
X1722122Y535832D02*
X1760366D01*
X1480928Y589134D02*
X1519172D01*
X1478172Y555244D02*
X1478280Y574040D01*
X1479912Y539134D02*
X1524908D01*
X1528064Y555752D02*
X1528172Y573786D01*
X1520172Y596134D02*
X1528172Y589134D01*
X1516172Y592134D02*
X1520172Y596134D01*
X1516172Y592134D02*
X1519172Y589134D01*
X1528172D01*
X1328672Y620376D02*
X1337672D01*
X1325672Y623376D02*
X1328672Y620376D01*
X1325672Y623376D02*
X1329672Y627376D01*
X1337672Y620376D01*
X1337564Y586994D02*
X1337672Y605028D01*
X1289412Y570376D02*
X1334408D01*
X1287672Y586486D02*
X1287780Y605282D01*
X1290428Y620376D02*
X1328672D01*
X1093832Y631298D02*
X1132076D01*
X1091076Y597408D02*
X1091184Y616204D01*
X1092816Y581298D02*
X1137812D01*
X1140968Y597916D02*
X1141076Y615950D01*
X1133076Y638298D02*
X1141076Y631298D01*
X1129076Y634298D02*
X1133076Y638298D01*
X1129076Y634298D02*
X1132076Y631298D01*
X1141076D01*
X942084Y614026D02*
X951084D01*
X939084Y617026D02*
X942084Y614026D01*
X939084Y617026D02*
X943084Y621026D01*
X951084Y614026D01*
X950976Y580644D02*
X951084Y598678D01*
X902824Y564026D02*
X947820D01*
X901084Y580136D02*
X901192Y598932D01*
X903840Y614026D02*
X942084D01*
X715372Y604882D02*
X753616D01*
X712616Y570992D02*
X712724Y589788D01*
X714356Y554882D02*
X759352D01*
X762508Y571500D02*
X762616Y589534D01*
X754616Y611882D02*
X762616Y604882D01*
X750616Y607882D02*
X754616Y611882D01*
X750616Y607882D02*
X753616Y604882D01*
X762616D01*
X563878Y611232D02*
X572878D01*
X560878Y614232D02*
X563878Y611232D01*
X560878Y614232D02*
X564878Y618232D01*
X572878Y611232D01*
X572770Y577850D02*
X572878Y595884D01*
X524618Y561232D02*
X569614D01*
X522878Y577342D02*
X522986Y596138D01*
X525634Y611232D02*
X563878D01*
X1671936Y-169818D02*
X1710180D01*
X1669180Y-203708D02*
X1669288Y-184912D01*
X1670920Y-219818D02*
X1715916D01*
X1719072Y-203200D02*
X1719180Y-185166D01*
X1711180Y-162818D02*
X1719180Y-169818D01*
X1707180Y-166818D02*
X1711180Y-162818D01*
X1707180Y-166818D02*
X1710180Y-169818D01*
X1719180D01*
X27670Y611434D02*
Y644434D01*
Y611434D02*
X53170D01*
X127170D02*
X152670D01*
Y644434D01*
X27670Y712434D02*
Y745434D01*
X53170D01*
X127170D02*
X152670D01*
Y712434D02*
Y745434D01*
X1725930Y-151893D02*
Y-155956D01*
X1723221D01*
X1719159Y-151893D02*
X1721867D01*
Y-155956D01*
X1719159D01*
X1721867Y-153925D02*
X1720513D01*
X1717805Y-151893D02*
Y-155956D01*
X1715773D01*
X1715096Y-155279D01*
Y-152570D01*
X1715773Y-151893D01*
X1717805D01*
X579628Y629157D02*
Y625094D01*
X576920D01*
X572857Y629157D02*
X575565D01*
Y625094D01*
X572857D01*
X575565Y627125D02*
X574211D01*
X571503Y629157D02*
Y625094D01*
X569471D01*
X568794Y625771D01*
Y628480D01*
X569471Y629157D01*
X571503D01*
X565409Y625094D02*
Y629157D01*
X567440Y627125D01*
X564731D01*
X563377Y625094D02*
X562023D01*
X562700D01*
Y629157D01*
X563377Y628480D01*
X769366Y622807D02*
Y618744D01*
X766657D01*
X762595Y622807D02*
X765303D01*
Y618744D01*
X762595D01*
X765303Y620775D02*
X763949D01*
X761241Y622807D02*
Y618744D01*
X759209D01*
X758532Y619421D01*
Y622130D01*
X759209Y622807D01*
X761241D01*
X755147Y618744D02*
Y622807D01*
X757178Y620775D01*
X754470D01*
X753115Y622130D02*
X752438Y622807D01*
X751084D01*
X750407Y622130D01*
Y619421D01*
X751084Y618744D01*
X752438D01*
X753115Y619421D01*
Y622130D01*
X957834Y631951D02*
Y627888D01*
X955126D01*
X951063Y631951D02*
X953771D01*
Y627888D01*
X951063D01*
X953771Y629919D02*
X952417D01*
X949709Y631951D02*
Y627888D01*
X947677D01*
X947000Y628565D01*
Y631274D01*
X947677Y631951D01*
X949709D01*
X945646Y631274D02*
X944969Y631951D01*
X943615D01*
X942937Y631274D01*
Y630597D01*
X943615Y629919D01*
X944292D01*
X943615D01*
X942937Y629242D01*
Y628565D01*
X943615Y627888D01*
X944969D01*
X945646Y628565D01*
X941583D02*
X940906Y627888D01*
X939552D01*
X938875Y628565D01*
Y631274D01*
X939552Y631951D01*
X940906D01*
X941583Y631274D01*
Y630597D01*
X940906Y629919D01*
X938875D01*
X1147826Y649223D02*
Y645160D01*
X1145117D01*
X1141055Y649223D02*
X1143763D01*
Y645160D01*
X1141055D01*
X1143763Y647191D02*
X1142409D01*
X1139701Y649223D02*
Y645160D01*
X1137669D01*
X1136992Y645837D01*
Y648546D01*
X1137669Y649223D01*
X1139701D01*
X1135638Y648546D02*
X1134961Y649223D01*
X1133607D01*
X1132930Y648546D01*
Y647868D01*
X1133607Y647191D01*
X1134284D01*
X1133607D01*
X1132930Y646514D01*
Y645837D01*
X1133607Y645160D01*
X1134961D01*
X1135638Y645837D01*
X1131575Y648546D02*
X1130898Y649223D01*
X1129544D01*
X1128867Y648546D01*
Y647868D01*
X1129544Y647191D01*
X1128867Y646514D01*
Y645837D01*
X1129544Y645160D01*
X1130898D01*
X1131575Y645837D01*
Y646514D01*
X1130898Y647191D01*
X1131575Y647868D01*
Y648546D01*
X1130898Y647191D02*
X1129544D01*
X1344422Y638301D02*
Y634238D01*
X1341714D01*
X1337651Y638301D02*
X1340359D01*
Y634238D01*
X1337651D01*
X1340359Y636269D02*
X1339005D01*
X1336297Y638301D02*
Y634238D01*
X1334265D01*
X1333588Y634915D01*
Y637624D01*
X1334265Y638301D01*
X1336297D01*
X1332234Y637624D02*
X1331557Y638301D01*
X1330203D01*
X1329525Y637624D01*
Y636946D01*
X1330203Y636269D01*
X1330880D01*
X1330203D01*
X1329525Y635592D01*
Y634915D01*
X1330203Y634238D01*
X1331557D01*
X1332234Y634915D01*
X1328171Y638301D02*
X1325463D01*
Y637624D01*
X1328171Y634915D01*
Y634238D01*
X1534922Y607059D02*
Y602996D01*
X1532213D01*
X1528151Y607059D02*
X1530859D01*
Y602996D01*
X1528151D01*
X1530859Y605027D02*
X1529505D01*
X1526797Y607059D02*
Y602996D01*
X1524765D01*
X1524088Y603673D01*
Y606382D01*
X1524765Y607059D01*
X1526797D01*
X1522734Y606382D02*
X1522057Y607059D01*
X1520703D01*
X1520025Y606382D01*
Y605704D01*
X1520703Y605027D01*
X1521380D01*
X1520703D01*
X1520025Y604350D01*
Y603673D01*
X1520703Y602996D01*
X1522057D01*
X1522734Y603673D01*
X1515963Y607059D02*
X1517317Y606382D01*
X1518671Y605027D01*
Y603673D01*
X1517994Y602996D01*
X1516640D01*
X1515963Y603673D01*
Y604350D01*
X1516640Y605027D01*
X1518671D01*
X1769872Y596899D02*
Y592836D01*
X1767164D01*
X1763101Y596899D02*
X1765809D01*
Y592836D01*
X1763101D01*
X1765809Y594867D02*
X1764455D01*
X1761747Y596899D02*
Y592836D01*
X1759715D01*
X1759038Y593513D01*
Y596222D01*
X1759715Y596899D01*
X1761747D01*
X1757684Y596222D02*
X1757007Y596899D01*
X1755653D01*
X1754975Y596222D01*
Y595545D01*
X1755653Y594867D01*
X1756330D01*
X1755653D01*
X1754975Y594190D01*
Y593513D01*
X1755653Y592836D01*
X1757007D01*
X1757684Y593513D01*
X1750913Y596899D02*
X1753621D01*
Y594867D01*
X1752267Y595545D01*
X1751590D01*
X1750913Y594867D01*
Y593513D01*
X1751590Y592836D01*
X1752944D01*
X1753621Y593513D01*
X579120Y386841D02*
Y382778D01*
X576412D01*
X572349Y386841D02*
X575057D01*
Y382778D01*
X572349D01*
X575057Y384809D02*
X573703D01*
X570995Y386841D02*
Y382778D01*
X568963D01*
X568286Y383455D01*
Y386164D01*
X568963Y386841D01*
X570995D01*
X566932Y386164D02*
X566255Y386841D01*
X564901D01*
X564224Y386164D01*
Y385486D01*
X564901Y384809D01*
X565578D01*
X564901D01*
X564224Y384132D01*
Y383455D01*
X564901Y382778D01*
X566255D01*
X566932Y383455D01*
X560838Y382778D02*
Y386841D01*
X562869Y384809D01*
X560161D01*
X780878Y454659D02*
Y450597D01*
X778169D01*
X774107Y454659D02*
X776815D01*
Y450597D01*
X774107D01*
X776815Y452628D02*
X775461D01*
X772752Y454659D02*
Y450597D01*
X770721D01*
X770044Y451274D01*
Y453982D01*
X770721Y454659D01*
X772752D01*
X768689Y453982D02*
X768012Y454659D01*
X766658D01*
X765981Y453982D01*
Y453305D01*
X766658Y452628D01*
X767335D01*
X766658D01*
X765981Y451951D01*
Y451274D01*
X766658Y450597D01*
X768012D01*
X768689Y451274D01*
X764627Y453982D02*
X763950Y454659D01*
X762596D01*
X761918Y453982D01*
Y453305D01*
X762596Y452628D01*
X763273D01*
X762596D01*
X761918Y451951D01*
Y451274D01*
X762596Y450597D01*
X763950D01*
X764627Y451274D01*
X971378Y467105D02*
Y463043D01*
X968669D01*
X964606Y467105D02*
X967315D01*
Y463043D01*
X964606D01*
X967315Y465074D02*
X965961D01*
X963252Y467105D02*
Y463043D01*
X961221D01*
X960544Y463720D01*
Y466428D01*
X961221Y467105D01*
X963252D01*
X959190Y466428D02*
X958512Y467105D01*
X957158D01*
X956481Y466428D01*
Y465751D01*
X957158Y465074D01*
X957835D01*
X957158D01*
X956481Y464397D01*
Y463720D01*
X957158Y463043D01*
X958512D01*
X959190Y463720D01*
X952418Y463043D02*
X955127D01*
X952418Y465751D01*
Y466428D01*
X953095Y467105D01*
X954450D01*
X955127Y466428D01*
X1165011Y483869D02*
Y479807D01*
X1162302D01*
X1158239Y483869D02*
X1160948D01*
Y479807D01*
X1158239D01*
X1160948Y481838D02*
X1159594D01*
X1156885Y483869D02*
Y479807D01*
X1154854D01*
X1154177Y480484D01*
Y483192D01*
X1154854Y483869D01*
X1156885D01*
X1152822Y483192D02*
X1152145Y483869D01*
X1150791D01*
X1150114Y483192D01*
Y482515D01*
X1150791Y481838D01*
X1151468D01*
X1150791D01*
X1150114Y481161D01*
Y480484D01*
X1150791Y479807D01*
X1152145D01*
X1152822Y480484D01*
X1148760Y479807D02*
X1147405D01*
X1148083D01*
Y483869D01*
X1148760Y483192D01*
X1342898Y445007D02*
Y440944D01*
X1340190D01*
X1336127Y445007D02*
X1338835D01*
Y440944D01*
X1336127D01*
X1338835Y442975D02*
X1337481D01*
X1334773Y445007D02*
Y440944D01*
X1332741D01*
X1332064Y441621D01*
Y444330D01*
X1332741Y445007D01*
X1334773D01*
X1330710Y444330D02*
X1330033Y445007D01*
X1328679D01*
X1328002Y444330D01*
Y443652D01*
X1328679Y442975D01*
X1329356D01*
X1328679D01*
X1328002Y442298D01*
Y441621D01*
X1328679Y440944D01*
X1330033D01*
X1330710Y441621D01*
X1326647Y444330D02*
X1325970Y445007D01*
X1324616D01*
X1323939Y444330D01*
Y441621D01*
X1324616Y440944D01*
X1325970D01*
X1326647Y441621D01*
Y444330D01*
X1534668Y413511D02*
Y409448D01*
X1531960D01*
X1527897Y413511D02*
X1530605D01*
Y409448D01*
X1527897D01*
X1530605Y411479D02*
X1529251D01*
X1526543Y413511D02*
Y409448D01*
X1524511D01*
X1523834Y410125D01*
Y412834D01*
X1524511Y413511D01*
X1526543D01*
X1519772Y409448D02*
X1522480D01*
X1519772Y412156D01*
Y412834D01*
X1520449Y413511D01*
X1521803D01*
X1522480Y412834D01*
X1518417Y410125D02*
X1517740Y409448D01*
X1516386D01*
X1515709Y410125D01*
Y412834D01*
X1516386Y413511D01*
X1517740D01*
X1518417Y412834D01*
Y412156D01*
X1517740Y411479D01*
X1515709D01*
X1769872Y416813D02*
Y412750D01*
X1767164D01*
X1763101Y416813D02*
X1765809D01*
Y412750D01*
X1763101D01*
X1765809Y414781D02*
X1764455D01*
X1761747Y416813D02*
Y412750D01*
X1759715D01*
X1759038Y413427D01*
Y416136D01*
X1759715Y416813D01*
X1761747D01*
X1754975Y412750D02*
X1757684D01*
X1754975Y415458D01*
Y416136D01*
X1755653Y416813D01*
X1757007D01*
X1757684Y416136D01*
X1753621D02*
X1752944Y416813D01*
X1751590D01*
X1750913Y416136D01*
Y415458D01*
X1751590Y414781D01*
X1750913Y414104D01*
Y413427D01*
X1751590Y412750D01*
X1752944D01*
X1753621Y413427D01*
Y414104D01*
X1752944Y414781D01*
X1753621Y415458D01*
Y416136D01*
X1752944Y414781D02*
X1751590D01*
X267970Y-30735D02*
Y-34798D01*
X265261D01*
X261199Y-30735D02*
X263907D01*
Y-34798D01*
X261199D01*
X263907Y-32767D02*
X262553D01*
X259845Y-30735D02*
Y-34798D01*
X257813D01*
X257136Y-34121D01*
Y-31412D01*
X257813Y-30735D01*
X259845D01*
X253074Y-34798D02*
X255782D01*
X253074Y-32090D01*
Y-31412D01*
X253751Y-30735D01*
X255105D01*
X255782Y-31412D01*
X251719Y-30735D02*
X249011D01*
Y-31412D01*
X251719Y-34121D01*
Y-34798D01*
X385908Y-54865D02*
Y-58927D01*
X383199D01*
X379137Y-54865D02*
X381845D01*
Y-58927D01*
X379137D01*
X381845Y-56896D02*
X380491D01*
X377782Y-54865D02*
Y-58927D01*
X375751D01*
X375074Y-58250D01*
Y-55542D01*
X375751Y-54865D01*
X377782D01*
X371011Y-58927D02*
X373719D01*
X371011Y-56219D01*
Y-55542D01*
X371688Y-54865D01*
X373042D01*
X373719Y-55542D01*
X366948Y-54865D02*
X368303Y-55542D01*
X369657Y-56896D01*
Y-58250D01*
X368980Y-58927D01*
X367626D01*
X366948Y-58250D01*
Y-57573D01*
X367626Y-56896D01*
X369657D01*
X765302Y245363D02*
Y241300D01*
X762594D01*
X758531Y245363D02*
X761239D01*
Y241300D01*
X758531D01*
X761239Y243331D02*
X759885D01*
X757177Y245363D02*
Y241300D01*
X755145D01*
X754468Y241977D01*
Y244686D01*
X755145Y245363D01*
X757177D01*
X750406Y241300D02*
X753114D01*
X750406Y244009D01*
Y244686D01*
X751083Y245363D01*
X752437D01*
X753114Y244686D01*
X746343Y245363D02*
X749051D01*
Y243331D01*
X747697Y244009D01*
X747020D01*
X746343Y243331D01*
Y241977D01*
X747020Y241300D01*
X748374D01*
X749051Y241977D01*
X957072Y256539D02*
Y252476D01*
X954363D01*
X950301Y256539D02*
X953009D01*
Y252476D01*
X950301D01*
X953009Y254507D02*
X951655D01*
X948947Y256539D02*
Y252476D01*
X946915D01*
X946238Y253153D01*
Y255862D01*
X946915Y256539D01*
X948947D01*
X942176Y252476D02*
X944884D01*
X942176Y255184D01*
Y255862D01*
X942853Y256539D01*
X944207D01*
X944884Y255862D01*
X938790Y252476D02*
Y256539D01*
X940821Y254507D01*
X938113D01*
X1148588Y274827D02*
Y270764D01*
X1145880D01*
X1141817Y274827D02*
X1144525D01*
Y270764D01*
X1141817D01*
X1144525Y272795D02*
X1143171D01*
X1140463Y274827D02*
Y270764D01*
X1138431D01*
X1137754Y271441D01*
Y274150D01*
X1138431Y274827D01*
X1140463D01*
X1133691Y270764D02*
X1136400D01*
X1133691Y273472D01*
Y274150D01*
X1134369Y274827D01*
X1135723D01*
X1136400Y274150D01*
X1132337D02*
X1131660Y274827D01*
X1130306D01*
X1129629Y274150D01*
Y273472D01*
X1130306Y272795D01*
X1130983D01*
X1130306D01*
X1129629Y272118D01*
Y271441D01*
X1130306Y270764D01*
X1131660D01*
X1132337Y271441D01*
X1340104Y255015D02*
Y250952D01*
X1337395D01*
X1333333Y255015D02*
X1336041D01*
Y250952D01*
X1333333D01*
X1336041Y252983D02*
X1334687D01*
X1331979Y255015D02*
Y250952D01*
X1329947D01*
X1329270Y251629D01*
Y254338D01*
X1329947Y255015D01*
X1331979D01*
X1325208Y250952D02*
X1327916D01*
X1325208Y253661D01*
Y254338D01*
X1325885Y255015D01*
X1327239D01*
X1327916Y254338D01*
X1321145Y250952D02*
X1323853D01*
X1321145Y253661D01*
Y254338D01*
X1321822Y255015D01*
X1323176D01*
X1323853Y254338D01*
X1526032Y223773D02*
Y219710D01*
X1523324D01*
X1519261Y223773D02*
X1521969D01*
Y219710D01*
X1519261D01*
X1521969Y221741D02*
X1520615D01*
X1517907Y223773D02*
Y219710D01*
X1515875D01*
X1515198Y220387D01*
Y223096D01*
X1515875Y223773D01*
X1517907D01*
X1511136Y219710D02*
X1513844D01*
X1511136Y222418D01*
Y223096D01*
X1511813Y223773D01*
X1513167D01*
X1513844Y223096D01*
X1509781Y219710D02*
X1508427D01*
X1509104D01*
Y223773D01*
X1509781Y223096D01*
X1769872Y223773D02*
Y219710D01*
X1767164D01*
X1763101Y223773D02*
X1765809D01*
Y219710D01*
X1763101D01*
X1765809Y221741D02*
X1764455D01*
X1761747Y223773D02*
Y219710D01*
X1759715D01*
X1759038Y220387D01*
Y223096D01*
X1759715Y223773D01*
X1761747D01*
X1754975Y219710D02*
X1757684D01*
X1754975Y222418D01*
Y223096D01*
X1755653Y223773D01*
X1757007D01*
X1757684Y223096D01*
X1753621D02*
X1752944Y223773D01*
X1751590D01*
X1750913Y223096D01*
Y220387D01*
X1751590Y219710D01*
X1752944D01*
X1753621Y220387D01*
Y223096D01*
X356108Y-208789D02*
Y-212852D01*
X353400D01*
X349337Y-208789D02*
X352045D01*
Y-212852D01*
X349337D01*
X352045Y-210821D02*
X350691D01*
X347983Y-208789D02*
Y-212852D01*
X345951D01*
X345274Y-212175D01*
Y-209466D01*
X345951Y-208789D01*
X347983D01*
X343920Y-212852D02*
X342566D01*
X343243D01*
Y-208789D01*
X343920Y-209466D01*
X340534Y-212175D02*
X339857Y-212852D01*
X338503D01*
X337826Y-212175D01*
Y-209466D01*
X338503Y-208789D01*
X339857D01*
X340534Y-209466D01*
Y-210144D01*
X339857Y-210821D01*
X337826D01*
X576834Y100329D02*
Y96266D01*
X574126D01*
X570063Y100329D02*
X572771D01*
Y96266D01*
X570063D01*
X572771Y98297D02*
X571417D01*
X568709Y100329D02*
Y96266D01*
X566677D01*
X566000Y96943D01*
Y99652D01*
X566677Y100329D01*
X568709D01*
X564646Y96266D02*
X563292D01*
X563969D01*
Y100329D01*
X564646Y99652D01*
X561260D02*
X560583Y100329D01*
X559229D01*
X558552Y99652D01*
Y98975D01*
X559229Y98297D01*
X558552Y97620D01*
Y96943D01*
X559229Y96266D01*
X560583D01*
X561260Y96943D01*
Y97620D01*
X560583Y98297D01*
X561260Y98975D01*
Y99652D01*
X560583Y98297D02*
X559229D01*
X760476Y54863D02*
Y50800D01*
X757767D01*
X753705Y54863D02*
X756413D01*
Y50800D01*
X753705D01*
X756413Y52831D02*
X755059D01*
X752351Y54863D02*
Y50800D01*
X750319D01*
X749642Y51477D01*
Y54186D01*
X750319Y54863D01*
X752351D01*
X748288Y50800D02*
X746934D01*
X747611D01*
Y54863D01*
X748288Y54186D01*
X744902Y54863D02*
X742194D01*
Y54186D01*
X744902Y51477D01*
Y50800D01*
X963422Y63499D02*
Y59436D01*
X960714D01*
X956651Y63499D02*
X959359D01*
Y59436D01*
X956651D01*
X959359Y61467D02*
X958005D01*
X955297Y63499D02*
Y59436D01*
X953265D01*
X952588Y60113D01*
Y62822D01*
X953265Y63499D01*
X955297D01*
X951234Y59436D02*
X949880D01*
X950557D01*
Y63499D01*
X951234Y62822D01*
X945140Y63499D02*
X946494Y62822D01*
X947848Y61467D01*
Y60113D01*
X947171Y59436D01*
X945817D01*
X945140Y60113D01*
Y60790D01*
X945817Y61467D01*
X947848D01*
X1147826Y77215D02*
Y73152D01*
X1145117D01*
X1141055Y77215D02*
X1143763D01*
Y73152D01*
X1141055D01*
X1143763Y75183D02*
X1142409D01*
X1139701Y77215D02*
Y73152D01*
X1137669D01*
X1136992Y73829D01*
Y76538D01*
X1137669Y77215D01*
X1139701D01*
X1135638Y73152D02*
X1134284D01*
X1134961D01*
Y77215D01*
X1135638Y76538D01*
X1129544Y77215D02*
X1132252D01*
Y75183D01*
X1130898Y75861D01*
X1130221D01*
X1129544Y75183D01*
Y73829D01*
X1130221Y73152D01*
X1131575D01*
X1132252Y73829D01*
X1342898Y62737D02*
Y58674D01*
X1340190D01*
X1336127Y62737D02*
X1338835D01*
Y58674D01*
X1336127D01*
X1338835Y60705D02*
X1337481D01*
X1334773Y62737D02*
Y58674D01*
X1332741D01*
X1332064Y59351D01*
Y62060D01*
X1332741Y62737D01*
X1334773D01*
X1330710Y58674D02*
X1329356D01*
X1330033D01*
Y62737D01*
X1330710Y62060D01*
X1325293Y58674D02*
Y62737D01*
X1327324Y60705D01*
X1324616D01*
X1529080Y30225D02*
Y26162D01*
X1526371D01*
X1522309Y30225D02*
X1525017D01*
Y26162D01*
X1522309D01*
X1525017Y28193D02*
X1523663D01*
X1520955Y30225D02*
Y26162D01*
X1518923D01*
X1518246Y26839D01*
Y29548D01*
X1518923Y30225D01*
X1520955D01*
X1516892Y26162D02*
X1515538D01*
X1516215D01*
Y30225D01*
X1516892Y29548D01*
X1513506D02*
X1512829Y30225D01*
X1511475D01*
X1510798Y29548D01*
Y28870D01*
X1511475Y28193D01*
X1512152D01*
X1511475D01*
X1510798Y27516D01*
Y26839D01*
X1511475Y26162D01*
X1512829D01*
X1513506Y26839D01*
X1769110Y30733D02*
Y26670D01*
X1766402D01*
X1762339Y30733D02*
X1765047D01*
Y26670D01*
X1762339D01*
X1765047Y28701D02*
X1763693D01*
X1760985Y30733D02*
Y26670D01*
X1758953D01*
X1758276Y27347D01*
Y30056D01*
X1758953Y30733D01*
X1760985D01*
X1756922Y26670D02*
X1755568D01*
X1756245D01*
Y30733D01*
X1756922Y30056D01*
X1750828Y26670D02*
X1753536D01*
X1750828Y29378D01*
Y30056D01*
X1751505Y30733D01*
X1752859D01*
X1753536Y30056D01*
X434594Y-392431D02*
Y-396494D01*
X431885D01*
X427823Y-392431D02*
X430531D01*
Y-396494D01*
X427823D01*
X430531Y-394463D02*
X429177D01*
X426469Y-392431D02*
Y-396494D01*
X424437D01*
X423760Y-395817D01*
Y-393108D01*
X424437Y-392431D01*
X426469D01*
X422406Y-396494D02*
X421052D01*
X421729D01*
Y-392431D01*
X422406Y-393108D01*
X419020Y-396494D02*
X417666D01*
X418343D01*
Y-392431D01*
X419020Y-393108D01*
X500888Y-318771D02*
Y-322834D01*
X498180D01*
X494117Y-318771D02*
X496825D01*
Y-322834D01*
X494117D01*
X496825Y-320803D02*
X495471D01*
X492763Y-318771D02*
Y-322834D01*
X490731D01*
X490054Y-322157D01*
Y-319448D01*
X490731Y-318771D01*
X492763D01*
X488700Y-322834D02*
X487346D01*
X488023D01*
Y-318771D01*
X488700Y-319448D01*
X485314D02*
X484637Y-318771D01*
X483283D01*
X482606Y-319448D01*
Y-322157D01*
X483283Y-322834D01*
X484637D01*
X485314Y-322157D01*
Y-319448D01*
X669036Y-255271D02*
Y-259334D01*
X666328D01*
X662265Y-255271D02*
X664973D01*
Y-259334D01*
X662265D01*
X664973Y-257303D02*
X663619D01*
X660911Y-255271D02*
Y-259334D01*
X658879D01*
X658202Y-258657D01*
Y-255948D01*
X658879Y-255271D01*
X660911D01*
X656848Y-258657D02*
X656171Y-259334D01*
X654817D01*
X654139Y-258657D01*
Y-255948D01*
X654817Y-255271D01*
X656171D01*
X656848Y-255948D01*
Y-256625D01*
X656171Y-257303D01*
X654139D01*
X963504Y-102109D02*
Y-106171D01*
X960796D01*
X956733Y-102109D02*
X959442D01*
Y-106171D01*
X956733D01*
X959442Y-104140D02*
X958087D01*
X955379Y-102109D02*
Y-106171D01*
X953347D01*
X952670Y-105494D01*
Y-102786D01*
X953347Y-102109D01*
X955379D01*
X951316Y-102786D02*
X950639Y-102109D01*
X949285D01*
X948608Y-102786D01*
Y-103463D01*
X949285Y-104140D01*
X948608Y-104817D01*
Y-105494D01*
X949285Y-106171D01*
X950639D01*
X951316Y-105494D01*
Y-104817D01*
X950639Y-104140D01*
X951316Y-103463D01*
Y-102786D01*
X950639Y-104140D02*
X949285D01*
X1144016Y-91187D02*
Y-95250D01*
X1141308D01*
X1137245Y-91187D02*
X1139953D01*
Y-95250D01*
X1137245D01*
X1139953Y-93219D02*
X1138599D01*
X1135891Y-91187D02*
Y-95250D01*
X1133859D01*
X1133182Y-94573D01*
Y-91864D01*
X1133859Y-91187D01*
X1135891D01*
X1131828D02*
X1129119D01*
Y-91864D01*
X1131828Y-94573D01*
Y-95250D01*
X1342644Y-108459D02*
Y-112522D01*
X1339935D01*
X1335873Y-108459D02*
X1338581D01*
Y-112522D01*
X1335873D01*
X1338581Y-110491D02*
X1337227D01*
X1334519Y-108459D02*
Y-112522D01*
X1332487D01*
X1331810Y-111845D01*
Y-109136D01*
X1332487Y-108459D01*
X1334519D01*
X1327747D02*
X1329102Y-109136D01*
X1330456Y-110491D01*
Y-111845D01*
X1329779Y-112522D01*
X1328425D01*
X1327747Y-111845D01*
Y-111168D01*
X1328425Y-110491D01*
X1330456D01*
X1531874Y-151893D02*
Y-155956D01*
X1529165D01*
X1525103Y-151893D02*
X1527811D01*
Y-155956D01*
X1525103D01*
X1527811Y-153925D02*
X1526457D01*
X1523749Y-151893D02*
Y-155956D01*
X1521717D01*
X1521040Y-155279D01*
Y-152570D01*
X1521717Y-151893D01*
X1523749D01*
X1516978D02*
X1519686D01*
Y-153925D01*
X1518332Y-153247D01*
X1517655D01*
X1516978Y-153925D01*
Y-155279D01*
X1517655Y-155956D01*
X1519009D01*
X1519686Y-155279D01*
X163576Y771144D02*
Y775207D01*
X162222Y773852D01*
X160868Y775207D01*
Y771144D01*
X159513Y775207D02*
X156805D01*
X158159D01*
Y771144D01*
X155451D02*
X154096D01*
X154774D01*
Y775207D01*
X155451Y774530D01*
M02*
