G04*
G04 #@! TF.GenerationSoftware,Altium Limited,Altium Designer,24.8.2 (39)*
G04*
G04 Layer_Color=255*
%FSLAX44Y44*%
%MOMM*%
G71*
G04*
G04 #@! TF.SameCoordinates,725FF0F6-F25A-4342-A06E-65F6636654C1*
G04*
G04*
G04 #@! TF.FilePolarity,Positive*
G04*
G01*
G75*
%ADD166C,0.5000*%
%ADD167C,0.6000*%
%ADD168O,2.0000X0.9000*%
%ADD169O,1.7000X0.9000*%
%ADD170R,1.4380X1.4380*%
%ADD171C,1.4380*%
%ADD172C,2.2650*%
%ADD173C,0.3000*%
%ADD174R,1.3080X1.3080*%
%ADD175C,1.3080*%
%ADD176R,1.6500X1.6500*%
%ADD177C,1.6500*%
%ADD178O,3.0000X6.0000*%
%ADD179C,4.5720*%
G04:AMPARAMS|DCode=180|XSize=1.308mm|YSize=1.308mm|CornerRadius=0.327mm|HoleSize=0mm|Usage=FLASHONLY|Rotation=90.000|XOffset=0mm|YOffset=0mm|HoleType=Round|Shape=RoundedRectangle|*
%AMROUNDEDRECTD180*
21,1,1.3080,0.6540,0,0,90.0*
21,1,0.6540,1.3080,0,0,90.0*
1,1,0.6540,0.3270,0.3270*
1,1,0.6540,0.3270,-0.3270*
1,1,0.6540,-0.3270,-0.3270*
1,1,0.6540,-0.3270,0.3270*
%
%ADD180ROUNDEDRECTD180*%
%ADD181C,4.0000*%
%ADD182C,5.9000*%
%ADD204R,1.5000X0.9000*%
D166*
X242764Y747802D02*
D03*
X243018Y758724D02*
D03*
X243272Y769138D02*
D03*
Y780568D02*
D03*
X253940Y780314D02*
D03*
Y747802D02*
D03*
X254194Y758978D02*
D03*
X253940Y769138D02*
D03*
X265116D02*
D03*
Y758724D02*
D03*
X265370Y747548D02*
D03*
X276038D02*
D03*
Y758724D02*
D03*
X276292Y769392D02*
D03*
Y780314D02*
D03*
X265116D02*
D03*
D167*
X58134Y317230D02*
D03*
Y259430D02*
D03*
D168*
X63034Y331580D02*
D03*
Y245080D02*
D03*
D169*
X21334Y331580D02*
D03*
Y245080D02*
D03*
D170*
X47806Y460690D02*
D03*
D171*
Y440690D02*
D03*
Y420690D02*
D03*
X22806Y460690D02*
D03*
Y440690D02*
D03*
Y420690D02*
D03*
D172*
X35306Y490690D02*
D03*
Y390690D02*
D03*
D173*
X268602Y407416D02*
D03*
X276352D02*
D03*
X284102D02*
D03*
X276352Y399666D02*
D03*
Y415166D02*
D03*
D174*
X333398Y556602D02*
D03*
D175*
X313398D02*
D03*
X293398D02*
D03*
X273398D02*
D03*
X253398D02*
D03*
X233398D02*
D03*
X213398D02*
D03*
X193398D02*
D03*
X136144Y362458D02*
D03*
Y337458D02*
D03*
D176*
X65170Y608434D02*
D03*
D177*
X115170D02*
D03*
X65170Y753434D02*
D03*
X90170D02*
D03*
X115170D02*
D03*
D178*
X33170Y678434D02*
D03*
X147170D02*
D03*
D179*
X36576Y869950D02*
D03*
X782574Y-330962D02*
D03*
D180*
X136144Y387458D02*
D03*
D181*
X1499615Y456463D02*
D03*
X1737741Y75460D02*
D03*
X1118612Y-67314D02*
D03*
X250688Y-288346D02*
D03*
X737609Y94511D02*
D03*
X1499615Y265962D02*
D03*
X1118612Y694691D02*
D03*
X928110Y297712D02*
D03*
X547108Y427888D02*
D03*
Y665990D02*
D03*
X737609Y285012D02*
D03*
X1309113Y678715D02*
D03*
Y107211D02*
D03*
X547108Y142136D02*
D03*
X463773Y-294096D02*
D03*
X1309113Y-83291D02*
D03*
X1499615Y75460D02*
D03*
X1499615Y646939D02*
D03*
X1737742Y456463D02*
D03*
X1690116Y-115041D02*
D03*
X928110Y-83291D02*
D03*
X170195Y-115701D02*
D03*
X928110Y107211D02*
D03*
X1309113Y297712D02*
D03*
X928110Y678715D02*
D03*
Y488213D02*
D03*
X737609Y475513D02*
D03*
Y665990D02*
D03*
X1118612Y504190D02*
D03*
X1309113Y488213D02*
D03*
X1118612Y123188D02*
D03*
X342840Y-35208D02*
D03*
X636418Y-213577D02*
D03*
X1499615Y-115041D02*
D03*
X1737742Y265962D02*
D03*
Y646939D02*
D03*
D182*
X361716Y-355465D02*
D03*
D204*
X1475624Y-211318D02*
D03*
Y-178318D02*
D03*
X1524624Y-211318D02*
D03*
Y-178318D02*
D03*
X1335394Y-134884D02*
D03*
Y-167884D02*
D03*
X1286394Y-134884D02*
D03*
Y-167884D02*
D03*
X1087766Y-150612D02*
D03*
Y-117612D02*
D03*
X1136766Y-150612D02*
D03*
Y-117612D02*
D03*
X952616Y-127010D02*
D03*
Y-160010D02*
D03*
X903616Y-127010D02*
D03*
Y-160010D02*
D03*
X612786Y-314696D02*
D03*
Y-281696D02*
D03*
X661786Y-314696D02*
D03*
Y-281696D02*
D03*
X493638Y-345196D02*
D03*
Y-378196D02*
D03*
X444638Y-345196D02*
D03*
Y-378196D02*
D03*
X378344Y-451856D02*
D03*
Y-418856D02*
D03*
X427344Y-451856D02*
D03*
Y-418856D02*
D03*
X1761860Y4308D02*
D03*
Y-28692D02*
D03*
X1712860Y4308D02*
D03*
Y-28692D02*
D03*
X1472830Y-29200D02*
D03*
Y3800D02*
D03*
X1521830Y-29200D02*
D03*
Y3800D02*
D03*
X1335648Y36312D02*
D03*
Y3312D02*
D03*
X1286648Y36312D02*
D03*
Y3312D02*
D03*
X1091576Y17790D02*
D03*
Y50790D02*
D03*
X1140576Y17790D02*
D03*
Y50790D02*
D03*
X956172Y37074D02*
D03*
Y4074D02*
D03*
X907172Y37074D02*
D03*
Y4074D02*
D03*
X704226Y-4562D02*
D03*
Y28438D02*
D03*
X753226Y-4562D02*
D03*
Y28438D02*
D03*
X569584Y73904D02*
D03*
Y40904D02*
D03*
X520584Y73904D02*
D03*
Y40904D02*
D03*
X299858Y-268214D02*
D03*
Y-235214D02*
D03*
X348858Y-268214D02*
D03*
Y-235214D02*
D03*
X1762622Y197348D02*
D03*
Y164348D02*
D03*
X1713622Y197348D02*
D03*
Y164348D02*
D03*
X1469782D02*
D03*
Y197348D02*
D03*
X1518782Y164348D02*
D03*
Y197348D02*
D03*
X1332854Y228590D02*
D03*
Y195590D02*
D03*
X1283854Y228590D02*
D03*
Y195590D02*
D03*
X1092338Y215402D02*
D03*
Y248402D02*
D03*
X1141338Y215402D02*
D03*
Y248402D02*
D03*
X949706Y230104D02*
D03*
Y197104D02*
D03*
X900706Y230104D02*
D03*
Y197104D02*
D03*
X709052Y185938D02*
D03*
Y218938D02*
D03*
X758052Y185938D02*
D03*
Y218938D02*
D03*
X376544Y-77988D02*
D03*
Y-110988D02*
D03*
X327544Y-77988D02*
D03*
Y-110988D02*
D03*
X211771Y-90222D02*
D03*
Y-57222D02*
D03*
X260771Y-90222D02*
D03*
Y-57222D02*
D03*
X1762622Y390388D02*
D03*
Y357388D02*
D03*
X1713622Y390388D02*
D03*
Y357388D02*
D03*
X1478418Y354086D02*
D03*
Y387086D02*
D03*
X1527418Y354086D02*
D03*
Y387086D02*
D03*
X1335648Y418582D02*
D03*
Y385582D02*
D03*
X1286648Y418582D02*
D03*
Y385582D02*
D03*
X1098180Y429270D02*
D03*
Y462270D02*
D03*
X1147180Y429270D02*
D03*
Y462270D02*
D03*
X956680Y446014D02*
D03*
Y413014D02*
D03*
X907680Y446014D02*
D03*
Y413014D02*
D03*
X714640Y400822D02*
D03*
Y433822D02*
D03*
X763640Y400822D02*
D03*
Y433822D02*
D03*
X571870Y360416D02*
D03*
Y327416D02*
D03*
X522870Y360416D02*
D03*
Y327416D02*
D03*
X1762622Y577332D02*
D03*
Y544332D02*
D03*
X1713622Y577332D02*
D03*
Y544332D02*
D03*
X1527672Y580634D02*
D03*
Y547634D02*
D03*
X1478672Y580634D02*
D03*
Y547634D02*
D03*
X1288172Y578876D02*
D03*
Y611876D02*
D03*
X1337172Y578876D02*
D03*
Y611876D02*
D03*
X1140576Y622798D02*
D03*
Y589798D02*
D03*
X1091576Y622798D02*
D03*
Y589798D02*
D03*
X901584Y572526D02*
D03*
Y605526D02*
D03*
X950584Y572526D02*
D03*
Y605526D02*
D03*
X762116Y596382D02*
D03*
Y563382D02*
D03*
X713116Y596382D02*
D03*
Y563382D02*
D03*
X523378Y569732D02*
D03*
Y602732D02*
D03*
X572378Y569732D02*
D03*
Y602732D02*
D03*
X1718680Y-178318D02*
D03*
Y-211318D02*
D03*
X1669680Y-178318D02*
D03*
Y-211318D02*
D03*
M02*
