G04*
G04 #@! TF.GenerationSoftware,Altium Limited,Altium Designer,24.5.2 (23)*
G04*
G04 Layer_Physical_Order=1*
G04 Layer_Color=255*
%FSLAX44Y44*%
%MOMM*%
G71*
G04*
G04 #@! TF.SameCoordinates,46E3B4B0-CD5B-4495-8DDB-E651780D3609*
G04*
G04*
G04 #@! TF.FilePolarity,Positive*
G04*
G01*
G75*
%ADD13C,0.1524*%
%ADD14C,0.2540*%
%ADD21R,1.8796X2.2606*%
%ADD22R,2.5500X2.5000*%
G04:AMPARAMS|DCode=23|XSize=2.55mm|YSize=2.5mm|CornerRadius=0mm|HoleSize=0mm|Usage=FLASHONLY|Rotation=120.000|XOffset=0mm|YOffset=0mm|HoleType=Round|Shape=Rectangle|*
%AMROTATEDRECTD23*
4,1,4,1.7200,-0.4792,-0.4450,-1.7292,-1.7200,0.4792,0.4450,1.7292,1.7200,-0.4792,0.0*
%
%ADD23ROTATEDRECTD23*%

%ADD24R,0.9000X0.9000*%
G04:AMPARAMS|DCode=25|XSize=0.9mm|YSize=0.9mm|CornerRadius=0.225mm|HoleSize=0mm|Usage=FLASHONLY|Rotation=90.000|XOffset=0mm|YOffset=0mm|HoleType=Round|Shape=RoundedRectangle|*
%AMROUNDEDRECTD25*
21,1,0.9000,0.4500,0,0,90.0*
21,1,0.4500,0.9000,0,0,90.0*
1,1,0.4500,0.2250,0.2250*
1,1,0.4500,0.2250,-0.2250*
1,1,0.4500,-0.2250,-0.2250*
1,1,0.4500,-0.2250,0.2250*
%
%ADD25ROUNDEDRECTD25*%
%ADD26C,3.4000*%
G04:AMPARAMS|DCode=27|XSize=0.4mm|YSize=0.9mm|CornerRadius=0.1mm|HoleSize=0mm|Usage=FLASHONLY|Rotation=270.000|XOffset=0mm|YOffset=0mm|HoleType=Round|Shape=RoundedRectangle|*
%AMROUNDEDRECTD27*
21,1,0.4000,0.7000,0,0,270.0*
21,1,0.2000,0.9000,0,0,270.0*
1,1,0.2000,-0.3500,-0.1000*
1,1,0.2000,-0.3500,0.1000*
1,1,0.2000,0.3500,0.1000*
1,1,0.2000,0.3500,-0.1000*
%
%ADD27ROUNDEDRECTD27*%
%ADD28R,0.9000X0.4000*%
G04:AMPARAMS|DCode=30|XSize=0.6mm|YSize=0.26mm|CornerRadius=0.0325mm|HoleSize=0mm|Usage=FLASHONLY|Rotation=0.000|XOffset=0mm|YOffset=0mm|HoleType=Round|Shape=RoundedRectangle|*
%AMROUNDEDRECTD30*
21,1,0.6000,0.1950,0,0,0.0*
21,1,0.5350,0.2600,0,0,0.0*
1,1,0.0650,0.2675,-0.0975*
1,1,0.0650,-0.2675,-0.0975*
1,1,0.0650,-0.2675,0.0975*
1,1,0.0650,0.2675,0.0975*
%
%ADD30ROUNDEDRECTD30*%
%ADD31R,0.6000X0.2600*%
G04:AMPARAMS|DCode=32|XSize=0.6mm|YSize=0.26mm|CornerRadius=0.0325mm|HoleSize=0mm|Usage=FLASHONLY|Rotation=90.000|XOffset=0mm|YOffset=0mm|HoleType=Round|Shape=RoundedRectangle|*
%AMROUNDEDRECTD32*
21,1,0.6000,0.1950,0,0,90.0*
21,1,0.5350,0.2600,0,0,90.0*
1,1,0.0650,0.0975,0.2675*
1,1,0.0650,0.0975,-0.2675*
1,1,0.0650,-0.0975,-0.2675*
1,1,0.0650,-0.0975,0.2675*
%
%ADD32ROUNDEDRECTD32*%
G04:AMPARAMS|DCode=33|XSize=0.8mm|YSize=0.8mm|CornerRadius=0.2mm|HoleSize=0mm|Usage=FLASHONLY|Rotation=270.000|XOffset=0mm|YOffset=0mm|HoleType=Round|Shape=RoundedRectangle|*
%AMROUNDEDRECTD33*
21,1,0.8000,0.4000,0,0,270.0*
21,1,0.4000,0.8000,0,0,270.0*
1,1,0.4000,-0.2000,-0.2000*
1,1,0.4000,-0.2000,0.2000*
1,1,0.4000,0.2000,0.2000*
1,1,0.4000,0.2000,-0.2000*
%
%ADD33ROUNDEDRECTD33*%
%ADD34R,0.8000X0.8000*%
%ADD35R,0.4000X0.6000*%
G04:AMPARAMS|DCode=36|XSize=0.6mm|YSize=0.4mm|CornerRadius=0.1mm|HoleSize=0mm|Usage=FLASHONLY|Rotation=90.000|XOffset=0mm|YOffset=0mm|HoleType=Round|Shape=RoundedRectangle|*
%AMROUNDEDRECTD36*
21,1,0.6000,0.2000,0,0,90.0*
21,1,0.4000,0.4000,0,0,90.0*
1,1,0.2000,0.1000,0.2000*
1,1,0.2000,0.1000,-0.2000*
1,1,0.2000,-0.1000,-0.2000*
1,1,0.2000,-0.1000,0.2000*
%
%ADD36ROUNDEDRECTD36*%
%ADD37R,0.6000X0.4000*%
G04:AMPARAMS|DCode=38|XSize=0.6mm|YSize=0.4mm|CornerRadius=0.1mm|HoleSize=0mm|Usage=FLASHONLY|Rotation=180.000|XOffset=0mm|YOffset=0mm|HoleType=Round|Shape=RoundedRectangle|*
%AMROUNDEDRECTD38*
21,1,0.6000,0.2000,0,0,180.0*
21,1,0.4000,0.4000,0,0,180.0*
1,1,0.2000,-0.2000,0.1000*
1,1,0.2000,0.2000,0.1000*
1,1,0.2000,0.2000,-0.1000*
1,1,0.2000,-0.2000,-0.1000*
%
%ADD38ROUNDEDRECTD38*%
%ADD39R,0.8600X0.2600*%
G04:AMPARAMS|DCode=40|XSize=0.26mm|YSize=0.86mm|CornerRadius=0.065mm|HoleSize=0mm|Usage=FLASHONLY|Rotation=270.000|XOffset=0mm|YOffset=0mm|HoleType=Round|Shape=RoundedRectangle|*
%AMROUNDEDRECTD40*
21,1,0.2600,0.7300,0,0,270.0*
21,1,0.1300,0.8600,0,0,270.0*
1,1,0.1300,-0.3650,-0.0650*
1,1,0.1300,-0.3650,0.0650*
1,1,0.1300,0.3650,0.0650*
1,1,0.1300,0.3650,-0.0650*
%
%ADD40ROUNDEDRECTD40*%
G04:AMPARAMS|DCode=41|XSize=0.26mm|YSize=0.86mm|CornerRadius=0.065mm|HoleSize=0mm|Usage=FLASHONLY|Rotation=180.000|XOffset=0mm|YOffset=0mm|HoleType=Round|Shape=RoundedRectangle|*
%AMROUNDEDRECTD41*
21,1,0.2600,0.7300,0,0,180.0*
21,1,0.1300,0.8600,0,0,180.0*
1,1,0.1300,-0.0650,0.3650*
1,1,0.1300,0.0650,0.3650*
1,1,0.1300,0.0650,-0.3650*
1,1,0.1300,-0.0650,-0.3650*
%
%ADD41ROUNDEDRECTD41*%
%ADD42R,1.1400X0.6000*%
%ADD43R,1.1400X0.3000*%
%ADD44R,2.1000X1.4000*%
G04:AMPARAMS|DCode=45|XSize=0.24mm|YSize=0.6mm|CornerRadius=0.0324mm|HoleSize=0mm|Usage=FLASHONLY|Rotation=90.000|XOffset=0mm|YOffset=0mm|HoleType=Round|Shape=RoundedRectangle|*
%AMROUNDEDRECTD45*
21,1,0.2400,0.5352,0,0,90.0*
21,1,0.1752,0.6000,0,0,90.0*
1,1,0.0648,0.2676,0.0876*
1,1,0.0648,0.2676,-0.0876*
1,1,0.0648,-0.2676,-0.0876*
1,1,0.0648,-0.2676,0.0876*
%
%ADD45ROUNDEDRECTD45*%
G04:AMPARAMS|DCode=46|XSize=0.6mm|YSize=0.24mm|CornerRadius=0.06mm|HoleSize=0mm|Usage=FLASHONLY|Rotation=90.000|XOffset=0mm|YOffset=0mm|HoleType=Round|Shape=RoundedRectangle|*
%AMROUNDEDRECTD46*
21,1,0.6000,0.1200,0,0,90.0*
21,1,0.4800,0.2400,0,0,90.0*
1,1,0.1200,0.0600,0.2400*
1,1,0.1200,0.0600,-0.2400*
1,1,0.1200,-0.0600,-0.2400*
1,1,0.1200,-0.0600,0.2400*
%
%ADD46ROUNDEDRECTD46*%
G04:AMPARAMS|DCode=47|XSize=0.6mm|YSize=0.24mm|CornerRadius=0.0324mm|HoleSize=0mm|Usage=FLASHONLY|Rotation=90.000|XOffset=0mm|YOffset=0mm|HoleType=Round|Shape=RoundedRectangle|*
%AMROUNDEDRECTD47*
21,1,0.6000,0.1752,0,0,90.0*
21,1,0.5352,0.2400,0,0,90.0*
1,1,0.0648,0.0876,0.2676*
1,1,0.0648,0.0876,-0.2676*
1,1,0.0648,-0.0876,-0.2676*
1,1,0.0648,-0.0876,0.2676*
%
%ADD47ROUNDEDRECTD47*%
%ADD48R,0.4000X0.9000*%
G04:AMPARAMS|DCode=49|XSize=0.4mm|YSize=0.9mm|CornerRadius=0.1mm|HoleSize=0mm|Usage=FLASHONLY|Rotation=180.000|XOffset=0mm|YOffset=0mm|HoleType=Round|Shape=RoundedRectangle|*
%AMROUNDEDRECTD49*
21,1,0.4000,0.7000,0,0,180.0*
21,1,0.2000,0.9000,0,0,180.0*
1,1,0.2000,-0.1000,0.3500*
1,1,0.2000,0.1000,0.3500*
1,1,0.2000,0.1000,-0.3500*
1,1,0.2000,-0.1000,-0.3500*
%
%ADD49ROUNDEDRECTD49*%
G04:AMPARAMS|DCode=50|XSize=1.2mm|YSize=1mm|CornerRadius=0.25mm|HoleSize=0mm|Usage=FLASHONLY|Rotation=180.000|XOffset=0mm|YOffset=0mm|HoleType=Round|Shape=RoundedRectangle|*
%AMROUNDEDRECTD50*
21,1,1.2000,0.5000,0,0,180.0*
21,1,0.7000,1.0000,0,0,180.0*
1,1,0.5000,-0.3500,0.2500*
1,1,0.5000,0.3500,0.2500*
1,1,0.5000,0.3500,-0.2500*
1,1,0.5000,-0.3500,-0.2500*
%
%ADD50ROUNDEDRECTD50*%
%ADD51R,1.2000X1.0000*%
G04:AMPARAMS|DCode=52|XSize=0.9mm|YSize=0.9mm|CornerRadius=0.225mm|HoleSize=0mm|Usage=FLASHONLY|Rotation=180.000|XOffset=0mm|YOffset=0mm|HoleType=Round|Shape=RoundedRectangle|*
%AMROUNDEDRECTD52*
21,1,0.9000,0.4500,0,0,180.0*
21,1,0.4500,0.9000,0,0,180.0*
1,1,0.4500,-0.2250,0.2250*
1,1,0.4500,0.2250,0.2250*
1,1,0.4500,0.2250,-0.2250*
1,1,0.4500,-0.2250,-0.2250*
%
%ADD52ROUNDEDRECTD52*%
%ADD53R,0.9000X0.9000*%
%ADD54R,3.2000X1.0000*%
G04:AMPARAMS|DCode=55|XSize=1mm|YSize=3.2mm|CornerRadius=0.25mm|HoleSize=0mm|Usage=FLASHONLY|Rotation=90.000|XOffset=0mm|YOffset=0mm|HoleType=Round|Shape=RoundedRectangle|*
%AMROUNDEDRECTD55*
21,1,1.0000,2.7000,0,0,90.0*
21,1,0.5000,3.2000,0,0,90.0*
1,1,0.5000,1.3500,0.2500*
1,1,0.5000,1.3500,-0.2500*
1,1,0.5000,-1.3500,-0.2500*
1,1,0.5000,-1.3500,0.2500*
%
%ADD55ROUNDEDRECTD55*%
G04:AMPARAMS|DCode=56|XSize=1.2mm|YSize=1mm|CornerRadius=0.25mm|HoleSize=0mm|Usage=FLASHONLY|Rotation=90.000|XOffset=0mm|YOffset=0mm|HoleType=Round|Shape=RoundedRectangle|*
%AMROUNDEDRECTD56*
21,1,1.2000,0.5000,0,0,90.0*
21,1,0.7000,1.0000,0,0,90.0*
1,1,0.5000,0.2500,0.3500*
1,1,0.5000,0.2500,-0.3500*
1,1,0.5000,-0.2500,-0.3500*
1,1,0.5000,-0.2500,0.3500*
%
%ADD56ROUNDEDRECTD56*%
%ADD57R,1.0000X1.2000*%
%ADD58R,4.3000X1.6000*%
G04:AMPARAMS|DCode=59|XSize=1.6mm|YSize=4.3mm|CornerRadius=0.4mm|HoleSize=0mm|Usage=FLASHONLY|Rotation=90.000|XOffset=0mm|YOffset=0mm|HoleType=Round|Shape=RoundedRectangle|*
%AMROUNDEDRECTD59*
21,1,1.6000,3.5000,0,0,90.0*
21,1,0.8000,4.3000,0,0,90.0*
1,1,0.8000,1.7500,0.4000*
1,1,0.8000,1.7500,-0.4000*
1,1,0.8000,-1.7500,-0.4000*
1,1,0.8000,-1.7500,0.4000*
%
%ADD59ROUNDEDRECTD59*%
G04:AMPARAMS|DCode=60|XSize=0.45mm|YSize=0.85mm|CornerRadius=0.1125mm|HoleSize=0mm|Usage=FLASHONLY|Rotation=90.000|XOffset=0mm|YOffset=0mm|HoleType=Round|Shape=RoundedRectangle|*
%AMROUNDEDRECTD60*
21,1,0.4500,0.6250,0,0,90.0*
21,1,0.2250,0.8500,0,0,90.0*
1,1,0.2250,0.3125,0.1125*
1,1,0.2250,0.3125,-0.1125*
1,1,0.2250,-0.3125,-0.1125*
1,1,0.2250,-0.3125,0.1125*
%
%ADD60ROUNDEDRECTD60*%
%ADD61R,0.8500X0.4500*%
%ADD62R,1.1600X1.4700*%
%ADD63R,0.6858X0.5842*%
G04:AMPARAMS|DCode=64|XSize=1.6mm|YSize=4.3mm|CornerRadius=0.4mm|HoleSize=0mm|Usage=FLASHONLY|Rotation=0.000|XOffset=0mm|YOffset=0mm|HoleType=Round|Shape=RoundedRectangle|*
%AMROUNDEDRECTD64*
21,1,1.6000,3.5000,0,0,0.0*
21,1,0.8000,4.3000,0,0,0.0*
1,1,0.8000,0.4000,-1.7500*
1,1,0.8000,-0.4000,-1.7500*
1,1,0.8000,-0.4000,1.7500*
1,1,0.8000,0.4000,1.7500*
%
%ADD64ROUNDEDRECTD64*%
%ADD65R,1.6000X4.3000*%
%ADD66R,1.9000X1.1000*%
%ADD67R,0.6400X0.4700*%
G04:AMPARAMS|DCode=68|XSize=0.64mm|YSize=0.47mm|CornerRadius=0.1175mm|HoleSize=0mm|Usage=FLASHONLY|Rotation=180.000|XOffset=0mm|YOffset=0mm|HoleType=Round|Shape=RoundedRectangle|*
%AMROUNDEDRECTD68*
21,1,0.6400,0.2350,0,0,180.0*
21,1,0.4050,0.4700,0,0,180.0*
1,1,0.2350,-0.2025,0.1175*
1,1,0.2350,0.2025,0.1175*
1,1,0.2350,0.2025,-0.1175*
1,1,0.2350,-0.2025,-0.1175*
%
%ADD68ROUNDEDRECTD68*%
%ADD69R,0.5000X0.6400*%
G04:AMPARAMS|DCode=70|XSize=0.64mm|YSize=0.5mm|CornerRadius=0.125mm|HoleSize=0mm|Usage=FLASHONLY|Rotation=270.000|XOffset=0mm|YOffset=0mm|HoleType=Round|Shape=RoundedRectangle|*
%AMROUNDEDRECTD70*
21,1,0.6400,0.2500,0,0,270.0*
21,1,0.3900,0.5000,0,0,270.0*
1,1,0.2500,-0.1250,-0.1950*
1,1,0.2500,-0.1250,0.1950*
1,1,0.2500,0.1250,0.1950*
1,1,0.2500,0.1250,-0.1950*
%
%ADD70ROUNDEDRECTD70*%
G04:AMPARAMS|DCode=71|XSize=0.8mm|YSize=0.8mm|CornerRadius=0.2mm|HoleSize=0mm|Usage=FLASHONLY|Rotation=0.000|XOffset=0mm|YOffset=0mm|HoleType=Round|Shape=RoundedRectangle|*
%AMROUNDEDRECTD71*
21,1,0.8000,0.4000,0,0,0.0*
21,1,0.4000,0.8000,0,0,0.0*
1,1,0.4000,0.2000,-0.2000*
1,1,0.4000,-0.2000,-0.2000*
1,1,0.4000,-0.2000,0.2000*
1,1,0.4000,0.2000,0.2000*
%
%ADD71ROUNDEDRECTD71*%
%ADD72R,0.8000X0.8000*%
%ADD73R,1.4700X1.1600*%
%ADD74R,2.2606X1.8796*%
%ADD75R,0.7000X1.0000*%
%ADD76R,0.4700X0.6400*%
G04:AMPARAMS|DCode=77|XSize=0.64mm|YSize=0.47mm|CornerRadius=0.1175mm|HoleSize=0mm|Usage=FLASHONLY|Rotation=270.000|XOffset=0mm|YOffset=0mm|HoleType=Round|Shape=RoundedRectangle|*
%AMROUNDEDRECTD77*
21,1,0.6400,0.2350,0,0,270.0*
21,1,0.4050,0.4700,0,0,270.0*
1,1,0.2350,-0.1175,-0.2025*
1,1,0.2350,-0.1175,0.2025*
1,1,0.2350,0.1175,0.2025*
1,1,0.2350,0.1175,-0.2025*
%
%ADD77ROUNDEDRECTD77*%
G04:AMPARAMS|DCode=78|XSize=2.794mm|YSize=0.7366mm|CornerRadius=0.1842mm|HoleSize=0mm|Usage=FLASHONLY|Rotation=0.000|XOffset=0mm|YOffset=0mm|HoleType=Round|Shape=RoundedRectangle|*
%AMROUNDEDRECTD78*
21,1,2.7940,0.3683,0,0,0.0*
21,1,2.4257,0.7366,0,0,0.0*
1,1,0.3683,1.2129,-0.1842*
1,1,0.3683,-1.2129,-0.1842*
1,1,0.3683,-1.2129,0.1842*
1,1,0.3683,1.2129,0.1842*
%
%ADD78ROUNDEDRECTD78*%
G04:AMPARAMS|DCode=79|XSize=2.794mm|YSize=0.6604mm|CornerRadius=0.1651mm|HoleSize=0mm|Usage=FLASHONLY|Rotation=0.000|XOffset=0mm|YOffset=0mm|HoleType=Round|Shape=RoundedRectangle|*
%AMROUNDEDRECTD79*
21,1,2.7940,0.3302,0,0,0.0*
21,1,2.4638,0.6604,0,0,0.0*
1,1,0.3302,1.2319,-0.1651*
1,1,0.3302,-1.2319,-0.1651*
1,1,0.3302,-1.2319,0.1651*
1,1,0.3302,1.2319,0.1651*
%
%ADD79ROUNDEDRECTD79*%
%ADD155C,1.2000*%
%ADD156R,1.4500X1.4500*%
%ADD157R,4.7000X4.7000*%
%ADD158R,2.0500X2.0500*%
%ADD159R,1.6000X2.5000*%
%ADD160R,1.0160X2.5400*%
%ADD161C,0.5080*%
%ADD162C,0.3142*%
%ADD163C,0.3863*%
%ADD164C,0.2457*%
%ADD165C,0.2763*%
%ADD166C,0.4488*%
%ADD167C,1.3080*%
G04:AMPARAMS|DCode=168|XSize=1.308mm|YSize=1.308mm|CornerRadius=0.327mm|HoleSize=0mm|Usage=FLASHONLY|Rotation=90.000|XOffset=0mm|YOffset=0mm|HoleType=Round|Shape=RoundedRectangle|*
%AMROUNDEDRECTD168*
21,1,1.3080,0.6540,0,0,90.0*
21,1,0.6540,1.3080,0,0,90.0*
1,1,0.6540,0.3270,0.3270*
1,1,0.6540,0.3270,-0.3270*
1,1,0.6540,-0.3270,-0.3270*
1,1,0.6540,-0.3270,0.3270*
%
%ADD168ROUNDEDRECTD168*%
%ADD169C,1.6000*%
%ADD170R,1.6000X1.6000*%
%ADD171C,0.5000*%
%ADD172C,0.6000*%
%ADD173O,2.0000X0.9000*%
%ADD174O,1.7000X0.9000*%
%ADD175R,1.4380X1.4380*%
%ADD176C,1.4380*%
%ADD177C,2.2650*%
%ADD178C,0.3000*%
%ADD179R,1.3080X1.3080*%
%ADD180R,1.6500X1.6500*%
%ADD181C,1.6500*%
%ADD182O,3.0000X6.0000*%
%ADD183C,4.5720*%
%ADD184C,0.5334*%
%ADD185C,0.5842*%
G36*
X310642Y910336D02*
X300482D01*
Y980440D01*
X272796D01*
Y910336D01*
X262636D01*
Y980440D01*
X112014D01*
Y990346D01*
X310642D01*
Y910336D01*
D02*
G37*
G36*
X426862Y907192D02*
X419802D01*
Y893160D01*
X423893D01*
Y848939D01*
X401459Y826505D01*
X371767D01*
X371604Y826667D01*
X370243Y827231D01*
X338957D01*
X337597Y826667D01*
X336555Y825626D01*
X335992Y824265D01*
Y812792D01*
X336555Y811431D01*
X336776Y811210D01*
X336192Y809802D01*
X305748D01*
X304387Y809239D01*
X295659Y800511D01*
X295096Y799150D01*
Y793757D01*
X291075D01*
X290215Y794237D01*
X289735Y795098D01*
Y801804D01*
X289207Y803079D01*
X287932Y803607D01*
X286632D01*
X286456Y803534D01*
X285593Y804827D01*
X285841Y805074D01*
X286404Y806435D01*
Y807720D01*
X285841Y809081D01*
X284480Y809644D01*
X283119Y809081D01*
X282556Y807720D01*
X281833Y807179D01*
X281257Y807288D01*
X280196Y807738D01*
X279745Y808827D01*
X278384Y809390D01*
X277023Y808827D01*
X276460Y807466D01*
Y803053D01*
X275921Y802515D01*
X275377Y801201D01*
X275358Y801154D01*
X275358Y801154D01*
Y801154D01*
X275674Y800390D01*
X275921Y799793D01*
X277282Y799229D01*
X278410Y799697D01*
X278934Y799687D01*
X280221Y799217D01*
X280496Y798489D01*
X280377Y798201D01*
X280357Y798154D01*
X280921Y796793D01*
X280968Y796774D01*
X282282Y796229D01*
X283305Y796653D01*
X284398Y796176D01*
X284829Y795824D01*
Y794504D01*
X285357Y793229D01*
X286632Y792701D01*
X287339D01*
X288199Y792221D01*
X288679Y791360D01*
Y790654D01*
X289207Y789379D01*
X289207Y788229D01*
X288679Y786954D01*
Y785654D01*
X289207Y784379D01*
X289207Y783229D01*
X288679Y781954D01*
Y780654D01*
X289207Y779379D01*
X289207Y778229D01*
X288679Y776954D01*
Y775654D01*
X289207Y774379D01*
X289207Y773229D01*
X288679Y771954D01*
Y770890D01*
X281127D01*
X280565Y772247D01*
X279147Y773665D01*
X278269Y774028D01*
Y775678D01*
X279147Y776041D01*
X280565Y777459D01*
X281221Y779044D01*
X276292D01*
Y780314D01*
X275022D01*
Y785243D01*
X273437Y784587D01*
X272019Y783169D01*
X271529Y781985D01*
X269879D01*
X269389Y783169D01*
X267971Y784587D01*
X266386Y785243D01*
Y780314D01*
X263846D01*
Y785243D01*
X262261Y784587D01*
X260843Y783169D01*
X260353Y781985D01*
X258703D01*
X258213Y783169D01*
X256795Y784587D01*
X255210Y785243D01*
Y780314D01*
X252670D01*
Y785243D01*
X251085Y784587D01*
X249667Y783169D01*
X249483Y782725D01*
X247834D01*
X247545Y783423D01*
X246127Y784841D01*
X244542Y785497D01*
Y780568D01*
X243272D01*
Y779298D01*
X238343D01*
X238999Y777713D01*
X240417Y776295D01*
X242059Y775615D01*
X242129Y775136D01*
Y774570D01*
X242059Y774091D01*
X240417Y773411D01*
X238999Y771993D01*
X238542Y770890D01*
X230885D01*
Y771954D01*
X230357Y773229D01*
X230357Y774379D01*
X230885Y775654D01*
Y776954D01*
X230357Y778229D01*
X230357Y779379D01*
X230885Y780654D01*
Y781954D01*
X230357Y783229D01*
X230357Y784379D01*
X230885Y785654D01*
Y786954D01*
X230357Y788229D01*
X230357Y789379D01*
X230885Y790654D01*
Y791360D01*
X231365Y792221D01*
X232225Y792701D01*
X232932D01*
X234207Y793229D01*
X235357Y793229D01*
X236632Y792701D01*
X237932D01*
X239207Y793229D01*
X240357Y793229D01*
X241632Y792701D01*
X242932D01*
X244207Y793229D01*
X245357Y793229D01*
X246632Y792701D01*
X247932D01*
X249207Y793229D01*
X250357Y793229D01*
X251632Y792701D01*
X252932D01*
X254207Y793229D01*
X255357Y793229D01*
X256632Y792701D01*
X257932D01*
X259207Y793229D01*
X260357Y793229D01*
X261632Y792701D01*
X262932D01*
X264207Y793229D01*
X265357Y793229D01*
X266632Y792701D01*
X267932D01*
X269207Y793229D01*
X269735Y794504D01*
Y801804D01*
X269464Y802459D01*
Y807736D01*
X271678D01*
Y814468D01*
X265493D01*
X265170Y814950D01*
Y816147D01*
X265437Y817555D01*
X266579Y817555D01*
X269487D01*
X271164Y818250D01*
X271859Y819927D01*
Y822277D01*
X271164Y823954D01*
X269487Y824648D01*
X269387D01*
Y836326D01*
X271831D01*
Y844758D01*
X269387D01*
Y849750D01*
X271478D01*
Y855782D01*
X263446D01*
Y849750D01*
X265537D01*
Y844758D01*
X264799D01*
Y836326D01*
X265537D01*
Y824648D01*
X265437D01*
X263760Y823954D01*
X263741Y823909D01*
X261786Y823170D01*
X261594Y823265D01*
Y833278D01*
X255961D01*
Y844972D01*
X256118Y845351D01*
Y859045D01*
X255555Y860406D01*
X254372Y861588D01*
X253011Y862152D01*
X249744D01*
X249688Y862207D01*
Y864204D01*
X254542D01*
Y878236D01*
X251446D01*
Y880645D01*
X252022D01*
X253394Y880918D01*
X254557Y881695D01*
X255334Y882858D01*
X255607Y884230D01*
Y891230D01*
X255334Y892602D01*
X254557Y893765D01*
X253394Y894542D01*
X252022Y894815D01*
X247022D01*
X245650Y894542D01*
X244487Y893765D01*
X243710Y892602D01*
X243437Y891230D01*
Y884230D01*
X243710Y882858D01*
X244487Y881695D01*
X245650Y880918D01*
X247022Y880645D01*
X247598D01*
Y878236D01*
X242510D01*
Y866177D01*
X240986Y865158D01*
X240763Y865251D01*
X239297D01*
X237944Y864690D01*
X236908Y863654D01*
X236692Y863135D01*
X235086Y862150D01*
X216397D01*
X215036Y861587D01*
X203290Y849841D01*
X201882Y850424D01*
Y852226D01*
X199753D01*
X199254Y852560D01*
X197866Y852836D01*
X178701D01*
X177955Y853582D01*
X176779Y854368D01*
X175391Y854643D01*
X175391Y854643D01*
X156983D01*
X155596Y854368D01*
X154419Y853582D01*
X153992Y852942D01*
X58642D01*
X57281Y852379D01*
X40645Y835743D01*
X40082Y834382D01*
Y770890D01*
X5588D01*
Y909828D01*
X261620D01*
Y896112D01*
X263038D01*
X263062Y896098D01*
X263589Y896031D01*
X263916Y895890D01*
X264233Y895633D01*
X264556Y895209D01*
X264869Y894587D01*
X265147Y893757D01*
X265372Y892744D01*
X265449Y891993D01*
X263841Y891327D01*
X263146Y889650D01*
Y887300D01*
X263841Y885624D01*
X265518Y884929D01*
X269568D01*
X271245Y885624D01*
X271940Y887300D01*
Y889650D01*
X271245Y891327D01*
X269612Y892004D01*
X269711Y892726D01*
X269939Y893757D01*
X270218Y894587D01*
X270530Y895210D01*
X270854Y895633D01*
X271171Y895890D01*
X271497Y896031D01*
X272024Y896098D01*
X272049Y896112D01*
X273812D01*
Y909828D01*
X299593D01*
X299704Y909558D01*
X300482Y909236D01*
X310642D01*
X311420Y909558D01*
X311531Y909828D01*
X331158D01*
X332056Y908930D01*
X333417Y908366D01*
X382406D01*
X389109Y901663D01*
X389008Y901156D01*
Y896656D01*
X389262Y895382D01*
X389983Y894301D01*
X391064Y893579D01*
X392338Y893326D01*
X396838D01*
X398112Y893579D01*
X399193Y894301D01*
X399915Y895382D01*
X400168Y896656D01*
Y901156D01*
X399915Y902430D01*
X399193Y903511D01*
X398112Y904232D01*
X396838Y904486D01*
X392338D01*
X391831Y904385D01*
X387796Y908420D01*
X388379Y909828D01*
X426862D01*
Y907192D01*
D02*
G37*
G36*
X271205Y897102D02*
X270596Y896840D01*
X270059Y896405D01*
X269594Y895795D01*
X269200Y895011D01*
X268878Y894052D01*
X268627Y892919D01*
X268448Y891612D01*
X268341Y890131D01*
X268305Y888475D01*
X266781D01*
X266745Y890131D01*
X266459Y892919D01*
X266208Y894052D01*
X265886Y895011D01*
X265493Y895795D01*
X265027Y896405D01*
X264490Y896840D01*
X263882Y897102D01*
X263202Y897189D01*
X271885D01*
X271205Y897102D01*
D02*
G37*
G36*
X442906Y868735D02*
X443182Y867348D01*
X443968Y866171D01*
X445145Y865386D01*
X446532Y865110D01*
X563626D01*
Y852170D01*
Y846220D01*
X558179D01*
X558112Y846382D01*
X557076Y847418D01*
X555723Y847979D01*
X554257D01*
X552904Y847418D01*
X551868Y846382D01*
X551307Y845029D01*
Y843563D01*
X551868Y842210D01*
X552904Y841174D01*
X553490Y840931D01*
X553587Y840745D01*
X553755Y839205D01*
X553138Y838587D01*
X552577Y837234D01*
Y835768D01*
X552718Y835428D01*
X551700Y833904D01*
X471461D01*
X471461Y833904D01*
X470073Y833628D01*
X468897Y832842D01*
X468897Y832842D01*
X464740Y828685D01*
X463954Y827509D01*
X463678Y826121D01*
X462602Y825198D01*
X461384D01*
Y824808D01*
X441579D01*
X440191Y824532D01*
X439015Y823746D01*
X439015Y823746D01*
X424368Y809098D01*
X402146D01*
X399958Y808193D01*
X399792Y807790D01*
X392460D01*
X379158Y821092D01*
X379099Y821132D01*
X379561Y822655D01*
X402256D01*
X403616Y823219D01*
X427179Y846781D01*
X427742Y848142D01*
Y893160D01*
X431834D01*
Y907192D01*
X430710D01*
Y909828D01*
X442906D01*
Y868735D01*
D02*
G37*
G36*
X225450Y849343D02*
X226428Y848689D01*
Y843976D01*
X226172Y843592D01*
X225896Y842205D01*
X225896Y842205D01*
Y820254D01*
X225896Y820254D01*
X226172Y818866D01*
X226958Y817690D01*
X229883Y814765D01*
X229252Y813241D01*
X228598D01*
X227244Y812680D01*
X226208Y811644D01*
X225647Y810291D01*
Y808826D01*
X224738Y807092D01*
X224580Y807047D01*
X224146Y807150D01*
X218368Y812928D01*
Y821238D01*
X207336D01*
Y817646D01*
X178406D01*
X177316Y818737D01*
X177899Y820145D01*
X178336D01*
X178591Y820039D01*
X180057D01*
X181410Y820600D01*
X182446Y821636D01*
X183007Y822989D01*
Y824455D01*
X182446Y825808D01*
X181704Y826550D01*
X182079Y827925D01*
X182171Y828074D01*
X193977D01*
X193977Y828074D01*
X195365Y828350D01*
X196541Y829136D01*
X217727Y850322D01*
X224795D01*
X225450Y849343D01*
D02*
G37*
G36*
X110332Y813944D02*
X111400Y811366D01*
X113374Y809392D01*
X115952Y808324D01*
X116619D01*
X117202Y806916D01*
X81176Y770890D01*
X57066D01*
Y806942D01*
X62200Y812076D01*
X62269Y812060D01*
X63608Y811328D01*
Y799338D01*
X64171Y797977D01*
X65532Y797413D01*
X66893Y797977D01*
X67456Y799338D01*
Y807461D01*
X68958Y807517D01*
X69636Y805878D01*
X71275Y805200D01*
X77525D01*
X78360Y805546D01*
X79884Y805126D01*
X80402Y805126D01*
X97916Y805126D01*
X99440Y805546D01*
X100275Y805200D01*
X106525D01*
X108164Y805878D01*
X108842Y807517D01*
Y809767D01*
X108164Y811406D01*
X106525Y812084D01*
X100275D01*
X99440Y811738D01*
X97916Y812676D01*
Y814608D01*
X99440Y815546D01*
X100275Y815200D01*
X106525D01*
X108164Y815878D01*
X108511Y816718D01*
X110332D01*
Y813944D01*
D02*
G37*
G36*
X162563Y836609D02*
Y828843D01*
X163127Y827482D01*
X176248Y814361D01*
X177609Y813798D01*
X207336D01*
Y810343D01*
X200318D01*
X198957Y809779D01*
X194632Y805453D01*
X191536D01*
X190518Y806977D01*
X190627Y807241D01*
Y808707D01*
X190066Y810060D01*
X189030Y811096D01*
X187677Y811657D01*
X186211D01*
X184858Y811096D01*
X183822Y810060D01*
X183755Y809899D01*
X123820D01*
X123237Y811307D01*
X123296Y811366D01*
X124145Y813416D01*
X129906D01*
X131267Y813979D01*
X145806Y828518D01*
X152266D01*
X153809Y829157D01*
X154448Y830700D01*
Y832700D01*
X153892Y834042D01*
X153809Y834243D01*
Y835657D01*
X153892Y835858D01*
X154448Y837200D01*
Y839200D01*
X153892Y840542D01*
X153809Y840743D01*
Y842157D01*
X153892Y842358D01*
X154117Y842901D01*
X155856Y843317D01*
X162563Y836609D01*
D02*
G37*
G36*
X317087Y801551D02*
Y800519D01*
X317650Y799158D01*
X319085Y797723D01*
X320446Y797160D01*
X321716D01*
Y795147D01*
X330606D01*
Y798176D01*
X335087D01*
X335936Y796126D01*
X337910Y794152D01*
X340488Y793084D01*
X340990D01*
X341293Y791560D01*
X340704Y791316D01*
X338730Y789342D01*
X337947Y787450D01*
X329466D01*
X328745Y788975D01*
X328792Y789032D01*
X335026D01*
X336387Y789595D01*
X336950Y790956D01*
X336387Y792317D01*
X335026Y792880D01*
X326669D01*
X325308Y792317D01*
X324800Y791809D01*
X324236Y790448D01*
X324781Y789134D01*
X324800Y789087D01*
X325072Y788974D01*
X324769Y787450D01*
X323016D01*
X322597Y787869D01*
Y788902D01*
X322033Y790263D01*
X320487Y791809D01*
X319126Y792373D01*
X317856D01*
Y794385D01*
X308966D01*
Y792373D01*
X306276D01*
X304915Y791809D01*
X304058Y790951D01*
X302533Y791582D01*
Y795114D01*
X304058Y795794D01*
X305054Y795381D01*
X305929D01*
X307290Y795945D01*
X308504Y797160D01*
X313411D01*
X314772Y797723D01*
X315336Y799084D01*
X314772Y800445D01*
X315341Y801859D01*
X316779D01*
X317087Y801551D01*
D02*
G37*
G36*
X472857Y817639D02*
X474400Y817000D01*
X475861D01*
X479771Y813089D01*
X481132Y812525D01*
X515649D01*
X516034Y811076D01*
X515120Y809916D01*
X507414D01*
Y808006D01*
X505871Y806462D01*
X500881D01*
X499520Y805898D01*
X492065Y798443D01*
X491502Y797082D01*
Y795481D01*
X490093Y794898D01*
X486928Y798063D01*
X485568Y798626D01*
X479632D01*
X479093Y798849D01*
X443861D01*
X441091Y801620D01*
Y806708D01*
X446656Y812273D01*
X464930D01*
X466290Y812836D01*
X471386Y817932D01*
X472857Y817639D01*
D02*
G37*
G36*
X212579Y791884D02*
Y790641D01*
X213142Y789280D01*
X213511Y788911D01*
X213153Y787114D01*
X212889Y787004D01*
X211853Y785968D01*
X211293Y784614D01*
Y783149D01*
X211853Y781796D01*
X212889Y780760D01*
X214243Y780199D01*
X215708D01*
X215784Y780230D01*
X218095Y777920D01*
X218002Y777297D01*
X217582Y776277D01*
X216514Y775835D01*
X215478Y774799D01*
X214917Y773445D01*
Y771980D01*
X214189Y770890D01*
X211050D01*
X210203Y772157D01*
X210205Y772160D01*
X209641Y773521D01*
X208553Y774608D01*
Y781685D01*
X207990Y783046D01*
X206629Y783609D01*
X205268Y783046D01*
X204704Y781685D01*
Y773811D01*
X205268Y772450D01*
X205420Y772298D01*
X204837Y770890D01*
X203404D01*
X202386Y772414D01*
X202426Y772512D01*
Y786191D01*
X208761Y792526D01*
X208909Y792464D01*
X210374D01*
X211054Y792746D01*
X212579Y791884D01*
D02*
G37*
G36*
X308966Y786511D02*
X317856D01*
X317856Y786511D01*
Y786511D01*
X319195Y785992D01*
X319312Y785711D01*
X320858Y784165D01*
X322219Y783602D01*
X337816D01*
X338730Y781394D01*
X339316Y780807D01*
X338453Y779515D01*
X338074Y779672D01*
X337767Y779546D01*
X329351D01*
X329044Y779672D01*
X327683Y779109D01*
X327120Y777748D01*
X327683Y776387D01*
X327810Y776260D01*
X329171Y775696D01*
X337358D01*
X337786Y774350D01*
X337786Y774173D01*
Y770890D01*
X320123D01*
X317560Y773454D01*
Y784764D01*
X305528D01*
Y778228D01*
X299898D01*
X299212Y779752D01*
X299585Y780654D01*
Y781036D01*
X307073Y788523D01*
X308966D01*
Y786511D01*
D02*
G37*
G36*
X350423Y798703D02*
Y797552D01*
X350987Y796191D01*
X358229Y788949D01*
X359590Y788385D01*
X363272D01*
X364633Y788949D01*
X368525Y792841D01*
X380045D01*
X380894Y790792D01*
X382234Y789452D01*
X381603Y787927D01*
X367921D01*
X366560Y787364D01*
X353163Y773967D01*
X352599Y772606D01*
Y770890D01*
X349818D01*
Y774350D01*
X338679D01*
X338375Y775874D01*
X339308Y776260D01*
X339435Y776387D01*
X339999Y777748D01*
X339778Y778279D01*
X340083Y778654D01*
X341007Y779294D01*
X343282Y778352D01*
X346074D01*
X348652Y779420D01*
X350626Y781394D01*
X351694Y783972D01*
Y786764D01*
X350626Y789342D01*
X348652Y791316D01*
X346074Y792384D01*
X345572D01*
X345269Y793908D01*
X345858Y794152D01*
X347832Y796126D01*
X348900Y798704D01*
X350423Y798703D01*
D02*
G37*
G36*
X538205Y813427D02*
Y810026D01*
X537455D01*
X536429Y809601D01*
X536003Y808575D01*
Y806625D01*
X536429Y805599D01*
Y804601D01*
X536298Y804287D01*
X536003Y803575D01*
Y801625D01*
X536429Y800598D01*
Y799601D01*
X536298Y799287D01*
X536003Y798575D01*
Y796625D01*
X536429Y795599D01*
Y794601D01*
X536298Y794287D01*
X536003Y793575D01*
Y791625D01*
X536429Y790598D01*
X537455Y790173D01*
X542805D01*
X543831Y790598D01*
X543863Y790675D01*
X555258D01*
X555547Y790332D01*
X556029Y789291D01*
X543312Y776574D01*
X542748Y775213D01*
Y772976D01*
X540662Y770890D01*
X537790D01*
X537487Y772414D01*
X538534Y772848D01*
X539570Y773884D01*
X540131Y775237D01*
Y776703D01*
X539570Y778056D01*
X538997Y778630D01*
X539628Y780154D01*
X539982D01*
X541335Y780715D01*
X542371Y781751D01*
X542932Y783104D01*
Y784569D01*
X542371Y785923D01*
X541335Y786959D01*
X539982Y787520D01*
X538517D01*
X537163Y786959D01*
X535707Y787658D01*
Y788425D01*
X535281Y789451D01*
X534255Y789876D01*
X532305D01*
X531279Y789451D01*
X530281D01*
X529967Y789582D01*
X529255Y789876D01*
X527305D01*
X526278Y789451D01*
X525853Y788425D01*
Y787889D01*
X524329Y787240D01*
X523280Y787674D01*
X522230Y787240D01*
X520713Y787886D01*
X520706Y787890D01*
Y788425D01*
X520281Y789451D01*
X519255Y789876D01*
X519234D01*
X518133Y790302D01*
Y791834D01*
X534046D01*
Y808366D01*
X534046D01*
X533999Y809890D01*
X534192Y810217D01*
X534405Y810386D01*
X535281Y810749D01*
X535707Y811775D01*
Y813935D01*
X537115Y814518D01*
X538205Y813427D01*
D02*
G37*
G36*
X380051Y782554D02*
X379127Y782172D01*
X377153Y780198D01*
X376085Y777620D01*
Y774828D01*
X376934Y772779D01*
X375046Y770890D01*
X368538D01*
X367955Y772298D01*
X369661Y774004D01*
X370224Y775364D01*
Y775651D01*
X369661Y777012D01*
X368347Y777556D01*
X368300Y777576D01*
X366939Y777012D01*
X366920Y776965D01*
X366737Y776523D01*
X361104Y770890D01*
X357685D01*
X357054Y772414D01*
X368718Y784079D01*
X379748D01*
X380051Y782554D01*
D02*
G37*
G36*
X278892Y479911D02*
X277484Y479327D01*
X272295Y484516D01*
X271119Y485302D01*
X269732Y485578D01*
X269732Y485578D01*
X267732D01*
X267732Y485578D01*
X266344Y485302D01*
X265168Y484516D01*
X262708Y482056D01*
X261922Y480880D01*
X261849Y480513D01*
X249528Y468192D01*
X229030D01*
X229030Y468192D01*
X227642Y467916D01*
X226466Y467130D01*
X226466Y467130D01*
X223150Y463814D01*
X221742Y464397D01*
Y507746D01*
X278892D01*
Y479911D01*
D02*
G37*
G36*
X274662Y453856D02*
X268788Y447982D01*
X268002Y446805D01*
X267726Y445418D01*
X267726Y445418D01*
Y429016D01*
X267462Y428752D01*
Y421640D01*
X267716Y421386D01*
X269161Y420912D01*
X269450Y420214D01*
X270476Y419790D01*
X272228D01*
X273211Y418688D01*
X273394Y417921D01*
X272927Y417454D01*
X272505Y416436D01*
X276352D01*
Y413896D01*
X272505D01*
X272874Y413004D01*
X272645Y412357D01*
X272169Y411480D01*
X269240D01*
X264922Y415798D01*
Y426720D01*
X265176Y426974D01*
X262636Y429514D01*
Y430276D01*
X262128D01*
X261366Y431038D01*
X261112Y456946D01*
Y469520D01*
X262253Y470662D01*
X274662D01*
Y453856D01*
D02*
G37*
G36*
X251552Y420716D02*
X257140Y414112D01*
X261262Y414291D01*
X262531Y413068D01*
X262527Y412563D01*
X261227Y411379D01*
X257140Y411734D01*
X209550Y413512D01*
X208372Y420716D01*
X213198Y425542D01*
X248250D01*
X251552Y420716D01*
D02*
G37*
G36*
X246421Y405574D02*
X247457Y404537D01*
X248811Y403977D01*
X250276D01*
X250414Y404034D01*
X256620D01*
X256794Y403860D01*
X262890D01*
Y401320D01*
X262636Y401066D01*
X251968D01*
X244602Y394462D01*
X192786D01*
Y406488D01*
X199377D01*
X199515Y406431D01*
X200981D01*
X201519Y406654D01*
X245973D01*
X246421Y405574D01*
D02*
G37*
G36*
X269872Y403569D02*
X270890Y403991D01*
X271497Y404598D01*
X272136Y404835D01*
X273671Y404148D01*
X273897Y403541D01*
X273533Y402561D01*
X272927Y401954D01*
X272505Y400936D01*
X276352D01*
Y398396D01*
X272505D01*
X272872Y397510D01*
X272634Y396843D01*
X272163Y395986D01*
X268224D01*
X268168Y392057D01*
X268026Y391843D01*
X267750Y390456D01*
Y380798D01*
X267716Y380717D01*
Y379251D01*
X267978Y378620D01*
X267907Y373659D01*
X267716Y360172D01*
X272288Y355600D01*
X271780Y355092D01*
Y329184D01*
X256032D01*
X255778Y328930D01*
X254000Y330708D01*
Y363220D01*
X180086D01*
X179578Y363728D01*
Y370332D01*
X189484Y370332D01*
X247142D01*
Y378699D01*
X261955Y393512D01*
X262741Y394688D01*
X262847Y395222D01*
X263466Y395478D01*
X264922D01*
Y403227D01*
X265779Y403697D01*
X266446Y403936D01*
X267332Y403569D01*
Y407416D01*
X269872D01*
Y403569D01*
D02*
G37*
G36*
X189484Y392938D02*
Y385953D01*
X189357Y385763D01*
X188968Y383806D01*
Y375806D01*
X189357Y373849D01*
X189484Y373659D01*
Y370332D01*
X179578D01*
Y376428D01*
Y393192D01*
X189230D01*
X189484Y392938D01*
D02*
G37*
G36*
X251460Y358140D02*
Y326644D01*
X257048Y321056D01*
X347218D01*
X348488Y319786D01*
X347726Y319024D01*
Y272034D01*
X308356D01*
X273812Y306578D01*
X238506D01*
X212090Y332994D01*
X179609D01*
X179336Y359510D01*
X180746Y360934D01*
X248666D01*
X251460Y358140D01*
D02*
G37*
%LPC*%
G36*
X39920Y895350D02*
X37846D01*
Y871220D01*
X61976D01*
Y873294D01*
X60245Y879754D01*
X56901Y885546D01*
X52172Y890275D01*
X46380Y893619D01*
X39920Y895350D01*
D02*
G37*
G36*
X35306D02*
X33232D01*
X26772Y893619D01*
X20980Y890275D01*
X16251Y885546D01*
X12907Y879754D01*
X11176Y873294D01*
Y871220D01*
X35306D01*
Y895350D01*
D02*
G37*
G36*
X190118Y889126D02*
X172086D01*
Y871094D01*
X190118D01*
Y889126D01*
D02*
G37*
G36*
X157495D02*
X153909D01*
X150595Y887753D01*
X148059Y885217D01*
X146686Y881903D01*
Y878317D01*
X148059Y875003D01*
X150595Y872467D01*
X153909Y871094D01*
X157495D01*
X160809Y872467D01*
X163345Y875003D01*
X164718Y878317D01*
Y881903D01*
X163345Y885217D01*
X160809Y887753D01*
X157495Y889126D01*
D02*
G37*
G36*
X231026Y873145D02*
X229665Y872581D01*
X228646Y871561D01*
X224477D01*
X223116Y870997D01*
X219619Y867501D01*
X219056Y866140D01*
X219619Y864779D01*
X220980Y864215D01*
X222341Y864779D01*
X225274Y867712D01*
X229443D01*
X230804Y868276D01*
X232387Y869859D01*
X232951Y871220D01*
X232387Y872581D01*
X231026Y873145D01*
D02*
G37*
G36*
X235538Y894746D02*
X223506D01*
Y883436D01*
X222022Y881952D01*
X221458Y880591D01*
Y878156D01*
X221204Y877543D01*
Y877324D01*
X206015Y862135D01*
X201665D01*
X201409Y862753D01*
X199866Y863392D01*
X195866D01*
X194323Y862753D01*
X193684Y861210D01*
Y859210D01*
X194323Y857667D01*
X195866Y857028D01*
X199866D01*
X201409Y857667D01*
X201665Y858286D01*
X206812D01*
X208173Y858849D01*
X224489Y875166D01*
X225053Y876527D01*
Y877184D01*
X225307Y877797D01*
Y879794D01*
X226228Y880714D01*
X235538D01*
Y894746D01*
D02*
G37*
G36*
X271759Y881842D02*
X263327D01*
Y875110D01*
X265537D01*
Y866948D01*
X265462D01*
X263919Y866309D01*
X263280Y864766D01*
Y862766D01*
X263919Y861223D01*
X265462Y860584D01*
X269462D01*
X271005Y861223D01*
X271644Y862766D01*
Y864766D01*
X271005Y866309D01*
X269462Y866948D01*
X269387D01*
Y875110D01*
X271759D01*
Y881842D01*
D02*
G37*
G36*
X61976Y868680D02*
X37846D01*
Y844550D01*
X39920D01*
X46380Y846281D01*
X52172Y849625D01*
X56901Y854354D01*
X60245Y860146D01*
X61976Y866606D01*
Y868680D01*
D02*
G37*
G36*
X35306D02*
X11176D01*
Y866606D01*
X12907Y860146D01*
X16251Y854354D01*
X20980Y849625D01*
X26772Y846281D01*
X33232Y844550D01*
X35306D01*
Y868680D01*
D02*
G37*
G36*
X346202Y852824D02*
X344841Y852261D01*
X344277Y850900D01*
Y837254D01*
X343769Y836028D01*
X344314Y834714D01*
X344333Y834667D01*
X345694Y834103D01*
X345741Y834123D01*
X346032Y834243D01*
X391592D01*
X394838Y830997D01*
X396199Y830434D01*
X399034D01*
X400395Y830997D01*
X400959Y832358D01*
X400395Y833719D01*
X399034Y834283D01*
X396996D01*
X393750Y837529D01*
X392389Y838092D01*
X348126D01*
Y850900D01*
X347563Y852261D01*
X346202Y852824D01*
D02*
G37*
G36*
X242002Y785497D02*
X240417Y784841D01*
X238999Y783423D01*
X238343Y781838D01*
X242002D01*
Y785497D01*
D02*
G37*
G36*
X277562Y785243D02*
Y781584D01*
X281221D01*
X280565Y783169D01*
X279147Y784587D01*
X277562Y785243D01*
D02*
G37*
G36*
X212852Y833646D02*
X211491Y833083D01*
X206597Y828189D01*
X202948D01*
X201588Y827625D01*
X201331Y827369D01*
X200767Y826008D01*
X201312Y824694D01*
X201331Y824647D01*
X202692Y824083D01*
X202739Y824103D01*
X203311Y824340D01*
X207395D01*
X208755Y824904D01*
X214213Y830361D01*
X214776Y831722D01*
X214213Y833083D01*
X212852Y833646D01*
D02*
G37*
G36*
X475615Y813327D02*
X469773D01*
X468412Y812764D01*
X467849Y811403D01*
X468412Y810042D01*
X469773Y809479D01*
X474818D01*
X476546Y807750D01*
X475963Y806342D01*
X455168D01*
X453807Y805779D01*
X453553Y805525D01*
X452990Y804164D01*
X453534Y802850D01*
X453553Y802803D01*
X454914Y802240D01*
X454961Y802259D01*
X455527Y802494D01*
X481584D01*
X482945Y803057D01*
X483453Y803565D01*
X484016Y804926D01*
X483453Y806287D01*
X476976Y812764D01*
X475615Y813327D01*
D02*
G37*
%LPD*%
D13*
X366876Y-42253D02*
G03*
X366875Y-42257I1482J-355D01*
G01*
X367711Y-38763D02*
G03*
X367711Y-38767I1481J-359D01*
G01*
X614784Y827316D02*
X618562Y831094D01*
X654936D01*
X614784Y822316D02*
Y824816D01*
Y827316D01*
X654936Y831094D02*
X661686Y824344D01*
X662686D01*
X606552Y792226D02*
X606806Y791972D01*
X606552Y792226D02*
Y814084D01*
X614784Y822316D01*
X365233Y-23939D02*
X365236Y-23945D01*
X366616Y-27277D01*
X367711Y-31741D01*
Y-38763D02*
Y-31741D01*
X366876Y-42253D02*
X367710Y-38767D01*
X365235Y-46562D02*
X366875Y-42257D01*
X364623Y-47540D02*
X365235Y-46562D01*
X364618Y-47546D02*
X364623Y-47540D01*
X364618Y-48011D02*
X364618Y-47546D01*
X361428Y-18586D02*
Y61644D01*
X365006Y-23547D02*
X365233Y-23939D01*
X361428Y-18586D02*
X362853Y-20011D01*
X365006Y-23547D01*
X363968Y-15988D02*
X366711Y-18731D01*
X364618Y-87758D02*
Y-48011D01*
X366711Y-18731D02*
X393573Y-55126D01*
Y-185229D02*
Y-55126D01*
X363968Y-15988D02*
Y42594D01*
X267462Y878394D02*
X267543Y878475D01*
X267462Y863766D02*
Y878394D01*
X267543Y888475D02*
X267543D01*
Y909655D02*
X267716Y909828D01*
X267543Y909401D02*
Y909655D01*
Y888475D02*
Y909401D01*
X405638Y733298D02*
Y750525D01*
X405384Y733044D02*
X405638Y733298D01*
X408477Y753364D02*
X414274D01*
X405638Y750525D02*
X408477Y753364D01*
X387858Y755904D02*
X398018Y766064D01*
X387858Y754380D02*
Y755904D01*
X398018Y766064D02*
X414274D01*
X389382Y730559D02*
Y752856D01*
X387858Y754380D02*
X389382Y752856D01*
X368484Y709661D02*
X389382Y730559D01*
X323774Y709661D02*
X368484D01*
X297670Y735766D02*
X323774Y709661D01*
X297670Y735766D02*
Y735766D01*
X297132Y736304D02*
X297670Y735766D01*
X386234Y764264D02*
X393114Y771144D01*
X385472Y764264D02*
X386234D01*
X380080Y758872D02*
X385472Y764264D01*
X380080Y744152D02*
Y758872D01*
Y744152D02*
X380267Y743965D01*
Y725036D02*
Y743965D01*
X385182Y766804D02*
X392062Y773684D01*
X384420Y766804D02*
X385182D01*
X377540Y759924D02*
X384420Y766804D01*
X377540Y743099D02*
Y759924D01*
Y743099D02*
X377727Y742913D01*
Y726088D02*
Y742913D01*
X166164Y551806D02*
Y557410D01*
Y551806D02*
X167132Y550838D01*
X142852Y571618D02*
Y574118D01*
Y571618D02*
X147646Y566824D01*
X156750D01*
X166164Y557410D01*
X167132Y539838D02*
X167894D01*
X203482Y595334D02*
Y596365D01*
X201716Y593568D02*
X203482Y595334D01*
X201716Y553157D02*
Y593568D01*
X191809Y543250D02*
X201716Y553157D01*
X181742Y543250D02*
X191809D01*
X178330Y539838D02*
X181742Y543250D01*
X168402Y539838D02*
X178330D01*
X167894D02*
X168402D01*
X164666Y545790D02*
X182586D01*
X161767Y548689D02*
X164666Y545790D01*
X161767Y548689D02*
Y550489D01*
X160138Y552118D02*
X161767Y550489D01*
X155852Y552118D02*
X160138D01*
X342298Y765830D02*
X343802Y767334D01*
X342298Y751586D02*
Y765830D01*
X307852Y747702D02*
X311745Y743808D01*
X354524Y751762D02*
Y772606D01*
X346570Y743808D02*
X354524Y751762D01*
X311745Y743808D02*
X346570D01*
X303473Y741304D02*
X332575Y712201D01*
X302065Y746304D02*
X333628Y714741D01*
X305312Y746649D02*
X334680Y717281D01*
X373206Y725159D02*
Y766329D01*
X365328Y717281D02*
X373206Y725159D01*
X334680Y717281D02*
X365328D01*
X366380Y714741D02*
X377727Y726088D01*
X333628Y714741D02*
X366380D01*
X367432Y712201D02*
X380267Y725036D01*
X332575Y712201D02*
X367432D01*
X311568Y769462D02*
X314993Y766037D01*
X304903Y766304D02*
X313793Y757414D01*
X294132Y766304D02*
X304903D01*
X311044Y777248D02*
X311544Y777748D01*
X314993Y762588D02*
Y766037D01*
X321027Y757414D02*
X323835Y760222D01*
X324866D01*
X320958Y767334D02*
X343802D01*
X313793Y757414D02*
X321027D01*
X314993Y762588D02*
X315722Y761859D01*
X311544Y776748D02*
X320958Y767334D01*
X310100Y776304D02*
X311044Y777248D01*
X267462Y841395D02*
Y852766D01*
Y841395D02*
X268315Y840542D01*
X267462Y821102D02*
Y839689D01*
X268315Y840542D01*
X267539Y811102D02*
X268312D01*
X267462D02*
X267539D01*
Y798411D02*
Y811102D01*
X254194Y845351D02*
Y859045D01*
X254037Y845194D02*
X254194Y845351D01*
X254037Y827803D02*
Y845194D01*
Y827803D02*
X255578Y826262D01*
X247764Y870458D02*
X248526Y871220D01*
X262282Y798154D02*
Y813986D01*
X263246Y814950D01*
Y817594D01*
X255578Y825262D02*
X263246Y817594D01*
X255578Y825262D02*
Y826262D01*
X262282Y798154D02*
X262282Y798154D01*
X262282Y798154D02*
Y798154D01*
X255452Y813208D02*
X255606Y813054D01*
X257174D01*
X257302Y805942D02*
Y812926D01*
X257174Y813054D02*
X257302Y812926D01*
X248800Y808346D02*
Y833511D01*
X246260Y807294D02*
Y837914D01*
X248800Y808346D02*
X250216Y806930D01*
X251389D01*
X252282Y806038D01*
X246260Y807294D02*
X247282Y806272D01*
X229330Y809558D02*
X230361D01*
X233114Y806805D01*
X236631D01*
X242282Y801154D01*
X252282Y798154D02*
Y806038D01*
X247282Y798154D02*
Y806272D01*
X246260Y837914D02*
X246292Y837946D01*
X235292D02*
X236054Y838708D01*
Y838939D01*
Y848030D01*
X238054Y850030D01*
Y857258D01*
X235086Y860226D02*
X238054Y857258D01*
X216397Y860226D02*
X235086D01*
X200870Y844700D02*
X216397Y860226D01*
X170766Y844700D02*
X200870D01*
X247764Y861410D02*
Y870458D01*
Y861410D02*
X248946Y860227D01*
X253011D01*
X254194Y859045D01*
X240792Y834548D02*
X241554Y835310D01*
X240792Y828976D02*
Y834548D01*
X238078Y826262D02*
X240792Y828976D01*
X241554Y835310D02*
Y845566D01*
X248800Y833511D02*
X250954Y835666D01*
X240030Y861568D02*
X240759Y860839D01*
Y859243D02*
Y860839D01*
Y859243D02*
X248030Y851972D01*
Y844892D02*
Y851972D01*
Y844892D02*
X250954Y841967D01*
Y835666D02*
Y841967D01*
X247764Y870458D02*
X249522Y872216D01*
X224477Y869637D02*
X229443D01*
X231026Y871220D01*
X220980Y866140D02*
X224477Y869637D01*
X249522Y872216D02*
Y887730D01*
X413132Y593852D02*
Y607180D01*
X356305Y836168D02*
X366776D01*
X345834D02*
X356305D01*
X366776D02*
X392389D01*
X396199Y832358D01*
X399034D01*
X345834Y836168D02*
X346202Y836536D01*
X345694Y836028D02*
X345834Y836168D01*
X225432Y791304D02*
Y795594D01*
X220949Y800077D02*
X225432Y795594D01*
X200502Y786988D02*
X209642Y796128D01*
Y796147D01*
X208062Y808418D02*
X216504Y799976D01*
X214503Y790641D02*
Y796645D01*
X213964Y797183D02*
X214503Y796645D01*
X216504Y798235D02*
Y799976D01*
Y798235D02*
X217043Y797697D01*
X211899Y800989D02*
X213964Y798924D01*
Y797183D02*
Y798924D01*
X217043Y791693D02*
Y797697D01*
X218602Y764551D02*
X220679D01*
X217873Y763823D02*
X218602Y764551D01*
X222432Y766304D02*
X225432D01*
X220679Y764551D02*
X222432Y766304D01*
X220502Y771842D02*
X224894D01*
X219631Y772713D02*
X220502Y771842D01*
X218600Y772713D02*
X219631D01*
X221894Y776842D02*
X224894D01*
X224894Y771842D02*
X225432Y771304D01*
X214976Y783760D02*
X221894Y776842D01*
X214976Y783760D02*
Y783882D01*
X224894Y776842D02*
X225432Y776304D01*
X206629Y773811D02*
Y781685D01*
Y773811D02*
X208280Y772160D01*
X206756Y799528D02*
X208217Y800989D01*
X199826Y799528D02*
X206756D01*
X208217Y800989D02*
X211899D01*
X66442Y753434D02*
X120982Y807974D01*
X186944D01*
X223383Y877797D02*
Y880591D01*
X229522Y886730D01*
Y887730D01*
X223129Y877543D02*
X223383Y877797D01*
X223129Y876527D02*
Y877543D01*
X206812Y860210D02*
X223129Y876527D01*
X197866Y860210D02*
X206812D01*
X88392Y287894D02*
X103610D01*
X78456D02*
X88392D01*
X69572Y280092D02*
X76270D01*
X80010Y276352D01*
X68834Y280830D02*
X69572Y280092D01*
X88392Y280670D02*
Y287894D01*
X76927Y285830D02*
X89943Y272815D01*
X286352Y381160D02*
X286512Y381000D01*
X286352Y381160D02*
Y390916D01*
X390398Y592328D02*
X403274Y579452D01*
Y169564D02*
Y579452D01*
Y169564D02*
X440600Y132238D01*
Y116682D02*
Y132238D01*
X429600Y105682D02*
X440600Y116682D01*
X405466Y105682D02*
X429600D01*
X361428Y61644D02*
X405466Y105682D01*
X364618Y-87758D02*
X367030Y-90170D01*
X442722Y133708D02*
X443140Y133290D01*
X430548Y103142D02*
X430652D01*
X443140Y115630D02*
Y133290D01*
X430652Y103142D02*
X443140Y115630D01*
X442722Y133708D02*
Y140272D01*
X416052Y88646D02*
X430548Y103142D01*
X398272Y250112D02*
Y573278D01*
X405814Y177180D02*
Y580504D01*
Y177180D02*
X442722Y140272D01*
X403479Y582839D02*
Y609227D01*
Y582839D02*
X405814Y580504D01*
X403479Y609227D02*
X411432Y617180D01*
X329438Y-263753D02*
Y-229769D01*
Y-263753D02*
X428778Y-363093D01*
X329438Y-229769D02*
X341148Y-218059D01*
X449046Y-363093D02*
X462127Y-350012D01*
X428778Y-363093D02*
X449046D01*
X360743Y-218059D02*
X393573Y-185229D01*
X363968Y42594D02*
X410020Y88646D01*
X402536Y126154D02*
X420128D01*
X421822Y124460D01*
X335814Y192876D02*
X402536Y126154D01*
X346049Y-90170D02*
X367030D01*
X128778Y576834D02*
X137139D01*
X140701Y580396D01*
X572862Y676148D02*
X573363Y675880D01*
X573887Y675880D01*
X626412D01*
X568438Y680572D02*
Y736065D01*
Y680572D02*
X572862Y676148D01*
X558292Y452628D02*
X575818Y435102D01*
Y378968D02*
Y435102D01*
X570992Y374142D02*
X575818Y378968D01*
X558292Y452628D02*
Y481076D01*
X497452Y541916D02*
X558292Y481076D01*
X479512Y541916D02*
X497452D01*
X427142Y591470D02*
X429958D01*
X479512Y541916D01*
X419982Y598630D02*
X427142Y591470D01*
X419982Y598630D02*
Y600330D01*
X636270Y266954D02*
Y364490D01*
X454025Y423698D02*
Y531893D01*
X416378Y569540D02*
X454025Y531893D01*
X416378Y569540D02*
Y590606D01*
X454025Y423698D02*
X661696Y216027D01*
X722350D01*
X636270Y266954D02*
X640588Y262636D01*
X408354Y573972D02*
X449326Y533000D01*
Y424804D02*
Y533000D01*
Y424804D02*
X540766Y333364D01*
X518414Y160274D02*
X540766Y182626D01*
Y333364D01*
X518414Y127508D02*
Y160274D01*
Y127508D02*
X555629Y90293D01*
X561725D02*
X566420Y85598D01*
X555629Y90293D02*
X561725D01*
X410020Y88646D02*
X416052D01*
X756412Y229108D02*
X849386D01*
X735431D02*
X756412D01*
X722350Y216027D02*
X735431Y229108D01*
X408354Y573972D02*
Y581556D01*
X406019Y583891D02*
X408354Y581556D01*
X326178Y200454D02*
X348614D01*
X398272Y250112D01*
X341148Y-218059D02*
X360743D01*
X352298Y-241808D02*
X455041Y-139065D01*
X340614Y-241808D02*
X352298D01*
X455041Y-139065D02*
Y-27686D01*
X30734Y154925D02*
Y155956D01*
Y154925D02*
X31822Y153837D01*
X297132Y786304D02*
Y786304D01*
X276790Y426154D02*
X278812Y428176D01*
X236744Y798692D02*
X237282Y798154D01*
X236744Y728916D02*
X237282Y729454D01*
X455168Y696199D02*
Y697230D01*
X282282Y726454D02*
X282820Y725916D01*
X297132Y786304D02*
X297670Y786842D01*
X282282Y726454D02*
X282282D01*
X272820Y725916D02*
X281660Y717076D01*
X272820Y725916D02*
Y725916D01*
X284775Y723031D02*
X295560Y712245D01*
X1391158Y66548D02*
Y67579D01*
X1389411Y69325D02*
X1391158Y67579D01*
X1389411Y69325D02*
Y121073D01*
X252820Y725916D02*
X257837Y720899D01*
X252820Y725916D02*
Y725916D01*
X68096Y295092D02*
X68834Y295830D01*
X63382Y295092D02*
X68096D01*
X222432Y736304D02*
X225432D01*
X216566Y754660D02*
X219230Y751996D01*
X1578116Y391159D02*
X1579372Y392415D01*
X73034Y290830D02*
X74756Y289108D01*
X221894Y735766D02*
Y735766D01*
X243145Y758851D02*
Y769011D01*
X71534Y256330D02*
Y256330D01*
X243145Y769011D02*
X243272Y769138D01*
X254067Y759105D02*
Y769011D01*
Y759105D02*
X254194Y758978D01*
X253940Y769138D02*
X254067Y769011D01*
X265116Y758724D02*
Y769138D01*
X276165Y758851D02*
Y769265D01*
X276038Y758724D02*
X276165Y758851D01*
Y769265D02*
X276292Y769392D01*
X265116Y758724D02*
X276038D01*
X254067Y747675D02*
X265243D01*
X265116Y758724D02*
X265243Y758597D01*
Y747675D02*
X265370Y747548D01*
X265243Y747675D02*
Y758597D01*
X253940Y747802D02*
X254067Y747675D01*
Y747929D02*
Y758851D01*
X254194Y758978D01*
X253940Y747802D02*
X254067Y747929D01*
X243145Y758851D02*
X254067D01*
X31822Y124460D02*
Y153837D01*
X242764Y747802D02*
X242891Y747929D01*
Y758597D01*
X245360Y735532D02*
X253938D01*
X257138Y731214D02*
Y732332D01*
X242282Y732454D02*
X245360Y735532D01*
X71534Y256330D02*
X73772Y254092D01*
X73772D02*
X75946Y251919D01*
X277282Y801154D02*
Y801154D01*
X994624Y645200D02*
Y702286D01*
X996426Y704088D01*
X994624Y645200D02*
X1009904Y629920D01*
X996676Y704088D02*
X1012444Y719856D01*
X1008409Y605532D02*
X1011174Y608298D01*
X996426Y704088D02*
X996676D01*
X1008409Y525551D02*
Y605532D01*
X870704Y657887D02*
Y727686D01*
X872506Y729488D01*
X870704Y657887D02*
X904506Y624085D01*
Y622180D02*
Y624085D01*
X1061205Y670332D02*
Y743943D01*
X1063006Y745744D01*
X1061205Y670332D02*
X1097038Y634499D01*
Y632594D02*
Y634499D01*
X1187176Y720344D02*
X1214120Y747288D01*
X1186926Y720344D02*
X1187176D01*
X1214120Y747288D02*
Y785750D01*
X1185125Y644613D02*
Y718543D01*
X1186926Y720344D01*
X1181354Y640842D02*
X1185125Y644613D01*
X627160Y438463D02*
X636270Y429353D01*
X627160Y438463D02*
Y441652D01*
X615422Y453390D02*
X627160Y441652D01*
X615172Y453390D02*
X615422D01*
X636270Y379476D02*
Y429353D01*
X489701Y413142D02*
Y477239D01*
X491252Y478790D01*
X489701Y413142D02*
X526796Y376047D01*
Y374142D02*
Y376047D01*
X625609Y463827D02*
Y574047D01*
X615172Y453390D02*
X625609Y463827D01*
Y574047D02*
X639826Y588264D01*
X285432Y-50863D02*
Y14398D01*
X287036Y16002D01*
X285432Y-50863D02*
X322834Y-88265D01*
Y-90170D02*
Y-88265D01*
X422944Y-24685D02*
X425437Y-27178D01*
X422944Y-24685D02*
Y-21136D01*
X411206Y-9398D02*
X422944Y-21136D01*
X410956Y-9398D02*
X411206D01*
X425437Y-27178D02*
X429514D01*
X276210Y362300D02*
X279182Y359327D01*
X73380Y258176D02*
X126493D01*
X71534Y256330D02*
X73380Y258176D01*
X242282Y798154D02*
Y801154D01*
X212852Y815722D02*
X224309Y804265D01*
X236744Y798692D02*
Y801692D01*
X224309Y804265D02*
X234171D01*
X321945Y750189D02*
X329437D01*
X330072Y750824D01*
X373206Y766329D02*
X384371Y777494D01*
X413004D01*
X428013Y771144D02*
X433093Y766064D01*
X413004Y777494D02*
X414274Y778764D01*
X393114Y771144D02*
X428013D01*
X392062Y773684D02*
X428013D01*
X465577Y778764D02*
X470149Y774192D01*
X483108D01*
X433093Y778764D02*
X465577D01*
X493426Y755186D02*
Y797082D01*
X500881Y804538D01*
X490886Y756238D02*
Y791384D01*
X425027Y690380D02*
X490886Y756238D01*
X448000Y709760D02*
X493426Y755186D01*
X485568Y796702D02*
X490886Y791384D01*
X499110Y776478D02*
X503555Y780923D01*
X506095Y764004D02*
Y780189D01*
X282820Y725916D02*
X284775Y723961D01*
X506095Y780189D02*
X516208Y790302D01*
X450540Y708449D02*
X506095Y764004D01*
X503555Y780923D02*
Y786425D01*
X509730Y792600D01*
X306315Y769462D02*
X311568D01*
X281534Y369026D02*
Y390734D01*
X281352Y390916D02*
X281534Y390734D01*
Y369026D02*
X284454Y366105D01*
X294132Y771304D02*
X304473D01*
X306315Y769462D01*
X329044Y777748D02*
X329171Y777621D01*
X337947D02*
X338074Y777748D01*
X329171Y777621D02*
X337947D01*
X361431Y794755D02*
X364490Y797814D01*
X367728Y794766D02*
X386842D01*
X352348Y797552D02*
X359590Y790310D01*
X363272D01*
X376809Y804799D02*
X386842Y794766D01*
X345106Y807878D02*
X352348Y800636D01*
X363272Y790310D02*
X367728Y794766D01*
X364490Y797814D02*
X366528D01*
X369068Y800354D02*
X369824D01*
X366528Y797814D02*
X369068Y800354D01*
X352348Y797552D02*
Y800636D01*
X346368Y810926D02*
X352495Y804799D01*
X376809D01*
X277282Y726454D02*
X292512Y711224D01*
X281660Y717076D02*
X282109D01*
X277282Y726454D02*
Y726454D01*
X292512Y701660D02*
Y711224D01*
X262282Y726454D02*
X262820Y725916D01*
X287282Y729454D02*
X287315Y729421D01*
X282109Y717076D02*
X287559Y711625D01*
X300005Y703103D02*
Y711392D01*
X288290Y697438D02*
X292512Y701660D01*
X435054Y637920D02*
Y642231D01*
X295560Y703956D02*
X306196Y693320D01*
X435054Y636785D02*
Y637920D01*
X281056Y714536D02*
X282098Y713494D01*
X282820Y725916D02*
Y725916D01*
X274200Y714536D02*
X281056D01*
X295560Y703956D02*
Y712245D01*
X287315Y724083D02*
Y729421D01*
X288290Y696722D02*
Y697438D01*
X262282Y726454D02*
X262282D01*
X272282D02*
X272820Y725916D01*
X284775Y723031D02*
Y723961D01*
X287559Y705671D02*
Y711625D01*
X282098Y685986D02*
Y713494D01*
X279507Y683395D02*
X282098Y685986D01*
X287315Y724083D02*
X300005Y711392D01*
X272282Y726454D02*
X272282D01*
X262820Y725916D02*
X274200Y714536D01*
X259168Y661442D02*
X269488D01*
X258940Y661670D02*
X259168Y661442D01*
X313944Y577148D02*
Y648970D01*
X151751Y534790D02*
X251586D01*
X219421Y784315D02*
Y784582D01*
X219354Y784648D02*
Y785790D01*
X148470Y532250D02*
X289046D01*
X214503Y790641D02*
X219354Y785790D01*
Y784648D02*
X219421Y784582D01*
X121920Y565643D02*
Y566674D01*
X221894Y786842D02*
X224894D01*
X184195Y780305D02*
X193642D01*
X172652Y776258D02*
X180148D01*
X166269Y769874D02*
X172652Y776258D01*
X200679Y803973D02*
X204915D01*
X145373Y783637D02*
X180343D01*
X168068Y779192D02*
X168463Y778798D01*
X200318Y808418D02*
X208062D01*
X168463Y778798D02*
X179096D01*
X199826Y799528D01*
X219421Y784315D02*
X221894Y781842D01*
X171958Y788162D02*
X187325Y803529D01*
X123190Y541782D02*
Y564373D01*
X257282Y798154D02*
X257292Y798164D01*
Y805932D02*
X257302Y805942D01*
X156464Y769874D02*
X166269D01*
X180343Y783637D02*
X200679Y803973D01*
X115170Y753434D02*
X145373Y783637D01*
X187325Y803529D02*
X195429D01*
X132080Y554926D02*
Y565912D01*
X132461Y554080D02*
X151751Y534790D01*
X132461Y554080D02*
Y554545D01*
X132080Y554926D02*
X132461Y554545D01*
X128016Y552704D02*
X148470Y532250D01*
X222432Y781304D02*
X225432D01*
X289046Y532250D02*
X313398Y556602D01*
X251586Y534790D02*
X273398Y556602D01*
X180148Y776258D02*
X184195Y780305D01*
X121920Y565643D02*
X123190Y564373D01*
X135262Y529710D02*
X298269D01*
X217043Y791693D02*
X221894Y786842D01*
X221894Y781842D02*
Y781842D01*
X224894Y786842D02*
X225432Y786304D01*
X221894Y781842D02*
X222432Y781304D01*
X298269Y529710D02*
X321716Y553157D01*
X123190Y541782D02*
X135262Y529710D01*
X321716Y553157D02*
Y553746D01*
X324572Y556602D01*
X333398D01*
X195429Y803529D02*
X200318Y808418D01*
X140701Y580396D02*
X145574D01*
X149352Y574118D02*
Y576618D01*
X145574Y580396D02*
X149352Y576618D01*
X301538Y412202D02*
X301752Y411988D01*
X293066Y412202D02*
X301538D01*
X413132Y593852D02*
X416378Y590606D01*
X200502Y772512D02*
Y786988D01*
X304100Y491283D02*
X306324Y493507D01*
X300862Y485648D02*
X304100Y488886D01*
X306324Y493507D02*
Y494538D01*
X434982Y629030D02*
Y636713D01*
X450540Y653406D02*
Y708449D01*
X509730Y792600D02*
X511430D01*
X516208Y790302D02*
Y807542D01*
X502770Y800140D02*
X507270D01*
X502722Y800093D02*
X502770Y800140D01*
X500881Y804538D02*
X506668D01*
X498856Y789940D02*
X506516Y797600D01*
X507270Y800140D02*
X509730Y802600D01*
X506516Y797600D02*
X511430D01*
X506668Y804538D02*
X509730Y807600D01*
X515462Y769609D02*
X518280Y772427D01*
X523240Y775039D02*
X523260Y775059D01*
X518280Y772427D02*
Y785750D01*
X523240Y761746D02*
Y775039D01*
X523260Y775059D02*
Y785730D01*
X515462Y758524D02*
Y769609D01*
X526462Y753968D02*
X544673Y772179D01*
X533818Y783837D02*
X539249D01*
X614934Y815594D02*
X626991D01*
X632491Y821094D02*
X643128D01*
X626991Y815594D02*
X632491Y821094D01*
X175998Y771593D02*
X187533D01*
X187960Y772020D01*
X191575Y763585D02*
X200502Y772512D01*
X182727Y763585D02*
X191575D01*
X182586Y545790D02*
X193398Y556602D01*
X292852Y412416D02*
X293066Y412202D01*
X304100Y488886D02*
Y491283D01*
X230271Y-381274D02*
X237963D01*
X675673Y814611D02*
X676402Y815340D01*
X296474Y647946D02*
Y681736D01*
X281782Y633254D02*
X296474Y647946D01*
X300005Y703103D02*
X312728Y690380D01*
X233398Y556602D02*
Y569440D01*
X253398Y556602D02*
Y570644D01*
X293398Y556602D02*
X313944Y577148D01*
X305942Y667004D02*
X347688Y625258D01*
X198075Y604282D02*
X278986D01*
X158241Y644116D02*
X198075Y604282D01*
X253398Y570644D02*
X284734Y601980D01*
X296474Y681736D02*
X299776Y685038D01*
X266439Y683395D02*
X279507D01*
X257837Y720899D02*
X264065D01*
X269082Y715883D01*
X262820Y725916D02*
Y725916D01*
X295274Y696086D02*
X302458Y688776D01*
X252282Y726454D02*
X252820Y725916D01*
X42006Y731580D02*
Y834382D01*
X273431Y687925D02*
Y689369D01*
X274320Y690258D01*
X233398Y569440D02*
X261874Y597916D01*
X199128Y606822D02*
X263858D01*
X159293Y646656D02*
X199128Y606822D01*
X55071Y828849D02*
X74193D01*
X301498Y717550D02*
X314198Y704850D01*
X347688Y625258D02*
X417130D01*
X338709Y464947D02*
X338836Y465074D01*
X237963Y-381274D02*
X273083Y-416394D01*
X273084D01*
X148483Y-208808D02*
X162117D01*
X314198Y704850D02*
X424434D01*
X448000Y661290D02*
Y709760D01*
X433077Y574287D02*
Y575318D01*
X425958Y582437D02*
X433077Y575318D01*
X434343Y590677D02*
X441325D01*
X441452Y590804D01*
X425958Y582437D02*
Y583692D01*
X662686Y806844D02*
X663686D01*
X671453Y814611D01*
X675673D01*
X621284Y795289D02*
Y802816D01*
Y795289D02*
X624078Y792495D01*
Y791464D02*
Y792495D01*
X627784Y805316D02*
X632562Y810094D01*
X627784Y802816D02*
Y805316D01*
X632562Y810094D02*
X643128D01*
X1185125Y238545D02*
X1190498Y233172D01*
X929246Y428886D02*
X1126751D01*
X1307960Y433458D02*
X1392745D01*
X737463Y40894D02*
X851926D01*
X1311262Y49918D02*
X1390586D01*
X1498206Y18168D02*
X1620764D01*
X1680334Y56391D02*
Y124725D01*
X1714754Y20066D02*
Y21971D01*
X1680334Y56391D02*
X1714754Y21971D01*
X1620764Y18168D02*
X1631947Y6985D01*
X1724888D01*
X1737969Y20066D01*
X1758950D01*
X465328Y-201991D02*
Y-29210D01*
Y-201991D02*
X531833Y-268496D01*
X455041Y-27686D02*
X566420Y83693D01*
X408163Y-317358D02*
Y-243096D01*
X531833Y-268496D02*
X532083D01*
X287782Y-250444D02*
X296418Y-241808D01*
X287782Y-298116D02*
Y-250444D01*
X235458Y-350440D02*
X287782Y-298116D01*
X235458Y-362204D02*
Y-350440D01*
X408163Y-317358D02*
X438912Y-348107D01*
Y-350012D02*
Y-348107D01*
X1409950Y842264D02*
X1410716D01*
X1180592Y-37608D02*
Y43688D01*
X1006612Y-47688D02*
Y29220D01*
X716568Y-62196D02*
X811784Y33020D01*
X110870Y-69720D02*
X133194D01*
X195495Y-242186D02*
X195495D01*
X229686Y26772D02*
Y103962D01*
X133194Y-69720D02*
X229686Y26772D01*
X162117Y-208808D02*
X195495Y-242186D01*
X253938Y735532D02*
X257138Y732332D01*
X164488Y828843D02*
Y837407D01*
X177609Y815722D02*
X212852D01*
X164488Y828843D02*
X177609Y815722D01*
X267282Y798154D02*
X267539Y798411D01*
X427008Y927714D02*
X428786Y925936D01*
X339056Y927714D02*
X427008D01*
X337532Y926190D02*
X339056Y927714D01*
X425818Y900176D02*
X428786Y903144D01*
Y925936D01*
X388493Y793115D02*
X412623D01*
X339056Y972714D02*
X362771D01*
X337532Y971190D02*
X339056Y972714D01*
X362771D02*
X427008D01*
X428532Y971190D01*
X383203Y910291D02*
X394588Y898906D01*
X325254Y935197D02*
X362771Y972714D01*
X325254Y918454D02*
Y935197D01*
Y918454D02*
X333417Y910291D01*
X215773Y695071D02*
X223533D01*
X224930Y693674D01*
X249208Y699394D02*
X257826Y708012D01*
X217172Y703567D02*
X218354Y704749D01*
X220824D01*
X224930Y708855D01*
Y708914D01*
X215887Y703567D02*
X217172D01*
X190372Y666876D02*
Y686406D01*
X236744Y725916D02*
Y728916D01*
X190372Y686406D02*
X220658Y716692D01*
X227520D01*
X458724Y632372D02*
Y666876D01*
X456818Y668782D02*
Y694549D01*
X455168Y696199D02*
X456818Y694549D01*
X1076010Y470723D02*
X1098296Y448437D01*
X1391158Y19774D02*
Y19812D01*
X541830Y802600D02*
X566508D01*
X544908Y805678D02*
Y818389D01*
X541830Y802600D02*
X544908Y805678D01*
X540130Y802600D02*
X541830D01*
X539242Y824055D02*
X544908Y818389D01*
X1251706Y468401D02*
Y537697D01*
X1253760Y539750D01*
X1251706Y468401D02*
X1284744Y435363D01*
Y433458D02*
Y435363D01*
X1376918Y513588D02*
X1389126Y525796D01*
X1376918Y456962D02*
Y513588D01*
Y456962D02*
X1388364Y445516D01*
X1389126Y525796D02*
Y599694D01*
X544673Y772179D02*
Y775213D01*
X1181354Y533892D02*
Y625602D01*
X1178306Y456692D02*
Y519954D01*
X1064022Y554990D02*
X1064272D01*
X1076010Y543252D01*
Y470723D02*
Y543252D01*
X1098296Y446532D02*
Y448437D01*
X1418590Y772668D02*
X1418716D01*
X1428750Y782702D01*
X554990Y844296D02*
X1407918D01*
X1388398Y-46936D02*
Y17014D01*
X1178306Y519954D02*
X1187942Y529590D01*
X573080Y740707D02*
Y791065D01*
X544673Y775213D02*
X562884Y793424D01*
X294132Y741304D02*
X303473D01*
X354524Y772606D02*
X367921Y786003D01*
X344550Y734553D02*
X345580Y735584D01*
X336182Y734553D02*
X344550D01*
X269082Y711996D02*
X273320Y707758D01*
X269082Y711996D02*
Y715883D01*
X249208Y686937D02*
Y699394D01*
X556260Y836501D02*
X1839297D01*
X1862764Y813034D01*
Y799394D02*
Y813034D01*
X1856486Y793116D02*
X1862764Y799394D01*
X509730Y802600D02*
X511430D01*
X518338Y809672D02*
X530202D01*
X533280Y812750D02*
Y814450D01*
X516208Y807542D02*
X518338Y809672D01*
X530202D02*
X533280Y812750D01*
X1376660Y-58674D02*
X1388398Y-46936D01*
X1407918Y844296D02*
X1409950Y842264D01*
X1376410Y-58674D02*
X1376660D01*
X1388398Y17014D02*
X1391158Y19774D01*
X1390586Y49918D02*
X1435417Y5087D01*
X1485125D01*
X1377673Y132811D02*
X1389411Y121073D01*
X1377424Y132811D02*
X1377673D01*
X1377424D02*
X1388364Y143751D01*
Y209550D01*
X1375626Y268516D02*
X1388364Y255778D01*
X1375626Y268516D02*
Y321577D01*
X1387094Y333044D01*
Y408432D01*
X1377423Y647719D02*
X1389126Y636016D01*
X1377423Y647719D02*
Y704315D01*
X1180592Y-37608D02*
X1185656Y-42672D01*
X1182116Y81534D02*
X1186418Y85836D01*
Y147320D01*
X1138948Y67190D02*
X1207706D01*
X1238059Y36837D01*
X1189736Y150638D02*
Y217170D01*
X1186418Y147320D02*
X1189736Y150638D01*
X1185125Y238545D02*
Y337553D01*
X1178214Y344464D02*
Y435448D01*
Y344464D02*
X1185125Y337553D01*
X1142492Y446532D02*
X1209926D01*
X1236081Y420377D01*
X994874Y-59426D02*
X1006612Y-47688D01*
X647192Y792226D02*
X806577D01*
X994624Y-59426D02*
X994874D01*
X1006612Y333315D02*
Y409712D01*
X996421Y132811D02*
X996671D01*
X1123581Y49918D02*
X1138948Y65285D01*
Y67190D01*
X952004Y49918D02*
X1123581D01*
X996671Y132811D02*
X1008409Y144549D01*
X1011174Y608298D02*
Y608330D01*
X1006612Y29220D02*
X1015746Y38354D01*
X994624Y271820D02*
X1019810Y246634D01*
X994624Y271820D02*
Y321577D01*
X994874D02*
X1006612Y333315D01*
Y409712D02*
X1016254Y419354D01*
X994624Y321577D02*
X994874D01*
X817371Y803020D02*
X976756D01*
X806577Y792226D02*
X817371Y803020D01*
X996421Y455951D02*
X1015746Y436626D01*
X996421Y455951D02*
Y513813D01*
X996671D02*
X1008409Y525551D01*
X996421Y513813D02*
X996671D01*
X1015238Y58969D02*
Y114244D01*
X1008409Y215675D02*
X1021334Y228600D01*
X806170Y501113D02*
X817908Y512851D01*
Y579402D02*
X824992Y586486D01*
X805920Y501113D02*
X806170D01*
X818676Y214664D02*
X822706Y218694D01*
X826008Y607822D02*
Y668218D01*
X804372Y689854D02*
X826008Y668218D01*
X804122Y689854D02*
X804372D01*
X805160Y310388D02*
X816898Y322126D01*
X804910Y310388D02*
X805160D01*
X818676Y132134D02*
Y214664D01*
X816898Y322126D02*
Y390178D01*
X805920Y450872D02*
X831088Y425704D01*
X805920Y450872D02*
Y501113D01*
X806688Y120396D02*
X806938D01*
X818676Y132134D01*
X817908Y512851D02*
Y579402D01*
X804910Y254270D02*
X821690Y237490D01*
X804910Y254270D02*
Y310388D01*
X716568Y-176984D02*
Y-62196D01*
X704580Y-188722D02*
X704830D01*
X716568Y-176984D01*
X816898Y390178D02*
X830580Y403860D01*
X806688Y61230D02*
X811899Y56019D01*
X806688Y61230D02*
Y120396D01*
X627414Y178870D02*
Y216950D01*
X548386Y53848D02*
X633730D01*
X627414Y216950D02*
X636778Y226314D01*
X615426Y102886D02*
X641858Y76454D01*
X615426Y102886D02*
Y167132D01*
X615676D01*
X627414Y178870D01*
X465328Y-29210D02*
X548386Y53848D01*
X632968Y692658D02*
X639318Y699008D01*
X615426Y692658D02*
X632968D01*
X998854Y782702D02*
X1012444D01*
X995172Y786384D02*
X998854Y782702D01*
X1012444Y719856D02*
Y782702D01*
X996671Y132811D02*
X1015238Y114244D01*
X682244Y802132D02*
X690626Y810514D01*
X1588649D01*
X1008409Y144549D02*
Y215675D01*
X1578116Y301564D02*
Y391159D01*
X551835Y797707D02*
X551942Y797814D01*
X540237Y797707D02*
X551835D01*
X536360Y775970D02*
X536448D01*
X528280Y784050D02*
X536360Y775970D01*
X528280Y784050D02*
Y785750D01*
X737616Y764540D02*
X744348Y771272D01*
X840232D01*
X533280Y784375D02*
Y785750D01*
Y784375D02*
X533818Y783837D01*
X327467Y438506D02*
X331101D01*
X335562Y426208D02*
Y434045D01*
X331101Y438506D02*
X335562Y434045D01*
X292852Y407416D02*
X306404D01*
X308048Y405772D02*
X323006D01*
Y442966D02*
Y471516D01*
X329060Y477570D01*
Y484131D01*
X329284Y484356D01*
Y419930D02*
X335562Y426208D01*
X329284Y393974D02*
Y412050D01*
X313284Y375898D02*
Y393974D01*
X304842Y402416D02*
X313284Y393974D01*
X292852Y402416D02*
X304842D01*
X1694027Y-170434D02*
X1715008D01*
X1613840Y-183515D02*
X1680946D01*
X1599489Y-169164D02*
X1613840Y-183515D01*
X1680946D02*
X1694027Y-170434D01*
X1164590Y-152527D02*
X1297660D01*
X1489684Y-182245D02*
X1502765Y-169164D01*
X1393622Y-139446D02*
X1436421Y-182245D01*
X1310741Y-139446D02*
X1393622D01*
X1137920Y-125857D02*
X1164590Y-152527D01*
X1436421Y-182245D02*
X1489684D01*
X1297660Y-152527D02*
X1310741Y-139446D01*
X1137920Y-125857D02*
Y-123952D01*
X1502765Y-169164D02*
X1599489D01*
X1252490Y-102505D02*
Y-33274D01*
Y-102505D02*
X1287526Y-137541D01*
Y-139446D02*
Y-137541D01*
X1479550Y-169164D02*
Y-167259D01*
X1442208Y-129917D02*
Y-65776D01*
Y-129917D02*
X1479550Y-167259D01*
X1575816Y-81488D02*
Y9652D01*
X1566128Y-91176D02*
X1575816Y-81488D01*
X1566128Y36104D02*
X1576578Y25654D01*
X1566128Y36104D02*
Y99325D01*
X1575054Y108251D02*
Y195834D01*
X1566128Y99325D02*
X1575054Y108251D01*
X1574038Y217678D02*
Y281916D01*
X1566128Y289826D02*
X1574038Y281916D01*
X1579372Y392415D02*
Y393446D01*
X1566128Y289826D02*
X1566378D01*
X1578116Y301564D01*
X1567418Y426228D02*
X1578610Y415036D01*
X1567418Y426228D02*
Y481330D01*
X1578864Y492776D01*
Y541528D01*
Y602488D02*
Y661400D01*
X1569196Y671068D02*
X1578864Y661400D01*
X1569446Y671068D02*
X1622552Y724174D01*
X1569196Y671068D02*
X1569446D01*
X1622552Y724174D02*
Y786766D01*
X1621662Y785876D02*
X1622552Y786766D01*
X1601978Y785876D02*
X1621662D01*
X660551Y723367D02*
X694689Y757505D01*
X917008Y777550D02*
X931101Y791643D01*
X568438Y736065D02*
X573080Y740707D01*
X1208227Y791643D02*
X1214120Y785750D01*
X717512Y757505D02*
X737557Y777550D01*
X279182Y359327D02*
X289726D01*
X292852Y362453D01*
X329284Y412050D02*
Y419930D01*
X323006Y442966D02*
X327467Y438506D01*
X323006Y405772D02*
X329284Y412050D01*
X306404Y407416D02*
X308048Y405772D01*
X307073Y423916D02*
X313284Y430127D01*
X286352Y423916D02*
X307073D01*
X307918Y417416D02*
X313284Y412050D01*
X292852Y417416D02*
X307918D01*
X321542Y420308D02*
Y422385D01*
X329284Y430127D01*
X313284Y412050D02*
X321542Y420308D01*
X313284Y430127D02*
Y448203D01*
Y466279D02*
Y484356D01*
X301794Y454789D02*
X313284Y466279D01*
X301794Y444586D02*
Y454789D01*
X293526Y436318D02*
X301794Y444586D01*
X281352Y429202D02*
X288468Y436318D01*
X293526D01*
X281352Y423916D02*
Y429202D01*
X284862Y484978D02*
Y485648D01*
X288290Y458596D02*
Y481550D01*
X284862Y484978D02*
X288290Y481550D01*
X276352Y425716D02*
X276790Y426154D01*
X276352Y423916D02*
Y425716D01*
X276790Y426154D02*
X276790D01*
X278812Y428176D02*
Y433118D01*
X288290Y442596D01*
X368300Y775364D02*
Y775651D01*
X284480Y806435D02*
Y807720D01*
X337693Y447421D02*
X337820Y447548D01*
X337947Y375031D02*
X338074Y375158D01*
X290259Y635699D02*
X290830Y636270D01*
X269217Y643890D02*
X270510D01*
X284988Y338074D02*
X285115Y338201D01*
X259334Y679958D02*
X259461Y680085D01*
X180784Y838137D02*
X180848Y838200D01*
X202692Y826008D02*
X202948Y826264D01*
X223959Y723175D02*
X229003D01*
X131445Y473837D02*
X131572Y473964D01*
X129159Y443865D02*
X129286Y443992D01*
X106840Y299372D02*
X107696Y300228D01*
X110457Y264381D02*
X110490Y264414D01*
X77773Y251919D02*
X78502Y251189D01*
X257292Y798164D02*
Y805932D01*
X171196Y639562D02*
Y738506D01*
X140220Y646656D02*
X159293D01*
X55142Y731734D02*
X140220Y646656D01*
X139168Y644116D02*
X158241D01*
X100136Y830102D02*
X100882Y829357D01*
X201395Y609362D02*
X248689D01*
X171196Y639562D02*
X201395Y609362D01*
X47086Y736198D02*
X139168Y644116D01*
X100882Y829357D02*
X116379D01*
X47086Y736198D02*
Y832278D01*
X55142Y731734D02*
Y807739D01*
X42006Y834382D02*
X58642Y851018D01*
X44546Y735146D02*
X115170Y664522D01*
X44546Y735146D02*
Y833330D01*
X65170Y753434D02*
X66442D01*
X269987Y620268D02*
X270764D01*
X281782Y624746D02*
Y633254D01*
X263858Y606822D02*
X281782Y624746D01*
X268209Y618490D02*
X269987Y620268D01*
X248689Y609362D02*
X252174Y612848D01*
Y626576D02*
X260186Y634588D01*
X252174Y612848D02*
Y626576D01*
X481584Y804418D02*
X482092Y804926D01*
X1457264Y601552D02*
Y684730D01*
X431010Y594010D02*
X434343Y590677D01*
X285115Y338201D02*
Y347945D01*
X132642Y265839D02*
X135380Y268577D01*
X337916Y812792D02*
X339782Y810926D01*
X337916Y812792D02*
Y824265D01*
X202948Y826264D02*
X207395D01*
X425818Y848142D02*
Y900176D01*
X386842Y794766D02*
X388493Y793115D01*
X337916Y824265D02*
X338957Y825306D01*
X280242Y647040D02*
Y652526D01*
X267790Y634588D02*
X280242Y647040D01*
X434982Y636713D02*
X435054Y636785D01*
X115170Y608434D02*
Y664522D01*
X153417Y848478D02*
X164488Y837407D01*
X278384Y802256D02*
Y807466D01*
X299014Y660076D02*
X305942Y667004D01*
X299014Y624310D02*
Y660076D01*
X355908Y639772D02*
X395840D01*
X318389Y677291D02*
X355908Y639772D01*
X399926Y643858D02*
X433427D01*
X312728Y680055D02*
Y690380D01*
X100136Y830102D02*
Y830420D01*
X309075Y676923D02*
X309595D01*
X441381Y622630D02*
X441832Y622180D01*
X116379Y829357D02*
X117094Y830072D01*
X417910Y607238D02*
Y619102D01*
X414832Y622180D02*
X417910Y619102D01*
X531084Y751428D02*
X566802Y787146D01*
X436546Y622630D02*
X441381D01*
X413132Y622180D02*
X414832D01*
X395840Y639772D02*
X399926Y643858D01*
X433427D02*
X435054Y642231D01*
X443532Y617180D02*
X458724Y632372D01*
X471245Y629969D02*
Y725561D01*
X851926Y40894D02*
X855983Y36837D01*
X1141488Y254515D02*
X1170698Y225305D01*
X334264Y192876D02*
X335814D01*
X406019Y606767D02*
X411432Y612180D01*
X566420Y83693D02*
Y85598D01*
X927963Y-137414D02*
X1126363D01*
X112034Y-71393D02*
X112998Y-70429D01*
X540130Y797600D02*
X540237Y797707D01*
X555388Y792600D02*
X558752Y795964D01*
X417322Y636976D02*
X419982Y634316D01*
Y629030D02*
Y634316D01*
X417322Y636976D02*
Y637032D01*
X302458Y688776D02*
X306196Y685038D01*
X307707Y799084D02*
X313411D01*
X305054Y797306D02*
X305929D01*
X319011Y800519D02*
X320446Y799084D01*
X305929Y797306D02*
X307707Y799084D01*
X297670Y786842D02*
X297670D01*
X317577Y803783D02*
X319011Y802348D01*
X300609Y789781D02*
Y799147D01*
X326669Y790956D02*
X335026D01*
X326161Y790448D02*
X326669Y790956D01*
X333417Y910291D02*
X383203D01*
X523240Y761746D02*
X523367D01*
X349250Y241554D02*
X363982Y226822D01*
X333248Y241554D02*
X349250D01*
X333248Y211492D02*
X334264Y210476D01*
X333248Y211492D02*
Y241554D01*
X114554Y442594D02*
X115825Y443865D01*
X232282Y726454D02*
Y729454D01*
X626412Y675880D02*
X660551Y710018D01*
X694689Y757505D02*
X717512D01*
X840232Y725714D02*
Y771272D01*
X804372Y689854D02*
X840232Y725714D01*
X660551Y710018D02*
Y723367D01*
X571773Y795964D02*
X576524Y791213D01*
X562884Y793424D02*
X570720D01*
X1181354Y533892D02*
X1186672Y528574D01*
X931101Y791643D02*
X1208227D01*
X576524Y781909D02*
Y791213D01*
X515462Y758524D02*
X520018Y753968D01*
X526462D01*
X540130Y792600D02*
X555388D01*
X570720Y793424D02*
X573080Y791065D01*
X558752Y795964D02*
X571773D01*
X737557Y777550D02*
X917008D01*
X576524Y781909D02*
X602910Y755524D01*
X626364D01*
Y703596D02*
Y755524D01*
X615426Y692658D02*
X626364Y703596D01*
X523367Y761746D02*
X531622Y770001D01*
X320672Y787072D02*
Y788902D01*
X344520Y785526D02*
X344678Y785368D01*
X319126Y790448D02*
X320672Y788902D01*
Y787072D02*
X322219Y785526D01*
X344520D01*
X132642Y264325D02*
Y265839D01*
X65532Y799338D02*
Y811774D01*
X72400Y818642D01*
X265938Y338836D02*
Y339545D01*
X263994Y341489D02*
Y349736D01*
Y341489D02*
X265938Y339545D01*
X330151Y375031D02*
X337947D01*
X126493Y258176D02*
X132642Y264325D01*
X229003Y723175D02*
X232282Y726454D01*
X282785Y804740D02*
X284480Y806435D01*
X329284Y466279D02*
X330616Y464947D01*
X469773Y811403D02*
X475615D01*
X99692Y294172D02*
X100207D01*
X361302Y767334D02*
Y768366D01*
X284454Y348606D02*
X285115Y347945D01*
X242891Y758597D02*
X243145Y758851D01*
X429602Y594010D02*
X431010D01*
X424982Y598630D02*
X429602Y594010D01*
X424982Y598630D02*
Y600330D01*
X523260Y785730D02*
X523280Y785750D01*
X170766Y838200D02*
X170830Y838137D01*
X72400Y818642D02*
X74400D01*
X454914Y791464D02*
X456184Y790194D01*
X481076D01*
X482346Y788924D01*
X290259Y626554D02*
Y635699D01*
X282785Y798657D02*
Y804740D01*
X114300Y473710D02*
X114427Y473837D01*
X282282Y798154D02*
X282785Y798657D01*
X75946Y251919D02*
X77773D01*
X297670Y786842D02*
X300609Y789781D01*
X305245Y803783D02*
X317577D01*
X305748Y807878D02*
X345106D01*
X338957Y825306D02*
X370243D01*
X300609Y799147D02*
X305245Y803783D01*
X319011Y800519D02*
Y802348D01*
X259752Y618490D02*
X268209D01*
X100207Y294172D02*
X105407Y299372D01*
X170830Y838137D02*
X180784D01*
X258940Y642366D02*
X267694D01*
X100781Y264381D02*
X110457D01*
X361302Y768366D02*
X368300Y775364D01*
X475615Y811403D02*
X482092Y804926D01*
X346202Y836536D02*
Y850900D01*
X68834Y320330D02*
X77033D01*
X115825Y443865D02*
X129159D01*
X77033Y320330D02*
X80518Y323815D01*
X246388Y684118D02*
X249208Y686937D01*
X183134Y659638D02*
X190372Y666876D01*
X227520Y716692D02*
X236744Y725916D01*
X267694Y642366D02*
X269217Y643890D01*
X329284Y375898D02*
X330151Y375031D01*
X259461Y680085D02*
Y689877D01*
X114427Y473837D02*
X131445D01*
X258826Y690512D02*
X259461Y689877D01*
X100708Y264454D02*
X100781Y264381D01*
X455168Y804418D02*
X481584D01*
X105407Y299372D02*
X106840D01*
X207395Y826264D02*
X212852Y831722D01*
X289560Y625856D02*
X290259Y626554D01*
X330066Y447421D02*
X337693D01*
X445378Y604102D02*
X471245Y629969D01*
Y725561D02*
X497111Y751428D01*
X479316Y796702D02*
X485568D01*
X443064Y796925D02*
X479093D01*
X439166Y800823D02*
X443064Y796925D01*
X439166Y800823D02*
Y807505D01*
X445858Y814197D02*
X464930D01*
X471622Y820890D01*
Y824333D01*
X435468Y623708D02*
X436546Y622630D01*
X437834Y604102D02*
X445378D01*
X391922Y646050D02*
X392388Y646516D01*
X439166Y807505D02*
X445858Y814197D01*
X471622Y824333D02*
X473249Y825960D01*
X420039Y605108D02*
X436828D01*
X433226Y646516D02*
X448000Y661290D01*
X306196Y685038D02*
Y693320D01*
X479093Y796925D02*
X479316Y796702D01*
X312728Y690380D02*
X425027D01*
X540130Y807600D02*
Y814224D01*
X392388Y646516D02*
X433226D01*
X1377673Y704315D02*
X1428750Y755392D01*
Y782702D01*
X1377423Y704315D02*
X1377673D01*
X1251706Y648106D02*
X1277632Y622180D01*
X1251706Y727918D02*
X1253503Y729715D01*
X1277632Y622180D02*
X1289316D01*
X1251706Y648106D02*
Y727918D01*
X1467116Y591700D02*
X1478800D01*
X1445276Y696468D02*
X1445526D01*
X1457264Y684730D01*
Y601552D02*
X1467116Y591700D01*
X1806428Y672338D02*
X1856486Y722396D01*
X1804254Y482492D02*
X1805416Y481330D01*
X1804254Y99325D02*
Y480168D01*
X1680334Y627529D02*
Y695814D01*
X1682258Y697738D01*
X1680334Y627529D02*
X1714258Y593605D01*
Y591700D02*
Y593605D01*
X1804254Y482492D02*
Y670414D01*
X1806178Y672338D01*
X1856486Y722396D02*
Y793116D01*
X1680334Y441093D02*
Y505568D01*
X1681496Y506730D01*
X1680334Y441093D02*
X1716544Y404883D01*
Y402978D02*
Y404883D01*
X1804254Y480168D02*
X1805416Y481330D01*
X1442208Y444015D02*
Y505440D01*
X1443498Y506730D01*
X1442208Y444015D02*
X1480324Y405899D01*
Y403994D02*
Y405899D01*
X1294879Y420377D02*
X1307960Y433458D01*
X1236081Y420377D02*
X1294879D01*
X1126751Y428886D02*
X1142492Y444627D01*
Y446532D01*
X1503540Y403994D02*
X1622869D01*
X766819Y415805D02*
X916165D01*
X929246Y428886D01*
X760730Y421894D02*
X766819Y415805D01*
X760730Y419989D02*
Y421894D01*
X570992Y374142D02*
X714883D01*
X760730Y419989D01*
X870704Y466117D02*
Y537416D01*
X872501Y539213D01*
X870704Y466117D02*
X906030Y430791D01*
Y428886D02*
Y430791D01*
X680202Y460131D02*
Y524716D01*
X682000Y526513D01*
X680202Y460131D02*
X716534Y423799D01*
Y421894D02*
Y423799D01*
X1251706Y88163D02*
Y156414D01*
X1253503Y158211D01*
X1251706Y88163D02*
X1288046Y51823D01*
Y49918D02*
Y51823D01*
X1060494Y103353D02*
Y170716D01*
X1062498Y172720D01*
X1060494Y103353D02*
X1094752Y69095D01*
Y67190D02*
Y69095D01*
X1061205Y-17803D02*
X1061736Y-17272D01*
X1093724Y-123952D02*
Y-122047D01*
X1061205Y-89528D02*
X1093724Y-122047D01*
X1061205Y-89528D02*
Y-17803D01*
X489701Y643266D02*
Y716253D01*
X491506Y718058D01*
X489701Y643266D02*
X521716Y611251D01*
Y609346D02*
Y611251D01*
X497111Y751428D02*
X531084D01*
X424982Y629030D02*
X429982D01*
X430129Y629177D01*
X462127Y-350012D02*
X483108D01*
X411432Y617180D02*
X413132D01*
X417910Y607238D02*
X420039Y605108D01*
X436828D02*
X437834Y604102D01*
X680202Y263027D02*
Y335000D01*
X680990Y335788D01*
X680202Y263027D02*
X712216Y231013D01*
Y229108D02*
Y231013D01*
X870704Y88927D02*
Y156414D01*
X872501Y158211D01*
X870704Y88927D02*
X907808Y51823D01*
Y49918D02*
Y51823D01*
X855983Y36837D02*
X940828D01*
X411432Y612180D02*
X413132D01*
X332968Y-103251D02*
X346049Y-90170D01*
X312700Y-103251D02*
X332968D01*
X271933Y-62484D02*
X312700Y-103251D01*
X248920Y-62484D02*
X271933D01*
X229686Y103962D02*
X326178Y200454D01*
X112034Y-172359D02*
Y-71393D01*
Y-172359D02*
X148483Y-208808D01*
X196088Y-71120D02*
X204724Y-62484D01*
X196088Y-135556D02*
Y-71120D01*
X153670Y-189738D02*
Y-177974D01*
X196088Y-135556D01*
X193822Y-344825D02*
X230271Y-381274D01*
X193822Y-344825D02*
Y-243859D01*
X195495Y-242186D01*
X914882Y-150495D02*
X927963Y-137414D01*
X879850Y-150495D02*
X914882D01*
X760851Y-269494D02*
X879850Y-150495D01*
X658622Y-269494D02*
X760851D01*
X580009Y-350012D02*
X658622Y-271399D01*
Y-269494D01*
X483108Y-350012D02*
X580009D01*
X422148Y-419608D02*
Y-417703D01*
X474472Y-365379D01*
Y-358648D01*
X483108Y-350012D01*
X369316Y-428244D02*
X377952Y-419608D01*
X369316Y-468379D02*
Y-428244D01*
X313047Y-524648D02*
X369316Y-468379D01*
X313047Y-536412D02*
Y-524648D01*
X1126363Y-137414D02*
X1137920Y-125857D01*
X904748Y-137414D02*
Y-135509D01*
X870704Y-101465D02*
X904748Y-135509D01*
X870704Y-101465D02*
Y-34026D01*
X940828Y36837D02*
X952004Y48013D01*
Y49918D01*
X724382Y27813D02*
X737463Y40894D01*
X678612Y27813D02*
X724382D01*
X620827Y85598D02*
X678612Y27813D01*
X566420Y85598D02*
X620827D01*
X580660Y-233823D02*
Y-163322D01*
X614426Y-269494D02*
Y-267589D01*
X580660Y-233823D02*
X614426Y-267589D01*
X682768Y74279D02*
X714248Y42799D01*
X682768Y74279D02*
Y145796D01*
X714248Y40894D02*
Y42799D01*
X491506Y104632D02*
X510540Y85598D01*
X522224D01*
X491506Y104632D02*
Y192532D01*
X406019Y583891D02*
Y606767D01*
X1738985Y211328D02*
X1759966D01*
X1725904Y198247D02*
X1738985Y211328D01*
X1629721Y198247D02*
X1725904D01*
X1622990Y204978D02*
X1629721Y198247D01*
X1519828Y204978D02*
X1622990D01*
X1518170Y206636D02*
X1519828Y204978D01*
X1485125Y5087D02*
X1498206Y18168D01*
X1497190Y206636D02*
X1518170D01*
X1484109Y193555D02*
X1497190Y206636D01*
X1435798Y193555D02*
X1484109D01*
X1390967Y238386D02*
X1435798Y193555D01*
X1474990Y18168D02*
Y20073D01*
X1442208Y52855D02*
Y124725D01*
Y52855D02*
X1474990Y20073D01*
X1298181Y36837D02*
X1311262Y49918D01*
X1238059Y36837D02*
X1298181D01*
X1299959Y225305D02*
X1313040Y238386D01*
X1390967D01*
X853189Y225305D02*
X937526D01*
X1141488Y254515D02*
Y256420D01*
X948702Y238386D02*
X1125359D01*
X1141488Y254515D01*
X1442208Y240307D02*
Y315226D01*
Y240307D02*
X1473974Y208541D01*
Y206636D02*
Y208541D01*
X1632709Y-130426D02*
Y-65776D01*
Y-130426D02*
X1670812Y-168529D01*
Y-170434D02*
Y-168529D01*
X1792266Y87587D02*
X1804004Y99325D01*
X1792266Y-55789D02*
Y87587D01*
X1804004Y99325D02*
X1804254D01*
X1756879Y-91176D02*
X1792266Y-55789D01*
X1756629Y-91176D02*
X1756879D01*
X1680334Y248668D02*
X1715770Y213233D01*
X1680334Y248668D02*
Y315226D01*
X1715770Y211328D02*
Y213233D01*
X1636966Y389897D02*
X1726679D01*
X1739760Y402978D01*
X1760740D01*
X1622869Y403994D02*
X1636966Y389897D01*
X1490459Y390913D02*
X1503540Y403994D01*
X1392745Y433458D02*
X1435290Y390913D01*
X1490459D01*
X1737474Y591700D02*
X1758454D01*
X1724393Y578619D02*
X1737474Y591700D01*
X1634553Y578619D02*
X1724393D01*
X1621472Y591700D02*
X1634553Y578619D01*
X433060Y595552D02*
X444075D01*
X1437322Y578619D02*
X1488935D01*
X1393761Y622180D02*
X1437322Y578619D01*
X1312532Y622180D02*
X1393761D01*
X1488935Y578619D02*
X1502016Y591700D01*
X1621472D01*
X1236408Y609099D02*
X1299451D01*
X1312532Y622180D01*
X927722D02*
X1030922D01*
X1212913Y632594D02*
X1236408Y609099D01*
X1107173Y619513D02*
X1120254Y632594D01*
X1033589Y619513D02*
X1107173D01*
X1030922Y622180D02*
X1033589Y619513D01*
X457869Y609346D02*
X498501D01*
X592531D02*
X690017D01*
X703098Y596265D02*
X901806D01*
X927722Y622180D01*
X690017Y609346D02*
X703098Y596265D01*
X713232Y609346D02*
Y611251D01*
X680202Y644281D02*
Y715254D01*
Y644281D02*
X713232Y611251D01*
X511582Y596265D02*
X579450D01*
X498501Y609346D02*
X511582Y596265D01*
X444075Y595552D02*
X457869Y609346D01*
X579450Y596265D02*
X592531Y609346D01*
X1120254Y632594D02*
X1212913D01*
X429982Y598630D02*
Y600330D01*
Y598630D02*
X433060Y595552D01*
X1289824Y238386D02*
Y240291D01*
X1251706Y278409D02*
Y346977D01*
Y278409D02*
X1289824Y240291D01*
X1097292Y256420D02*
Y258325D01*
X1061205Y294412D02*
Y362953D01*
Y294412D02*
X1097292Y258325D01*
X870704Y274093D02*
Y346977D01*
Y274093D02*
X904506Y240291D01*
Y238386D02*
Y240291D01*
X1170698Y225305D02*
X1299959D01*
X849386Y229108D02*
X853189Y225305D01*
X937526D02*
X948702Y236481D01*
Y238386D01*
X566508Y802600D02*
X566802Y802894D01*
X566674Y803022D02*
X566802Y802894D01*
X566674Y803022D02*
Y820166D01*
X441832Y617180D02*
X443532D01*
X456818Y668782D02*
X458724Y666876D01*
X509730Y807600D02*
X511430D01*
X430129Y639933D02*
X430276Y640080D01*
X430129Y629177D02*
Y639933D01*
X475400Y820182D02*
X481132Y814450D01*
X475400Y820182D02*
Y821182D01*
X481132Y814450D02*
X528280D01*
X135380Y292202D02*
Y293717D01*
X61356Y288594D02*
X62397Y287552D01*
X62912D01*
X63896Y286568D02*
Y286568D01*
X64634Y285830D02*
X76927D01*
X63896Y286568D02*
X64634Y285830D01*
X65620Y264330D02*
X68834D01*
X58816Y271134D02*
X65620Y264330D01*
X135380Y292202D02*
Y293717D01*
X61356Y293066D02*
X63382Y295092D01*
X135380Y293717D02*
X142422Y300758D01*
X61356Y288594D02*
Y293066D01*
X73772Y254092D02*
X73772D01*
X330616Y464947D02*
X338709D01*
X329284Y448203D02*
X330066Y447421D01*
X277282Y801154D02*
X278384Y802256D01*
X62912Y287552D02*
X63896Y286568D01*
X89943Y272815D02*
X123142D01*
X125880Y270077D01*
Y268577D02*
Y270077D01*
X77034Y300830D02*
X83692Y294172D01*
X68834Y300830D02*
X77034D01*
X107918Y292202D02*
X125880D01*
X103610Y287894D02*
X107918Y292202D01*
X68834Y290830D02*
X73034D01*
X77242Y289108D02*
X78456Y287894D01*
X74756Y289108D02*
X77242D01*
X78332Y270830D02*
X84708Y264454D01*
X68834Y270830D02*
X78332D01*
X58816Y271134D02*
Y305527D01*
X128338Y300758D02*
X135380Y293717D01*
X58816Y305527D02*
X65620Y312330D01*
X68834D01*
X59694Y848478D02*
X153417D01*
X44546Y833330D02*
X59694Y848478D01*
X309595Y676923D02*
X312728Y680055D01*
X473249Y825960D02*
X528394D01*
X278986Y604282D02*
X299014Y624310D01*
X51642Y836834D02*
X93722D01*
X417130Y625258D02*
X418680Y623708D01*
X435468D01*
X47086Y832278D02*
X51642Y836834D01*
X234171Y804265D02*
X236744Y801692D01*
X93722Y836834D02*
X100136Y830420D01*
X55142Y807739D02*
X70912Y823510D01*
Y827154D01*
X299776Y685038D02*
X306196D01*
X70912Y827154D02*
X72400Y828642D01*
X305942Y673790D02*
X309075Y676923D01*
X86360Y-45210D02*
X110870Y-69720D01*
X427902Y786003D02*
X433363Y791464D01*
X300718Y756304D02*
X307852Y749170D01*
Y747702D02*
Y749170D01*
X294132Y756304D02*
X300718D01*
X367921Y786003D02*
X427902D01*
X433363Y791464D02*
X454914D01*
X465201Y766064D02*
X471805Y759460D01*
X433093Y766064D02*
X465201D01*
X471805Y759460D02*
X483108D01*
X428013Y773684D02*
X433093Y778764D01*
X294132Y746304D02*
X302065D01*
X305312Y746649D02*
Y746711D01*
X300718Y751304D02*
X305312Y746711D01*
X294132Y751304D02*
X300718D01*
X294132Y776304D02*
X310100D01*
X303592Y761304D02*
X314072Y750824D01*
X294132Y761304D02*
X303592D01*
X58642Y851018D02*
X156983D01*
X370243Y825306D02*
X370970Y824580D01*
X297020Y791842D02*
Y799150D01*
X296482Y791304D02*
X297020Y791842D01*
X294132Y791304D02*
X296482D01*
X412623Y793115D02*
X414274Y791464D01*
X370970Y824580D02*
X402256D01*
X339782Y810926D02*
X346368D01*
X402256Y824580D02*
X425818Y848142D01*
X297020Y799150D02*
X305748Y807878D01*
X454914Y804164D02*
X455168Y804418D01*
X449580Y727964D02*
Y750525D01*
X452419Y753364D01*
X454914D01*
X252282Y726454D02*
X252282D01*
X305942Y667004D02*
Y673790D01*
X435054Y637920D02*
X450540Y653406D01*
X528394Y825960D02*
X540130Y814224D01*
X219230Y749506D02*
X221894Y746842D01*
X219230Y749506D02*
Y751996D01*
X221894Y746842D02*
X224894D01*
X208280Y754660D02*
X216566D01*
X224894Y746842D02*
X225432Y746304D01*
X187960Y754520D02*
X208140D01*
X208280Y754660D01*
X171196Y754506D02*
X187946D01*
X187960Y754520D01*
X260186Y634588D02*
X267790D01*
X201358Y711400D02*
X206096Y716138D01*
Y719968D01*
X221894Y735766D01*
Y735766D02*
X222432Y736304D01*
X197358Y711400D02*
X201358D01*
X216447Y741304D02*
X225432D01*
X197358Y736400D02*
X211543D01*
X216447Y741304D01*
X96520Y426720D02*
X96583Y426657D01*
X114491D01*
X114554Y426594D01*
X273320Y707758D02*
X274320D01*
X54864Y829056D02*
X55071Y828849D01*
X74193D02*
X74400Y828642D01*
X111211Y818642D02*
X114513Y815340D01*
X103400Y818642D02*
X111211D01*
X114513Y815340D02*
X129906D01*
X146266Y831700D02*
X148766D01*
X129906Y815340D02*
X146266Y831700D01*
X327177Y800100D02*
X341884D01*
X326161Y799084D02*
X327177Y800100D01*
X320446Y799084D02*
X326161D01*
X294132Y781304D02*
X297132D01*
X306276Y790448D01*
X319126D01*
D14*
X276352Y372595D02*
Y390456D01*
X276327Y372570D02*
X276352Y372595D01*
D21*
X377952Y-419608D02*
D03*
X422148D02*
D03*
X322834Y-90170D02*
D03*
X367030D02*
D03*
X204724Y-62484D02*
D03*
X248920D02*
D03*
X521716Y609346D02*
D03*
X477520D02*
D03*
X1714754Y20066D02*
D03*
X1758950D02*
D03*
X296418Y-241808D02*
D03*
X340614D02*
D03*
X1715008Y-170434D02*
D03*
X1670812D02*
D03*
X1523746Y-169164D02*
D03*
X1479550D02*
D03*
X1331722Y-139446D02*
D03*
X1287526D02*
D03*
X1137920Y-123952D02*
D03*
X1093724D02*
D03*
X948944Y-137414D02*
D03*
X904748D02*
D03*
X658622Y-269494D02*
D03*
X614426D02*
D03*
X483108Y-350012D02*
D03*
X438912D02*
D03*
X1519186Y18168D02*
D03*
X1474990D02*
D03*
X1332242Y49918D02*
D03*
X1288046D02*
D03*
X1138948Y67190D02*
D03*
X1094752D02*
D03*
X952004Y49918D02*
D03*
X907808D02*
D03*
X758444Y40894D02*
D03*
X714248D02*
D03*
X566420Y85598D02*
D03*
X522224D02*
D03*
X1759966Y211328D02*
D03*
X1715770D02*
D03*
X1518170Y206636D02*
D03*
X1473974D02*
D03*
X1334020Y238386D02*
D03*
X1289824D02*
D03*
X1141488Y256420D02*
D03*
X1097292D02*
D03*
X948702Y238386D02*
D03*
X904506D02*
D03*
X756412Y229108D02*
D03*
X712216D02*
D03*
X1760740Y402978D02*
D03*
X1716544D02*
D03*
X1524520Y403994D02*
D03*
X1480324D02*
D03*
X1328940Y433458D02*
D03*
X1284744D02*
D03*
X1142492Y446532D02*
D03*
X1098296D02*
D03*
X950226Y428886D02*
D03*
X906030D02*
D03*
X760730Y421894D02*
D03*
X716534D02*
D03*
X570992Y374142D02*
D03*
X526796D02*
D03*
X1758454Y591700D02*
D03*
X1714258D02*
D03*
X1522996D02*
D03*
X1478800D02*
D03*
X1333512Y622180D02*
D03*
X1289316D02*
D03*
X1141234Y632594D02*
D03*
X1097038D02*
D03*
X948702Y622180D02*
D03*
X904506D02*
D03*
X669036Y609346D02*
D03*
X713232D02*
D03*
D22*
X1756629Y-91177D02*
D03*
X1632709Y-65777D02*
D03*
X1442208D02*
D03*
X1566128Y-91177D02*
D03*
X1376410Y-58674D02*
D03*
X1252490Y-33274D02*
D03*
X1061736Y-17272D02*
D03*
X1185656Y-42672D02*
D03*
X994624Y-59426D02*
D03*
X870704Y-34026D02*
D03*
X580660Y-163322D02*
D03*
X704580Y-188722D02*
D03*
X532084Y-268496D02*
D03*
X408163Y-243096D02*
D03*
X1680334Y124725D02*
D03*
X1804254Y99325D02*
D03*
X1566128D02*
D03*
X1442208Y124725D02*
D03*
X1253503Y158211D02*
D03*
X1377424Y132811D02*
D03*
X1186418Y147320D02*
D03*
X1062498Y172720D02*
D03*
X872500Y158211D02*
D03*
X996420Y132811D02*
D03*
X806688Y120396D02*
D03*
X682768Y145796D02*
D03*
X491506Y192532D02*
D03*
X615426Y167132D02*
D03*
X1804254Y289826D02*
D03*
X1680334Y315226D02*
D03*
X1442208D02*
D03*
X1566128Y289826D02*
D03*
X1375627Y321577D02*
D03*
X1251707Y346977D02*
D03*
X1061205Y362953D02*
D03*
X1185125Y337553D02*
D03*
X994624Y321577D02*
D03*
X870704Y346977D02*
D03*
X680990Y335788D02*
D03*
X804910Y310388D02*
D03*
X410956Y-9398D02*
D03*
X287036Y16002D02*
D03*
X1681496Y506730D02*
D03*
X1805416Y481330D02*
D03*
X1567418D02*
D03*
X1443498Y506730D02*
D03*
X1253760Y539750D02*
D03*
X1377680Y514350D02*
D03*
X1187942Y529590D02*
D03*
X1064022Y554990D02*
D03*
X872501Y539213D02*
D03*
X996421Y513813D02*
D03*
X805919Y501113D02*
D03*
X681999Y526513D02*
D03*
X491252Y478790D02*
D03*
X615172Y453390D02*
D03*
X1806178Y672338D02*
D03*
X1682258Y697738D02*
D03*
X1445276Y696468D02*
D03*
X1569196Y671068D02*
D03*
X1377424Y704315D02*
D03*
X1253503Y729715D02*
D03*
X1063006Y745744D02*
D03*
X1186926Y720344D02*
D03*
X996426Y704088D02*
D03*
X872506Y729488D02*
D03*
X680202Y715254D02*
D03*
X804122Y689854D02*
D03*
X615426Y692658D02*
D03*
X491506Y718058D02*
D03*
D23*
X313047Y-536412D02*
D03*
X273084Y-416394D02*
D03*
X195495Y-242186D02*
D03*
X235458Y-362204D02*
D03*
X153670Y-189738D02*
D03*
X113707Y-69720D02*
D03*
D24*
X566802Y802894D02*
D03*
X305942Y667004D02*
D03*
X246054Y853948D02*
D03*
X329284Y448203D02*
D03*
X313284Y484356D02*
D03*
X329284Y466279D02*
D03*
X313284Y393974D02*
D03*
Y430127D02*
D03*
Y412050D02*
D03*
X329284Y375898D02*
D03*
X255452Y813208D02*
D03*
X582802Y787146D02*
D03*
X378588Y898906D02*
D03*
X83692Y294172D02*
D03*
X84708Y264454D02*
D03*
X306196Y685038D02*
D03*
X456818Y668782D02*
D03*
D25*
X582802Y802894D02*
D03*
X289942Y667004D02*
D03*
X230054Y853948D02*
D03*
X313284Y448203D02*
D03*
X329284Y484356D02*
D03*
X313284Y466279D02*
D03*
X329284Y393974D02*
D03*
Y430127D02*
D03*
Y412050D02*
D03*
X313284Y375898D02*
D03*
X239452Y813208D02*
D03*
X566802Y787146D02*
D03*
X394588Y898906D02*
D03*
X99692Y294172D02*
D03*
X100708Y264454D02*
D03*
X290196Y685038D02*
D03*
X440818Y668782D02*
D03*
D26*
X421822Y124460D02*
D03*
X31822D02*
D03*
D27*
X148766Y831700D02*
D03*
Y838200D02*
D03*
Y844700D02*
D03*
X170766D02*
D03*
Y838200D02*
D03*
D28*
Y831700D02*
D03*
D30*
X441832Y622180D02*
D03*
Y617180D02*
D03*
Y612180D02*
D03*
Y607180D02*
D03*
X413132D02*
D03*
Y612180D02*
D03*
Y617180D02*
D03*
X540130Y807600D02*
D03*
Y802600D02*
D03*
Y797600D02*
D03*
Y792600D02*
D03*
X511430D02*
D03*
Y797600D02*
D03*
Y802600D02*
D03*
D31*
X413132Y622180D02*
D03*
X511430Y807600D02*
D03*
D32*
X419982Y629030D02*
D03*
X424982D02*
D03*
X429982D02*
D03*
X434982D02*
D03*
Y600330D02*
D03*
X429982D02*
D03*
X424982D02*
D03*
X419982D02*
D03*
X518280Y814450D02*
D03*
X523280D02*
D03*
X528280D02*
D03*
X533280D02*
D03*
Y785750D02*
D03*
X528280D02*
D03*
X523280D02*
D03*
X518280D02*
D03*
D33*
X314072Y750824D02*
D03*
X284862Y485648D02*
D03*
D34*
X330072Y750824D02*
D03*
X300862Y485648D02*
D03*
D35*
X464400Y821182D02*
D03*
X235292Y837946D02*
D03*
D36*
X475400Y821182D02*
D03*
X246292Y837946D02*
D03*
D37*
X197866Y849210D02*
D03*
X167132Y550838D02*
D03*
X643128Y810094D02*
D03*
X267462Y852766D02*
D03*
X212053Y335477D02*
D03*
X430276Y651080D02*
D03*
D38*
X197866Y860210D02*
D03*
X167132Y539838D02*
D03*
X643128Y821094D02*
D03*
X267462Y863766D02*
D03*
X212053Y324477D02*
D03*
X430276Y640080D02*
D03*
D39*
X294132Y736304D02*
D03*
D40*
Y741304D02*
D03*
Y746304D02*
D03*
Y751304D02*
D03*
Y756304D02*
D03*
Y761304D02*
D03*
Y766304D02*
D03*
Y771304D02*
D03*
Y776304D02*
D03*
Y781304D02*
D03*
Y786304D02*
D03*
Y791304D02*
D03*
X225432D02*
D03*
Y786304D02*
D03*
Y781304D02*
D03*
Y776304D02*
D03*
Y771304D02*
D03*
Y766304D02*
D03*
Y761304D02*
D03*
Y756304D02*
D03*
Y751304D02*
D03*
Y746304D02*
D03*
Y741304D02*
D03*
Y736304D02*
D03*
D41*
X287282Y798154D02*
D03*
X282282D02*
D03*
X277282D02*
D03*
X272282D02*
D03*
X267282D02*
D03*
X262282D02*
D03*
X257282D02*
D03*
X252282D02*
D03*
X247282D02*
D03*
X242282D02*
D03*
X237282D02*
D03*
X232282D02*
D03*
Y729454D02*
D03*
X237282D02*
D03*
X242282D02*
D03*
X247282D02*
D03*
X252282D02*
D03*
X257282D02*
D03*
X262282D02*
D03*
X267282D02*
D03*
X272282D02*
D03*
X277282D02*
D03*
X282282D02*
D03*
X287282D02*
D03*
D42*
X68834Y320330D02*
D03*
Y312330D02*
D03*
Y264330D02*
D03*
Y256330D02*
D03*
D43*
Y290830D02*
D03*
Y295830D02*
D03*
Y300830D02*
D03*
Y305830D02*
D03*
Y285830D02*
D03*
Y280830D02*
D03*
Y275830D02*
D03*
Y270830D02*
D03*
D44*
X428532Y926190D02*
D03*
X337532D02*
D03*
Y971190D02*
D03*
X428532D02*
D03*
D45*
X292852Y397416D02*
D03*
Y402416D02*
D03*
Y407416D02*
D03*
Y412416D02*
D03*
Y417416D02*
D03*
X259852D02*
D03*
Y412416D02*
D03*
Y407416D02*
D03*
Y402416D02*
D03*
Y397416D02*
D03*
D46*
X266352Y390916D02*
D03*
D47*
X271352D02*
D03*
X276352D02*
D03*
X281352D02*
D03*
X286352D02*
D03*
Y423916D02*
D03*
X281352D02*
D03*
X276352D02*
D03*
X271352D02*
D03*
X266352D02*
D03*
D48*
X614784Y802816D02*
D03*
X155852Y574118D02*
D03*
D49*
X621284Y802816D02*
D03*
X627784D02*
D03*
Y824816D02*
D03*
X621284D02*
D03*
X614784D02*
D03*
X149352Y574118D02*
D03*
X142852D02*
D03*
Y552118D02*
D03*
X149352D02*
D03*
X155852D02*
D03*
D50*
X662686Y824344D02*
D03*
X239522Y418846D02*
D03*
X268732Y464452D02*
D03*
X284454Y366105D02*
D03*
X215392Y418706D02*
D03*
X274320Y690258D02*
D03*
X258826Y690512D02*
D03*
X187960Y772020D02*
D03*
X208280Y772160D02*
D03*
X345694Y836028D02*
D03*
D51*
X662686Y806844D02*
D03*
X239522Y401346D02*
D03*
X268732Y481952D02*
D03*
X284454Y348606D02*
D03*
X215392Y401206D02*
D03*
X274320Y707758D02*
D03*
X258826Y708012D02*
D03*
X187960Y754520D02*
D03*
X208280Y754660D02*
D03*
X345694Y818528D02*
D03*
D52*
X288290Y458596D02*
D03*
X1622552Y802766D02*
D03*
X1856486Y809116D02*
D03*
X212852Y831722D02*
D03*
X171196Y754506D02*
D03*
X391922Y646050D02*
D03*
X86360Y-29210D02*
D03*
X96520Y426720D02*
D03*
X1428750Y798702D02*
D03*
X1214120Y801750D02*
D03*
X1012444Y798702D02*
D03*
X840232Y787272D02*
D03*
X626364Y771524D02*
D03*
D53*
X288290Y442596D02*
D03*
X1622552Y786766D02*
D03*
X1856486Y793116D02*
D03*
X212852Y815722D02*
D03*
X171196Y738506D02*
D03*
X391922Y662050D02*
D03*
X86360Y-45210D02*
D03*
X96520Y442720D02*
D03*
X1428750Y782702D02*
D03*
X1214120Y785750D02*
D03*
X1012444Y782702D02*
D03*
X840232Y771272D02*
D03*
X626364Y755524D02*
D03*
D54*
X240030Y442566D02*
D03*
D55*
Y464566D02*
D03*
D56*
X263994Y349736D02*
D03*
X231026Y871220D02*
D03*
X238078Y826262D02*
D03*
X345580Y735584D02*
D03*
X361302Y767334D02*
D03*
X329044Y777748D02*
D03*
X258940Y642366D02*
D03*
X224930Y693674D02*
D03*
X258940Y661670D02*
D03*
X342298Y751586D02*
D03*
X224930Y708914D02*
D03*
X249522Y887730D02*
D03*
X408318Y900176D02*
D03*
D57*
X246494Y349736D02*
D03*
X248526Y871220D02*
D03*
X255578Y826262D02*
D03*
X363080Y735584D02*
D03*
X343802Y767334D02*
D03*
X311544Y777748D02*
D03*
X241440Y642366D02*
D03*
X242430Y693674D02*
D03*
X241440Y661670D02*
D03*
X362298Y751586D02*
D03*
X242430Y708914D02*
D03*
X229522Y887730D02*
D03*
X425818Y900176D02*
D03*
D58*
X211582Y352806D02*
D03*
D59*
Y379806D02*
D03*
D60*
X103400Y808642D02*
D03*
Y818642D02*
D03*
X74400Y808642D02*
D03*
Y818642D02*
D03*
X103400Y828642D02*
D03*
D61*
X74400D02*
D03*
D62*
X242152Y618490D02*
D03*
X259752D02*
D03*
X114300Y473710D02*
D03*
X96700D02*
D03*
D63*
X326161Y790448D02*
D03*
X313411D02*
D03*
Y799084D02*
D03*
X326161D02*
D03*
D64*
X210134Y659638D02*
D03*
D65*
X183134D02*
D03*
D66*
X197358Y736400D02*
D03*
Y711400D02*
D03*
D67*
X267462Y811102D02*
D03*
X267543Y878475D02*
D03*
D68*
X267462Y821102D02*
D03*
X267543Y888475D02*
D03*
D69*
X268315Y840542D02*
D03*
D70*
X258315D02*
D03*
D71*
X114554Y426594D02*
D03*
D72*
Y442594D02*
D03*
D73*
X334264Y192876D02*
D03*
Y210476D02*
D03*
X96520Y499290D02*
D03*
Y516890D02*
D03*
D74*
X333248Y241554D02*
D03*
Y285750D02*
D03*
D75*
X125880Y292202D02*
D03*
X135380D02*
D03*
X144880D02*
D03*
Y268577D02*
D03*
X135380D02*
D03*
X125880D02*
D03*
D76*
X290242Y652526D02*
D03*
D77*
X280242D02*
D03*
D78*
X414274Y804164D02*
D03*
X454914D02*
D03*
X414274Y791464D02*
D03*
X454914D02*
D03*
Y778764D02*
D03*
Y766064D02*
D03*
X414274Y753364D02*
D03*
X454914D02*
D03*
D79*
X414274Y778764D02*
D03*
Y766064D02*
D03*
D155*
X383101Y776224D02*
D03*
X425958Y583692D02*
D03*
X458724Y654812D02*
D03*
X482346Y804672D02*
D03*
X347726Y891032D02*
D03*
X399034Y832358D02*
D03*
X346202Y850900D02*
D03*
X54864Y829056D02*
D03*
X117094Y830072D02*
D03*
X117348Y815340D02*
D03*
X201168Y626110D02*
D03*
X344678Y785368D02*
D03*
X341884Y800100D02*
D03*
X386842Y794766D02*
D03*
X387858Y754380D02*
D03*
X405384Y733044D02*
D03*
X482346Y788924D02*
D03*
X483108Y759460D02*
D03*
X449580Y727964D02*
D03*
X483108Y774192D02*
D03*
X116840Y499110D02*
D03*
X566674Y820166D02*
D03*
X523240Y761746D02*
D03*
X289560Y625856D02*
D03*
X366776Y836168D02*
D03*
X91440Y384556D02*
D03*
X187198Y400304D02*
D03*
X192786Y323596D02*
D03*
X363982Y226822D02*
D03*
D156*
X427482Y614680D02*
D03*
X525780Y800100D02*
D03*
D157*
X259782Y763804D02*
D03*
D158*
X276352Y407416D02*
D03*
D159*
X88900Y818642D02*
D03*
D160*
X305562Y909828D02*
D03*
X267716D02*
D03*
D161*
X226040Y621743D02*
X226109D01*
X221673Y626110D02*
X226040Y621743D01*
X201168Y626110D02*
X221673D01*
X226060Y621792D02*
X226109Y621743D01*
X238899D02*
X242152Y618490D01*
X197358Y640228D02*
Y679048D01*
Y640228D02*
X199844Y637742D01*
Y627434D02*
Y637742D01*
Y627434D02*
X201168Y626110D01*
X242430Y692674D02*
Y693674D01*
X233874Y684118D02*
X242430Y692674D01*
X218727Y684118D02*
X233874D01*
X218151Y684694D02*
X218727Y684118D01*
X203004Y684694D02*
X218151D01*
X197358Y679048D02*
X203004Y684694D01*
X226109Y621743D02*
X238899D01*
X362298Y751586D02*
X362689Y751195D01*
Y735975D02*
Y751195D01*
Y735975D02*
X363080Y735584D01*
X240030Y464566D02*
X251030D01*
X265272Y478808D01*
Y479492D01*
X267732Y481952D02*
X268732D01*
X265272Y479492D02*
X267732Y481952D01*
X234762Y815014D02*
X237646D01*
X239452Y813208D01*
X230054Y842737D02*
Y853948D01*
X229522Y842205D02*
X230054Y842737D01*
X229522Y820254D02*
Y842205D01*
Y820254D02*
X234762Y815014D01*
X216225Y853948D02*
X230054D01*
X193977Y831700D02*
X216225Y853948D01*
X170766Y831700D02*
X193977D01*
X268732Y481952D02*
X269732D01*
X187649Y400755D02*
X214941D01*
X215392Y401206D01*
X187198Y400304D02*
X187649Y400755D01*
X114826Y596628D02*
X115824Y595630D01*
X103364Y603544D02*
X110280Y596628D01*
X114826D01*
X76511Y634943D02*
Y676335D01*
Y634943D02*
X103364Y608090D01*
Y603544D02*
Y608090D01*
X154432Y595630D02*
X158369Y599567D01*
X115824Y595630D02*
X154432D01*
X263151Y715430D02*
X263200Y715478D01*
X263151Y712201D02*
Y715430D01*
X262286Y711336D02*
X263151Y712201D01*
X262286Y710472D02*
Y711336D01*
X259826Y708012D02*
X262286Y710472D01*
X257826Y708012D02*
X259826D01*
X248395Y723093D02*
X255366Y716122D01*
Y710472D02*
Y716122D01*
X47844Y420652D02*
X89877D01*
X47806Y420690D02*
X47844Y420652D01*
X229030Y464566D02*
X240030D01*
X183128Y418664D02*
X229030Y464566D01*
X91865Y418664D02*
X183128D01*
X89877Y420652D02*
X91865Y418664D01*
X47844Y440652D02*
X94452D01*
X47806Y440690D02*
X47844Y440652D01*
X94452D02*
X96700Y442900D01*
X242282Y729454D02*
Y732454D01*
X582802Y787146D02*
X598704Y771244D01*
Y770939D02*
Y771244D01*
Y770939D02*
X598752Y770890D01*
X238899Y621743D02*
X242152Y618490D01*
X249543Y407660D02*
X259392D01*
X292852Y372272D02*
Y396076D01*
X271375Y380008D02*
Y390456D01*
Y380008D02*
X271399Y379984D01*
X279703Y660195D02*
X283133D01*
X279654Y660146D02*
X279703Y660195D01*
X283133D02*
X289942Y667004D01*
X346710D02*
X351664Y662050D01*
X149699Y584714D02*
X155312Y579101D01*
X138913Y584714D02*
X149699D01*
X88896Y584708D02*
X138907D01*
X138913Y584714D01*
X257318Y708520D02*
X258318D01*
X351664Y662050D02*
X408872D01*
X236869Y674598D02*
X246388Y684118D01*
X222778Y658094D02*
X227330Y653542D01*
X285720Y671226D02*
X289942Y667004D01*
X249996Y671226D02*
X285720D01*
X241440Y662670D02*
X249996Y671226D01*
X155312Y574658D02*
Y579101D01*
Y574658D02*
X155852Y574118D01*
X242282Y729454D02*
X242299Y729437D01*
Y719091D02*
Y729437D01*
X582929Y802767D02*
X614172Y771524D01*
X614784Y783104D02*
X626364Y771524D01*
X614784Y783104D02*
Y802816D01*
X241440Y642366D02*
Y662670D01*
X242299Y719091D02*
X242365Y719025D01*
X290092Y653186D02*
Y666854D01*
X242365Y708979D02*
Y719025D01*
X42006Y710840D02*
Y731580D01*
X289942Y667004D02*
X290092Y666854D01*
X932053Y798702D02*
X1211072D01*
X741172Y787272D02*
X920623D01*
X170894Y828544D02*
X175667Y823771D01*
X170894Y828544D02*
Y831160D01*
X175667Y823771D02*
X179275D01*
X626364Y771524D02*
X725424D01*
X614172D02*
X626364D01*
X345694Y818528D02*
X376594D01*
X179275Y823771D02*
X179324Y823722D01*
X242430Y692674D02*
Y708914D01*
X156983Y851018D02*
X175391D01*
X255366Y710472D02*
X257318Y708520D01*
X242365Y708979D02*
X242430Y708914D01*
X96520Y499290D02*
X96610Y499200D01*
Y473800D02*
Y499200D01*
X116750Y499200D02*
X116840Y499110D01*
X96610Y473620D02*
X96700Y473710D01*
X363487Y721726D02*
Y735177D01*
X278288Y452354D02*
Y473396D01*
X269732Y481952D02*
X278288Y473396D01*
X271352Y445418D02*
X278288Y452354D01*
X181496Y410114D02*
X200248D01*
X92764Y385880D02*
X134566D01*
X136144Y387458D01*
X91440Y384556D02*
X92764Y385880D01*
X136144Y387458D02*
X158840D01*
X181496Y410114D01*
X253490Y424658D02*
Y440106D01*
Y424658D02*
X259392Y418756D01*
X240030Y442566D02*
X251030D01*
X253490Y440106D01*
X271352Y424376D02*
Y445418D01*
X211582Y379806D02*
X243122D01*
X259392Y396076D01*
X177199Y849210D02*
X197866D01*
X42006Y710840D02*
X76511Y676335D01*
X414274Y804164D02*
X415417Y805307D01*
X570076Y830278D02*
X576230Y824124D01*
X725424Y771524D02*
X741172Y787272D01*
X65170Y608434D02*
X88896Y584708D01*
X210134Y669249D02*
X215483Y674598D01*
X162433Y603631D02*
X177437Y618635D01*
X211678Y658094D02*
X222778D01*
X210134Y659638D02*
X211678Y658094D01*
X376594Y818528D02*
X390958Y804164D01*
X408872Y662050D02*
X415604Y668782D01*
X39229Y516890D02*
X96520D01*
X88896Y556241D02*
X96520Y548617D01*
X582802Y787146D02*
Y802894D01*
X425704Y805307D02*
X441579Y821182D01*
X471461Y830278D02*
X570076D01*
X390958Y804164D02*
X414274D01*
X464940Y821642D02*
X467304Y824006D01*
X9278Y241743D02*
X86360Y164661D01*
X415417Y805307D02*
X425704D01*
X86360Y-29210D02*
Y164661D01*
X88896Y556241D02*
Y584708D01*
X210134Y659638D02*
Y669249D01*
X290069Y667131D02*
Y684911D01*
X290196Y685038D01*
X289942Y667004D02*
X290069Y667131D01*
X467304Y826121D02*
X471461Y830278D01*
X467304Y824006D02*
Y826121D01*
X441579Y821182D02*
X463860D01*
X9278Y241743D02*
Y486939D01*
X96520Y516890D02*
Y548617D01*
X576230Y816208D02*
Y824124D01*
X574963Y810733D02*
Y814941D01*
X576230Y816208D01*
X574963Y810733D02*
X582802Y802894D01*
X1850136Y802766D02*
X1856486Y809116D01*
X1622552Y802766D02*
X1850136D01*
X1618488Y798702D02*
X1622552Y802766D01*
X1428750Y798702D02*
X1618488D01*
X1214120Y801750D02*
X1425702D01*
X1428750Y798702D01*
X1211072D02*
X1214120Y801750D01*
X430594Y668782D02*
X440818D01*
X430594Y651398D02*
Y668782D01*
X430276Y651080D02*
X430594Y651398D01*
X193227Y324036D02*
X211613D01*
X192786Y323596D02*
X193227Y324036D01*
X211613D02*
X212053Y324477D01*
X116766Y312330D02*
X128338Y300758D01*
X165259Y323596D02*
X192786D01*
X68834Y312330D02*
X116766D01*
X142422Y300758D02*
X165259Y323596D01*
X68834Y312330D02*
X68834Y312330D01*
X241796Y620396D02*
Y642010D01*
X415604Y668782D02*
X430594D01*
X215483Y674598D02*
X236869D01*
X175391Y851018D02*
X177199Y849210D01*
X920623Y787272D02*
X932053Y798702D01*
X96610Y442990D02*
X96700Y442900D01*
X96610Y499200D02*
X116750D01*
X96610Y473800D02*
X96700Y473710D01*
X96520Y499290D02*
X96610Y499200D01*
X96610Y442990D02*
Y473620D01*
X241440Y642366D02*
X241796Y642010D01*
X9278Y486939D02*
X39229Y516890D01*
X362822Y735842D02*
X363487Y735177D01*
D162*
X247426Y724062D02*
Y727694D01*
Y724062D02*
X248395Y723093D01*
D163*
X254658Y402172D02*
X259392D01*
X252926Y400441D02*
X254658Y402172D01*
X248192Y400441D02*
X252926D01*
D164*
X276210Y362300D02*
Y372570D01*
D165*
X292852Y362453D02*
Y372272D01*
D166*
X158369Y599567D02*
X162433Y603631D01*
D167*
X136144Y337458D02*
D03*
Y362458D02*
D03*
X313398Y556602D02*
D03*
X293398D02*
D03*
X273398D02*
D03*
X253398D02*
D03*
X233398D02*
D03*
X213398D02*
D03*
X193398D02*
D03*
D168*
X136144Y387458D02*
D03*
D169*
X155702Y880110D02*
D03*
D170*
X181102D02*
D03*
D171*
X242764Y747802D02*
D03*
X243018Y758724D02*
D03*
X243272Y769138D02*
D03*
Y780568D02*
D03*
X253940Y780314D02*
D03*
Y747802D02*
D03*
X254194Y758978D02*
D03*
X253940Y769138D02*
D03*
X265116D02*
D03*
Y758724D02*
D03*
X265370Y747548D02*
D03*
X276038D02*
D03*
Y758724D02*
D03*
X276292Y769392D02*
D03*
Y780314D02*
D03*
X265116D02*
D03*
D172*
X58134Y317230D02*
D03*
Y259430D02*
D03*
D173*
X63034Y331580D02*
D03*
Y245080D02*
D03*
D174*
X21334Y331580D02*
D03*
Y245080D02*
D03*
D175*
X47806Y460690D02*
D03*
D176*
Y440690D02*
D03*
Y420690D02*
D03*
X22806Y460690D02*
D03*
Y440690D02*
D03*
Y420690D02*
D03*
D177*
X35306Y490690D02*
D03*
Y390690D02*
D03*
D178*
X268602Y407416D02*
D03*
X276352D02*
D03*
X284102D02*
D03*
X276352Y399666D02*
D03*
Y415166D02*
D03*
D179*
X333398Y556602D02*
D03*
D180*
X65170Y608434D02*
D03*
D181*
X115170D02*
D03*
X65170Y753434D02*
D03*
X90170D02*
D03*
X115170D02*
D03*
D182*
X33170Y678434D02*
D03*
X147170D02*
D03*
D183*
X36576Y869950D02*
D03*
X782574Y-330962D02*
D03*
D184*
X229330Y809558D02*
D03*
X324866Y760222D02*
D03*
X315722Y761859D02*
D03*
X259588Y847090D02*
D03*
X240030Y861568D02*
D03*
X241554Y845566D02*
D03*
X413132Y593852D02*
D03*
X382524Y836168D02*
D03*
X346202Y843718D02*
D03*
X356305Y836168D02*
D03*
X393700Y864870D02*
D03*
X415290Y821690D02*
D03*
X393700Y605790D02*
D03*
Y519430D02*
D03*
X415290Y476250D02*
D03*
X393700Y433070D02*
D03*
X415290Y389890D02*
D03*
X393700Y346710D02*
D03*
X415290Y303530D02*
D03*
X393700Y260350D02*
D03*
X415290Y217170D02*
D03*
X393700Y173990D02*
D03*
Y87630D02*
D03*
X350520Y864870D02*
D03*
X372110Y648970D02*
D03*
X350520Y605790D02*
D03*
X372110Y562610D02*
D03*
X350520Y519430D02*
D03*
X372110Y476250D02*
D03*
X350520Y433070D02*
D03*
X372110Y389890D02*
D03*
X350520Y346710D02*
D03*
X372110Y303530D02*
D03*
X350520Y260350D02*
D03*
X372110Y217170D02*
D03*
Y130810D02*
D03*
X350520Y87630D02*
D03*
X307340Y864870D02*
D03*
X328930Y735330D02*
D03*
X307340Y605790D02*
D03*
Y519430D02*
D03*
Y346710D02*
D03*
Y260350D02*
D03*
Y173990D02*
D03*
X328930Y130810D02*
D03*
X307340Y87630D02*
D03*
X264160Y519430D02*
D03*
Y260350D02*
D03*
X285750Y217170D02*
D03*
X264160Y173990D02*
D03*
X285750Y130810D02*
D03*
X264160Y87630D02*
D03*
X242570Y562610D02*
D03*
X220980Y519430D02*
D03*
Y433070D02*
D03*
X242570Y389890D02*
D03*
X220980Y260350D02*
D03*
X242570Y217170D02*
D03*
X220980Y173990D02*
D03*
X242570Y130810D02*
D03*
X220980Y87630D02*
D03*
X177800Y692150D02*
D03*
Y605790D02*
D03*
Y519430D02*
D03*
X199390Y476250D02*
D03*
X177800Y433070D02*
D03*
X199390Y303530D02*
D03*
X177800Y260350D02*
D03*
X199390Y217170D02*
D03*
X177800Y173990D02*
D03*
X199390Y130810D02*
D03*
X177800Y87630D02*
D03*
X134620Y864870D02*
D03*
X156210Y821690D02*
D03*
Y735330D02*
D03*
X134620Y605790D02*
D03*
Y519430D02*
D03*
X156210Y476250D02*
D03*
X134620Y433070D02*
D03*
X156210Y303530D02*
D03*
Y217170D02*
D03*
X134620Y173990D02*
D03*
X156210Y130810D02*
D03*
X134620Y87630D02*
D03*
X91440Y864870D02*
D03*
Y605790D02*
D03*
X113030Y562610D02*
D03*
X91440Y346710D02*
D03*
X113030Y217170D02*
D03*
X91440Y173990D02*
D03*
X113030Y130810D02*
D03*
X69850Y735330D02*
D03*
Y648970D02*
D03*
X48260Y605790D02*
D03*
X69850Y562610D02*
D03*
Y476250D02*
D03*
Y389890D02*
D03*
X48260Y346710D02*
D03*
Y260350D02*
D03*
X69850Y217170D02*
D03*
X48260Y173990D02*
D03*
X69850Y130810D02*
D03*
X48260Y87630D02*
D03*
X220949Y800077D02*
D03*
X209642Y796147D02*
D03*
X217873Y763823D02*
D03*
X218600Y772713D02*
D03*
X214976Y783882D02*
D03*
X206629Y781685D02*
D03*
X204915Y803973D02*
D03*
X186944Y807974D02*
D03*
X80010Y276352D02*
D03*
X88392Y280670D02*
D03*
X286619Y380893D02*
D03*
X398272Y573278D02*
D03*
X128778Y576834D02*
D03*
X290068Y815594D02*
D03*
X278511Y807339D02*
D03*
X257302Y805942D02*
D03*
X598752Y770890D02*
D03*
X226060Y621792D02*
D03*
X258318Y867410D02*
D03*
X279400Y867918D02*
D03*
X249543Y407660D02*
D03*
X248192Y400441D02*
D03*
X251714Y415544D02*
D03*
X246634Y355600D02*
D03*
X361431Y794755D02*
D03*
X614934Y815594D02*
D03*
X121920Y566674D02*
D03*
X276210Y372570D02*
D03*
X171958Y788162D02*
D03*
X313944Y648970D02*
D03*
X288290Y696722D02*
D03*
X266439Y683395D02*
D03*
X346710Y667004D02*
D03*
X284734Y601980D02*
D03*
X279654Y660146D02*
D03*
X168068Y779192D02*
D03*
X193642Y780305D02*
D03*
X369824Y800354D02*
D03*
X128016Y552704D02*
D03*
X606806Y791972D02*
D03*
X287559Y705671D02*
D03*
X156464Y769874D02*
D03*
X261874Y597916D02*
D03*
X132080Y565912D02*
D03*
X30734Y155956D02*
D03*
X321945Y750189D02*
D03*
X499110Y776478D02*
D03*
X271399Y379984D02*
D03*
X338201Y777621D02*
D03*
X269488Y661442D02*
D03*
X117356Y584708D02*
D03*
X306324Y494538D02*
D03*
X502722Y800093D02*
D03*
X498856Y789940D02*
D03*
X539249Y783837D02*
D03*
X175998Y771593D02*
D03*
X182727Y763585D02*
D03*
X203482Y596365D02*
D03*
X228092Y419354D02*
D03*
X301752Y411988D02*
D03*
X295275Y696087D02*
D03*
X263200Y715478D02*
D03*
X273431Y687925D02*
D03*
X301498Y717550D02*
D03*
X338963Y464947D02*
D03*
X242316Y719074D02*
D03*
X455168Y697230D02*
D03*
X433204Y574160D02*
D03*
X441579Y590677D02*
D03*
X676402Y815340D02*
D03*
X624078Y791464D02*
D03*
X594106Y638810D02*
D03*
X780874Y641858D02*
D03*
X596148Y388102D02*
D03*
X584195Y106167D02*
D03*
X1735074Y556437D02*
D03*
X1356746Y67178D02*
D03*
X1161796Y81534D02*
D03*
X976884Y649986D02*
D03*
X1165352Y653796D02*
D03*
X1362710Y644398D02*
D03*
X1543128Y618490D02*
D03*
X1537970Y42672D02*
D03*
X787654Y439166D02*
D03*
X972566Y453644D02*
D03*
X1160272Y472362D02*
D03*
X1350264Y462749D02*
D03*
X1540002Y434340D02*
D03*
X1781810Y424434D02*
D03*
X1786890Y231902D02*
D03*
X1537467Y226309D02*
D03*
X1357884Y258318D02*
D03*
X1173988Y277114D02*
D03*
X985520Y267716D02*
D03*
X777494Y62992D02*
D03*
X777870Y247264D02*
D03*
X1777746Y42672D02*
D03*
X977392Y60706D02*
D03*
X965200Y-110998D02*
D03*
X1154176Y-107950D02*
D03*
X1353312Y-123190D02*
D03*
X1535684Y-138430D02*
D03*
X1742694Y-145288D02*
D03*
X389128Y-65532D02*
D03*
X358902Y-213614D02*
D03*
X410464Y-389382D02*
D03*
X688340Y-250952D02*
D03*
X506984Y-326136D02*
D03*
X265430Y-44196D02*
D03*
X822706Y218694D02*
D03*
X636270Y364490D02*
D03*
X1579372Y393446D02*
D03*
X1190498Y233172D02*
D03*
X150643Y332564D02*
D03*
X278130Y903986D02*
D03*
X258572Y902970D02*
D03*
X407924Y902716D02*
D03*
X382524D02*
D03*
X369824D02*
D03*
X357124D02*
D03*
X344424D02*
D03*
X331724D02*
D03*
X319024D02*
D03*
X306324D02*
D03*
X293624D02*
D03*
X242824D02*
D03*
X230124D02*
D03*
X217424D02*
D03*
X204724D02*
D03*
X192024D02*
D03*
X179324D02*
D03*
X166624D02*
D03*
X153924D02*
D03*
X141224D02*
D03*
X128524D02*
D03*
X115824D02*
D03*
X103124D02*
D03*
X90424D02*
D03*
X77724D02*
D03*
X65024D02*
D03*
X52324D02*
D03*
X39624D02*
D03*
X26924D02*
D03*
X14224D02*
D03*
X1388364Y255778D02*
D03*
Y209550D02*
D03*
X1391158Y66548D02*
D03*
Y19812D02*
D03*
X556260Y836501D02*
D03*
X465328Y-29210D02*
D03*
X336182Y734553D02*
D03*
X363487Y721726D02*
D03*
X554990Y844296D02*
D03*
X1410716Y842264D02*
D03*
X202819Y825881D02*
D03*
X270891Y620141D02*
D03*
X177437Y618635D02*
D03*
X179324Y823722D02*
D03*
X200248Y410114D02*
D03*
X682244Y802132D02*
D03*
X1588649Y810514D02*
D03*
X1601978Y785876D02*
D03*
X1578864Y602488D02*
D03*
Y541528D02*
D03*
X1578610Y415036D02*
D03*
X1574038Y217678D02*
D03*
X1575054Y195834D02*
D03*
X1576578Y25654D02*
D03*
X1575816Y9652D02*
D03*
X737616Y764540D02*
D03*
X536448Y775970D02*
D03*
X551942Y797814D02*
D03*
X647192Y792226D02*
D03*
X977650Y804925D02*
D03*
X995172Y786384D02*
D03*
X639318Y699008D02*
D03*
X639826Y588264D02*
D03*
X636270Y379476D02*
D03*
X640588Y262636D02*
D03*
X636778Y226314D02*
D03*
X641858Y76454D02*
D03*
X633730Y53848D02*
D03*
X429514Y-27178D02*
D03*
X811899Y56019D02*
D03*
X1418590Y772668D02*
D03*
X539242Y824055D02*
D03*
X424434Y704850D02*
D03*
X279400Y830580D02*
D03*
X279146Y838454D02*
D03*
X279400Y847598D02*
D03*
Y856996D02*
D03*
X278384Y885190D02*
D03*
X277622Y895350D02*
D03*
X258572Y884936D02*
D03*
X279146Y876808D02*
D03*
X259334Y855218D02*
D03*
X258318Y876808D02*
D03*
X267716Y455676D02*
D03*
X262516Y446292D02*
D03*
Y433965D02*
D03*
X1015746Y38354D02*
D03*
X1181354Y640842D02*
D03*
Y625602D02*
D03*
X1178306Y456692D02*
D03*
X1178214Y435448D02*
D03*
X1189736Y217170D02*
D03*
X1182116Y81534D02*
D03*
X1180592Y43688D02*
D03*
X1389126Y636016D02*
D03*
Y599694D02*
D03*
X1388364Y445516D02*
D03*
X1387094Y408432D02*
D03*
X65532Y799338D02*
D03*
X180975Y838073D02*
D03*
X284607Y807593D02*
D03*
X335026Y790956D02*
D03*
X305054Y797306D02*
D03*
X469773Y811403D02*
D03*
X290957Y636143D02*
D03*
X270121Y643763D02*
D03*
X318389Y677291D02*
D03*
X129413Y443865D02*
D03*
X131699Y473837D02*
D03*
X107823Y300101D02*
D03*
X110597Y264307D02*
D03*
X531749Y770001D02*
D03*
X259461Y679831D02*
D03*
X215773Y695071D02*
D03*
X417322Y637032D02*
D03*
X368427Y775524D02*
D03*
X338201Y375031D02*
D03*
X337947Y447421D02*
D03*
X266065Y338709D02*
D03*
X285115Y337947D02*
D03*
X80645Y323723D02*
D03*
X78502Y251189D02*
D03*
X390398Y592328D02*
D03*
X220980Y866140D02*
D03*
X224050Y723011D02*
D03*
X215767Y703193D02*
D03*
X227330Y653542D02*
D03*
X255016Y376428D02*
D03*
X245683Y370738D02*
D03*
X263906Y363474D02*
D03*
X203454Y365252D02*
D03*
X176756Y366762D02*
D03*
X176022Y387858D02*
D03*
X811784Y33020D02*
D03*
X821690Y237490D02*
D03*
X831088Y425704D02*
D03*
X830580Y403860D02*
D03*
X826008Y607822D02*
D03*
X824992Y586486D02*
D03*
X1009904Y629920D02*
D03*
X1011174Y608330D02*
D03*
X1015746Y436626D02*
D03*
X1016254Y419354D02*
D03*
X1019810Y246634D02*
D03*
X1021334Y228600D02*
D03*
X1015238Y58969D02*
D03*
D185*
X259080Y893826D02*
D03*
M02*
