G04*
G04 #@! TF.GenerationSoftware,Altium Limited,Altium Designer,24.5.2 (23)*
G04*
G04 Layer_Physical_Order=4*
G04 Layer_Color=16711680*
%FSLAX44Y44*%
%MOMM*%
G71*
G04*
G04 #@! TF.SameCoordinates,B2DEAD2E-F19F-4043-ADCB-FE0AD24F75F7*
G04*
G04*
G04 #@! TF.FilePolarity,Positive*
G04*
G01*
G75*
%ADD14C,0.2540*%
%ADD15C,0.1524*%
%ADD159C,0.5080*%
%ADD160C,1.3080*%
%ADD161R,1.3080X1.3080*%
%ADD162O,3.0000X6.0000*%
%ADD163C,1.6500*%
%ADD164R,1.6500X1.6500*%
%ADD165C,0.3000*%
G04:AMPARAMS|DCode=166|XSize=1.308mm|YSize=1.308mm|CornerRadius=0.327mm|HoleSize=0mm|Usage=FLASHONLY|Rotation=90.000|XOffset=0mm|YOffset=0mm|HoleType=Round|Shape=RoundedRectangle|*
%AMROUNDEDRECTD166*
21,1,1.3080,0.6540,0,0,90.0*
21,1,0.6540,1.3080,0,0,90.0*
1,1,0.6540,0.3270,0.3270*
1,1,0.6540,0.3270,-0.3270*
1,1,0.6540,-0.3270,-0.3270*
1,1,0.6540,-0.3270,0.3270*
%
%ADD166ROUNDEDRECTD166*%
%ADD167O,1.7000X0.9000*%
%ADD168O,2.0000X0.9000*%
%ADD169C,0.6000*%
%ADD170C,4.5720*%
%ADD171C,2.2650*%
%ADD172C,1.4380*%
%ADD173R,1.4380X1.4380*%
%ADD174C,4.0000*%
%ADD175C,5.9000*%
%ADD176C,0.5000*%
%ADD177C,0.5334*%
%ADD178C,0.5842*%
%ADD199R,1.5000X0.9000*%
D14*
X1771139Y-162367D02*
Y-138237D01*
X1721426Y-212080D02*
X1771139Y-162367D01*
X1718426Y-212080D02*
X1721426D01*
X1771139Y-138237D02*
X1793870Y-115506D01*
Y678882D01*
X1623503Y849249D02*
X1793870Y678882D01*
X459867Y849249D02*
X1623503D01*
X419354Y808736D02*
X459867Y849249D01*
X375412Y808736D02*
X419354D01*
X370359Y803683D02*
X375412Y808736D01*
X370359Y800889D02*
Y803683D01*
X369824Y800354D02*
X370359Y800889D01*
X315722Y766064D02*
X316230D01*
X332740Y782574D01*
X349250D02*
X361431Y794755D01*
X332740Y782574D02*
X349250D01*
D15*
X1718426Y-169556D02*
X1742694Y-145288D01*
X1718426Y-179080D02*
Y-169556D01*
X1510871Y-212080D02*
X1550150Y-172802D01*
X1568841Y-212080D02*
X1601841Y-179080D01*
X1550150Y-172802D02*
X1677663D01*
X1677310Y-185710D02*
X1678704Y-184317D01*
X1674901Y-185710D02*
X1677310D01*
X1660533Y-200079D02*
X1674901Y-185710D01*
X1660533Y-206187D02*
Y-200079D01*
Y-206187D02*
X1666426Y-212080D01*
X1601841Y-179080D02*
X1669426D01*
X1677663Y-172802D02*
X1678704Y-173843D01*
Y-184317D02*
Y-173843D01*
X1525386Y-212080D02*
X1568841D01*
X1666426D02*
X1672426D01*
X1476386D02*
X1510871D01*
X1722442Y-142480D02*
Y-122896D01*
X1676164Y-188758D02*
X1722442Y-142480D01*
X1676164Y-208342D02*
Y-188758D01*
X1672426Y-212080D02*
X1676164Y-208342D01*
X1722442Y-122896D02*
X1743197Y-102141D01*
X1712098Y-29962D02*
X1713622Y-28438D01*
X1712098Y-38782D02*
Y-29962D01*
Y-38782D02*
X1743197Y-69881D01*
Y-102141D02*
Y-69881D01*
X1318848Y-189220D02*
X1342724Y-165344D01*
X1477164D01*
X1485664Y-173843D01*
X1467493Y-202488D02*
X1485664Y-184317D01*
X1467493Y-206187D02*
Y-202488D01*
Y-206187D02*
X1473386Y-212080D01*
X1399188Y-167884D02*
X1410384Y-179080D01*
X1476386D01*
X1387708Y-167884D02*
X1399188D01*
X1473386Y-212080D02*
X1476386D01*
X1485664Y-184317D02*
Y-173843D01*
X1366372Y-189220D02*
X1387708Y-167884D01*
X1333362Y-189220D02*
X1366372D01*
X1293640D02*
X1318848D01*
X1525386Y-148728D02*
X1535684Y-138430D01*
X1525386Y-179080D02*
Y-148728D01*
X1243723Y-150612D02*
X1249331Y-156220D01*
X1284362D01*
X1158428Y-150612D02*
X1243723D01*
X1140830Y-168210D02*
X1158428Y-150612D01*
X1140830Y-174996D02*
Y-168210D01*
X1158621Y-128606D02*
X1271263D01*
X1293640Y-150983D01*
X1284362Y-189220D02*
X1293640D01*
Y-150983D01*
X1340100Y-136402D02*
X1353312Y-123190D01*
X1340100Y-152482D02*
Y-136402D01*
X1336362Y-156220D02*
X1340100Y-152482D01*
X1333362Y-156220D02*
X1336362D01*
X1042368Y-160010D02*
X1060382Y-141996D01*
X1091830D01*
X954974Y-160010D02*
X1042368D01*
X952616Y-162368D02*
X954974Y-160010D01*
X952616Y-168392D02*
Y-162368D01*
X951854Y-169154D02*
X952616Y-168392D01*
X937339Y-169154D02*
X1002989Y-103505D01*
X1112584Y-155728D02*
X1139706Y-128606D01*
X1002989Y-103505D02*
X1156017D01*
X1112584Y-164028D02*
Y-155728D01*
X1101616Y-174996D02*
X1112584Y-164028D01*
X1158621Y-128606D02*
Y-106109D01*
X1139706Y-128606D02*
X1158621D01*
X1091830Y-174996D02*
X1101616D01*
X1156017Y-103505D02*
X1158621Y-106109D01*
X906616Y-169154D02*
X937339D01*
X1144361Y-107950D02*
X1154176D01*
X1082552Y-169760D02*
X1144361Y-107950D01*
X1082552Y-180233D02*
Y-169760D01*
Y-180233D02*
X1083594Y-181274D01*
X1100067D01*
X1119645Y-161696D01*
Y-153395D01*
X1131044Y-141996D01*
X1140830D01*
X613294Y-287772D02*
X615786D01*
X610294D02*
X613294D01*
X952616Y-126399D02*
X959354Y-119661D01*
X952616Y-135392D02*
Y-126399D01*
X951854Y-136154D02*
X952616Y-135392D01*
X959354Y-119661D02*
Y-116844D01*
X965200Y-110998D01*
X885243Y-142383D02*
X893625D01*
X899854Y-136154D01*
X902854D01*
X739854Y-287772D02*
X885243Y-142383D01*
X662294Y-287772D02*
X739854D01*
X909592Y-152301D02*
X912894Y-148998D01*
X909592Y-166178D02*
Y-152301D01*
X906616Y-169154D02*
X909592Y-166178D01*
X912894Y-148998D02*
Y-121774D01*
X613294Y-287772D02*
X615786D01*
X902854Y-169154D02*
X906616D01*
X911852Y-120732D02*
X912894Y-121774D01*
X781101Y-120732D02*
X911852D01*
X619524Y-282309D02*
X781101Y-120732D01*
X257632Y-51994D02*
X265430Y-44196D01*
X257632Y-60361D02*
Y-51994D01*
X263215Y-80992D02*
X276232D01*
X257632Y-86575D02*
X263215Y-80992D01*
X257632Y-93361D02*
Y-86575D01*
X276232Y-80992D02*
X309862Y-114623D01*
X322718Y-113730D02*
Y-106944D01*
X321825Y-114623D02*
X322718Y-113730D01*
X309862Y-114623D02*
X321825D01*
X215370Y-30856D02*
X295429Y49203D01*
X215370Y-56623D02*
Y-30856D01*
X211632Y-60361D02*
X215370Y-56623D01*
X208632Y-60361D02*
X211632D01*
X541556Y323352D02*
X574664D01*
X470559Y252355D02*
X541556Y323352D01*
X444189Y252355D02*
X470559D01*
X389255Y197421D02*
X444189Y252355D01*
X389255Y141669D02*
Y197421D01*
X296790Y49203D02*
X389255Y141669D01*
X295429Y49203D02*
X296790D01*
X215207Y-80000D02*
X229993D01*
X208632Y-86575D02*
X215207Y-80000D01*
X208632Y-93361D02*
Y-86575D01*
X230624Y-80000D02*
Y-79369D01*
Y-80868D02*
Y-80000D01*
Y-80868D02*
X254680Y-104923D01*
X254916D01*
X261243Y-111249D01*
X230624Y-79369D02*
X236271Y-73722D01*
X494400Y-338720D02*
X506984Y-326136D01*
X494400Y-365516D02*
Y-338720D01*
X547948Y-347968D02*
Y-317118D01*
X497400Y-398516D02*
X547948Y-347968D01*
X494400Y-398516D02*
X497400D01*
X554596Y-343470D02*
X610294Y-287772D01*
X554596Y-352834D02*
Y-343470D01*
X502636Y-404794D02*
X554596Y-352834D01*
X481764Y-404794D02*
X502636D01*
X467807Y-390837D02*
X481764Y-404794D01*
X446935Y-390837D02*
X467807D01*
X446042Y-391730D02*
X446935Y-390837D01*
X547948Y-317118D02*
X610294Y-254772D01*
X613294D01*
X431297Y-388879D02*
Y-369833D01*
X435614Y-365516D01*
X445400D01*
X431297Y-388879D02*
X432050Y-389632D01*
Y-434910D02*
Y-389632D01*
X425772Y-441188D02*
X432050Y-434910D01*
X422772Y-441188D02*
X425772D01*
X436114Y-412066D02*
X438662Y-409519D01*
Y-402254D01*
X442400Y-398516D01*
X445400D01*
X436114Y-442360D02*
Y-412066D01*
X431008Y-447466D02*
X436114Y-442360D01*
X408898Y-447466D02*
X431008D01*
X402620Y-441188D02*
X408898Y-447466D01*
X370772Y-441188D02*
X402620D01*
X446042Y-397874D02*
Y-391730D01*
X445400Y-398516D02*
X446042Y-397874D01*
X358894Y-272964D02*
X359656D01*
X352620Y-266690D02*
X358894Y-272964D01*
X349620Y-266690D02*
X352620D01*
X359656Y-272964D02*
X392994Y-306302D01*
X373772Y-408188D02*
X376772D01*
X392994Y-391966D01*
Y-306302D01*
X307358Y-212934D02*
X337171Y-183121D01*
X307358Y-229952D02*
Y-212934D01*
X303620Y-233690D02*
X307358Y-229952D01*
X300620Y-233690D02*
X303620D01*
X565846Y34880D02*
X569584Y38618D01*
X560258Y34880D02*
X565846D01*
X530552Y5175D02*
X560258Y34880D01*
X499406Y5175D02*
X530552D01*
X469773Y-24459D02*
X499406Y5175D01*
X469773Y-56403D02*
Y-24459D01*
X343055Y-183121D02*
X469773Y-56403D01*
X337171Y-183121D02*
X343055D01*
X261243Y-230312D02*
Y-111249D01*
Y-230312D02*
X297620Y-266690D01*
X300620D01*
X292492Y-278722D02*
X293882Y-277332D01*
Y-270428D01*
X297620Y-266690D01*
X292492Y-362908D02*
Y-278722D01*
Y-362908D02*
X370772Y-441188D01*
X358902Y-214645D02*
Y-213614D01*
X356358Y-217189D02*
X358902Y-214645D01*
X356358Y-229952D02*
Y-217189D01*
X352620Y-233690D02*
X356358Y-229952D01*
X349620Y-233690D02*
X352620D01*
X378456Y-76204D02*
X389128Y-65532D01*
X378456Y-103206D02*
Y-76204D01*
X374718Y-106944D02*
X378456Y-103206D01*
X371718Y-106944D02*
X374718D01*
X422086Y-92576D02*
Y-68446D01*
X374718Y-139944D02*
X422086Y-92576D01*
X371718Y-139944D02*
X374718D01*
X422086Y-68446D02*
X425069Y-65463D01*
X707322Y215128D02*
X710322D01*
X679340Y243110D02*
X707322Y215128D01*
X659860Y243110D02*
X679340D01*
X638619Y221869D02*
X659860Y243110D01*
X596042Y221869D02*
X638619D01*
X425069Y50896D02*
X596042Y221869D01*
X425069Y-65463D02*
Y50896D01*
X236271Y-73722D02*
X304010D01*
X331996Y-101707D01*
Y-133666D02*
Y-101707D01*
X325718Y-139944D02*
X331996Y-133666D01*
X322718Y-139944D02*
X325718D01*
X569584Y71618D02*
X571108D01*
Y93080D02*
X585470Y107442D01*
X571108Y71618D02*
Y93080D01*
X638874Y44896D02*
X688658Y-4888D01*
X555710Y44896D02*
X638874D01*
X549432Y38618D02*
X555710Y44896D01*
X520584Y38618D02*
X549432D01*
X706584Y-4888D02*
X710322Y-8626D01*
X688658Y-4888D02*
X706584D01*
X531060Y67880D02*
X531132Y67808D01*
X524322Y67880D02*
X531060D01*
X520584Y71618D02*
X524322Y67880D01*
X531132Y67808D02*
X550956D01*
X728808Y-8626D02*
X759322D01*
X686253Y33928D02*
X728808Y-8626D01*
X686253Y33928D02*
Y38345D01*
X643699Y80899D02*
X686253Y38345D01*
X622241Y80899D02*
X643699D01*
X602872Y61530D02*
X622241Y80899D01*
X557234Y61530D02*
X602872D01*
X550956Y67808D02*
X557234Y61530D01*
X766060Y51558D02*
X777494Y62992D01*
X766060Y28112D02*
Y51558D01*
X762322Y24374D02*
X766060Y28112D01*
X759322Y24374D02*
X762322D01*
X771385Y-2204D02*
X939480D01*
X744808Y24374D02*
X771385Y-2204D01*
X710322Y24374D02*
X744808D01*
X945758Y4074D02*
X956680D01*
X939480Y-2204D02*
X945758Y4074D01*
X701178Y-22206D02*
X703584Y-19800D01*
Y-12364D01*
X707322Y-8626D01*
X710322D01*
X701178Y-185642D02*
Y-22206D01*
X619524Y-267296D02*
X701178Y-185642D01*
X619524Y-282309D02*
Y-267296D01*
X976663Y59977D02*
X977392Y60706D01*
X973305Y59977D02*
X976663D01*
X957188Y43860D02*
X973305Y59977D01*
X957188Y37582D02*
Y43860D01*
X956680Y37074D02*
X957188Y37582D01*
X929975Y65647D02*
X945085D01*
X908188Y43860D02*
X929975Y65647D01*
X908188Y37582D02*
Y43860D01*
X907680Y37074D02*
X908188Y37582D01*
X945085Y65647D02*
X948951Y69514D01*
X1135290Y18298D02*
X1138290D01*
X1108568Y45020D02*
X1135290Y18298D01*
X1061377Y45020D02*
X1108568D01*
X1036883Y69514D02*
X1061377Y45020D01*
X948951Y69514D02*
X1036883D01*
X1022437Y38759D02*
X1065829D01*
X1017587Y33909D02*
X1022437Y38759D01*
X972001Y33909D02*
X1017587D01*
X942166Y4074D02*
X972001Y33909D01*
X907680Y4074D02*
X942166D01*
X1065829Y38759D02*
X1086290Y18298D01*
X1161486Y81534D02*
X1161796D01*
X1138036Y58084D02*
X1161486Y81534D01*
X1138036Y51552D02*
Y58084D01*
Y51552D02*
X1138290Y51298D01*
X1116985Y85779D02*
X1129046D01*
X1089290Y58084D02*
X1116985Y85779D01*
X1089290Y51298D02*
Y58084D01*
X1129046Y85779D02*
X1129799Y86532D01*
X1335140Y2550D02*
X1338140D01*
X1344033Y8443D01*
Y9706D01*
X1333729Y20010D02*
X1344033Y9706D01*
X1285016Y20010D02*
X1333729D01*
X1218494Y86532D02*
X1285016Y20010D01*
X1129799Y86532D02*
X1218494D01*
X1086290Y18298D02*
X1118138D01*
X1183151Y13632D02*
X1240275D01*
X1181540Y12020D02*
X1183151Y13632D01*
X1124416Y12020D02*
X1181540D01*
X1118138Y18298D02*
X1124416Y12020D01*
X1240275Y13632D02*
X1247618Y6288D01*
X1282402D02*
X1286140Y2550D01*
X1247618Y6288D02*
X1282402D01*
X1336024Y46456D02*
X1356746Y67178D01*
X1336024Y36434D02*
Y46456D01*
X1335140Y35550D02*
X1336024Y36434D01*
X1383628Y15367D02*
X1477809D01*
X1376445Y22550D02*
X1383628Y15367D01*
X1330034Y22550D02*
X1376445D01*
X1317033Y35550D02*
X1330034Y22550D01*
X1286140Y35550D02*
X1317033D01*
X1512552Y-27676D02*
X1522338D01*
X1496584Y-11709D02*
X1512552Y-27676D01*
X1496584Y-11709D02*
Y-3408D01*
X1477809Y15367D02*
X1496584Y-3408D01*
X1347113Y-23938D02*
X1469600D01*
X1320625Y2550D02*
X1347113Y-23938D01*
X1286140Y2550D02*
X1320625D01*
X1469600Y-23938D02*
X1473338Y-27676D01*
X1494044Y-13897D02*
X1514102Y-33954D01*
X1522338Y27040D02*
X1537970Y42672D01*
X1522338Y5324D02*
Y27040D01*
X1617928Y-33954D02*
X1655984Y4102D01*
X1514102Y-33954D02*
X1617928D01*
X1655984Y4102D02*
X1695597D01*
X1513049Y-36494D02*
X1702566D01*
X1498338Y-21783D02*
X1513049Y-36494D01*
X1482231Y-21783D02*
X1498338D01*
X1494044Y-13897D02*
Y-5597D01*
X1483124Y5324D02*
X1494044Y-5597D01*
X1473338Y5324D02*
X1483124D01*
X1710622Y-28438D02*
X1713622D01*
X1702566Y-36494D02*
X1710622Y-28438D01*
X1476338Y-27676D02*
X1482231Y-21783D01*
X1695597Y4102D02*
X1728136Y-28438D01*
X1762622D01*
X1473338Y-27676D02*
X1476338D01*
X1712098Y6086D02*
Y73648D01*
Y6086D02*
X1713622Y4562D01*
X1746570Y161046D02*
X1763130D01*
X1731884Y146360D02*
X1746570Y161046D01*
X1708452Y146360D02*
X1731884D01*
X1693766Y131674D02*
X1708452Y146360D01*
X1693766Y91980D02*
Y131674D01*
Y91980D02*
X1712098Y73648D01*
X1790822Y-14752D02*
Y147868D01*
X1770858Y-34716D02*
X1790822Y-14752D01*
X1722900Y-34716D02*
X1770858D01*
X1716622Y-28438D02*
X1722900Y-34716D01*
X1762622Y27548D02*
X1777746Y42672D01*
X1762622Y4562D02*
Y27548D01*
X1713622Y-28438D02*
X1716622D01*
X1717130Y161046D02*
X1742978D01*
X1749256Y167324D01*
X1771366D01*
X1790822Y147868D01*
X1763384Y208396D02*
X1786890Y231902D01*
X1763384Y194300D02*
Y208396D01*
X1763130Y194046D02*
X1763384Y194300D01*
X1629174Y223510D02*
X1658638Y194046D01*
X1714130D01*
X1573584Y223510D02*
X1629174D01*
X1526536Y176462D02*
X1573584Y223510D01*
X1526536Y167324D02*
Y176462D01*
X1522798Y163586D02*
X1526536Y167324D01*
X1519798Y163586D02*
X1522798D01*
X1714130Y161046D02*
X1717130D01*
X1520269Y233090D02*
X1689601D01*
X1723408Y199282D01*
Y167324D02*
Y199282D01*
X1717130Y161046D02*
X1723408Y167324D01*
X1500426Y213248D02*
X1520269Y233090D01*
X1500426Y183428D02*
Y213248D01*
X1482036Y165038D02*
X1500426Y183428D01*
X1520301Y209143D02*
X1537467Y226309D01*
X1520301Y197089D02*
Y209143D01*
X1519798Y196586D02*
X1520301Y197089D01*
X1323855Y200344D02*
X1428235D01*
X1482036Y165038D02*
Y199863D01*
X1479034Y202864D02*
X1482036Y199863D01*
X1430755Y202864D02*
X1479034D01*
X1428235Y200344D02*
X1430755Y202864D01*
X1470798Y163586D02*
X1480584D01*
X1482036Y165038D01*
X1317578Y194066D02*
X1323855Y200344D01*
X1283092Y194066D02*
X1317578D01*
X1478603Y187534D02*
X1479496Y188427D01*
Y190888D01*
X1473798Y196586D02*
X1479496Y190888D01*
X1470798Y196586D02*
X1473798D01*
X1388158Y187534D02*
X1478603D01*
X1381626Y194066D02*
X1388158Y187534D01*
X1332092Y194066D02*
X1381626D01*
X1190292Y250688D02*
X1266002D01*
X1282838Y233852D01*
Y227320D02*
Y233852D01*
Y227320D02*
X1283092Y227066D01*
X1146878Y207274D02*
X1190292Y250688D01*
X1143878Y207274D02*
X1146878D01*
X1214217Y217688D02*
X1266002D01*
X1282838Y200852D01*
Y194320D02*
Y200852D01*
Y194320D02*
X1283092Y194066D01*
X1197525Y200996D02*
X1214217Y217688D01*
X1135641Y200996D02*
X1197525D01*
X1120976Y215661D02*
X1135641Y200996D01*
X1120976Y215661D02*
Y225121D01*
X1106311Y239786D02*
X1120976Y225121D01*
X1104156Y239786D02*
X1106311D01*
X1357155Y257589D02*
X1357884Y258318D01*
X1355829Y257589D02*
X1357155D01*
X1332092Y233852D02*
X1355829Y257589D01*
X1332092Y227066D02*
Y233852D01*
X1094878Y207274D02*
X1097878D01*
X1009466D02*
X1094878D01*
X989726Y187534D02*
X1009466Y207274D01*
X939464Y187534D02*
X989726D01*
X927293Y199705D02*
X939464Y187534D01*
X909207Y199705D02*
X927293D01*
X903314Y193812D02*
X909207Y199705D01*
X900314Y193812D02*
X903314D01*
X1104156Y213552D02*
Y239786D01*
Y293813D01*
X1173932Y277114D02*
X1173988D01*
X1143878Y247060D02*
X1173932Y277114D01*
X1143878Y240274D02*
Y247060D01*
X1074637Y323332D02*
X1104156Y293813D01*
X1097878Y207274D02*
X1104156Y213552D01*
X1074637Y323332D02*
Y388702D01*
X1038613Y222778D02*
X1056109Y240274D01*
X1094878D01*
X981280Y222778D02*
X1038613D01*
X952314Y193812D02*
X981280Y222778D01*
X949314Y193812D02*
X952314D01*
X978415Y262329D02*
X980133D01*
X949684Y233598D02*
X978415Y262329D01*
X949684Y227182D02*
Y233598D01*
X949314Y226812D02*
X949684Y227182D01*
X980133Y262329D02*
X985520Y267716D01*
X850756Y208850D02*
X868718Y226812D01*
X900314D01*
X722530Y208850D02*
X850756D01*
X701044Y187365D02*
X722530Y208850D01*
X701044Y176891D02*
Y187365D01*
Y176891D02*
X702085Y175850D01*
X735679D01*
X741957Y182128D01*
X759322D01*
X844193Y206310D02*
X852953Y197550D01*
X896576D01*
X900314Y193812D01*
X737504Y206310D02*
X844193D01*
X713322Y182128D02*
X737504Y206310D01*
X710322Y182128D02*
X713322D01*
X766060Y235454D02*
X777870Y247264D01*
X766060Y218866D02*
Y235454D01*
X762322Y215128D02*
X766060Y218866D01*
X759322Y215128D02*
X762322D01*
X563959Y401433D02*
X565824D01*
X525664Y363138D02*
X563959Y401433D01*
X525664Y356352D02*
Y363138D01*
X565824Y401433D02*
X571492Y407100D01*
X728139Y371866D02*
X762624D01*
X692905Y407100D02*
X728139Y371866D01*
X571492Y407100D02*
X692905D01*
X581402Y373356D02*
X596148Y388102D01*
X581402Y360090D02*
Y373356D01*
X577664Y356352D02*
X581402Y360090D01*
X574664Y356352D02*
X577664D01*
X532402Y347792D02*
X585432Y400822D01*
X532402Y327090D02*
Y347792D01*
X528664Y323352D02*
X532402Y327090D01*
X525664Y323352D02*
X528664D01*
X585432Y400822D02*
X650603D01*
X709886Y375604D02*
X713624Y371866D01*
X675821Y375604D02*
X709886D01*
X650603Y400822D02*
X675821Y375604D01*
X821883Y396359D02*
X890093D01*
X791112Y365588D02*
X821883Y396359D01*
X722902Y365588D02*
X791112D01*
X716624Y371866D02*
X722902Y365588D01*
X890093Y396359D02*
X902394Y384058D01*
X829247Y430149D02*
X906817D01*
X797686Y398588D02*
X829247Y430149D01*
X748750Y398588D02*
X797686D01*
X742472Y404866D02*
X748750Y398588D01*
X713624Y404866D02*
X742472D01*
X944608Y384058D02*
X954394D01*
X925713Y402953D02*
X944608Y384058D01*
X925713Y402953D02*
Y411254D01*
X906817Y430149D02*
X925713Y411254D01*
X713624Y371866D02*
X716624D01*
X902394Y384058D02*
X905394D01*
X763640Y415152D02*
X787654Y439166D01*
X763640Y405882D02*
Y415152D01*
X762624Y404866D02*
X763640Y405882D01*
X905394Y384058D02*
X908394D01*
X923173Y400765D02*
X946158Y377780D01*
X1017587Y441071D02*
X1067416Y391242D01*
X961132Y442210D02*
X972566Y453644D01*
X961132Y420796D02*
Y442210D01*
X957394Y417058D02*
X961132Y420796D01*
X954394Y417058D02*
X957394D01*
X1013905Y441071D02*
X1017587D01*
X988268Y415434D02*
X1013905Y441071D01*
X988268Y403417D02*
Y415434D01*
X962630Y377780D02*
X988268Y403417D01*
X946158Y377780D02*
X962630D01*
X923173Y400765D02*
Y402279D01*
X908394Y417058D02*
X923173Y402279D01*
X1067416Y391242D02*
X1115983D01*
X1002656Y388702D02*
X1074637D01*
X989194Y375240D02*
X1002656Y388702D01*
X917212Y375240D02*
X989194D01*
X908394Y384058D02*
X917212Y375240D01*
X905394Y417058D02*
X908394D01*
X1122261Y397520D02*
X1146164D01*
X1115983Y391242D02*
X1122261Y397520D01*
X1226624Y461137D02*
X1300909Y386852D01*
X1162266Y461137D02*
X1226624D01*
X1131649Y430520D02*
X1162266Y461137D01*
X1097164Y430520D02*
X1131649D01*
X1124492Y472362D02*
X1160272D01*
X1087886Y435756D02*
X1124492Y472362D01*
X1088928Y424242D02*
X1136886D01*
X1143164Y430520D01*
X1146164D01*
X1087886Y425284D02*
Y435756D01*
Y425284D02*
X1088928Y424242D01*
X1300909Y386852D02*
X1335394D01*
X1154400Y403798D02*
X1155442Y402757D01*
X1134190Y400060D02*
X1137927Y403798D01*
X1151861Y388702D02*
X1155442Y392284D01*
X1074637Y388702D02*
X1151861D01*
X1137927Y403798D02*
X1154400D01*
X1155442Y392284D02*
Y402757D01*
X1121208Y400060D02*
X1134190D01*
X1097164Y397520D02*
X1118668D01*
X1121208Y400060D01*
X1143585Y422436D01*
X1231615D01*
X1282656Y390590D02*
X1286394Y386852D01*
X1263461Y390590D02*
X1282656D01*
X1231615Y422436D02*
X1263461Y390590D01*
X1404585Y449961D02*
X1499951Y354594D01*
X1382126Y449961D02*
X1404585D01*
X1345739Y413574D02*
X1382126Y449961D01*
X1323280Y413574D02*
X1345739D01*
X1309324Y427531D02*
X1323280Y413574D01*
X1287287Y427531D02*
X1309324D01*
X1350264Y462749D02*
Y463550D01*
X1335394Y447879D02*
X1350264Y462749D01*
X1335394Y419852D02*
Y447879D01*
X1286394Y426638D02*
X1287287Y427531D01*
X1300748Y510927D02*
Y564474D01*
X1277116Y414616D02*
Y487295D01*
Y414616D02*
X1288380Y403352D01*
X1333409D01*
X1344672Y392089D01*
X1295672Y380574D02*
X1343631D01*
X1289394Y386852D02*
X1295672Y380574D01*
X1286394Y386852D02*
X1289394D01*
X1343631Y380574D02*
X1372600D01*
X1343631D02*
X1344672Y381615D01*
Y392089D01*
X1287870Y577352D02*
X1319355D01*
X1284870D02*
X1287870D01*
X1281870D02*
X1284870D01*
X1286394Y419852D02*
Y426638D01*
X1372600Y380574D02*
X1374814Y382788D01*
X1287870Y577352D02*
X1300748Y564474D01*
X1374814Y382788D02*
X1419726D01*
X1499951Y354594D02*
X1530466D01*
X1522229Y381316D02*
X1642297D01*
X1510058Y393487D02*
X1522229Y381316D01*
X1490359Y393487D02*
X1510058D01*
X1540002Y433309D02*
Y434340D01*
X1537204Y430511D02*
X1540002Y433309D01*
X1537204Y391332D02*
Y430511D01*
X1533466Y387594D02*
X1537204Y391332D01*
X1530466Y387594D02*
X1533466D01*
X1642297Y381316D02*
X1649031Y388050D01*
X1484466Y387594D02*
X1490359Y393487D01*
X1649031Y388050D02*
X1696205D01*
X1481466Y387594D02*
X1484466D01*
X1728391Y355864D02*
X1762876D01*
X1696205Y388050D02*
X1728391Y355864D01*
X1591536Y362023D02*
X1678621D01*
X1577829Y348316D02*
X1591536Y362023D01*
X1490744Y348316D02*
X1577829D01*
X1484466Y354594D02*
X1490744Y348316D01*
X1481466Y354594D02*
X1484466D01*
X1678621Y362023D02*
X1681042Y359602D01*
X1419726Y382788D02*
X1444182Y358332D01*
X1477728D01*
X1481466Y354594D01*
X1710138Y359602D02*
X1713876Y355864D01*
X1681042Y359602D02*
X1710138D01*
X1762876Y405500D02*
X1781810Y424434D01*
X1762876Y388864D02*
Y405500D01*
X1713876Y388864D02*
Y480832D01*
X1703328Y577586D02*
X1713114D01*
X1694928Y569186D02*
X1703328Y577586D01*
X1694928Y499780D02*
Y569186D01*
Y499780D02*
X1713876Y480832D01*
X1735074Y556437D02*
Y557376D01*
X1723223Y544586D02*
X1735074Y556437D01*
X1713114Y544586D02*
X1723223D01*
X1699975Y614344D02*
X1755376Y558943D01*
Y548324D02*
Y558943D01*
Y548324D02*
X1759114Y544586D01*
X1762114D01*
X1679770Y614344D02*
X1699975D01*
X1602509Y537083D02*
X1679770Y614344D01*
X1559658Y537083D02*
X1602509D01*
X1553933Y542808D02*
X1559658Y537083D01*
X1526148Y542808D02*
X1553933D01*
X1585710Y616884D02*
X1729602D01*
X1762114Y584372D01*
Y577586D02*
Y584372D01*
X1511633Y542808D02*
X1585710Y616884D01*
X1477148Y542808D02*
X1511633D01*
X1419896Y607558D02*
X1452184D01*
X1477148Y582594D01*
Y575808D02*
Y582594D01*
X1407587Y595249D02*
X1419896Y607558D01*
X1404057Y595249D02*
X1407587D01*
X1386160Y577352D02*
X1404057Y595249D01*
X1333870Y577352D02*
X1386160D01*
X1532886Y608248D02*
X1543128Y618490D01*
X1532886Y579546D02*
Y608248D01*
X1529148Y575808D02*
X1532886Y579546D01*
X1526148Y575808D02*
X1529148D01*
X1415351Y571074D02*
X1439879Y546546D01*
X1473410D01*
X1477148Y542808D01*
X1325634Y571074D02*
X1415351D01*
X1319355Y577352D02*
X1325634Y571074D01*
X1340608Y622296D02*
X1362710Y644398D01*
X1340608Y614090D02*
Y622296D01*
X1336870Y610352D02*
X1340608Y614090D01*
X1333870Y610352D02*
X1336870D01*
X1229477Y641340D02*
X1260668D01*
X1284870Y617138D01*
Y610352D02*
Y617138D01*
X1202065Y613928D02*
X1229477Y641340D01*
X1163254Y613928D02*
X1202065D01*
X1143370Y594044D02*
X1163254Y613928D01*
X1143370Y587258D02*
Y594044D01*
X1220709Y606359D02*
X1252862D01*
X1281870Y577352D01*
X1195330Y580980D02*
X1220709Y606359D01*
X1135134Y580980D02*
X1195330D01*
X1121177Y594937D02*
X1135134Y580980D01*
X1095263Y594937D02*
X1121177D01*
X1094370Y594044D02*
X1095263Y594937D01*
X1277116Y487295D02*
X1300748Y510927D01*
X998776Y646928D02*
X1073724D01*
X1093608Y627044D01*
Y621020D02*
Y627044D01*
Y621020D02*
X1094370Y620258D01*
X996188Y644340D02*
X998776Y646928D01*
X996188Y621988D02*
Y644340D01*
X953076Y578876D02*
X996188Y621988D01*
X950076Y578876D02*
X953076D01*
X1034213Y613928D02*
X1069208D01*
X1089092Y594044D02*
X1093608D01*
X1069208Y613928D02*
X1089092Y594044D01*
X992883Y572598D02*
X1034213Y613928D01*
X940227Y572598D02*
X992883D01*
X928055Y584769D02*
X940227Y572598D01*
X909969Y584769D02*
X928055D01*
X904076Y578876D02*
X909969Y584769D01*
X901076Y578876D02*
X904076D01*
X1094370Y587258D02*
Y594044D01*
X1143370Y631814D02*
X1165352Y653796D01*
X1143370Y620258D02*
Y631814D01*
X819759Y636514D02*
X883224D01*
X901076Y618662D01*
Y611876D02*
Y618662D01*
X769362Y586117D02*
X819759Y636514D01*
X769362Y565850D02*
Y586117D01*
X765624Y562112D02*
X769362Y565850D01*
X762624Y562112D02*
X765624D01*
X848539Y603514D02*
X883224D01*
X901076Y585662D01*
Y578876D02*
Y585662D01*
X800859Y555834D02*
X848539Y603514D01*
X752775Y555834D02*
X800859D01*
X740603Y568005D02*
X752775Y555834D01*
X722517Y568005D02*
X740603D01*
X716624Y562112D02*
X722517Y568005D01*
X713624Y562112D02*
X716624D01*
X956814Y629916D02*
X976884Y649986D01*
X956814Y615614D02*
Y629916D01*
X953076Y611876D02*
X956814Y615614D01*
X950076Y611876D02*
X953076D01*
X527322Y587844D02*
X585464Y645986D01*
X527322Y568390D02*
Y587844D01*
X524600Y565668D02*
X527322Y568390D01*
X520584Y565668D02*
X524600D01*
X555070D01*
X606552Y690266D02*
Y789178D01*
X585464Y669179D02*
X606552Y690266D01*
X585464Y645986D02*
Y669179D01*
X562617Y558120D02*
X645728D01*
X555070Y565668D02*
X562617Y558120D01*
X645728D02*
X657000Y569392D01*
X703344D01*
X710624Y562112D01*
X713624D01*
X570600Y615304D02*
X594106Y638810D01*
X570600Y599684D02*
Y615304D01*
X569584Y598668D02*
X570600Y599684D01*
X569584Y565668D02*
X572584D01*
X576454Y569538D01*
X581594Y564398D01*
X671854Y595112D02*
X713624D01*
X660561Y583819D02*
X671854Y595112D01*
X641975Y583819D02*
X660561D01*
X622554Y564398D02*
X641975Y583819D01*
X581594Y564398D02*
X622554D01*
X763132Y624116D02*
X780874Y641858D01*
X763132Y595620D02*
Y624116D01*
X762624Y595112D02*
X763132Y595620D01*
X222758Y809244D02*
X233013D01*
Y810165D02*
X236220Y806958D01*
X233013Y810165D02*
Y810291D01*
X234854Y814736D02*
X237806Y811784D01*
X212726D02*
X228220D01*
X235907Y817276D02*
X238858Y814324D01*
X209614D02*
X227168D01*
X231172Y814736D02*
X234854D01*
X237806Y811784D02*
X243114D01*
X238858Y814324D02*
X244793D01*
X227168D02*
X230120Y817276D01*
X228220Y811784D02*
X231172Y814736D01*
X230120Y817276D02*
X235907D01*
X488638Y759720D02*
X511898Y782980D01*
X315446Y759720D02*
X488638D01*
X511898Y795616D02*
X523621Y807339D01*
X511898Y782980D02*
Y795616D01*
X494411Y781177D02*
X499110Y776478D01*
X494411Y781177D02*
Y798067D01*
X276210Y372570D02*
X276210D01*
X276352Y372713D01*
Y381317D01*
X265881Y391788D02*
X276352Y381317D01*
X258296Y391788D02*
X265881D01*
X248335Y401750D02*
X258296Y391788D01*
X246888Y356108D02*
X270764Y379984D01*
X271399D01*
X374269Y801307D02*
X377761Y804799D01*
X371665Y795909D02*
X374269Y798513D01*
Y801307D01*
X367983Y795909D02*
X371665D01*
X355156Y812038D02*
X365189Y802005D01*
Y798703D02*
X367983Y795909D01*
X365189Y798703D02*
Y802005D01*
X377761Y804799D02*
X469455D01*
X488711Y824055D01*
X275209Y657675D02*
X278706Y654179D01*
X275209Y675498D02*
X277876Y678165D01*
Y695988D01*
X278706Y654179D02*
X282079D01*
X275209Y657675D02*
Y675498D01*
X266439Y664678D02*
Y683395D01*
X261874Y659320D02*
X265043Y662489D01*
Y663283D02*
X266439Y664678D01*
X265043Y662489D02*
Y663283D01*
X282079Y654179D02*
X284734Y651524D01*
X277876Y695988D02*
X287559Y705671D01*
X261874Y597916D02*
Y659320D01*
X288290Y674624D02*
X313944Y648970D01*
X288290Y674624D02*
Y696722D01*
X208470Y777240D02*
X214976Y783745D01*
Y783882D01*
X203074Y808418D02*
X203708D01*
X204915Y803973D02*
X212726Y811784D01*
X200787Y799529D02*
Y801815D01*
X200470Y802132D02*
Y805814D01*
X203708Y808418D02*
X209614Y814324D01*
X200470Y805814D02*
X203074Y808418D01*
X200470Y802132D02*
X200787Y801815D01*
X215456Y792099D02*
X220695Y786861D01*
X165767Y788162D02*
X171958D01*
X210058Y796544D02*
X222758Y809244D01*
X200787Y799529D02*
X208217Y792099D01*
X215456D01*
X168068Y778879D02*
Y779192D01*
X167176Y777986D02*
X168068Y778879D01*
X158290Y777986D02*
X167176D01*
X165005Y787400D02*
X165767Y788162D01*
X152019Y771715D02*
X158290Y777986D01*
X152019Y770822D02*
Y771715D01*
X126238Y605320D02*
Y745041D01*
X152019Y770822D01*
X164112Y787400D02*
X165005D01*
X121011Y743406D02*
X149479Y771874D01*
Y772767D02*
X164112Y787400D01*
X149479Y771874D02*
Y772767D01*
X130392Y743802D02*
X156464Y769874D01*
X130392Y656484D02*
Y743802D01*
X120326Y575452D02*
X123020D01*
X118707Y597789D02*
X126238Y605320D01*
X116995Y597789D02*
X118707D01*
X108726Y589521D02*
X116995Y597789D01*
X132080Y565912D02*
Y566392D01*
X108726Y583460D02*
X119274Y572912D01*
X121968D01*
X127635Y553085D02*
X128016Y552704D01*
X121968Y572912D02*
X127635Y567245D01*
X108726Y583460D02*
Y589521D01*
X123020Y575452D02*
X132080Y566392D01*
X111266Y584512D02*
X120326Y575452D01*
X111266Y584512D02*
Y588469D01*
X127635Y553085D02*
Y567245D01*
X111266Y588469D02*
X118047Y595249D01*
X105142Y583452D02*
X121920Y566674D01*
X105142Y583452D02*
Y733728D01*
X114820Y743406D02*
X121011D01*
X105142Y733728D02*
X114820Y743406D01*
X398272Y573278D02*
X473911Y648917D01*
X220695Y774807D02*
Y786861D01*
X218600Y772713D02*
X220695Y774807D01*
X194517Y780305D02*
X197582Y777240D01*
X208470D01*
X118047Y595249D02*
X130365D01*
X139065Y603949D01*
Y647811D01*
X193642Y780305D02*
X194517D01*
X130392Y656484D02*
X139065Y647811D01*
X546981Y836287D02*
X554990Y844296D01*
X494411Y798067D02*
X513843Y817499D01*
X540024Y814959D02*
X556260Y831195D01*
X589026Y812419D02*
X596646Y820039D01*
X502722Y800093D02*
X517589Y814959D01*
X664337Y820039D02*
X682244Y802132D01*
X513843Y817499D02*
X538972D01*
X521335Y812419D02*
X589026D01*
X523621Y807339D02*
X606679D01*
X498856Y789940D02*
X521335Y812419D01*
X596646Y820039D02*
X664337D01*
X517589Y814959D02*
X540024D01*
X546981Y825508D02*
Y836287D01*
X606679Y807339D02*
X614934Y815594D01*
X539249Y783837D02*
Y791407D01*
X182727Y763585D02*
X189762D01*
X244793Y814324D02*
X247333Y811784D01*
X282512D01*
X243114D02*
X249972Y804926D01*
X257302D01*
X189762Y763585D02*
X231775Y721572D01*
Y624658D02*
Y721572D01*
X203482Y596365D02*
X231775Y624658D01*
X284734Y601980D02*
Y651524D01*
X447548Y704850D02*
X455168Y697230D01*
X295275Y696087D02*
X313436Y677926D01*
X424434Y704850D02*
X447548D01*
X218120Y754272D02*
X261359Y711033D01*
X271114Y723392D02*
X363474D01*
X263200Y715478D02*
X271114Y723392D01*
X282766Y812038D02*
X355156D01*
X294981Y711033D02*
X301498Y717550D01*
X261359Y711033D02*
X294981D01*
X282512Y811784D02*
X282766Y812038D01*
X476303Y648917D02*
X551942Y724556D01*
Y797814D01*
X473911Y648917D02*
X476303D01*
X218120Y754272D02*
Y765260D01*
X684520Y-254772D02*
X688340Y-250952D01*
X662294Y-254772D02*
X684520D01*
X410464Y-389382D02*
X422772Y-401690D01*
Y-408188D02*
Y-401690D01*
X821690Y237490D02*
X822706Y236474D01*
X636270Y364490D02*
Y379476D01*
X619524Y-284034D02*
Y-282309D01*
X639318Y699008D02*
X639826Y698500D01*
X463296Y-27178D02*
X465328Y-29210D01*
X429514Y-27178D02*
X463296D01*
X1578864Y541528D02*
Y602488D01*
X1015746Y436626D02*
X1016254Y436118D01*
X615786Y-287772D02*
X619524Y-284034D01*
X1575816Y24892D02*
X1576578Y25654D01*
X1016254Y419354D02*
Y436118D01*
X977650Y803906D02*
X995172Y786384D01*
X830580Y403860D02*
Y425196D01*
X1575054Y195834D02*
Y216662D01*
X811784Y55903D02*
X811899Y56019D01*
X1180592Y80010D02*
X1182116Y81534D01*
X488711Y824055D02*
X539242D01*
X556260Y831195D02*
Y836501D01*
X538972Y817499D02*
X546981Y825508D01*
X1410716Y780542D02*
X1418590Y772668D01*
X1410716Y780542D02*
Y842264D01*
X1387094Y408432D02*
Y444246D01*
X1388364Y445516D01*
X1391158Y19812D02*
Y66548D01*
X1388364Y209550D02*
Y255778D01*
X1389126Y599694D02*
Y636016D01*
X1178214Y456600D02*
X1178306Y456692D01*
X1180592Y43688D02*
Y80010D01*
X1189736Y232410D02*
X1190498Y233172D01*
X1189736Y217170D02*
Y232410D01*
X1178214Y435448D02*
Y456600D01*
X1181354Y625602D02*
Y640842D01*
X1019810Y230124D02*
Y246634D01*
X534804Y777614D02*
X536448Y775970D01*
X824992Y586486D02*
Y606806D01*
X624999Y802259D02*
X662718Y764540D01*
X824992Y606806D02*
X826008Y607822D01*
X539249Y791407D02*
X550101Y802259D01*
X624999D01*
X636778Y226314D02*
Y258826D01*
X639826Y588264D02*
Y698500D01*
X633730Y53848D02*
Y68326D01*
X636778Y258826D02*
X640588Y262636D01*
X633730Y68326D02*
X641858Y76454D01*
X1009904Y629920D02*
X1011174Y628650D01*
X1015746Y38354D02*
Y58461D01*
X1015238Y58969D02*
X1015746Y58461D01*
X634619Y804799D02*
X647192Y792226D01*
X549049Y804799D02*
X634619D01*
X534804Y777614D02*
Y790554D01*
X549049Y804799D01*
X1019810Y230124D02*
X1021334Y228600D01*
X1011174Y608330D02*
Y628650D01*
X977650Y803906D02*
Y804925D01*
X811784Y33020D02*
Y55903D01*
X830580Y425196D02*
X831088Y425704D01*
X662718Y764540D02*
X737616D01*
X822706Y218694D02*
Y236474D01*
X1575816Y9652D02*
Y24892D01*
X1578610Y415036D02*
X1579372Y414274D01*
Y393446D02*
Y414274D01*
X1601978Y785876D02*
Y797185D01*
X1588649Y810514D02*
X1601978Y797185D01*
X1574038Y217678D02*
X1575054Y216662D01*
X250286Y410114D02*
X251206Y409194D01*
X177437Y618635D02*
X212344Y653542D01*
X191198Y807974D02*
X241586Y858362D01*
X391922Y593852D02*
X410464D01*
X212344Y653542D02*
X227330D01*
X241586Y858362D02*
Y860565D01*
X186944Y807974D02*
X191198D01*
X313436Y677926D02*
X317754D01*
X318389Y677291D01*
X390398Y592328D02*
X391922Y593852D01*
D159*
X306464Y867016D02*
X364236Y809244D01*
X279654Y660146D02*
X281178Y658622D01*
X291084D01*
X306959Y642747D01*
X322453D01*
X346710Y667004D01*
X179324Y782066D02*
X242316Y719074D01*
X179324Y782066D02*
Y823722D01*
X117356Y584708D02*
X183024D01*
X191859Y823722D02*
X235153Y867016D01*
X306464D01*
X250286Y410114D02*
X251123Y409277D01*
X200248Y410114D02*
X250286D01*
X179324Y823722D02*
X191859D01*
X183024Y584708D02*
X224790Y626474D01*
D160*
X193398Y556602D02*
D03*
X213398D02*
D03*
X233398D02*
D03*
X253398D02*
D03*
X273398D02*
D03*
X293398D02*
D03*
X313398D02*
D03*
X136144Y362458D02*
D03*
Y337458D02*
D03*
D161*
X333398Y556602D02*
D03*
D162*
X147170Y678434D02*
D03*
X33170D02*
D03*
D163*
X115170Y753434D02*
D03*
X90170D02*
D03*
X65170D02*
D03*
X115170Y608434D02*
D03*
D164*
X65170D02*
D03*
D165*
X268602Y407416D02*
D03*
X276352D02*
D03*
X284102D02*
D03*
X276352Y399666D02*
D03*
Y415166D02*
D03*
D166*
X136144Y387458D02*
D03*
D167*
X21334Y245080D02*
D03*
Y331580D02*
D03*
D168*
X63034Y245080D02*
D03*
Y331580D02*
D03*
D169*
X58134Y259430D02*
D03*
Y317230D02*
D03*
D170*
X782574Y-330962D02*
D03*
X36576Y869950D02*
D03*
D171*
X34036Y390652D02*
D03*
Y490652D02*
D03*
D172*
X21536Y420652D02*
D03*
Y440652D02*
D03*
Y460652D02*
D03*
X46536Y420652D02*
D03*
Y440652D02*
D03*
D173*
Y460652D02*
D03*
D174*
X1499615Y456463D02*
D03*
X1737741Y75460D02*
D03*
X1118612Y-67314D02*
D03*
X250688Y-288346D02*
D03*
X737609Y94511D02*
D03*
X1499615Y265962D02*
D03*
X1118612Y694691D02*
D03*
X928110Y297712D02*
D03*
X547108Y427888D02*
D03*
Y665990D02*
D03*
X737609Y285012D02*
D03*
X1309113Y678715D02*
D03*
Y107211D02*
D03*
X547108Y142136D02*
D03*
X463773Y-294096D02*
D03*
X1309113Y-83291D02*
D03*
X1499615Y75460D02*
D03*
X1499615Y646939D02*
D03*
X1737742Y456463D02*
D03*
X1690116Y-115041D02*
D03*
X928110Y-83291D02*
D03*
X170195Y-115701D02*
D03*
X928110Y107211D02*
D03*
X1309113Y297712D02*
D03*
X928110Y678715D02*
D03*
Y488213D02*
D03*
X737609Y475513D02*
D03*
Y665990D02*
D03*
X1118612Y504190D02*
D03*
X1309113Y488213D02*
D03*
X1118612Y123188D02*
D03*
X342840Y-35208D02*
D03*
X636418Y-213577D02*
D03*
X1499615Y-115041D02*
D03*
X1737742Y265962D02*
D03*
Y646939D02*
D03*
D175*
X361716Y-355465D02*
D03*
D176*
X254282Y780304D02*
D03*
X276282Y747304D02*
D03*
X265282D02*
D03*
X254282D02*
D03*
X243282D02*
D03*
X276282Y758304D02*
D03*
X265282D02*
D03*
X254282D02*
D03*
X243282D02*
D03*
X276282Y769304D02*
D03*
X265282D02*
D03*
X254282D02*
D03*
X243282D02*
D03*
X276282Y780304D02*
D03*
X265282D02*
D03*
X243282D02*
D03*
D177*
X30734Y155956D02*
D03*
X436880Y735330D02*
D03*
X458470Y433070D02*
D03*
Y346710D02*
D03*
Y260350D02*
D03*
Y173990D02*
D03*
X436880Y44450D02*
D03*
X393700Y562610D02*
D03*
X415290Y519430D02*
D03*
X393700Y476250D02*
D03*
X415290Y433070D02*
D03*
X393700Y389890D02*
D03*
X415290Y346710D02*
D03*
X393700Y303530D02*
D03*
X415290Y260350D02*
D03*
X393700Y217170D02*
D03*
X415290Y173990D02*
D03*
Y87630D02*
D03*
X372110Y605790D02*
D03*
X350520Y562610D02*
D03*
X372110Y519430D02*
D03*
X350520Y476250D02*
D03*
X372110Y433070D02*
D03*
X350520Y389890D02*
D03*
X372110Y346710D02*
D03*
Y260350D02*
D03*
X350520Y217170D02*
D03*
X372110Y173990D02*
D03*
X350520Y130810D02*
D03*
X372110Y87630D02*
D03*
X350520Y44450D02*
D03*
X307340Y821690D02*
D03*
X328930Y605790D02*
D03*
Y519430D02*
D03*
X307340Y476250D02*
D03*
X328930Y346710D02*
D03*
Y260350D02*
D03*
X307340Y217170D02*
D03*
X328930Y173990D02*
D03*
X307340Y130810D02*
D03*
X328930Y87630D02*
D03*
X307340Y44450D02*
D03*
X264160Y562610D02*
D03*
X285750Y519430D02*
D03*
Y260350D02*
D03*
X264160Y217170D02*
D03*
X285750Y173990D02*
D03*
X264160Y130810D02*
D03*
X285750Y87630D02*
D03*
X264160Y44450D02*
D03*
X242570Y519430D02*
D03*
Y433070D02*
D03*
X220980Y303530D02*
D03*
X242570Y260350D02*
D03*
X220980Y217170D02*
D03*
X242570Y173990D02*
D03*
X220980Y130810D02*
D03*
X242570Y87630D02*
D03*
X220980Y44450D02*
D03*
X177800Y562610D02*
D03*
X199390Y519430D02*
D03*
X177800Y476250D02*
D03*
Y303530D02*
D03*
X199390Y260350D02*
D03*
X177800Y217170D02*
D03*
X199390Y173990D02*
D03*
X177800Y130810D02*
D03*
X199390Y87630D02*
D03*
X177800Y44450D02*
D03*
X156210Y605790D02*
D03*
Y519430D02*
D03*
Y433070D02*
D03*
Y346710D02*
D03*
X134620Y303530D02*
D03*
X156210Y260350D02*
D03*
X134620Y217170D02*
D03*
X156210Y173990D02*
D03*
X134620Y130810D02*
D03*
X156210Y87630D02*
D03*
X134620Y44450D02*
D03*
X113030Y778510D02*
D03*
X91440Y735330D02*
D03*
X113030Y692150D02*
D03*
X91440Y648970D02*
D03*
X113030Y519430D02*
D03*
Y346710D02*
D03*
X91440Y303530D02*
D03*
Y217170D02*
D03*
X113030Y173990D02*
D03*
Y87630D02*
D03*
X69850Y778510D02*
D03*
Y692150D02*
D03*
X48260Y648970D02*
D03*
Y562610D02*
D03*
Y476250D02*
D03*
X69850Y433070D02*
D03*
Y346710D02*
D03*
X48260Y303530D02*
D03*
Y217170D02*
D03*
X69850Y87630D02*
D03*
X48260Y44450D02*
D03*
X233013Y810291D02*
D03*
D03*
X315446Y759720D02*
D03*
X321945Y750189D02*
D03*
X499110Y776478D02*
D03*
D03*
D03*
X315722Y766064D02*
D03*
D03*
X276210Y372570D02*
D03*
D03*
X271399Y379984D02*
D03*
D03*
D03*
X248335Y401750D02*
D03*
D03*
X338201Y777621D02*
D03*
X361431Y794755D02*
D03*
X369824Y800354D02*
D03*
D03*
X364236Y809244D02*
D03*
X287559Y705671D02*
D03*
X279654Y660146D02*
D03*
D03*
X269488Y661442D02*
D03*
X313944Y648970D02*
D03*
D03*
X346710Y667004D02*
D03*
D03*
X214976Y783882D02*
D03*
D03*
X204915Y803973D02*
D03*
D03*
D03*
X171958Y788162D02*
D03*
D03*
X210058Y796544D02*
D03*
X168068Y779192D02*
D03*
D03*
X117356Y584708D02*
D03*
X132080Y565912D02*
D03*
D03*
X128016Y552704D02*
D03*
D03*
X121920Y566674D02*
D03*
D03*
X218600Y772713D02*
D03*
D03*
D03*
X206629Y781685D02*
D03*
X193642Y780305D02*
D03*
D03*
X156464Y769874D02*
D03*
D03*
X306324Y494538D02*
D03*
X502722Y800093D02*
D03*
D03*
X498856Y789940D02*
D03*
D03*
D03*
X502722Y800093D02*
D03*
X539249Y783837D02*
D03*
D03*
D03*
X614934Y815594D02*
D03*
X175998Y771593D02*
D03*
X182727Y763585D02*
D03*
X203482Y596365D02*
D03*
X251714Y415544D02*
D03*
X228092Y419354D02*
D03*
X301752Y411988D02*
D03*
X287559Y705671D02*
D03*
X288290Y696722D02*
D03*
D03*
X261874Y597916D02*
D03*
D03*
X295275Y696087D02*
D03*
X284734Y601980D02*
D03*
D03*
X263200Y715478D02*
D03*
D03*
D03*
X273431Y687925D02*
D03*
X266439Y683395D02*
D03*
D03*
X301498Y717550D02*
D03*
D03*
D03*
X338963Y464947D02*
D03*
X218120Y765260D02*
D03*
D03*
D03*
X242316Y719074D02*
D03*
X455168Y697230D02*
D03*
D03*
D03*
X433204Y574160D02*
D03*
X441579Y590677D02*
D03*
X606552Y789178D02*
D03*
X676402Y815340D02*
D03*
X624078Y791464D02*
D03*
X594106Y638810D02*
D03*
X780874Y641858D02*
D03*
X596148Y388102D02*
D03*
X584195Y106167D02*
D03*
X1735074Y556437D02*
D03*
X1356746Y67178D02*
D03*
X1161796Y81534D02*
D03*
X976884Y649986D02*
D03*
X1165352Y653796D02*
D03*
X1362710Y644398D02*
D03*
X1543128Y618490D02*
D03*
X1537970Y42672D02*
D03*
X787654Y439166D02*
D03*
X972566Y453644D02*
D03*
X1160272Y472362D02*
D03*
X1350264Y462749D02*
D03*
X1540002Y434340D02*
D03*
X1781810Y424434D02*
D03*
X1786890Y231902D02*
D03*
X1537467Y226309D02*
D03*
X1357884Y258318D02*
D03*
X1173988Y277114D02*
D03*
X985520Y267716D02*
D03*
X777494Y62992D02*
D03*
X777870Y247264D02*
D03*
X1777746Y42672D02*
D03*
X977392Y60706D02*
D03*
X965200Y-110998D02*
D03*
X1154176Y-107950D02*
D03*
X1353312Y-123190D02*
D03*
X1535684Y-138430D02*
D03*
X1742694Y-145288D02*
D03*
X389128Y-65532D02*
D03*
X358902Y-213614D02*
D03*
X410464Y-389382D02*
D03*
X688340Y-250952D02*
D03*
X506984Y-326136D02*
D03*
X265430Y-44196D02*
D03*
X822706Y218694D02*
D03*
D03*
D03*
X636270Y364490D02*
D03*
D03*
D03*
X1579372Y393446D02*
D03*
D03*
D03*
X1190498Y233172D02*
D03*
D03*
D03*
X150643Y332564D02*
D03*
X280416Y905256D02*
D03*
X259842D02*
D03*
X407924Y902716D02*
D03*
X382524D02*
D03*
X369824D02*
D03*
X357124D02*
D03*
X344424D02*
D03*
X331724D02*
D03*
X319024D02*
D03*
X306324D02*
D03*
X293624D02*
D03*
X242824D02*
D03*
X230124D02*
D03*
X217424D02*
D03*
X204724D02*
D03*
X192024D02*
D03*
X179324D02*
D03*
X166624D02*
D03*
X153924D02*
D03*
X141224D02*
D03*
X128524D02*
D03*
X115824D02*
D03*
X103124D02*
D03*
X90424D02*
D03*
X77724D02*
D03*
X65024D02*
D03*
X52324D02*
D03*
X39624D02*
D03*
X26924D02*
D03*
X14224D02*
D03*
X1388364Y255778D02*
D03*
D03*
Y209550D02*
D03*
D03*
D03*
X1391158Y66548D02*
D03*
D03*
D03*
Y19812D02*
D03*
D03*
D03*
X556260Y836501D02*
D03*
D03*
D03*
X465328Y-29210D02*
D03*
D03*
D03*
X336169Y736219D02*
D03*
X363474Y723392D02*
D03*
D03*
D03*
X554990Y844296D02*
D03*
D03*
D03*
X1410716Y842264D02*
D03*
D03*
D03*
X1418590Y772668D02*
D03*
X202819Y825881D02*
D03*
X270891Y620141D02*
D03*
X186944Y807974D02*
D03*
D03*
D03*
X177437Y618635D02*
D03*
D03*
D03*
X179324Y823722D02*
D03*
X257302Y804926D02*
D03*
D03*
D03*
X200248Y410114D02*
D03*
D03*
D03*
X251206Y409194D02*
D03*
D03*
D03*
X246888Y356108D02*
D03*
D03*
D03*
X682244Y802132D02*
D03*
D03*
D03*
X1588649Y810514D02*
D03*
D03*
D03*
X1601978Y785876D02*
D03*
D03*
D03*
X1578864Y602488D02*
D03*
D03*
D03*
Y541528D02*
D03*
D03*
D03*
X1578610Y415036D02*
D03*
D03*
D03*
X1574038Y217678D02*
D03*
D03*
D03*
X1575054Y195834D02*
D03*
D03*
D03*
X1576578Y25654D02*
D03*
D03*
D03*
X1575816Y9652D02*
D03*
D03*
D03*
X737616Y764540D02*
D03*
D03*
D03*
X536448Y775970D02*
D03*
D03*
D03*
X551942Y797814D02*
D03*
X647192Y792226D02*
D03*
D03*
D03*
X977650Y804925D02*
D03*
D03*
D03*
X995172Y786384D02*
D03*
D03*
D03*
X639318Y699008D02*
D03*
D03*
D03*
X639826Y588264D02*
D03*
D03*
D03*
X636270Y379476D02*
D03*
D03*
D03*
X640588Y262636D02*
D03*
D03*
D03*
X636778Y226314D02*
D03*
D03*
D03*
X641858Y76454D02*
D03*
D03*
D03*
X633730Y53848D02*
D03*
D03*
D03*
X429514Y-27178D02*
D03*
D03*
D03*
X811899Y56019D02*
D03*
D03*
D03*
X811784Y33020D02*
D03*
X1418590Y772668D02*
D03*
D03*
X539242Y824055D02*
D03*
D03*
D03*
X424434Y704850D02*
D03*
D03*
D03*
X280670Y830834D02*
D03*
Y838708D02*
D03*
Y845820D02*
D03*
X280924Y853186D02*
D03*
X280416Y883412D02*
D03*
Y890524D02*
D03*
Y897636D02*
D03*
X261874Y890524D02*
D03*
Y883412D02*
D03*
X280416Y876300D02*
D03*
X262128Y853440D02*
D03*
X280670Y822960D02*
D03*
Y815086D02*
D03*
X262128Y876300D02*
D03*
X267716Y455676D02*
D03*
X262516Y446292D02*
D03*
Y433965D02*
D03*
X1015746Y38354D02*
D03*
D03*
D03*
X1181354Y640842D02*
D03*
D03*
D03*
Y625602D02*
D03*
D03*
D03*
X1178306Y456692D02*
D03*
D03*
D03*
X1178214Y435448D02*
D03*
D03*
D03*
X1189736Y217170D02*
D03*
D03*
D03*
X1182116Y81534D02*
D03*
D03*
D03*
X1180592Y43688D02*
D03*
D03*
D03*
X1389126Y636016D02*
D03*
D03*
D03*
Y599694D02*
D03*
D03*
D03*
X1388364Y445516D02*
D03*
D03*
D03*
X1387094Y408432D02*
D03*
D03*
D03*
X1388364Y255778D02*
D03*
X65532Y799338D02*
D03*
X180975Y838073D02*
D03*
X284607Y807593D02*
D03*
X278511Y807339D02*
D03*
X335026Y790956D02*
D03*
X305054Y797306D02*
D03*
X469773Y811403D02*
D03*
X290957Y636143D02*
D03*
X270121Y643763D02*
D03*
X318389Y677291D02*
D03*
X129413Y443865D02*
D03*
X131699Y473837D02*
D03*
X107823Y300101D02*
D03*
X110597Y264307D02*
D03*
X280924Y860793D02*
D03*
X261874Y860679D02*
D03*
X531749Y770001D02*
D03*
X259461Y679831D02*
D03*
X215773Y695071D02*
D03*
X417322Y637032D02*
D03*
X368427Y775524D02*
D03*
X338201Y375031D02*
D03*
X337947Y447421D02*
D03*
X266065Y338709D02*
D03*
X285115Y337947D02*
D03*
X80645Y323723D02*
D03*
X78502Y251189D02*
D03*
X398272Y573278D02*
D03*
X390398Y592328D02*
D03*
D03*
D03*
X410464Y593852D02*
D03*
D03*
D03*
X224790Y626474D02*
D03*
X220980Y866140D02*
D03*
X241554Y845820D02*
D03*
X241586Y860565D02*
D03*
D03*
D03*
X224050Y723011D02*
D03*
X215767Y703193D02*
D03*
X227330Y653542D02*
D03*
D03*
D03*
X255016Y376428D02*
D03*
X245683Y370738D02*
D03*
X263906Y363474D02*
D03*
X203454Y365252D02*
D03*
X176756Y366762D02*
D03*
X176022Y387858D02*
D03*
X261954Y839181D02*
D03*
X261914Y845912D02*
D03*
X267796Y806878D02*
D03*
X811784Y33020D02*
D03*
D03*
X821690Y237490D02*
D03*
D03*
D03*
X831088Y425704D02*
D03*
D03*
D03*
X830580Y403860D02*
D03*
D03*
D03*
X826008Y607822D02*
D03*
D03*
D03*
X824992Y586486D02*
D03*
D03*
D03*
X1009904Y629920D02*
D03*
D03*
D03*
X1011174Y608330D02*
D03*
D03*
D03*
X1015746Y436626D02*
D03*
D03*
D03*
X1016254Y419354D02*
D03*
D03*
D03*
X1019810Y246634D02*
D03*
D03*
D03*
X1021334Y228600D02*
D03*
D03*
D03*
X1015238Y58969D02*
D03*
D03*
D03*
D178*
X260350Y897636D02*
D03*
D199*
X1525386Y-179080D02*
D03*
Y-212080D02*
D03*
X1476386Y-179080D02*
D03*
Y-212080D02*
D03*
X1333362Y-156220D02*
D03*
Y-189220D02*
D03*
X1284362Y-156220D02*
D03*
Y-189220D02*
D03*
X1140830Y-141996D02*
D03*
Y-174996D02*
D03*
X1091830Y-141996D02*
D03*
Y-174996D02*
D03*
X951854Y-136154D02*
D03*
Y-169154D02*
D03*
X902854Y-136154D02*
D03*
Y-169154D02*
D03*
X662294Y-254772D02*
D03*
Y-287772D02*
D03*
X613294Y-254772D02*
D03*
Y-287772D02*
D03*
X494400Y-365516D02*
D03*
Y-398516D02*
D03*
X445400Y-365516D02*
D03*
Y-398516D02*
D03*
X422772Y-408188D02*
D03*
Y-441188D02*
D03*
X373772Y-408188D02*
D03*
Y-441188D02*
D03*
X1762622Y4562D02*
D03*
Y-28438D02*
D03*
X1713622Y4562D02*
D03*
Y-28438D02*
D03*
X1522338Y5324D02*
D03*
Y-27676D02*
D03*
X1473338Y5324D02*
D03*
Y-27676D02*
D03*
X1335140Y35550D02*
D03*
Y2550D02*
D03*
X1286140Y35550D02*
D03*
Y2550D02*
D03*
X1138290Y51298D02*
D03*
Y18298D02*
D03*
X1089290Y51298D02*
D03*
Y18298D02*
D03*
X956680Y37074D02*
D03*
Y4074D02*
D03*
X907680Y37074D02*
D03*
Y4074D02*
D03*
X759322Y24374D02*
D03*
Y-8626D02*
D03*
X710322Y24374D02*
D03*
Y-8626D02*
D03*
X569584Y71618D02*
D03*
Y38618D02*
D03*
X520584Y71618D02*
D03*
Y38618D02*
D03*
X349620Y-233690D02*
D03*
Y-266690D02*
D03*
X300620Y-233690D02*
D03*
Y-266690D02*
D03*
X1763130Y194046D02*
D03*
Y161046D02*
D03*
X1714130Y194046D02*
D03*
Y161046D02*
D03*
X1519798Y196586D02*
D03*
Y163586D02*
D03*
X1470798Y196586D02*
D03*
Y163586D02*
D03*
X1332092Y227066D02*
D03*
Y194066D02*
D03*
X1283092Y227066D02*
D03*
Y194066D02*
D03*
X1143878Y240274D02*
D03*
Y207274D02*
D03*
X1094878Y240274D02*
D03*
Y207274D02*
D03*
X949314Y226812D02*
D03*
Y193812D02*
D03*
X900314Y226812D02*
D03*
Y193812D02*
D03*
X759322Y215128D02*
D03*
Y182128D02*
D03*
X710322Y215128D02*
D03*
Y182128D02*
D03*
X371718Y-106944D02*
D03*
Y-139944D02*
D03*
X322718Y-106944D02*
D03*
Y-139944D02*
D03*
X257632Y-60361D02*
D03*
Y-93361D02*
D03*
X208632Y-60361D02*
D03*
Y-93361D02*
D03*
X1762876Y388864D02*
D03*
Y355864D02*
D03*
X1713876Y388864D02*
D03*
Y355864D02*
D03*
X1530466Y387594D02*
D03*
Y354594D02*
D03*
X1481466Y387594D02*
D03*
Y354594D02*
D03*
X1335394Y419852D02*
D03*
Y386852D02*
D03*
X1286394Y419852D02*
D03*
Y386852D02*
D03*
X1146164Y430520D02*
D03*
Y397520D02*
D03*
X1097164Y430520D02*
D03*
Y397520D02*
D03*
X954394Y417058D02*
D03*
Y384058D02*
D03*
X905394Y417058D02*
D03*
Y384058D02*
D03*
X762624Y404866D02*
D03*
Y371866D02*
D03*
X713624Y404866D02*
D03*
Y371866D02*
D03*
X574664Y356352D02*
D03*
Y323352D02*
D03*
X525664Y356352D02*
D03*
Y323352D02*
D03*
X1713114Y544586D02*
D03*
Y577586D02*
D03*
X1762114Y544586D02*
D03*
Y577586D02*
D03*
X1526148Y575808D02*
D03*
Y542808D02*
D03*
X1477148Y575808D02*
D03*
Y542808D02*
D03*
X1333870Y610352D02*
D03*
Y577352D02*
D03*
X1284870Y610352D02*
D03*
Y577352D02*
D03*
X1143370Y620258D02*
D03*
Y587258D02*
D03*
X1094370Y620258D02*
D03*
Y587258D02*
D03*
X950076Y611876D02*
D03*
Y578876D02*
D03*
X901076Y611876D02*
D03*
Y578876D02*
D03*
X762624Y595112D02*
D03*
Y562112D02*
D03*
X713624Y595112D02*
D03*
Y562112D02*
D03*
X569584Y598668D02*
D03*
Y565668D02*
D03*
X520584Y598668D02*
D03*
Y565668D02*
D03*
X1718426Y-179080D02*
D03*
Y-212080D02*
D03*
X1669426Y-179080D02*
D03*
Y-212080D02*
D03*
M02*
