G04*
G04 #@! TF.GenerationSoftware,Altium Limited,Altium Designer,24.8.2 (39)*
G04*
G04 Layer_Color=32896*
%FSLAX44Y44*%
%MOMM*%
G71*
G04*
G04 #@! TF.SameCoordinates,725FF0F6-F25A-4342-A06E-65F6636654C1*
G04*
G04*
G04 #@! TF.FilePolarity,Positive*
G04*
G01*
G75*
%ADD11C,0.2000*%
%ADD14C,0.2540*%
%ADD16C,0.1270*%
D11*
X49170Y602434D02*
G03*
X49170Y602434I-1000J0D01*
G01*
D14*
X1724660Y-139451D02*
Y-154686D01*
X1714503D01*
X1699268Y-139451D02*
X1709425D01*
Y-154686D01*
X1699268D01*
X1709425Y-147069D02*
X1704347D01*
X1694190Y-139451D02*
Y-154686D01*
X1686572D01*
X1684033Y-152147D01*
Y-141990D01*
X1686572Y-139451D01*
X1694190D01*
X578358Y641599D02*
Y626364D01*
X568201D01*
X552966Y641599D02*
X563123D01*
Y626364D01*
X552966D01*
X563123Y633982D02*
X558045D01*
X547888Y641599D02*
Y626364D01*
X540270D01*
X537731Y628903D01*
Y639060D01*
X540270Y641599D01*
X547888D01*
X525035Y626364D02*
Y641599D01*
X532653Y633982D01*
X522496D01*
X517418Y626364D02*
X512339D01*
X514879D01*
Y641599D01*
X517418Y639060D01*
X768096Y635249D02*
Y620014D01*
X757939D01*
X742704Y635249D02*
X752861D01*
Y620014D01*
X742704D01*
X752861Y627631D02*
X747783D01*
X737626Y635249D02*
Y620014D01*
X730008D01*
X727469Y622553D01*
Y632710D01*
X730008Y635249D01*
X737626D01*
X714773Y620014D02*
Y635249D01*
X722391Y627631D01*
X712234D01*
X707156Y632710D02*
X704616Y635249D01*
X699538D01*
X696999Y632710D01*
Y622553D01*
X699538Y620014D01*
X704616D01*
X707156Y622553D01*
Y632710D01*
X956564Y644393D02*
Y629158D01*
X946407D01*
X931172Y644393D02*
X941329D01*
Y629158D01*
X931172D01*
X941329Y636776D02*
X936251D01*
X926094Y644393D02*
Y629158D01*
X918476D01*
X915937Y631697D01*
Y641854D01*
X918476Y644393D01*
X926094D01*
X910859Y641854D02*
X908320Y644393D01*
X903241D01*
X900702Y641854D01*
Y639315D01*
X903241Y636776D01*
X905780D01*
X903241D01*
X900702Y634236D01*
Y631697D01*
X903241Y629158D01*
X908320D01*
X910859Y631697D01*
X895624D02*
X893084Y629158D01*
X888006D01*
X885467Y631697D01*
Y641854D01*
X888006Y644393D01*
X893084D01*
X895624Y641854D01*
Y639315D01*
X893084Y636776D01*
X885467D01*
X1146556Y661665D02*
Y646430D01*
X1136399D01*
X1121164Y661665D02*
X1131321D01*
Y646430D01*
X1121164D01*
X1131321Y654047D02*
X1126243D01*
X1116086Y661665D02*
Y646430D01*
X1108468D01*
X1105929Y648969D01*
Y659126D01*
X1108468Y661665D01*
X1116086D01*
X1100851Y659126D02*
X1098312Y661665D01*
X1093233D01*
X1090694Y659126D01*
Y656587D01*
X1093233Y654047D01*
X1095772D01*
X1093233D01*
X1090694Y651508D01*
Y648969D01*
X1093233Y646430D01*
X1098312D01*
X1100851Y648969D01*
X1085616Y659126D02*
X1083076Y661665D01*
X1077998D01*
X1075459Y659126D01*
Y656587D01*
X1077998Y654047D01*
X1075459Y651508D01*
Y648969D01*
X1077998Y646430D01*
X1083076D01*
X1085616Y648969D01*
Y651508D01*
X1083076Y654047D01*
X1085616Y656587D01*
Y659126D01*
X1083076Y654047D02*
X1077998D01*
X1343152Y650743D02*
Y635508D01*
X1332995D01*
X1317760Y650743D02*
X1327917D01*
Y635508D01*
X1317760D01*
X1327917Y643126D02*
X1322839D01*
X1312682Y650743D02*
Y635508D01*
X1305064D01*
X1302525Y638047D01*
Y648204D01*
X1305064Y650743D01*
X1312682D01*
X1297447Y648204D02*
X1294908Y650743D01*
X1289829D01*
X1287290Y648204D01*
Y645665D01*
X1289829Y643126D01*
X1292368D01*
X1289829D01*
X1287290Y640586D01*
Y638047D01*
X1289829Y635508D01*
X1294908D01*
X1297447Y638047D01*
X1282212Y650743D02*
X1272055D01*
Y648204D01*
X1282212Y638047D01*
Y635508D01*
X1533652Y619501D02*
Y604266D01*
X1523495D01*
X1508260Y619501D02*
X1518417D01*
Y604266D01*
X1508260D01*
X1518417Y611884D02*
X1513339D01*
X1503182Y619501D02*
Y604266D01*
X1495564D01*
X1493025Y606805D01*
Y616962D01*
X1495564Y619501D01*
X1503182D01*
X1487947Y616962D02*
X1485408Y619501D01*
X1480329D01*
X1477790Y616962D01*
Y614423D01*
X1480329Y611884D01*
X1482868D01*
X1480329D01*
X1477790Y609344D01*
Y606805D01*
X1480329Y604266D01*
X1485408D01*
X1487947Y606805D01*
X1462555Y619501D02*
X1467633Y616962D01*
X1472712Y611884D01*
Y606805D01*
X1470172Y604266D01*
X1465094D01*
X1462555Y606805D01*
Y609344D01*
X1465094Y611884D01*
X1472712D01*
X1768602Y609341D02*
Y594106D01*
X1758445D01*
X1743210Y609341D02*
X1753367D01*
Y594106D01*
X1743210D01*
X1753367Y601724D02*
X1748289D01*
X1738132Y609341D02*
Y594106D01*
X1730514D01*
X1727975Y596645D01*
Y606802D01*
X1730514Y609341D01*
X1738132D01*
X1722897Y606802D02*
X1720358Y609341D01*
X1715279D01*
X1712740Y606802D01*
Y604263D01*
X1715279Y601724D01*
X1717818D01*
X1715279D01*
X1712740Y599184D01*
Y596645D01*
X1715279Y594106D01*
X1720358D01*
X1722897Y596645D01*
X1697505Y609341D02*
X1707662D01*
Y601724D01*
X1702583Y604263D01*
X1700044D01*
X1697505Y601724D01*
Y596645D01*
X1700044Y594106D01*
X1705123D01*
X1707662Y596645D01*
X577850Y399283D02*
Y384048D01*
X567693D01*
X552458Y399283D02*
X562615D01*
Y384048D01*
X552458D01*
X562615Y391665D02*
X557537D01*
X547380Y399283D02*
Y384048D01*
X539762D01*
X537223Y386587D01*
Y396744D01*
X539762Y399283D01*
X547380D01*
X532145Y396744D02*
X529606Y399283D01*
X524527D01*
X521988Y396744D01*
Y394205D01*
X524527Y391665D01*
X527066D01*
X524527D01*
X521988Y389126D01*
Y386587D01*
X524527Y384048D01*
X529606D01*
X532145Y386587D01*
X509292Y384048D02*
Y399283D01*
X516910Y391665D01*
X506753D01*
X779780Y472689D02*
Y457454D01*
X769623D01*
X754388Y472689D02*
X764545D01*
Y457454D01*
X754388D01*
X764545Y465071D02*
X759467D01*
X749310Y472689D02*
Y457454D01*
X741692D01*
X739153Y459993D01*
Y470150D01*
X741692Y472689D01*
X749310D01*
X734075Y470150D02*
X731536Y472689D01*
X726457D01*
X723918Y470150D01*
Y467611D01*
X726457Y465071D01*
X728996D01*
X726457D01*
X723918Y462532D01*
Y459993D01*
X726457Y457454D01*
X731536D01*
X734075Y459993D01*
X718840Y470150D02*
X716301Y472689D01*
X711222D01*
X708683Y470150D01*
Y467611D01*
X711222Y465071D01*
X713761D01*
X711222D01*
X708683Y462532D01*
Y459993D01*
X711222Y457454D01*
X716301D01*
X718840Y459993D01*
X972820Y484881D02*
Y469646D01*
X962663D01*
X947428Y484881D02*
X957585D01*
Y469646D01*
X947428D01*
X957585Y477263D02*
X952507D01*
X942350Y484881D02*
Y469646D01*
X934732D01*
X932193Y472185D01*
Y482342D01*
X934732Y484881D01*
X942350D01*
X927115Y482342D02*
X924576Y484881D01*
X919497D01*
X916958Y482342D01*
Y479803D01*
X919497Y477263D01*
X922036D01*
X919497D01*
X916958Y474724D01*
Y472185D01*
X919497Y469646D01*
X924576D01*
X927115Y472185D01*
X901723Y469646D02*
X911880D01*
X901723Y479803D01*
Y482342D01*
X904262Y484881D01*
X909341D01*
X911880Y482342D01*
X1158240Y501137D02*
Y485902D01*
X1148083D01*
X1132848Y501137D02*
X1143005D01*
Y485902D01*
X1132848D01*
X1143005Y493520D02*
X1137927D01*
X1127770Y501137D02*
Y485902D01*
X1120152D01*
X1117613Y488441D01*
Y498598D01*
X1120152Y501137D01*
X1127770D01*
X1112535Y498598D02*
X1109996Y501137D01*
X1104917D01*
X1102378Y498598D01*
Y496059D01*
X1104917Y493520D01*
X1107456D01*
X1104917D01*
X1102378Y490980D01*
Y488441D01*
X1104917Y485902D01*
X1109996D01*
X1112535Y488441D01*
X1097300Y485902D02*
X1092221D01*
X1094761D01*
Y501137D01*
X1097300Y498598D01*
X1341628Y457449D02*
Y442214D01*
X1331471D01*
X1316236Y457449D02*
X1326393D01*
Y442214D01*
X1316236D01*
X1326393Y449832D02*
X1321315D01*
X1311158Y457449D02*
Y442214D01*
X1303540D01*
X1301001Y444753D01*
Y454910D01*
X1303540Y457449D01*
X1311158D01*
X1295923Y454910D02*
X1293384Y457449D01*
X1288305D01*
X1285766Y454910D01*
Y452371D01*
X1288305Y449832D01*
X1290844D01*
X1288305D01*
X1285766Y447292D01*
Y444753D01*
X1288305Y442214D01*
X1293384D01*
X1295923Y444753D01*
X1280688Y454910D02*
X1278148Y457449D01*
X1273070D01*
X1270531Y454910D01*
Y444753D01*
X1273070Y442214D01*
X1278148D01*
X1280688Y444753D01*
Y454910D01*
X1533398Y425953D02*
Y410718D01*
X1523241D01*
X1508006Y425953D02*
X1518163D01*
Y410718D01*
X1508006D01*
X1518163Y418335D02*
X1513085D01*
X1502928Y425953D02*
Y410718D01*
X1495310D01*
X1492771Y413257D01*
Y423414D01*
X1495310Y425953D01*
X1502928D01*
X1477536Y410718D02*
X1487693D01*
X1477536Y420875D01*
Y423414D01*
X1480075Y425953D01*
X1485154D01*
X1487693Y423414D01*
X1472458Y413257D02*
X1469919Y410718D01*
X1464840D01*
X1462301Y413257D01*
Y423414D01*
X1464840Y425953D01*
X1469919D01*
X1472458Y423414D01*
Y420875D01*
X1469919Y418335D01*
X1462301D01*
X1768602Y429255D02*
Y414020D01*
X1758445D01*
X1743210Y429255D02*
X1753367D01*
Y414020D01*
X1743210D01*
X1753367Y421637D02*
X1748289D01*
X1738132Y429255D02*
Y414020D01*
X1730514D01*
X1727975Y416559D01*
Y426716D01*
X1730514Y429255D01*
X1738132D01*
X1712740Y414020D02*
X1722897D01*
X1712740Y424177D01*
Y426716D01*
X1715279Y429255D01*
X1720358D01*
X1722897Y426716D01*
X1707662D02*
X1705123Y429255D01*
X1700044D01*
X1697505Y426716D01*
Y424177D01*
X1700044Y421637D01*
X1697505Y419098D01*
Y416559D01*
X1700044Y414020D01*
X1705123D01*
X1707662Y416559D01*
Y419098D01*
X1705123Y421637D01*
X1707662Y424177D01*
Y426716D01*
X1705123Y421637D02*
X1700044D01*
X266700Y-18293D02*
Y-33528D01*
X256543D01*
X241308Y-18293D02*
X251465D01*
Y-33528D01*
X241308D01*
X251465Y-25910D02*
X246387D01*
X236230Y-18293D02*
Y-33528D01*
X228612D01*
X226073Y-30989D01*
Y-20832D01*
X228612Y-18293D01*
X236230D01*
X210838Y-33528D02*
X220995D01*
X210838Y-23371D01*
Y-20832D01*
X213377Y-18293D01*
X218456D01*
X220995Y-20832D01*
X205760Y-18293D02*
X195603D01*
Y-20832D01*
X205760Y-30989D01*
Y-33528D01*
X392684Y-39121D02*
Y-54356D01*
X382527D01*
X367292Y-39121D02*
X377449D01*
Y-54356D01*
X367292D01*
X377449Y-46739D02*
X372371D01*
X362214Y-39121D02*
Y-54356D01*
X354596D01*
X352057Y-51817D01*
Y-41660D01*
X354596Y-39121D01*
X362214D01*
X336822Y-54356D02*
X346979D01*
X336822Y-44199D01*
Y-41660D01*
X339361Y-39121D01*
X344440D01*
X346979Y-41660D01*
X321587Y-39121D02*
X326665Y-41660D01*
X331744Y-46739D01*
Y-51817D01*
X329204Y-54356D01*
X324126D01*
X321587Y-51817D01*
Y-49278D01*
X324126Y-46739D01*
X331744D01*
X764032Y257805D02*
Y242570D01*
X753875D01*
X738640Y257805D02*
X748797D01*
Y242570D01*
X738640D01*
X748797Y250187D02*
X743719D01*
X733562Y257805D02*
Y242570D01*
X725944D01*
X723405Y245109D01*
Y255266D01*
X725944Y257805D01*
X733562D01*
X708170Y242570D02*
X718327D01*
X708170Y252727D01*
Y255266D01*
X710709Y257805D01*
X715788D01*
X718327Y255266D01*
X692935Y257805D02*
X703092D01*
Y250187D01*
X698013Y252727D01*
X695474D01*
X692935Y250187D01*
Y245109D01*
X695474Y242570D01*
X700553D01*
X703092Y245109D01*
X955802Y268981D02*
Y253746D01*
X945645D01*
X930410Y268981D02*
X940567D01*
Y253746D01*
X930410D01*
X940567Y261364D02*
X935489D01*
X925332Y268981D02*
Y253746D01*
X917714D01*
X915175Y256285D01*
Y266442D01*
X917714Y268981D01*
X925332D01*
X899940Y253746D02*
X910097D01*
X899940Y263903D01*
Y266442D01*
X902479Y268981D01*
X907558D01*
X910097Y266442D01*
X887244Y253746D02*
Y268981D01*
X894862Y261364D01*
X884705D01*
X1147318Y287269D02*
Y272034D01*
X1137161D01*
X1121926Y287269D02*
X1132083D01*
Y272034D01*
X1121926D01*
X1132083Y279652D02*
X1127005D01*
X1116848Y287269D02*
Y272034D01*
X1109230D01*
X1106691Y274573D01*
Y284730D01*
X1109230Y287269D01*
X1116848D01*
X1091456Y272034D02*
X1101613D01*
X1091456Y282191D01*
Y284730D01*
X1093995Y287269D01*
X1099074D01*
X1101613Y284730D01*
X1086378D02*
X1083839Y287269D01*
X1078760D01*
X1076221Y284730D01*
Y282191D01*
X1078760Y279652D01*
X1081299D01*
X1078760D01*
X1076221Y277112D01*
Y274573D01*
X1078760Y272034D01*
X1083839D01*
X1086378Y274573D01*
X1338834Y267457D02*
Y252222D01*
X1328677D01*
X1313442Y267457D02*
X1323599D01*
Y252222D01*
X1313442D01*
X1323599Y259839D02*
X1318521D01*
X1308364Y267457D02*
Y252222D01*
X1300746D01*
X1298207Y254761D01*
Y264918D01*
X1300746Y267457D01*
X1308364D01*
X1282972Y252222D02*
X1293129D01*
X1282972Y262379D01*
Y264918D01*
X1285511Y267457D01*
X1290590D01*
X1293129Y264918D01*
X1267737Y252222D02*
X1277894D01*
X1267737Y262379D01*
Y264918D01*
X1270276Y267457D01*
X1275355D01*
X1277894Y264918D01*
X1524762Y236215D02*
Y220980D01*
X1514605D01*
X1499370Y236215D02*
X1509527D01*
Y220980D01*
X1499370D01*
X1509527Y228598D02*
X1504449D01*
X1494292Y236215D02*
Y220980D01*
X1486674D01*
X1484135Y223519D01*
Y233676D01*
X1486674Y236215D01*
X1494292D01*
X1468900Y220980D02*
X1479057D01*
X1468900Y231137D01*
Y233676D01*
X1471439Y236215D01*
X1476518D01*
X1479057Y233676D01*
X1463822Y220980D02*
X1458743D01*
X1461283D01*
Y236215D01*
X1463822Y233676D01*
X1768602Y236215D02*
Y220980D01*
X1758445D01*
X1743210Y236215D02*
X1753367D01*
Y220980D01*
X1743210D01*
X1753367Y228598D02*
X1748289D01*
X1738132Y236215D02*
Y220980D01*
X1730514D01*
X1727975Y223519D01*
Y233676D01*
X1730514Y236215D01*
X1738132D01*
X1712740Y220980D02*
X1722897D01*
X1712740Y231137D01*
Y233676D01*
X1715279Y236215D01*
X1720358D01*
X1722897Y233676D01*
X1707662D02*
X1705123Y236215D01*
X1700044D01*
X1697505Y233676D01*
Y223519D01*
X1700044Y220980D01*
X1705123D01*
X1707662Y223519D01*
Y233676D01*
X354838Y-196347D02*
Y-211582D01*
X344681D01*
X329446Y-196347D02*
X339603D01*
Y-211582D01*
X329446D01*
X339603Y-203965D02*
X334525D01*
X324368Y-196347D02*
Y-211582D01*
X316750D01*
X314211Y-209043D01*
Y-198886D01*
X316750Y-196347D01*
X324368D01*
X309133Y-211582D02*
X304054D01*
X306594D01*
Y-196347D01*
X309133Y-198886D01*
X296437Y-209043D02*
X293898Y-211582D01*
X288819D01*
X286280Y-209043D01*
Y-198886D01*
X288819Y-196347D01*
X293898D01*
X296437Y-198886D01*
Y-201425D01*
X293898Y-203965D01*
X286280D01*
X575564Y112771D02*
Y97536D01*
X565407D01*
X550172Y112771D02*
X560329D01*
Y97536D01*
X550172D01*
X560329Y105154D02*
X555251D01*
X545094Y112771D02*
Y97536D01*
X537476D01*
X534937Y100075D01*
Y110232D01*
X537476Y112771D01*
X545094D01*
X529859Y97536D02*
X524780D01*
X527320D01*
Y112771D01*
X529859Y110232D01*
X517163D02*
X514624Y112771D01*
X509545D01*
X507006Y110232D01*
Y107693D01*
X509545Y105154D01*
X507006Y102614D01*
Y100075D01*
X509545Y97536D01*
X514624D01*
X517163Y100075D01*
Y102614D01*
X514624Y105154D01*
X517163Y107693D01*
Y110232D01*
X514624Y105154D02*
X509545D01*
X759206Y67305D02*
Y52070D01*
X749049D01*
X733814Y67305D02*
X743971D01*
Y52070D01*
X733814D01*
X743971Y59688D02*
X738893D01*
X728736Y67305D02*
Y52070D01*
X721118D01*
X718579Y54609D01*
Y64766D01*
X721118Y67305D01*
X728736D01*
X713501Y52070D02*
X708422D01*
X710962D01*
Y67305D01*
X713501Y64766D01*
X700805Y67305D02*
X690648D01*
Y64766D01*
X700805Y54609D01*
Y52070D01*
X962152Y75941D02*
Y60706D01*
X951995D01*
X936760Y75941D02*
X946917D01*
Y60706D01*
X936760D01*
X946917Y68323D02*
X941839D01*
X931682Y75941D02*
Y60706D01*
X924064D01*
X921525Y63245D01*
Y73402D01*
X924064Y75941D01*
X931682D01*
X916447Y60706D02*
X911368D01*
X913908D01*
Y75941D01*
X916447Y73402D01*
X893594Y75941D02*
X898672Y73402D01*
X903751Y68323D01*
Y63245D01*
X901212Y60706D01*
X896133D01*
X893594Y63245D01*
Y65784D01*
X896133Y68323D01*
X903751D01*
X1146556Y89657D02*
Y74422D01*
X1136399D01*
X1121164Y89657D02*
X1131321D01*
Y74422D01*
X1121164D01*
X1131321Y82039D02*
X1126243D01*
X1116086Y89657D02*
Y74422D01*
X1108468D01*
X1105929Y76961D01*
Y87118D01*
X1108468Y89657D01*
X1116086D01*
X1100851Y74422D02*
X1095772D01*
X1098312D01*
Y89657D01*
X1100851Y87118D01*
X1077998Y89657D02*
X1088155D01*
Y82039D01*
X1083076Y84579D01*
X1080537D01*
X1077998Y82039D01*
Y76961D01*
X1080537Y74422D01*
X1085616D01*
X1088155Y76961D01*
X1341628Y75179D02*
Y59944D01*
X1331471D01*
X1316236Y75179D02*
X1326393D01*
Y59944D01*
X1316236D01*
X1326393Y67561D02*
X1321315D01*
X1311158Y75179D02*
Y59944D01*
X1303540D01*
X1301001Y62483D01*
Y72640D01*
X1303540Y75179D01*
X1311158D01*
X1295923Y59944D02*
X1290844D01*
X1293384D01*
Y75179D01*
X1295923Y72640D01*
X1275609Y59944D02*
Y75179D01*
X1283227Y67561D01*
X1273070D01*
X1527810Y42667D02*
Y27432D01*
X1517653D01*
X1502418Y42667D02*
X1512575D01*
Y27432D01*
X1502418D01*
X1512575Y35050D02*
X1507497D01*
X1497340Y42667D02*
Y27432D01*
X1489722D01*
X1487183Y29971D01*
Y40128D01*
X1489722Y42667D01*
X1497340D01*
X1482105Y27432D02*
X1477026D01*
X1479566D01*
Y42667D01*
X1482105Y40128D01*
X1469409D02*
X1466870Y42667D01*
X1461791D01*
X1459252Y40128D01*
Y37589D01*
X1461791Y35050D01*
X1464330D01*
X1461791D01*
X1459252Y32510D01*
Y29971D01*
X1461791Y27432D01*
X1466870D01*
X1469409Y29971D01*
X1767840Y43175D02*
Y27940D01*
X1757683D01*
X1742448Y43175D02*
X1752605D01*
Y27940D01*
X1742448D01*
X1752605Y35557D02*
X1747527D01*
X1737370Y43175D02*
Y27940D01*
X1729752D01*
X1727213Y30479D01*
Y40636D01*
X1729752Y43175D01*
X1737370D01*
X1722135Y27940D02*
X1717056D01*
X1719596D01*
Y43175D01*
X1722135Y40636D01*
X1699282Y27940D02*
X1709439D01*
X1699282Y38097D01*
Y40636D01*
X1701821Y43175D01*
X1706900D01*
X1709439Y40636D01*
X433324Y-379989D02*
Y-395224D01*
X423167D01*
X407932Y-379989D02*
X418089D01*
Y-395224D01*
X407932D01*
X418089Y-387607D02*
X413011D01*
X402854Y-379989D02*
Y-395224D01*
X395236D01*
X392697Y-392685D01*
Y-382528D01*
X395236Y-379989D01*
X402854D01*
X387619Y-395224D02*
X382540D01*
X385080D01*
Y-379989D01*
X387619Y-382528D01*
X374923Y-395224D02*
X369845D01*
X372384D01*
Y-379989D01*
X374923Y-382528D01*
X499618Y-306329D02*
Y-321564D01*
X489461D01*
X474226Y-306329D02*
X484383D01*
Y-321564D01*
X474226D01*
X484383Y-313946D02*
X479305D01*
X469148Y-306329D02*
Y-321564D01*
X461530D01*
X458991Y-319025D01*
Y-308868D01*
X461530Y-306329D01*
X469148D01*
X453913Y-321564D02*
X448834D01*
X451374D01*
Y-306329D01*
X453913Y-308868D01*
X441217D02*
X438678Y-306329D01*
X433599D01*
X431060Y-308868D01*
Y-319025D01*
X433599Y-321564D01*
X438678D01*
X441217Y-319025D01*
Y-308868D01*
X667766Y-242829D02*
Y-258064D01*
X657609D01*
X642374Y-242829D02*
X652531D01*
Y-258064D01*
X642374D01*
X652531Y-250446D02*
X647453D01*
X637296Y-242829D02*
Y-258064D01*
X629678D01*
X627139Y-255525D01*
Y-245368D01*
X629678Y-242829D01*
X637296D01*
X622061Y-255525D02*
X619522Y-258064D01*
X614443D01*
X611904Y-255525D01*
Y-245368D01*
X614443Y-242829D01*
X619522D01*
X622061Y-245368D01*
Y-247907D01*
X619522Y-250446D01*
X611904D01*
X953516Y-88143D02*
Y-103378D01*
X943359D01*
X928124Y-88143D02*
X938281D01*
Y-103378D01*
X928124D01*
X938281Y-95760D02*
X933203D01*
X923046Y-88143D02*
Y-103378D01*
X915428D01*
X912889Y-100839D01*
Y-90682D01*
X915428Y-88143D01*
X923046D01*
X907811Y-90682D02*
X905272Y-88143D01*
X900193D01*
X897654Y-90682D01*
Y-93221D01*
X900193Y-95760D01*
X897654Y-98300D01*
Y-100839D01*
X900193Y-103378D01*
X905272D01*
X907811Y-100839D01*
Y-98300D01*
X905272Y-95760D01*
X907811Y-93221D01*
Y-90682D01*
X905272Y-95760D02*
X900193D01*
X1137666Y-78745D02*
Y-93980D01*
X1127509D01*
X1112274Y-78745D02*
X1122431D01*
Y-93980D01*
X1112274D01*
X1122431Y-86362D02*
X1117353D01*
X1107196Y-78745D02*
Y-93980D01*
X1099578D01*
X1097039Y-91441D01*
Y-81284D01*
X1099578Y-78745D01*
X1107196D01*
X1091961D02*
X1081804D01*
Y-81284D01*
X1091961Y-91441D01*
Y-93980D01*
X1336294Y-96017D02*
Y-111252D01*
X1326137D01*
X1310902Y-96017D02*
X1321059D01*
Y-111252D01*
X1310902D01*
X1321059Y-103635D02*
X1315981D01*
X1305824Y-96017D02*
Y-111252D01*
X1298206D01*
X1295667Y-108713D01*
Y-98556D01*
X1298206Y-96017D01*
X1305824D01*
X1280432D02*
X1285510Y-98556D01*
X1290589Y-103635D01*
Y-108713D01*
X1288050Y-111252D01*
X1282971D01*
X1280432Y-108713D01*
Y-106174D01*
X1282971Y-103635D01*
X1290589D01*
X1530604Y-139451D02*
Y-154686D01*
X1520447D01*
X1505212Y-139451D02*
X1515369D01*
Y-154686D01*
X1505212D01*
X1515369Y-147069D02*
X1510291D01*
X1500134Y-139451D02*
Y-154686D01*
X1492516D01*
X1489977Y-152147D01*
Y-141990D01*
X1492516Y-139451D01*
X1500134D01*
X1474742D02*
X1484899D01*
Y-147069D01*
X1479820Y-144529D01*
X1477281D01*
X1474742Y-147069D01*
Y-152147D01*
X1477281Y-154686D01*
X1482360D01*
X1484899Y-152147D01*
D16*
X1517329Y-194818D02*
G03*
X1517329Y-194818I-17205J0D01*
G01*
X1328099Y-151384D02*
G03*
X1328099Y-151384I-17205J0D01*
G01*
X1129471Y-134112D02*
G03*
X1129471Y-134112I-17205J0D01*
G01*
X945321Y-143510D02*
G03*
X945321Y-143510I-17205J0D01*
G01*
X654491Y-298196D02*
G03*
X654491Y-298196I-17205J0D01*
G01*
X486343Y-361696D02*
G03*
X486343Y-361696I-17205J0D01*
G01*
X420049Y-435356D02*
G03*
X420049Y-435356I-17205J0D01*
G01*
X1754565Y-12192D02*
G03*
X1754565Y-12192I-17205J0D01*
G01*
X1514535Y-12700D02*
G03*
X1514535Y-12700I-17205J0D01*
G01*
X1328353Y19812D02*
G03*
X1328353Y19812I-17205J0D01*
G01*
X1133281Y34290D02*
G03*
X1133281Y34290I-17205J0D01*
G01*
X948877Y20574D02*
G03*
X948877Y20574I-17205J0D01*
G01*
X745931Y11938D02*
G03*
X745931Y11938I-17205J0D01*
G01*
X562289Y57404D02*
G03*
X562289Y57404I-17205J0D01*
G01*
X341563Y-251714D02*
G03*
X341563Y-251714I-17205J0D01*
G01*
X1755327Y180848D02*
G03*
X1755327Y180848I-17205J0D01*
G01*
X1511487D02*
G03*
X1511487Y180848I-17205J0D01*
G01*
X1325559Y212090D02*
G03*
X1325559Y212090I-17205J0D01*
G01*
X1134043Y231902D02*
G03*
X1134043Y231902I-17205J0D01*
G01*
X942411Y213604D02*
G03*
X942411Y213604I-17205J0D01*
G01*
X750757Y202438D02*
G03*
X750757Y202438I-17205J0D01*
G01*
X369249Y-94488D02*
G03*
X369249Y-94488I-17205J0D01*
G01*
X253476Y-73722D02*
G03*
X253476Y-73722I-17205J0D01*
G01*
X1755327Y373888D02*
G03*
X1755327Y373888I-17205J0D01*
G01*
X1520123Y370586D02*
G03*
X1520123Y370586I-17205J0D01*
G01*
X1328353Y402082D02*
G03*
X1328353Y402082I-17205J0D01*
G01*
X1139885Y445770D02*
G03*
X1139885Y445770I-17205J0D01*
G01*
X949385Y429514D02*
G03*
X949385Y429514I-17205J0D01*
G01*
X756345Y417322D02*
G03*
X756345Y417322I-17205J0D01*
G01*
X564575Y343916D02*
G03*
X564575Y343916I-17205J0D01*
G01*
X1755327Y560832D02*
G03*
X1755327Y560832I-17205J0D01*
G01*
X1520377Y564134D02*
G03*
X1520377Y564134I-17205J0D01*
G01*
X1329877Y595376D02*
G03*
X1329877Y595376I-17205J0D01*
G01*
X1133281Y606298D02*
G03*
X1133281Y606298I-17205J0D01*
G01*
X943289Y589026D02*
G03*
X943289Y589026I-17205J0D01*
G01*
X754821Y579882D02*
G03*
X754821Y579882I-17205J0D01*
G01*
X565083Y586232D02*
G03*
X565083Y586232I-17205J0D01*
G01*
X1711385Y-194818D02*
G03*
X1711385Y-194818I-17205J0D01*
G01*
X1516124Y-169818D02*
X1525124D01*
X1513124Y-166818D02*
X1516124Y-169818D01*
X1513124Y-166818D02*
X1517124Y-162818D01*
X1525124Y-169818D01*
X1525016Y-203200D02*
X1525124Y-185166D01*
X1476864Y-219818D02*
X1521860D01*
X1475124Y-203708D02*
X1475232Y-184912D01*
X1477880Y-169818D02*
X1516124D01*
X1288650Y-126384D02*
X1326894D01*
X1285894Y-160274D02*
X1286002Y-141478D01*
X1287634Y-176384D02*
X1332630D01*
X1335786Y-159766D02*
X1335894Y-141732D01*
X1327894Y-119384D02*
X1335894Y-126384D01*
X1323894Y-123384D02*
X1327894Y-119384D01*
X1323894Y-123384D02*
X1326894Y-126384D01*
X1335894D01*
X1128266Y-109112D02*
X1137266D01*
X1125266Y-106112D02*
X1128266Y-109112D01*
X1125266Y-106112D02*
X1129266Y-102112D01*
X1137266Y-109112D01*
X1137158Y-142494D02*
X1137266Y-124460D01*
X1089006Y-159112D02*
X1134002D01*
X1087266Y-143002D02*
X1087374Y-124206D01*
X1090022Y-109112D02*
X1128266D01*
X905872Y-118510D02*
X944116D01*
X903116Y-152400D02*
X903224Y-133604D01*
X904856Y-168510D02*
X949852D01*
X953008Y-151892D02*
X953116Y-133858D01*
X945116Y-111510D02*
X953116Y-118510D01*
X941116Y-115510D02*
X945116Y-111510D01*
X941116Y-115510D02*
X944116Y-118510D01*
X953116D01*
X653286Y-273196D02*
X662286D01*
X650286Y-270196D02*
X653286Y-273196D01*
X650286Y-270196D02*
X654286Y-266196D01*
X662286Y-273196D01*
X662178Y-306578D02*
X662286Y-288544D01*
X614026Y-323196D02*
X659022D01*
X612286Y-307086D02*
X612394Y-288290D01*
X615042Y-273196D02*
X653286D01*
X446894Y-336696D02*
X485138D01*
X444138Y-370586D02*
X444246Y-351790D01*
X445878Y-386696D02*
X490874D01*
X494030Y-370078D02*
X494138Y-352044D01*
X486138Y-329696D02*
X494138Y-336696D01*
X482138Y-333696D02*
X486138Y-329696D01*
X482138Y-333696D02*
X485138Y-336696D01*
X494138D01*
X418844Y-410356D02*
X427844D01*
X415844Y-407356D02*
X418844Y-410356D01*
X415844Y-407356D02*
X419844Y-403356D01*
X427844Y-410356D01*
X427736Y-443738D02*
X427844Y-425704D01*
X379584Y-460356D02*
X424580D01*
X377844Y-444246D02*
X377952Y-425450D01*
X380600Y-410356D02*
X418844D01*
X1715116Y12808D02*
X1753360D01*
X1712360Y-21082D02*
X1712468Y-2286D01*
X1714100Y-37192D02*
X1759096D01*
X1762252Y-20574D02*
X1762360Y-2540D01*
X1754360Y19808D02*
X1762360Y12808D01*
X1750360Y15808D02*
X1754360Y19808D01*
X1750360Y15808D02*
X1753360Y12808D01*
X1762360D01*
X1513330Y12300D02*
X1522330D01*
X1510330Y15300D02*
X1513330Y12300D01*
X1510330Y15300D02*
X1514330Y19300D01*
X1522330Y12300D01*
X1522222Y-21082D02*
X1522330Y-3048D01*
X1474070Y-37700D02*
X1519066D01*
X1472330Y-21590D02*
X1472438Y-2794D01*
X1475086Y12300D02*
X1513330D01*
X1288904Y44812D02*
X1327148D01*
X1286148Y10922D02*
X1286256Y29718D01*
X1287888Y-5188D02*
X1332884D01*
X1336040Y11430D02*
X1336148Y29464D01*
X1328148Y51812D02*
X1336148Y44812D01*
X1324148Y47812D02*
X1328148Y51812D01*
X1324148Y47812D02*
X1327148Y44812D01*
X1336148D01*
X1132076Y59290D02*
X1141076D01*
X1129076Y62290D02*
X1132076Y59290D01*
X1129076Y62290D02*
X1133076Y66290D01*
X1141076Y59290D01*
X1140968Y25908D02*
X1141076Y43942D01*
X1092816Y9290D02*
X1137812D01*
X1091076Y25400D02*
X1091184Y44196D01*
X1093832Y59290D02*
X1132076D01*
X909428Y45574D02*
X947672D01*
X906672Y11684D02*
X906780Y30480D01*
X908412Y-4426D02*
X953408D01*
X956564Y12192D02*
X956672Y30226D01*
X948672Y52574D02*
X956672Y45574D01*
X944672Y48574D02*
X948672Y52574D01*
X944672Y48574D02*
X947672Y45574D01*
X956672D01*
X744726Y36938D02*
X753726D01*
X741726Y39938D02*
X744726Y36938D01*
X741726Y39938D02*
X745726Y43938D01*
X753726Y36938D01*
X753618Y3556D02*
X753726Y21590D01*
X705466Y-13062D02*
X750462D01*
X703726Y3048D02*
X703834Y21844D01*
X706482Y36938D02*
X744726D01*
X522840Y82404D02*
X561084D01*
X520084Y48514D02*
X520192Y67310D01*
X521824Y32404D02*
X566820D01*
X569976Y49022D02*
X570084Y67056D01*
X562084Y89404D02*
X570084Y82404D01*
X558084Y85404D02*
X562084Y89404D01*
X558084Y85404D02*
X561084Y82404D01*
X570084D01*
X340358Y-226714D02*
X349358D01*
X337358Y-223714D02*
X340358Y-226714D01*
X337358Y-223714D02*
X341358Y-219714D01*
X349358Y-226714D01*
X349250Y-260096D02*
X349358Y-242062D01*
X301098Y-276714D02*
X346094D01*
X299358Y-260604D02*
X299466Y-241808D01*
X302114Y-226714D02*
X340358D01*
X1715878Y205848D02*
X1754122D01*
X1713122Y171958D02*
X1713230Y190754D01*
X1714862Y155848D02*
X1759858D01*
X1763014Y172466D02*
X1763122Y190500D01*
X1755122Y212848D02*
X1763122Y205848D01*
X1751122Y208848D02*
X1755122Y212848D01*
X1751122Y208848D02*
X1754122Y205848D01*
X1763122D01*
X1510282D02*
X1519282D01*
X1507282Y208848D02*
X1510282Y205848D01*
X1507282Y208848D02*
X1511282Y212848D01*
X1519282Y205848D01*
X1519174Y172466D02*
X1519282Y190500D01*
X1471022Y155848D02*
X1516018D01*
X1469282Y171958D02*
X1469390Y190754D01*
X1472038Y205848D02*
X1510282D01*
X1286110Y237090D02*
X1324354D01*
X1283354Y203200D02*
X1283462Y221996D01*
X1285094Y187090D02*
X1330090D01*
X1333246Y203708D02*
X1333354Y221742D01*
X1325354Y244090D02*
X1333354Y237090D01*
X1321354Y240090D02*
X1325354Y244090D01*
X1321354Y240090D02*
X1324354Y237090D01*
X1333354D01*
X1132838Y256902D02*
X1141838D01*
X1129838Y259902D02*
X1132838Y256902D01*
X1129838Y259902D02*
X1133838Y263902D01*
X1141838Y256902D01*
X1141730Y223520D02*
X1141838Y241554D01*
X1093578Y206902D02*
X1138574D01*
X1091838Y223012D02*
X1091946Y241808D01*
X1094594Y256902D02*
X1132838D01*
X902962Y238604D02*
X941206D01*
X900206Y204714D02*
X900314Y223510D01*
X901946Y188604D02*
X946942D01*
X950098Y205222D02*
X950206Y223256D01*
X942206Y245604D02*
X950206Y238604D01*
X938206Y241604D02*
X942206Y245604D01*
X938206Y241604D02*
X941206Y238604D01*
X950206D01*
X749552Y227438D02*
X758552D01*
X746552Y230438D02*
X749552Y227438D01*
X746552Y230438D02*
X750552Y234438D01*
X758552Y227438D01*
X758444Y194056D02*
X758552Y212090D01*
X710292Y177438D02*
X755288D01*
X708552Y193548D02*
X708660Y212344D01*
X711308Y227438D02*
X749552D01*
X329800Y-69488D02*
X368044D01*
X327044Y-103378D02*
X327152Y-84582D01*
X328784Y-119488D02*
X373780D01*
X376936Y-102870D02*
X377044Y-84836D01*
X369044Y-62488D02*
X377044Y-69488D01*
X365044Y-66488D02*
X369044Y-62488D01*
X365044Y-66488D02*
X368044Y-69488D01*
X377044D01*
X252271Y-48722D02*
X261271D01*
X249271Y-45722D02*
X252271Y-48722D01*
X249271Y-45722D02*
X253271Y-41722D01*
X261271Y-48722D01*
X261163Y-82104D02*
X261271Y-64070D01*
X213011Y-98722D02*
X258007D01*
X211271Y-82612D02*
X211379Y-63816D01*
X214027Y-48722D02*
X252271D01*
X1715878Y398888D02*
X1754122D01*
X1713122Y364998D02*
X1713230Y383794D01*
X1714862Y348888D02*
X1759858D01*
X1763014Y365506D02*
X1763122Y383540D01*
X1755122Y405888D02*
X1763122Y398888D01*
X1751122Y401888D02*
X1755122Y405888D01*
X1751122Y401888D02*
X1754122Y398888D01*
X1763122D01*
X1518918Y395586D02*
X1527918D01*
X1515918Y398586D02*
X1518918Y395586D01*
X1515918Y398586D02*
X1519918Y402586D01*
X1527918Y395586D01*
X1527810Y362204D02*
X1527918Y380238D01*
X1479658Y345586D02*
X1524654D01*
X1477918Y361696D02*
X1478026Y380492D01*
X1480674Y395586D02*
X1518918D01*
X1288904Y427082D02*
X1327148D01*
X1286148Y393192D02*
X1286256Y411988D01*
X1287888Y377082D02*
X1332884D01*
X1336040Y393700D02*
X1336148Y411734D01*
X1328148Y434082D02*
X1336148Y427082D01*
X1324148Y430082D02*
X1328148Y434082D01*
X1324148Y430082D02*
X1327148Y427082D01*
X1336148D01*
X1138680Y470770D02*
X1147680D01*
X1135680Y473770D02*
X1138680Y470770D01*
X1135680Y473770D02*
X1139680Y477770D01*
X1147680Y470770D01*
X1147572Y437388D02*
X1147680Y455422D01*
X1099420Y420770D02*
X1144416D01*
X1097680Y436880D02*
X1097788Y455676D01*
X1100436Y470770D02*
X1138680D01*
X909936Y454514D02*
X948180D01*
X907180Y420624D02*
X907288Y439420D01*
X908920Y404514D02*
X953916D01*
X957072Y421132D02*
X957180Y439166D01*
X949180Y461514D02*
X957180Y454514D01*
X945180Y457514D02*
X949180Y461514D01*
X945180Y457514D02*
X948180Y454514D01*
X957180D01*
X755140Y442322D02*
X764140D01*
X752140Y445322D02*
X755140Y442322D01*
X752140Y445322D02*
X756140Y449322D01*
X764140Y442322D01*
X764032Y408940D02*
X764140Y426974D01*
X715880Y392322D02*
X760876D01*
X714140Y408432D02*
X714248Y427228D01*
X716896Y442322D02*
X755140D01*
X525126Y368916D02*
X563370D01*
X522370Y335026D02*
X522478Y353822D01*
X524110Y318916D02*
X569106D01*
X572262Y335534D02*
X572370Y353568D01*
X564370Y375916D02*
X572370Y368916D01*
X560370Y371916D02*
X564370Y375916D01*
X560370Y371916D02*
X563370Y368916D01*
X572370D01*
X1713122Y535832D02*
X1722122D01*
X1725122Y532832D01*
X1721122Y528832D02*
X1725122Y532832D01*
X1713122Y535832D02*
X1721122Y528832D01*
X1713122Y551180D02*
X1713230Y569214D01*
X1716386Y585832D02*
X1761382D01*
X1763014Y550926D02*
X1763122Y569722D01*
X1722122Y535832D02*
X1760366D01*
X1480928Y589134D02*
X1519172D01*
X1478172Y555244D02*
X1478280Y574040D01*
X1479912Y539134D02*
X1524908D01*
X1528064Y555752D02*
X1528172Y573786D01*
X1520172Y596134D02*
X1528172Y589134D01*
X1516172Y592134D02*
X1520172Y596134D01*
X1516172Y592134D02*
X1519172Y589134D01*
X1528172D01*
X1328672Y620376D02*
X1337672D01*
X1325672Y623376D02*
X1328672Y620376D01*
X1325672Y623376D02*
X1329672Y627376D01*
X1337672Y620376D01*
X1337564Y586994D02*
X1337672Y605028D01*
X1289412Y570376D02*
X1334408D01*
X1287672Y586486D02*
X1287780Y605282D01*
X1290428Y620376D02*
X1328672D01*
X1093832Y631298D02*
X1132076D01*
X1091076Y597408D02*
X1091184Y616204D01*
X1092816Y581298D02*
X1137812D01*
X1140968Y597916D02*
X1141076Y615950D01*
X1133076Y638298D02*
X1141076Y631298D01*
X1129076Y634298D02*
X1133076Y638298D01*
X1129076Y634298D02*
X1132076Y631298D01*
X1141076D01*
X942084Y614026D02*
X951084D01*
X939084Y617026D02*
X942084Y614026D01*
X939084Y617026D02*
X943084Y621026D01*
X951084Y614026D01*
X950976Y580644D02*
X951084Y598678D01*
X902824Y564026D02*
X947820D01*
X901084Y580136D02*
X901192Y598932D01*
X903840Y614026D02*
X942084D01*
X715372Y604882D02*
X753616D01*
X712616Y570992D02*
X712724Y589788D01*
X714356Y554882D02*
X759352D01*
X762508Y571500D02*
X762616Y589534D01*
X754616Y611882D02*
X762616Y604882D01*
X750616Y607882D02*
X754616Y611882D01*
X750616Y607882D02*
X753616Y604882D01*
X762616D01*
X563878Y611232D02*
X572878D01*
X560878Y614232D02*
X563878Y611232D01*
X560878Y614232D02*
X564878Y618232D01*
X572878Y611232D01*
X572770Y577850D02*
X572878Y595884D01*
X524618Y561232D02*
X569614D01*
X522878Y577342D02*
X522986Y596138D01*
X525634Y611232D02*
X563878D01*
X1671936Y-169818D02*
X1710180D01*
X1669180Y-203708D02*
X1669288Y-184912D01*
X1670920Y-219818D02*
X1715916D01*
X1719072Y-203200D02*
X1719180Y-185166D01*
X1711180Y-162818D02*
X1719180Y-169818D01*
X1707180Y-166818D02*
X1711180Y-162818D01*
X1707180Y-166818D02*
X1710180Y-169818D01*
X1719180D01*
X27670Y611434D02*
Y644434D01*
Y611434D02*
X53170D01*
X127170D02*
X152670D01*
Y644434D01*
X27670Y712434D02*
Y745434D01*
X53170D01*
X127170D02*
X152670D01*
Y712434D02*
Y745434D01*
X26162Y771144D02*
Y775207D01*
X24808Y773852D01*
X23454Y775207D01*
Y771144D01*
X22099Y775207D02*
X19391D01*
X20745D01*
Y771144D01*
X18037D02*
X16682D01*
X17359D01*
Y775207D01*
X18037Y774530D01*
M02*
