G04*
G04 #@! TF.GenerationSoftware,Altium Limited,Altium Designer,24.5.2 (23)*
G04*
G04 Layer_Color=128*
%FSLAX44Y44*%
%MOMM*%
G71*
G04*
G04 #@! TF.SameCoordinates,B2DEAD2E-F19F-4043-ADCB-FE0AD24F75F7*
G04*
G04*
G04 #@! TF.FilePolarity,Positive*
G04*
G01*
G75*
%ADD16C,0.1270*%
D16*
X189398Y556602D02*
X197398D01*
X193398Y552602D02*
Y560602D01*
X209398Y556602D02*
X217398D01*
X213398Y552602D02*
Y560602D01*
X229398Y556602D02*
X237398D01*
X233398Y552602D02*
Y560602D01*
X249398Y556602D02*
X257398D01*
X253398Y552602D02*
Y560602D01*
X269398Y556602D02*
X277398D01*
X273398Y552602D02*
Y560602D01*
X289398Y556602D02*
X297398D01*
X293398Y552602D02*
Y560602D01*
X309398Y556602D02*
X317398D01*
X313398Y552602D02*
Y560602D01*
X329398Y556602D02*
X337398D01*
X333398Y552602D02*
Y560602D01*
X1668319Y-116777D02*
X1708319D01*
X1688319Y-136777D02*
Y-96777D01*
X1711419Y-91177D02*
X1741419D01*
X1726419Y-106177D02*
Y-76177D01*
X1647919Y-65777D02*
X1677919D01*
X1662919Y-80777D02*
Y-50777D01*
X1477818Y-116777D02*
X1517818D01*
X1497818Y-136777D02*
Y-96777D01*
X1520918Y-91177D02*
X1550918D01*
X1535918Y-106177D02*
Y-76177D01*
X1457418Y-65777D02*
X1487418D01*
X1472418Y-80777D02*
Y-50777D01*
X1288100Y-84274D02*
X1328100D01*
X1308100Y-104274D02*
Y-64274D01*
X1331200Y-58674D02*
X1361200D01*
X1346200Y-73674D02*
Y-43674D01*
X1267700Y-33274D02*
X1297700D01*
X1282700Y-48274D02*
Y-18274D01*
X1097346Y-68272D02*
X1137346D01*
X1117346Y-88272D02*
Y-48272D01*
X1140446Y-42672D02*
X1170446D01*
X1155446Y-57672D02*
Y-27672D01*
X1076946Y-17272D02*
X1106946D01*
X1091946Y-32272D02*
Y-2272D01*
X906314Y-85026D02*
X946314D01*
X926314Y-105026D02*
Y-65026D01*
X949414Y-59426D02*
X979414D01*
X964414Y-74426D02*
Y-44426D01*
X885914Y-34026D02*
X915914D01*
X900914Y-49026D02*
Y-19026D01*
X616270Y-214322D02*
X656270D01*
X636270Y-234322D02*
Y-194322D01*
X659370Y-188722D02*
X689370D01*
X674370Y-203722D02*
Y-173722D01*
X595870Y-163322D02*
X625870D01*
X610870Y-178322D02*
Y-148322D01*
X443773Y-294096D02*
X483773D01*
X463773Y-314096D02*
Y-274096D01*
X486874Y-268496D02*
X516874D01*
X501874Y-283496D02*
Y-253496D01*
X423373Y-243096D02*
X453373D01*
X438373Y-258096D02*
Y-228096D01*
X1715944Y73725D02*
X1755944D01*
X1735944Y53725D02*
Y93725D01*
X1759044Y99325D02*
X1789044D01*
X1774044Y84325D02*
Y114325D01*
X1695544Y124725D02*
X1725544D01*
X1710544Y109725D02*
Y139725D01*
X1477818Y73725D02*
X1517818D01*
X1497818Y53725D02*
Y93725D01*
X1520918Y99325D02*
X1550918D01*
X1535918Y84325D02*
Y114325D01*
X1457418Y124725D02*
X1487418D01*
X1472418Y109725D02*
Y139725D01*
X1289113Y107211D02*
X1329113D01*
X1309113Y87211D02*
Y127211D01*
X1332213Y132811D02*
X1362213D01*
X1347213Y117811D02*
Y147811D01*
X1268714Y158211D02*
X1298714D01*
X1283714Y143211D02*
Y173211D01*
X1098108Y121720D02*
X1138108D01*
X1118108Y101720D02*
Y141720D01*
X1141208Y147320D02*
X1171208D01*
X1156208Y132320D02*
Y162320D01*
X1077708Y172720D02*
X1107708D01*
X1092708Y157720D02*
Y187720D01*
X908110Y107211D02*
X948110D01*
X928110Y87211D02*
Y127211D01*
X951210Y132811D02*
X981210D01*
X966210Y117811D02*
Y147811D01*
X887710Y158211D02*
X917710D01*
X902710Y143211D02*
Y173211D01*
X718378Y94796D02*
X758378D01*
X738378Y74796D02*
Y114796D01*
X761478Y120396D02*
X791478D01*
X776478Y105396D02*
Y135396D01*
X697978Y145796D02*
X727978D01*
X712978Y130796D02*
Y160796D01*
X527116Y141532D02*
X567116D01*
X547116Y121532D02*
Y161532D01*
X570216Y167132D02*
X600216D01*
X585216Y152132D02*
Y182132D01*
X506716Y192532D02*
X536716D01*
X521716Y177532D02*
Y207532D01*
X1715944Y264226D02*
X1755944D01*
X1735944Y244226D02*
Y284226D01*
X1759044Y289826D02*
X1789044D01*
X1774044Y274826D02*
Y304826D01*
X1695544Y315226D02*
X1725544D01*
X1710544Y300226D02*
Y330226D01*
X1477818Y264226D02*
X1517818D01*
X1497818Y244226D02*
Y284226D01*
X1520918Y289826D02*
X1550918D01*
X1535918Y274826D02*
Y304826D01*
X1457418Y315226D02*
X1487418D01*
X1472418Y300226D02*
Y330226D01*
X1287317Y295977D02*
X1327316D01*
X1307317Y275977D02*
Y315977D01*
X1330417Y321577D02*
X1360417D01*
X1345417Y306577D02*
Y336577D01*
X1266917Y346977D02*
X1296917D01*
X1281917Y331977D02*
Y361977D01*
X1096815Y311953D02*
X1136815D01*
X1116815Y291953D02*
Y331953D01*
X1139915Y337553D02*
X1169915D01*
X1154915Y322553D02*
Y352553D01*
X1076415Y362953D02*
X1106415D01*
X1091415Y347953D02*
Y377953D01*
X906314Y295977D02*
X946314D01*
X926314Y275977D02*
Y315977D01*
X949414Y321577D02*
X979414D01*
X964414Y306577D02*
Y336577D01*
X885914Y346977D02*
X915914D01*
X900914Y331977D02*
Y361977D01*
X716600Y284788D02*
X756600D01*
X736600Y264788D02*
Y304788D01*
X759700Y310388D02*
X789700D01*
X774700Y295388D02*
Y325388D01*
X696200Y335788D02*
X726200D01*
X711200Y320788D02*
Y350788D01*
X321043Y-36944D02*
X361042D01*
X341042Y-56944D02*
Y-16944D01*
X364142Y-11344D02*
X394142D01*
X379142Y-26344D02*
Y3656D01*
X300643Y14056D02*
X330642D01*
X315642Y-944D02*
Y29056D01*
X1717106Y455730D02*
X1757106D01*
X1737106Y435730D02*
Y475730D01*
X1760206Y481330D02*
X1790206D01*
X1775206Y466330D02*
Y496330D01*
X1696706Y506730D02*
X1726706D01*
X1711706Y491730D02*
Y521730D01*
X1479108Y455730D02*
X1519108D01*
X1499108Y435730D02*
Y475730D01*
X1522208Y481330D02*
X1552208D01*
X1537208Y466330D02*
Y496330D01*
X1458708Y506730D02*
X1488708D01*
X1473708Y491730D02*
Y521730D01*
X1289370Y488750D02*
X1329370D01*
X1309370Y468750D02*
Y508750D01*
X1332470Y514350D02*
X1362470D01*
X1347470Y499350D02*
Y529350D01*
X1268970Y539750D02*
X1298970D01*
X1283970Y524750D02*
Y554750D01*
X1099632Y503990D02*
X1139632D01*
X1119632Y483990D02*
Y523990D01*
X1142732Y529590D02*
X1172732D01*
X1157732Y514590D02*
Y544590D01*
X1079232Y554990D02*
X1109232D01*
X1094232Y539990D02*
Y569990D01*
X908111Y488213D02*
X948111D01*
X928111Y468213D02*
Y508213D01*
X951210Y513813D02*
X981210D01*
X966210Y498813D02*
Y528813D01*
X887710Y539213D02*
X917710D01*
X902710Y524213D02*
Y554213D01*
X717609Y475513D02*
X757609D01*
X737609Y455513D02*
Y495513D01*
X760709Y501113D02*
X790709D01*
X775709Y486113D02*
Y516113D01*
X697209Y526513D02*
X727209D01*
X712209Y511513D02*
Y541513D01*
X525311Y426152D02*
X565311D01*
X545311Y406152D02*
Y446152D01*
X568411Y451752D02*
X598411D01*
X583411Y436752D02*
Y466752D01*
X504911Y477152D02*
X534911D01*
X519911Y462152D02*
Y492152D01*
X1717868Y646738D02*
X1757868D01*
X1737868Y626738D02*
Y666738D01*
X1760968Y672338D02*
X1790968D01*
X1775968Y657338D02*
Y687338D01*
X1697468Y697738D02*
X1727468D01*
X1712468Y682738D02*
Y712738D01*
X1480886Y645468D02*
X1520886D01*
X1500886Y625468D02*
Y665468D01*
X1523986Y671068D02*
X1553986D01*
X1538986Y656068D02*
Y686068D01*
X1460486Y696468D02*
X1490486D01*
X1475486Y681468D02*
Y711468D01*
X1289113Y678715D02*
X1329113D01*
X1309113Y658715D02*
Y698715D01*
X1332213Y704315D02*
X1362213D01*
X1347213Y689315D02*
Y719315D01*
X1268714Y729715D02*
X1298714D01*
X1283714Y714715D02*
Y744715D01*
X1096815Y692956D02*
X1136815D01*
X1116815Y672956D02*
Y712956D01*
X1139915Y718556D02*
X1169915D01*
X1154915Y703556D02*
Y733556D01*
X1076415Y743956D02*
X1106415D01*
X1091415Y728956D02*
Y758956D01*
X906314Y676979D02*
X946314D01*
X926314Y656979D02*
Y696979D01*
X949414Y702579D02*
X979414D01*
X964414Y687579D02*
Y717579D01*
X885914Y727979D02*
X915914D01*
X900914Y712979D02*
Y742979D01*
X715812Y664254D02*
X755812D01*
X735812Y644254D02*
Y684254D01*
X758912Y689854D02*
X788912D01*
X773912Y674854D02*
Y704854D01*
X695412Y715254D02*
X725412D01*
X710412Y700254D02*
Y730254D01*
X527116Y667058D02*
X567116D01*
X547116Y647058D02*
Y687058D01*
X570216Y692658D02*
X600216D01*
X585216Y677658D02*
Y707658D01*
X506716Y718058D02*
X536716D01*
X521716Y703058D02*
Y733058D01*
X309409Y-462752D02*
X349409D01*
X329409Y-482752D02*
Y-442752D01*
X273189Y-442557D02*
X303189D01*
X288189Y-457557D02*
Y-427557D01*
X282942Y-510249D02*
X312942D01*
X297942Y-525249D02*
Y-495249D01*
X231820Y-288544D02*
X271820D01*
X251820Y-308544D02*
Y-268544D01*
X195600Y-268349D02*
X225600D01*
X210600Y-283349D02*
Y-253349D01*
X205353Y-336041D02*
X235353D01*
X220353Y-351041D02*
Y-321041D01*
X150032Y-116078D02*
X190032D01*
X170032Y-136078D02*
Y-96078D01*
X113812Y-95883D02*
X143812D01*
X128812Y-110883D02*
Y-80883D01*
X123565Y-163575D02*
X153565D01*
X138565Y-178575D02*
Y-148575D01*
X137170Y678434D02*
X157170D01*
X147170Y668434D02*
Y688434D01*
X23170Y678434D02*
X43170D01*
X33170Y668434D02*
Y688434D01*
X109670Y753434D02*
X120670D01*
X115170Y747934D02*
Y758934D01*
X84670Y753434D02*
X95670D01*
X90170Y747934D02*
Y758934D01*
X59670Y753434D02*
X70670D01*
X65170Y747934D02*
Y758934D01*
X109670Y608434D02*
X120670D01*
X115170Y602934D02*
Y613934D01*
X59670Y608434D02*
X70670D01*
X65170Y602934D02*
Y613934D01*
X267602Y407416D02*
X269602D01*
X268602Y406416D02*
Y408416D01*
X275352Y407416D02*
X277352D01*
X276352Y406416D02*
Y408416D01*
X283102Y407416D02*
X285102D01*
X284102Y406416D02*
Y408416D01*
X275352Y399666D02*
X277352D01*
X276352Y398666D02*
Y400666D01*
X275352Y415166D02*
X277352D01*
X276352Y414166D02*
Y416166D01*
X132144Y387458D02*
X140144D01*
X136144Y383458D02*
Y391458D01*
X132144Y362458D02*
X140144D01*
X136144Y358458D02*
Y366458D01*
X132144Y337458D02*
X140144D01*
X136144Y333458D02*
Y341458D01*
X18334Y245080D02*
X24334D01*
X21334Y242080D02*
Y248080D01*
X18334Y331580D02*
X24334D01*
X21334Y328580D02*
Y334580D01*
X60034Y245080D02*
X66034D01*
X63034Y242080D02*
Y248080D01*
X60034Y331580D02*
X66034D01*
X63034Y328580D02*
Y334580D01*
X55134Y259430D02*
X61134D01*
X58134Y256430D02*
Y262430D01*
X55134Y317230D02*
X61134D01*
X58134Y314230D02*
Y320230D01*
X764794Y-330962D02*
X800354D01*
X782574Y-348742D02*
Y-313182D01*
X18796Y869950D02*
X54356D01*
X36576Y852170D02*
Y887730D01*
X26486Y390652D02*
X41586D01*
X34036Y383102D02*
Y398202D01*
X26486Y490652D02*
X41586D01*
X34036Y483102D02*
Y498202D01*
X16886Y420652D02*
X26186D01*
X21536Y416002D02*
Y425302D01*
X16886Y440652D02*
X26186D01*
X21536Y436002D02*
Y445302D01*
X16886Y460652D02*
X26186D01*
X21536Y456002D02*
Y465302D01*
X41886Y420652D02*
X51186D01*
X46536Y416002D02*
Y425302D01*
X41886Y440652D02*
X51186D01*
X46536Y436002D02*
Y445302D01*
X41886Y460652D02*
X51186D01*
X46536Y456002D02*
Y465302D01*
X1479615Y456463D02*
X1519615D01*
X1499615Y436463D02*
Y476463D01*
X1717741Y75460D02*
X1757741D01*
X1737741Y55460D02*
Y95460D01*
X1098612Y-67314D02*
X1138612D01*
X1118612Y-87314D02*
Y-47313D01*
X230688Y-288346D02*
X270688D01*
X250688Y-308346D02*
Y-268346D01*
X717609Y94511D02*
X757609D01*
X737609Y74511D02*
Y114511D01*
X1479615Y265962D02*
X1519615D01*
X1499615Y245962D02*
Y285962D01*
X1098612Y694691D02*
X1138612D01*
X1118612Y674691D02*
Y714691D01*
X908110Y297712D02*
X948110D01*
X928110Y277712D02*
Y317712D01*
X527108Y427888D02*
X567108D01*
X547108Y407888D02*
Y447888D01*
X527108Y665990D02*
X567108D01*
X547108Y645990D02*
Y685990D01*
X717609Y285012D02*
X757609D01*
X737609Y265012D02*
Y305012D01*
X1289113Y678715D02*
X1329113D01*
X1309113Y658715D02*
Y698715D01*
X1289113Y107211D02*
X1329113D01*
X1309113Y87211D02*
Y127211D01*
X527108Y142136D02*
X567108D01*
X547108Y122136D02*
Y162136D01*
X443773Y-294096D02*
X483773D01*
X463773Y-314096D02*
Y-274096D01*
X1289113Y-83291D02*
X1329113D01*
X1309113Y-103291D02*
Y-63291D01*
X1479615Y75460D02*
X1519615D01*
X1499615Y55460D02*
Y95460D01*
X1479615Y646939D02*
X1519615D01*
X1499615Y626939D02*
Y666939D01*
X1717742Y456463D02*
X1757742D01*
X1737742Y436463D02*
Y476463D01*
X1670116Y-115041D02*
X1710116D01*
X1690116Y-135041D02*
Y-95041D01*
X908110Y-83291D02*
X948110D01*
X928110Y-103291D02*
Y-63291D01*
X150195Y-115701D02*
X190195D01*
X170195Y-135701D02*
Y-95701D01*
X908110Y107211D02*
X948110D01*
X928110Y87211D02*
Y127211D01*
X1289113Y297712D02*
X1329113D01*
X1309113Y277712D02*
Y317712D01*
X908110Y678715D02*
X948110D01*
X928110Y658715D02*
Y698715D01*
X908110Y488213D02*
X948110D01*
X928110Y468213D02*
Y508213D01*
X717609Y475513D02*
X757609D01*
X737609Y455513D02*
Y495513D01*
X717609Y665990D02*
X757609D01*
X737609Y645990D02*
Y685990D01*
X1098612Y504190D02*
X1138612D01*
X1118612Y484190D02*
Y524190D01*
X1289113Y488213D02*
X1329113D01*
X1309113Y468213D02*
Y508213D01*
X1098612Y123188D02*
X1138612D01*
X1118612Y103187D02*
Y143188D01*
X322840Y-35208D02*
X362840D01*
X342840Y-55208D02*
Y-15208D01*
X616418Y-213577D02*
X656418D01*
X636418Y-233577D02*
Y-193577D01*
X1479615Y-115041D02*
X1519615D01*
X1499615Y-135041D02*
Y-95041D01*
X1717742Y265962D02*
X1757742D01*
X1737742Y245962D02*
Y285962D01*
X1717742Y646939D02*
X1757742D01*
X1737742Y626939D02*
Y666939D01*
X332216Y-355465D02*
X391216D01*
X361716Y-384965D02*
Y-325965D01*
X253282Y780304D02*
X255282D01*
X254282Y779304D02*
Y781304D01*
X275282Y747304D02*
X277282D01*
X276282Y746304D02*
Y748304D01*
X264282Y747304D02*
X266282D01*
X265282Y746304D02*
Y748304D01*
X253282Y747304D02*
X255282D01*
X254282Y746304D02*
Y748304D01*
X242282Y747304D02*
X244282D01*
X243282Y746304D02*
Y748304D01*
X275282Y758304D02*
X277282D01*
X276282Y757304D02*
Y759304D01*
X264282Y758304D02*
X266282D01*
X265282Y757304D02*
Y759304D01*
X253282Y758304D02*
X255282D01*
X254282Y757304D02*
Y759304D01*
X242282Y758304D02*
X244282D01*
X243282Y757304D02*
Y759304D01*
X275282Y769304D02*
X277282D01*
X276282Y768304D02*
Y770304D01*
X264282Y769304D02*
X266282D01*
X265282Y768304D02*
Y770304D01*
X253282Y769304D02*
X255282D01*
X254282Y768304D02*
Y770304D01*
X242282Y769304D02*
X244282D01*
X243282Y768304D02*
Y770304D01*
X275282Y780304D02*
X277282D01*
X276282Y779304D02*
Y781304D01*
X264282Y780304D02*
X266282D01*
X265282Y779304D02*
Y781304D01*
X242282Y780304D02*
X244282D01*
X243282Y779304D02*
Y781304D01*
X29083Y155956D02*
X32385D01*
X30734Y154305D02*
Y157607D01*
X435229Y735330D02*
X438531D01*
X436880Y733679D02*
Y736981D01*
X456819Y433070D02*
X460121D01*
X458470Y431419D02*
Y434721D01*
X456819Y346710D02*
X460121D01*
X458470Y345059D02*
Y348361D01*
X456819Y260350D02*
X460121D01*
X458470Y258699D02*
Y262001D01*
X456819Y173990D02*
X460121D01*
X458470Y172339D02*
Y175641D01*
X435229Y44450D02*
X438531D01*
X436880Y42799D02*
Y46101D01*
X392049Y562610D02*
X395351D01*
X393700Y560959D02*
Y564261D01*
X413639Y519430D02*
X416941D01*
X415290Y517779D02*
Y521081D01*
X392049Y476250D02*
X395351D01*
X393700Y474599D02*
Y477901D01*
X413639Y433070D02*
X416941D01*
X415290Y431419D02*
Y434721D01*
X392049Y389890D02*
X395351D01*
X393700Y388239D02*
Y391541D01*
X413639Y346710D02*
X416941D01*
X415290Y345059D02*
Y348361D01*
X392049Y303530D02*
X395351D01*
X393700Y301879D02*
Y305181D01*
X413639Y260350D02*
X416941D01*
X415290Y258699D02*
Y262001D01*
X392049Y217170D02*
X395351D01*
X393700Y215519D02*
Y218821D01*
X413639Y173990D02*
X416941D01*
X415290Y172339D02*
Y175641D01*
X413639Y87630D02*
X416941D01*
X415290Y85979D02*
Y89281D01*
X370459Y605790D02*
X373761D01*
X372110Y604139D02*
Y607441D01*
X348869Y562610D02*
X352171D01*
X350520Y560959D02*
Y564261D01*
X370459Y519430D02*
X373761D01*
X372110Y517779D02*
Y521081D01*
X348869Y476250D02*
X352171D01*
X350520Y474599D02*
Y477901D01*
X370459Y433070D02*
X373761D01*
X372110Y431419D02*
Y434721D01*
X348869Y389890D02*
X352171D01*
X350520Y388239D02*
Y391541D01*
X370459Y346710D02*
X373761D01*
X372110Y345059D02*
Y348361D01*
X370459Y260350D02*
X373761D01*
X372110Y258699D02*
Y262001D01*
X348869Y217170D02*
X352171D01*
X350520Y215519D02*
Y218821D01*
X370459Y173990D02*
X373761D01*
X372110Y172339D02*
Y175641D01*
X348869Y130810D02*
X352171D01*
X350520Y129159D02*
Y132461D01*
X370459Y87630D02*
X373761D01*
X372110Y85979D02*
Y89281D01*
X348869Y44450D02*
X352171D01*
X350520Y42799D02*
Y46101D01*
X305689Y821690D02*
X308991D01*
X307340Y820039D02*
Y823341D01*
X327279Y605790D02*
X330581D01*
X328930Y604139D02*
Y607441D01*
X327279Y519430D02*
X330581D01*
X328930Y517779D02*
Y521081D01*
X305689Y476250D02*
X308991D01*
X307340Y474599D02*
Y477901D01*
X327279Y346710D02*
X330581D01*
X328930Y345059D02*
Y348361D01*
X327279Y260350D02*
X330581D01*
X328930Y258699D02*
Y262001D01*
X305689Y217170D02*
X308991D01*
X307340Y215519D02*
Y218821D01*
X327279Y173990D02*
X330581D01*
X328930Y172339D02*
Y175641D01*
X305689Y130810D02*
X308991D01*
X307340Y129159D02*
Y132461D01*
X327279Y87630D02*
X330581D01*
X328930Y85979D02*
Y89281D01*
X305689Y44450D02*
X308991D01*
X307340Y42799D02*
Y46101D01*
X262509Y562610D02*
X265811D01*
X264160Y560959D02*
Y564261D01*
X284099Y519430D02*
X287401D01*
X285750Y517779D02*
Y521081D01*
X284099Y260350D02*
X287401D01*
X285750Y258699D02*
Y262001D01*
X262509Y217170D02*
X265811D01*
X264160Y215519D02*
Y218821D01*
X284099Y173990D02*
X287401D01*
X285750Y172339D02*
Y175641D01*
X262509Y130810D02*
X265811D01*
X264160Y129159D02*
Y132461D01*
X284099Y87630D02*
X287401D01*
X285750Y85979D02*
Y89281D01*
X262509Y44450D02*
X265811D01*
X264160Y42799D02*
Y46101D01*
X240919Y519430D02*
X244221D01*
X242570Y517779D02*
Y521081D01*
X240919Y433070D02*
X244221D01*
X242570Y431419D02*
Y434721D01*
X219329Y303530D02*
X222631D01*
X220980Y301879D02*
Y305181D01*
X240919Y260350D02*
X244221D01*
X242570Y258699D02*
Y262001D01*
X219329Y217170D02*
X222631D01*
X220980Y215519D02*
Y218821D01*
X240919Y173990D02*
X244221D01*
X242570Y172339D02*
Y175641D01*
X219329Y130810D02*
X222631D01*
X220980Y129159D02*
Y132461D01*
X240919Y87630D02*
X244221D01*
X242570Y85979D02*
Y89281D01*
X219329Y44450D02*
X222631D01*
X220980Y42799D02*
Y46101D01*
X176149Y562610D02*
X179451D01*
X177800Y560959D02*
Y564261D01*
X197739Y519430D02*
X201041D01*
X199390Y517779D02*
Y521081D01*
X176149Y476250D02*
X179451D01*
X177800Y474599D02*
Y477901D01*
X176149Y303530D02*
X179451D01*
X177800Y301879D02*
Y305181D01*
X197739Y260350D02*
X201041D01*
X199390Y258699D02*
Y262001D01*
X176149Y217170D02*
X179451D01*
X177800Y215519D02*
Y218821D01*
X197739Y173990D02*
X201041D01*
X199390Y172339D02*
Y175641D01*
X176149Y130810D02*
X179451D01*
X177800Y129159D02*
Y132461D01*
X197739Y87630D02*
X201041D01*
X199390Y85979D02*
Y89281D01*
X176149Y44450D02*
X179451D01*
X177800Y42799D02*
Y46101D01*
X154559Y605790D02*
X157861D01*
X156210Y604139D02*
Y607441D01*
X154559Y519430D02*
X157861D01*
X156210Y517779D02*
Y521081D01*
X154559Y433070D02*
X157861D01*
X156210Y431419D02*
Y434721D01*
X154559Y346710D02*
X157861D01*
X156210Y345059D02*
Y348361D01*
X132969Y303530D02*
X136271D01*
X134620Y301879D02*
Y305181D01*
X154559Y260350D02*
X157861D01*
X156210Y258699D02*
Y262001D01*
X132969Y217170D02*
X136271D01*
X134620Y215519D02*
Y218821D01*
X154559Y173990D02*
X157861D01*
X156210Y172339D02*
Y175641D01*
X132969Y130810D02*
X136271D01*
X134620Y129159D02*
Y132461D01*
X154559Y87630D02*
X157861D01*
X156210Y85979D02*
Y89281D01*
X132969Y44450D02*
X136271D01*
X134620Y42799D02*
Y46101D01*
X111379Y778510D02*
X114681D01*
X113030Y776859D02*
Y780161D01*
X89789Y735330D02*
X93091D01*
X91440Y733679D02*
Y736981D01*
X111379Y692150D02*
X114681D01*
X113030Y690499D02*
Y693801D01*
X89789Y648970D02*
X93091D01*
X91440Y647319D02*
Y650621D01*
X111379Y519430D02*
X114681D01*
X113030Y517779D02*
Y521081D01*
X111379Y346710D02*
X114681D01*
X113030Y345059D02*
Y348361D01*
X89789Y303530D02*
X93091D01*
X91440Y301879D02*
Y305181D01*
X89789Y217170D02*
X93091D01*
X91440Y215519D02*
Y218821D01*
X111379Y173990D02*
X114681D01*
X113030Y172339D02*
Y175641D01*
X111379Y87630D02*
X114681D01*
X113030Y85979D02*
Y89281D01*
X68199Y778510D02*
X71501D01*
X69850Y776859D02*
Y780161D01*
X68199Y692150D02*
X71501D01*
X69850Y690499D02*
Y693801D01*
X46609Y648970D02*
X49911D01*
X48260Y647319D02*
Y650621D01*
X46609Y562610D02*
X49911D01*
X48260Y560959D02*
Y564261D01*
X46609Y476250D02*
X49911D01*
X48260Y474599D02*
Y477901D01*
X68199Y433070D02*
X71501D01*
X69850Y431419D02*
Y434721D01*
X68199Y346710D02*
X71501D01*
X69850Y345059D02*
Y348361D01*
X46609Y303530D02*
X49911D01*
X48260Y301879D02*
Y305181D01*
X46609Y217170D02*
X49911D01*
X48260Y215519D02*
Y218821D01*
X68199Y87630D02*
X71501D01*
X69850Y85979D02*
Y89281D01*
X46609Y44450D02*
X49911D01*
X48260Y42799D02*
Y46101D01*
X231362Y810291D02*
X234664D01*
X233013Y808640D02*
Y811942D01*
X313795Y759720D02*
X317097D01*
X315446Y758069D02*
Y761371D01*
X320294Y750189D02*
X323596D01*
X321945Y748538D02*
Y751840D01*
X497459Y776478D02*
X500761D01*
X499110Y774827D02*
Y778129D01*
X497459Y776478D02*
X500761D01*
X499110Y774827D02*
Y778129D01*
X497459Y776478D02*
X500761D01*
X499110Y774827D02*
Y778129D01*
X314071Y766064D02*
X317373D01*
X315722Y764413D02*
Y767715D01*
X274559Y372570D02*
X277861D01*
X276210Y370919D02*
Y374221D01*
X269748Y379984D02*
X273050D01*
X271399Y378333D02*
Y381635D01*
X269748Y379984D02*
X273050D01*
X271399Y378333D02*
Y381635D01*
X269748Y379984D02*
X273050D01*
X271399Y378333D02*
Y381635D01*
X246684Y401750D02*
X249986D01*
X248335Y400099D02*
Y403401D01*
X336550Y777621D02*
X339852D01*
X338201Y775970D02*
Y779272D01*
X368173Y800354D02*
X371475D01*
X369824Y798703D02*
Y802005D01*
X362585Y809244D02*
X365887D01*
X364236Y807593D02*
Y810895D01*
X285908Y705671D02*
X289210D01*
X287559Y704020D02*
Y707322D01*
X278003Y660146D02*
X281305D01*
X279654Y658495D02*
Y661797D01*
X267837Y661442D02*
X271139D01*
X269488Y659791D02*
Y663093D01*
X312293Y648970D02*
X315595D01*
X313944Y647319D02*
Y650621D01*
X345059Y667004D02*
X348361D01*
X346710Y665353D02*
Y668655D01*
X213325Y783882D02*
X216627D01*
X214976Y782231D02*
Y785533D01*
X203264Y803973D02*
X206566D01*
X204915Y802322D02*
Y805624D01*
X203264Y803973D02*
X206566D01*
X204915Y802322D02*
Y805624D01*
X203264Y803973D02*
X206566D01*
X204915Y802322D02*
Y805624D01*
X170307Y788162D02*
X173609D01*
X171958Y786511D02*
Y789813D01*
X208407Y796544D02*
X211709D01*
X210058Y794893D02*
Y798195D01*
X166417Y779192D02*
X169719D01*
X168068Y777541D02*
Y780843D01*
X115705Y584708D02*
X119007D01*
X117356Y583057D02*
Y586359D01*
X130429Y565912D02*
X133731D01*
X132080Y564261D02*
Y567563D01*
X126365Y552704D02*
X129667D01*
X128016Y551053D02*
Y554355D01*
X120269Y566674D02*
X123571D01*
X121920Y565023D02*
Y568325D01*
X216949Y772713D02*
X220251D01*
X218600Y771062D02*
Y774364D01*
X216949Y772713D02*
X220251D01*
X218600Y771062D02*
Y774364D01*
X216949Y772713D02*
X220251D01*
X218600Y771062D02*
Y774364D01*
X204978Y781685D02*
X208280D01*
X206629Y780034D02*
Y783336D01*
X191991Y780305D02*
X195293D01*
X193642Y778654D02*
Y781956D01*
X154813Y769874D02*
X158115D01*
X156464Y768223D02*
Y771525D01*
X304673Y494538D02*
X307975D01*
X306324Y492887D02*
Y496189D01*
X501071Y800093D02*
X504373D01*
X502722Y798442D02*
Y801744D01*
X501071Y800093D02*
X504373D01*
X502722Y798442D02*
Y801744D01*
X497205Y789940D02*
X500507D01*
X498856Y788289D02*
Y791591D01*
X497205Y789940D02*
X500507D01*
X498856Y788289D02*
Y791591D01*
X497205Y789940D02*
X500507D01*
X498856Y788289D02*
Y791591D01*
X501071Y800093D02*
X504373D01*
X502722Y798442D02*
Y801744D01*
X537598Y783837D02*
X540900D01*
X539249Y782186D02*
Y785488D01*
X537598Y783837D02*
X540900D01*
X539249Y782186D02*
Y785488D01*
X537598Y783837D02*
X540900D01*
X539249Y782186D02*
Y785488D01*
X613283Y815594D02*
X616585D01*
X614934Y813943D02*
Y817245D01*
X174347Y771593D02*
X177649D01*
X175998Y769942D02*
Y773244D01*
X181076Y763585D02*
X184378D01*
X182727Y761934D02*
Y765236D01*
X201831Y596365D02*
X205133D01*
X203482Y594714D02*
Y598016D01*
X250063Y415544D02*
X253365D01*
X251714Y413893D02*
Y417195D01*
X226441Y419354D02*
X229743D01*
X228092Y417703D02*
Y421005D01*
X300101Y411988D02*
X303403D01*
X301752Y410337D02*
Y413639D01*
X286639Y696722D02*
X289941D01*
X288290Y695071D02*
Y698373D01*
X260223Y597916D02*
X263525D01*
X261874Y596265D02*
Y599567D01*
X293624Y696087D02*
X296926D01*
X295275Y694436D02*
Y697738D01*
X283083Y601980D02*
X286385D01*
X284734Y600329D02*
Y603631D01*
X261549Y715478D02*
X264851D01*
X263200Y713827D02*
Y717129D01*
X261549Y715478D02*
X264851D01*
X263200Y713827D02*
Y717129D01*
X261549Y715478D02*
X264851D01*
X263200Y713827D02*
Y717129D01*
X271780Y687925D02*
X275082D01*
X273431Y686274D02*
Y689576D01*
X264788Y683395D02*
X268090D01*
X266439Y681744D02*
Y685046D01*
X299847Y717550D02*
X303149D01*
X301498Y715899D02*
Y719201D01*
X299847Y717550D02*
X303149D01*
X301498Y715899D02*
Y719201D01*
X299847Y717550D02*
X303149D01*
X301498Y715899D02*
Y719201D01*
X337312Y464947D02*
X340614D01*
X338963Y463296D02*
Y466598D01*
X216469Y765260D02*
X219771D01*
X218120Y763609D02*
Y766911D01*
X216469Y765260D02*
X219771D01*
X218120Y763609D02*
Y766911D01*
X216469Y765260D02*
X219771D01*
X218120Y763609D02*
Y766911D01*
X240665Y719074D02*
X243967D01*
X242316Y717423D02*
Y720725D01*
X453517Y697230D02*
X456819D01*
X455168Y695579D02*
Y698881D01*
X453517Y697230D02*
X456819D01*
X455168Y695579D02*
Y698881D01*
X453517Y697230D02*
X456819D01*
X455168Y695579D02*
Y698881D01*
X431553Y574160D02*
X434855D01*
X433204Y572509D02*
Y575811D01*
X439928Y590677D02*
X443230D01*
X441579Y589026D02*
Y592328D01*
X604901Y789178D02*
X608203D01*
X606552Y787527D02*
Y790829D01*
X674751Y815340D02*
X678053D01*
X676402Y813689D02*
Y816991D01*
X622427Y791464D02*
X625729D01*
X624078Y789813D02*
Y793115D01*
X592455Y638810D02*
X595757D01*
X594106Y637159D02*
Y640461D01*
X779223Y641858D02*
X782525D01*
X780874Y640207D02*
Y643509D01*
X594497Y388102D02*
X597799D01*
X596148Y386451D02*
Y389753D01*
X582544Y106167D02*
X585846D01*
X584195Y104516D02*
Y107818D01*
X1733423Y556437D02*
X1736725D01*
X1735074Y554786D02*
Y558088D01*
X1355095Y67178D02*
X1358397D01*
X1356746Y65527D02*
Y68829D01*
X1160145Y81534D02*
X1163447D01*
X1161796Y79883D02*
Y83185D01*
X975233Y649986D02*
X978535D01*
X976884Y648335D02*
Y651637D01*
X1163701Y653796D02*
X1167003D01*
X1165352Y652145D02*
Y655447D01*
X1361059Y644398D02*
X1364361D01*
X1362710Y642747D02*
Y646049D01*
X1541477Y618490D02*
X1544779D01*
X1543128Y616839D02*
Y620141D01*
X1536319Y42672D02*
X1539621D01*
X1537970Y41021D02*
Y44323D01*
X786003Y439166D02*
X789305D01*
X787654Y437515D02*
Y440817D01*
X970915Y453644D02*
X974217D01*
X972566Y451993D02*
Y455295D01*
X1158621Y472362D02*
X1161923D01*
X1160272Y470711D02*
Y474013D01*
X1348613Y462749D02*
X1351915D01*
X1350264Y461098D02*
Y464400D01*
X1538351Y434340D02*
X1541653D01*
X1540002Y432689D02*
Y435991D01*
X1780159Y424434D02*
X1783461D01*
X1781810Y422783D02*
Y426085D01*
X1785239Y231902D02*
X1788541D01*
X1786890Y230251D02*
Y233553D01*
X1535816Y226309D02*
X1539118D01*
X1537467Y224658D02*
Y227960D01*
X1356233Y258318D02*
X1359535D01*
X1357884Y256667D02*
Y259969D01*
X1172337Y277114D02*
X1175639D01*
X1173988Y275463D02*
Y278765D01*
X983869Y267716D02*
X987171D01*
X985520Y266065D02*
Y269367D01*
X775843Y62992D02*
X779145D01*
X777494Y61341D02*
Y64643D01*
X776219Y247264D02*
X779521D01*
X777870Y245613D02*
Y248915D01*
X1776095Y42672D02*
X1779397D01*
X1777746Y41021D02*
Y44323D01*
X975741Y60706D02*
X979043D01*
X977392Y59055D02*
Y62357D01*
X963549Y-110998D02*
X966851D01*
X965200Y-112649D02*
Y-109347D01*
X1152525Y-107950D02*
X1155827D01*
X1154176Y-109601D02*
Y-106299D01*
X1351661Y-123190D02*
X1354963D01*
X1353312Y-124841D02*
Y-121539D01*
X1534033Y-138430D02*
X1537335D01*
X1535684Y-140081D02*
Y-136779D01*
X1741043Y-145288D02*
X1744345D01*
X1742694Y-146939D02*
Y-143637D01*
X387477Y-65532D02*
X390779D01*
X389128Y-67183D02*
Y-63881D01*
X357251Y-213614D02*
X360553D01*
X358902Y-215265D02*
Y-211963D01*
X408813Y-389382D02*
X412115D01*
X410464Y-391033D02*
Y-387731D01*
X686689Y-250952D02*
X689991D01*
X688340Y-252603D02*
Y-249301D01*
X505333Y-326136D02*
X508635D01*
X506984Y-327787D02*
Y-324485D01*
X263779Y-44196D02*
X267081D01*
X265430Y-45847D02*
Y-42545D01*
X821055Y218694D02*
X824357D01*
X822706Y217043D02*
Y220345D01*
X821055Y218694D02*
X824357D01*
X822706Y217043D02*
Y220345D01*
X821055Y218694D02*
X824357D01*
X822706Y217043D02*
Y220345D01*
X634619Y364490D02*
X637921D01*
X636270Y362839D02*
Y366141D01*
X634619Y364490D02*
X637921D01*
X636270Y362839D02*
Y366141D01*
X634619Y364490D02*
X637921D01*
X636270Y362839D02*
Y366141D01*
X1577721Y393446D02*
X1581023D01*
X1579372Y391795D02*
Y395097D01*
X1577721Y393446D02*
X1581023D01*
X1579372Y391795D02*
Y395097D01*
X1577721Y393446D02*
X1581023D01*
X1579372Y391795D02*
Y395097D01*
X1188847Y233172D02*
X1192149D01*
X1190498Y231521D02*
Y234823D01*
X1188847Y233172D02*
X1192149D01*
X1190498Y231521D02*
Y234823D01*
X1188847Y233172D02*
X1192149D01*
X1190498Y231521D02*
Y234823D01*
X148992Y332564D02*
X152294D01*
X150643Y330913D02*
Y334215D01*
X278765Y905256D02*
X282067D01*
X280416Y903605D02*
Y906907D01*
X258191Y905256D02*
X261493D01*
X259842Y903605D02*
Y906907D01*
X406273Y902716D02*
X409575D01*
X407924Y901065D02*
Y904367D01*
X380873Y902716D02*
X384175D01*
X382524Y901065D02*
Y904367D01*
X368173Y902716D02*
X371475D01*
X369824Y901065D02*
Y904367D01*
X355473Y902716D02*
X358775D01*
X357124Y901065D02*
Y904367D01*
X342773Y902716D02*
X346075D01*
X344424Y901065D02*
Y904367D01*
X330073Y902716D02*
X333375D01*
X331724Y901065D02*
Y904367D01*
X317373Y902716D02*
X320675D01*
X319024Y901065D02*
Y904367D01*
X304673Y902716D02*
X307975D01*
X306324Y901065D02*
Y904367D01*
X291973Y902716D02*
X295275D01*
X293624Y901065D02*
Y904367D01*
X241173Y902716D02*
X244475D01*
X242824Y901065D02*
Y904367D01*
X228473Y902716D02*
X231775D01*
X230124Y901065D02*
Y904367D01*
X215773Y902716D02*
X219075D01*
X217424Y901065D02*
Y904367D01*
X203073Y902716D02*
X206375D01*
X204724Y901065D02*
Y904367D01*
X190373Y902716D02*
X193675D01*
X192024Y901065D02*
Y904367D01*
X177673Y902716D02*
X180975D01*
X179324Y901065D02*
Y904367D01*
X164973Y902716D02*
X168275D01*
X166624Y901065D02*
Y904367D01*
X152273Y902716D02*
X155575D01*
X153924Y901065D02*
Y904367D01*
X139573Y902716D02*
X142875D01*
X141224Y901065D02*
Y904367D01*
X126873Y902716D02*
X130175D01*
X128524Y901065D02*
Y904367D01*
X114173Y902716D02*
X117475D01*
X115824Y901065D02*
Y904367D01*
X101473Y902716D02*
X104775D01*
X103124Y901065D02*
Y904367D01*
X88773Y902716D02*
X92075D01*
X90424Y901065D02*
Y904367D01*
X76073Y902716D02*
X79375D01*
X77724Y901065D02*
Y904367D01*
X63373Y902716D02*
X66675D01*
X65024Y901065D02*
Y904367D01*
X50673Y902716D02*
X53975D01*
X52324Y901065D02*
Y904367D01*
X37973Y902716D02*
X41275D01*
X39624Y901065D02*
Y904367D01*
X25273Y902716D02*
X28575D01*
X26924Y901065D02*
Y904367D01*
X12573Y902716D02*
X15875D01*
X14224Y901065D02*
Y904367D01*
X1386713Y255778D02*
X1390015D01*
X1388364Y254127D02*
Y257429D01*
X1386713Y255778D02*
X1390015D01*
X1388364Y254127D02*
Y257429D01*
X1386713Y209550D02*
X1390015D01*
X1388364Y207899D02*
Y211201D01*
X1386713Y209550D02*
X1390015D01*
X1388364Y207899D02*
Y211201D01*
X1386713Y209550D02*
X1390015D01*
X1388364Y207899D02*
Y211201D01*
X1389507Y66548D02*
X1392809D01*
X1391158Y64897D02*
Y68199D01*
X1389507Y66548D02*
X1392809D01*
X1391158Y64897D02*
Y68199D01*
X1389507Y66548D02*
X1392809D01*
X1391158Y64897D02*
Y68199D01*
X1389507Y19812D02*
X1392809D01*
X1391158Y18161D02*
Y21463D01*
X1389507Y19812D02*
X1392809D01*
X1391158Y18161D02*
Y21463D01*
X1389507Y19812D02*
X1392809D01*
X1391158Y18161D02*
Y21463D01*
X554609Y836501D02*
X557911D01*
X556260Y834850D02*
Y838152D01*
X554609Y836501D02*
X557911D01*
X556260Y834850D02*
Y838152D01*
X554609Y836501D02*
X557911D01*
X556260Y834850D02*
Y838152D01*
X463677Y-29210D02*
X466979D01*
X465328Y-30861D02*
Y-27559D01*
X463677Y-29210D02*
X466979D01*
X465328Y-30861D02*
Y-27559D01*
X463677Y-29210D02*
X466979D01*
X465328Y-30861D02*
Y-27559D01*
X334518Y736219D02*
X337820D01*
X336169Y734568D02*
Y737870D01*
X361823Y723392D02*
X365125D01*
X363474Y721741D02*
Y725043D01*
X361823Y723392D02*
X365125D01*
X363474Y721741D02*
Y725043D01*
X361823Y723392D02*
X365125D01*
X363474Y721741D02*
Y725043D01*
X553339Y844296D02*
X556641D01*
X554990Y842645D02*
Y845947D01*
X553339Y844296D02*
X556641D01*
X554990Y842645D02*
Y845947D01*
X553339Y844296D02*
X556641D01*
X554990Y842645D02*
Y845947D01*
X1409065Y842264D02*
X1412367D01*
X1410716Y840613D02*
Y843915D01*
X1409065Y842264D02*
X1412367D01*
X1410716Y840613D02*
Y843915D01*
X1409065Y842264D02*
X1412367D01*
X1410716Y840613D02*
Y843915D01*
X1416939Y772668D02*
X1420241D01*
X1418590Y771017D02*
Y774319D01*
X201168Y825881D02*
X204470D01*
X202819Y824230D02*
Y827532D01*
X269240Y620141D02*
X272542D01*
X270891Y618490D02*
Y621792D01*
X185293Y807974D02*
X188595D01*
X186944Y806323D02*
Y809625D01*
X185293Y807974D02*
X188595D01*
X186944Y806323D02*
Y809625D01*
X185293Y807974D02*
X188595D01*
X186944Y806323D02*
Y809625D01*
X175786Y618635D02*
X179088D01*
X177437Y616984D02*
Y620286D01*
X175786Y618635D02*
X179088D01*
X177437Y616984D02*
Y620286D01*
X175786Y618635D02*
X179088D01*
X177437Y616984D02*
Y620286D01*
X177673Y823722D02*
X180975D01*
X179324Y822071D02*
Y825373D01*
X255651Y804926D02*
X258953D01*
X257302Y803275D02*
Y806577D01*
X255651Y804926D02*
X258953D01*
X257302Y803275D02*
Y806577D01*
X255651Y804926D02*
X258953D01*
X257302Y803275D02*
Y806577D01*
X198597Y410114D02*
X201899D01*
X200248Y408463D02*
Y411765D01*
X198597Y410114D02*
X201899D01*
X200248Y408463D02*
Y411765D01*
X198597Y410114D02*
X201899D01*
X200248Y408463D02*
Y411765D01*
X249555Y409194D02*
X252857D01*
X251206Y407543D02*
Y410845D01*
X249555Y409194D02*
X252857D01*
X251206Y407543D02*
Y410845D01*
X249555Y409194D02*
X252857D01*
X251206Y407543D02*
Y410845D01*
X245237Y356108D02*
X248539D01*
X246888Y354457D02*
Y357759D01*
X245237Y356108D02*
X248539D01*
X246888Y354457D02*
Y357759D01*
X245237Y356108D02*
X248539D01*
X246888Y354457D02*
Y357759D01*
X680593Y802132D02*
X683895D01*
X682244Y800481D02*
Y803783D01*
X680593Y802132D02*
X683895D01*
X682244Y800481D02*
Y803783D01*
X680593Y802132D02*
X683895D01*
X682244Y800481D02*
Y803783D01*
X1586998Y810514D02*
X1590300D01*
X1588649Y808863D02*
Y812165D01*
X1586998Y810514D02*
X1590300D01*
X1588649Y808863D02*
Y812165D01*
X1586998Y810514D02*
X1590300D01*
X1588649Y808863D02*
Y812165D01*
X1600327Y785876D02*
X1603629D01*
X1601978Y784225D02*
Y787527D01*
X1600327Y785876D02*
X1603629D01*
X1601978Y784225D02*
Y787527D01*
X1600327Y785876D02*
X1603629D01*
X1601978Y784225D02*
Y787527D01*
X1577213Y602488D02*
X1580515D01*
X1578864Y600837D02*
Y604139D01*
X1577213Y602488D02*
X1580515D01*
X1578864Y600837D02*
Y604139D01*
X1577213Y602488D02*
X1580515D01*
X1578864Y600837D02*
Y604139D01*
X1577213Y541528D02*
X1580515D01*
X1578864Y539877D02*
Y543179D01*
X1577213Y541528D02*
X1580515D01*
X1578864Y539877D02*
Y543179D01*
X1577213Y541528D02*
X1580515D01*
X1578864Y539877D02*
Y543179D01*
X1576959Y415036D02*
X1580261D01*
X1578610Y413385D02*
Y416687D01*
X1576959Y415036D02*
X1580261D01*
X1578610Y413385D02*
Y416687D01*
X1576959Y415036D02*
X1580261D01*
X1578610Y413385D02*
Y416687D01*
X1572387Y217678D02*
X1575689D01*
X1574038Y216027D02*
Y219329D01*
X1572387Y217678D02*
X1575689D01*
X1574038Y216027D02*
Y219329D01*
X1572387Y217678D02*
X1575689D01*
X1574038Y216027D02*
Y219329D01*
X1573403Y195834D02*
X1576705D01*
X1575054Y194183D02*
Y197485D01*
X1573403Y195834D02*
X1576705D01*
X1575054Y194183D02*
Y197485D01*
X1573403Y195834D02*
X1576705D01*
X1575054Y194183D02*
Y197485D01*
X1574927Y25654D02*
X1578229D01*
X1576578Y24003D02*
Y27305D01*
X1574927Y25654D02*
X1578229D01*
X1576578Y24003D02*
Y27305D01*
X1574927Y25654D02*
X1578229D01*
X1576578Y24003D02*
Y27305D01*
X1574165Y9652D02*
X1577467D01*
X1575816Y8001D02*
Y11303D01*
X1574165Y9652D02*
X1577467D01*
X1575816Y8001D02*
Y11303D01*
X1574165Y9652D02*
X1577467D01*
X1575816Y8001D02*
Y11303D01*
X735965Y764540D02*
X739267D01*
X737616Y762889D02*
Y766191D01*
X735965Y764540D02*
X739267D01*
X737616Y762889D02*
Y766191D01*
X735965Y764540D02*
X739267D01*
X737616Y762889D02*
Y766191D01*
X534797Y775970D02*
X538099D01*
X536448Y774319D02*
Y777621D01*
X534797Y775970D02*
X538099D01*
X536448Y774319D02*
Y777621D01*
X534797Y775970D02*
X538099D01*
X536448Y774319D02*
Y777621D01*
X550291Y797814D02*
X553593D01*
X551942Y796163D02*
Y799465D01*
X645541Y792226D02*
X648843D01*
X647192Y790575D02*
Y793877D01*
X645541Y792226D02*
X648843D01*
X647192Y790575D02*
Y793877D01*
X645541Y792226D02*
X648843D01*
X647192Y790575D02*
Y793877D01*
X975999Y804925D02*
X979301D01*
X977650Y803274D02*
Y806576D01*
X975999Y804925D02*
X979301D01*
X977650Y803274D02*
Y806576D01*
X975999Y804925D02*
X979301D01*
X977650Y803274D02*
Y806576D01*
X993521Y786384D02*
X996823D01*
X995172Y784733D02*
Y788035D01*
X993521Y786384D02*
X996823D01*
X995172Y784733D02*
Y788035D01*
X993521Y786384D02*
X996823D01*
X995172Y784733D02*
Y788035D01*
X637667Y699008D02*
X640969D01*
X639318Y697357D02*
Y700659D01*
X637667Y699008D02*
X640969D01*
X639318Y697357D02*
Y700659D01*
X637667Y699008D02*
X640969D01*
X639318Y697357D02*
Y700659D01*
X638175Y588264D02*
X641477D01*
X639826Y586613D02*
Y589915D01*
X638175Y588264D02*
X641477D01*
X639826Y586613D02*
Y589915D01*
X638175Y588264D02*
X641477D01*
X639826Y586613D02*
Y589915D01*
X634619Y379476D02*
X637921D01*
X636270Y377825D02*
Y381127D01*
X634619Y379476D02*
X637921D01*
X636270Y377825D02*
Y381127D01*
X634619Y379476D02*
X637921D01*
X636270Y377825D02*
Y381127D01*
X638937Y262636D02*
X642239D01*
X640588Y260985D02*
Y264287D01*
X638937Y262636D02*
X642239D01*
X640588Y260985D02*
Y264287D01*
X638937Y262636D02*
X642239D01*
X640588Y260985D02*
Y264287D01*
X635127Y226314D02*
X638429D01*
X636778Y224663D02*
Y227965D01*
X635127Y226314D02*
X638429D01*
X636778Y224663D02*
Y227965D01*
X635127Y226314D02*
X638429D01*
X636778Y224663D02*
Y227965D01*
X640207Y76454D02*
X643509D01*
X641858Y74803D02*
Y78105D01*
X640207Y76454D02*
X643509D01*
X641858Y74803D02*
Y78105D01*
X640207Y76454D02*
X643509D01*
X641858Y74803D02*
Y78105D01*
X632079Y53848D02*
X635381D01*
X633730Y52197D02*
Y55499D01*
X632079Y53848D02*
X635381D01*
X633730Y52197D02*
Y55499D01*
X632079Y53848D02*
X635381D01*
X633730Y52197D02*
Y55499D01*
X427863Y-27178D02*
X431165D01*
X429514Y-28829D02*
Y-25527D01*
X427863Y-27178D02*
X431165D01*
X429514Y-28829D02*
Y-25527D01*
X427863Y-27178D02*
X431165D01*
X429514Y-28829D02*
Y-25527D01*
X810248Y56019D02*
X813550D01*
X811899Y54368D02*
Y57670D01*
X810248Y56019D02*
X813550D01*
X811899Y54368D02*
Y57670D01*
X810248Y56019D02*
X813550D01*
X811899Y54368D02*
Y57670D01*
X810133Y33020D02*
X813435D01*
X811784Y31369D02*
Y34671D01*
X1416939Y772668D02*
X1420241D01*
X1418590Y771017D02*
Y774319D01*
X1416939Y772668D02*
X1420241D01*
X1418590Y771017D02*
Y774319D01*
X537591Y824055D02*
X540893D01*
X539242Y822404D02*
Y825706D01*
X537591Y824055D02*
X540893D01*
X539242Y822404D02*
Y825706D01*
X537591Y824055D02*
X540893D01*
X539242Y822404D02*
Y825706D01*
X422783Y704850D02*
X426085D01*
X424434Y703199D02*
Y706501D01*
X422783Y704850D02*
X426085D01*
X424434Y703199D02*
Y706501D01*
X422783Y704850D02*
X426085D01*
X424434Y703199D02*
Y706501D01*
X279019Y830834D02*
X282321D01*
X280670Y829183D02*
Y832485D01*
X279019Y838708D02*
X282321D01*
X280670Y837057D02*
Y840359D01*
X279019Y845820D02*
X282321D01*
X280670Y844169D02*
Y847471D01*
X279273Y853186D02*
X282575D01*
X280924Y851535D02*
Y854837D01*
X278765Y883412D02*
X282067D01*
X280416Y881761D02*
Y885063D01*
X278765Y890524D02*
X282067D01*
X280416Y888873D02*
Y892175D01*
X278765Y897636D02*
X282067D01*
X280416Y895985D02*
Y899287D01*
X258699Y897636D02*
X262001D01*
X260350Y895985D02*
Y899287D01*
X260223Y890524D02*
X263525D01*
X261874Y888873D02*
Y892175D01*
X260223Y883412D02*
X263525D01*
X261874Y881761D02*
Y885063D01*
X278765Y876300D02*
X282067D01*
X280416Y874649D02*
Y877951D01*
X260477Y853440D02*
X263779D01*
X262128Y851789D02*
Y855091D01*
X279019Y822960D02*
X282321D01*
X280670Y821309D02*
Y824611D01*
X279019Y815086D02*
X282321D01*
X280670Y813435D02*
Y816737D01*
X260477Y876300D02*
X263779D01*
X262128Y874649D02*
Y877951D01*
X266065Y455676D02*
X269367D01*
X267716Y454025D02*
Y457327D01*
X260865Y446292D02*
X264167D01*
X262516Y444641D02*
Y447943D01*
X260865Y433965D02*
X264167D01*
X262516Y432314D02*
Y435616D01*
X1014095Y38354D02*
X1017397D01*
X1015746Y36703D02*
Y40005D01*
X1014095Y38354D02*
X1017397D01*
X1015746Y36703D02*
Y40005D01*
X1014095Y38354D02*
X1017397D01*
X1015746Y36703D02*
Y40005D01*
X1179703Y640842D02*
X1183005D01*
X1181354Y639191D02*
Y642493D01*
X1179703Y640842D02*
X1183005D01*
X1181354Y639191D02*
Y642493D01*
X1179703Y640842D02*
X1183005D01*
X1181354Y639191D02*
Y642493D01*
X1179703Y625602D02*
X1183005D01*
X1181354Y623951D02*
Y627253D01*
X1179703Y625602D02*
X1183005D01*
X1181354Y623951D02*
Y627253D01*
X1179703Y625602D02*
X1183005D01*
X1181354Y623951D02*
Y627253D01*
X1176655Y456692D02*
X1179957D01*
X1178306Y455041D02*
Y458343D01*
X1176655Y456692D02*
X1179957D01*
X1178306Y455041D02*
Y458343D01*
X1176655Y456692D02*
X1179957D01*
X1178306Y455041D02*
Y458343D01*
X1176563Y435448D02*
X1179865D01*
X1178214Y433797D02*
Y437099D01*
X1176563Y435448D02*
X1179865D01*
X1178214Y433797D02*
Y437099D01*
X1176563Y435448D02*
X1179865D01*
X1178214Y433797D02*
Y437099D01*
X1188085Y217170D02*
X1191387D01*
X1189736Y215519D02*
Y218821D01*
X1188085Y217170D02*
X1191387D01*
X1189736Y215519D02*
Y218821D01*
X1188085Y217170D02*
X1191387D01*
X1189736Y215519D02*
Y218821D01*
X1180465Y81534D02*
X1183767D01*
X1182116Y79883D02*
Y83185D01*
X1180465Y81534D02*
X1183767D01*
X1182116Y79883D02*
Y83185D01*
X1180465Y81534D02*
X1183767D01*
X1182116Y79883D02*
Y83185D01*
X1178941Y43688D02*
X1182243D01*
X1180592Y42037D02*
Y45339D01*
X1178941Y43688D02*
X1182243D01*
X1180592Y42037D02*
Y45339D01*
X1178941Y43688D02*
X1182243D01*
X1180592Y42037D02*
Y45339D01*
X1387475Y636016D02*
X1390777D01*
X1389126Y634365D02*
Y637667D01*
X1387475Y636016D02*
X1390777D01*
X1389126Y634365D02*
Y637667D01*
X1387475Y636016D02*
X1390777D01*
X1389126Y634365D02*
Y637667D01*
X1387475Y599694D02*
X1390777D01*
X1389126Y598043D02*
Y601345D01*
X1387475Y599694D02*
X1390777D01*
X1389126Y598043D02*
Y601345D01*
X1387475Y599694D02*
X1390777D01*
X1389126Y598043D02*
Y601345D01*
X1386713Y445516D02*
X1390015D01*
X1388364Y443865D02*
Y447167D01*
X1386713Y445516D02*
X1390015D01*
X1388364Y443865D02*
Y447167D01*
X1386713Y445516D02*
X1390015D01*
X1388364Y443865D02*
Y447167D01*
X1385443Y408432D02*
X1388745D01*
X1387094Y406781D02*
Y410083D01*
X1385443Y408432D02*
X1388745D01*
X1387094Y406781D02*
Y410083D01*
X1385443Y408432D02*
X1388745D01*
X1387094Y406781D02*
Y410083D01*
X1386713Y255778D02*
X1390015D01*
X1388364Y254127D02*
Y257429D01*
X63881Y799338D02*
X67183D01*
X65532Y797687D02*
Y800989D01*
X179324Y838073D02*
X182626D01*
X180975Y836422D02*
Y839724D01*
X282956Y807593D02*
X286258D01*
X284607Y805942D02*
Y809244D01*
X276860Y807339D02*
X280162D01*
X278511Y805688D02*
Y808990D01*
X333375Y790956D02*
X336677D01*
X335026Y789305D02*
Y792607D01*
X303403Y797306D02*
X306705D01*
X305054Y795655D02*
Y798957D01*
X468122Y811403D02*
X471424D01*
X469773Y809752D02*
Y813054D01*
X289306Y636143D02*
X292608D01*
X290957Y634492D02*
Y637794D01*
X268470Y643763D02*
X271772D01*
X270121Y642112D02*
Y645414D01*
X316738Y677291D02*
X320040D01*
X318389Y675640D02*
Y678942D01*
X127762Y443865D02*
X131064D01*
X129413Y442214D02*
Y445516D01*
X130048Y473837D02*
X133350D01*
X131699Y472186D02*
Y475488D01*
X106172Y300101D02*
X109474D01*
X107823Y298450D02*
Y301752D01*
X108946Y264307D02*
X112248D01*
X110597Y262656D02*
Y265958D01*
X279273Y860793D02*
X282575D01*
X280924Y859142D02*
Y862444D01*
X260223Y860679D02*
X263525D01*
X261874Y859028D02*
Y862330D01*
X530098Y770001D02*
X533400D01*
X531749Y768350D02*
Y771652D01*
X257810Y679831D02*
X261112D01*
X259461Y678180D02*
Y681482D01*
X214122Y695071D02*
X217424D01*
X215773Y693420D02*
Y696722D01*
X415671Y637032D02*
X418973D01*
X417322Y635381D02*
Y638683D01*
X366776Y775524D02*
X370078D01*
X368427Y773873D02*
Y777175D01*
X336550Y375031D02*
X339852D01*
X338201Y373380D02*
Y376682D01*
X336296Y447421D02*
X339598D01*
X337947Y445770D02*
Y449072D01*
X264414Y338709D02*
X267716D01*
X266065Y337058D02*
Y340360D01*
X283464Y337947D02*
X286766D01*
X285115Y336296D02*
Y339598D01*
X78994Y323723D02*
X82296D01*
X80645Y322072D02*
Y325374D01*
X76852Y251189D02*
X80154D01*
X78502Y249538D02*
Y252840D01*
X396621Y573278D02*
X399923D01*
X398272Y571627D02*
Y574929D01*
X388747Y592328D02*
X392049D01*
X390398Y590677D02*
Y593979D01*
X388747Y592328D02*
X392049D01*
X390398Y590677D02*
Y593979D01*
X388747Y592328D02*
X392049D01*
X390398Y590677D02*
Y593979D01*
X408813Y593852D02*
X412115D01*
X410464Y592201D02*
Y595503D01*
X408813Y593852D02*
X412115D01*
X410464Y592201D02*
Y595503D01*
X408813Y593852D02*
X412115D01*
X410464Y592201D02*
Y595503D01*
X223139Y626474D02*
X226441D01*
X224790Y624823D02*
Y628125D01*
X219329Y866140D02*
X222631D01*
X220980Y864489D02*
Y867791D01*
X239903Y845820D02*
X243205D01*
X241554Y844169D02*
Y847471D01*
X239935Y860565D02*
X243237D01*
X241586Y858914D02*
Y862216D01*
X239935Y860565D02*
X243237D01*
X241586Y858914D02*
Y862216D01*
X239935Y860565D02*
X243237D01*
X241586Y858914D02*
Y862216D01*
X222399Y723011D02*
X225701D01*
X224050Y721360D02*
Y724662D01*
X214116Y703193D02*
X217418D01*
X215767Y701542D02*
Y704844D01*
X225679Y653542D02*
X228981D01*
X227330Y651891D02*
Y655193D01*
X225679Y653542D02*
X228981D01*
X227330Y651891D02*
Y655193D01*
X225679Y653542D02*
X228981D01*
X227330Y651891D02*
Y655193D01*
X253365Y376428D02*
X256667D01*
X255016Y374777D02*
Y378079D01*
X244032Y370738D02*
X247334D01*
X245683Y369087D02*
Y372389D01*
X262255Y363474D02*
X265557D01*
X263906Y361823D02*
Y365125D01*
X201803Y365252D02*
X205105D01*
X203454Y363601D02*
Y366903D01*
X175105Y366762D02*
X178407D01*
X176756Y365111D02*
Y368413D01*
X174371Y387858D02*
X177673D01*
X176022Y386207D02*
Y389509D01*
X260303Y839181D02*
X263605D01*
X261954Y837530D02*
Y840832D01*
X260263Y845912D02*
X263565D01*
X261914Y844261D02*
Y847563D01*
X266145Y806878D02*
X269447D01*
X267796Y805227D02*
Y808529D01*
X810133Y33020D02*
X813435D01*
X811784Y31369D02*
Y34671D01*
X810133Y33020D02*
X813435D01*
X811784Y31369D02*
Y34671D01*
X820039Y237490D02*
X823341D01*
X821690Y235839D02*
Y239141D01*
X820039Y237490D02*
X823341D01*
X821690Y235839D02*
Y239141D01*
X820039Y237490D02*
X823341D01*
X821690Y235839D02*
Y239141D01*
X829437Y425704D02*
X832739D01*
X831088Y424053D02*
Y427355D01*
X829437Y425704D02*
X832739D01*
X831088Y424053D02*
Y427355D01*
X829437Y425704D02*
X832739D01*
X831088Y424053D02*
Y427355D01*
X828929Y403860D02*
X832231D01*
X830580Y402209D02*
Y405511D01*
X828929Y403860D02*
X832231D01*
X830580Y402209D02*
Y405511D01*
X828929Y403860D02*
X832231D01*
X830580Y402209D02*
Y405511D01*
X824357Y607822D02*
X827659D01*
X826008Y606171D02*
Y609473D01*
X824357Y607822D02*
X827659D01*
X826008Y606171D02*
Y609473D01*
X824357Y607822D02*
X827659D01*
X826008Y606171D02*
Y609473D01*
X823341Y586486D02*
X826643D01*
X824992Y584835D02*
Y588137D01*
X823341Y586486D02*
X826643D01*
X824992Y584835D02*
Y588137D01*
X823341Y586486D02*
X826643D01*
X824992Y584835D02*
Y588137D01*
X1008253Y629920D02*
X1011555D01*
X1009904Y628269D02*
Y631571D01*
X1008253Y629920D02*
X1011555D01*
X1009904Y628269D02*
Y631571D01*
X1008253Y629920D02*
X1011555D01*
X1009904Y628269D02*
Y631571D01*
X1009523Y608330D02*
X1012825D01*
X1011174Y606679D02*
Y609981D01*
X1009523Y608330D02*
X1012825D01*
X1011174Y606679D02*
Y609981D01*
X1009523Y608330D02*
X1012825D01*
X1011174Y606679D02*
Y609981D01*
X1014095Y436626D02*
X1017397D01*
X1015746Y434975D02*
Y438277D01*
X1014095Y436626D02*
X1017397D01*
X1015746Y434975D02*
Y438277D01*
X1014095Y436626D02*
X1017397D01*
X1015746Y434975D02*
Y438277D01*
X1014603Y419354D02*
X1017905D01*
X1016254Y417703D02*
Y421005D01*
X1014603Y419354D02*
X1017905D01*
X1016254Y417703D02*
Y421005D01*
X1014603Y419354D02*
X1017905D01*
X1016254Y417703D02*
Y421005D01*
X1018159Y246634D02*
X1021461D01*
X1019810Y244983D02*
Y248285D01*
X1018159Y246634D02*
X1021461D01*
X1019810Y244983D02*
Y248285D01*
X1018159Y246634D02*
X1021461D01*
X1019810Y244983D02*
Y248285D01*
X1019683Y228600D02*
X1022985D01*
X1021334Y226949D02*
Y230251D01*
X1019683Y228600D02*
X1022985D01*
X1021334Y226949D02*
Y230251D01*
X1019683Y228600D02*
X1022985D01*
X1021334Y226949D02*
Y230251D01*
X1013587Y58969D02*
X1016889D01*
X1015238Y57318D02*
Y60620D01*
X1013587Y58969D02*
X1016889D01*
X1015238Y57318D02*
Y60620D01*
X1013587Y58969D02*
X1016889D01*
X1015238Y57318D02*
Y60620D01*
M02*
