G04*
G04 #@! TF.GenerationSoftware,Altium Limited,Altium Designer,24.5.2 (23)*
G04*
G04 Layer_Color=32768*
%FSLAX44Y44*%
%MOMM*%
G71*
G04*
G04 #@! TF.SameCoordinates,960C30EB-BCCC-465A-99A9-4967EBCBCE3C*
G04*
G04*
G04 #@! TF.FilePolarity,Positive*
G04*
G01*
G75*
%ADD12C,0.1000*%
%ADD13C,0.1524*%
%ADD14C,0.2540*%
%ADD201C,0.0500*%
D12*
X570302Y802894D02*
X579302D01*
X574802Y798394D02*
Y807394D01*
X159766Y833200D02*
Y843200D01*
X154766Y838200D02*
X164766D01*
X163402Y880110D02*
X173402D01*
X168402Y875110D02*
Y885110D01*
X297942Y662504D02*
Y671504D01*
X293442Y667004D02*
X302442D01*
X322072Y745824D02*
Y755824D01*
X317072Y750824D02*
X327072D01*
X466900Y821182D02*
X472900D01*
X469900Y818182D02*
Y824182D01*
X238054Y849448D02*
Y858448D01*
X233554Y853948D02*
X242554D01*
X197866Y851710D02*
Y857710D01*
X194866Y854710D02*
X200866D01*
X164132Y545338D02*
X170132D01*
X167132Y542338D02*
Y548338D01*
X254782Y763804D02*
X264782D01*
X259782Y758804D02*
Y768804D01*
X276352Y407416D02*
Y411416D01*
Y403416D02*
Y407416D01*
X272352D02*
X276352D01*
X280352D01*
X643128Y812594D02*
Y818594D01*
X640128Y815594D02*
X646128D01*
X621284Y808816D02*
Y818816D01*
X616284Y813816D02*
X626284D01*
X657686Y815848D02*
X667686D01*
X662686Y810848D02*
Y820848D01*
X149352Y558118D02*
Y568118D01*
X144352Y563118D02*
X154352D01*
X321284Y443703D02*
Y452703D01*
X316784Y448203D02*
X325784D01*
X321284Y479856D02*
Y488855D01*
X316784Y484356D02*
X325784D01*
X321284Y461779D02*
Y470779D01*
X316784Y466279D02*
X325784D01*
X321284Y389474D02*
Y398474D01*
X316784Y393974D02*
X325784D01*
X287862Y485648D02*
X297862D01*
X292862Y480648D02*
Y490648D01*
X321284Y425627D02*
Y434627D01*
X316784Y430127D02*
X325784D01*
X321284Y407550D02*
Y416550D01*
X316784Y412050D02*
X325784D01*
X283790Y450596D02*
X292790D01*
X288290Y446096D02*
Y455096D01*
X234522Y410350D02*
X244522D01*
X239522Y405350D02*
Y415350D01*
X263732Y472948D02*
X273732D01*
X268732Y467948D02*
Y477948D01*
X255498Y344735D02*
Y354736D01*
X250498Y349736D02*
X260498D01*
X279454Y357610D02*
X289454D01*
X284454Y352609D02*
Y362610D01*
X210392Y410210D02*
X220392D01*
X215392Y405210D02*
Y415210D01*
X321284Y371398D02*
Y380397D01*
X316784Y375898D02*
X325784D01*
X1618052Y794766D02*
X1627052D01*
X1622552Y790266D02*
Y799266D01*
X1856486Y796616D02*
Y805616D01*
X1851986Y801116D02*
X1860986D01*
X242952Y813208D02*
X251952D01*
X247452Y808708D02*
Y817708D01*
X570302Y787146D02*
X579302D01*
X574802Y782646D02*
Y791646D01*
X88900Y813642D02*
Y823642D01*
X83900Y818642D02*
X93900D01*
X212852Y819222D02*
Y828222D01*
X208352Y823722D02*
X217352D01*
X240792Y834946D02*
Y840946D01*
X237792Y837946D02*
X243792D01*
X234522Y871220D02*
X244522D01*
X239522Y866220D02*
Y876220D01*
X241574Y826262D02*
X251574D01*
X246574Y821262D02*
Y831262D01*
X349076Y735584D02*
X359076D01*
X354076Y730584D02*
Y740584D01*
X171196Y742006D02*
Y751006D01*
X166696Y746506D02*
X175696D01*
X347806Y767334D02*
X357806D01*
X352806Y762334D02*
Y772334D01*
X315548Y777748D02*
X325548D01*
X320548Y772748D02*
Y782748D01*
X245444Y642366D02*
X255444D01*
X250444Y637366D02*
Y647366D01*
X228426Y693674D02*
X238426D01*
X233426Y688674D02*
Y698674D01*
X245444Y661670D02*
X255444D01*
X250444Y656670D02*
Y666670D01*
X274320Y693754D02*
Y703754D01*
X269320Y698754D02*
X279320D01*
X258826Y694008D02*
Y704008D01*
X253826Y699008D02*
X263826D01*
X347298Y751586D02*
X357298D01*
X352298Y746586D02*
Y756586D01*
X187960Y758524D02*
Y768524D01*
X182960Y763524D02*
X192960D01*
X208280Y758664D02*
Y768664D01*
X203280Y763664D02*
X213280D01*
X228426Y708914D02*
X238426D01*
X233426Y703914D02*
Y713914D01*
X264462Y858266D02*
X270462D01*
X267462Y855266D02*
Y861266D01*
X382088Y898906D02*
X391088D01*
X386588Y894406D02*
Y903406D01*
X267462Y813102D02*
Y819102D01*
X264462Y816102D02*
X270462D01*
X260315Y840542D02*
X266315D01*
X263315Y837542D02*
Y843542D01*
X234522Y887730D02*
X244522D01*
X239522Y882730D02*
Y892730D01*
X267543Y880475D02*
Y886476D01*
X264543Y883476D02*
X270543D01*
X109554Y434594D02*
X119554D01*
X114554Y429594D02*
Y439594D01*
X87192Y294172D02*
X96192D01*
X91692Y289672D02*
Y298672D01*
X88208Y264454D02*
X97208D01*
X92708Y259954D02*
Y268954D01*
X209053Y329977D02*
X215053D01*
X212053Y326977D02*
Y332977D01*
X391922Y649550D02*
Y658550D01*
X387422Y654050D02*
X396422D01*
X427276Y645580D02*
X433276D01*
X430276Y642580D02*
Y648580D01*
X293696Y685038D02*
X302696D01*
X298196Y680538D02*
Y689538D01*
X86360Y-41710D02*
Y-32710D01*
X81860Y-37210D02*
X90860D01*
X96520Y430220D02*
Y439220D01*
X92020Y434720D02*
X101020D01*
X282242Y652526D02*
X288242D01*
X285242Y649526D02*
Y655526D01*
X340694Y827532D02*
X350694D01*
X345694Y822532D02*
Y832532D01*
X1424250Y790702D02*
X1433250D01*
X1428750Y786202D02*
Y795202D01*
X1209620Y793750D02*
X1218620D01*
X1214120Y789250D02*
Y798250D01*
X1007944Y790702D02*
X1016944D01*
X1012444Y786202D02*
Y795202D01*
X835732Y779272D02*
X844732D01*
X840232Y774772D02*
Y783772D01*
X621864Y763524D02*
X630864D01*
X626364Y759024D02*
Y768024D01*
X448818Y664282D02*
Y673282D01*
X444318Y668782D02*
X453318D01*
X416814Y895176D02*
Y905176D01*
X411814Y900176D02*
X421814D01*
D13*
X366014Y-397383D02*
X434086D01*
X366014Y-441833D02*
Y-397383D01*
Y-441833D02*
X434086D01*
Y-397383D01*
X310896Y-67945D02*
X378968D01*
X310896Y-112395D02*
Y-67945D01*
Y-112395D02*
X378968D01*
Y-67945D01*
X192786Y-40259D02*
X260858D01*
X192786Y-84709D02*
Y-40259D01*
Y-84709D02*
X260858D01*
Y-40259D01*
X465582Y587121D02*
X533654D01*
Y631571D01*
X465582D02*
X533654D01*
X465582Y587121D02*
Y631571D01*
X1702816Y42291D02*
X1770888D01*
X1702816Y-2159D02*
Y42291D01*
Y-2159D02*
X1770888D01*
Y42291D01*
X284480Y-219583D02*
X352552D01*
X284480Y-264033D02*
Y-219583D01*
Y-264033D02*
X352552D01*
Y-219583D01*
X306705Y783717D02*
Y805815D01*
Y783717D02*
X307442D01*
X332130D02*
X332867D01*
Y805815D01*
X332130D02*
X332867D01*
X306705D02*
X307442D01*
Y783717D02*
X332130D01*
X307442Y805815D02*
X332130D01*
X311023Y229616D02*
Y297688D01*
Y229616D02*
X355473D01*
Y297688D01*
X311023D02*
X355473D01*
X88138Y897382D02*
X300482D01*
X87884Y897636D02*
X88138Y897382D01*
X87884Y897636D02*
Y995426D01*
X320802D01*
Y897890D02*
Y995426D01*
X300482Y897382D02*
X320802D01*
X1726946Y-192659D02*
Y-148209D01*
X1658874Y-192659D02*
X1726946D01*
X1658874D02*
Y-148209D01*
X1726946D01*
X1535684Y-191389D02*
Y-146939D01*
X1467612Y-191389D02*
X1535684D01*
X1467612D02*
Y-146939D01*
X1535684D01*
X1343660Y-161671D02*
Y-117221D01*
X1275588Y-161671D02*
X1343660D01*
X1275588D02*
Y-117221D01*
X1343660D01*
X1149858Y-146177D02*
Y-101727D01*
X1081786Y-146177D02*
X1149858D01*
X1081786D02*
Y-101727D01*
X1149858D01*
X960882Y-159639D02*
Y-115189D01*
X892810Y-159639D02*
X960882D01*
X892810D02*
Y-115189D01*
X960882D01*
X670560Y-291719D02*
Y-247269D01*
X602488Y-291719D02*
X670560D01*
X602488D02*
Y-247269D01*
X670560D01*
X495046Y-372237D02*
Y-327787D01*
X426974Y-372237D02*
X495046D01*
X426974D02*
Y-327787D01*
X495046D01*
X1531124Y-4057D02*
Y40393D01*
X1463052Y-4057D02*
X1531124D01*
X1463052D02*
Y40393D01*
X1531124D01*
X1344180Y27693D02*
Y72143D01*
X1276108Y27693D02*
X1344180D01*
X1276108D02*
Y72143D01*
X1344180D01*
X1150886Y44965D02*
Y89415D01*
X1082814Y44965D02*
X1150886D01*
X1082814D02*
Y89415D01*
X1150886D01*
X963942Y27693D02*
Y72143D01*
X895870Y27693D02*
X963942D01*
X895870D02*
Y72143D01*
X963942D01*
X770382Y18669D02*
Y63119D01*
X702310Y18669D02*
X770382D01*
X702310D02*
Y63119D01*
X770382D01*
X578358Y63373D02*
Y107823D01*
X510286Y63373D02*
X578358D01*
X510286D02*
Y107823D01*
X578358D01*
X1771904Y189103D02*
Y233553D01*
X1703832Y189103D02*
X1771904D01*
X1703832D02*
Y233553D01*
X1771904D01*
X1530108Y184411D02*
Y228861D01*
X1462036Y184411D02*
X1530108D01*
X1462036D02*
Y228861D01*
X1530108D01*
X1345958Y216161D02*
Y260611D01*
X1277886Y216161D02*
X1345958D01*
X1277886D02*
Y260611D01*
X1345958D01*
X1153426Y234195D02*
Y278645D01*
X1085354Y234195D02*
X1153426D01*
X1085354D02*
Y278645D01*
X1153426D01*
X960640Y216161D02*
Y260611D01*
X892568Y216161D02*
X960640D01*
X892568D02*
Y260611D01*
X960640D01*
X768350Y206883D02*
Y251333D01*
X700278Y206883D02*
X768350D01*
X700278D02*
Y251333D01*
X768350D01*
X1772678Y380753D02*
Y425203D01*
X1704606Y380753D02*
X1772678D01*
X1704606D02*
Y425203D01*
X1772678D01*
X1536458Y381769D02*
Y426219D01*
X1468386Y381769D02*
X1536458D01*
X1468386D02*
Y426219D01*
X1536458D01*
X1340878Y411233D02*
Y455683D01*
X1272806Y411233D02*
X1340878D01*
X1272806D02*
Y455683D01*
X1340878D01*
X1154430Y424307D02*
Y468757D01*
X1086358Y424307D02*
X1154430D01*
X1086358D02*
Y468757D01*
X1154430D01*
X962164Y406661D02*
Y451111D01*
X894092Y406661D02*
X962164D01*
X894092D02*
Y451111D01*
X962164D01*
X772668Y399669D02*
Y444119D01*
X704596Y399669D02*
X772668D01*
X704596D02*
Y444119D01*
X772668D01*
X582930Y351917D02*
Y396367D01*
X514858Y351917D02*
X582930D01*
X514858D02*
Y396367D01*
X582930D01*
X1770392Y569475D02*
Y613925D01*
X1702320Y569475D02*
X1770392D01*
X1702320D02*
Y613925D01*
X1770392D01*
X1534934Y569475D02*
Y613925D01*
X1466862Y569475D02*
X1534934D01*
X1466862D02*
Y613925D01*
X1534934D01*
X1345450Y599955D02*
Y644405D01*
X1277378Y599955D02*
X1345450D01*
X1277378D02*
Y644405D01*
X1345450D01*
X1153172Y610369D02*
Y654819D01*
X1085100Y610369D02*
X1153172D01*
X1085100D02*
Y654819D01*
X1153172D01*
X960640Y599955D02*
Y644405D01*
X892568Y599955D02*
X960640D01*
X892568D02*
Y644405D01*
X960640D01*
X657098Y587121D02*
Y631571D01*
X725170D01*
Y587121D02*
Y631571D01*
X657098Y587121D02*
X725170D01*
D14*
X1617199Y-50991D02*
X1773477D01*
X1617199Y-108395D02*
X1773399Y-108395D01*
X1773477Y-50991D01*
X1617199Y-109157D02*
Y-50991D01*
X1688319Y-136135D02*
Y-97019D01*
X1668761Y-116777D02*
X1707877D01*
X1478260D02*
X1517376D01*
X1497818Y-136135D02*
Y-97019D01*
X1426698Y-109157D02*
Y-50991D01*
X1582897Y-108395D02*
X1582975Y-50991D01*
X1426698Y-108395D02*
X1582897Y-108395D01*
X1426698Y-50991D02*
X1582975D01*
X1236980Y-18488D02*
X1393258D01*
X1236980Y-75892D02*
X1393180Y-75892D01*
X1393258Y-18488D01*
X1236980Y-76654D02*
Y-18488D01*
X1308100Y-103632D02*
Y-64516D01*
X1288542Y-84274D02*
X1327658D01*
X1097788Y-68272D02*
X1136904D01*
X1117346Y-87630D02*
Y-48514D01*
X1046226Y-60652D02*
Y-2486D01*
X1202425Y-59890D02*
X1202503Y-2486D01*
X1046226Y-59890D02*
X1202425Y-59890D01*
X1046226Y-2486D02*
X1202503D01*
X855194Y-19240D02*
X1011471D01*
X855194Y-76644D02*
X1011393Y-76644D01*
X1011471Y-19240D01*
X855194Y-77406D02*
Y-19240D01*
X926314Y-104384D02*
Y-65268D01*
X906756Y-85026D02*
X945872D01*
X616712Y-214322D02*
X655828D01*
X636270Y-233680D02*
Y-194564D01*
X565150Y-206702D02*
Y-148536D01*
X721350Y-205940D02*
X721428Y-148536D01*
X565150Y-205940D02*
X721350Y-205940D01*
X565150Y-148536D02*
X721428D01*
X392654Y-228310D02*
X548931D01*
X392654Y-285714D02*
X548853Y-285714D01*
X548931Y-228310D01*
X392654Y-286476D02*
Y-228310D01*
X463773Y-313454D02*
Y-274338D01*
X444216Y-294096D02*
X483331D01*
X1716386Y73725D02*
X1755502D01*
X1735944Y54367D02*
Y93483D01*
X1664824Y81345D02*
Y139511D01*
X1821024Y82107D02*
X1821102Y139511D01*
X1664824Y82107D02*
X1821024Y82107D01*
X1664824Y139511D02*
X1821102D01*
X1426698D02*
X1582975D01*
X1426698Y82107D02*
X1582897Y82107D01*
X1582975Y139511D01*
X1426698Y81345D02*
Y139511D01*
X1497818Y54367D02*
Y93483D01*
X1478260Y73725D02*
X1517376D01*
X1289556Y107211D02*
X1328672D01*
X1309113Y87853D02*
Y126969D01*
X1237993Y114831D02*
Y172997D01*
X1394193Y115593D02*
X1394271Y172997D01*
X1237993Y115593D02*
X1394193Y115593D01*
X1237993Y172997D02*
X1394271D01*
X1046988Y187506D02*
X1203266D01*
X1046988Y130102D02*
X1203187Y130102D01*
X1203266Y187506D01*
X1046988Y129340D02*
Y187506D01*
X1118108Y102362D02*
Y141478D01*
X1098550Y121720D02*
X1137666D01*
X908552Y107211D02*
X947668D01*
X928110Y87853D02*
Y126969D01*
X856990Y114831D02*
Y172997D01*
X1013190Y115593D02*
X1013268Y172997D01*
X856990Y115593D02*
X1013190Y115593D01*
X856990Y172997D02*
X1013268D01*
X667258Y160582D02*
X823536D01*
X667258Y103178D02*
X823458Y103178D01*
X823536Y160582D01*
X667258Y102416D02*
Y160582D01*
X738378Y75438D02*
Y114554D01*
X718820Y94796D02*
X757936D01*
X527558Y141532D02*
X566674D01*
X547116Y122174D02*
Y161290D01*
X475996Y149152D02*
Y207318D01*
X632196Y149914D02*
X632274Y207318D01*
X475996Y149914D02*
X632196Y149914D01*
X475996Y207318D02*
X632274D01*
X1664824Y330012D02*
X1821102D01*
X1664824Y272608D02*
X1821024Y272608D01*
X1821102Y330012D01*
X1664824Y271846D02*
Y330012D01*
X1735944Y244868D02*
Y283984D01*
X1716386Y264226D02*
X1755502D01*
X1478260D02*
X1517376D01*
X1497818Y244868D02*
Y283984D01*
X1426698Y271846D02*
Y330012D01*
X1582897Y272608D02*
X1582975Y330012D01*
X1426698Y272608D02*
X1582897Y272608D01*
X1426698Y330012D02*
X1582975D01*
X1236197Y361763D02*
X1392474D01*
X1236197Y304359D02*
X1392396Y304359D01*
X1392474Y361763D01*
X1236197Y303597D02*
Y361763D01*
X1307317Y276619D02*
Y315735D01*
X1287759Y295977D02*
X1326875D01*
X1097257Y311953D02*
X1136373D01*
X1116815Y292595D02*
Y331711D01*
X1045695Y319573D02*
Y377739D01*
X1201895Y320335D02*
X1201973Y377739D01*
X1045695Y320335D02*
X1201895Y320335D01*
X1045695Y377739D02*
X1201973D01*
X855194Y361763D02*
X1011471D01*
X855194Y304359D02*
X1011393Y304359D01*
X1011471Y361763D01*
X855194Y303597D02*
Y361763D01*
X926314Y276619D02*
Y315735D01*
X906756Y295977D02*
X945872D01*
X717042Y284788D02*
X756158D01*
X736600Y265430D02*
Y304546D01*
X665480Y292408D02*
Y350574D01*
X821680Y293170D02*
X821758Y350574D01*
X665480Y293170D02*
X821680Y293170D01*
X665480Y350574D02*
X821758D01*
X271526Y30788D02*
X427804D01*
X271526Y-26616D02*
X427726Y-26616D01*
X427804Y30788D01*
X271526Y-27378D02*
Y30788D01*
X342646Y-54356D02*
Y-15240D01*
X323088Y-34998D02*
X362204D01*
X1717548Y455730D02*
X1756664D01*
X1737106Y436372D02*
Y475488D01*
X1665986Y463350D02*
Y521516D01*
X1822186Y464112D02*
X1822264Y521516D01*
X1665986Y464112D02*
X1822186Y464112D01*
X1665986Y521516D02*
X1822264D01*
X1427988D02*
X1584266D01*
X1427988Y464112D02*
X1584188Y464112D01*
X1584266Y521516D01*
X1427988Y463350D02*
Y521516D01*
X1499108Y436372D02*
Y475488D01*
X1479550Y455730D02*
X1518666D01*
X1289812Y488750D02*
X1328928D01*
X1309370Y469392D02*
Y508508D01*
X1238250Y496370D02*
Y554536D01*
X1394449Y497132D02*
X1394527Y554536D01*
X1238250Y497132D02*
X1394449Y497132D01*
X1238250Y554536D02*
X1394527D01*
X1048512Y569776D02*
X1204789D01*
X1048512Y512372D02*
X1204711Y512372D01*
X1204789Y569776D01*
X1048512Y511610D02*
Y569776D01*
X1119632Y484632D02*
Y523748D01*
X1100074Y503990D02*
X1139190D01*
X908552Y488213D02*
X947669D01*
X928111Y468855D02*
Y507971D01*
X856991Y495833D02*
Y553999D01*
X1013190Y496595D02*
X1013268Y553999D01*
X856991Y496595D02*
X1013190Y496595D01*
X856991Y553999D02*
X1013268D01*
X666489Y541299D02*
X822767D01*
X666489Y483895D02*
X822689Y483895D01*
X822767Y541299D01*
X666489Y483133D02*
Y541299D01*
X737609Y456155D02*
Y495271D01*
X718051Y475513D02*
X757167D01*
X527304Y427790D02*
X566420D01*
X546862Y408432D02*
Y447548D01*
X475742Y435410D02*
Y493576D01*
X631941Y436172D02*
X632019Y493576D01*
X475742Y436172D02*
X631941Y436172D01*
X475742Y493576D02*
X632019D01*
X1666748Y712524D02*
X1823026D01*
X1666748Y655120D02*
X1822948Y655120D01*
X1823026Y712524D01*
X1666748Y654358D02*
Y712524D01*
X1737868Y627380D02*
Y666496D01*
X1718310Y646738D02*
X1757426D01*
X1481328Y645468D02*
X1520444D01*
X1500886Y626110D02*
Y665226D01*
X1429766Y653088D02*
Y711254D01*
X1585966Y653850D02*
X1586044Y711254D01*
X1429766Y653850D02*
X1585966Y653850D01*
X1429766Y711254D02*
X1586044D01*
X1237993Y744501D02*
X1394271D01*
X1237993Y687097D02*
X1394193Y687097D01*
X1394271Y744501D01*
X1237993Y686335D02*
Y744501D01*
X1309113Y659357D02*
Y698473D01*
X1289556Y678715D02*
X1328672D01*
X1099058Y694744D02*
X1138174D01*
X1118616Y675386D02*
Y714502D01*
X1047496Y702364D02*
Y760530D01*
X1203695Y703126D02*
X1203773Y760530D01*
X1047496Y703126D02*
X1203695Y703126D01*
X1047496Y760530D02*
X1203773D01*
X856996Y744274D02*
X1013274D01*
X856996Y686870D02*
X1013196Y686870D01*
X1013274Y744274D01*
X856996Y686108D02*
Y744274D01*
X928116Y659130D02*
Y698246D01*
X908558Y678488D02*
X947674D01*
X716254Y664254D02*
X755370D01*
X735812Y644896D02*
Y684012D01*
X664692Y671874D02*
Y730040D01*
X820892Y672636D02*
X820970Y730040D01*
X664692Y672636D02*
X820892Y672636D01*
X664692Y730040D02*
X820970D01*
X475996Y732844D02*
X632273D01*
X475996Y675440D02*
X632195Y675440D01*
X632273Y732844D01*
X475996Y674678D02*
Y732844D01*
X547116Y647700D02*
Y686816D01*
X527558Y667058D02*
X566674D01*
X319630Y-445815D02*
X339188Y-479690D01*
X312298Y-472631D02*
X346174Y-453073D01*
X307997Y-557237D02*
X358370Y-528154D01*
X229858Y-421897D02*
X279610Y-393262D01*
X357710Y-528535D01*
X229858Y-421897D02*
X307997Y-557237D01*
X152269Y-247689D02*
X230408Y-383029D01*
X202022Y-219054D02*
X280121Y-354327D01*
X152269Y-247689D02*
X202022Y-219054D01*
X230408Y-383029D02*
X280781Y-353946D01*
X234709Y-298423D02*
X268585Y-278865D01*
X242041Y-271607D02*
X261599Y-305482D01*
X160253Y-99141D02*
X179811Y-133016D01*
X152921Y-125957D02*
X186797Y-106399D01*
X148620Y-210563D02*
X198993Y-181480D01*
X70481Y-75223D02*
X120233Y-46588D01*
X198333Y-181861D01*
X70481Y-75223D02*
X148620Y-210563D01*
D201*
X559802Y809894D02*
X589802D01*
Y795894D02*
Y809894D01*
X559802Y795894D02*
Y809894D01*
Y795894D02*
X589802D01*
X99568Y414450D02*
X162052Y414528D01*
Y312674D02*
Y414528D01*
X159836Y310458D02*
X162052Y312674D01*
X99822Y310458D02*
X159836D01*
X99822Y310388D02*
Y414450D01*
X14322Y66802D02*
X439322D01*
X14322D02*
Y178054D01*
X439322D01*
Y66802D02*
Y178054D01*
X141766Y851700D02*
X177766D01*
X141766Y824700D02*
X177766D01*
X141766D02*
Y851700D01*
X177766Y824700D02*
Y851700D01*
X138852Y865410D02*
X197952D01*
X138852Y894810D02*
X197952D01*
Y865410D02*
Y894810D01*
X138852Y865410D02*
Y894810D01*
X282942Y674004D02*
X312942D01*
Y660004D02*
Y674004D01*
X282942Y660004D02*
Y674004D01*
Y660004D02*
X312942D01*
X448632Y593530D02*
Y635830D01*
X406332Y593530D02*
Y635830D01*
X448632D01*
X406332Y593530D02*
X448632D01*
X308822Y756824D02*
X335322D01*
X308822Y744824D02*
X335322D01*
X308822D02*
Y756824D01*
X335322Y744824D02*
Y756824D01*
X460900Y816682D02*
Y825682D01*
X478900Y816682D02*
Y825682D01*
X460900D02*
X478900D01*
X460900Y816682D02*
X478900D01*
X223054Y860948D02*
X253054D01*
Y846948D02*
Y860948D01*
X223054Y846948D02*
Y860948D01*
Y846948D02*
X253054D01*
X193366Y845710D02*
X202366D01*
X193366Y863710D02*
X202366D01*
X193366Y845710D02*
Y863710D01*
X202366Y845710D02*
Y863710D01*
X162632Y536338D02*
Y554338D01*
X171632Y536338D02*
Y554338D01*
X162632Y536338D02*
X171632D01*
X162632Y554338D02*
X171632D01*
X297782Y725804D02*
Y801804D01*
X221782Y725804D02*
Y801804D01*
Y725804D02*
X297782D01*
X221782Y801804D02*
X297782D01*
X-7166Y338580D02*
X77034D01*
X-7166Y238080D02*
Y338580D01*
Y238080D02*
X77034D01*
Y338580D01*
X441532Y916190D02*
Y981190D01*
X324532D02*
X441532D01*
X324532Y916190D02*
Y981190D01*
Y916190D02*
X441532D01*
X-37194Y504515D02*
X67806D01*
X-37194Y376865D02*
Y504515D01*
Y376865D02*
X67806D01*
Y504515D01*
X254352Y385416D02*
X298352D01*
Y429416D01*
X254352D02*
X298352D01*
X254352Y385416D02*
Y429416D01*
X638628Y806594D02*
X647628D01*
X638628Y824594D02*
X647628D01*
X638628Y806594D02*
Y824594D01*
X647628Y806594D02*
Y824594D01*
X607784Y795816D02*
X634784D01*
X607784Y831816D02*
X634784D01*
X607784Y795816D02*
Y831816D01*
X634784Y795816D02*
Y831816D01*
X671186Y798068D02*
Y833628D01*
X654186Y798068D02*
Y833628D01*
X671186D01*
X654186Y798068D02*
X671186D01*
X135852Y581118D02*
X162852D01*
X135852Y545118D02*
X162852D01*
Y581118D01*
X135852Y545118D02*
Y581118D01*
X171398Y587102D02*
X355398D01*
Y537102D02*
Y587102D01*
X171398Y537102D02*
X355398D01*
X171398D02*
Y587102D01*
X306284Y455203D02*
X336284D01*
Y441203D02*
Y455203D01*
X306284Y441203D02*
Y455203D01*
Y441203D02*
X336284D01*
X306284Y477355D02*
X336284D01*
X306284D02*
Y491355D01*
X336284Y477355D02*
Y491355D01*
X306284D02*
X336284D01*
X306284Y473279D02*
X336284D01*
Y459280D02*
Y473279D01*
X306284Y459280D02*
Y473279D01*
Y459280D02*
X336284D01*
X306284Y386974D02*
X336284D01*
X306284D02*
Y400974D01*
X336284Y386974D02*
Y400974D01*
X306284D02*
X336284D01*
X306112Y479648D02*
Y491648D01*
X279612Y479648D02*
Y491648D01*
Y479648D02*
X306112D01*
X279612Y491648D02*
X306112D01*
X306284Y423126D02*
X336284D01*
X306284D02*
Y437127D01*
X336284Y423126D02*
Y437127D01*
X306284D02*
X336284D01*
X306284Y405050D02*
X336284D01*
X306284D02*
Y419050D01*
X336284Y405050D02*
Y419050D01*
X306284D02*
X336284D01*
X295290Y435596D02*
Y465596D01*
X281290Y435596D02*
X295290D01*
X281290Y465596D02*
X295290D01*
X281290Y435596D02*
Y465596D01*
X248022Y392570D02*
Y428130D01*
X231022Y392570D02*
Y428130D01*
X248022D01*
X231022Y392570D02*
X248022D01*
X260232Y455168D02*
Y490728D01*
X277232Y455168D02*
Y490728D01*
X260232Y455168D02*
X277232D01*
X260232Y490728D02*
X277232D01*
X237718Y341236D02*
X273278D01*
X237718Y358236D02*
X273278D01*
Y341236D02*
Y358236D01*
X237718Y341236D02*
Y358236D01*
X292954Y339830D02*
Y375390D01*
X275954Y339830D02*
Y375390D01*
X292954D01*
X275954Y339830D02*
X292954D01*
X223892Y392430D02*
Y427990D01*
X206892Y392430D02*
Y427990D01*
X223892D01*
X206892Y392430D02*
X223892D01*
X306284Y382898D02*
X336284D01*
Y368898D02*
Y382898D01*
X306284Y368898D02*
Y382898D01*
Y368898D02*
X336284D01*
X15670Y597434D02*
Y764434D01*
X164670D01*
Y597434D02*
Y764434D01*
X15670Y597434D02*
X164670D01*
X1629552Y779766D02*
Y809766D01*
X1615552Y779766D02*
X1629552D01*
X1615552Y809766D02*
X1629552D01*
X1615552Y779766D02*
Y809766D01*
X1849486Y786116D02*
Y816116D01*
X1863486D01*
X1849486Y786116D02*
X1863486D01*
Y816116D01*
X546930Y778950D02*
Y821250D01*
X504630Y778950D02*
Y821250D01*
X546930D01*
X504630Y778950D02*
X546930D01*
X232452Y806208D02*
X262452D01*
X232452D02*
Y820208D01*
X262452Y806208D02*
Y820208D01*
X232452D02*
X262452D01*
X559802Y780146D02*
X589802D01*
X559802D02*
Y794146D01*
X589802Y780146D02*
Y794146D01*
X559802D02*
X589802D01*
X68050Y801142D02*
X109750D01*
X68050Y836142D02*
X109750D01*
Y801142D02*
Y836142D01*
X68050Y801142D02*
Y836142D01*
X205852Y808722D02*
Y838722D01*
X219852D01*
X205852Y808722D02*
X219852D01*
Y838722D01*
X231792Y833446D02*
X249792D01*
X231792Y842446D02*
X249792D01*
Y833446D02*
Y842446D01*
X231792Y833446D02*
Y842446D01*
X257302Y862720D02*
Y879720D01*
X221742Y862720D02*
Y879720D01*
Y862720D02*
X257302D01*
X221742Y879720D02*
X257302D01*
X264354Y817762D02*
Y834762D01*
X228794Y817762D02*
Y834762D01*
Y817762D02*
X264354D01*
X228794Y834762D02*
X264354D01*
X233822Y608660D02*
X268082D01*
X233822Y628320D02*
X268082D01*
X233822Y608660D02*
Y628320D01*
X268082Y608660D02*
Y628320D01*
X371856Y727084D02*
Y744084D01*
X336296Y727084D02*
Y744084D01*
Y727084D02*
X371856D01*
X336296Y744084D02*
X371856D01*
X164196Y731506D02*
Y761506D01*
X178196D01*
X164196Y731506D02*
X178196D01*
Y761506D01*
X335026Y758834D02*
Y775834D01*
X370586Y758834D02*
Y775834D01*
X335026D02*
X370586D01*
X335026Y758834D02*
X370586D01*
X302768Y769248D02*
Y786248D01*
X338328Y769248D02*
Y786248D01*
X302768D02*
X338328D01*
X302768Y769248D02*
X338328D01*
X232664Y633866D02*
Y650866D01*
X268224Y633866D02*
Y650866D01*
X232664D02*
X268224D01*
X232664Y633866D02*
X268224D01*
X251206Y685174D02*
Y702174D01*
X215646Y685174D02*
Y702174D01*
Y685174D02*
X251206D01*
X215646Y702174D02*
X251206D01*
X232664Y653170D02*
Y670170D01*
X268224Y653170D02*
Y670170D01*
X232664D02*
X268224D01*
X232664Y653170D02*
X268224D01*
X265820Y716534D02*
X282820D01*
X265820Y680974D02*
X282820D01*
Y716534D01*
X265820Y680974D02*
Y716534D01*
X250326Y716788D02*
X267326D01*
X250326Y681228D02*
X267326D01*
Y716788D01*
X250326Y681228D02*
Y716788D01*
X370078Y743086D02*
Y760086D01*
X334518Y743086D02*
Y760086D01*
Y743086D02*
X370078D01*
X334518Y760086D02*
X370078D01*
X185358Y703400D02*
Y744400D01*
X209358D01*
Y703400D02*
Y744400D01*
X185358Y703400D02*
X209358D01*
X179460Y745744D02*
X196460D01*
X179460Y781304D02*
X196460D01*
X179460Y745744D02*
Y781304D01*
X196460Y745744D02*
Y781304D01*
X199780Y745884D02*
X216780D01*
X199780Y781444D02*
X216780D01*
X199780Y745884D02*
Y781444D01*
X216780Y745884D02*
Y781444D01*
X251206Y700414D02*
Y717414D01*
X215646Y700414D02*
Y717414D01*
Y700414D02*
X251206D01*
X215646Y717414D02*
X251206D01*
X271962Y849266D02*
Y867266D01*
X262962Y849266D02*
Y867266D01*
X271962D01*
X262962Y849266D02*
X271962D01*
X371588Y905906D02*
X401588D01*
Y891906D02*
Y905906D01*
X371588Y891906D02*
Y905906D01*
Y891906D02*
X401588D01*
X262462Y806602D02*
X272462D01*
X262462Y825602D02*
X272462D01*
X262462Y806602D02*
Y825602D01*
X272462Y806602D02*
Y825602D01*
X272815Y835542D02*
Y845542D01*
X253815Y835542D02*
Y845542D01*
Y835542D02*
X272815D01*
X253815Y845542D02*
X272815D01*
X221742Y879230D02*
Y896230D01*
X257302Y879230D02*
Y896230D01*
X221742D02*
X257302D01*
X221742Y879230D02*
X257302D01*
X262543Y873976D02*
X272543D01*
X262543Y892976D02*
X272543D01*
X262543Y873976D02*
Y892976D01*
X272543Y873976D02*
Y892976D01*
X122630Y463880D02*
Y483540D01*
X88370Y463880D02*
Y483540D01*
X122630D01*
X88370Y463880D02*
X122630D01*
X108554Y421344D02*
Y447844D01*
X120554Y421344D02*
Y447844D01*
X108554Y421344D02*
X120554D01*
X108554Y447844D02*
X120554D01*
X324434Y184546D02*
X344094D01*
X324434Y218806D02*
X344094D01*
Y184546D02*
Y218806D01*
X324434Y184546D02*
Y218806D01*
X76692Y301172D02*
X106692D01*
Y287172D02*
Y301172D01*
X76692Y287172D02*
Y301172D01*
Y287172D02*
X106692D01*
X77708Y271454D02*
X107708D01*
Y257454D02*
Y271454D01*
X77708Y257454D02*
Y271454D01*
Y257454D02*
X107708D01*
X207553Y320977D02*
Y338977D01*
X216553Y320977D02*
Y338977D01*
X207553Y320977D02*
X216553D01*
X207553Y338977D02*
X216553D01*
X398922Y639050D02*
Y669050D01*
X384922Y639050D02*
X398922D01*
X384922Y669050D02*
X398922D01*
X384922Y639050D02*
Y669050D01*
X425776Y636580D02*
Y654580D01*
X434776Y636580D02*
Y654580D01*
X425776Y636580D02*
X434776D01*
X425776Y654580D02*
X434776D01*
X283196Y678038D02*
X313196D01*
X283196D02*
Y692038D01*
X313196Y678038D02*
Y692038D01*
X283196D02*
X313196D01*
X79360Y-52210D02*
Y-22210D01*
X93360D01*
X79360Y-52210D02*
X93360D01*
Y-22210D01*
X103520Y419720D02*
Y449720D01*
X89520Y419720D02*
X103520D01*
X89520Y449720D02*
X103520D01*
X89520Y419720D02*
Y449720D01*
X294742Y647526D02*
Y657526D01*
X275742Y647526D02*
Y657526D01*
Y647526D02*
X294742D01*
X275742Y657526D02*
X294742D01*
X106350Y490960D02*
Y525220D01*
X86690Y490960D02*
Y525220D01*
Y490960D02*
X106350D01*
X86690Y525220D02*
X106350D01*
X354194Y809752D02*
Y845312D01*
X337194Y809752D02*
Y845312D01*
X354194D01*
X337194Y809752D02*
X354194D01*
X1435750Y775702D02*
Y805702D01*
X1421750Y775702D02*
X1435750D01*
X1421750Y805702D02*
X1435750D01*
X1421750Y775702D02*
Y805702D01*
X1221120Y778750D02*
Y808750D01*
X1207120Y778750D02*
X1221120D01*
X1207120Y808750D02*
X1221120D01*
X1207120Y778750D02*
Y808750D01*
X1019444Y775702D02*
Y805702D01*
X1005444Y775702D02*
X1019444D01*
X1005444Y805702D02*
X1019444D01*
X1005444Y775702D02*
Y805702D01*
X847232Y764272D02*
Y794272D01*
X833232Y764272D02*
X847232D01*
X833232Y794272D02*
X847232D01*
X833232Y764272D02*
Y794272D01*
X633364Y748524D02*
Y778524D01*
X619364Y748524D02*
X633364D01*
X619364Y778524D02*
X633364D01*
X619364Y748524D02*
Y778524D01*
X433818Y675782D02*
X463818D01*
Y661782D02*
Y675782D01*
X433818Y661782D02*
Y675782D01*
Y661782D02*
X463818D01*
X399034Y908676D02*
X434594D01*
X399034Y891676D02*
X434594D01*
X399034D02*
Y908676D01*
X434594Y891676D02*
Y908676D01*
M02*
