M48
;Layer_Color=9474304
;FILE_FORMAT=4:4
METRIC,LZ
;TYPE=PLATED
T01F00S00C0.2000
T02F00S00C0.3302
T04F00S00C0.8000
T05F00S00C0.9300
T06F00S00C1.0200
T07F00S00C1.1000
T08F00S00C1.5100
T10F00S00C3.5560
;TYPE=NON_PLATED
T11F00S00C0.6000
T12F00S00C3.0000
%
T01
X00268602Y00407416
X00276352
X00284102
X00276352Y00399666
Y00415166
X00276038Y00747548
X0026537
X00265116Y00758724
Y00769138
X0025394
X00254194Y00758978
X00243018Y00758724
X00243272Y00769138
Y00780568
X0025394Y00780314
X00265116
X00276292
Y00769392
X00276038Y00758724
X0025394Y00747802
X00242764
T02
X01742694Y-00145288
X01535684Y-0013843
X01353312Y-0012319
X01154176Y-0010795
X009652Y-00110998
X0068834Y-00250952
X00506984Y-00326136
X00410464Y-00389382
X00358902Y-00213614
X0013462Y0008763
X0011303Y0013081
X0006985
X00030734Y00155956
X0004826Y0017399
X0009144
X0013462
X0011303Y0021717
X0006985
X00078502Y00251189
X0008001Y00276352
X00088392Y0028067
X00110597Y00264307
X00107823Y00300101
X00080645Y00323723
X0004826Y0026035
Y0008763
X001778
X0022098
X0026416
X0030734
X0035052
X003937
X0037211Y0013081
X0032893
X0028575
X0024257
X0019939
X0015621
X001778Y0017399
X0022098
X0026416
X0030734
X0028575Y0021717
X0024257
X0019939
X0015621
X001778Y0026035
X0022098
X0026416
X0030734
X0035052
X003937
X0041529Y0030353
X0037211
Y0021717
X0041529
X003937Y0017399
X00429514Y-00027178
X00465328Y-0002921
X00389128Y-00065532
X0026543Y-00044196
X0019939Y0030353
X0015621
X00640588Y00262636
X00636778Y00226314
X00641858Y00076454
X0063373Y00053848
X00584195Y00106167
X00777494Y00062992
X00811899Y00056019
X00811784Y0003302
X00822706Y00218694
X0082169Y0023749
X0077787Y00247264
X0098552Y00267716
X0101981Y00246634
X01021334Y002286
X01190498Y00233172
X01189736Y0021717
X01173988Y00277114
X01182116Y00081534
X01161796
X01180592Y00043688
X01015746Y00038354
X01015238Y00058969
X00977392Y00060706
X01356746Y00067178
X01391158Y00066548
Y00019812
X0153797Y00042672
X01576578Y00025654
X01575816Y00009652
X01575054Y00195834
X01574038Y00217678
X01537467Y00226309
X01388364Y0020955
Y00255778
X01357884Y00258318
X0178689Y00231902
X01777746Y00042672
X0178181Y00424434
X01735074Y00556437
X01578864Y00541528
Y00602488
X01543128Y0061849
X01389126Y00636016
X0136271Y00644398
X01389126Y00599694
X01388364Y00445516
X01387094Y00408432
X01350264Y00462749
X01540002Y0043434
X0157861Y00415036
X01579372Y00393446
X01178214Y00435448
X01178306Y00456692
X01160272Y00472362
X01181354Y00625602
Y00640842
X01165352Y00653796
X01009904Y0062992
X01011174Y0060833
X00976884Y00649986
X00972566Y00453644
X01015746Y00436626
X01016254Y00419354
X00831088Y00425704
X0083058Y0040386
X00787654Y00439166
X00824992Y00586486
X00826008Y00607822
X00780874Y00641858
X00594106Y0063881
X00639826Y00588264
X00639318Y00699008
X0063627Y00379476
Y0036449
X00596148Y00388102
X0041529Y0038989
X0037211
X00338201Y00375031
X0035052Y0034671
X003937
Y0043307
X0035052
X00337947Y00447421
X00338963Y00464947
X0037211Y0047625
X0041529
X003937Y0051943
X0035052
X0030734
X00306324Y00494538
X0026416Y0051943
X0022098
X001778
X0019939Y0047625
X0015621
X001778Y0043307
X0022098
X00228092Y00419354
X00251714Y00415544
X00249543Y0040766
X00248192Y00400441
X0024257Y0038989
X00245683Y00370738
X00255016Y00376428
X00271399Y00379984
X0027621Y0037257
X00286619Y00380893
X00263906Y00363474
X00246634Y003556
X00266065Y00338709
X00285115Y00337947
X0030734Y0034671
X00301752Y00411988
X00262516Y00433965
Y00446292
X00267716Y00455676
X00200248Y00410114
X00176022Y00387858
X00176756Y00366762
X00203454Y00365252
X00150643Y00332564
X001778Y0060579
X00177437Y00618635
X00203482Y00596365
X0022606Y00621792
X0022733Y00653542
X00269488Y00661442
X00279654Y00660146
X00270121Y00643763
X00270891Y00620141
X00261874Y00597916
X00284734Y0060198
X0030734Y0060579
X0035052
X003937
X00390398Y00592328
X00413132Y00593852
X00441579Y00590677
X00433204Y0057416
X00398272Y00573278
X0037211Y0056261
Y0064897
X0034671Y00667004
X00318389Y00677291
X00313944Y0064897
X00290957Y00636143
X0028829Y00696722
X00295275Y00696087
X00287559Y00705671
X00301498Y0071755
X002632Y00715478
X00242316Y00719074
X0022405Y00723011
X00215767Y00703193
X00215773Y00695071
X001778Y0069215
X00259461Y00679831
X00266439Y00683395
X00273431Y00687925
X00363487Y00721726
X00424434Y0070485
X00455168Y0069723
X00417322Y00637032
X0024257Y0056261
X0013208Y00565912
X0012192Y00566674
X0011303Y0056261
X00128016Y00552704
X00128778Y00576834
X00117356Y00584708
X0013462Y0060579
X0009144
X0004826
X0006985Y0064897
Y0056261
Y0047625
X00131699Y00473837
X00129413Y00443865
X0013462Y0043307
Y0051943
X0006985Y0038989
X0009144Y0034671
X0004826
X0006985Y0073533
X00065532Y00799338
X0009144Y0086487
X00090424Y00902716
X00103124
X00115824
X00128524
X00141224
X0013462Y0086487
X00077724Y00902716
X00065024
X00052324
X00039624
X00026924
X00014224
X00153924
X00166624
X00179324
X00192024
X00204724
X00217424
X00230124
X00242824
X00258572Y0090297
X0025908Y00893826
X00258572Y00884936
X00258318Y00876808
Y0086741
X00259334Y00855218
X00259588Y0084709
X00241554Y00845566
X0024003Y00861568
X0022098Y0086614
X00202819Y00825881
X00204915Y00803973
X00209642Y00796147
X00220949Y00800077
X0022933Y00809558
X00257302Y00805942
X00278511Y00807339
X00284607Y00807593
X00290068Y00815594
X002794Y0083058
X00279146Y00838454
X002794Y00847598
Y00856996
Y00867918
X00279146Y00876808
X00278384Y0088519
X00277622Y0089535
X0027813Y00903986
X00293624Y00902716
X00306324
X00319024
X00331724
X00344424
X00357124
X00369824
X00382524
X00407924
X003937Y0086487
X00382524Y00836168
X00356305
X00346202Y00843718
X0035052Y0086487
X0030734
X00305054Y00797306
X00335026Y00790956
X00338201Y00777621
X00324866Y00760222
X00315722Y00761859
X00321945Y00750189
X0032893Y0073533
X00336182Y00734553
X00368427Y00775524
X00361431Y00794755
X00369824Y00800354
X0041529Y0082169
X00469773Y00811403
X00502722Y00800093
X00498856Y0078994
X0049911Y00776478
X00536448Y0077597
X00539249Y00783837
X00531749Y00770001
X00539242Y00824055
X00179324Y00823722
X00180975Y00838073
X00186944Y00807974
X00193642Y00780305
X00206629Y00781685
X00214976Y00783882
X002186Y00772713
X00217873Y00763823
X00182727Y00763585
X00175998Y00771593
X00168068Y00779192
X00171958Y00788162
X00156464Y00769874
X0015621Y0073533
Y0082169
X0055626Y00836501
X0055499Y00844296
X00551942Y00797814
X00606806Y00791972
X00624078Y00791464
X00647192Y00792226
X00682244Y00802132
X00676402Y0081534
X00614934Y00815594
X00598752Y0077089
X00737616Y0076454
X00995172Y00786384
X0097765Y00804925
X01410716Y00842264
X0141859Y00772668
X01601978Y00785876
X01588649Y00810514
T04
X00193398Y00556602
X00213398
X00233398
X00253398
X00273398
X00293398
X00313398
X00333398
X00136144Y00387458
Y00362458
Y00337458
T05
X00022806Y0042069
Y0044069
Y0046069
X00047806
Y0044069
Y0042069
T06
X00155702Y0088011
X00181102
T07
X0006517Y00608434
X0011517
Y00753434
X0009017
X0006517
T08
X00035306Y0039069
Y0049069
T10
X00782574Y-00330962
X00036576Y0086995
T11
X00058134Y0025943
Y0031723
T12
X00297942Y-00510249
X01535918Y-00091177
X01726419
X0067437Y-00188722
X0061087Y-00163322
X00501874Y-00268496
X00438373Y-00243096
X002106Y-00268349
X00220353Y-00336041
X00288189Y-00442557
X00138565Y-00163575
X00128812Y-00095883
X00317246Y00016002
X00380746Y-00009398
X00521716Y00192532
X00585216Y00167132
X00712978Y00145796
X00776478Y00120396
X0090271Y00158211
X00900914Y-00034026
X007747Y00310388
X00964414Y00321577
X0096621Y00132811
X01092708Y0017272
X01156208Y0014732
X01283714Y00158211
X012827Y-00033274
X01155446Y-00042672
X01091946Y-00017272
X00964414Y-00059426
X013462Y-00058674
X01472418Y-00065777
X01662919
X01710544Y00124725
X01710544Y00315226
X01535918Y00289826
X01472418Y00315226
X01345417Y00321577
X01347213Y00132811
X01472418Y00124725
X01535918Y00099325
X01774044
X01774044Y00289826
X01775206Y0048133
X01775968Y00672338
X01712468Y00697738
X01711706Y0050673
X01537208Y0048133
X01473708Y0050673
X0134747Y0051435
X01347213Y00704315
X01475486Y00696468
X01538986Y00671068
X0128397Y0053975
X01157732Y0052959
X01094232Y0055499
X0096621Y00513813
X00966216Y00704088
X01156716Y00720344
X01154915Y00337553
X01091415Y00362953
X01281917Y00346977
X00900914
X0090271Y00539213
X00775709Y00501113
X00712209Y00526513
X00710412Y00715254
X00773912Y00689854
X00585216Y00692658
X00584962Y0045339
X007112Y00335788
X00521462Y0047879
X00521716Y00718058
X00902716Y00729488
X01093216Y00745744
X01283714Y00729715
M30
