M48
;Layer_Color=9474304
;FILE_FORMAT=4:4
METRIC,LZ
;TYPE=PLATED
T01F00S00C0.2000
T02F00S00C0.3302
T04F00S00C0.8000
T05F00S00C0.9300
T06F00S00C1.0200
T07F00S00C1.1000
T08F00S00C1.5100
T10F00S00C3.5560
;TYPE=NON_PLATED
T11F00S00C0.6000
T12F00S00C3.0000
%
T01
X00268602Y00407416
X00276352
X00284102
X00276352Y00399666
Y00415166
X00276292Y00747548
X00265624
X0026537Y00758724
Y00769138
Y00780314
X00276546
Y00769392
X00276292Y00758724
X00254448Y00758978
X00254194Y00769138
X00243526
X00243272Y00758724
X00243018Y00747802
X00254194
Y00780314
X00243526Y00780568
T02
X0029845Y-0055753
X0033655
X0037465
X003937Y-0051943
X004318
X0045085Y-0048133
X0048895
X0052705
X0041275
X0037465
X0033655
X003556Y-0051943
X002794
X017653Y-0021463
X0178435Y-0017653
X0174625
X017653Y-0013843
X0178435Y-0010033
X017272Y-0013843
X0170815Y-0017653
X017272Y-0021463
X016891
X01651
X01640332Y-00192278
X01619504Y-00183896
X016129Y-0013843
X015748
X015367
Y-0021463
X015748
X01578356Y-002032
X014986Y-0021463
X014605
X01398524Y-00212598
X013843Y-0021463
X013462
X0136525Y-0010033
X0140335
X0159385
X0125095
X0121285
X0117475
X0109855
X0106045
X0102235
X0098425
X010033Y-0013843
X010414
X010795
X0106045Y-0017653
X0102235
X0098425
X00965962Y-00177878
X009652Y-0021463
X010033
X010414
X010795
X01087882Y-00207772
X011176Y-0021463
X011557
X011938
X012319
X0127
X01309878Y-0021844
X0128905Y-0017653
X0125095
X0121285
X0102235Y-0025273
X0098425
X009652Y-0013843
X0090805Y-0017653
X0086995
X0083185
X008509Y-0013843
X0086995Y-0010033
X0083185
X0079375
X0075565
X0071755
X0067945
X0064135
X0060325
X006223Y-0013843
X006604
X006985
X007366
X007747
Y-0021463
X0079375Y-0025273
X0075565
X0071755
X006985Y-0021463
X0071755Y-0017653
X0064135
X005842Y-0013843
X005461
Y-0021463
X005842
X0060325Y-0025273
X0056515
X0060325Y-0032893
X0064135
X0067945
X0071755
X0075565
X007747Y-0029083
Y-0036703
X007366
X006985
X006604
X006223
X005842
X00580898Y-00360934
X0056515Y-0040513
X0060325
X0064135
X0067945
X006223Y-0044323
X005842
X005461
X00508
X0047117Y-00437642
X00451104Y-00436372
X004318Y-0044323
X00403606Y-00450342
X0041402Y-00421132
X0037465Y-0040513
X0033655
X0029845
X0026035
X002794Y-0036703
X003175
X0029845Y-0032893
X0026035
X002794Y-0029083
X003175
X003556
X003937
X004318
X0041275Y-0025273
X004318Y-0021463
X003937
X00391414Y-00181102
X0041275Y-0017653
X0045085
X0048895
X0052705
X00508Y-0021463
Y-0029083
Y-0036703
X0052705Y-0040513
X004445Y-00385572
X004318Y-0036703
X0041275Y-0032893
X0033655Y-0025273
X003556Y-0021463
X003175
X002794
X002413
X002032
X0022225Y-0017653
X002159Y-00151638
X002032Y-0013843
X002413
X0026035Y-0010033
X0029845
X00301752Y-00165354
X0033655Y-0017653
X003556Y-0013843
X003937
X004318
X0045085Y-0010033
X0048895
X0052705
X0041275
X0037465
X0018415
Y-0017653
Y-0025273
X002032Y-0029083
X0018415Y-0032893
X002032Y-0036703
X00127Y-0021463
X0010795Y-0017653
X00127Y-0013843
X0010795Y-0010033
X00127Y-0006223
X00084836Y-0006096
X000508Y-0006223
X0006985Y-0002413
X0010795
X00127Y0001397
X0010795Y0005207
X0006985
X0003175
X000508Y0009017
X000127
Y0001397
X000508
X00127Y0009017
X00110597Y00264307
X00108458Y00296418
X00088392Y0028067
X0008001Y00276352
X00078502Y00251189
X00079502Y00325882
X001651Y0009017
X002032
X002413
X002794
X003175
X003556
X003937
X004318
X004699
X00522732Y00094234
X00526542Y00047244
X00499618Y00045212
X0048895Y0005207
X0045085
X0041275
X0037465
Y0012827
X0033655
X0029845
Y0005207
X0026035
X0022225
X0018415
X0014605
X001651Y0001397
X002032
X002413
X0022225Y-0002413
X00240792Y-00049276
X00284226Y-00042164
X003175Y-0006223
X003937
X004318
X0045085Y-0002413
X0048895
X0052705
X004318Y0001397
X0037465Y-0002413
X003175Y0001397
X0033401Y00181864
X0048895Y0020447
X0052705
X00508Y0024257
X0048514Y0024511
X004699Y0024257
X0052705Y0028067
X00508Y0031877
X0048895Y0012827
X0014605Y-0002413
X001651Y-0006223
X005461
X005842
X006223
X006604
X0066675Y-00034544
X0067945Y-0002413
X0071755
X0075565
X0079375
X0083185
X0086995
X0090805
X009271Y0001397
X00889
X008509
X00853067Y00032281
X0086995Y00033528
X00889Y0009017
X008509
X008128
X0083185Y0012827
X0079375
X0075565
X007747Y0016637
X00787654Y00187579
X008128Y0016637
X008509
X00846328Y00183388
X00889Y0016637
X009271
X0090805Y0020447
X00879602Y00229108
X00868938Y00226565
X0086995Y0028067
X0083185
X0079375
X008128Y0031877
X007747
X007366
X0067945Y0028067
X006985Y0024257
X00677037Y00220726
X0064135Y0020447
X006223Y0016637
X005842
Y0024257
X005461
X0056515Y0028067
X006223Y0031877
X0071755Y0020447
X007366Y0016637
X006985
Y0009017
X0067945Y0005207
X0064135
X00632285Y00043758
X00621792Y00054356
X006223Y0009017
X0064135Y0012827
X006604Y0001397
X006985
X007366
X007747
X008128
Y-0006223
X007747
X007366
X006985
X0064135Y-0002413
X0060325
X006223Y0001397
X005461
X0056515Y0005207
X009652Y0009017
X010033
X010414
X010795
X0106045Y0012827
X0102235
X0098425
X0094615
Y0020447
X009652Y0024257
X010033
X010414
X01044702Y0023622
X01060366Y00236185
X0106045Y0020447
X0109855
X0113665
X011176Y0016637
X010795
X010414
X0103251Y00175768
X010033Y0016637
X0102235Y0028067
X0106045
X0109855
X010795Y0031877
X010414
X010033
X009652
X0098425Y0028067
X0117475
X0121285
X0125095
X01246378Y00239014
X01235388Y00238228
X0125095Y0020447
X0128905
X013081Y0016637
X0127
X012319
X0122428Y0017526
X011938Y0016637
X0121285Y0012827
X0117475
X011938Y0009017
X012319
X0127
X0128905Y0005207
X0132715
X013081Y0001397
X0127
X01247902Y0003937
X01234186Y00037846
X0125095Y0005207
X0121285
X0117475
X0113665
X011557Y0009017
Y0001397
X011176
X010795
X010414
X01043686Y0004064
X01063063Y00042218
X0106045Y-0002413
X0109855
X010795Y-0006223
X010414
X010033
X009652
Y0001397
X010033
X01008888Y00001524
X0102235Y-0002413
X011557Y-0006223
X011938
X0121285Y-0002413
X01222756Y-0001524
X0125095Y-0002413
X0128905
X01202563Y00020447
X0132715Y0012827
X011938Y0031877
X011557
X013462
X013843
X014224
X014605
X014986
X015748
X016129
X01651
X016891
X017272
X016891Y0024257
X01651
X016129
X01610106Y00210312
X01581404Y00216916
X0154178
X0152019Y00217424
X01537208Y00194725
X01529334Y00183642
X015367Y0016637
X015748
X016129
X01651
X016891
X017272
X0170815Y0012827
Y0005207
X016891Y0001397
X01652778Y00007874
X01618392Y00006998
X016129Y0001397
X01604772Y-00007493
X015748Y0001397
X0159385Y0005207
X0163195
X01651Y0009017
X016129
X015748
X015367
X0155575Y0005207
X0151765
X0147955
X0144145
X01438402Y00021336
X0142367Y00020574
X014224Y0001397
X014605
X014986
X0151765Y-0002413
X0155575
X015748Y-0006223
X016129
X01651
X0170815Y-0002413
X0163195Y0012827
X0159385
X0147955
X0144145
X0141732Y0013462
X0140335Y0012827
X013843Y0009017
X0140335Y0005207
X0136525
X0140335Y-0002413
X0141351Y-00024892
X014224Y-0006223
X014605
X014986
X013843
X013462
Y0024257
X013843
X014224
X01426464Y0021082
X01438148Y00209042
X014605Y0024257
X015367
X0159385Y0028067
X0163195
X01660906Y0020193
X01670227Y00202515
X014986Y0016637
X0140335Y0028067
X0136525
X017653Y0024257
X018034
X01790177Y00211567
X0178435Y0020447
X0182245
X0186055
X018796Y0024257
X0186055Y0028067
X0182245
X018796Y0031877
Y0016637
X0186055Y0012827
X0182245
X018034Y0016637
Y0009017
X017653
Y0001397
X018034
X0182245Y0005207
X0186055
X018796Y0009017
Y0001397
X0186055Y-0002413
X0178435
X0174625
X017653Y-0006223
X0178435Y0035687
X0182245
X0186055
X018796Y0039497
X0186055Y0043307
X0182245
X018034Y0047117
X017653
Y0054737
X018034
X0182245Y0058547
X0186055
X018796Y0062357
Y0054737
X0186055Y0050927
X0182245
X018796Y0047117
X018034Y0039497
X017653
X0174625Y0035687
X0178435Y0058547
X01798828Y00604774
X0178435Y0066167
X018415Y0069977
X01685036Y00696722
X01651Y0069977
X016129
X015748
X0159385Y0066167
X0163195
X01651Y0062357
X016891
X01712214Y00604774
X0170815Y0058547
X01675638Y00577596
X01659636Y00577088
X01651Y0054737
X016891
X017272
X0170815Y0050927
Y0043307
X016891Y0039497
X01673056Y00390339
X01654302Y00390144
X0163576Y00371348
X0163195Y0035687
X0159385
X0155575
X0151765
X0147955
X01412748Y00363728
X0140335Y0035687
X014224Y0039497
X01427269Y00417351
X01438148Y00418084
X0144145Y0043307
X0140335
X0136525
X013843Y0047117
X0140335Y0050927
X0144145
X0147955
X014986Y0054737
X015367
X015748
X016129
X0163195Y0050927
X0159385
X016129Y0047117
X01651
X0163195Y0043307
X0159385
X0155575
X0151765
X015367Y0047117
X015748
Y0039497
X016129
X015367
X013843
X013462
X013843Y0054737
X0141732Y00545338
X014605Y0054737
X01445514Y00592836
X01427267Y00594565
X014224Y0062357
X013843
X013462
X0136525Y0066167
X0140335
X014224Y0069977
X013843
X013462
X0136525Y0058547
X01523238Y00598424
X0154051Y00597916
X015367Y0062357
X015748
X016129
X014986Y0069977
X0170815Y0035687
X0128905
X0125095
X0121285
X01244346Y00419862
X01238772Y00435115
X01230122Y0044196
X012319Y0047117
X01249747Y00468744
X0124841Y00459486
X0127Y0047117
Y0054737
X013081
X0132715Y0058547
X0128905
X0125095
X01256728Y00613059
X0127Y0062357
X012319
X01234207Y00611478
X0121285Y0058547
X0117475
X0113665
X0109855
X011176Y0054737
X011938
X012319
X01225804Y00560324
X0121285Y0050927
X0117475
X011938Y0047117
X011557Y0039497
X011176
X010795
X01030611Y00391085
X0102235Y0035687
X0106045
X0109855
Y0043307
X0106045
X01054354Y00428498
X01042924Y00427228
X010414Y0047117
X010795
X0106045Y0050927
X0102235
X0098425
X0094615
X009652Y0047117
X010033
Y0054737
X010414
X0102997Y00583184
X0102235Y0058547
X0098425
X0094615
X009652Y0062357
X010033
X010414
X01042975Y00612663
X0106045Y0061341
Y0066167
X0109855
X010795Y0069977
X010414
X010033
X009652
X0098425Y0066167
X0102235
X011557Y0069977
X011938
X0125095Y0066167
X0128905
X0132715Y0050927
Y0043307
X013081Y0039497
X0127
X009271
X00889
X00875792Y00381508
X0086995Y0035687
X0090805
X0083185
X0079375
X0075565
X0071755
X0067945
X00678942Y00403606
X00662432Y00402082
X00657098Y00384175
X006223Y0039497
X00579628Y00402336
X00562864Y00402082
X005461Y0047117
X0054483Y0051943
X0060325Y0050927
X0064135
X006604Y0054737
X0065913Y00576072
X0064135Y0058547
X00659213Y00604038
X00674624Y0060452
X006604Y0062357
X006985
X0071755Y0058547
X0075565
X0079375
X0083185
X00838454Y00573786
X008509Y0054737
X00889
X009271
X0090805Y0058547
X00869188Y00602742
X00852603Y00603683
X008509Y0062357
X00889
X009271
X0090805Y0066167
X0086995
X0083185
X0079375
X008128Y0069977
X007747
X007366
X0067945Y0066167
X0064135
X0060325
X006223Y0069977
X005842
X005461
X005842Y0062357
X006223
X0060325Y0058547
X0056515
X006223Y0054737
X006985
X007366
X007747
X008128
X0083185Y0050927
X0079375
X0075565
X0071755
X006985Y0047117
X006604
X006223
X0064135Y0043307
X0067945
X0071755
X007366Y0039497
X0079375Y0043307
X008128Y0047117
X008509
X00889
X0086995Y0043307
X00868172Y00418338
X00854456
X008128Y0062357
X007747
X00621792Y00338328
X00528828Y0035941
X00526288Y00396748
X0048768Y00393192
X00475996Y00393446
X00449199Y00394971
X0048895Y0043307
Y0050927
X0052705
X00508Y0054737
X00458724Y00545846
X00452882Y00578358
X0045339Y0059182
X00454406Y00602742
X0046228Y00613918
X00441579Y00590677
X00433204Y0057416
X00398272Y00573278
X00395388Y0059182
X00409325Y00592713
X00417322Y00637032
X00408872Y0066205
X00378714Y00641604
X0037846Y00629793
X00339638Y00643024
X00335851Y00656399
X00325697Y00655556
X00321088Y00659924
X00309697Y00659123
X00304982Y00642611
X00321991Y00642857
X00294768Y00652526
X00284226Y00658876
X00273855Y00659802
X00273812Y00647192
X00271526Y00624078
X00269541Y00604821
X00236982Y00587502
X00227584Y00587725
X0022098Y00586994
X00220726Y00627126
X0022733Y00624967
X0023594Y0063061
X00219964Y00645668
X00232664Y00665734
X00234188Y00694436
X00242365Y00698674
X00232664Y0070866
X00216755Y00693674
X00261874Y00695706
X00274066Y00696027
X00294894Y00703326
X00306483Y00702723
X00305352Y00724613
X00332359Y00717423
X00344777Y00725043
X00318817Y00685753
X00328422Y00675386
X00298704Y00678873
X00290957Y00636143
X00189506Y0062029
X00194785Y00604647
X00176181Y00606457
X00157503Y0059436
X0014605Y00595122
X00169053Y00581056
X00153416Y0056515
X00177285Y0051943
X00270256Y00490474
X00306324Y00494538
X00338963Y00464947
X00337947Y00447421
X00301752Y00411988
X00286619Y00380893
X00262636Y00383794
X00251714Y00415544
X00228092Y00419354
X00264922Y00431546
X00266065Y00338709
X00285115Y00337947
X00338201Y00375031
X003937Y0034671
X00182626Y00353314
X0018664Y00332027
X00153416Y00724154
X00144399Y007239
X00445951Y00721179
X00458377Y00709999
X00508Y0062357
X00527304Y00602742
X0052705Y0058547
X0048895
X00125222Y00658062
X00125694Y00670778
X00064312Y00719188
X00040855Y00713217
X00036068Y00724154
X00126238Y00473964
X00124968Y0044323
X00074155Y00725997
X00066542Y00733687
X00054356Y00729488
X00047688Y0073843
X00046904Y00751078
X00058784Y00743114
X00055372Y00769112
X00034798
X00033782Y00732536
X00008636Y00796798
Y00804926
Y008128
Y00821944
Y0083058
Y00840486
X00008382Y00849376
X0000889Y00859028
X00008636Y00868426
Y00878332
Y00887476
Y00896874
X00020066Y00897636
X00032766
X00045466
X00058166
X00070866
X0006985Y0089027
X00083566Y00897636
X00096266
X00108966
X0010795Y0089027
X00121666Y00897636
X0013335
X00134353Y00850633
X00138684Y00832104
X00105156Y00849376
Y00865642
X00119888Y00794324
X00088138Y00792988
X00065532Y00799338
X00147561Y00814057
X00149098Y00821944
X00157608Y00822073
X0017759Y00821848
X0018034Y00816102
X00178816Y00837946
X00214122Y0083439
X00233295Y00839108
X00260858Y00842518
Y00835152
Y00828294
X00261112Y00820928
Y00814578
X00261366Y00808736
X0027432Y00809752
X00274828Y00816102
Y0082296
Y0083058
Y0084963
Y00856996
X00275082Y00863854
X00275336Y00870458
X00277622Y00876554
X00277368Y00883158
Y00890016
X00278638Y00896874
X0028702
X00295148
X00302006Y00896112
X00310134Y00896366
X00318008Y0089662
X00326136
X00335026
X00324358Y00904748
X00324104Y009144
X00324358Y00923036
Y00931164
Y0093853
Y0094615
Y00954278
Y00961898
Y0097028
Y009779
Y00985012
Y00992886
X00332232Y00992632
X0034544
X0035814Y00992886
X00370586
X00383032
X00395732
X00408432
X00421132
X00433832
X00432562Y00942482
X0042672Y00915924
X00426894Y00904494
X00400304Y00863854
X003937Y0085217
X00367538
X00356305Y00836168
X00382524
X00379984Y008763
X00365506Y00897128
X0035814
X00344509Y00868058
X00335534Y0084328
X00315976Y0083947
X003175Y0085217
X00304292Y0081661
X00290068Y00815594
X00286404Y00806951
X00293116Y00798576
X00305185Y00797175
X00304625Y00765685
X00316073Y00733649
X00332486Y00743443
X00336866Y00779646
X00335026Y00790956
X00352044Y00776732
X00364998Y00785865
X00365114Y00794755
X00277876Y00790194
X00272288
X002493Y0081534
X0022479Y0080899
X00225552Y0079756
X00215646Y00798322
X00197612Y0077216
X00175998Y00771593
X00167732Y00804764
X00151879Y00851141
X0014605Y0089027
Y00897636
X00158496
X00170688
X00182372
X0018415Y0089027
X00194056Y00897636
X00203708Y00897382
X00213868Y00897636
X00225044Y0089789
X00235204
X00244348
X00253238Y00897636
X00258826Y00895604
Y00889254
X0025908Y00883158
Y00876554
X0026035Y00870458
X00260858Y00863854
X00261112Y00856996
Y00849884
X00235271Y00870458
X0029845Y0089027
X00293624Y00729742
X00223815Y00730964
X0049149Y00729996
X00502031Y00743204
X00498887Y00756158
X00511147Y00752069
X0051054Y00774192
X00519684Y0077089
X00503555Y00788353
X00503381Y00797456
X00472768Y0081044
X00443557Y00832685
X00455676Y00844804
X00551347Y00839041
X00551942Y00797814
X00547878Y00773684
X00541782Y00768604
X00562838Y00775055
X00581533Y00763975
X00580898Y00752856
X0059309Y00744474
X00592328Y00771144
X0059182Y00779272
X0060325Y0081407
X00588772Y00830326
X00624078Y00795401
X00700024Y00789178
X00709168Y00836295
X00736532Y00819561
X0075565Y0081407
X0079375
X0083185
X0086995
X0090805
X00934974Y00782828
X0090805Y0073787
X0086995
X0083185
X0079375
X0056515
X0102235
X0106045
X0109855
X01120085Y00791718
X0113665Y0081407
X0117475
X0121285
X0125095
X0128905
X01283462Y00782828
X0127Y0077597
X013081
X0132715Y0081407
X0128905Y0073787
X0125095
X0121285
X012319Y0077597
X0109855Y0081407
X0106045
X0102235
X0098425
X0094615
X0136525
X0140335
X0144145
X0147955
X0151765
X0155575
X01588649Y00810514
X01601978Y00785876
X016129Y0077597
X01622552Y00765556
X0163195Y0073787
X0167005
X0170815
X017272Y0077597
X016891
X01651
X0167005Y0081407
X0170815
X0163195
X015748Y0077597
X015367
X014986
X014605
X0147955Y0073787
X0151765
X0155575
X0159385
X0144145
X0140335
X013843Y0077597
X013462
X017653
X018034
X018415
X0182245Y0081407
X01835658Y00838273
X01857756Y00842518
X018796Y0085217
X0178435Y0081407
X0174625
Y0073787
X0178435
X0182245
T04
X00193398Y00556602
X00213398
X00233398
X00253398
X00273398
X00293398
X00313398
X00333398
X00136144Y00387458
Y00362458
Y00337458
T05
X00022806Y0042069
Y0044069
Y0046069
X00047806
Y0044069
Y0042069
T06
X00150876Y00876046
X00176276
T07
X00064662Y00608942
X00114662
Y00753942
X00089662
X00064662
T08
X00035306Y0039069
Y0049069
T10
X00782574Y-00330962
X00036576Y0086995
T11
X00058134Y0025943
Y0031723
T12
X0025868Y-00466249
X00312427Y-00508542
X01460713Y-0009117
X01651214
X00662665Y-00163316
X00599165Y-00188715
X00490169Y-0024309
X00426669Y-0026849
X00234838Y-00334333
X00181091Y-00292041
X0015305Y-00161867
X00099303Y-00119575
X00305541Y-00009391
X00369041Y00016008
X00510011Y00167139
X00573511Y00192539
X0070104Y00119634
X0076454Y00145034
X00891006Y00132817
X00889209Y00321583
X00699495Y00310394
X00889209Y-0005942
X00952709Y-0003402
X01080241Y-00042666
X01143741Y-00017266
X01270995Y-00058667
X01272009Y00132817
X01144503Y00172727
X01081003Y00147327
X00954506Y00158217
X01270212Y00321583
X01460713Y00289833
X01524213Y00315233
Y00124731
X01460713Y00099331
X01335509Y00158217
X01334495Y-00033267
X01524213Y-0006577
X01714714
X0169884Y00099331
X0169884Y00289833
X0176234Y00315233
X01762339Y00124731
X01763501Y00506737
X01764263Y00697744
X01700763Y00672344
X01700002Y00481337
X01525503Y00506737
X01462003Y00481337
X01335765Y00539757
X01333712Y00346983
X01463781Y00671075
X01527281Y00696475
X01272009Y00704321
X01272265Y00514357
X01146027Y00554996
X01082527Y00529596
X00954506Y0053922
X00952709Y00346983
X0107971Y0033756
X0114321Y0036296
X01081511Y0072035
X00891011Y00704094
X00762254Y00714956
X00698754Y00689556
X00573786Y00716988
Y00479498
X00700505Y0050112
X00764005Y0052652
X00891006Y0051382
X00762995Y00335794
X00510286Y00454098
Y00691588
X00954511Y00729494
X01145011Y00745751
X01335509Y00729721
M30
