G04*
G04 #@! TF.GenerationSoftware,Altium Limited,Altium Designer,24.10.1 (45)*
G04*
G04 Layer_Color=255*
%FSLAX44Y44*%
%MOMM*%
G71*
G04*
G04 #@! TF.SameCoordinates,C5D54C42-AD36-42D0-BC00-7EC9B4A80EB1*
G04*
G04*
G04 #@! TF.FilePolarity,Positive*
G04*
G01*
G75*
%ADD24R,0.8000X0.9000*%
%ADD168C,0.5000*%
%ADD169R,1.3080X1.3080*%
%ADD170C,1.3080*%
%ADD171C,4.5720*%
%ADD172R,1.6500X1.6500*%
%ADD173C,1.6500*%
%ADD174O,3.0000X6.0000*%
%ADD175C,1.6000*%
%ADD176R,1.6000X1.6000*%
%ADD177C,0.3000*%
G04:AMPARAMS|DCode=178|XSize=1.308mm|YSize=1.308mm|CornerRadius=0.327mm|HoleSize=0mm|Usage=FLASHONLY|Rotation=90.000|XOffset=0mm|YOffset=0mm|HoleType=Round|Shape=RoundedRectangle|*
%AMROUNDEDRECTD178*
21,1,1.3080,0.6540,0,0,90.0*
21,1,0.6540,1.3080,0,0,90.0*
1,1,0.6540,0.3270,0.3270*
1,1,0.6540,0.3270,-0.3270*
1,1,0.6540,-0.3270,-0.3270*
1,1,0.6540,-0.3270,0.3270*
%
%ADD178ROUNDEDRECTD178*%
%ADD179O,1.7000X0.9000*%
%ADD180O,2.0000X0.9000*%
%ADD181C,0.6000*%
%ADD182R,1.4380X1.4380*%
%ADD183C,1.4380*%
%ADD184C,2.2650*%
%ADD186R,2.1000X1.4000*%
%ADD187C,3.4000*%
G04:AMPARAMS|DCode=188|XSize=2.55mm|YSize=2.5mm|CornerRadius=0mm|HoleSize=0mm|Usage=FLASHONLY|Rotation=300.000|XOffset=0mm|YOffset=0mm|HoleType=Round|Shape=Rectangle|*
%AMROTATEDRECTD188*
4,1,4,-1.7200,0.4792,0.4450,1.7292,1.7200,-0.4792,-0.4450,-1.7292,-1.7200,0.4792,0.0*
%
%ADD188ROTATEDRECTD188*%

%ADD189R,2.5500X2.5000*%
D24*
X226822Y-52484D02*
D03*
X217322Y-72484D02*
D03*
X236322D02*
D03*
X328016Y-251808D02*
D03*
X309016D02*
D03*
X318516Y-231808D02*
D03*
X390550Y-409608D02*
D03*
X409550D02*
D03*
X400050Y-429608D02*
D03*
X344932Y-100170D02*
D03*
X354432Y-80170D02*
D03*
X335432D02*
D03*
X451510Y-340012D02*
D03*
X470510D02*
D03*
X461010Y-360012D02*
D03*
X639064Y-282288D02*
D03*
X648564Y-262288D02*
D03*
X629564D02*
D03*
X1495552Y194470D02*
D03*
X1505052Y214470D02*
D03*
X1486052D02*
D03*
X1302410Y247744D02*
D03*
X1321410D02*
D03*
X1311910Y227744D02*
D03*
X1119390Y246420D02*
D03*
X1128890Y266420D02*
D03*
X1109890D02*
D03*
X917104Y248386D02*
D03*
X936104D02*
D03*
X926604Y228386D02*
D03*
X724306Y238854D02*
D03*
X743306D02*
D03*
X733806Y218854D02*
D03*
X1682648Y-161704D02*
D03*
X1701648D02*
D03*
X1692148Y-181704D02*
D03*
X1500632Y-180434D02*
D03*
X1510132Y-160434D02*
D03*
X1491132D02*
D03*
X1300124Y-130208D02*
D03*
X1319124D02*
D03*
X1309624Y-150208D02*
D03*
X1115822Y-134206D02*
D03*
X1125322Y-114206D02*
D03*
X1106322D02*
D03*
X916838Y-128430D02*
D03*
X935838D02*
D03*
X926338Y-148430D02*
D03*
X543712Y74488D02*
D03*
X553212Y94488D02*
D03*
X534212D02*
D03*
X726338Y50386D02*
D03*
X745338D02*
D03*
X735838Y30386D02*
D03*
X919886Y59022D02*
D03*
X938886D02*
D03*
X929386Y39022D02*
D03*
X1108354Y77564D02*
D03*
X1127354D02*
D03*
X1117854Y57564D02*
D03*
X1310640Y42070D02*
D03*
X1320140Y62070D02*
D03*
X1301140D02*
D03*
X1485798Y25748D02*
D03*
X1504798D02*
D03*
X1495298Y5748D02*
D03*
X1736852Y9812D02*
D03*
X1746352Y29812D02*
D03*
X1727352D02*
D03*
X1728368Y221328D02*
D03*
X1747368D02*
D03*
X1737868Y201328D02*
D03*
X1740662Y388526D02*
D03*
X1750162Y408526D02*
D03*
X1731162D02*
D03*
X1492922Y413994D02*
D03*
X1511922D02*
D03*
X1502422Y393994D02*
D03*
X1306830Y422562D02*
D03*
X1316330Y442562D02*
D03*
X1297330D02*
D03*
X1119886Y430182D02*
D03*
X1129386Y450182D02*
D03*
X1110386D02*
D03*
X927608Y417990D02*
D03*
X937108Y437990D02*
D03*
X918108D02*
D03*
X738632Y411894D02*
D03*
X748132Y431894D02*
D03*
X729132D02*
D03*
X550672Y360078D02*
D03*
X560172Y380078D02*
D03*
X541172D02*
D03*
X547726Y603062D02*
D03*
X557226Y623062D02*
D03*
X538226D02*
D03*
X734822Y603156D02*
D03*
X744322Y623156D02*
D03*
X725322D02*
D03*
X917104Y632180D02*
D03*
X936104D02*
D03*
X926604Y612180D02*
D03*
X1119136Y622594D02*
D03*
X1128636Y642594D02*
D03*
X1109636D02*
D03*
X1301914Y632180D02*
D03*
X1320914D02*
D03*
X1311414Y612180D02*
D03*
X1500898Y581700D02*
D03*
X1510398Y601700D02*
D03*
X1491398D02*
D03*
X1728876Y601566D02*
D03*
X1747876D02*
D03*
X1738376Y581566D02*
D03*
D168*
X265370Y780314D02*
D03*
X276546D02*
D03*
Y769392D02*
D03*
X276292Y758724D02*
D03*
Y747548D02*
D03*
X265624D02*
D03*
X265370Y758724D02*
D03*
Y769138D02*
D03*
X254194D02*
D03*
X254448Y758978D02*
D03*
X254194Y747802D02*
D03*
Y780314D02*
D03*
X243526Y780568D02*
D03*
Y769138D02*
D03*
X243272Y758724D02*
D03*
X243018Y747802D02*
D03*
D169*
X333398Y556602D02*
D03*
D170*
X313398D02*
D03*
X293398D02*
D03*
X273398D02*
D03*
X253398D02*
D03*
X233398D02*
D03*
X213398D02*
D03*
X193398D02*
D03*
X136144Y337458D02*
D03*
Y362458D02*
D03*
D171*
X36576Y869950D02*
D03*
X782574Y-330962D02*
D03*
D172*
X64662Y608942D02*
D03*
D173*
X114662D02*
D03*
X64662Y753942D02*
D03*
X89662D02*
D03*
X114662D02*
D03*
D174*
X32662Y678942D02*
D03*
X146662D02*
D03*
D175*
X150876Y876046D02*
D03*
D176*
X176276D02*
D03*
D177*
X268602Y407416D02*
D03*
X276352D02*
D03*
X284102D02*
D03*
X276352Y399666D02*
D03*
Y415166D02*
D03*
D178*
X136144Y387458D02*
D03*
D179*
X21334Y245080D02*
D03*
Y331580D02*
D03*
D180*
X63034Y245080D02*
D03*
Y331580D02*
D03*
D181*
X58134Y259430D02*
D03*
Y317230D02*
D03*
D182*
X47806Y460690D02*
D03*
D183*
Y440690D02*
D03*
Y420690D02*
D03*
X22806Y460690D02*
D03*
Y440690D02*
D03*
Y420690D02*
D03*
D184*
X35306Y490690D02*
D03*
Y390690D02*
D03*
D186*
X341088Y925936D02*
D03*
X432088D02*
D03*
Y970936D02*
D03*
X341088D02*
D03*
D187*
X47584Y122428D02*
D03*
X407584D02*
D03*
D188*
X243575Y-440086D02*
D03*
X327532Y-534704D02*
D03*
X249943Y-360496D02*
D03*
X165986Y-265878D02*
D03*
X84198Y-93412D02*
D03*
X168155Y-188030D02*
D03*
D189*
X399252Y16008D02*
D03*
X275331Y-9391D02*
D03*
X520379Y-243090D02*
D03*
X396459Y-268490D02*
D03*
X692875Y-163316D02*
D03*
X568955Y-188715D02*
D03*
X603996Y479498D02*
D03*
X480076Y454098D02*
D03*
X1557491Y696475D02*
D03*
X1433571Y671075D02*
D03*
X1365719Y729721D02*
D03*
X1241799Y704321D02*
D03*
X1175221Y745751D02*
D03*
X1051301Y720350D02*
D03*
X984721Y729494D02*
D03*
X860801Y704094D02*
D03*
X670295Y501120D02*
D03*
X794215Y526520D02*
D03*
X860796Y513820D02*
D03*
X984716Y539220D02*
D03*
X1052317Y529596D02*
D03*
X1176237Y554996D02*
D03*
X1242055Y514357D02*
D03*
X1365975Y539757D02*
D03*
X1431793Y481337D02*
D03*
X1555713Y506737D02*
D03*
X1430503Y289833D02*
D03*
X1554423Y315233D02*
D03*
X1240002Y321583D02*
D03*
X1363922Y346983D02*
D03*
X1049500Y337560D02*
D03*
X1173420Y362960D02*
D03*
X858999Y321583D02*
D03*
X982919Y346983D02*
D03*
X669285Y310394D02*
D03*
X793205Y335794D02*
D03*
X603721Y192539D02*
D03*
X479801Y167139D02*
D03*
X670830Y119634D02*
D03*
X794750Y145034D02*
D03*
X860796Y132817D02*
D03*
X984716Y158217D02*
D03*
X1050793Y147327D02*
D03*
X1174713Y172727D02*
D03*
X1241799Y132817D02*
D03*
X1365719Y158217D02*
D03*
X1430503Y99331D02*
D03*
X1554423Y124731D02*
D03*
X982919Y-34020D02*
D03*
X858999Y-59420D02*
D03*
X1173951Y-17266D02*
D03*
X1050031Y-42666D02*
D03*
X1364705Y-33267D02*
D03*
X1240785Y-58667D02*
D03*
X1430503Y-91170D02*
D03*
X1554423Y-65770D02*
D03*
X1621004Y-91170D02*
D03*
X1744924Y-65770D02*
D03*
X1792549Y124731D02*
D03*
X1668629Y99331D02*
D03*
X1668630Y289833D02*
D03*
X1792550Y315233D02*
D03*
X1793712Y506737D02*
D03*
X1669792Y481337D02*
D03*
X1794473Y697744D02*
D03*
X1670553Y672344D02*
D03*
X480076Y691588D02*
D03*
X603996Y716988D02*
D03*
X792464Y714956D02*
D03*
X668544Y689556D02*
D03*
M02*
