G04*
G04 #@! TF.GenerationSoftware,Altium Limited,Altium Designer,24.5.2 (23)*
G04*
G04 Layer_Color=16711935*
%FSLAX44Y44*%
%MOMM*%
G71*
G04*
G04 #@! TF.SameCoordinates,46E3B4B0-CD5B-4495-8DDB-E651780D3609*
G04*
G04*
G04 #@! TF.FilePolarity,Negative*
G04*
G01*
G75*
%ADD137C,0.2032*%
%ADD138C,1.5112*%
G04:AMPARAMS|DCode=139|XSize=1.5112mm|YSize=1.5112mm|CornerRadius=0.4286mm|HoleSize=0mm|Usage=FLASHONLY|Rotation=90.000|XOffset=0mm|YOffset=0mm|HoleType=Round|Shape=RoundedRectangle|*
%AMROUNDEDRECTD139*
21,1,1.5112,0.6540,0,0,90.0*
21,1,0.6540,1.5112,0,0,90.0*
1,1,0.8572,0.3270,0.3270*
1,1,0.8572,0.3270,-0.3270*
1,1,0.8572,-0.3270,-0.3270*
1,1,0.8572,-0.3270,0.3270*
%
%ADD139ROUNDEDRECTD139*%
%ADD140C,1.8032*%
%ADD141R,1.8032X1.8032*%
%ADD142C,0.7032*%
%ADD143C,0.8032*%
%ADD144O,2.2032X1.1032*%
%ADD145O,1.9032X1.1032*%
%ADD146R,1.6412X1.6412*%
%ADD147C,1.6412*%
%ADD148C,2.4682*%
%ADD149R,1.5112X1.5112*%
%ADD150R,1.8532X1.8532*%
%ADD151C,1.8532*%
%ADD152O,3.2032X6.2032*%
%ADD153C,4.7752*%
%ADD154C,0.7366*%
%ADD197R,1.7032X1.1032*%
D137*
X1662919Y-65777D02*
D03*
X1726419Y-91177D02*
D03*
X1535918D02*
D03*
X1472418Y-65777D02*
D03*
X1282700Y-33274D02*
D03*
X1346200Y-58674D02*
D03*
X1155446Y-42672D02*
D03*
X1091946Y-17272D02*
D03*
X900914Y-34026D02*
D03*
X964414Y-59426D02*
D03*
X674370Y-188722D02*
D03*
X610870Y-163322D02*
D03*
X438373Y-243096D02*
D03*
X501874Y-268496D02*
D03*
X1774044Y99325D02*
D03*
X1710544Y124725D02*
D03*
X1472418D02*
D03*
X1535918Y99325D02*
D03*
X1347213Y132811D02*
D03*
X1283714Y158211D02*
D03*
X1092708Y172720D02*
D03*
X1156208Y147320D02*
D03*
X966210Y132811D02*
D03*
X902710Y158211D02*
D03*
X712978Y145796D02*
D03*
X776478Y120396D02*
D03*
X585216Y167132D02*
D03*
X521716Y192532D02*
D03*
X1710544Y315226D02*
D03*
X1774044Y289826D02*
D03*
X1535918D02*
D03*
X1472418Y315226D02*
D03*
X1281917Y346977D02*
D03*
X1345417Y321577D02*
D03*
X1154915Y337553D02*
D03*
X1091415Y362953D02*
D03*
X900914Y346977D02*
D03*
X964414Y321577D02*
D03*
X774700Y310388D02*
D03*
X711200Y335788D02*
D03*
X317246Y16002D02*
D03*
X380746Y-9398D02*
D03*
X1775206Y481330D02*
D03*
X1711706Y506730D02*
D03*
X1473708D02*
D03*
X1537208Y481330D02*
D03*
X1347470Y514350D02*
D03*
X1283970Y539750D02*
D03*
X1094232Y554990D02*
D03*
X1157732Y529590D02*
D03*
X966210Y513813D02*
D03*
X902710Y539213D02*
D03*
X712209Y526513D02*
D03*
X775709Y501113D02*
D03*
X584962Y453390D02*
D03*
X521462Y478790D02*
D03*
X1712468Y697738D02*
D03*
X1775968Y672338D02*
D03*
X1538986Y671068D02*
D03*
X1475486Y696468D02*
D03*
X1283714Y729715D02*
D03*
X1347213Y704315D02*
D03*
X1156716Y720344D02*
D03*
X1093216Y745744D02*
D03*
X902716Y729488D02*
D03*
X966216Y704088D02*
D03*
X773912Y689854D02*
D03*
X710412Y715254D02*
D03*
X521716Y718058D02*
D03*
X585216Y692658D02*
D03*
X288189Y-442557D02*
D03*
X297942Y-510249D02*
D03*
X220353Y-336041D02*
D03*
X210600Y-268349D02*
D03*
X128812Y-95883D02*
D03*
X138565Y-163575D02*
D03*
D138*
X136144Y337458D02*
D03*
Y362458D02*
D03*
X313398Y556602D02*
D03*
X293398D02*
D03*
X273398D02*
D03*
X253398D02*
D03*
X233398D02*
D03*
X213398D02*
D03*
X193398D02*
D03*
D139*
X136144Y387458D02*
D03*
D140*
X155702Y880110D02*
D03*
D141*
X181102D02*
D03*
D142*
X242764Y747802D02*
D03*
X243018Y758724D02*
D03*
X243272Y769138D02*
D03*
Y780568D02*
D03*
X253940Y780314D02*
D03*
Y747802D02*
D03*
X254194Y758978D02*
D03*
X253940Y769138D02*
D03*
X265116D02*
D03*
Y758724D02*
D03*
X265370Y747548D02*
D03*
X276038D02*
D03*
Y758724D02*
D03*
X276292Y769392D02*
D03*
Y780314D02*
D03*
X265116D02*
D03*
D143*
X58134Y317230D02*
D03*
Y259430D02*
D03*
D144*
X63034Y331580D02*
D03*
Y245080D02*
D03*
D145*
X21334Y331580D02*
D03*
Y245080D02*
D03*
D146*
X47806Y460690D02*
D03*
D147*
Y440690D02*
D03*
Y420690D02*
D03*
X22806Y460690D02*
D03*
Y440690D02*
D03*
Y420690D02*
D03*
D148*
X35306Y490690D02*
D03*
Y390690D02*
D03*
D149*
X333398Y556602D02*
D03*
D150*
X65170Y608434D02*
D03*
D151*
X115170D02*
D03*
X65170Y753434D02*
D03*
X90170D02*
D03*
X115170D02*
D03*
D152*
X33170Y678434D02*
D03*
X147170D02*
D03*
D153*
X36576Y869950D02*
D03*
X782574Y-330962D02*
D03*
D154*
X229330Y809558D02*
D03*
X324866Y760222D02*
D03*
X315722Y761859D02*
D03*
X393700Y864870D02*
D03*
X415290Y821690D02*
D03*
X393700Y605790D02*
D03*
Y519430D02*
D03*
X415290Y476250D02*
D03*
X393700Y433070D02*
D03*
X415290Y389890D02*
D03*
X393700Y346710D02*
D03*
X415290Y303530D02*
D03*
X393700Y260350D02*
D03*
X415290Y217170D02*
D03*
X393700Y173990D02*
D03*
Y87630D02*
D03*
X350520Y864870D02*
D03*
X372110Y648970D02*
D03*
X350520Y605790D02*
D03*
X372110Y562610D02*
D03*
X350520Y519430D02*
D03*
X372110Y476250D02*
D03*
X350520Y433070D02*
D03*
X372110Y389890D02*
D03*
X350520Y346710D02*
D03*
X372110Y303530D02*
D03*
X350520Y260350D02*
D03*
X372110Y217170D02*
D03*
Y130810D02*
D03*
X350520Y87630D02*
D03*
X307340Y864870D02*
D03*
X328930Y735330D02*
D03*
X307340Y605790D02*
D03*
Y519430D02*
D03*
Y346710D02*
D03*
Y260350D02*
D03*
Y173990D02*
D03*
X328930Y130810D02*
D03*
X307340Y87630D02*
D03*
X264160Y519430D02*
D03*
Y260350D02*
D03*
X285750Y217170D02*
D03*
X264160Y173990D02*
D03*
X285750Y130810D02*
D03*
X264160Y87630D02*
D03*
X242570Y562610D02*
D03*
X220980Y519430D02*
D03*
Y433070D02*
D03*
X242570Y389890D02*
D03*
X220980Y260350D02*
D03*
X242570Y217170D02*
D03*
X220980Y173990D02*
D03*
X242570Y130810D02*
D03*
X220980Y87630D02*
D03*
X177800Y692150D02*
D03*
Y605790D02*
D03*
Y519430D02*
D03*
X199390Y476250D02*
D03*
X177800Y433070D02*
D03*
X199390Y303530D02*
D03*
X177800Y260350D02*
D03*
X199390Y217170D02*
D03*
X177800Y173990D02*
D03*
X199390Y130810D02*
D03*
X177800Y87630D02*
D03*
X134620Y864870D02*
D03*
X156210Y821690D02*
D03*
Y735330D02*
D03*
X134620Y605790D02*
D03*
Y519430D02*
D03*
X156210Y476250D02*
D03*
X134620Y433070D02*
D03*
X156210Y303530D02*
D03*
Y217170D02*
D03*
X134620Y173990D02*
D03*
X156210Y130810D02*
D03*
X134620Y87630D02*
D03*
X91440Y864870D02*
D03*
Y605790D02*
D03*
X113030Y562610D02*
D03*
X91440Y346710D02*
D03*
X113030Y217170D02*
D03*
X91440Y173990D02*
D03*
X113030Y130810D02*
D03*
X69850Y735330D02*
D03*
Y648970D02*
D03*
X48260Y605790D02*
D03*
X69850Y562610D02*
D03*
Y476250D02*
D03*
Y389890D02*
D03*
X48260Y346710D02*
D03*
Y260350D02*
D03*
X69850Y217170D02*
D03*
X48260Y173990D02*
D03*
X69850Y130810D02*
D03*
X48260Y87630D02*
D03*
X220949Y800077D02*
D03*
X209642Y796147D02*
D03*
X214976Y783882D02*
D03*
X80010Y276352D02*
D03*
X88392Y280670D02*
D03*
X598752Y770890D02*
D03*
X248192Y400441D02*
D03*
X361431Y794755D02*
D03*
X614934Y815594D02*
D03*
X121920Y566674D02*
D03*
X276210Y372570D02*
D03*
X171958Y788162D02*
D03*
X313944Y648970D02*
D03*
X288290Y696722D02*
D03*
X266439Y683395D02*
D03*
X346710Y667004D02*
D03*
X284734Y601980D02*
D03*
X279654Y660146D02*
D03*
X168068Y779192D02*
D03*
X193642Y780305D02*
D03*
X369824Y800354D02*
D03*
X128016Y552704D02*
D03*
X606806Y791972D02*
D03*
X287559Y705671D02*
D03*
X156464Y769874D02*
D03*
X261874Y597916D02*
D03*
X132080Y565912D02*
D03*
X182727Y763585D02*
D03*
X203482Y596365D02*
D03*
D197*
X903616Y-160010D02*
D03*
Y-127010D02*
D03*
X952616Y-160010D02*
D03*
Y-127010D02*
D03*
X763640Y433822D02*
D03*
Y400822D02*
D03*
X714640Y433822D02*
D03*
Y400822D02*
D03*
X907680Y413014D02*
D03*
Y446014D02*
D03*
X956680Y413014D02*
D03*
Y446014D02*
D03*
X1147180Y462270D02*
D03*
Y429270D02*
D03*
X1098180Y462270D02*
D03*
Y429270D02*
D03*
X327544Y-110988D02*
D03*
Y-77988D02*
D03*
X376544Y-110988D02*
D03*
Y-77988D02*
D03*
X1475624Y-211318D02*
D03*
Y-178318D02*
D03*
X1524624Y-211318D02*
D03*
Y-178318D02*
D03*
X1335394Y-134884D02*
D03*
Y-167884D02*
D03*
X1286394Y-134884D02*
D03*
Y-167884D02*
D03*
X1087766Y-150612D02*
D03*
Y-117612D02*
D03*
X1136766Y-150612D02*
D03*
Y-117612D02*
D03*
X612786Y-314696D02*
D03*
Y-281696D02*
D03*
X661786Y-314696D02*
D03*
Y-281696D02*
D03*
X493638Y-345196D02*
D03*
Y-378196D02*
D03*
X444638Y-345196D02*
D03*
Y-378196D02*
D03*
X378344Y-451856D02*
D03*
Y-418856D02*
D03*
X427344Y-451856D02*
D03*
Y-418856D02*
D03*
X1761860Y4308D02*
D03*
Y-28692D02*
D03*
X1712860Y4308D02*
D03*
Y-28692D02*
D03*
X1472830Y-29200D02*
D03*
Y3800D02*
D03*
X1521830Y-29200D02*
D03*
Y3800D02*
D03*
X1335648Y36312D02*
D03*
Y3312D02*
D03*
X1286648Y36312D02*
D03*
Y3312D02*
D03*
X1091576Y17790D02*
D03*
Y50790D02*
D03*
X1140576Y17790D02*
D03*
Y50790D02*
D03*
X956172Y37074D02*
D03*
Y4074D02*
D03*
X907172Y37074D02*
D03*
Y4074D02*
D03*
X704226Y-4562D02*
D03*
Y28438D02*
D03*
X753226Y-4562D02*
D03*
Y28438D02*
D03*
X569584Y73904D02*
D03*
Y40904D02*
D03*
X520584Y73904D02*
D03*
Y40904D02*
D03*
X299858Y-268214D02*
D03*
Y-235214D02*
D03*
X348858Y-268214D02*
D03*
Y-235214D02*
D03*
X1762622Y197348D02*
D03*
Y164348D02*
D03*
X1713622Y197348D02*
D03*
Y164348D02*
D03*
X1469782D02*
D03*
Y197348D02*
D03*
X1518782Y164348D02*
D03*
Y197348D02*
D03*
X1332854Y228590D02*
D03*
Y195590D02*
D03*
X1283854Y228590D02*
D03*
Y195590D02*
D03*
X1092338Y215402D02*
D03*
Y248402D02*
D03*
X1141338Y215402D02*
D03*
Y248402D02*
D03*
X949706Y230104D02*
D03*
Y197104D02*
D03*
X900706Y230104D02*
D03*
Y197104D02*
D03*
X709052Y185938D02*
D03*
Y218938D02*
D03*
X758052Y185938D02*
D03*
Y218938D02*
D03*
X211771Y-90222D02*
D03*
Y-57222D02*
D03*
X260771Y-90222D02*
D03*
Y-57222D02*
D03*
X1762622Y390388D02*
D03*
Y357388D02*
D03*
X1713622Y390388D02*
D03*
Y357388D02*
D03*
X1478418Y354086D02*
D03*
Y387086D02*
D03*
X1527418Y354086D02*
D03*
Y387086D02*
D03*
X1335648Y418582D02*
D03*
Y385582D02*
D03*
X1286648Y418582D02*
D03*
Y385582D02*
D03*
X571870Y360416D02*
D03*
Y327416D02*
D03*
X522870Y360416D02*
D03*
Y327416D02*
D03*
X1762622Y577332D02*
D03*
Y544332D02*
D03*
X1713622Y577332D02*
D03*
Y544332D02*
D03*
X1527672Y580634D02*
D03*
Y547634D02*
D03*
X1478672Y580634D02*
D03*
Y547634D02*
D03*
X1288172Y578876D02*
D03*
Y611876D02*
D03*
X1337172Y578876D02*
D03*
Y611876D02*
D03*
X1140576Y622798D02*
D03*
Y589798D02*
D03*
X1091576Y622798D02*
D03*
Y589798D02*
D03*
X901584Y572526D02*
D03*
Y605526D02*
D03*
X950584Y572526D02*
D03*
Y605526D02*
D03*
X762116Y596382D02*
D03*
Y563382D02*
D03*
X713116Y596382D02*
D03*
Y563382D02*
D03*
X523378Y569732D02*
D03*
Y602732D02*
D03*
X572378Y569732D02*
D03*
Y602732D02*
D03*
X1718680Y-178318D02*
D03*
Y-211318D02*
D03*
X1669680Y-178318D02*
D03*
Y-211318D02*
D03*
M02*
