G04*
G04 #@! TF.GenerationSoftware,Altium Limited,Altium Designer,24.10.1 (45)*
G04*
G04 Layer_Color=128*
%FSLAX44Y44*%
%MOMM*%
G71*
G04*
G04 #@! TF.SameCoordinates,3551A3A7-0B07-42EA-8A9A-C0D20DE36A30*
G04*
G04*
G04 #@! TF.FilePolarity,Positive*
G04*
G01*
G75*
%ADD16C,0.1270*%
D16*
X264370Y780314D02*
X266370D01*
X265370Y779314D02*
Y781314D01*
X275546Y780314D02*
X277546D01*
X276546Y779314D02*
Y781314D01*
X275546Y769392D02*
X277546D01*
X276546Y768392D02*
Y770392D01*
X275292Y758724D02*
X277292D01*
X276292Y757724D02*
Y759724D01*
X275292Y747548D02*
X277292D01*
X276292Y746548D02*
Y748548D01*
X264624Y747548D02*
X266624D01*
X265624Y746548D02*
Y748548D01*
X264370Y758724D02*
X266370D01*
X265370Y757724D02*
Y759724D01*
X264370Y769138D02*
X266370D01*
X265370Y768138D02*
Y770138D01*
X253194Y769138D02*
X255194D01*
X254194Y768138D02*
Y770138D01*
X253448Y758978D02*
X255448D01*
X254448Y757978D02*
Y759978D01*
X253194Y747802D02*
X255194D01*
X254194Y746802D02*
Y748802D01*
X253194Y780314D02*
X255194D01*
X254194Y779314D02*
Y781314D01*
X242526Y780568D02*
X244526D01*
X243526Y779568D02*
Y781568D01*
X242526Y769138D02*
X244526D01*
X243526Y768138D02*
Y770138D01*
X242272Y758724D02*
X244272D01*
X243272Y757724D02*
Y759724D01*
X242018Y747802D02*
X244018D01*
X243018Y746802D02*
Y748802D01*
X329398Y556602D02*
X337398D01*
X333398Y552602D02*
Y560602D01*
X309398Y556602D02*
X317398D01*
X313398Y552602D02*
Y560602D01*
X289398Y556602D02*
X297398D01*
X293398Y552602D02*
Y560602D01*
X269398Y556602D02*
X277398D01*
X273398Y552602D02*
Y560602D01*
X249398Y556602D02*
X257398D01*
X253398Y552602D02*
Y560602D01*
X229398Y556602D02*
X237398D01*
X233398Y552602D02*
Y560602D01*
X209398Y556602D02*
X217398D01*
X213398Y552602D02*
Y560602D01*
X189398Y556602D02*
X197398D01*
X193398Y552602D02*
Y560602D01*
X18796Y869950D02*
X54356D01*
X36576Y852170D02*
Y887730D01*
X764794Y-330962D02*
X800354D01*
X782574Y-348742D02*
Y-313182D01*
X282942Y-510249D02*
X312942D01*
X297942Y-525249D02*
Y-495249D01*
X273189Y-442557D02*
X303189D01*
X288189Y-457557D02*
Y-427557D01*
X506716Y192532D02*
X536716D01*
X521716Y177532D02*
Y207532D01*
X570216Y167132D02*
X600216D01*
X585216Y152132D02*
Y182132D01*
X302246Y16002D02*
X332246D01*
X317246Y1002D02*
Y31002D01*
X365746Y-9398D02*
X395746D01*
X380746Y-24398D02*
Y5602D01*
X123565Y-163575D02*
X153565D01*
X138565Y-178575D02*
Y-148575D01*
X113812Y-95883D02*
X143812D01*
X128812Y-110883D02*
Y-80883D01*
X423373Y-243096D02*
X453373D01*
X438373Y-258096D02*
Y-228096D01*
X486874Y-268496D02*
X516874D01*
X501874Y-283496D02*
Y-253496D01*
X595870Y-163322D02*
X625870D01*
X610870Y-178322D02*
Y-148322D01*
X659370Y-188722D02*
X689370D01*
X674370Y-203722D02*
Y-173722D01*
X885914Y-34026D02*
X915914D01*
X900914Y-49026D02*
Y-19026D01*
X949414Y-59426D02*
X979414D01*
X964414Y-74426D02*
Y-44426D01*
X1076946Y-17272D02*
X1106946D01*
X1091946Y-32272D02*
Y-2272D01*
X1140446Y-42672D02*
X1170446D01*
X1155446Y-57672D02*
Y-27672D01*
X1267700Y-33274D02*
X1297700D01*
X1282700Y-48274D02*
Y-18274D01*
X1331200Y-58674D02*
X1361200D01*
X1346200Y-73674D02*
Y-43674D01*
X1695544Y124725D02*
X1725544D01*
X1710544Y109725D02*
Y139725D01*
X1759044Y99325D02*
X1789044D01*
X1774044Y84325D02*
Y114325D01*
X1696706Y506730D02*
X1726706D01*
X1711706Y491730D02*
Y521730D01*
X1760206Y481330D02*
X1790206D01*
X1775206Y466330D02*
Y496330D01*
X1697468Y697738D02*
X1727468D01*
X1712468Y682738D02*
Y712738D01*
X1760968Y672338D02*
X1790968D01*
X1775968Y657338D02*
Y687338D01*
X1460486Y696468D02*
X1490486D01*
X1475486Y681468D02*
Y711468D01*
X1523986Y671068D02*
X1553986D01*
X1538986Y656068D02*
Y686068D01*
X1268714Y729715D02*
X1298714D01*
X1283714Y714715D02*
Y744715D01*
X1332213Y704315D02*
X1362213D01*
X1347213Y689315D02*
Y719315D01*
X1078216Y745744D02*
X1108216D01*
X1093216Y730744D02*
Y760744D01*
X1141716Y720344D02*
X1171716D01*
X1156716Y705344D02*
Y735344D01*
X887716Y729488D02*
X917716D01*
X902716Y714488D02*
Y744488D01*
X951216Y704088D02*
X981216D01*
X966216Y689088D02*
Y719088D01*
X695412Y715254D02*
X725412D01*
X710412Y700254D02*
Y730254D01*
X758912Y689854D02*
X788912D01*
X773912Y674854D02*
Y704854D01*
X506462Y478790D02*
X536462D01*
X521462Y463790D02*
Y493790D01*
X569962Y453390D02*
X599962D01*
X584962Y438390D02*
Y468390D01*
X59162Y608942D02*
X70162D01*
X64662Y603442D02*
Y614442D01*
X109162Y608942D02*
X120162D01*
X114662Y603442D02*
Y614442D01*
X59162Y753942D02*
X70162D01*
X64662Y748442D02*
Y759442D01*
X84162Y753942D02*
X95162D01*
X89662Y748442D02*
Y759442D01*
X109162Y753942D02*
X120162D01*
X114662Y748442D02*
Y759442D01*
X22662Y678942D02*
X42662D01*
X32662Y668942D02*
Y688942D01*
X136662Y678942D02*
X156662D01*
X146662Y668942D02*
Y688942D01*
X145776Y876046D02*
X155976D01*
X150876Y870946D02*
Y881146D01*
X171176Y876046D02*
X181376D01*
X176276Y870946D02*
Y881146D01*
X1711419Y-91177D02*
X1741419D01*
X1726419Y-106177D02*
Y-76177D01*
X1647919Y-65777D02*
X1677919D01*
X1662919Y-80777D02*
Y-50777D01*
X1520918Y-91177D02*
X1550918D01*
X1535918Y-106177D02*
Y-76177D01*
X1457418Y-65777D02*
X1487418D01*
X1472418Y-80777D02*
Y-50777D01*
X1520918Y99325D02*
X1550918D01*
X1535918Y84325D02*
Y114325D01*
X1457418Y124725D02*
X1487418D01*
X1472418Y109725D02*
Y139725D01*
X1332213Y132811D02*
X1362213D01*
X1347213Y117811D02*
Y147811D01*
X1268714Y158211D02*
X1298714D01*
X1283714Y143211D02*
Y173211D01*
X1141208Y147320D02*
X1171208D01*
X1156208Y132320D02*
Y162320D01*
X1077708Y172720D02*
X1107708D01*
X1092708Y157720D02*
Y187720D01*
X951210Y132811D02*
X981210D01*
X966210Y117811D02*
Y147811D01*
X887710Y158211D02*
X917710D01*
X902710Y143211D02*
Y173211D01*
X761478Y120396D02*
X791478D01*
X776478Y105396D02*
Y135396D01*
X697978Y145796D02*
X727978D01*
X712978Y130796D02*
Y160796D01*
X1759044Y289826D02*
X1789044D01*
X1774044Y274826D02*
Y304826D01*
X1695544Y315226D02*
X1725544D01*
X1710544Y300226D02*
Y330226D01*
X1520918Y289826D02*
X1550918D01*
X1535918Y274826D02*
Y304826D01*
X1457418Y315226D02*
X1487418D01*
X1472418Y300226D02*
Y330226D01*
X1330417Y321577D02*
X1360417D01*
X1345417Y306577D02*
Y336577D01*
X1266917Y346977D02*
X1296917D01*
X1281917Y331977D02*
Y361977D01*
X1139915Y337553D02*
X1169915D01*
X1154915Y322553D02*
Y352553D01*
X1076415Y362953D02*
X1106415D01*
X1091415Y347953D02*
Y377953D01*
X949414Y321577D02*
X979414D01*
X964414Y306577D02*
Y336577D01*
X885914Y346977D02*
X915914D01*
X900914Y331977D02*
Y361977D01*
X759700Y310388D02*
X789700D01*
X774700Y295388D02*
Y325388D01*
X696200Y335788D02*
X726200D01*
X711200Y320788D02*
Y350788D01*
X1522208Y481330D02*
X1552208D01*
X1537208Y466330D02*
Y496330D01*
X1458708Y506730D02*
X1488708D01*
X1473708Y491730D02*
Y521730D01*
X1332470Y514350D02*
X1362470D01*
X1347470Y499350D02*
Y529350D01*
X1268970Y539750D02*
X1298970D01*
X1283970Y524750D02*
Y554750D01*
X1142732Y529590D02*
X1172732D01*
X1157732Y514590D02*
Y544590D01*
X1079232Y554990D02*
X1109232D01*
X1094232Y539990D02*
Y569990D01*
X951210Y513813D02*
X981210D01*
X966210Y498813D02*
Y528813D01*
X887710Y539213D02*
X917710D01*
X902710Y524213D02*
Y554213D01*
X760709Y501113D02*
X790709D01*
X775709Y486113D02*
Y516113D01*
X697209Y526513D02*
X727209D01*
X712209Y511513D02*
Y541513D01*
X570216Y692658D02*
X600216D01*
X585216Y677658D02*
Y707658D01*
X506716Y718058D02*
X536716D01*
X521716Y703058D02*
Y733058D01*
X195600Y-268349D02*
X225600D01*
X210600Y-283349D02*
Y-253349D01*
X205353Y-336041D02*
X235353D01*
X220353Y-351041D02*
Y-321041D01*
X267602Y407416D02*
X269602D01*
X268602Y406416D02*
Y408416D01*
X275352Y407416D02*
X277352D01*
X276352Y406416D02*
Y408416D01*
X283102Y407416D02*
X285102D01*
X284102Y406416D02*
Y408416D01*
X275352Y399666D02*
X277352D01*
X276352Y398666D02*
Y400666D01*
X275352Y415166D02*
X277352D01*
X276352Y414166D02*
Y416166D01*
X132144Y337458D02*
X140144D01*
X136144Y333458D02*
Y341458D01*
X132144Y362458D02*
X140144D01*
X136144Y358458D02*
Y366458D01*
X132144Y387458D02*
X140144D01*
X136144Y383458D02*
Y391458D01*
X18334Y245080D02*
X24334D01*
X21334Y242080D02*
Y248080D01*
X18334Y331580D02*
X24334D01*
X21334Y328580D02*
Y334580D01*
X60034Y245080D02*
X66034D01*
X63034Y242080D02*
Y248080D01*
X60034Y331580D02*
X66034D01*
X63034Y328580D02*
Y334580D01*
X55134Y259430D02*
X61134D01*
X58134Y256430D02*
Y262430D01*
X55134Y317230D02*
X61134D01*
X58134Y314230D02*
Y320230D01*
X43156Y460690D02*
X52456D01*
X47806Y456040D02*
Y465340D01*
X43156Y440690D02*
X52456D01*
X47806Y436040D02*
Y445340D01*
X43156Y420690D02*
X52456D01*
X47806Y416040D02*
Y425340D01*
X18156Y460690D02*
X27456D01*
X22806Y456040D02*
Y465340D01*
X18156Y440690D02*
X27456D01*
X22806Y436040D02*
Y445340D01*
X18156Y420690D02*
X27456D01*
X22806Y416040D02*
Y425340D01*
X27756Y490690D02*
X42856D01*
X35306Y483140D02*
Y498240D01*
X27756Y390690D02*
X42856D01*
X35306Y383140D02*
Y398240D01*
X1839849Y775970D02*
X1843151D01*
X1841500Y774319D02*
Y777621D01*
X1839849Y699770D02*
X1843151D01*
X1841500Y698119D02*
Y701421D01*
X1858899Y661670D02*
X1862201D01*
X1860550Y660019D02*
Y663321D01*
X1839849Y623570D02*
X1843151D01*
X1841500Y621919D02*
Y625221D01*
X1858899Y585470D02*
X1862201D01*
X1860550Y583819D02*
Y587121D01*
X1839849Y547370D02*
X1843151D01*
X1841500Y545719D02*
Y549021D01*
X1858899Y509270D02*
X1862201D01*
X1860550Y507619D02*
Y510921D01*
X1839849Y471170D02*
X1843151D01*
X1841500Y469519D02*
Y472821D01*
X1858899Y433070D02*
X1862201D01*
X1860550Y431419D02*
Y434721D01*
X1839849Y394970D02*
X1843151D01*
X1841500Y393319D02*
Y396621D01*
X1858899Y356870D02*
X1862201D01*
X1860550Y355219D02*
Y358521D01*
X1839849Y318770D02*
X1843151D01*
X1841500Y317119D02*
Y320421D01*
X1858899Y280670D02*
X1862201D01*
X1860550Y279019D02*
Y282321D01*
X1839849Y242570D02*
X1843151D01*
X1841500Y240919D02*
Y244221D01*
X1858899Y204470D02*
X1862201D01*
X1860550Y202819D02*
Y206121D01*
X1839849Y166370D02*
X1843151D01*
X1841500Y164719D02*
Y168021D01*
X1858899Y128270D02*
X1862201D01*
X1860550Y126619D02*
Y129921D01*
X1839849Y90170D02*
X1843151D01*
X1841500Y88519D02*
Y91821D01*
X1858899Y52070D02*
X1862201D01*
X1860550Y50419D02*
Y53721D01*
X1839849Y13970D02*
X1843151D01*
X1841500Y12319D02*
Y15621D01*
X1820799Y814070D02*
X1824101D01*
X1822450Y812419D02*
Y815721D01*
X1801749Y775970D02*
X1805051D01*
X1803400Y774319D02*
Y777621D01*
X1820799Y737870D02*
X1824101D01*
X1822450Y736219D02*
Y739521D01*
X1801749Y699770D02*
X1805051D01*
X1803400Y698119D02*
Y701421D01*
X1820799Y585470D02*
X1824101D01*
X1822450Y583819D02*
Y587121D01*
X1820799Y509270D02*
X1824101D01*
X1822450Y507619D02*
Y510921D01*
X1820799Y433070D02*
X1824101D01*
X1822450Y431419D02*
Y434721D01*
X1820799Y356870D02*
X1824101D01*
X1822450Y355219D02*
Y358521D01*
X1820799Y280670D02*
X1824101D01*
X1822450Y279019D02*
Y282321D01*
X1820799Y204470D02*
X1824101D01*
X1822450Y202819D02*
Y206121D01*
X1820799Y128270D02*
X1824101D01*
X1822450Y126619D02*
Y129921D01*
X1820799Y52070D02*
X1824101D01*
X1822450Y50419D02*
Y53721D01*
X1801749Y13970D02*
X1805051D01*
X1803400Y12319D02*
Y15621D01*
X1782699Y814070D02*
X1786001D01*
X1784350Y812419D02*
Y815721D01*
X1763649Y775970D02*
X1766951D01*
X1765300Y774319D02*
Y777621D01*
X1782699Y737870D02*
X1786001D01*
X1784350Y736219D02*
Y739521D01*
X1763649Y699770D02*
X1766951D01*
X1765300Y698119D02*
Y701421D01*
X1782699Y585470D02*
X1786001D01*
X1784350Y583819D02*
Y587121D01*
X1763649Y547370D02*
X1766951D01*
X1765300Y545719D02*
Y549021D01*
X1782699Y509270D02*
X1786001D01*
X1784350Y507619D02*
Y510921D01*
X1782699Y433070D02*
X1786001D01*
X1784350Y431419D02*
Y434721D01*
X1763649Y394970D02*
X1766951D01*
X1765300Y393319D02*
Y396621D01*
X1782699Y356870D02*
X1786001D01*
X1784350Y355219D02*
Y358521D01*
X1763649Y318770D02*
X1766951D01*
X1765300Y317119D02*
Y320421D01*
X1763649Y242570D02*
X1766951D01*
X1765300Y240919D02*
Y244221D01*
X1763649Y166370D02*
X1766951D01*
X1765300Y164719D02*
Y168021D01*
X1782699Y128270D02*
X1786001D01*
X1784350Y126619D02*
Y129921D01*
X1782699Y52070D02*
X1786001D01*
X1784350Y50419D02*
Y53721D01*
X1782699Y-24130D02*
X1786001D01*
X1784350Y-25781D02*
Y-22479D01*
X1763649Y-62230D02*
X1766951D01*
X1765300Y-63881D02*
Y-60579D01*
X1782699Y-100330D02*
X1786001D01*
X1784350Y-101981D02*
Y-98679D01*
X1763649Y-138430D02*
X1766951D01*
X1765300Y-140081D02*
Y-136779D01*
X1782699Y-176530D02*
X1786001D01*
X1784350Y-178181D02*
Y-174879D01*
X1763649Y-214630D02*
X1766951D01*
X1765300Y-216281D02*
Y-212979D01*
X1744599Y814070D02*
X1747901D01*
X1746250Y812419D02*
Y815721D01*
X1725549Y775970D02*
X1728851D01*
X1727200Y774319D02*
Y777621D01*
X1744599Y737870D02*
X1747901D01*
X1746250Y736219D02*
Y739521D01*
X1744599Y509270D02*
X1747901D01*
X1746250Y507619D02*
Y510921D01*
X1744599Y356870D02*
X1747901D01*
X1746250Y355219D02*
Y358521D01*
X1725549Y166370D02*
X1728851D01*
X1727200Y164719D02*
Y168021D01*
X1744599Y128270D02*
X1747901D01*
X1746250Y126619D02*
Y129921D01*
X1744599Y-24130D02*
X1747901D01*
X1746250Y-25781D02*
Y-22479D01*
X1725549Y-62230D02*
X1728851D01*
X1727200Y-63881D02*
Y-60579D01*
X1725549Y-138430D02*
X1728851D01*
X1727200Y-140081D02*
Y-136779D01*
X1744599Y-176530D02*
X1747901D01*
X1746250Y-178181D02*
Y-174879D01*
X1725549Y-214630D02*
X1728851D01*
X1727200Y-216281D02*
Y-212979D01*
X1706499Y814070D02*
X1709801D01*
X1708150Y812419D02*
Y815721D01*
X1687449Y775970D02*
X1690751D01*
X1689100Y774319D02*
Y777621D01*
X1706499Y737870D02*
X1709801D01*
X1708150Y736219D02*
Y739521D01*
X1706499Y661670D02*
X1709801D01*
X1708150Y660019D02*
Y663321D01*
X1687449Y547370D02*
X1690751D01*
X1689100Y545719D02*
Y549021D01*
X1687449Y471170D02*
X1690751D01*
X1689100Y469519D02*
Y472821D01*
X1706499Y280670D02*
X1709801D01*
X1708150Y279019D02*
Y282321D01*
X1687449Y242570D02*
X1690751D01*
X1689100Y240919D02*
Y244221D01*
X1687449Y166370D02*
X1690751D01*
X1689100Y164719D02*
Y168021D01*
X1687449Y90170D02*
X1690751D01*
X1689100Y88519D02*
Y91821D01*
X1687449Y-62230D02*
X1690751D01*
X1689100Y-63881D02*
Y-60579D01*
X1706499Y-176530D02*
X1709801D01*
X1708150Y-178181D02*
Y-174879D01*
X1687449Y-214630D02*
X1690751D01*
X1689100Y-216281D02*
Y-212979D01*
X1668399Y814070D02*
X1671701D01*
X1670050Y812419D02*
Y815721D01*
X1649349Y775970D02*
X1652651D01*
X1651000Y774319D02*
Y777621D01*
X1668399Y737870D02*
X1671701D01*
X1670050Y736219D02*
Y739521D01*
X1649349Y699770D02*
X1652651D01*
X1651000Y698119D02*
Y701421D01*
X1668399Y661670D02*
X1671701D01*
X1670050Y660019D02*
Y663321D01*
X1649349Y547370D02*
X1652651D01*
X1651000Y545719D02*
Y549021D01*
X1649349Y471170D02*
X1652651D01*
X1651000Y469519D02*
Y472821D01*
X1668399Y433070D02*
X1671701D01*
X1670050Y431419D02*
Y434721D01*
X1649349Y318770D02*
X1652651D01*
X1651000Y317119D02*
Y320421D01*
X1668399Y280670D02*
X1671701D01*
X1670050Y279019D02*
Y282321D01*
X1649349Y242570D02*
X1652651D01*
X1651000Y240919D02*
Y244221D01*
X1649349Y166370D02*
X1652651D01*
X1651000Y164719D02*
Y168021D01*
X1649349Y90170D02*
X1652651D01*
X1651000Y88519D02*
Y91821D01*
X1668399Y52070D02*
X1671701D01*
X1670050Y50419D02*
Y53721D01*
X1649349Y-138430D02*
X1652651D01*
X1651000Y-140081D02*
Y-136779D01*
X1630299Y814070D02*
X1633601D01*
X1631950Y812419D02*
Y815721D01*
X1611249Y775970D02*
X1614551D01*
X1612900Y774319D02*
Y777621D01*
X1630299Y737870D02*
X1633601D01*
X1631950Y736219D02*
Y739521D01*
X1611249Y699770D02*
X1614551D01*
X1612900Y698119D02*
Y701421D01*
X1630299Y661670D02*
X1633601D01*
X1631950Y660019D02*
Y663321D01*
X1611249Y547370D02*
X1614551D01*
X1612900Y545719D02*
Y549021D01*
X1630299Y509270D02*
X1633601D01*
X1631950Y507619D02*
Y510921D01*
X1611249Y471170D02*
X1614551D01*
X1612900Y469519D02*
Y472821D01*
X1630299Y433070D02*
X1633601D01*
X1631950Y431419D02*
Y434721D01*
X1611249Y318770D02*
X1614551D01*
X1612900Y317119D02*
Y320421D01*
X1630299Y280670D02*
X1633601D01*
X1631950Y279019D02*
Y282321D01*
X1611249Y242570D02*
X1614551D01*
X1612900Y240919D02*
Y244221D01*
X1611249Y166370D02*
X1614551D01*
X1612900Y164719D02*
Y168021D01*
X1630299Y128270D02*
X1633601D01*
X1631950Y126619D02*
Y129921D01*
X1611249Y90170D02*
X1614551D01*
X1612900Y88519D02*
Y91821D01*
X1630299Y52070D02*
X1633601D01*
X1631950Y50419D02*
Y53721D01*
X1611249Y-62230D02*
X1614551D01*
X1612900Y-63881D02*
Y-60579D01*
X1611249Y-138430D02*
X1614551D01*
X1612900Y-140081D02*
Y-136779D01*
X1573149Y775970D02*
X1576451D01*
X1574800Y774319D02*
Y777621D01*
X1592199Y737870D02*
X1595501D01*
X1593850Y736219D02*
Y739521D01*
X1573149Y699770D02*
X1576451D01*
X1574800Y698119D02*
Y701421D01*
X1592199Y661670D02*
X1595501D01*
X1593850Y660019D02*
Y663321D01*
X1573149Y623570D02*
X1576451D01*
X1574800Y621919D02*
Y625221D01*
X1592199Y509270D02*
X1595501D01*
X1593850Y507619D02*
Y510921D01*
X1592199Y433070D02*
X1595501D01*
X1593850Y431419D02*
Y434721D01*
X1592199Y280670D02*
X1595501D01*
X1593850Y279019D02*
Y282321D01*
X1592199Y128270D02*
X1595501D01*
X1593850Y126619D02*
Y129921D01*
X1592199Y52070D02*
X1595501D01*
X1593850Y50419D02*
Y53721D01*
X1592199Y-100330D02*
X1595501D01*
X1593850Y-101981D02*
Y-98679D01*
X1573149Y-138430D02*
X1576451D01*
X1574800Y-140081D02*
Y-136779D01*
X1592199Y-176530D02*
X1595501D01*
X1593850Y-178181D02*
Y-174879D01*
X1554099Y814070D02*
X1557401D01*
X1555750Y812419D02*
Y815721D01*
X1535049Y775970D02*
X1538351D01*
X1536700Y774319D02*
Y777621D01*
X1554099Y737870D02*
X1557401D01*
X1555750Y736219D02*
Y739521D01*
X1535049Y699770D02*
X1538351D01*
X1536700Y698119D02*
Y701421D01*
X1535049Y623570D02*
X1538351D01*
X1536700Y621919D02*
Y625221D01*
X1535049Y547370D02*
X1538351D01*
X1536700Y545719D02*
Y549021D01*
X1554099Y509270D02*
X1557401D01*
X1555750Y507619D02*
Y510921D01*
X1554099Y433070D02*
X1557401D01*
X1555750Y431419D02*
Y434721D01*
X1535049Y318770D02*
X1538351D01*
X1536700Y317119D02*
Y320421D01*
X1535049Y242570D02*
X1538351D01*
X1536700Y240919D02*
Y244221D01*
X1535049Y166370D02*
X1538351D01*
X1536700Y164719D02*
Y168021D01*
X1554099Y128270D02*
X1557401D01*
X1555750Y126619D02*
Y129921D01*
X1554099Y52070D02*
X1557401D01*
X1555750Y50419D02*
Y53721D01*
X1535049Y13970D02*
X1538351D01*
X1536700Y12319D02*
Y15621D01*
X1554099Y-24130D02*
X1557401D01*
X1555750Y-25781D02*
Y-22479D01*
X1535049Y-62230D02*
X1538351D01*
X1536700Y-63881D02*
Y-60579D01*
X1535049Y-138430D02*
X1538351D01*
X1536700Y-140081D02*
Y-136779D01*
X1554099Y-176530D02*
X1557401D01*
X1555750Y-178181D02*
Y-174879D01*
X1515999Y814070D02*
X1519301D01*
X1517650Y812419D02*
Y815721D01*
X1496949Y775970D02*
X1500251D01*
X1498600Y774319D02*
Y777621D01*
X1515999Y737870D02*
X1519301D01*
X1517650Y736219D02*
Y739521D01*
X1496949Y699770D02*
X1500251D01*
X1498600Y698119D02*
Y701421D01*
X1515999Y509270D02*
X1519301D01*
X1517650Y507619D02*
Y510921D01*
X1515999Y433070D02*
X1519301D01*
X1517650Y431419D02*
Y434721D01*
X1496949Y318770D02*
X1500251D01*
X1498600Y317119D02*
Y320421D01*
X1515999Y204470D02*
X1519301D01*
X1517650Y202819D02*
Y206121D01*
X1496949Y166370D02*
X1500251D01*
X1498600Y164719D02*
Y168021D01*
X1515999Y128270D02*
X1519301D01*
X1517650Y126619D02*
Y129921D01*
X1515999Y52070D02*
X1519301D01*
X1517650Y50419D02*
Y53721D01*
X1515999Y-24130D02*
X1519301D01*
X1517650Y-25781D02*
Y-22479D01*
X1496949Y-62230D02*
X1500251D01*
X1498600Y-63881D02*
Y-60579D01*
X1515999Y-176530D02*
X1519301D01*
X1517650Y-178181D02*
Y-174879D01*
X1477899Y814070D02*
X1481201D01*
X1479550Y812419D02*
Y815721D01*
X1458849Y775970D02*
X1462151D01*
X1460500Y774319D02*
Y777621D01*
X1477899Y737870D02*
X1481201D01*
X1479550Y736219D02*
Y739521D01*
X1477899Y661670D02*
X1481201D01*
X1479550Y660019D02*
Y663321D01*
X1458849Y623570D02*
X1462151D01*
X1460500Y621919D02*
Y625221D01*
X1458849Y547370D02*
X1462151D01*
X1460500Y545719D02*
Y549021D01*
X1458849Y471170D02*
X1462151D01*
X1460500Y469519D02*
Y472821D01*
X1458849Y242570D02*
X1462151D01*
X1460500Y240919D02*
Y244221D01*
X1458849Y90170D02*
X1462151D01*
X1460500Y88519D02*
Y91821D01*
X1477899Y52070D02*
X1481201D01*
X1479550Y50419D02*
Y53721D01*
X1458849Y13970D02*
X1462151D01*
X1460500Y12319D02*
Y15621D01*
X1477899Y-24130D02*
X1481201D01*
X1479550Y-25781D02*
Y-22479D01*
X1458849Y-138430D02*
X1462151D01*
X1460500Y-140081D02*
Y-136779D01*
X1439799Y814070D02*
X1443101D01*
X1441450Y812419D02*
Y815721D01*
X1439799Y737870D02*
X1443101D01*
X1441450Y736219D02*
Y739521D01*
X1420749Y699770D02*
X1424051D01*
X1422400Y698119D02*
Y701421D01*
X1420749Y623570D02*
X1424051D01*
X1422400Y621919D02*
Y625221D01*
X1420749Y471170D02*
X1424051D01*
X1422400Y469519D02*
Y472821D01*
X1439799Y433070D02*
X1443101D01*
X1441450Y431419D02*
Y434721D01*
X1420749Y318770D02*
X1424051D01*
X1422400Y317119D02*
Y320421D01*
X1420749Y242570D02*
X1424051D01*
X1422400Y240919D02*
Y244221D01*
X1439799Y204470D02*
X1443101D01*
X1441450Y202819D02*
Y206121D01*
X1420749Y90170D02*
X1424051D01*
X1422400Y88519D02*
Y91821D01*
X1439799Y52070D02*
X1443101D01*
X1441450Y50419D02*
Y53721D01*
X1420749Y13970D02*
X1424051D01*
X1422400Y12319D02*
Y15621D01*
X1420749Y-62230D02*
X1424051D01*
X1422400Y-63881D02*
Y-60579D01*
X1420749Y-138430D02*
X1424051D01*
X1422400Y-140081D02*
Y-136779D01*
X1401699Y814070D02*
X1405001D01*
X1403350Y812419D02*
Y815721D01*
X1382649Y775970D02*
X1385951D01*
X1384300Y774319D02*
Y777621D01*
X1401699Y737870D02*
X1405001D01*
X1403350Y736219D02*
Y739521D01*
X1401699Y661670D02*
X1405001D01*
X1403350Y660019D02*
Y663321D01*
X1382649Y623570D02*
X1385951D01*
X1384300Y621919D02*
Y625221D01*
X1401699Y585470D02*
X1405001D01*
X1403350Y583819D02*
Y587121D01*
X1382649Y547370D02*
X1385951D01*
X1384300Y545719D02*
Y549021D01*
X1401699Y509270D02*
X1405001D01*
X1403350Y507619D02*
Y510921D01*
X1382649Y471170D02*
X1385951D01*
X1384300Y469519D02*
Y472821D01*
X1401699Y433070D02*
X1405001D01*
X1403350Y431419D02*
Y434721D01*
X1401699Y356870D02*
X1405001D01*
X1403350Y355219D02*
Y358521D01*
X1401699Y280670D02*
X1405001D01*
X1403350Y279019D02*
Y282321D01*
X1401699Y128270D02*
X1405001D01*
X1403350Y126619D02*
Y129921D01*
X1382649Y90170D02*
X1385951D01*
X1384300Y88519D02*
Y91821D01*
X1401699Y52070D02*
X1405001D01*
X1403350Y50419D02*
Y53721D01*
X1401699Y-24130D02*
X1405001D01*
X1403350Y-25781D02*
Y-22479D01*
X1401699Y-100330D02*
X1405001D01*
X1403350Y-101981D02*
Y-98679D01*
X1382649Y-138430D02*
X1385951D01*
X1384300Y-140081D02*
Y-136779D01*
X1401699Y-176530D02*
X1405001D01*
X1403350Y-178181D02*
Y-174879D01*
X1382649Y-214630D02*
X1385951D01*
X1384300Y-216281D02*
Y-212979D01*
X1363599Y814070D02*
X1366901D01*
X1365250Y812419D02*
Y815721D01*
X1344549Y775970D02*
X1347851D01*
X1346200Y774319D02*
Y777621D01*
X1363599Y737870D02*
X1366901D01*
X1365250Y736219D02*
Y739521D01*
X1363599Y661670D02*
X1366901D01*
X1365250Y660019D02*
Y663321D01*
X1363599Y585470D02*
X1366901D01*
X1365250Y583819D02*
Y587121D01*
X1344549Y547370D02*
X1347851D01*
X1346200Y545719D02*
Y549021D01*
X1344549Y471170D02*
X1347851D01*
X1346200Y469519D02*
Y472821D01*
X1363599Y433070D02*
X1366901D01*
X1365250Y431419D02*
Y434721D01*
X1363599Y356870D02*
X1366901D01*
X1365250Y355219D02*
Y358521D01*
X1363599Y280670D02*
X1366901D01*
X1365250Y279019D02*
Y282321D01*
X1344549Y242570D02*
X1347851D01*
X1346200Y240919D02*
Y244221D01*
X1344549Y166370D02*
X1347851D01*
X1346200Y164719D02*
Y168021D01*
X1344549Y90170D02*
X1347851D01*
X1346200Y88519D02*
Y91821D01*
X1344549Y13970D02*
X1347851D01*
X1346200Y12319D02*
Y15621D01*
X1363599Y-24130D02*
X1366901D01*
X1365250Y-25781D02*
Y-22479D01*
X1363599Y-100330D02*
X1366901D01*
X1365250Y-101981D02*
Y-98679D01*
X1344549Y-138430D02*
X1347851D01*
X1346200Y-140081D02*
Y-136779D01*
X1363599Y-176530D02*
X1366901D01*
X1365250Y-178181D02*
Y-174879D01*
X1344549Y-214630D02*
X1347851D01*
X1346200Y-216281D02*
Y-212979D01*
X1325499Y814070D02*
X1328801D01*
X1327150Y812419D02*
Y815721D01*
X1306449Y775970D02*
X1309751D01*
X1308100Y774319D02*
Y777621D01*
X1325499Y737870D02*
X1328801D01*
X1327150Y736219D02*
Y739521D01*
X1325499Y585470D02*
X1328801D01*
X1327150Y583819D02*
Y587121D01*
X1325499Y509270D02*
X1328801D01*
X1327150Y507619D02*
Y510921D01*
X1325499Y433070D02*
X1328801D01*
X1327150Y431419D02*
Y434721D01*
X1306449Y394970D02*
X1309751D01*
X1308100Y393319D02*
Y396621D01*
X1325499Y356870D02*
X1328801D01*
X1327150Y355219D02*
Y358521D01*
X1325499Y204470D02*
X1328801D01*
X1327150Y202819D02*
Y206121D01*
X1306449Y166370D02*
X1309751D01*
X1308100Y164719D02*
Y168021D01*
X1325499Y128270D02*
X1328801D01*
X1327150Y126619D02*
Y129921D01*
X1325499Y52070D02*
X1328801D01*
X1327150Y50419D02*
Y53721D01*
X1306449Y13970D02*
X1309751D01*
X1308100Y12319D02*
Y15621D01*
X1325499Y-24130D02*
X1328801D01*
X1327150Y-25781D02*
Y-22479D01*
X1306449Y-138430D02*
X1309751D01*
X1308100Y-140081D02*
Y-136779D01*
X1287399Y814070D02*
X1290701D01*
X1289050Y812419D02*
Y815721D01*
X1268349Y775970D02*
X1271651D01*
X1270000Y774319D02*
Y777621D01*
X1268349Y699770D02*
X1271651D01*
X1270000Y698119D02*
Y701421D01*
X1287399Y585470D02*
X1290701D01*
X1289050Y583819D02*
Y587121D01*
X1268349Y471170D02*
X1271651D01*
X1270000Y469519D02*
Y472821D01*
X1268349Y394970D02*
X1271651D01*
X1270000Y393319D02*
Y396621D01*
X1268349Y318770D02*
X1271651D01*
X1270000Y317119D02*
Y320421D01*
X1268349Y242570D02*
X1271651D01*
X1270000Y240919D02*
Y244221D01*
X1287399Y204470D02*
X1290701D01*
X1289050Y202819D02*
Y206121D01*
X1287399Y128270D02*
X1290701D01*
X1289050Y126619D02*
Y129921D01*
X1268349Y-62230D02*
X1271651D01*
X1270000Y-63881D02*
Y-60579D01*
X1268349Y-138430D02*
X1271651D01*
X1270000Y-140081D02*
Y-136779D01*
X1287399Y-176530D02*
X1290701D01*
X1289050Y-178181D02*
Y-174879D01*
X1268349Y-214630D02*
X1271651D01*
X1270000Y-216281D02*
Y-212979D01*
X1249299Y814070D02*
X1252601D01*
X1250950Y812419D02*
Y815721D01*
X1230249Y775970D02*
X1233551D01*
X1231900Y774319D02*
Y777621D01*
X1230249Y699770D02*
X1233551D01*
X1231900Y698119D02*
Y701421D01*
X1249299Y661670D02*
X1252601D01*
X1250950Y660019D02*
Y663321D01*
X1230249Y547370D02*
X1233551D01*
X1231900Y545719D02*
Y549021D01*
X1249299Y509270D02*
X1252601D01*
X1250950Y507619D02*
Y510921D01*
X1230249Y471170D02*
X1233551D01*
X1231900Y469519D02*
Y472821D01*
X1230249Y318770D02*
X1233551D01*
X1231900Y317119D02*
Y320421D01*
X1249299Y280670D02*
X1252601D01*
X1250950Y279019D02*
Y282321D01*
X1230249Y242570D02*
X1233551D01*
X1231900Y240919D02*
Y244221D01*
X1249299Y204470D02*
X1252601D01*
X1250950Y202819D02*
Y206121D01*
X1230249Y166370D02*
X1233551D01*
X1231900Y164719D02*
Y168021D01*
X1230249Y90170D02*
X1233551D01*
X1231900Y88519D02*
Y91821D01*
X1249299Y52070D02*
X1252601D01*
X1250950Y50419D02*
Y53721D01*
X1230249Y-62230D02*
X1233551D01*
X1231900Y-63881D02*
Y-60579D01*
X1249299Y-100330D02*
X1252601D01*
X1250950Y-101981D02*
Y-98679D01*
X1230249Y-138430D02*
X1233551D01*
X1231900Y-140081D02*
Y-136779D01*
X1249299Y-176530D02*
X1252601D01*
X1250950Y-178181D02*
Y-174879D01*
X1230249Y-214630D02*
X1233551D01*
X1231900Y-216281D02*
Y-212979D01*
X1211199Y814070D02*
X1214501D01*
X1212850Y812419D02*
Y815721D01*
X1192149Y775970D02*
X1195451D01*
X1193800Y774319D02*
Y777621D01*
X1211199Y737870D02*
X1214501D01*
X1212850Y736219D02*
Y739521D01*
X1192149Y699770D02*
X1195451D01*
X1193800Y698119D02*
Y701421D01*
X1211199Y661670D02*
X1214501D01*
X1212850Y660019D02*
Y663321D01*
X1211199Y585470D02*
X1214501D01*
X1212850Y583819D02*
Y587121D01*
X1192149Y547370D02*
X1195451D01*
X1193800Y545719D02*
Y549021D01*
X1211199Y509270D02*
X1214501D01*
X1212850Y507619D02*
Y510921D01*
X1211199Y356870D02*
X1214501D01*
X1212850Y355219D02*
Y358521D01*
X1192149Y318770D02*
X1195451D01*
X1193800Y317119D02*
Y320421D01*
X1211199Y280670D02*
X1214501D01*
X1212850Y279019D02*
Y282321D01*
X1192149Y242570D02*
X1195451D01*
X1193800Y240919D02*
Y244221D01*
X1211199Y128270D02*
X1214501D01*
X1212850Y126619D02*
Y129921D01*
X1192149Y90170D02*
X1195451D01*
X1193800Y88519D02*
Y91821D01*
X1211199Y-24130D02*
X1214501D01*
X1212850Y-25781D02*
Y-22479D01*
X1192149Y-62230D02*
X1195451D01*
X1193800Y-63881D02*
Y-60579D01*
X1211199Y-100330D02*
X1214501D01*
X1212850Y-101981D02*
Y-98679D01*
X1192149Y-138430D02*
X1195451D01*
X1193800Y-140081D02*
Y-136779D01*
X1211199Y-176530D02*
X1214501D01*
X1212850Y-178181D02*
Y-174879D01*
X1192149Y-214630D02*
X1195451D01*
X1193800Y-216281D02*
Y-212979D01*
X1173099Y814070D02*
X1176401D01*
X1174750Y812419D02*
Y815721D01*
X1154049Y775970D02*
X1157351D01*
X1155700Y774319D02*
Y777621D01*
X1173099Y737870D02*
X1176401D01*
X1174750Y736219D02*
Y739521D01*
X1154049Y699770D02*
X1157351D01*
X1155700Y698119D02*
Y701421D01*
X1173099Y661670D02*
X1176401D01*
X1174750Y660019D02*
Y663321D01*
X1173099Y585470D02*
X1176401D01*
X1174750Y583819D02*
Y587121D01*
X1154049Y394970D02*
X1157351D01*
X1155700Y393319D02*
Y396621D01*
X1154049Y318770D02*
X1157351D01*
X1155700Y317119D02*
Y320421D01*
X1173099Y280670D02*
X1176401D01*
X1174750Y279019D02*
Y282321D01*
X1154049Y242570D02*
X1157351D01*
X1155700Y240919D02*
Y244221D01*
X1154049Y166370D02*
X1157351D01*
X1155700Y164719D02*
Y168021D01*
X1173099Y128270D02*
X1176401D01*
X1174750Y126619D02*
Y129921D01*
X1154049Y90170D02*
X1157351D01*
X1155700Y88519D02*
Y91821D01*
X1154049Y13970D02*
X1157351D01*
X1155700Y12319D02*
Y15621D01*
X1173099Y-24130D02*
X1176401D01*
X1174750Y-25781D02*
Y-22479D01*
X1154049Y-62230D02*
X1157351D01*
X1155700Y-63881D02*
Y-60579D01*
X1173099Y-100330D02*
X1176401D01*
X1174750Y-101981D02*
Y-98679D01*
X1154049Y-138430D02*
X1157351D01*
X1155700Y-140081D02*
Y-136779D01*
X1173099Y-176530D02*
X1176401D01*
X1174750Y-178181D02*
Y-174879D01*
X1154049Y-214630D02*
X1157351D01*
X1155700Y-216281D02*
Y-212979D01*
X1134999Y814070D02*
X1138301D01*
X1136650Y812419D02*
Y815721D01*
X1115949Y775970D02*
X1119251D01*
X1117600Y774319D02*
Y777621D01*
X1134999Y737870D02*
X1138301D01*
X1136650Y736219D02*
Y739521D01*
X1115949Y547370D02*
X1119251D01*
X1117600Y545719D02*
Y549021D01*
X1115949Y394970D02*
X1119251D01*
X1117600Y393319D02*
Y396621D01*
X1134999Y356870D02*
X1138301D01*
X1136650Y355219D02*
Y358521D01*
X1134999Y280670D02*
X1138301D01*
X1136650Y279019D02*
Y282321D01*
X1134999Y204470D02*
X1138301D01*
X1136650Y202819D02*
Y206121D01*
X1115949Y166370D02*
X1119251D01*
X1117600Y164719D02*
Y168021D01*
X1115949Y90170D02*
X1119251D01*
X1117600Y88519D02*
Y91821D01*
X1134999Y-24130D02*
X1138301D01*
X1136650Y-25781D02*
Y-22479D01*
X1134999Y-100330D02*
X1138301D01*
X1136650Y-101981D02*
Y-98679D01*
X1115949Y-214630D02*
X1119251D01*
X1117600Y-216281D02*
Y-212979D01*
X1096899Y814070D02*
X1100201D01*
X1098550Y812419D02*
Y815721D01*
X1077849Y775970D02*
X1081151D01*
X1079500Y774319D02*
Y777621D01*
X1077849Y699770D02*
X1081151D01*
X1079500Y698119D02*
Y701421D01*
X1096899Y661670D02*
X1100201D01*
X1098550Y660019D02*
Y663321D01*
X1077849Y394970D02*
X1081151D01*
X1079500Y393319D02*
Y396621D01*
X1096899Y204470D02*
X1100201D01*
X1098550Y202819D02*
Y206121D01*
X1077849Y90170D02*
X1081151D01*
X1079500Y88519D02*
Y91821D01*
X1096899Y52070D02*
X1100201D01*
X1098550Y50419D02*
Y53721D01*
X1077849Y13970D02*
X1081151D01*
X1079500Y12319D02*
Y15621D01*
X1077849Y-62230D02*
X1081151D01*
X1079500Y-63881D02*
Y-60579D01*
X1077849Y-138430D02*
X1081151D01*
X1079500Y-140081D02*
Y-136779D01*
X1077849Y-214630D02*
X1081151D01*
X1079500Y-216281D02*
Y-212979D01*
X1058799Y814070D02*
X1062101D01*
X1060450Y812419D02*
Y815721D01*
X1039749Y775970D02*
X1043051D01*
X1041400Y774319D02*
Y777621D01*
X1039749Y699770D02*
X1043051D01*
X1041400Y698119D02*
Y701421D01*
X1058799Y661670D02*
X1062101D01*
X1060450Y660019D02*
Y663321D01*
X1039749Y547370D02*
X1043051D01*
X1041400Y545719D02*
Y549021D01*
X1058799Y509270D02*
X1062101D01*
X1060450Y507619D02*
Y510921D01*
X1039749Y471170D02*
X1043051D01*
X1041400Y469519D02*
Y472821D01*
X1039749Y394970D02*
X1043051D01*
X1041400Y393319D02*
Y396621D01*
X1039749Y318770D02*
X1043051D01*
X1041400Y317119D02*
Y320421D01*
X1058799Y280670D02*
X1062101D01*
X1060450Y279019D02*
Y282321D01*
X1058799Y204470D02*
X1062101D01*
X1060450Y202819D02*
Y206121D01*
X1039749Y166370D02*
X1043051D01*
X1041400Y164719D02*
Y168021D01*
X1039749Y90170D02*
X1043051D01*
X1041400Y88519D02*
Y91821D01*
X1058799Y52070D02*
X1062101D01*
X1060450Y50419D02*
Y53721D01*
X1039749Y13970D02*
X1043051D01*
X1041400Y12319D02*
Y15621D01*
X1039749Y-62230D02*
X1043051D01*
X1041400Y-63881D02*
Y-60579D01*
X1058799Y-100330D02*
X1062101D01*
X1060450Y-101981D02*
Y-98679D01*
X1039749Y-138430D02*
X1043051D01*
X1041400Y-140081D02*
Y-136779D01*
X1058799Y-176530D02*
X1062101D01*
X1060450Y-178181D02*
Y-174879D01*
X1039749Y-214630D02*
X1043051D01*
X1041400Y-216281D02*
Y-212979D01*
X1020699Y814070D02*
X1024001D01*
X1022350Y812419D02*
Y815721D01*
X1001649Y775970D02*
X1004951D01*
X1003300Y774319D02*
Y777621D01*
X1020699Y737870D02*
X1024001D01*
X1022350Y736219D02*
Y739521D01*
X1020699Y661670D02*
X1024001D01*
X1022350Y660019D02*
Y663321D01*
X1001649Y623570D02*
X1004951D01*
X1003300Y621919D02*
Y625221D01*
X1001649Y547370D02*
X1004951D01*
X1003300Y545719D02*
Y549021D01*
X1020699Y509270D02*
X1024001D01*
X1022350Y507619D02*
Y510921D01*
X1001649Y471170D02*
X1004951D01*
X1003300Y469519D02*
Y472821D01*
X1020699Y356870D02*
X1024001D01*
X1022350Y355219D02*
Y358521D01*
X1020699Y280670D02*
X1024001D01*
X1022350Y279019D02*
Y282321D01*
X1001649Y242570D02*
X1004951D01*
X1003300Y240919D02*
Y244221D01*
X1001649Y166370D02*
X1004951D01*
X1003300Y164719D02*
Y168021D01*
X1020699Y128270D02*
X1024001D01*
X1022350Y126619D02*
Y129921D01*
X1001649Y90170D02*
X1004951D01*
X1003300Y88519D02*
Y91821D01*
X1001649Y13970D02*
X1004951D01*
X1003300Y12319D02*
Y15621D01*
X1020699Y-24130D02*
X1024001D01*
X1022350Y-25781D02*
Y-22479D01*
X1020699Y-100330D02*
X1024001D01*
X1022350Y-101981D02*
Y-98679D01*
X1001649Y-138430D02*
X1004951D01*
X1003300Y-140081D02*
Y-136779D01*
X1020699Y-176530D02*
X1024001D01*
X1022350Y-178181D02*
Y-174879D01*
X1001649Y-214630D02*
X1004951D01*
X1003300Y-216281D02*
Y-212979D01*
X1020699Y-252730D02*
X1024001D01*
X1022350Y-254381D02*
Y-251079D01*
X982599Y814070D02*
X985901D01*
X984250Y812419D02*
Y815721D01*
X963549Y775970D02*
X966851D01*
X965200Y774319D02*
Y777621D01*
X982599Y737870D02*
X985901D01*
X984250Y736219D02*
Y739521D01*
X982599Y661670D02*
X985901D01*
X984250Y660019D02*
Y663321D01*
X963549Y623570D02*
X966851D01*
X965200Y621919D02*
Y625221D01*
X982599Y585470D02*
X985901D01*
X984250Y583819D02*
Y587121D01*
X963549Y547370D02*
X966851D01*
X965200Y545719D02*
Y549021D01*
X963549Y471170D02*
X966851D01*
X965200Y469519D02*
Y472821D01*
X982599Y433070D02*
X985901D01*
X984250Y431419D02*
Y434721D01*
X982599Y356870D02*
X985901D01*
X984250Y355219D02*
Y358521D01*
X982599Y280670D02*
X985901D01*
X984250Y279019D02*
Y282321D01*
X963549Y242570D02*
X966851D01*
X965200Y240919D02*
Y244221D01*
X982599Y204470D02*
X985901D01*
X984250Y202819D02*
Y206121D01*
X963549Y166370D02*
X966851D01*
X965200Y164719D02*
Y168021D01*
X963549Y90170D02*
X966851D01*
X965200Y88519D02*
Y91821D01*
X982599Y52070D02*
X985901D01*
X984250Y50419D02*
Y53721D01*
X963549Y13970D02*
X966851D01*
X965200Y12319D02*
Y15621D01*
X982599Y-24130D02*
X985901D01*
X984250Y-25781D02*
Y-22479D01*
X982599Y-100330D02*
X985901D01*
X984250Y-101981D02*
Y-98679D01*
X963549Y-138430D02*
X966851D01*
X965200Y-140081D02*
Y-136779D01*
X982599Y-176530D02*
X985901D01*
X984250Y-178181D02*
Y-174879D01*
X963549Y-214630D02*
X966851D01*
X965200Y-216281D02*
Y-212979D01*
X982599Y-252730D02*
X985901D01*
X984250Y-254381D02*
Y-251079D01*
X944499Y814070D02*
X947801D01*
X946150Y812419D02*
Y815721D01*
X925449Y775970D02*
X928751D01*
X927100Y774319D02*
Y777621D01*
X944499Y737870D02*
X947801D01*
X946150Y736219D02*
Y739521D01*
X925449Y623570D02*
X928751D01*
X927100Y621919D02*
Y625221D01*
X944499Y585470D02*
X947801D01*
X946150Y583819D02*
Y587121D01*
X925449Y547370D02*
X928751D01*
X927100Y545719D02*
Y549021D01*
X944499Y509270D02*
X947801D01*
X946150Y507619D02*
Y510921D01*
X944499Y356870D02*
X947801D01*
X946150Y355219D02*
Y358521D01*
X925449Y242570D02*
X928751D01*
X927100Y240919D02*
Y244221D01*
X944499Y204470D02*
X947801D01*
X946150Y202819D02*
Y206121D01*
X925449Y166370D02*
X928751D01*
X927100Y164719D02*
Y168021D01*
X944499Y128270D02*
X947801D01*
X946150Y126619D02*
Y129921D01*
X925449Y13970D02*
X928751D01*
X927100Y12319D02*
Y15621D01*
X944499Y-24130D02*
X947801D01*
X946150Y-25781D02*
Y-22479D01*
X906399Y814070D02*
X909701D01*
X908050Y812419D02*
Y815721D01*
X887349Y699770D02*
X890651D01*
X889000Y698119D02*
Y701421D01*
X906399Y585470D02*
X909701D01*
X908050Y583819D02*
Y587121D01*
X906399Y509270D02*
X909701D01*
X908050Y507619D02*
Y510921D01*
X906399Y433070D02*
X909701D01*
X908050Y431419D02*
Y434721D01*
X887349Y318770D02*
X890651D01*
X889000Y317119D02*
Y320421D01*
X887349Y242570D02*
X890651D01*
X889000Y240919D02*
Y244221D01*
X906399Y128270D02*
X909701D01*
X908050Y126619D02*
Y129921D01*
X906399Y52070D02*
X909701D01*
X908050Y50419D02*
Y53721D01*
X887349Y13970D02*
X890651D01*
X889000Y12319D02*
Y15621D01*
X887349Y-62230D02*
X890651D01*
X889000Y-63881D02*
Y-60579D01*
X887349Y-138430D02*
X890651D01*
X889000Y-140081D02*
Y-136779D01*
X906399Y-176530D02*
X909701D01*
X908050Y-178181D02*
Y-174879D01*
X868299Y814070D02*
X871601D01*
X869950Y812419D02*
Y815721D01*
X849249Y699770D02*
X852551D01*
X850900Y698119D02*
Y701421D01*
X868299Y661670D02*
X871601D01*
X869950Y660019D02*
Y663321D01*
X849249Y547370D02*
X852551D01*
X850900Y545719D02*
Y549021D01*
X849249Y471170D02*
X852551D01*
X850900Y469519D02*
Y472821D01*
X868299Y433070D02*
X871601D01*
X869950Y431419D02*
Y434721D01*
X849249Y318770D02*
X852551D01*
X850900Y317119D02*
Y320421D01*
X868299Y280670D02*
X871601D01*
X869950Y279019D02*
Y282321D01*
X849249Y242570D02*
X852551D01*
X850900Y240919D02*
Y244221D01*
X849249Y166370D02*
X852551D01*
X850900Y164719D02*
Y168021D01*
X849249Y90170D02*
X852551D01*
X850900Y88519D02*
Y91821D01*
X868299Y52070D02*
X871601D01*
X869950Y50419D02*
Y53721D01*
X849249Y13970D02*
X852551D01*
X850900Y12319D02*
Y15621D01*
X849249Y-62230D02*
X852551D01*
X850900Y-63881D02*
Y-60579D01*
X849249Y-138430D02*
X852551D01*
X850900Y-140081D02*
Y-136779D01*
X868299Y-176530D02*
X871601D01*
X869950Y-178181D02*
Y-174879D01*
X830199Y814070D02*
X833501D01*
X831850Y812419D02*
Y815721D01*
X830199Y737870D02*
X833501D01*
X831850Y736219D02*
Y739521D01*
X830199Y661670D02*
X833501D01*
X831850Y660019D02*
Y663321D01*
X811149Y547370D02*
X814451D01*
X812800Y545719D02*
Y549021D01*
X830199Y509270D02*
X833501D01*
X831850Y507619D02*
Y510921D01*
X811149Y471170D02*
X814451D01*
X812800Y469519D02*
Y472821D01*
X830199Y356870D02*
X833501D01*
X831850Y355219D02*
Y358521D01*
X830199Y280670D02*
X833501D01*
X831850Y279019D02*
Y282321D01*
X811149Y166370D02*
X814451D01*
X812800Y164719D02*
Y168021D01*
X830199Y128270D02*
X833501D01*
X831850Y126619D02*
Y129921D01*
X811149Y90170D02*
X814451D01*
X812800Y88519D02*
Y91821D01*
X830199Y52070D02*
X833501D01*
X831850Y50419D02*
Y53721D01*
X811149Y13970D02*
X814451D01*
X812800Y12319D02*
Y15621D01*
X830199Y-24130D02*
X833501D01*
X831850Y-25781D02*
Y-22479D01*
X811149Y-62230D02*
X814451D01*
X812800Y-63881D02*
Y-60579D01*
X811149Y-138430D02*
X814451D01*
X812800Y-140081D02*
Y-136779D01*
X811149Y-214630D02*
X814451D01*
X812800Y-216281D02*
Y-212979D01*
X792099Y814070D02*
X795401D01*
X793750Y812419D02*
Y815721D01*
X792099Y737870D02*
X795401D01*
X793750Y736219D02*
Y739521D01*
X792099Y661670D02*
X795401D01*
X793750Y660019D02*
Y663321D01*
X792099Y585470D02*
X795401D01*
X793750Y583819D02*
Y587121D01*
X773049Y547370D02*
X776351D01*
X774700Y545719D02*
Y549021D01*
X773049Y471170D02*
X776351D01*
X774700Y469519D02*
Y472821D01*
X792099Y356870D02*
X795401D01*
X793750Y355219D02*
Y358521D01*
X792099Y280670D02*
X795401D01*
X793750Y279019D02*
Y282321D01*
X773049Y242570D02*
X776351D01*
X774700Y240919D02*
Y244221D01*
X773049Y166370D02*
X776351D01*
X774700Y164719D02*
Y168021D01*
X773049Y90170D02*
X776351D01*
X774700Y88519D02*
Y91821D01*
X792099Y52070D02*
X795401D01*
X793750Y50419D02*
Y53721D01*
X773049Y13970D02*
X776351D01*
X774700Y12319D02*
Y15621D01*
X792099Y-24130D02*
X795401D01*
X793750Y-25781D02*
Y-22479D01*
X773049Y-62230D02*
X776351D01*
X774700Y-63881D02*
Y-60579D01*
X773049Y-138430D02*
X776351D01*
X774700Y-140081D02*
Y-136779D01*
X792099Y-176530D02*
X795401D01*
X793750Y-178181D02*
Y-174879D01*
X773049Y-214630D02*
X776351D01*
X774700Y-216281D02*
Y-212979D01*
X792099Y-252730D02*
X795401D01*
X793750Y-254381D02*
Y-251079D01*
X773049Y-290830D02*
X776351D01*
X774700Y-292481D02*
Y-289179D01*
X773049Y-367030D02*
X776351D01*
X774700Y-368681D02*
Y-365379D01*
X753999Y814070D02*
X757301D01*
X755650Y812419D02*
Y815721D01*
X753999Y737870D02*
X757301D01*
X755650Y736219D02*
Y739521D01*
X734949Y699770D02*
X738251D01*
X736600Y698119D02*
Y701421D01*
X753999Y585470D02*
X757301D01*
X755650Y583819D02*
Y587121D01*
X734949Y547370D02*
X738251D01*
X736600Y545719D02*
Y549021D01*
X753999Y509270D02*
X757301D01*
X755650Y507619D02*
Y510921D01*
X753999Y356870D02*
X757301D01*
X755650Y355219D02*
Y358521D01*
X734949Y318770D02*
X738251D01*
X736600Y317119D02*
Y320421D01*
X734949Y166370D02*
X738251D01*
X736600Y164719D02*
Y168021D01*
X753999Y128270D02*
X757301D01*
X755650Y126619D02*
Y129921D01*
X734949Y13970D02*
X738251D01*
X736600Y12319D02*
Y15621D01*
X734949Y-62230D02*
X738251D01*
X736600Y-63881D02*
Y-60579D01*
X753999Y-100330D02*
X757301D01*
X755650Y-101981D02*
Y-98679D01*
X734949Y-138430D02*
X738251D01*
X736600Y-140081D02*
Y-136779D01*
X753999Y-176530D02*
X757301D01*
X755650Y-178181D02*
Y-174879D01*
X734949Y-214630D02*
X738251D01*
X736600Y-216281D02*
Y-212979D01*
X734949Y-290830D02*
X738251D01*
X736600Y-292481D02*
Y-289179D01*
X753999Y-328930D02*
X757301D01*
X755650Y-330581D02*
Y-327279D01*
X734949Y-367030D02*
X738251D01*
X736600Y-368681D02*
Y-365379D01*
X715899Y737870D02*
X719201D01*
X717550Y736219D02*
Y739521D01*
X696849Y699770D02*
X700151D01*
X698500Y698119D02*
Y701421D01*
X696849Y547370D02*
X700151D01*
X698500Y545719D02*
Y549021D01*
X696849Y471170D02*
X700151D01*
X698500Y469519D02*
Y472821D01*
X696849Y394970D02*
X700151D01*
X698500Y393319D02*
Y396621D01*
X715899Y356870D02*
X719201D01*
X717550Y355219D02*
Y358521D01*
X696849Y318770D02*
X700151D01*
X698500Y317119D02*
Y320421D01*
X696849Y242570D02*
X700151D01*
X698500Y240919D02*
Y244221D01*
X715899Y204470D02*
X719201D01*
X717550Y202819D02*
Y206121D01*
X696849Y166370D02*
X700151D01*
X698500Y164719D02*
Y168021D01*
X696849Y90170D02*
X700151D01*
X698500Y88519D02*
Y91821D01*
X715899Y-24130D02*
X719201D01*
X717550Y-25781D02*
Y-22479D01*
X696849Y-62230D02*
X700151D01*
X698500Y-63881D02*
Y-60579D01*
X696849Y-138430D02*
X700151D01*
X698500Y-140081D02*
Y-136779D01*
X696849Y-214630D02*
X700151D01*
X698500Y-216281D02*
Y-212979D01*
X715899Y-252730D02*
X719201D01*
X717550Y-254381D02*
Y-251079D01*
X696849Y-290830D02*
X700151D01*
X698500Y-292481D02*
Y-289179D01*
X715899Y-328930D02*
X719201D01*
X717550Y-330581D02*
Y-327279D01*
X696849Y-367030D02*
X700151D01*
X698500Y-368681D02*
Y-365379D01*
X658749Y699770D02*
X662051D01*
X660400Y698119D02*
Y701421D01*
X658749Y623570D02*
X662051D01*
X660400Y621919D02*
Y625221D01*
X658749Y547370D02*
X662051D01*
X660400Y545719D02*
Y549021D01*
X658749Y471170D02*
X662051D01*
X660400Y469519D02*
Y472821D01*
X677799Y356870D02*
X681101D01*
X679450Y355219D02*
Y358521D01*
X658749Y318770D02*
X662051D01*
X660400Y317119D02*
Y320421D01*
X677799Y204470D02*
X681101D01*
X679450Y202819D02*
Y206121D01*
X658749Y166370D02*
X662051D01*
X660400Y164719D02*
Y168021D01*
X677799Y128270D02*
X681101D01*
X679450Y126619D02*
Y129921D01*
X658749Y90170D02*
X662051D01*
X660400Y88519D02*
Y91821D01*
X677799Y52070D02*
X681101D01*
X679450Y50419D02*
Y53721D01*
X658749Y13970D02*
X662051D01*
X660400Y12319D02*
Y15621D01*
X677799Y-24130D02*
X681101D01*
X679450Y-25781D02*
Y-22479D01*
X658749Y-62230D02*
X662051D01*
X660400Y-63881D02*
Y-60579D01*
X677799Y-100330D02*
X681101D01*
X679450Y-101981D02*
Y-98679D01*
X658749Y-138430D02*
X662051D01*
X660400Y-140081D02*
Y-136779D01*
X677799Y-252730D02*
X681101D01*
X679450Y-254381D02*
Y-251079D01*
X658749Y-290830D02*
X662051D01*
X660400Y-292481D02*
Y-289179D01*
X677799Y-328930D02*
X681101D01*
X679450Y-330581D02*
Y-327279D01*
X658749Y-367030D02*
X662051D01*
X660400Y-368681D02*
Y-365379D01*
X677799Y-405130D02*
X681101D01*
X679450Y-406781D02*
Y-403479D01*
X620649Y623570D02*
X623951D01*
X622300Y621919D02*
Y625221D01*
X620649Y547370D02*
X623951D01*
X622300Y545719D02*
Y549021D01*
X639699Y509270D02*
X643001D01*
X641350Y507619D02*
Y510921D01*
X620649Y471170D02*
X623951D01*
X622300Y469519D02*
Y472821D01*
X620649Y394970D02*
X623951D01*
X622300Y393319D02*
Y396621D01*
X639699Y356870D02*
X643001D01*
X641350Y355219D02*
Y358521D01*
X620649Y318770D02*
X623951D01*
X622300Y317119D02*
Y320421D01*
X639699Y280670D02*
X643001D01*
X641350Y279019D02*
Y282321D01*
X620649Y242570D02*
X623951D01*
X622300Y240919D02*
Y244221D01*
X639699Y204470D02*
X643001D01*
X641350Y202819D02*
Y206121D01*
X639699Y128270D02*
X643001D01*
X641350Y126619D02*
Y129921D01*
X620649Y13970D02*
X623951D01*
X622300Y12319D02*
Y15621D01*
X639699Y-24130D02*
X643001D01*
X641350Y-25781D02*
Y-22479D01*
X620649Y-62230D02*
X623951D01*
X622300Y-63881D02*
Y-60579D01*
X639699Y-100330D02*
X643001D01*
X641350Y-101981D02*
Y-98679D01*
X620649Y-138430D02*
X623951D01*
X622300Y-140081D02*
Y-136779D01*
X639699Y-176530D02*
X643001D01*
X641350Y-178181D02*
Y-174879D01*
X639699Y-328930D02*
X643001D01*
X641350Y-330581D02*
Y-327279D01*
X620649Y-367030D02*
X623951D01*
X622300Y-368681D02*
Y-365379D01*
X639699Y-405130D02*
X643001D01*
X641350Y-406781D02*
Y-403479D01*
X620649Y-443230D02*
X623951D01*
X622300Y-444881D02*
Y-441579D01*
X582549Y623570D02*
X585851D01*
X584200Y621919D02*
Y625221D01*
X601599Y585470D02*
X604901D01*
X603250Y583819D02*
Y587121D01*
X582549Y547370D02*
X585851D01*
X584200Y545719D02*
Y549021D01*
X601599Y509270D02*
X604901D01*
X603250Y507619D02*
Y510921D01*
X582549Y394970D02*
X585851D01*
X584200Y393319D02*
Y396621D01*
X601599Y280670D02*
X604901D01*
X603250Y279019D02*
Y282321D01*
X582549Y242570D02*
X585851D01*
X584200Y240919D02*
Y244221D01*
X601599Y204470D02*
X604901D01*
X603250Y202819D02*
Y206121D01*
X601599Y128270D02*
X604901D01*
X603250Y126619D02*
Y129921D01*
X582549Y90170D02*
X585851D01*
X584200Y88519D02*
Y91821D01*
X582549Y13970D02*
X585851D01*
X584200Y12319D02*
Y15621D01*
X601599Y-24130D02*
X604901D01*
X603250Y-25781D02*
Y-22479D01*
X582549Y-62230D02*
X585851D01*
X584200Y-63881D02*
Y-60579D01*
X601599Y-100330D02*
X604901D01*
X603250Y-101981D02*
Y-98679D01*
X582549Y-138430D02*
X585851D01*
X584200Y-140081D02*
Y-136779D01*
X582549Y-214630D02*
X585851D01*
X584200Y-216281D02*
Y-212979D01*
X601599Y-252730D02*
X604901D01*
X603250Y-254381D02*
Y-251079D01*
X601599Y-328930D02*
X604901D01*
X603250Y-330581D02*
Y-327279D01*
X582549Y-367030D02*
X585851D01*
X584200Y-368681D02*
Y-365379D01*
X601599Y-405130D02*
X604901D01*
X603250Y-406781D02*
Y-403479D01*
X582549Y-443230D02*
X585851D01*
X584200Y-444881D02*
Y-441579D01*
X544449Y699770D02*
X547751D01*
X546100Y698119D02*
Y701421D01*
X563499Y585470D02*
X566801D01*
X565150Y583819D02*
Y587121D01*
X563499Y509270D02*
X566801D01*
X565150Y507619D02*
Y510921D01*
X544449Y471170D02*
X547751D01*
X546100Y469519D02*
Y472821D01*
X544449Y318770D02*
X547751D01*
X546100Y317119D02*
Y320421D01*
X563499Y280670D02*
X566801D01*
X565150Y279019D02*
Y282321D01*
X544449Y242570D02*
X547751D01*
X546100Y240919D02*
Y244221D01*
X563499Y204470D02*
X566801D01*
X565150Y202819D02*
Y206121D01*
X563499Y52070D02*
X566801D01*
X565150Y50419D02*
Y53721D01*
X563499Y-24130D02*
X566801D01*
X565150Y-25781D02*
Y-22479D01*
X544449Y-62230D02*
X547751D01*
X546100Y-63881D02*
Y-60579D01*
X563499Y-100330D02*
X566801D01*
X565150Y-101981D02*
Y-98679D01*
X544449Y-138430D02*
X547751D01*
X546100Y-140081D02*
Y-136779D01*
X544449Y-214630D02*
X547751D01*
X546100Y-216281D02*
Y-212979D01*
X563499Y-252730D02*
X566801D01*
X565150Y-254381D02*
Y-251079D01*
X544449Y-290830D02*
X547751D01*
X546100Y-292481D02*
Y-289179D01*
X544449Y-367030D02*
X547751D01*
X546100Y-368681D02*
Y-365379D01*
X563499Y-405130D02*
X566801D01*
X565150Y-406781D02*
Y-403479D01*
X544449Y-443230D02*
X547751D01*
X546100Y-444881D02*
Y-441579D01*
X506349Y547370D02*
X509651D01*
X508000Y545719D02*
Y549021D01*
X525399Y509270D02*
X528701D01*
X527050Y507619D02*
Y510921D01*
X525399Y356870D02*
X528701D01*
X527050Y355219D02*
Y358521D01*
X506349Y318770D02*
X509651D01*
X508000Y317119D02*
Y320421D01*
X525399Y280670D02*
X528701D01*
X527050Y279019D02*
Y282321D01*
X506349Y242570D02*
X509651D01*
X508000Y240919D02*
Y244221D01*
X506349Y166370D02*
X509651D01*
X508000Y164719D02*
Y168021D01*
X525399Y-24130D02*
X528701D01*
X527050Y-25781D02*
Y-22479D01*
X506349Y-62230D02*
X509651D01*
X508000Y-63881D02*
Y-60579D01*
X525399Y-100330D02*
X528701D01*
X527050Y-101981D02*
Y-98679D01*
X506349Y-138430D02*
X509651D01*
X508000Y-140081D02*
Y-136779D01*
X525399Y-176530D02*
X528701D01*
X527050Y-178181D02*
Y-174879D01*
X506349Y-214630D02*
X509651D01*
X508000Y-216281D02*
Y-212979D01*
X506349Y-290830D02*
X509651D01*
X508000Y-292481D02*
Y-289179D01*
X525399Y-328930D02*
X528701D01*
X527050Y-330581D02*
Y-327279D01*
X506349Y-367030D02*
X509651D01*
X508000Y-368681D02*
Y-365379D01*
X525399Y-405130D02*
X528701D01*
X527050Y-406781D02*
Y-403479D01*
X506349Y-443230D02*
X509651D01*
X508000Y-444881D02*
Y-441579D01*
X525399Y-481330D02*
X528701D01*
X527050Y-482981D02*
Y-479679D01*
X487299Y585470D02*
X490601D01*
X488950Y583819D02*
Y587121D01*
X487299Y509270D02*
X490601D01*
X488950Y507619D02*
Y510921D01*
X468249Y242570D02*
X471551D01*
X469900Y240919D02*
Y244221D01*
X468249Y166370D02*
X471551D01*
X469900Y164719D02*
Y168021D01*
X468249Y90170D02*
X471551D01*
X469900Y88519D02*
Y91821D01*
X487299Y52070D02*
X490601D01*
X488950Y50419D02*
Y53721D01*
X468249Y13970D02*
X471551D01*
X469900Y12319D02*
Y15621D01*
X487299Y-24130D02*
X490601D01*
X488950Y-25781D02*
Y-22479D01*
X487299Y-100330D02*
X490601D01*
X488950Y-101981D02*
Y-98679D01*
X468249Y-138430D02*
X471551D01*
X469900Y-140081D02*
Y-136779D01*
X487299Y-176530D02*
X490601D01*
X488950Y-178181D02*
Y-174879D01*
X468249Y-214630D02*
X471551D01*
X469900Y-216281D02*
Y-212979D01*
X487299Y-252730D02*
X490601D01*
X488950Y-254381D02*
Y-251079D01*
X487299Y-481330D02*
X490601D01*
X488950Y-482981D02*
Y-479679D01*
X430149Y13970D02*
X433451D01*
X431800Y12319D02*
Y15621D01*
X430149Y-62230D02*
X433451D01*
X431800Y-63881D02*
Y-60579D01*
X449199Y-100330D02*
X452501D01*
X450850Y-101981D02*
Y-98679D01*
X430149Y-138430D02*
X433451D01*
X431800Y-140081D02*
Y-136779D01*
X449199Y-176530D02*
X452501D01*
X450850Y-178181D02*
Y-174879D01*
X430149Y-214630D02*
X433451D01*
X431800Y-216281D02*
Y-212979D01*
X430149Y-290830D02*
X433451D01*
X431800Y-292481D02*
Y-289179D01*
X430149Y-443230D02*
X433451D01*
X431800Y-444881D02*
Y-441579D01*
X449199Y-481330D02*
X452501D01*
X450850Y-482981D02*
Y-479679D01*
X430149Y-519430D02*
X433451D01*
X431800Y-521081D02*
Y-517779D01*
X411099Y966470D02*
X414401D01*
X412750Y964819D02*
Y968121D01*
X392049Y852170D02*
X395351D01*
X393700Y850519D02*
Y853821D01*
X392049Y13970D02*
X395351D01*
X393700Y12319D02*
Y15621D01*
X392049Y-62230D02*
X395351D01*
X393700Y-63881D02*
Y-60579D01*
X411099Y-100330D02*
X414401D01*
X412750Y-101981D02*
Y-98679D01*
X411099Y-176530D02*
X414401D01*
X412750Y-178181D02*
Y-174879D01*
X392049Y-214630D02*
X395351D01*
X393700Y-216281D02*
Y-212979D01*
X392049Y-290830D02*
X395351D01*
X393700Y-292481D02*
Y-289179D01*
X411099Y-481330D02*
X414401D01*
X412750Y-482981D02*
Y-479679D01*
X392049Y-519430D02*
X395351D01*
X393700Y-521081D02*
Y-517779D01*
X372999Y966470D02*
X376301D01*
X374650Y964819D02*
Y968121D01*
X353949Y13970D02*
X357251D01*
X355600Y12319D02*
Y15621D01*
X372999Y-100330D02*
X376301D01*
X374650Y-101981D02*
Y-98679D01*
X353949Y-138430D02*
X357251D01*
X355600Y-140081D02*
Y-136779D01*
X372999Y-252730D02*
X376301D01*
X374650Y-254381D02*
Y-251079D01*
X353949Y-290830D02*
X357251D01*
X355600Y-292481D02*
Y-289179D01*
X353949Y-443230D02*
X357251D01*
X355600Y-444881D02*
Y-441579D01*
X372999Y-481330D02*
X376301D01*
X374650Y-482981D02*
Y-479679D01*
X353949Y-519430D02*
X357251D01*
X355600Y-521081D02*
Y-517779D01*
X372999Y-557530D02*
X376301D01*
X374650Y-559181D02*
Y-555879D01*
X315849Y852170D02*
X319151D01*
X317500Y850519D02*
Y853821D01*
X315849Y-138430D02*
X319151D01*
X317500Y-140081D02*
Y-136779D01*
X334899Y-176530D02*
X338201D01*
X336550Y-178181D02*
Y-174879D01*
X315849Y-214630D02*
X319151D01*
X317500Y-216281D02*
Y-212979D01*
X315849Y-290830D02*
X319151D01*
X317500Y-292481D02*
Y-289179D01*
X334899Y-405130D02*
X338201D01*
X336550Y-406781D02*
Y-403479D01*
X334899Y-557530D02*
X338201D01*
X336550Y-559181D02*
Y-555879D01*
X296799Y890270D02*
X300101D01*
X298450Y888619D02*
Y891921D01*
X296799Y-24130D02*
X300101D01*
X298450Y-25781D02*
Y-22479D01*
X277749Y-62230D02*
X281051D01*
X279400Y-63881D02*
Y-60579D01*
X296799Y-100330D02*
X300101D01*
X298450Y-101981D02*
Y-98679D01*
X277749Y-138430D02*
X281051D01*
X279400Y-140081D02*
Y-136779D01*
X296799Y-176530D02*
X300101D01*
X298450Y-178181D02*
Y-174879D01*
X277749Y-214630D02*
X281051D01*
X279400Y-216281D02*
Y-212979D01*
X277749Y-290830D02*
X281051D01*
X279400Y-292481D02*
Y-289179D01*
X296799Y-328930D02*
X300101D01*
X298450Y-330581D02*
Y-327279D01*
X277749Y-367030D02*
X281051D01*
X279400Y-368681D02*
Y-365379D01*
X296799Y-405130D02*
X300101D01*
X298450Y-406781D02*
Y-403479D01*
X296799Y-481330D02*
X300101D01*
X298450Y-482981D02*
Y-479679D01*
X296799Y-557530D02*
X300101D01*
X298450Y-559181D02*
Y-555879D01*
X239649Y13970D02*
X242951D01*
X241300Y12319D02*
Y15621D01*
X258699Y-24130D02*
X262001D01*
X260350Y-25781D02*
Y-22479D01*
X239649Y-62230D02*
X242951D01*
X241300Y-63881D02*
Y-60579D01*
X258699Y-100330D02*
X262001D01*
X260350Y-101981D02*
Y-98679D01*
X239649Y-138430D02*
X242951D01*
X241300Y-140081D02*
Y-136779D01*
X258699Y-176530D02*
X262001D01*
X260350Y-178181D02*
Y-174879D01*
X239649Y-214630D02*
X242951D01*
X241300Y-216281D02*
Y-212979D01*
X258699Y-252730D02*
X262001D01*
X260350Y-254381D02*
Y-251079D01*
X258699Y-328930D02*
X262001D01*
X260350Y-330581D02*
Y-327279D01*
X239649Y-443230D02*
X242951D01*
X241300Y-444881D02*
Y-441579D01*
X258699Y-481330D02*
X262001D01*
X260350Y-482981D02*
Y-479679D01*
X201549Y13970D02*
X204851D01*
X203200Y12319D02*
Y15621D01*
X220599Y-24130D02*
X223901D01*
X222250Y-25781D02*
Y-22479D01*
X201549Y-62230D02*
X204851D01*
X203200Y-63881D02*
Y-60579D01*
X220599Y-176530D02*
X223901D01*
X222250Y-178181D02*
Y-174879D01*
X201549Y-214630D02*
X204851D01*
X203200Y-216281D02*
Y-212979D01*
X220599Y-252730D02*
X223901D01*
X222250Y-254381D02*
Y-251079D01*
X201549Y-367030D02*
X204851D01*
X203200Y-368681D02*
Y-365379D01*
X220599Y-405130D02*
X223901D01*
X222250Y-406781D02*
Y-403479D01*
X182499Y890270D02*
X185801D01*
X184150Y888619D02*
Y891921D01*
X163449Y13970D02*
X166751D01*
X165100Y12319D02*
Y15621D01*
X163449Y-62230D02*
X166751D01*
X165100Y-63881D02*
Y-60579D01*
X182499Y-176530D02*
X185801D01*
X184150Y-178181D02*
Y-174879D01*
X163449Y-290830D02*
X166751D01*
X165100Y-292481D02*
Y-289179D01*
X182499Y-328930D02*
X185801D01*
X184150Y-330581D02*
Y-327279D01*
X144399Y890270D02*
X147701D01*
X146050Y888619D02*
Y891921D01*
X125349Y13970D02*
X128651D01*
X127000Y12319D02*
Y15621D01*
X144399Y-24130D02*
X147701D01*
X146050Y-25781D02*
Y-22479D01*
X125349Y-138430D02*
X128651D01*
X127000Y-140081D02*
Y-136779D01*
X125349Y-214630D02*
X128651D01*
X127000Y-216281D02*
Y-212979D01*
X144399Y-252730D02*
X147701D01*
X146050Y-254381D02*
Y-251079D01*
X106299Y890270D02*
X109601D01*
X107950Y888619D02*
Y891921D01*
X106299Y-24130D02*
X109601D01*
X107950Y-25781D02*
Y-22479D01*
X87249Y-62230D02*
X90551D01*
X88900Y-63881D02*
Y-60579D01*
X87249Y-138430D02*
X90551D01*
X88900Y-140081D02*
Y-136779D01*
X106299Y-176530D02*
X109601D01*
X107950Y-178181D02*
Y-174879D01*
X68199Y890270D02*
X71501D01*
X69850Y888619D02*
Y891921D01*
X49149Y13970D02*
X52451D01*
X50800Y12319D02*
Y15621D01*
X68199Y-24130D02*
X71501D01*
X69850Y-25781D02*
Y-22479D01*
X49149Y-62230D02*
X52451D01*
X50800Y-63881D02*
Y-60579D01*
X68199Y-100330D02*
X71501D01*
X69850Y-101981D02*
Y-98679D01*
X11049Y13970D02*
X14351D01*
X12700Y12319D02*
Y15621D01*
X184989Y332027D02*
X188291D01*
X186640Y330376D02*
Y333678D01*
X145910Y814057D02*
X149212D01*
X147561Y812406D02*
Y815708D01*
X150228Y851141D02*
X153530D01*
X151879Y849490D02*
Y852792D01*
X132702Y850633D02*
X136004D01*
X134353Y848982D02*
Y852284D01*
X240714Y698674D02*
X244016D01*
X242365Y697023D02*
Y700325D01*
X232537Y694436D02*
X235839D01*
X234188Y692785D02*
Y696087D01*
X273177Y816102D02*
X276479D01*
X274828Y814451D02*
Y817753D01*
X273177Y849630D02*
X276479D01*
X274828Y847979D02*
Y851281D01*
X259461Y814578D02*
X262763D01*
X261112Y812927D02*
Y816229D01*
X202057Y897382D02*
X205359D01*
X203708Y895731D02*
Y899033D01*
X251587Y897636D02*
X254889D01*
X253238Y895985D02*
Y899287D01*
X257175Y895604D02*
X260477D01*
X258826Y893953D02*
Y897255D01*
X257175Y889254D02*
X260477D01*
X258826Y887603D02*
Y890905D01*
X257429Y883158D02*
X260731D01*
X259080Y881507D02*
Y884809D01*
X257429Y876554D02*
X260731D01*
X259080Y874903D02*
Y878205D01*
X258699Y870458D02*
X262001D01*
X260350Y868807D02*
Y872109D01*
X259207Y863854D02*
X262509D01*
X260858Y862203D02*
Y865505D01*
X259461Y856996D02*
X262763D01*
X261112Y855345D02*
Y858647D01*
X259461Y849884D02*
X262763D01*
X261112Y848233D02*
Y851535D01*
X259207Y842518D02*
X262509D01*
X260858Y840867D02*
Y844169D01*
X259207Y835152D02*
X262509D01*
X260858Y833501D02*
Y836803D01*
X259207Y828294D02*
X262509D01*
X260858Y826643D02*
Y829945D01*
X259461Y820928D02*
X262763D01*
X261112Y819277D02*
Y822579D01*
X259715Y808736D02*
X263017D01*
X261366Y807085D02*
Y810387D01*
X272669Y809752D02*
X275971D01*
X274320Y808101D02*
Y811403D01*
X273177Y822960D02*
X276479D01*
X274828Y821309D02*
Y824611D01*
X273177Y830580D02*
X276479D01*
X274828Y828929D02*
Y832231D01*
X273177Y856996D02*
X276479D01*
X274828Y855345D02*
Y858647D01*
X273431Y863854D02*
X276733D01*
X275082Y862203D02*
Y865505D01*
X273685Y870458D02*
X276987D01*
X275336Y868807D02*
Y872109D01*
X275971Y876554D02*
X279273D01*
X277622Y874903D02*
Y878205D01*
X275717Y883158D02*
X279019D01*
X277368Y881507D02*
Y884809D01*
X275717Y890016D02*
X279019D01*
X277368Y888365D02*
Y891667D01*
X276987Y896874D02*
X280289D01*
X278638Y895223D02*
Y898525D01*
X272415Y696027D02*
X275717D01*
X274066Y694376D02*
Y697678D01*
X231013Y665734D02*
X234315D01*
X232664Y664083D02*
Y667385D01*
X218313Y645668D02*
X221615D01*
X219964Y644017D02*
Y647319D01*
X293243Y703326D02*
X296545D01*
X294894Y701675D02*
Y704977D01*
X304832Y702723D02*
X308134D01*
X306483Y701072D02*
Y704374D01*
X46037Y738430D02*
X49339D01*
X47688Y736779D02*
Y740081D01*
X52705Y729488D02*
X56007D01*
X54356Y727837D02*
Y731139D01*
X282575Y658876D02*
X285877D01*
X284226Y657225D02*
Y660527D01*
X269875Y624078D02*
X273177D01*
X271526Y622427D02*
Y625729D01*
X231013Y708660D02*
X234315D01*
X232664Y707009D02*
Y710311D01*
X177165Y837946D02*
X180467D01*
X178816Y836295D02*
Y839597D01*
X508381Y752348D02*
X511683D01*
X510032Y750697D02*
Y753999D01*
X587121Y830326D02*
X590423D01*
X588772Y828675D02*
Y831977D01*
X518033Y770890D02*
X521335D01*
X519684Y769239D02*
Y772541D01*
X508889Y774192D02*
X512191D01*
X510540Y772541D02*
Y775843D01*
X215104Y693674D02*
X218406D01*
X216755Y692023D02*
Y695325D01*
X260223Y695706D02*
X263525D01*
X261874Y694055D02*
Y697357D01*
X291973Y729742D02*
X295275D01*
X293624Y728091D02*
Y731393D01*
X272161Y647192D02*
X275463D01*
X273812Y645541D02*
Y648843D01*
X498221Y743204D02*
X501523D01*
X499872Y741553D02*
Y744855D01*
X86487Y792988D02*
X89789D01*
X88138Y791337D02*
Y794639D01*
X342858Y868058D02*
X346160D01*
X344509Y866407D02*
Y869709D01*
X398653Y863854D02*
X401955D01*
X400304Y862203D02*
Y865505D01*
X365887Y852170D02*
X369189D01*
X367538Y850519D02*
Y853821D01*
X452755Y602742D02*
X456057D01*
X454406Y601091D02*
Y604393D01*
X451739Y591820D02*
X455041D01*
X453390Y590169D02*
Y593471D01*
X451231Y578358D02*
X454533D01*
X452882Y576707D02*
Y580009D01*
X431553Y574160D02*
X434855D01*
X433204Y572509D02*
Y575811D01*
X439928Y590677D02*
X443230D01*
X441579Y589026D02*
Y592328D01*
X118237Y794324D02*
X121539D01*
X119888Y792673D02*
Y795975D01*
X336296Y447421D02*
X339598D01*
X337947Y445770D02*
Y449072D01*
X337312Y464947D02*
X340614D01*
X338963Y463296D02*
Y466598D01*
X233620Y870458D02*
X236922D01*
X235271Y868807D02*
Y872109D01*
X195961Y772160D02*
X199263D01*
X197612Y770509D02*
Y773811D01*
X267890Y604821D02*
X271192D01*
X269541Y603170D02*
Y606472D01*
X106807Y296418D02*
X110109D01*
X108458Y294767D02*
Y298069D01*
X223901Y797560D02*
X227203D01*
X225552Y795909D02*
Y799211D01*
X223139Y808990D02*
X226441D01*
X224790Y807339D02*
Y810641D01*
X231644Y839108D02*
X234946D01*
X233295Y837457D02*
Y840759D01*
X557149Y771017D02*
X560451D01*
X558800Y769366D02*
Y772668D01*
X456726Y709999D02*
X460028D01*
X458377Y708348D02*
Y711650D01*
X235331Y587502D02*
X238633D01*
X236982Y585851D02*
Y589153D01*
X234289Y630610D02*
X237591D01*
X235940Y628959D02*
Y632261D01*
X376809Y629793D02*
X380111D01*
X378460Y628142D02*
Y631444D01*
X225933Y587725D02*
X229235D01*
X227584Y586074D02*
Y589376D01*
X363347Y785865D02*
X366649D01*
X364998Y784214D02*
Y787516D01*
X363463Y794755D02*
X366765D01*
X365114Y793104D02*
Y796406D01*
X303701Y724613D02*
X307003D01*
X305352Y722962D02*
Y726264D01*
X343126Y725043D02*
X346428D01*
X344777Y723392D02*
Y726694D01*
X166081Y804764D02*
X169383D01*
X167732Y803113D02*
Y806415D01*
X175939Y821848D02*
X179241D01*
X177590Y820197D02*
Y823499D01*
X178689Y816102D02*
X181991D01*
X180340Y814451D02*
Y817753D01*
X137033Y832104D02*
X140335D01*
X138684Y830453D02*
Y833755D01*
X33147Y769112D02*
X36449D01*
X34798Y767461D02*
Y770763D01*
X124043Y670778D02*
X127345D01*
X125694Y669127D02*
Y672429D01*
X142748Y723900D02*
X146050D01*
X144399Y722249D02*
Y725551D01*
X579755Y764794D02*
X583057D01*
X581406Y763143D02*
Y766445D01*
X407674Y592713D02*
X410976D01*
X409325Y591062D02*
Y594364D01*
X393737Y591820D02*
X397039D01*
X395388Y590169D02*
Y593471D01*
X432181Y992886D02*
X435483D01*
X433832Y991235D02*
Y994537D01*
X419481Y992886D02*
X422783D01*
X421132Y991235D02*
Y994537D01*
X406781Y992886D02*
X410083D01*
X408432Y991235D02*
Y994537D01*
X394081Y992886D02*
X397383D01*
X395732Y991235D02*
Y994537D01*
X381381Y992886D02*
X384683D01*
X383032Y991235D02*
Y994537D01*
X368935Y992886D02*
X372237D01*
X370586Y991235D02*
Y994537D01*
X356489Y992886D02*
X359791D01*
X358140Y991235D02*
Y994537D01*
X343789Y992632D02*
X347091D01*
X345440Y990981D02*
Y994283D01*
X330581Y992632D02*
X333883D01*
X332232Y990981D02*
Y994283D01*
X356489Y897128D02*
X359791D01*
X358140Y895477D02*
Y898779D01*
X308483Y896366D02*
X311785D01*
X310134Y894715D02*
Y898017D01*
X300355Y896112D02*
X303657D01*
X302006Y894461D02*
Y897763D01*
X222164Y730964D02*
X225466D01*
X223815Y729313D02*
Y732615D01*
X534226Y776541D02*
X537528D01*
X535877Y774890D02*
Y778192D01*
X501730Y797456D02*
X505032D01*
X503381Y795805D02*
Y799107D01*
X501904Y788353D02*
X505206D01*
X503555Y786702D02*
Y790004D01*
X549696Y839041D02*
X552998D01*
X551347Y837390D02*
Y840692D01*
X539576Y842319D02*
X542878D01*
X541227Y840668D02*
Y843970D01*
X103505Y865642D02*
X106807D01*
X105156Y863991D02*
Y867293D01*
X72503Y725997D02*
X75806D01*
X74155Y724346D02*
Y727648D01*
X317166Y685753D02*
X320468D01*
X318817Y684102D02*
Y687404D01*
X272204Y659802D02*
X275506D01*
X273855Y658151D02*
Y661453D01*
X293117Y652526D02*
X296419D01*
X294768Y650875D02*
Y654177D01*
X319437Y659924D02*
X322739D01*
X321088Y658273D02*
Y661575D01*
X324046Y655556D02*
X327348D01*
X325697Y653905D02*
Y657207D01*
X308046Y659123D02*
X311348D01*
X309697Y657472D02*
Y660774D01*
X320340Y642857D02*
X323642D01*
X321991Y641206D02*
Y644508D01*
X297053Y678873D02*
X300355D01*
X298704Y677222D02*
Y680524D01*
X174530Y606457D02*
X177832D01*
X176181Y604806D02*
Y608108D01*
X441906Y832685D02*
X445208D01*
X443557Y831034D02*
Y834336D01*
X330708Y717423D02*
X334010D01*
X332359Y715772D02*
Y719074D01*
X151765Y724154D02*
X155067D01*
X153416Y722503D02*
Y725805D01*
X324485Y896620D02*
X327787D01*
X326136Y894969D02*
Y898271D01*
X293497Y896874D02*
X296799D01*
X295148Y895223D02*
Y898525D01*
X213995Y798322D02*
X217297D01*
X215646Y796671D02*
Y799973D01*
X212471Y834390D02*
X215773D01*
X214122Y832739D02*
Y836041D01*
X64891Y733687D02*
X68193D01*
X66542Y732036D02*
Y735338D01*
X62661Y719188D02*
X65963D01*
X64312Y717537D02*
Y720839D01*
X123571Y658062D02*
X126873D01*
X125222Y656411D02*
Y659713D01*
X34417Y724154D02*
X37719D01*
X36068Y722503D02*
Y725805D01*
X174347Y771593D02*
X177649D01*
X175998Y769942D02*
Y773244D01*
X276225Y790194D02*
X279527D01*
X277876Y788543D02*
Y791845D01*
X270637Y790194D02*
X273939D01*
X272288Y788543D02*
Y791845D01*
X247649Y815340D02*
X250951D01*
X249300Y813689D02*
Y816991D01*
X57133Y743114D02*
X60435D01*
X58784Y741463D02*
Y744765D01*
X32131Y732536D02*
X35433D01*
X33782Y730885D02*
Y734187D01*
X187855Y620290D02*
X191157D01*
X189506Y618639D02*
Y621941D01*
X193134Y604647D02*
X196436D01*
X194785Y602996D02*
Y606298D01*
X314422Y733649D02*
X317724D01*
X316073Y731998D02*
Y735300D01*
X442087Y-317246D02*
X445389D01*
X443738Y-318897D02*
Y-315595D01*
X167402Y581056D02*
X170704D01*
X169053Y579405D02*
Y582707D01*
X219329Y586994D02*
X222631D01*
X220980Y585343D02*
Y588645D01*
X303331Y642611D02*
X306633D01*
X304982Y640960D02*
Y644262D01*
X326771Y675386D02*
X330073D01*
X328422Y673735D02*
Y677037D01*
X334200Y656399D02*
X337502D01*
X335851Y654748D02*
Y658050D01*
X337987Y643024D02*
X341289D01*
X339638Y641373D02*
Y644675D01*
X225679Y624967D02*
X228981D01*
X227330Y623316D02*
Y626618D01*
X219075Y627126D02*
X222377D01*
X220726Y625475D02*
Y628777D01*
X155852Y594360D02*
X159154D01*
X157503Y592709D02*
Y596011D01*
X144399Y595122D02*
X147701D01*
X146050Y593471D02*
Y596773D01*
X39204Y713217D02*
X42506D01*
X40855Y711566D02*
Y714868D01*
X45253Y751078D02*
X48555D01*
X46904Y749427D02*
Y752729D01*
X120015Y897636D02*
X123317D01*
X121666Y895985D02*
Y899287D01*
X131699Y897636D02*
X135001D01*
X133350Y895985D02*
Y899287D01*
X6985Y796798D02*
X10287D01*
X8636Y795147D02*
Y798449D01*
X6985Y804926D02*
X10287D01*
X8636Y803275D02*
Y806577D01*
X6985Y812800D02*
X10287D01*
X8636Y811149D02*
Y814451D01*
X6985Y821944D02*
X10287D01*
X8636Y820293D02*
Y823595D01*
X6985Y830580D02*
X10287D01*
X8636Y828929D02*
Y832231D01*
X6985Y840486D02*
X10287D01*
X8636Y838835D02*
Y842137D01*
X6731Y849376D02*
X10033D01*
X8382Y847725D02*
Y851027D01*
X7239Y859028D02*
X10541D01*
X8890Y857377D02*
Y860679D01*
X6985Y868426D02*
X10287D01*
X8636Y866775D02*
Y870077D01*
X6985Y878332D02*
X10287D01*
X8636Y876681D02*
Y879983D01*
X6985Y887476D02*
X10287D01*
X8636Y885825D02*
Y889127D01*
X6985Y896874D02*
X10287D01*
X8636Y895223D02*
Y898525D01*
X322707Y970280D02*
X326009D01*
X324358Y968629D02*
Y971931D01*
X322707Y977900D02*
X326009D01*
X324358Y976249D02*
Y979551D01*
X322707Y904748D02*
X326009D01*
X324358Y903097D02*
Y906399D01*
X322453Y914400D02*
X325755D01*
X324104Y912749D02*
Y916051D01*
X322707Y923036D02*
X326009D01*
X324358Y921385D02*
Y924687D01*
X322707Y931164D02*
X326009D01*
X324358Y929513D02*
Y932815D01*
X322707Y938530D02*
X326009D01*
X324358Y936879D02*
Y940181D01*
X322707Y946150D02*
X326009D01*
X324358Y944499D02*
Y947801D01*
X322707Y954278D02*
X326009D01*
X324358Y952627D02*
Y955929D01*
X322707Y961898D02*
X326009D01*
X324358Y960247D02*
Y963549D01*
X322707Y985012D02*
X326009D01*
X324358Y983361D02*
Y986663D01*
X322707Y992886D02*
X326009D01*
X324358Y991235D02*
Y994537D01*
X1075010Y-174384D02*
X1078312D01*
X1076661Y-176035D02*
Y-172733D01*
X1386713Y255778D02*
X1390015D01*
X1388364Y254127D02*
Y257429D01*
X1431925Y173736D02*
X1435227D01*
X1433576Y172085D02*
Y175387D01*
X1527683Y183642D02*
X1530985D01*
X1529334Y181991D02*
Y185293D01*
X1178941Y76835D02*
X1182243D01*
X1180592Y75184D02*
Y78486D01*
X1763649Y614837D02*
X1766951D01*
X1765300Y613186D02*
Y616488D01*
X1603121Y-7493D02*
X1606423D01*
X1604772Y-9144D02*
Y-5842D01*
X367919Y-166116D02*
X371221D01*
X369570Y-167767D02*
Y-164465D01*
X463677Y-29210D02*
X466979D01*
X465328Y-30861D02*
Y-27559D01*
X821055Y218694D02*
X824357D01*
X822706Y217043D02*
Y220345D01*
X659641Y398272D02*
X662943D01*
X661292Y396621D02*
Y399923D01*
X214249Y-151638D02*
X217551D01*
X215900Y-153289D02*
Y-149987D01*
X350393Y776732D02*
X353695D01*
X352044Y775081D02*
Y778383D01*
X333375Y896620D02*
X336677D01*
X335026Y894969D02*
Y898271D01*
X363855Y897128D02*
X367157D01*
X365506Y895477D02*
Y898779D01*
X316357Y896620D02*
X319659D01*
X318008Y894969D02*
Y898271D01*
X285369Y896874D02*
X288671D01*
X287020Y895223D02*
Y898525D01*
X242697Y897890D02*
X245999D01*
X244348Y896239D02*
Y899541D01*
X233553Y897890D02*
X236855D01*
X235204Y896239D02*
Y899541D01*
X844677Y183388D02*
X847979D01*
X846328Y181737D02*
Y185039D01*
X1535557Y199898D02*
X1538859D01*
X1537208Y198247D02*
Y201549D01*
X368173Y-400558D02*
X371475D01*
X369824Y-402209D02*
Y-398907D01*
X354203Y-116078D02*
X357505D01*
X355854Y-117729D02*
Y-114427D01*
X77851Y325882D02*
X81153D01*
X79502Y324231D02*
Y327533D01*
X354965Y-422910D02*
X358267D01*
X356616Y-424561D02*
Y-421259D01*
X1622933Y-209296D02*
X1626235D01*
X1624584Y-210947D02*
Y-207645D01*
X964311Y-177878D02*
X967613D01*
X965962Y-179529D02*
Y-176227D01*
X1188085Y217170D02*
X1191387D01*
X1189736Y215519D02*
Y218821D01*
X1029589Y393446D02*
X1032891D01*
X1031240Y391795D02*
Y395097D01*
X1176563Y441325D02*
X1179865D01*
X1178214Y439674D02*
Y442976D01*
X1014603Y419950D02*
X1017905D01*
X1016254Y418299D02*
Y421601D01*
X1008253Y629833D02*
X1011555D01*
X1009904Y628182D02*
Y631484D01*
X314325Y839470D02*
X317627D01*
X315976Y837819D02*
Y841121D01*
X302641Y816610D02*
X305943D01*
X304292Y814959D02*
Y818261D01*
X333883Y843280D02*
X337185D01*
X335534Y841629D02*
Y844931D01*
X330835Y743443D02*
X334137D01*
X332486Y741792D02*
Y745094D01*
X378333Y876300D02*
X381635D01*
X379984Y874649D02*
Y877951D01*
X1409065Y842137D02*
X1412367D01*
X1410716Y840486D02*
Y843788D01*
X392049Y346710D02*
X395351D01*
X393700Y345059D02*
Y348361D01*
X175634Y519430D02*
X178936D01*
X177285Y517779D02*
Y521081D01*
X471117Y810440D02*
X474419D01*
X472768Y808789D02*
Y812091D01*
X497459Y776478D02*
X500761D01*
X499110Y774827D02*
Y778129D01*
X537598Y783837D02*
X540900D01*
X539249Y782186D02*
Y785488D01*
X303534Y797175D02*
X306836D01*
X305185Y795524D02*
Y798826D01*
X603250Y793188D02*
X606552D01*
X604901Y791537D02*
Y794839D01*
X264414Y338709D02*
X267716D01*
X266065Y337058D02*
Y340360D01*
X335215Y779646D02*
X338517D01*
X336866Y777995D02*
Y781297D01*
X151765Y565150D02*
X155067D01*
X153416Y563499D02*
Y566801D01*
X124587Y473964D02*
X127889D01*
X126238Y472313D02*
Y475615D01*
X123317Y443230D02*
X126619D01*
X124968Y441579D02*
Y444881D01*
X30099Y147066D02*
X33401D01*
X31750Y145415D02*
Y148717D01*
X284753Y806951D02*
X288055D01*
X286404Y805300D02*
Y808602D01*
X1308227Y-218440D02*
X1311529D01*
X1309878Y-220091D02*
Y-216789D01*
X1315593Y-172720D02*
X1318895D01*
X1317244Y-174371D02*
Y-171069D01*
X707517Y839470D02*
X710819D01*
X709168Y837819D02*
Y841121D01*
X822084Y587743D02*
X825386D01*
X823735Y586092D02*
Y589394D01*
X1386713Y214503D02*
X1390015D01*
X1388364Y212852D02*
Y216154D01*
X589153Y61722D02*
X592455D01*
X590804Y60071D02*
Y63373D01*
X1798159Y162071D02*
X1801461D01*
X1799810Y160420D02*
Y163722D01*
X1640713Y-29718D02*
X1644015D01*
X1642364Y-31369D02*
Y-28067D01*
X828929Y205994D02*
X832231D01*
X830580Y204343D02*
Y207645D01*
X595200Y-316787D02*
X598502D01*
X596851Y-318438D02*
Y-315136D01*
X552418Y-338423D02*
X555720D01*
X554069Y-340074D02*
Y-336772D01*
X579247Y-360934D02*
X582549D01*
X580898Y-362585D02*
Y-359283D01*
X1224153Y560324D02*
X1227455D01*
X1225804Y558673D02*
Y561975D01*
X836803Y573786D02*
X840105D01*
X838454Y572135D02*
Y575437D01*
X657479Y576072D02*
X660781D01*
X659130Y574421D02*
Y577723D01*
X543179Y519430D02*
X546481D01*
X544830Y517779D02*
Y521081D01*
X655447Y382270D02*
X658749D01*
X657098Y380619D02*
Y383921D01*
X620141Y338328D02*
X623443D01*
X621792Y336677D02*
Y339979D01*
X874141Y381508D02*
X877443D01*
X875792Y379857D02*
Y383159D01*
X1246759Y459486D02*
X1250061D01*
X1248410Y457835D02*
Y461137D01*
X1028319Y583184D02*
X1031621D01*
X1029970Y581533D02*
Y584835D01*
X1772539Y178054D02*
X1775841D01*
X1774190Y176403D02*
Y179705D01*
X1600581Y-29210D02*
X1603883D01*
X1602232Y-30861D02*
Y-27559D01*
X1460119Y-16002D02*
X1463421D01*
X1461770Y-17653D02*
Y-14351D01*
X1407274Y-2966D02*
X1410576D01*
X1408925Y-4617D02*
Y-1315D01*
X1402754Y201868D02*
X1406056D01*
X1404405Y200217D02*
Y203519D01*
X1203833Y209296D02*
X1207135D01*
X1205484Y207645D02*
Y210947D01*
X1236556Y212809D02*
X1239858D01*
X1238207Y211158D02*
Y214460D01*
X1014349Y190754D02*
X1017651D01*
X1016000Y189103D02*
Y192405D01*
X812863Y190119D02*
X816165D01*
X814514Y188468D02*
Y191770D01*
X786003Y193294D02*
X789305D01*
X787654Y191643D02*
Y194945D01*
X876935Y197358D02*
X880237D01*
X878586Y195707D02*
Y199009D01*
X1200912Y22352D02*
X1204214D01*
X1202563Y20701D02*
Y24003D01*
X1237361Y17272D02*
X1240663D01*
X1239012Y15621D02*
Y18923D01*
X1207135Y34808D02*
X1210437D01*
X1208786Y33157D02*
Y36459D01*
X681863Y0D02*
X685165D01*
X683514Y-1651D02*
Y1651D01*
X644271Y7366D02*
X647573D01*
X645922Y5715D02*
Y9017D01*
X1411097Y363728D02*
X1414399D01*
X1412748Y362077D02*
Y365379D01*
X1415669Y545338D02*
X1418971D01*
X1417320Y543687D02*
Y546989D01*
X1786763Y209804D02*
X1790065D01*
X1788414Y208153D02*
Y211455D01*
X1030859Y175768D02*
X1034161D01*
X1032510Y174117D02*
Y177419D01*
X1797177Y604774D02*
X1800479D01*
X1798828Y603123D02*
Y606425D01*
X1222629Y175260D02*
X1225931D01*
X1224280Y173609D02*
Y176911D01*
X1634109Y371348D02*
X1637411D01*
X1635760Y369697D02*
Y372999D01*
X1415669Y134620D02*
X1418971D01*
X1417320Y132969D02*
Y136271D01*
X1110869Y17780D02*
X1114171D01*
X1112520Y16129D02*
Y19431D01*
X1159670Y34808D02*
X1162972D01*
X1161321Y33157D02*
Y36459D01*
X1178941Y43688D02*
X1182243D01*
X1180592Y42037D02*
Y45339D01*
X1007237Y1524D02*
X1010539D01*
X1008888Y-127D02*
Y3175D01*
X1002157Y21336D02*
X1005459D01*
X1003808Y19685D02*
Y22987D01*
X1118489Y-161290D02*
X1121791D01*
X1120140Y-162941D02*
Y-159639D01*
X934593Y-157480D02*
X937895D01*
X936244Y-159131D02*
Y-155829D01*
X913003Y-168656D02*
X916305D01*
X914654Y-170307D02*
Y-167005D01*
X1286129Y-186690D02*
X1289431D01*
X1287780Y-188341D02*
Y-185039D01*
X1456563Y-216154D02*
X1459865D01*
X1458214Y-217805D02*
Y-214503D01*
X1456563Y-198628D02*
X1459865D01*
X1458214Y-200279D02*
Y-196977D01*
X1574419Y-217932D02*
X1577721D01*
X1576070Y-219583D02*
Y-216281D01*
X1086231Y-207772D02*
X1089533D01*
X1087882Y-209423D02*
Y-206121D01*
X1221105Y-15240D02*
X1224407D01*
X1222756Y-16891D02*
Y-13589D01*
X1396873Y-212598D02*
X1400175D01*
X1398524Y-214249D02*
Y-210947D01*
X1411859Y-24892D02*
X1415161D01*
X1413510Y-26543D02*
Y-23241D01*
X1576705Y-203200D02*
X1580007D01*
X1578356Y-204851D02*
Y-201549D01*
X665099Y-34544D02*
X668401D01*
X666750Y-36195D02*
Y-32893D01*
X469519Y-437642D02*
X472821D01*
X471170Y-439293D02*
Y-435991D01*
X449453Y-436372D02*
X452755D01*
X451104Y-438023D02*
Y-434721D01*
X389763Y-181102D02*
X393065D01*
X391414Y-182753D02*
Y-179451D01*
X300101Y-165354D02*
X303403D01*
X301752Y-167005D02*
Y-163703D01*
X308229Y-110490D02*
X311531D01*
X309880Y-112141D02*
Y-108839D01*
X283337Y-81534D02*
X286639D01*
X284988Y-83185D02*
Y-79883D01*
X231775Y-108712D02*
X235077D01*
X233426Y-110363D02*
Y-107061D01*
X461645Y-387858D02*
X464947D01*
X463296Y-389509D02*
Y-386207D01*
X486029Y-399034D02*
X489331D01*
X487680Y-400685D02*
Y-397383D01*
X620903Y43942D02*
X624205D01*
X622554Y42291D02*
Y45593D01*
X577723Y341122D02*
X581025D01*
X579374Y339471D02*
Y342773D01*
X600075Y363982D02*
X603377D01*
X601726Y362331D02*
Y365633D01*
X828929Y407045D02*
X832231D01*
X830580Y405394D02*
Y408696D01*
X703453Y384556D02*
X706755D01*
X705104Y382905D02*
Y386207D01*
X881253Y400050D02*
X884555D01*
X882904Y398399D02*
Y401701D01*
X841375Y401066D02*
X844677D01*
X843026Y399415D02*
Y402717D01*
X1072261Y417830D02*
X1075563D01*
X1073912Y416179D02*
Y419481D01*
X1040511Y423164D02*
X1043813D01*
X1042162Y421513D02*
Y424815D01*
X1230855Y435102D02*
X1234157D01*
X1232506Y433451D02*
Y436753D01*
X1458595Y359410D02*
X1461897D01*
X1460246Y357759D02*
Y361061D01*
X1413129Y385064D02*
X1416431D01*
X1414780Y383413D02*
Y386715D01*
X1686433Y357632D02*
X1689735D01*
X1688084Y355981D02*
Y359283D01*
X1642237Y345268D02*
X1645539D01*
X1643888Y343617D02*
Y346919D01*
X1781315Y605904D02*
X1784617D01*
X1782966Y604253D02*
Y607555D01*
X1462151Y558292D02*
X1465453D01*
X1463802Y556641D02*
Y559943D01*
X1415161Y562356D02*
X1418463D01*
X1416812Y560705D02*
Y564007D01*
X1266825Y589788D02*
X1270127D01*
X1268476Y588137D02*
Y591439D01*
X1225931Y593344D02*
X1229233D01*
X1227582Y591693D02*
Y594995D01*
X1076579Y601980D02*
X1079881D01*
X1078230Y600329D02*
Y603631D01*
X1044321Y608076D02*
X1047623D01*
X1045972Y606425D02*
Y609727D01*
X884555Y577342D02*
X887857D01*
X886206Y575691D02*
Y578993D01*
X837884Y594743D02*
X841186D01*
X839535Y593092D02*
Y596394D01*
X524129Y549910D02*
X527431D01*
X525780Y548259D02*
Y551561D01*
X706755Y577088D02*
X710057D01*
X708406Y575437D02*
Y578739D01*
X664845Y559308D02*
X668147D01*
X666496Y557657D02*
Y560959D01*
X562229Y551942D02*
X565531D01*
X563880Y550291D02*
Y553593D01*
X698373Y789178D02*
X701675D01*
X700024Y787527D02*
Y790829D01*
X645541Y782955D02*
X648843D01*
X647192Y781304D02*
Y784606D01*
X622427Y795401D02*
X625729D01*
X624078Y793750D02*
Y797052D01*
X483489Y245110D02*
X486791D01*
X485140Y243459D02*
Y246761D01*
X380873Y836168D02*
X384175D01*
X382524Y834517D02*
Y837819D01*
X354654Y836168D02*
X357956D01*
X356305Y834517D02*
Y837819D01*
X284968Y380893D02*
X288270D01*
X286619Y379242D02*
Y382544D01*
X288417Y815594D02*
X291719D01*
X290068Y813943D02*
Y817245D01*
X250063Y415544D02*
X253365D01*
X251714Y413893D02*
Y417195D01*
X304673Y494538D02*
X307975D01*
X306324Y492887D02*
Y496189D01*
X226441Y419354D02*
X229743D01*
X228092Y417703D02*
Y421005D01*
X300101Y411988D02*
X303403D01*
X301752Y410337D02*
Y413639D01*
X634619Y364490D02*
X637921D01*
X636270Y362839D02*
Y366141D01*
X1188847Y233172D02*
X1192149D01*
X1190498Y231521D02*
Y234823D01*
X223393Y897890D02*
X226695D01*
X225044Y896239D02*
Y899541D01*
X212217Y897636D02*
X215519D01*
X213868Y895985D02*
Y899287D01*
X192405Y897636D02*
X195707D01*
X194056Y895985D02*
Y899287D01*
X180721Y897636D02*
X184023D01*
X182372Y895985D02*
Y899287D01*
X169037Y897636D02*
X172339D01*
X170688Y895985D02*
Y899287D01*
X156845Y897636D02*
X160147D01*
X158496Y895985D02*
Y899287D01*
X144399Y897636D02*
X147701D01*
X146050Y895985D02*
Y899287D01*
X107315Y897636D02*
X110617D01*
X108966Y895985D02*
Y899287D01*
X94615Y897636D02*
X97917D01*
X96266Y895985D02*
Y899287D01*
X81915Y897636D02*
X85217D01*
X83566Y895985D02*
Y899287D01*
X69215Y897636D02*
X72517D01*
X70866Y895985D02*
Y899287D01*
X56515Y897636D02*
X59817D01*
X58166Y895985D02*
Y899287D01*
X43815Y897636D02*
X47117D01*
X45466Y895985D02*
Y899287D01*
X31115Y897636D02*
X34417D01*
X32766Y895985D02*
Y899287D01*
X18415Y897636D02*
X21717D01*
X20066Y895985D02*
Y899287D01*
X1389507Y66548D02*
X1392809D01*
X1391158Y64897D02*
Y68199D01*
X1389507Y19812D02*
X1392809D01*
X1391158Y18161D02*
Y21463D01*
X735965Y764540D02*
X739267D01*
X737616Y762889D02*
Y766191D01*
X975999Y804925D02*
X979301D01*
X977650Y803274D02*
Y806576D01*
X993521Y786384D02*
X996823D01*
X995172Y784733D02*
Y788035D01*
X637667Y699008D02*
X640969D01*
X639318Y697357D02*
Y700659D01*
X638175Y588264D02*
X641477D01*
X639826Y586613D02*
Y589915D01*
X634619Y379476D02*
X637921D01*
X636270Y377825D02*
Y381127D01*
X638937Y262636D02*
X642239D01*
X640588Y260985D02*
Y264287D01*
X635127Y226314D02*
X638429D01*
X636778Y224663D02*
Y227965D01*
X640207Y76454D02*
X643509D01*
X641858Y74803D02*
Y78105D01*
X632079Y53848D02*
X635381D01*
X633730Y52197D02*
Y55499D01*
X427863Y-27178D02*
X431165D01*
X429514Y-28829D02*
Y-25527D01*
X810248Y56019D02*
X813550D01*
X811899Y54368D02*
Y57670D01*
X1416939Y772668D02*
X1420241D01*
X1418590Y771017D02*
Y774319D01*
X268605Y490474D02*
X271907D01*
X270256Y488823D02*
Y492125D01*
X263271Y431546D02*
X266573D01*
X264922Y429895D02*
Y433197D01*
X1014095Y38354D02*
X1017397D01*
X1015746Y36703D02*
Y40005D01*
X1179703Y640842D02*
X1183005D01*
X1181354Y639191D02*
Y642493D01*
X1179703Y625602D02*
X1183005D01*
X1181354Y623951D02*
Y627253D01*
X1176655Y456692D02*
X1179957D01*
X1178306Y455041D02*
Y458343D01*
X1387475Y636016D02*
X1390777D01*
X1389126Y634365D02*
Y637667D01*
X1387475Y599694D02*
X1390777D01*
X1389126Y598043D02*
Y601345D01*
X1386713Y445516D02*
X1390015D01*
X1388364Y443865D02*
Y447167D01*
X1385443Y408432D02*
X1388745D01*
X1387094Y406781D02*
Y410083D01*
X63881Y799338D02*
X67183D01*
X65532Y797687D02*
Y800989D01*
X333375Y790956D02*
X336677D01*
X335026Y789305D02*
Y792607D01*
X289306Y636143D02*
X292608D01*
X290957Y634492D02*
Y637794D01*
X108946Y264307D02*
X112248D01*
X110597Y262656D02*
Y265958D01*
X415671Y637032D02*
X418973D01*
X417322Y635381D02*
Y638683D01*
X336550Y375031D02*
X339852D01*
X338201Y373380D02*
Y376682D01*
X283464Y337947D02*
X286766D01*
X285115Y336296D02*
Y339598D01*
X76852Y251189D02*
X80154D01*
X78502Y249538D02*
Y252840D01*
X260985Y383794D02*
X264287D01*
X262636Y382143D02*
Y385445D01*
X810133Y33020D02*
X813435D01*
X811784Y31369D02*
Y34671D01*
X820039Y237490D02*
X823341D01*
X821690Y235839D02*
Y239141D01*
X829437Y425704D02*
X832739D01*
X831088Y424053D02*
Y427355D01*
X824357Y607822D02*
X827659D01*
X826008Y606171D02*
Y609473D01*
X1009523Y608330D02*
X1012825D01*
X1011174Y606679D02*
Y609981D01*
X1014095Y436626D02*
X1017397D01*
X1015746Y434975D02*
Y438277D01*
X1018159Y246634D02*
X1021461D01*
X1019810Y244983D02*
Y248285D01*
X1019683Y228600D02*
X1022985D01*
X1021334Y226949D02*
Y230251D01*
X1013587Y58969D02*
X1016889D01*
X1015238Y57318D02*
Y60620D01*
X53721Y769112D02*
X57023D01*
X55372Y767461D02*
Y770763D01*
X407221Y662050D02*
X410523D01*
X408872Y660399D02*
Y663701D01*
X155957Y822073D02*
X159260D01*
X157608Y820422D02*
Y823724D01*
X147447Y821944D02*
X150749D01*
X149098Y820293D02*
Y823595D01*
X103505Y849376D02*
X106807D01*
X105156Y847725D02*
Y851027D01*
X1572387Y217678D02*
X1575689D01*
X1574038Y216027D02*
Y219329D01*
X1745993Y-199006D02*
X1749295D01*
X1747644Y-200657D02*
Y-197355D01*
X454025Y844804D02*
X457327D01*
X455676Y843153D02*
Y846455D01*
X180975Y353314D02*
X184277D01*
X182626Y351663D02*
Y354965D01*
X377063Y641604D02*
X380365D01*
X378714Y639953D02*
Y643255D01*
X302974Y765685D02*
X306276D01*
X304625Y764034D02*
Y767336D01*
X291465Y798576D02*
X294767D01*
X293116Y796925D02*
Y800227D01*
X359791Y922274D02*
X363093D01*
X361442Y920623D02*
Y923925D01*
X457073Y545846D02*
X460375D01*
X458724Y544195D02*
Y547497D01*
X444300Y721179D02*
X447602D01*
X445951Y719528D02*
Y722830D01*
X413385Y924814D02*
X416687D01*
X415036Y923163D02*
Y926465D01*
X426339Y987552D02*
X429641D01*
X427990Y985901D02*
Y989203D01*
X339471Y987298D02*
X342773D01*
X341122Y985647D02*
Y988949D01*
X734881Y819561D02*
X738183D01*
X736532Y817910D02*
Y821212D01*
X1583324Y596377D02*
X1586626D01*
X1584975Y594726D02*
Y598028D01*
X460629Y613918D02*
X463931D01*
X462280Y612267D02*
Y615569D01*
X396621Y573278D02*
X399923D01*
X398272Y571627D02*
Y574929D01*
X78359Y276352D02*
X81661D01*
X80010Y274701D02*
Y278003D01*
X86741Y280670D02*
X90043D01*
X88392Y279019D02*
Y282321D01*
X1577721Y393446D02*
X1581023D01*
X1579372Y391795D02*
Y395097D01*
X1586998Y810514D02*
X1590300D01*
X1588649Y808863D02*
Y812165D01*
X1600327Y785876D02*
X1603629D01*
X1601978Y784225D02*
Y787527D01*
X1577213Y541528D02*
X1580515D01*
X1578864Y539877D02*
Y543179D01*
X1576959Y415036D02*
X1580261D01*
X1578610Y413385D02*
Y416687D01*
X1573403Y195834D02*
X1576705D01*
X1575054Y194183D02*
Y197485D01*
X1574927Y25654D02*
X1578229D01*
X1576578Y24003D02*
Y27305D01*
X1574165Y9652D02*
X1577467D01*
X1575816Y8001D02*
Y11303D01*
X550291Y797814D02*
X553593D01*
X551942Y796163D02*
Y799465D01*
M02*
