G04*
G04 #@! TF.GenerationSoftware,Altium Limited,Altium Designer,24.10.1 (45)*
G04*
G04 Layer_Color=16711935*
%FSLAX44Y44*%
%MOMM*%
G71*
G04*
G04 #@! TF.SameCoordinates,3551A3A7-0B07-42EA-8A9A-C0D20DE36A30*
G04*
G04*
G04 #@! TF.FilePolarity,Negative*
G04*
G01*
G75*
%ADD99R,1.1032X1.1032*%
%ADD142C,0.7032*%
%ADD143R,1.5112X1.5112*%
%ADD144C,1.5112*%
%ADD145C,4.7752*%
%ADD146C,0.2032*%
%ADD147R,1.8532X1.8532*%
%ADD148C,1.8532*%
%ADD149O,3.2032X6.2032*%
%ADD150C,1.8032*%
%ADD151R,1.8032X1.8032*%
G04:AMPARAMS|DCode=152|XSize=1.5112mm|YSize=1.5112mm|CornerRadius=0.4286mm|HoleSize=0mm|Usage=FLASHONLY|Rotation=90.000|XOffset=0mm|YOffset=0mm|HoleType=Round|Shape=RoundedRectangle|*
%AMROUNDEDRECTD152*
21,1,1.5112,0.6540,0,0,90.0*
21,1,0.6540,1.5112,0,0,90.0*
1,1,0.8572,0.3270,0.3270*
1,1,0.8572,0.3270,-0.3270*
1,1,0.8572,-0.3270,-0.3270*
1,1,0.8572,-0.3270,0.3270*
%
%ADD152ROUNDEDRECTD152*%
%ADD153O,1.9032X1.1032*%
%ADD154O,2.2032X1.1032*%
%ADD155C,0.8032*%
%ADD156R,1.6412X1.6412*%
%ADD157C,1.6412*%
%ADD158C,2.4682*%
%ADD159C,0.7366*%
%ADD191R,2.3032X1.6032*%
D99*
X1127608Y-110388D02*
D03*
Y-129388D02*
D03*
X1108608D02*
D03*
Y-110388D02*
D03*
X1299696Y-121462D02*
D03*
Y-140462D02*
D03*
X1318696D02*
D03*
Y-121462D02*
D03*
X1507418Y-157712D02*
D03*
Y-176712D02*
D03*
X1488418D02*
D03*
Y-157712D02*
D03*
X536600Y388214D02*
D03*
Y369214D02*
D03*
X555600D02*
D03*
Y388214D02*
D03*
X1510894Y415138D02*
D03*
Y396138D02*
D03*
X1491894D02*
D03*
Y415138D02*
D03*
X536078Y104929D02*
D03*
Y85929D02*
D03*
X555078D02*
D03*
Y104929D02*
D03*
X1126846Y82144D02*
D03*
Y63144D02*
D03*
X1107846D02*
D03*
Y82144D02*
D03*
X1298513Y70649D02*
D03*
Y51649D02*
D03*
X1317513D02*
D03*
Y70649D02*
D03*
X1727606Y35916D02*
D03*
Y16916D02*
D03*
X1746606D02*
D03*
Y35916D02*
D03*
X1679600Y-154584D02*
D03*
Y-173584D02*
D03*
X1698600D02*
D03*
Y-154584D02*
D03*
X1488084Y16408D02*
D03*
Y35408D02*
D03*
X1507084D02*
D03*
Y16408D02*
D03*
X1317387Y430761D02*
D03*
Y449761D02*
D03*
X1298387D02*
D03*
Y430761D02*
D03*
X558648Y630530D02*
D03*
Y611530D02*
D03*
X539648D02*
D03*
Y630530D02*
D03*
X728116Y627990D02*
D03*
Y608990D02*
D03*
X747116D02*
D03*
Y627990D02*
D03*
X937108Y640944D02*
D03*
Y621944D02*
D03*
X918108D02*
D03*
Y640944D02*
D03*
X1110132Y656438D02*
D03*
Y637438D02*
D03*
X1129132D02*
D03*
Y656438D02*
D03*
X1321410Y643230D02*
D03*
Y624230D02*
D03*
X1302410D02*
D03*
Y643230D02*
D03*
X1490370Y609448D02*
D03*
Y590448D02*
D03*
X1509370D02*
D03*
Y609448D02*
D03*
X1728114Y587908D02*
D03*
Y606908D02*
D03*
X1747114D02*
D03*
Y587908D02*
D03*
X1727860Y416916D02*
D03*
Y397916D02*
D03*
X1746860D02*
D03*
Y416916D02*
D03*
X1727351Y219948D02*
D03*
Y200948D02*
D03*
X1746351D02*
D03*
Y219948D02*
D03*
X1504544Y217526D02*
D03*
Y198526D02*
D03*
X1485544D02*
D03*
Y217526D02*
D03*
X1300124Y249784D02*
D03*
Y230784D02*
D03*
X1319124D02*
D03*
Y249784D02*
D03*
X1128116Y273152D02*
D03*
Y254152D02*
D03*
X1109116D02*
D03*
Y273152D02*
D03*
X917092Y258928D02*
D03*
Y239928D02*
D03*
X936092D02*
D03*
Y258928D02*
D03*
X745084Y247244D02*
D03*
Y228244D02*
D03*
X726084D02*
D03*
Y247244D02*
D03*
X729255Y36585D02*
D03*
Y55585D02*
D03*
X748255D02*
D03*
Y36585D02*
D03*
X921295Y68630D02*
D03*
Y49630D02*
D03*
X940295D02*
D03*
Y68630D02*
D03*
X644754Y-260248D02*
D03*
Y-279248D02*
D03*
X625754D02*
D03*
Y-260248D02*
D03*
X220606Y-78591D02*
D03*
Y-97591D02*
D03*
X201606D02*
D03*
Y-78591D02*
D03*
X300076Y-255422D02*
D03*
Y-274422D02*
D03*
X281076D02*
D03*
Y-255422D02*
D03*
X388468Y-429920D02*
D03*
Y-448920D02*
D03*
X369468D02*
D03*
Y-429920D02*
D03*
X454304Y-326288D02*
D03*
Y-345288D02*
D03*
X473304D02*
D03*
Y-326288D02*
D03*
X934902Y-121339D02*
D03*
Y-140339D02*
D03*
X915902D02*
D03*
Y-121339D02*
D03*
X352908Y-70256D02*
D03*
Y-89256D02*
D03*
X333908D02*
D03*
Y-70256D02*
D03*
X1110894Y465430D02*
D03*
Y446430D02*
D03*
X1129894D02*
D03*
Y465430D02*
D03*
X937162Y450872D02*
D03*
Y431872D02*
D03*
X918163D02*
D03*
Y450872D02*
D03*
X730762Y438151D02*
D03*
Y419151D02*
D03*
X749762D02*
D03*
Y438151D02*
D03*
D142*
X265370Y780314D02*
D03*
X276546D02*
D03*
Y769392D02*
D03*
X276292Y758724D02*
D03*
Y747548D02*
D03*
X265624D02*
D03*
X265370Y758724D02*
D03*
Y769138D02*
D03*
X254194D02*
D03*
X254448Y758978D02*
D03*
X254194Y747802D02*
D03*
Y780314D02*
D03*
X243526Y780568D02*
D03*
Y769138D02*
D03*
X243272Y758724D02*
D03*
X243018Y747802D02*
D03*
D143*
X333398Y556602D02*
D03*
D144*
X313398D02*
D03*
X293398D02*
D03*
X273398D02*
D03*
X253398D02*
D03*
X233398D02*
D03*
X213398D02*
D03*
X193398D02*
D03*
X136144Y337458D02*
D03*
Y362458D02*
D03*
D145*
X36576Y869950D02*
D03*
X782574Y-330962D02*
D03*
D146*
X297942Y-510249D02*
D03*
X288189Y-442557D02*
D03*
X521716Y192532D02*
D03*
X585216Y167132D02*
D03*
X317246Y16002D02*
D03*
X380746Y-9398D02*
D03*
X138565Y-163575D02*
D03*
X128812Y-95883D02*
D03*
X438373Y-243096D02*
D03*
X501874Y-268496D02*
D03*
X610870Y-163322D02*
D03*
X674370Y-188722D02*
D03*
X900914Y-34026D02*
D03*
X964414Y-59426D02*
D03*
X1091946Y-17272D02*
D03*
X1155446Y-42672D02*
D03*
X1282700Y-33274D02*
D03*
X1346200Y-58674D02*
D03*
X1710544Y124725D02*
D03*
X1774044Y99325D02*
D03*
X1711706Y506730D02*
D03*
X1775206Y481330D02*
D03*
X1712468Y697738D02*
D03*
X1775968Y672338D02*
D03*
X1475486Y696468D02*
D03*
X1538986Y671068D02*
D03*
X1283714Y729715D02*
D03*
X1347213Y704315D02*
D03*
X1093216Y745744D02*
D03*
X1156716Y720344D02*
D03*
X902716Y729488D02*
D03*
X966216Y704088D02*
D03*
X710412Y715254D02*
D03*
X773912Y689854D02*
D03*
X521462Y478790D02*
D03*
X584962Y453390D02*
D03*
X1726419Y-91177D02*
D03*
X1662919Y-65777D02*
D03*
X1535918Y-91177D02*
D03*
X1472418Y-65777D02*
D03*
X1535918Y99325D02*
D03*
X1472418Y124725D02*
D03*
X1347213Y132811D02*
D03*
X1283714Y158211D02*
D03*
X1156208Y147320D02*
D03*
X1092708Y172720D02*
D03*
X966210Y132811D02*
D03*
X902710Y158211D02*
D03*
X776478Y120396D02*
D03*
X712978Y145796D02*
D03*
X1774044Y289826D02*
D03*
X1710544Y315226D02*
D03*
X1535918Y289826D02*
D03*
X1472418Y315226D02*
D03*
X1345417Y321577D02*
D03*
X1281917Y346977D02*
D03*
X1154915Y337553D02*
D03*
X1091415Y362953D02*
D03*
X964414Y321577D02*
D03*
X900914Y346977D02*
D03*
X774700Y310388D02*
D03*
X711200Y335788D02*
D03*
X1537208Y481330D02*
D03*
X1473708Y506730D02*
D03*
X1347470Y514350D02*
D03*
X1283970Y539750D02*
D03*
X1157732Y529590D02*
D03*
X1094232Y554990D02*
D03*
X966210Y513813D02*
D03*
X902710Y539213D02*
D03*
X775709Y501113D02*
D03*
X712209Y526513D02*
D03*
X585216Y692658D02*
D03*
X521716Y718058D02*
D03*
X210600Y-268349D02*
D03*
X220353Y-336041D02*
D03*
D147*
X64662Y608942D02*
D03*
D148*
X114662D02*
D03*
X64662Y753942D02*
D03*
X89662D02*
D03*
X114662D02*
D03*
D149*
X32662Y678942D02*
D03*
X146662D02*
D03*
D150*
X150876Y876046D02*
D03*
D151*
X176276D02*
D03*
D152*
X136144Y387458D02*
D03*
D153*
X21334Y245080D02*
D03*
Y331580D02*
D03*
D154*
X63034Y245080D02*
D03*
Y331580D02*
D03*
D155*
X58134Y259430D02*
D03*
Y317230D02*
D03*
D156*
X47806Y460690D02*
D03*
D157*
Y440690D02*
D03*
Y420690D02*
D03*
X22806Y460690D02*
D03*
Y440690D02*
D03*
Y420690D02*
D03*
D158*
X35306Y490690D02*
D03*
Y390690D02*
D03*
D159*
X242365Y698674D02*
D03*
X232664Y665734D02*
D03*
X294894Y703326D02*
D03*
X306483Y702723D02*
D03*
X293624Y729742D02*
D03*
X454406Y602742D02*
D03*
X453390Y591820D02*
D03*
X452882Y578358D02*
D03*
X305352Y724613D02*
D03*
X344777Y725043D02*
D03*
X138684Y832104D02*
D03*
X34798Y769112D02*
D03*
X125694Y670778D02*
D03*
X144399Y723900D02*
D03*
X105156Y865642D02*
D03*
X153416Y724154D02*
D03*
X125222Y658062D02*
D03*
X220980Y586994D02*
D03*
X157503Y594360D02*
D03*
X146050Y595122D02*
D03*
X1529334Y183642D02*
D03*
X1537208Y199898D02*
D03*
X355854Y-116078D02*
D03*
X1624584Y-209296D02*
D03*
X55372Y769112D02*
D03*
X157608Y822073D02*
D03*
X149098Y821944D02*
D03*
X105156Y849376D02*
D03*
X1747644Y-199006D02*
D03*
D191*
X338802Y926444D02*
D03*
X429802D02*
D03*
Y971444D02*
D03*
X338802D02*
D03*
M02*
