G04*
G04 #@! TF.GenerationSoftware,Altium Limited,Altium Designer,24.10.1 (45)*
G04*
G04 Layer_Color=16711935*
%FSLAX44Y44*%
%MOMM*%
G71*
G04*
G04 #@! TF.SameCoordinates,3551A3A7-0B07-42EA-8A9A-C0D20DE36A30*
G04*
G04*
G04 #@! TF.FilePolarity,Positive*
G04*
G01*
G75*
%ADD10C,0.2500*%
%ADD11C,0.1000*%
%ADD12C,0.2000*%
%ADD13C,0.2540*%
%ADD16C,0.1270*%
%ADD194C,0.0000*%
%ADD195C,0.0254*%
%ADD196C,0.1540*%
%ADD197C,0.1400*%
D10*
X178816Y869400D02*
Y882396D01*
Y875898D01*
X170152D01*
Y869400D01*
Y882396D01*
X165820Y871566D02*
X163654Y869400D01*
X159322D01*
X157156Y871566D01*
Y873732D01*
X159322Y875898D01*
X161488D01*
X159322D01*
X157156Y878064D01*
Y880230D01*
X159322Y882396D01*
X163654D01*
X165820Y880230D01*
D11*
X291536Y737304D02*
G03*
X291536Y737304I-5000J0D01*
G01*
X87900Y824642D02*
G03*
X87900Y824642I-5000J0D01*
G01*
X262208Y463948D02*
X272208D01*
X262208Y481948D02*
X272208D01*
X262208Y463948D02*
Y481948D01*
X272208Y463948D02*
Y481948D01*
X224536Y799304D02*
X295536D01*
X224536Y728304D02*
X295536D01*
X224536D02*
Y799304D01*
X295536Y728304D02*
Y799304D01*
X264970Y818476D02*
X270970D01*
X264970Y829476D02*
X270970D01*
X264970Y818476D02*
Y829476D01*
X270970Y818476D02*
Y829476D01*
X267804Y835454D02*
Y841454D01*
X278804Y835454D02*
Y841454D01*
X267804D02*
X278804D01*
X267804Y835454D02*
X278804D01*
X264970Y865212D02*
X270970D01*
X264970Y876212D02*
X270970D01*
X264970Y865212D02*
Y876212D01*
X270970Y865212D02*
Y876212D01*
X269066Y704706D02*
X279066D01*
X269066Y686706D02*
X279066D01*
Y704706D01*
X269066Y686706D02*
Y704706D01*
X166696Y738006D02*
X175696D01*
X166696Y755006D02*
X175696D01*
X166696Y738006D02*
Y755006D01*
X175696Y738006D02*
Y755006D01*
X440318Y673282D02*
X457318D01*
X440318Y664282D02*
X457318D01*
X440318D02*
Y673282D01*
X457318Y664282D02*
Y673282D01*
X387422Y645550D02*
Y662550D01*
X396422Y645550D02*
Y662550D01*
X387422Y645550D02*
X396422D01*
X387422Y662550D02*
X396422D01*
X479886Y261510D02*
Y279510D01*
X489886Y261510D02*
Y279510D01*
X479886Y261510D02*
X489886D01*
X479886Y279510D02*
X489886D01*
X575898Y-346058D02*
Y-328058D01*
X585898Y-346058D02*
Y-328058D01*
X575898Y-346058D02*
X585898D01*
X575898Y-328058D02*
X585898D01*
X1083644Y-192388D02*
Y-174388D01*
X1093644Y-192388D02*
Y-174388D01*
X1083644Y-192388D02*
X1093644D01*
X1083644Y-174388D02*
X1093644D01*
X1305640Y-207628D02*
Y-189628D01*
X1315640Y-207628D02*
Y-189628D01*
X1305640Y-207628D02*
X1315640D01*
X1305640Y-189628D02*
X1315640D01*
X1256966Y428896D02*
Y446896D01*
X1246966Y428896D02*
Y446896D01*
X1256966D01*
X1246966Y428896D02*
X1256966D01*
X1432786Y553005D02*
X1450786D01*
X1432786Y543005D02*
X1450786D01*
X1432786D02*
Y553005D01*
X1450786Y543005D02*
Y553005D01*
X1230774Y584120D02*
X1248774D01*
X1230774Y574120D02*
X1248774D01*
X1230774D02*
Y584120D01*
X1248774Y574120D02*
Y584120D01*
X1045294Y598543D02*
X1063294D01*
X1045294Y588543D02*
X1063294D01*
X1045294D02*
Y598543D01*
X1063294Y588543D02*
Y598543D01*
X851000Y583481D02*
X869000D01*
X851000Y573481D02*
X869000D01*
X851000D02*
Y583481D01*
X869000Y573481D02*
Y583481D01*
X674006Y580564D02*
X692006D01*
X674006Y570564D02*
X692006D01*
X674006D02*
Y580564D01*
X692006Y570564D02*
Y580564D01*
X540846Y531906D02*
Y549906D01*
X550846Y531906D02*
Y549906D01*
X540846Y531906D02*
X550846D01*
X540846Y549906D02*
X550846D01*
X1413146Y-207344D02*
X1431146D01*
X1413146Y-217344D02*
X1431146D01*
X1413146D02*
Y-207344D01*
X1431146Y-217344D02*
Y-207344D01*
X1592978Y-204550D02*
X1610978D01*
X1592978Y-214550D02*
X1610978D01*
X1592978D02*
Y-204550D01*
X1610978Y-214550D02*
Y-204550D01*
X934102Y-180514D02*
X952102D01*
X934102Y-170514D02*
X952102D01*
Y-180514D02*
Y-170514D01*
X934102Y-180514D02*
Y-170514D01*
X988140Y2938D02*
Y20938D01*
X998140Y2938D02*
Y20938D01*
X988140Y2938D02*
X998140D01*
X988140Y20938D02*
X998140D01*
X1412957Y152487D02*
Y170487D01*
X1422957Y152487D02*
Y170487D01*
X1412957Y152487D02*
X1422957D01*
X1412957Y170487D02*
X1422957D01*
X1427116Y-20400D02*
X1445116D01*
X1427116Y-30400D02*
X1445116D01*
X1427116D02*
Y-20400D01*
X1445116Y-30400D02*
Y-20400D01*
X1627806Y-25256D02*
Y-7256D01*
X1617806Y-25256D02*
Y-7256D01*
X1627806D01*
X1617806Y-25256D02*
X1627806D01*
X1795192Y170692D02*
Y188692D01*
X1785192Y170692D02*
Y188692D01*
X1795192D01*
X1785192Y170692D02*
X1795192D01*
X226204Y693594D02*
X244204D01*
X226204Y683594D02*
X244204D01*
X226204D02*
Y693594D01*
X244204Y683594D02*
Y693594D01*
X466424Y-421750D02*
Y-403750D01*
X476424Y-421750D02*
Y-403750D01*
X466424Y-421750D02*
X476424D01*
X466424Y-403750D02*
X476424D01*
X446866Y-421496D02*
Y-403496D01*
X456866Y-421496D02*
Y-403496D01*
X446866Y-421496D02*
X456866D01*
X446866Y-403496D02*
X456866D01*
X343806Y762588D02*
X361806D01*
X343806Y772588D02*
X361806D01*
Y762588D02*
Y772588D01*
X343806Y762588D02*
Y772588D01*
X311548Y772748D02*
X329548D01*
X311548Y782748D02*
X329548D01*
Y772748D02*
Y782748D01*
X311548Y772748D02*
Y782748D01*
X292490Y672266D02*
X309490D01*
X292490Y663266D02*
X309490D01*
X292490D02*
Y672266D01*
X309490Y663266D02*
Y672266D01*
X290966Y690046D02*
X307966D01*
X290966Y681046D02*
X307966D01*
X290966D02*
Y690046D01*
X307966Y681046D02*
Y690046D01*
X244522Y401350D02*
Y419350D01*
X234522Y401350D02*
Y419350D01*
X244522D01*
X234522Y401350D02*
X244522D01*
X220392Y401210D02*
Y419210D01*
X210392Y401210D02*
Y419210D01*
X220392D01*
X210392Y401210D02*
X220392D01*
X246498Y344736D02*
X264498D01*
X246498Y354736D02*
X264498D01*
Y344736D02*
Y354736D01*
X246498Y344736D02*
Y354736D01*
X290461Y349648D02*
Y367648D01*
X280461Y349648D02*
Y367648D01*
X290461D01*
X280461Y349648D02*
X290461D01*
X312784Y380398D02*
X329784D01*
X312784Y371398D02*
X329784D01*
X312784D02*
Y380398D01*
X329784Y371398D02*
Y380398D01*
X312784Y389474D02*
X329784D01*
X312784Y398474D02*
X329784D01*
Y389474D02*
Y398474D01*
X312784Y389474D02*
Y398474D01*
Y407550D02*
X329784D01*
X312784Y416550D02*
X329784D01*
Y407550D02*
Y416550D01*
X312784Y407550D02*
Y416550D01*
Y425627D02*
X329784D01*
X312784Y434627D02*
X329784D01*
Y425627D02*
Y434627D01*
X312784Y425627D02*
Y434627D01*
X312784Y452703D02*
X329784D01*
X312784Y443703D02*
X329784D01*
X312784D02*
Y452703D01*
X329784Y443703D02*
Y452703D01*
X312784Y470779D02*
X329784D01*
X312784Y461779D02*
X329784D01*
X312784D02*
Y470779D01*
X329784Y461779D02*
Y470779D01*
X312784Y479855D02*
X329784D01*
X312784Y488856D02*
X329784D01*
Y479855D02*
Y488856D01*
X312784Y479855D02*
Y488856D01*
X292790Y442096D02*
Y459096D01*
X283790Y442096D02*
Y459096D01*
X292790D01*
X283790Y442096D02*
X292790D01*
X1216994Y191292D02*
Y209292D01*
X1226994Y191292D02*
Y209292D01*
X1216994Y191292D02*
X1226994D01*
X1216994Y209292D02*
X1226994D01*
X1218264Y-2142D02*
Y15858D01*
X1228264Y-2142D02*
Y15858D01*
X1218264Y-2142D02*
X1228264D01*
X1218264Y15858D02*
X1228264D01*
X1169700Y18622D02*
X1187700D01*
X1169700Y28622D02*
X1187700D01*
Y18622D02*
Y28622D01*
X1169700Y18622D02*
Y28622D01*
X1027764Y191800D02*
Y209800D01*
X1037764Y191800D02*
Y209800D01*
X1027764Y191800D02*
X1037764D01*
X1027764Y209800D02*
X1037764D01*
X845964Y201596D02*
X863964D01*
X845964Y191596D02*
X863964D01*
X845964D02*
Y201596D01*
X863964Y191596D02*
Y201596D01*
X808148Y193806D02*
Y211806D01*
X798148Y193806D02*
Y211806D01*
X808148D01*
X798148Y193806D02*
X808148D01*
X662258Y-18652D02*
Y-652D01*
X672258Y-18652D02*
Y-652D01*
X662258Y-18652D02*
X672258D01*
X662258Y-652D02*
X672258D01*
X597742Y26420D02*
Y44420D01*
X607742Y26420D02*
Y44420D01*
X597742Y26420D02*
X607742D01*
X597742Y44420D02*
X607742D01*
X360062Y-188896D02*
X378062D01*
X360062Y-178896D02*
X378062D01*
Y-188896D02*
Y-178896D01*
X360062Y-188896D02*
Y-178896D01*
X296498Y-145144D02*
Y-127144D01*
X306498Y-145144D02*
Y-127144D01*
X296498Y-145144D02*
X306498D01*
X296498Y-127144D02*
X306498D01*
X210392Y-132698D02*
Y-114698D01*
X220392Y-132698D02*
Y-114698D01*
X210392Y-132698D02*
X220392D01*
X210392Y-114698D02*
X220392D01*
X400232Y358404D02*
Y375404D01*
X391232Y358404D02*
Y375404D01*
X400232D01*
X391232Y358404D02*
X400232D01*
X592358Y336122D02*
X610358D01*
X592358Y346122D02*
X610358D01*
Y336122D02*
Y346122D01*
X592358Y336122D02*
Y346122D01*
X669434Y389556D02*
X687434D01*
X669434Y379556D02*
X687434D01*
X669434D02*
Y389556D01*
X687434Y379556D02*
Y389556D01*
X854790Y383062D02*
Y401062D01*
X864790Y383062D02*
Y401062D01*
X854790Y383062D02*
X864790D01*
X854790Y401062D02*
X864790D01*
X1036718Y411654D02*
X1054718D01*
X1036718Y401654D02*
X1054718D01*
X1036718D02*
Y411654D01*
X1054718Y401654D02*
Y411654D01*
X1425846Y368474D02*
X1443846D01*
X1425846Y358474D02*
X1443846D01*
X1425846D02*
Y368474D01*
X1443846Y358474D02*
Y368474D01*
X1648096Y366950D02*
X1666096D01*
X1648096Y356950D02*
X1666096D01*
X1648096D02*
Y366950D01*
X1666096Y356950D02*
Y366950D01*
X1782970Y617046D02*
X1800970D01*
X1782970Y627046D02*
X1800970D01*
Y617046D02*
Y627046D01*
X1782970Y617046D02*
Y627046D01*
X1860986Y792616D02*
Y809616D01*
X1851986Y792616D02*
Y809616D01*
X1860986D01*
X1851986Y792616D02*
X1860986D01*
X1627052Y786266D02*
Y803266D01*
X1618052Y786266D02*
Y803266D01*
X1627052D01*
X1618052Y786266D02*
X1627052D01*
X1433250Y782202D02*
Y799202D01*
X1424250Y782202D02*
Y799202D01*
X1433250D01*
X1424250Y782202D02*
X1433250D01*
X1218620Y785250D02*
Y802250D01*
X1209620Y785250D02*
Y802250D01*
X1218620D01*
X1209620Y785250D02*
X1218620D01*
X1016944Y782202D02*
Y799202D01*
X1007944Y782202D02*
Y799202D01*
X1016944D01*
X1007944Y782202D02*
X1016944D01*
X844732Y770772D02*
Y787772D01*
X835732Y770772D02*
Y787772D01*
X844732D01*
X835732Y770772D02*
X844732D01*
X566302Y791646D02*
X583302D01*
X566302Y782646D02*
X583302D01*
X566302D02*
Y791646D01*
X583302Y782646D02*
Y791646D01*
X677244Y788814D02*
Y806814D01*
X687244Y788814D02*
Y806814D01*
X677244Y788814D02*
X687244D01*
X677244Y806814D02*
X687244D01*
X713660Y808372D02*
Y826372D01*
X703660Y808372D02*
Y826372D01*
X713660D01*
X703660Y808372D02*
X713660D01*
X630864Y755024D02*
Y772024D01*
X621864Y755024D02*
Y772024D01*
X630864D01*
X621864Y755024D02*
X630864D01*
X566302Y798394D02*
X583302D01*
X566302Y807394D02*
X583302D01*
Y798394D02*
Y807394D01*
X566302Y798394D02*
Y807394D01*
X408890Y901486D02*
X426890D01*
X408890Y891486D02*
X426890D01*
X408890D02*
Y901486D01*
X426890Y891486D02*
Y901486D01*
X378088Y894406D02*
X395088D01*
X378088Y903406D02*
X395088D01*
Y894406D02*
Y903406D01*
X378088Y894406D02*
Y903406D01*
X350694Y818532D02*
Y836532D01*
X340694Y818532D02*
Y836532D01*
X350694D01*
X340694Y818532D02*
X350694D01*
X230522Y833040D02*
X248522D01*
X230522Y823040D02*
X248522D01*
X230522D02*
Y833040D01*
X248522Y823040D02*
Y833040D01*
X231784Y819332D02*
X248784D01*
X231784Y810332D02*
X248784D01*
X231784D02*
Y819332D01*
X248784Y810332D02*
Y819332D01*
X225950Y875712D02*
X243950D01*
X225950Y865712D02*
X243950D01*
X225950D02*
Y875712D01*
X243950Y865712D02*
Y875712D01*
X225546Y858487D02*
X242546D01*
X225546Y849488D02*
X242546D01*
X225546D02*
Y858487D01*
X242546Y849488D02*
Y858487D01*
X211764Y810904D02*
Y827904D01*
X202764Y810904D02*
Y827904D01*
X211764D01*
X202764Y810904D02*
X211764D01*
X213280Y754664D02*
Y772664D01*
X203280Y754664D02*
Y772664D01*
X213280D01*
X203280Y754664D02*
X213280D01*
X192960Y754524D02*
Y772524D01*
X182960Y754524D02*
Y772524D01*
X192960D01*
X182960Y754524D02*
X192960D01*
X248048Y638128D02*
X266048D01*
X248048Y648128D02*
X266048D01*
Y638128D02*
Y648128D01*
X248048Y638128D02*
Y648128D01*
Y656416D02*
X266048D01*
X248048Y666416D02*
X266048D01*
Y656416D02*
Y666416D01*
X248048Y656416D02*
Y666416D01*
X255350Y686452D02*
Y704452D01*
X265350Y686452D02*
Y704452D01*
X255350Y686452D02*
X265350D01*
X255350Y704452D02*
X265350D01*
X223410Y713406D02*
X241410D01*
X223410Y703406D02*
X241410D01*
X223410D02*
Y713406D01*
X241410Y703406D02*
Y713406D01*
X218266Y654194D02*
Y672194D01*
X228266Y654194D02*
Y672194D01*
X218266Y654194D02*
X228266D01*
X218266Y672194D02*
X228266D01*
X143744Y574982D02*
X161744D01*
X143744Y584982D02*
X161744D01*
Y574982D02*
Y584982D01*
X143744Y574982D02*
Y584982D01*
X114980Y550276D02*
Y564276D01*
X136480Y550276D02*
Y564276D01*
X114980Y550276D02*
X136480D01*
X114980Y564276D02*
X136480D01*
X84208Y259954D02*
X101208D01*
X84208Y268954D02*
X101208D01*
Y259954D02*
Y268954D01*
X84208Y259954D02*
Y268954D01*
X83192Y289672D02*
X100192D01*
X83192Y298672D02*
X100192D01*
Y289672D02*
Y298672D01*
X83192Y289672D02*
Y298672D01*
X92020Y426220D02*
Y443220D01*
X101020Y426220D02*
Y443220D01*
X92020Y426220D02*
X101020D01*
X92020Y443220D02*
X101020D01*
X90860Y-45710D02*
Y-28710D01*
X81860Y-45710D02*
Y-28710D01*
X90860D01*
X81860Y-45710D02*
X90860D01*
X136276Y863600D02*
X190876D01*
X136276Y888492D02*
X190874D01*
Y888496D02*
X190876Y863600D01*
X136276D02*
Y888492D01*
X166766Y827450D02*
Y848950D01*
X152766Y827450D02*
Y848950D01*
Y827450D02*
X166766D01*
X152766Y848950D02*
X166766D01*
X610534Y806816D02*
X632034D01*
X610534Y820816D02*
X632034D01*
X610534Y806816D02*
Y820816D01*
X632034Y806816D02*
Y820816D01*
X73900Y803642D02*
X103900D01*
X73900Y833642D02*
X103900D01*
Y803642D02*
Y833642D01*
X73900Y803642D02*
Y833642D01*
X264970Y847686D02*
X270970D01*
X264970Y858686D02*
X270970D01*
X264970Y847686D02*
Y858686D01*
X270970Y847686D02*
Y858686D01*
X194866Y854710D02*
X200866D01*
X194866Y865710D02*
X200866D01*
X194866Y854710D02*
Y865710D01*
X200866Y854710D02*
Y865710D01*
X427276Y651080D02*
X433276D01*
X427276Y640080D02*
X433276D01*
Y651080D01*
X427276Y640080D02*
Y651080D01*
X464400Y818182D02*
Y824182D01*
X475400Y818182D02*
Y824182D01*
X464400D02*
X475400D01*
X464400Y818182D02*
X475400D01*
X227672Y839772D02*
Y845772D01*
X238672Y839772D02*
Y845772D01*
X227672D02*
X238672D01*
X227672Y839772D02*
X238672D01*
X208328Y333414D02*
X214328D01*
X208328Y322414D02*
X214328D01*
Y333414D01*
X208328Y322414D02*
Y333414D01*
X640636Y809332D02*
X646636D01*
X640636Y820332D02*
X646636D01*
X640636Y809332D02*
Y820332D01*
X646636Y809332D02*
Y820332D01*
X163624Y559220D02*
X169624D01*
X163624Y548220D02*
X169624D01*
Y559220D01*
X163624Y548220D02*
Y559220D01*
X343298Y755062D02*
X361298D01*
X343298Y745062D02*
X361298D01*
X343298D02*
Y755062D01*
X361298Y745062D02*
Y755062D01*
X226458Y880952D02*
X244458D01*
X226458Y890952D02*
X244458D01*
Y880952D02*
Y890952D01*
X226458Y880952D02*
Y890952D01*
X279488Y655780D02*
X290488D01*
X279488Y649780D02*
X290488D01*
X279488D02*
Y655780D01*
X290488Y649780D02*
Y655780D01*
X313572Y755324D02*
X330572D01*
X313572Y746324D02*
X330572D01*
X313572D02*
Y755324D01*
X330572Y746324D02*
Y755324D01*
X284362Y490148D02*
X301362D01*
X284362Y481148D02*
X301362D01*
X284362D02*
Y490148D01*
X301362Y481148D02*
Y490148D01*
X110054Y426094D02*
Y443094D01*
X119054Y426094D02*
Y443094D01*
X110054Y426094D02*
X119054D01*
X110054Y443094D02*
X119054D01*
X268876Y466614D02*
X268209Y465947D01*
Y464614D01*
X268876Y463948D01*
X271542D01*
X272208Y464614D01*
Y465947D01*
X271542Y466614D01*
X272208Y467947D02*
Y469280D01*
Y468613D01*
X268209D01*
X268876Y467947D01*
X271542Y471279D02*
X272208Y471945D01*
Y473278D01*
X271542Y473945D01*
X268876D01*
X268209Y473278D01*
Y471945D01*
X268876Y471279D01*
X269542D01*
X270209Y471945D01*
Y473945D01*
X266971Y818476D02*
X270970D01*
Y821142D01*
Y822475D02*
Y823808D01*
Y823141D01*
X266971D01*
X267638Y822475D01*
X270470Y838786D02*
X269803Y839453D01*
X268470D01*
X267804Y838786D01*
Y836121D01*
X268470Y835454D01*
X269803D01*
X270470Y836121D01*
X271803Y835454D02*
X273136D01*
X272469D01*
Y839453D01*
X271803Y838786D01*
X266971Y865212D02*
X270970D01*
Y867878D01*
Y871877D02*
Y869211D01*
X268304Y871877D01*
X267638D01*
X266971Y871210D01*
Y869877D01*
X267638Y869211D01*
X272398Y702040D02*
X273065Y702707D01*
Y704040D01*
X272398Y704706D01*
X269732D01*
X269066Y704040D01*
Y702707D01*
X269732Y702040D01*
X272398Y700707D02*
X273065Y700041D01*
Y698708D01*
X272398Y698042D01*
X271732D01*
X271065Y698708D01*
X270399Y698042D01*
X269732D01*
X269066Y698708D01*
Y700041D01*
X269732Y700707D01*
X270399D01*
X271065Y700041D01*
X271732Y700707D01*
X272398D01*
X271065Y700041D02*
Y698708D01*
X173736Y740156D02*
X169737D01*
Y742155D01*
X170404Y742822D01*
X171737D01*
X172403Y742155D01*
Y740156D01*
Y741489D02*
X173736Y742822D01*
X169737Y746821D02*
Y744155D01*
X171737D01*
X171070Y745488D01*
Y746154D01*
X171737Y746821D01*
X173070D01*
X173736Y746154D01*
Y744821D01*
X173070Y744155D01*
X455168Y671322D02*
Y667323D01*
X453169D01*
X452502Y667990D01*
Y669323D01*
X453169Y669989D01*
X455168D01*
X453835D02*
X452502Y671322D01*
X448503D02*
X451169D01*
X448503Y668656D01*
Y667990D01*
X449170Y667323D01*
X450503D01*
X451169Y667990D01*
X444505Y667323D02*
X445838Y667990D01*
X447171Y669323D01*
Y670656D01*
X446504Y671322D01*
X445171D01*
X444505Y670656D01*
Y669989D01*
X445171Y669323D01*
X447171D01*
X389382Y660400D02*
X393381D01*
Y658401D01*
X392714Y657734D01*
X391381D01*
X390715Y658401D01*
Y660400D01*
Y659067D02*
X389382Y657734D01*
X392714Y656401D02*
X393381Y655735D01*
Y654402D01*
X392714Y653736D01*
X392048D01*
X391381Y654402D01*
Y655068D01*
Y654402D01*
X390715Y653736D01*
X390048D01*
X389382Y654402D01*
Y655735D01*
X390048Y656401D01*
X393381Y649737D02*
Y652403D01*
X391381D01*
X392048Y651070D01*
Y650403D01*
X391381Y649737D01*
X390048D01*
X389382Y650403D01*
Y651736D01*
X390048Y652403D01*
X483218Y276844D02*
X483885Y277511D01*
Y278844D01*
X483218Y279510D01*
X480552D01*
X479886Y278844D01*
Y277511D01*
X480552Y276844D01*
X479886Y272845D02*
Y275511D01*
X482552Y272845D01*
X483218D01*
X483885Y273512D01*
Y274845D01*
X483218Y275511D01*
X483885Y271513D02*
Y268847D01*
X483218D01*
X480552Y271513D01*
X479886D01*
X579230Y-330724D02*
X579897Y-330057D01*
Y-328724D01*
X579230Y-328058D01*
X576564D01*
X575898Y-328724D01*
Y-330057D01*
X576564Y-330724D01*
X579897Y-334723D02*
Y-332057D01*
X577897D01*
X578564Y-333390D01*
Y-334056D01*
X577897Y-334723D01*
X576564D01*
X575898Y-334056D01*
Y-332723D01*
X576564Y-332057D01*
X579897Y-336055D02*
Y-338721D01*
X579230D01*
X576564Y-336055D01*
X575898D01*
X1086976Y-177054D02*
X1087643Y-176387D01*
Y-175054D01*
X1086976Y-174388D01*
X1084310D01*
X1083644Y-175054D01*
Y-176387D01*
X1084310Y-177054D01*
X1087643Y-181052D02*
X1086976Y-179720D01*
X1085643Y-178387D01*
X1084310D01*
X1083644Y-179053D01*
Y-180386D01*
X1084310Y-181052D01*
X1084977D01*
X1085643Y-180386D01*
Y-178387D01*
X1087643Y-185051D02*
X1086976Y-183718D01*
X1085643Y-182385D01*
X1084310D01*
X1083644Y-183052D01*
Y-184385D01*
X1084310Y-185051D01*
X1084977D01*
X1085643Y-184385D01*
Y-182385D01*
X1308972Y-192294D02*
X1309639Y-191627D01*
Y-190294D01*
X1308972Y-189628D01*
X1306306D01*
X1305640Y-190294D01*
Y-191627D01*
X1306306Y-192294D01*
X1309639Y-196292D02*
X1308972Y-194960D01*
X1307639Y-193627D01*
X1306306D01*
X1305640Y-194293D01*
Y-195626D01*
X1306306Y-196292D01*
X1306973D01*
X1307639Y-195626D01*
Y-193627D01*
X1305640Y-199625D02*
X1309639D01*
X1307639Y-197625D01*
Y-200291D01*
X1253634Y431562D02*
X1252967Y430895D01*
Y429562D01*
X1253634Y428896D01*
X1256300D01*
X1256966Y429562D01*
Y430895D01*
X1256300Y431562D01*
X1256966Y434894D02*
X1252967D01*
X1254967Y432895D01*
Y435560D01*
X1252967Y439559D02*
Y436893D01*
X1254967D01*
X1254300Y438226D01*
Y438893D01*
X1254967Y439559D01*
X1256300D01*
X1256966Y438893D01*
Y437560D01*
X1256300Y436893D01*
X1448120Y549673D02*
X1448786Y549006D01*
X1450119D01*
X1450786Y549673D01*
Y552338D01*
X1450119Y553005D01*
X1448786D01*
X1448120Y552338D01*
X1446787Y549673D02*
X1446121Y549006D01*
X1444788D01*
X1444121Y549673D01*
Y550339D01*
X1444788Y551006D01*
X1445454D01*
X1444788D01*
X1444121Y551672D01*
Y552338D01*
X1444788Y553005D01*
X1446121D01*
X1446787Y552338D01*
X1442788Y549673D02*
X1442122Y549006D01*
X1440789D01*
X1440123Y549673D01*
Y550339D01*
X1440789Y551006D01*
X1441455D01*
X1440789D01*
X1440123Y551672D01*
Y552338D01*
X1440789Y553005D01*
X1442122D01*
X1442788Y552338D01*
X1246108Y580788D02*
X1246775Y580121D01*
X1248108D01*
X1248774Y580788D01*
Y583454D01*
X1248108Y584120D01*
X1246775D01*
X1246108Y583454D01*
X1244775Y580788D02*
X1244109Y580121D01*
X1242776D01*
X1242110Y580788D01*
Y581454D01*
X1242776Y582121D01*
X1243442D01*
X1242776D01*
X1242110Y582787D01*
Y583454D01*
X1242776Y584120D01*
X1244109D01*
X1244775Y583454D01*
X1238777Y584120D02*
Y580121D01*
X1240777Y582121D01*
X1238111D01*
X1060628Y595211D02*
X1061294Y594544D01*
X1062627D01*
X1063294Y595211D01*
Y597877D01*
X1062627Y598543D01*
X1061294D01*
X1060628Y597877D01*
X1059295Y595211D02*
X1058629Y594544D01*
X1057296D01*
X1056629Y595211D01*
Y595877D01*
X1057296Y596544D01*
X1057962D01*
X1057296D01*
X1056629Y597210D01*
Y597877D01*
X1057296Y598543D01*
X1058629D01*
X1059295Y597877D01*
X1052631Y594544D02*
X1055296D01*
Y596544D01*
X1053963Y595877D01*
X1053297D01*
X1052631Y596544D01*
Y597877D01*
X1053297Y598543D01*
X1054630D01*
X1055296Y597877D01*
X866334Y580149D02*
X867001Y579482D01*
X868334D01*
X869000Y580149D01*
Y582815D01*
X868334Y583481D01*
X867001D01*
X866334Y582815D01*
X865001Y580149D02*
X864335Y579482D01*
X863002D01*
X862335Y580149D01*
Y580815D01*
X863002Y581482D01*
X863668D01*
X863002D01*
X862335Y582148D01*
Y582815D01*
X863002Y583481D01*
X864335D01*
X865001Y582815D01*
X858337Y579482D02*
X859670Y580149D01*
X861003Y581482D01*
Y582815D01*
X860336Y583481D01*
X859003D01*
X858337Y582815D01*
Y582148D01*
X859003Y581482D01*
X861003D01*
X689340Y577232D02*
X690007Y576565D01*
X691340D01*
X692006Y577232D01*
Y579898D01*
X691340Y580564D01*
X690007D01*
X689340Y579898D01*
X688007Y577232D02*
X687341Y576565D01*
X686008D01*
X685341Y577232D01*
Y577898D01*
X686008Y578565D01*
X686674D01*
X686008D01*
X685341Y579231D01*
Y579898D01*
X686008Y580564D01*
X687341D01*
X688007Y579898D01*
X684009Y576565D02*
X681343D01*
Y577232D01*
X684009Y579898D01*
Y580564D01*
X544178Y547240D02*
X544845Y547907D01*
Y549240D01*
X544178Y549906D01*
X541512D01*
X540846Y549240D01*
Y547907D01*
X541512Y547240D01*
X544178Y545907D02*
X544845Y545241D01*
Y543908D01*
X544178Y543242D01*
X543512D01*
X542845Y543908D01*
Y544574D01*
Y543908D01*
X542179Y543242D01*
X541512D01*
X540846Y543908D01*
Y545241D01*
X541512Y545907D01*
X544178Y541909D02*
X544845Y541242D01*
Y539909D01*
X544178Y539243D01*
X543512D01*
X542845Y539909D01*
X542179Y539243D01*
X541512D01*
X540846Y539909D01*
Y541242D01*
X541512Y541909D01*
X542179D01*
X542845Y541242D01*
X543512Y541909D01*
X544178D01*
X542845Y541242D02*
Y539909D01*
X1428480Y-210676D02*
X1429147Y-211343D01*
X1430480D01*
X1431146Y-210676D01*
Y-208010D01*
X1430480Y-207344D01*
X1429147D01*
X1428480Y-208010D01*
X1424482Y-211343D02*
X1425814Y-210676D01*
X1427147Y-209343D01*
Y-208010D01*
X1426481Y-207344D01*
X1425148D01*
X1424482Y-208010D01*
Y-208677D01*
X1425148Y-209343D01*
X1427147D01*
X1423149Y-210676D02*
X1422482Y-211343D01*
X1421149D01*
X1420483Y-210676D01*
Y-210010D01*
X1421149Y-209343D01*
X1421816D01*
X1421149D01*
X1420483Y-208677D01*
Y-208010D01*
X1421149Y-207344D01*
X1422482D01*
X1423149Y-208010D01*
X1608312Y-207882D02*
X1608979Y-208549D01*
X1610312D01*
X1610978Y-207882D01*
Y-205216D01*
X1610312Y-204550D01*
X1608979D01*
X1608312Y-205216D01*
X1604314Y-208549D02*
X1606979D01*
Y-206549D01*
X1605646Y-207216D01*
X1604980D01*
X1604314Y-206549D01*
Y-205216D01*
X1604980Y-204550D01*
X1606313D01*
X1606979Y-205216D01*
X1602981D02*
X1602314Y-204550D01*
X1600981D01*
X1600315Y-205216D01*
Y-207882D01*
X1600981Y-208549D01*
X1602314D01*
X1602981Y-207882D01*
Y-207216D01*
X1602314Y-206549D01*
X1600315D01*
X936768Y-177182D02*
X936101Y-176515D01*
X934768D01*
X934102Y-177182D01*
Y-179848D01*
X934768Y-180514D01*
X936101D01*
X936768Y-179848D01*
X940767Y-176515D02*
X939434Y-177182D01*
X938101Y-178515D01*
Y-179848D01*
X938767Y-180514D01*
X940100D01*
X940767Y-179848D01*
Y-179181D01*
X940100Y-178515D01*
X938101D01*
X942099Y-176515D02*
X944765D01*
Y-177182D01*
X942099Y-179848D01*
Y-180514D01*
X991472Y18272D02*
X992139Y18939D01*
Y20272D01*
X991472Y20938D01*
X988806D01*
X988140Y20272D01*
Y18939D01*
X988806Y18272D01*
X992139Y14274D02*
Y16939D01*
X990139D01*
X990806Y15606D01*
Y14940D01*
X990139Y14274D01*
X988806D01*
X988140Y14940D01*
Y16273D01*
X988806Y16939D01*
X988140Y10275D02*
Y12941D01*
X990806Y10275D01*
X991472D01*
X992139Y10941D01*
Y12274D01*
X991472Y12941D01*
X1416289Y167822D02*
X1416956Y168488D01*
Y169821D01*
X1416289Y170487D01*
X1413623D01*
X1412957Y169821D01*
Y168488D01*
X1413623Y167822D01*
X1412957Y164489D02*
X1416956D01*
X1414956Y166489D01*
Y163823D01*
X1416289Y162490D02*
X1416956Y161824D01*
Y160491D01*
X1416289Y159824D01*
X1415623D01*
X1414956Y160491D01*
X1414290Y159824D01*
X1413623D01*
X1412957Y160491D01*
Y161824D01*
X1413623Y162490D01*
X1414290D01*
X1414956Y161824D01*
X1415623Y162490D01*
X1416289D01*
X1414956Y161824D02*
Y160491D01*
X1442450Y-23732D02*
X1443117Y-24399D01*
X1444450D01*
X1445116Y-23732D01*
Y-21066D01*
X1444450Y-20400D01*
X1443117D01*
X1442450Y-21066D01*
X1438452Y-24399D02*
X1439784Y-23732D01*
X1441117Y-22399D01*
Y-21066D01*
X1440451Y-20400D01*
X1439118D01*
X1438452Y-21066D01*
Y-21733D01*
X1439118Y-22399D01*
X1441117D01*
X1434453Y-20400D02*
X1437119D01*
X1434453Y-23066D01*
Y-23732D01*
X1435119Y-24399D01*
X1436452D01*
X1437119Y-23732D01*
X1624474Y-22590D02*
X1623807Y-23257D01*
Y-24590D01*
X1624474Y-25256D01*
X1627140D01*
X1627806Y-24590D01*
Y-23257D01*
X1627140Y-22590D01*
X1623807Y-18592D02*
X1624474Y-19924D01*
X1625807Y-21257D01*
X1627140D01*
X1627806Y-20591D01*
Y-19258D01*
X1627140Y-18592D01*
X1626473D01*
X1625807Y-19258D01*
Y-21257D01*
X1624474Y-17259D02*
X1623807Y-16592D01*
Y-15259D01*
X1624474Y-14593D01*
X1627140D01*
X1627806Y-15259D01*
Y-16592D01*
X1627140Y-17259D01*
X1624474D01*
X1791860Y173358D02*
X1791193Y172691D01*
Y171358D01*
X1791860Y170692D01*
X1794526D01*
X1795192Y171358D01*
Y172691D01*
X1794526Y173358D01*
X1795192Y176690D02*
X1791193D01*
X1793193Y174691D01*
Y177356D01*
X1791193Y178689D02*
Y181355D01*
X1791860D01*
X1794526Y178689D01*
X1795192D01*
X241538Y690262D02*
X242205Y689595D01*
X243538D01*
X244204Y690262D01*
Y692928D01*
X243538Y693594D01*
X242205D01*
X241538Y692928D01*
X240205D02*
X239539Y693594D01*
X238206D01*
X237540Y692928D01*
Y690262D01*
X238206Y689595D01*
X239539D01*
X240205Y690262D01*
Y690928D01*
X239539Y691595D01*
X237540D01*
X469756Y-406416D02*
X470423Y-405749D01*
Y-404416D01*
X469756Y-403750D01*
X467090D01*
X466424Y-404416D01*
Y-405749D01*
X467090Y-406416D01*
X470423Y-410415D02*
X469756Y-409082D01*
X468423Y-407749D01*
X467090D01*
X466424Y-408415D01*
Y-409748D01*
X467090Y-410415D01*
X467757D01*
X468423Y-409748D01*
Y-407749D01*
X469756Y-411747D02*
X470423Y-412414D01*
Y-413747D01*
X469756Y-414413D01*
X469090D01*
X468423Y-413747D01*
X467757Y-414413D01*
X467090D01*
X466424Y-413747D01*
Y-412414D01*
X467090Y-411747D01*
X467757D01*
X468423Y-412414D01*
X469090Y-411747D01*
X469756D01*
X468423Y-412414D02*
Y-413747D01*
X450198Y-406162D02*
X450865Y-405495D01*
Y-404162D01*
X450198Y-403496D01*
X447532D01*
X446866Y-404162D01*
Y-405495D01*
X447532Y-406162D01*
X450865Y-410160D02*
X450198Y-408828D01*
X448865Y-407495D01*
X447532D01*
X446866Y-408161D01*
Y-409494D01*
X447532Y-410160D01*
X448199D01*
X448865Y-409494D01*
Y-407495D01*
X446866Y-411493D02*
Y-412826D01*
Y-412160D01*
X450865D01*
X450198Y-411493D01*
X346472Y765920D02*
X345805Y766587D01*
X344472D01*
X343806Y765920D01*
Y763254D01*
X344472Y762588D01*
X345805D01*
X346472Y763254D01*
X347805Y765920D02*
X348471Y766587D01*
X349804D01*
X350471Y765920D01*
Y765254D01*
X349804Y764587D01*
X349138D01*
X349804D01*
X350471Y763921D01*
Y763254D01*
X349804Y762588D01*
X348471D01*
X347805Y763254D01*
X314214Y776080D02*
X313547Y776747D01*
X312214D01*
X311548Y776080D01*
Y773414D01*
X312214Y772748D01*
X313547D01*
X314214Y773414D01*
X318213Y772748D02*
X315547D01*
X318213Y775414D01*
Y776080D01*
X317546Y776747D01*
X316213D01*
X315547Y776080D01*
X307340Y670306D02*
Y666307D01*
X305341D01*
X304674Y666974D01*
Y668307D01*
X305341Y668973D01*
X307340D01*
X306007D02*
X304674Y670306D01*
X303341Y666974D02*
X302675Y666307D01*
X301342D01*
X300676Y666974D01*
Y667640D01*
X301342Y668307D01*
X302008D01*
X301342D01*
X300676Y668973D01*
Y669640D01*
X301342Y670306D01*
X302675D01*
X303341Y669640D01*
X299343Y670306D02*
X298010D01*
X298676D01*
Y666307D01*
X299343Y666974D01*
X305816Y688086D02*
Y684087D01*
X303817D01*
X303150Y684754D01*
Y686087D01*
X303817Y686753D01*
X305816D01*
X304483D02*
X303150Y688086D01*
X301817Y684754D02*
X301151Y684087D01*
X299818D01*
X299151Y684754D01*
Y685420D01*
X299818Y686087D01*
X300484D01*
X299818D01*
X299151Y686753D01*
Y687420D01*
X299818Y688086D01*
X301151D01*
X301817Y687420D01*
X295153Y688086D02*
X297819D01*
X295153Y685420D01*
Y684754D01*
X295819Y684087D01*
X297152D01*
X297819Y684754D01*
X241190Y404016D02*
X240523Y403350D01*
Y402017D01*
X241190Y401350D01*
X243856D01*
X244522Y402017D01*
Y403350D01*
X243856Y404016D01*
X244522Y405349D02*
Y406682D01*
Y406015D01*
X240523D01*
X241190Y405349D01*
X240523Y411347D02*
X241190Y410014D01*
X242523Y408681D01*
X243856D01*
X244522Y409348D01*
Y410681D01*
X243856Y411347D01*
X243189D01*
X242523Y410681D01*
Y408681D01*
X217060Y403876D02*
X216393Y403209D01*
Y401876D01*
X217060Y401210D01*
X219726D01*
X220392Y401876D01*
Y403209D01*
X219726Y403876D01*
X220392Y405209D02*
Y406542D01*
Y405875D01*
X216393D01*
X217060Y405209D01*
X216393Y411207D02*
Y408541D01*
X218393D01*
X217726Y409874D01*
Y410540D01*
X218393Y411207D01*
X219726D01*
X220392Y410540D01*
Y409207D01*
X219726Y408541D01*
X249164Y348068D02*
X248497Y348734D01*
X247164D01*
X246498Y348068D01*
Y345402D01*
X247164Y344736D01*
X248497D01*
X249164Y345402D01*
X250497Y344736D02*
X251830D01*
X251163D01*
Y348734D01*
X250497Y348068D01*
X253829Y348734D02*
X256495D01*
Y348068D01*
X253829Y345402D01*
Y344736D01*
X287129Y352314D02*
X286462Y351647D01*
Y350314D01*
X287129Y349648D01*
X289794D01*
X290461Y350314D01*
Y351647D01*
X289794Y352314D01*
X290461Y353647D02*
Y354980D01*
Y354313D01*
X286462D01*
X287129Y353647D01*
Y356979D02*
X286462Y357645D01*
Y358978D01*
X287129Y359645D01*
X287795D01*
X288461Y358978D01*
X289128Y359645D01*
X289794D01*
X290461Y358978D01*
Y357645D01*
X289794Y356979D01*
X289128D01*
X288461Y357645D01*
X287795Y356979D01*
X287129D01*
X288461Y357645D02*
Y358978D01*
X327634Y378438D02*
Y374439D01*
X325635D01*
X324968Y375105D01*
Y376438D01*
X325635Y377105D01*
X327634D01*
X326301D02*
X324968Y378438D01*
X323635D02*
X322303D01*
X322969D01*
Y374439D01*
X323635Y375105D01*
X317637Y374439D02*
X320303D01*
Y376438D01*
X318970Y375772D01*
X318304D01*
X317637Y376438D01*
Y377771D01*
X318304Y378438D01*
X319637D01*
X320303Y377771D01*
X314934Y391434D02*
Y395433D01*
X316933D01*
X317600Y394766D01*
Y393433D01*
X316933Y392767D01*
X314934D01*
X316267D02*
X317600Y391434D01*
X318933D02*
X320266D01*
X319599D01*
Y395433D01*
X318933Y394766D01*
X322265Y391434D02*
X323598D01*
X322932D01*
Y395433D01*
X322265Y394766D01*
X314934Y409510D02*
Y413509D01*
X316933D01*
X317600Y412842D01*
Y411510D01*
X316933Y410843D01*
X314934D01*
X316267D02*
X317600Y409510D01*
X318933D02*
X320266D01*
X319599D01*
Y413509D01*
X318933Y412842D01*
X324931Y409510D02*
X322265D01*
X324931Y412176D01*
Y412842D01*
X324264Y413509D01*
X322932D01*
X322265Y412842D01*
X314934Y427587D02*
Y431585D01*
X316933D01*
X317600Y430919D01*
Y429586D01*
X316933Y428919D01*
X314934D01*
X316267D02*
X317600Y427587D01*
X318933D02*
X320266D01*
X319599D01*
Y431585D01*
X318933Y430919D01*
X324264Y427587D02*
Y431585D01*
X322265Y429586D01*
X324931D01*
X327634Y450743D02*
Y446744D01*
X325634D01*
X324968Y447411D01*
Y448743D01*
X325634Y449410D01*
X327634D01*
X326301D02*
X324968Y450743D01*
X323635D02*
X322302D01*
X322969D01*
Y446744D01*
X323635Y447411D01*
X320303Y446744D02*
X317637D01*
Y447411D01*
X320303Y450076D01*
Y450743D01*
X327634Y468819D02*
Y464821D01*
X325635D01*
X324968Y465487D01*
Y466820D01*
X325635Y467486D01*
X327634D01*
X326301D02*
X324968Y468819D01*
X323635Y464821D02*
X320970D01*
Y465487D01*
X323635Y468153D01*
Y468819D01*
X314934Y481815D02*
Y485814D01*
X316933D01*
X317600Y485148D01*
Y483815D01*
X316933Y483148D01*
X314934D01*
X316267D02*
X317600Y481815D01*
X321599D02*
X318933D01*
X321599Y484481D01*
Y485148D01*
X320932Y485814D01*
X319599D01*
X318933Y485148D01*
X290830Y444246D02*
X286831D01*
Y446245D01*
X287498Y446912D01*
X288831D01*
X289497Y446245D01*
Y444246D01*
Y445579D02*
X290830Y446912D01*
Y448245D02*
Y449578D01*
Y448911D01*
X286831D01*
X287498Y448245D01*
Y451577D02*
X286831Y452243D01*
Y453576D01*
X287498Y454243D01*
X288164D01*
X288831Y453576D01*
X289497Y454243D01*
X290164D01*
X290830Y453576D01*
Y452243D01*
X290164Y451577D01*
X289497D01*
X288831Y452243D01*
X288164Y451577D01*
X287498D01*
X288831Y452243D02*
Y453576D01*
X1220326Y206626D02*
X1220993Y207293D01*
Y208626D01*
X1220326Y209292D01*
X1217660D01*
X1216994Y208626D01*
Y207293D01*
X1217660Y206626D01*
X1216994Y203294D02*
X1220993D01*
X1218993Y205293D01*
Y202628D01*
X1217660Y201295D02*
X1216994Y200628D01*
Y199295D01*
X1217660Y198629D01*
X1220326D01*
X1220993Y199295D01*
Y200628D01*
X1220326Y201295D01*
X1219660D01*
X1218993Y200628D01*
Y198629D01*
X1221596Y13192D02*
X1222263Y13859D01*
Y15192D01*
X1221596Y15858D01*
X1218930D01*
X1218264Y15192D01*
Y13859D01*
X1218930Y13192D01*
X1222263Y9194D02*
X1221596Y10526D01*
X1220263Y11859D01*
X1218930D01*
X1218264Y11193D01*
Y9860D01*
X1218930Y9194D01*
X1219597D01*
X1220263Y9860D01*
Y11859D01*
X1222263Y5195D02*
Y7861D01*
X1220263D01*
X1220930Y6528D01*
Y5861D01*
X1220263Y5195D01*
X1218930D01*
X1218264Y5861D01*
Y7194D01*
X1218930Y7861D01*
X1172366Y21954D02*
X1171699Y22621D01*
X1170366D01*
X1169700Y21954D01*
Y19288D01*
X1170366Y18622D01*
X1171699D01*
X1172366Y19288D01*
X1176365Y22621D02*
X1173699D01*
Y20621D01*
X1175032Y21288D01*
X1175698D01*
X1176365Y20621D01*
Y19288D01*
X1175698Y18622D01*
X1174365D01*
X1173699Y19288D01*
X1177697Y21954D02*
X1178364Y22621D01*
X1179697D01*
X1180363Y21954D01*
Y21288D01*
X1179697Y20621D01*
X1180363Y19955D01*
Y19288D01*
X1179697Y18622D01*
X1178364D01*
X1177697Y19288D01*
Y19955D01*
X1178364Y20621D01*
X1177697Y21288D01*
Y21954D01*
X1178364Y20621D02*
X1179697D01*
X1031096Y207134D02*
X1031763Y207801D01*
Y209134D01*
X1031096Y209800D01*
X1028430D01*
X1027764Y209134D01*
Y207801D01*
X1028430Y207134D01*
X1031763Y203136D02*
Y205801D01*
X1029763D01*
X1030430Y204468D01*
Y203802D01*
X1029763Y203136D01*
X1028430D01*
X1027764Y203802D01*
Y205135D01*
X1028430Y205801D01*
X1031096Y201803D02*
X1031763Y201136D01*
Y199803D01*
X1031096Y199137D01*
X1028430D01*
X1027764Y199803D01*
Y201136D01*
X1028430Y201803D01*
X1031096D01*
X861298Y198264D02*
X861965Y197597D01*
X863298D01*
X863964Y198264D01*
Y200930D01*
X863298Y201596D01*
X861965D01*
X861298Y200930D01*
X859965Y198264D02*
X859299Y197597D01*
X857966D01*
X857299Y198264D01*
Y198930D01*
X857966Y199597D01*
X858632D01*
X857966D01*
X857299Y200263D01*
Y200930D01*
X857966Y201596D01*
X859299D01*
X859965Y200930D01*
X855967D02*
X855300Y201596D01*
X853967D01*
X853301Y200930D01*
Y198264D01*
X853967Y197597D01*
X855300D01*
X855967Y198264D01*
Y198930D01*
X855300Y199597D01*
X853301D01*
X804816Y196472D02*
X804149Y195805D01*
Y194472D01*
X804816Y193806D01*
X807482D01*
X808148Y194472D01*
Y195805D01*
X807482Y196472D01*
X808148Y199804D02*
X804149D01*
X806149Y197805D01*
Y200471D01*
X804816Y201803D02*
X804149Y202470D01*
Y203803D01*
X804816Y204469D01*
X807482D01*
X808148Y203803D01*
Y202470D01*
X807482Y201803D01*
X804816D01*
X665590Y-3318D02*
X666257Y-2651D01*
Y-1318D01*
X665590Y-652D01*
X662924D01*
X662258Y-1318D01*
Y-2651D01*
X662924Y-3318D01*
X666257Y-7316D02*
Y-4651D01*
X664257D01*
X664924Y-5984D01*
Y-6650D01*
X664257Y-7316D01*
X662924D01*
X662258Y-6650D01*
Y-5317D01*
X662924Y-4651D01*
X665590Y-8649D02*
X666257Y-9316D01*
Y-10649D01*
X665590Y-11315D01*
X664924D01*
X664257Y-10649D01*
Y-9982D01*
Y-10649D01*
X663591Y-11315D01*
X662924D01*
X662258Y-10649D01*
Y-9316D01*
X662924Y-8649D01*
X601074Y41754D02*
X601741Y42421D01*
Y43754D01*
X601074Y44420D01*
X598408D01*
X597742Y43754D01*
Y42421D01*
X598408Y41754D01*
X601741Y37755D02*
Y40421D01*
X599741D01*
X600408Y39088D01*
Y38422D01*
X599741Y37755D01*
X598408D01*
X597742Y38422D01*
Y39755D01*
X598408Y40421D01*
X597742Y34423D02*
X601741D01*
X599741Y36423D01*
Y33757D01*
X362728Y-185564D02*
X362061Y-184897D01*
X360728D01*
X360062Y-185564D01*
Y-188230D01*
X360728Y-188896D01*
X362061D01*
X362728Y-188230D01*
X366726Y-184897D02*
X364061D01*
Y-186897D01*
X365394Y-186230D01*
X366060D01*
X366726Y-186897D01*
Y-188230D01*
X366060Y-188896D01*
X364727D01*
X364061Y-188230D01*
X370725Y-184897D02*
X368059D01*
Y-186897D01*
X369392Y-186230D01*
X370059D01*
X370725Y-186897D01*
Y-188230D01*
X370059Y-188896D01*
X368726D01*
X368059Y-188230D01*
X299830Y-129810D02*
X300497Y-129143D01*
Y-127810D01*
X299830Y-127144D01*
X297164D01*
X296498Y-127810D01*
Y-129143D01*
X297164Y-129810D01*
X300497Y-133808D02*
Y-131143D01*
X298497D01*
X299164Y-132476D01*
Y-133142D01*
X298497Y-133808D01*
X297164D01*
X296498Y-133142D01*
Y-131809D01*
X297164Y-131143D01*
X296498Y-135141D02*
Y-136474D01*
Y-135808D01*
X300497D01*
X299830Y-135141D01*
X213724Y-117364D02*
X214391Y-116697D01*
Y-115364D01*
X213724Y-114698D01*
X211058D01*
X210392Y-115364D01*
Y-116697D01*
X211058Y-117364D01*
X214391Y-121362D02*
Y-118697D01*
X212391D01*
X213058Y-120030D01*
Y-120696D01*
X212391Y-121362D01*
X211058D01*
X210392Y-120696D01*
Y-119363D01*
X211058Y-118697D01*
X214391Y-125361D02*
X213724Y-124028D01*
X212391Y-122695D01*
X211058D01*
X210392Y-123362D01*
Y-124695D01*
X211058Y-125361D01*
X211725D01*
X212391Y-124695D01*
Y-122695D01*
X398272Y360554D02*
X394273D01*
Y362553D01*
X394940Y363220D01*
X396273D01*
X396939Y362553D01*
Y360554D01*
Y361887D02*
X398272Y363220D01*
X394940Y364553D02*
X394273Y365219D01*
Y366552D01*
X394940Y367219D01*
X395606D01*
X396273Y366552D01*
Y365886D01*
Y366552D01*
X396939Y367219D01*
X397606D01*
X398272Y366552D01*
Y365219D01*
X397606Y364553D01*
X394940Y368551D02*
X394273Y369218D01*
Y370551D01*
X394940Y371217D01*
X395606D01*
X396273Y370551D01*
X396939Y371217D01*
X397606D01*
X398272Y370551D01*
Y369218D01*
X397606Y368551D01*
X396939D01*
X396273Y369218D01*
X395606Y368551D01*
X394940D01*
X396273Y369218D02*
Y370551D01*
X595024Y339454D02*
X594357Y340121D01*
X593024D01*
X592358Y339454D01*
Y336788D01*
X593024Y336122D01*
X594357D01*
X595024Y336788D01*
X598356Y336122D02*
Y340121D01*
X596357Y338121D01*
X599022D01*
X600355Y336122D02*
X601688D01*
X601022D01*
Y340121D01*
X600355Y339454D01*
X684768Y386224D02*
X685435Y385557D01*
X686768D01*
X687434Y386224D01*
Y388890D01*
X686768Y389556D01*
X685435D01*
X684768Y388890D01*
X681436Y389556D02*
Y385557D01*
X683435Y387557D01*
X680770D01*
X676771Y389556D02*
X679437D01*
X676771Y386890D01*
Y386224D01*
X677437Y385557D01*
X678770D01*
X679437Y386224D01*
X858122Y398396D02*
X858789Y399063D01*
Y400396D01*
X858122Y401062D01*
X855456D01*
X854790Y400396D01*
Y399063D01*
X855456Y398396D01*
X854790Y395064D02*
X858789D01*
X856789Y397063D01*
Y394398D01*
X858122Y393065D02*
X858789Y392398D01*
Y391065D01*
X858122Y390399D01*
X857456D01*
X856789Y391065D01*
Y391732D01*
Y391065D01*
X856123Y390399D01*
X855456D01*
X854790Y391065D01*
Y392398D01*
X855456Y393065D01*
X1052052Y408322D02*
X1052719Y407655D01*
X1054052D01*
X1054718Y408322D01*
Y410988D01*
X1054052Y411654D01*
X1052719D01*
X1052052Y410988D01*
X1048720Y411654D02*
Y407655D01*
X1050719Y409655D01*
X1048054D01*
X1044721Y411654D02*
Y407655D01*
X1046721Y409655D01*
X1044055D01*
X1441180Y365142D02*
X1441847Y364475D01*
X1443180D01*
X1443846Y365142D01*
Y367808D01*
X1443180Y368474D01*
X1441847D01*
X1441180Y367808D01*
X1437848Y368474D02*
Y364475D01*
X1439847Y366475D01*
X1437182D01*
X1433183Y364475D02*
X1434516Y365142D01*
X1435849Y366475D01*
Y367808D01*
X1435182Y368474D01*
X1433849D01*
X1433183Y367808D01*
Y367141D01*
X1433849Y366475D01*
X1435849D01*
X1663430Y363618D02*
X1664097Y362951D01*
X1665430D01*
X1666096Y363618D01*
Y366284D01*
X1665430Y366950D01*
X1664097D01*
X1663430Y366284D01*
X1662097Y363618D02*
X1661431Y362951D01*
X1660098D01*
X1659431Y363618D01*
Y364284D01*
X1660098Y364951D01*
X1660764D01*
X1660098D01*
X1659431Y365617D01*
Y366284D01*
X1660098Y366950D01*
X1661431D01*
X1662097Y366284D01*
X1658099Y366950D02*
X1656766D01*
X1657432D01*
Y362951D01*
X1658099Y363618D01*
X1785636Y620378D02*
X1784969Y621045D01*
X1783636D01*
X1782970Y620378D01*
Y617712D01*
X1783636Y617046D01*
X1784969D01*
X1785636Y617712D01*
X1786969Y620378D02*
X1787635Y621045D01*
X1788968D01*
X1789635Y620378D01*
Y619712D01*
X1788968Y619045D01*
X1788302D01*
X1788968D01*
X1789635Y618379D01*
Y617712D01*
X1788968Y617046D01*
X1787635D01*
X1786969Y617712D01*
X1793633Y617046D02*
X1790967D01*
X1793633Y619712D01*
Y620378D01*
X1792967Y621045D01*
X1791634D01*
X1790967Y620378D01*
X1859026Y794766D02*
X1855027D01*
Y796765D01*
X1855694Y797432D01*
X1857027D01*
X1857693Y796765D01*
Y794766D01*
Y796099D02*
X1859026Y797432D01*
Y798765D02*
Y800098D01*
Y799431D01*
X1855027D01*
X1855694Y798765D01*
X1855027Y804763D02*
X1855694Y803430D01*
X1857027Y802097D01*
X1858360D01*
X1859026Y802763D01*
Y804096D01*
X1858360Y804763D01*
X1857693D01*
X1857027Y804096D01*
Y802097D01*
X1625092Y788416D02*
X1621093D01*
Y790415D01*
X1621760Y791082D01*
X1623093D01*
X1623759Y790415D01*
Y788416D01*
Y789749D02*
X1625092Y791082D01*
Y792415D02*
Y793748D01*
Y793081D01*
X1621093D01*
X1621760Y792415D01*
X1624426Y795747D02*
X1625092Y796413D01*
Y797746D01*
X1624426Y798413D01*
X1621760D01*
X1621093Y797746D01*
Y796413D01*
X1621760Y795747D01*
X1622426D01*
X1623093Y796413D01*
Y798413D01*
X1431290Y784352D02*
X1427291D01*
Y786351D01*
X1427958Y787018D01*
X1429291D01*
X1429957Y786351D01*
Y784352D01*
Y785685D02*
X1431290Y787018D01*
Y791016D02*
Y788351D01*
X1428624Y791016D01*
X1427958D01*
X1427291Y790350D01*
Y789017D01*
X1427958Y788351D01*
Y792349D02*
X1427291Y793016D01*
Y794349D01*
X1427958Y795015D01*
X1430624D01*
X1431290Y794349D01*
Y793016D01*
X1430624Y792349D01*
X1427958D01*
X1216660Y787400D02*
X1212661D01*
Y789399D01*
X1213328Y790066D01*
X1214661D01*
X1215327Y789399D01*
Y787400D01*
Y788733D02*
X1216660Y790066D01*
Y794064D02*
Y791399D01*
X1213994Y794064D01*
X1213328D01*
X1212661Y793398D01*
Y792065D01*
X1213328Y791399D01*
X1216660Y795397D02*
Y796730D01*
Y796064D01*
X1212661D01*
X1213328Y795397D01*
X1014984Y784352D02*
X1010985D01*
Y786351D01*
X1011652Y787018D01*
X1012985D01*
X1013651Y786351D01*
Y784352D01*
Y785685D02*
X1014984Y787018D01*
Y791016D02*
Y788351D01*
X1012318Y791016D01*
X1011652D01*
X1010985Y790350D01*
Y789017D01*
X1011652Y788351D01*
X1014984Y795015D02*
Y792349D01*
X1012318Y795015D01*
X1011652D01*
X1010985Y794349D01*
Y793016D01*
X1011652Y792349D01*
X842772Y772922D02*
X838773D01*
Y774921D01*
X839440Y775588D01*
X840773D01*
X841439Y774921D01*
Y772922D01*
Y774255D02*
X842772Y775588D01*
Y779586D02*
Y776921D01*
X840106Y779586D01*
X839440D01*
X838773Y778920D01*
Y777587D01*
X839440Y776921D01*
Y780919D02*
X838773Y781586D01*
Y782919D01*
X839440Y783585D01*
X840106D01*
X840773Y782919D01*
Y782252D01*
Y782919D01*
X841439Y783585D01*
X842106D01*
X842772Y782919D01*
Y781586D01*
X842106Y780919D01*
X581152Y789686D02*
Y785687D01*
X579153D01*
X578486Y786354D01*
Y787687D01*
X579153Y788353D01*
X581152D01*
X579819D02*
X578486Y789686D01*
X577153Y786354D02*
X576487Y785687D01*
X575154D01*
X574487Y786354D01*
Y787020D01*
X575154Y787687D01*
X575820D01*
X575154D01*
X574487Y788353D01*
Y789020D01*
X575154Y789686D01*
X576487D01*
X577153Y789020D01*
X571155Y789686D02*
Y785687D01*
X573155Y787687D01*
X570489D01*
X680576Y804148D02*
X681243Y804815D01*
Y806148D01*
X680576Y806814D01*
X677910D01*
X677244Y806148D01*
Y804815D01*
X677910Y804148D01*
X677244Y800150D02*
Y802815D01*
X679910Y800150D01*
X680576D01*
X681243Y800816D01*
Y802149D01*
X680576Y802815D01*
X677910Y798817D02*
X677244Y798150D01*
Y796817D01*
X677910Y796151D01*
X680576D01*
X681243Y796817D01*
Y798150D01*
X680576Y798817D01*
X679910D01*
X679243Y798150D01*
Y796151D01*
X710328Y811038D02*
X709661Y810371D01*
Y809038D01*
X710328Y808372D01*
X712994D01*
X713660Y809038D01*
Y810371D01*
X712994Y811038D01*
X713660Y815036D02*
Y812371D01*
X710994Y815036D01*
X710328D01*
X709661Y814370D01*
Y813037D01*
X710328Y812371D01*
X709661Y819035D02*
X710328Y817702D01*
X711661Y816369D01*
X712994D01*
X713660Y817036D01*
Y818369D01*
X712994Y819035D01*
X712327D01*
X711661Y818369D01*
Y816369D01*
X628904Y757174D02*
X624905D01*
Y759173D01*
X625572Y759840D01*
X626905D01*
X627571Y759173D01*
Y757174D01*
Y758507D02*
X628904Y759840D01*
Y763839D02*
Y761173D01*
X626238Y763839D01*
X625572D01*
X624905Y763172D01*
Y761839D01*
X625572Y761173D01*
X628904Y767171D02*
X624905D01*
X626905Y765171D01*
Y767837D01*
X568452Y800354D02*
Y804353D01*
X570451D01*
X571118Y803686D01*
Y802353D01*
X570451Y801687D01*
X568452D01*
X569785D02*
X571118Y800354D01*
X572451Y803686D02*
X573117Y804353D01*
X574450D01*
X575117Y803686D01*
Y803020D01*
X574450Y802353D01*
X573784D01*
X574450D01*
X575117Y801687D01*
Y801020D01*
X574450Y800354D01*
X573117D01*
X572451Y801020D01*
X576449Y803686D02*
X577116Y804353D01*
X578449D01*
X579115Y803686D01*
Y801020D01*
X578449Y800354D01*
X577116D01*
X576449Y801020D01*
Y803686D01*
X515112Y786933D02*
Y790265D01*
X514279Y791098D01*
X512613D01*
X511780Y790265D01*
Y786933D01*
X512613Y786100D01*
X514279D01*
X513446Y787766D02*
X515112Y786100D01*
X514279D02*
X515112Y786933D01*
X519277Y786100D02*
Y791098D01*
X516778Y788599D01*
X520111D01*
X424224Y898154D02*
X424891Y897487D01*
X426224D01*
X426890Y898154D01*
Y900820D01*
X426224Y901486D01*
X424891D01*
X424224Y900820D01*
X422891Y901486D02*
X421558D01*
X422225D01*
Y897487D01*
X422891Y898154D01*
X417560Y901486D02*
Y897487D01*
X419559Y899487D01*
X416893D01*
X380238Y896366D02*
Y900365D01*
X382237D01*
X382904Y899698D01*
Y898365D01*
X382237Y897699D01*
X380238D01*
X381571D02*
X382904Y896366D01*
X386903Y900365D02*
X385570Y899698D01*
X384237Y898365D01*
Y897032D01*
X384903Y896366D01*
X386236D01*
X386903Y897032D01*
Y897699D01*
X386236Y898365D01*
X384237D01*
X347362Y821198D02*
X346695Y820531D01*
Y819198D01*
X347362Y818532D01*
X350028D01*
X350694Y819198D01*
Y820531D01*
X350028Y821198D01*
X346695Y822531D02*
Y825197D01*
X347362D01*
X350028Y822531D01*
X350694D01*
X245856Y829708D02*
X246523Y829041D01*
X247856D01*
X248522Y829708D01*
Y832374D01*
X247856Y833040D01*
X246523D01*
X245856Y832374D01*
X241857Y829041D02*
X244523D01*
Y831041D01*
X243190Y830374D01*
X242524D01*
X241857Y831041D01*
Y832374D01*
X242524Y833040D01*
X243857D01*
X244523Y832374D01*
X246634Y817372D02*
Y813373D01*
X244635D01*
X243968Y814040D01*
Y815373D01*
X244635Y816039D01*
X246634D01*
X245301D02*
X243968Y817372D01*
X242635Y814040D02*
X241969Y813373D01*
X240636D01*
X239970Y814040D01*
Y814706D01*
X240636Y815373D01*
X241302D01*
X240636D01*
X239970Y816039D01*
Y816706D01*
X240636Y817372D01*
X241969D01*
X242635Y816706D01*
X235971Y813373D02*
X237304Y814040D01*
X238637Y815373D01*
Y816706D01*
X237970Y817372D01*
X236637D01*
X235971Y816706D01*
Y816039D01*
X236637Y815373D01*
X238637D01*
X241284Y872380D02*
X241951Y871713D01*
X243284D01*
X243950Y872380D01*
Y875046D01*
X243284Y875712D01*
X241951D01*
X241284Y875046D01*
X237952Y875712D02*
Y871713D01*
X239951Y873713D01*
X237285D01*
X240396Y856527D02*
Y852529D01*
X238397D01*
X237730Y853195D01*
Y854528D01*
X238397Y855195D01*
X240396D01*
X239063D02*
X237730Y856527D01*
X236397Y853195D02*
X235731Y852529D01*
X234398D01*
X233732Y853195D01*
Y853862D01*
X234398Y854528D01*
X235065D01*
X234398D01*
X233732Y855195D01*
Y855861D01*
X234398Y856527D01*
X235731D01*
X236397Y855861D01*
X232399Y853195D02*
X231732Y852529D01*
X230399D01*
X229733Y853195D01*
Y853862D01*
X230399Y854528D01*
X231066D01*
X230399D01*
X229733Y855195D01*
Y855861D01*
X230399Y856527D01*
X231732D01*
X232399Y855861D01*
X209804Y813054D02*
X205805D01*
Y815053D01*
X206472Y815720D01*
X207805D01*
X208471Y815053D01*
Y813054D01*
Y814387D02*
X209804Y815720D01*
X206472Y817053D02*
X205805Y817719D01*
Y819052D01*
X206472Y819718D01*
X207138D01*
X207805Y819052D01*
Y818386D01*
Y819052D01*
X208471Y819718D01*
X209138D01*
X209804Y819052D01*
Y817719D01*
X209138Y817053D01*
X209948Y757330D02*
X209281Y756664D01*
Y755331D01*
X209948Y754664D01*
X212614D01*
X213280Y755331D01*
Y756664D01*
X212614Y757330D01*
X213280Y758663D02*
Y759996D01*
Y759329D01*
X209281D01*
X209948Y758663D01*
X213280Y761995D02*
Y763328D01*
Y762662D01*
X209281D01*
X209948Y761995D01*
X189628Y757190D02*
X188961Y756523D01*
Y755190D01*
X189628Y754524D01*
X192294D01*
X192960Y755190D01*
Y756523D01*
X192294Y757190D01*
X192960Y758523D02*
Y759856D01*
Y759189D01*
X188961D01*
X189628Y758523D01*
Y761855D02*
X188961Y762521D01*
Y763854D01*
X189628Y764521D01*
X192294D01*
X192960Y763854D01*
Y762521D01*
X192294Y761855D01*
X189628D01*
X250714Y641460D02*
X250047Y642127D01*
X248714D01*
X248048Y641460D01*
Y638794D01*
X248714Y638128D01*
X250047D01*
X250714Y638794D01*
X254713Y638128D02*
X252047D01*
X254713Y640794D01*
Y641460D01*
X254046Y642127D01*
X252713D01*
X252047Y641460D01*
X256045Y638128D02*
X257378D01*
X256712D01*
Y642127D01*
X256045Y641460D01*
X250714Y659748D02*
X250047Y660415D01*
X248714D01*
X248048Y659748D01*
Y657082D01*
X248714Y656416D01*
X250047D01*
X250714Y657082D01*
X254713Y656416D02*
X252047D01*
X254713Y659082D01*
Y659748D01*
X254046Y660415D01*
X252713D01*
X252047Y659748D01*
X256045D02*
X256712Y660415D01*
X258045D01*
X258711Y659748D01*
Y657082D01*
X258045Y656416D01*
X256712D01*
X256045Y657082D01*
Y659748D01*
X258682Y701786D02*
X259349Y702453D01*
Y703786D01*
X258682Y704452D01*
X256016D01*
X255350Y703786D01*
Y702453D01*
X256016Y701786D01*
X255350Y700453D02*
Y699120D01*
Y699787D01*
X259349D01*
X258682Y700453D01*
X255350Y694455D02*
Y697121D01*
X258016Y694455D01*
X258682D01*
X259349Y695122D01*
Y696455D01*
X258682Y697121D01*
X238744Y710074D02*
X239411Y709407D01*
X240744D01*
X241410Y710074D01*
Y712740D01*
X240744Y713406D01*
X239411D01*
X238744Y712740D01*
X237411Y713406D02*
X236078D01*
X236745D01*
Y709407D01*
X237411Y710074D01*
X234079D02*
X233413Y709407D01*
X232080D01*
X231413Y710074D01*
Y710740D01*
X232080Y711407D01*
X232746D01*
X232080D01*
X231413Y712073D01*
Y712740D01*
X232080Y713406D01*
X233413D01*
X234079Y712740D01*
X221598Y669528D02*
X222265Y670195D01*
Y671528D01*
X221598Y672194D01*
X218932D01*
X218266Y671528D01*
Y670195D01*
X218932Y669528D01*
X222265Y665529D02*
X221598Y666862D01*
X220265Y668195D01*
X218932D01*
X218266Y667529D01*
Y666196D01*
X218932Y665529D01*
X219599D01*
X220265Y666196D01*
Y668195D01*
X146410Y578314D02*
X145743Y578981D01*
X144410D01*
X143744Y578314D01*
Y575649D01*
X144410Y574982D01*
X145743D01*
X146410Y575649D01*
X150408Y578981D02*
X149076Y578314D01*
X147743Y576982D01*
Y575649D01*
X148409Y574982D01*
X149742D01*
X150408Y575649D01*
Y576315D01*
X149742Y576982D01*
X147743D01*
X151741Y575649D02*
X152408Y574982D01*
X153741D01*
X154407Y575649D01*
Y578314D01*
X153741Y578981D01*
X152408D01*
X151741Y578314D01*
Y577648D01*
X152408Y576982D01*
X154407D01*
X116813Y559944D02*
X120145D01*
X120978Y560777D01*
Y562443D01*
X120145Y563276D01*
X116813D01*
X115980Y562443D01*
Y560777D01*
X117646Y561610D02*
X115980Y559944D01*
Y560777D02*
X116813Y559944D01*
X120978Y558278D02*
Y554945D01*
X120145D01*
X116813Y558278D01*
X115980D01*
X86358Y261914D02*
Y265913D01*
X88357D01*
X89024Y265246D01*
Y263913D01*
X88357Y263247D01*
X86358D01*
X87691D02*
X89024Y261914D01*
X90357D02*
X91690D01*
X91023D01*
Y265913D01*
X90357Y265246D01*
X93689D02*
X94355Y265913D01*
X95688D01*
X96355Y265246D01*
Y262581D01*
X95688Y261914D01*
X94355D01*
X93689Y262581D01*
Y265246D01*
X85342Y291632D02*
Y295631D01*
X87341D01*
X88008Y294964D01*
Y293631D01*
X87341Y292965D01*
X85342D01*
X86675D02*
X88008Y291632D01*
X89341Y292299D02*
X90007Y291632D01*
X91340D01*
X92007Y292299D01*
Y294964D01*
X91340Y295631D01*
X90007D01*
X89341Y294964D01*
Y294298D01*
X90007Y293631D01*
X92007D01*
X93980Y441070D02*
X97979D01*
Y439071D01*
X97312Y438404D01*
X95979D01*
X95313Y439071D01*
Y441070D01*
Y439737D02*
X93980Y438404D01*
X97312Y437071D02*
X97979Y436405D01*
Y435072D01*
X97312Y434406D01*
X96646D01*
X95979Y435072D01*
X95313Y434406D01*
X94646D01*
X93980Y435072D01*
Y436405D01*
X94646Y437071D01*
X95313D01*
X95979Y436405D01*
X96646Y437071D01*
X97312D01*
X95979Y436405D02*
Y435072D01*
X88900Y-43560D02*
X84901D01*
Y-41561D01*
X85568Y-40894D01*
X86900D01*
X87567Y-41561D01*
Y-43560D01*
Y-42227D02*
X88900Y-40894D01*
Y-36895D02*
Y-39561D01*
X86234Y-36895D01*
X85568D01*
X84901Y-37562D01*
Y-38895D01*
X85568Y-39561D01*
X84901Y-32897D02*
Y-35563D01*
X86900D01*
X86234Y-34230D01*
Y-33563D01*
X86900Y-32897D01*
X88233D01*
X88900Y-33563D01*
Y-34896D01*
X88233Y-35563D01*
X416814Y601513D02*
Y604845D01*
X415981Y605678D01*
X414315D01*
X413482Y604845D01*
Y601513D01*
X414315Y600680D01*
X415981D01*
X415148Y602346D02*
X416814Y600680D01*
X415981D02*
X416814Y601513D01*
X418480Y604845D02*
X419313Y605678D01*
X420979D01*
X421813Y604845D01*
Y604012D01*
X420979Y603179D01*
X420146D01*
X420979D01*
X421813Y602346D01*
Y601513D01*
X420979Y600680D01*
X419313D01*
X418480Y601513D01*
X162434Y847117D02*
Y843784D01*
X163267Y842951D01*
X164933D01*
X165766Y843784D01*
Y847117D01*
X164933Y847950D01*
X163267D01*
X164100Y846284D02*
X162434Y847950D01*
X163267D02*
X162434Y847117D01*
X157435Y842951D02*
X160768D01*
Y845451D01*
X159101Y844617D01*
X158268D01*
X157435Y845451D01*
Y847117D01*
X158268Y847950D01*
X159935D01*
X160768Y847117D01*
X630201Y811148D02*
X626869D01*
X626035Y810315D01*
Y808649D01*
X626869Y807816D01*
X630201D01*
X631034Y808649D01*
Y810315D01*
X629368Y809482D02*
X631034Y811148D01*
Y810315D02*
X630201Y811148D01*
X626869Y812814D02*
X626035Y813648D01*
Y815314D01*
X626869Y816147D01*
X627702D01*
X628535Y815314D01*
X629368Y816147D01*
X630201D01*
X631034Y815314D01*
Y813648D01*
X630201Y812814D01*
X629368D01*
X628535Y813648D01*
X627702Y812814D01*
X626869D01*
X628535Y813648D02*
Y815314D01*
X81565Y806308D02*
Y812973D01*
X79898Y814639D01*
X76566D01*
X74900Y812973D01*
Y806308D01*
X76566Y804642D01*
X79898D01*
X78232Y807974D02*
X81565Y804642D01*
X79898D02*
X81565Y806308D01*
X91561Y814639D02*
X88229Y812973D01*
X84897Y809640D01*
Y806308D01*
X86563Y804642D01*
X89895D01*
X91561Y806308D01*
Y807974D01*
X89895Y809640D01*
X84897D01*
X270970Y847686D02*
X266971D01*
Y849685D01*
X267638Y850352D01*
X268971D01*
X269637Y849685D01*
Y847686D01*
Y849019D02*
X270970Y850352D01*
Y851685D02*
Y853018D01*
Y852351D01*
X266971D01*
X267638Y851685D01*
X200866Y854710D02*
X196867D01*
Y856710D01*
X197534Y857376D01*
X198867D01*
X199533Y856710D01*
Y854710D01*
Y856043D02*
X200866Y857376D01*
Y860708D02*
X196867D01*
X198867Y858709D01*
Y861375D01*
X427276Y651080D02*
X431275D01*
Y649081D01*
X430608Y648414D01*
X429275D01*
X428609Y649081D01*
Y651080D01*
Y649747D02*
X427276Y648414D01*
Y644416D02*
Y647081D01*
X429942Y644416D01*
X430608D01*
X431275Y645082D01*
Y646415D01*
X430608Y647081D01*
X431275Y643083D02*
Y640417D01*
X430608D01*
X427943Y643083D01*
X427276D01*
X464400Y818182D02*
Y822181D01*
X466399D01*
X467066Y821514D01*
Y820181D01*
X466399Y819515D01*
X464400D01*
X465733D02*
X467066Y818182D01*
X471064D02*
X468399D01*
X471064Y820848D01*
Y821514D01*
X470398Y822181D01*
X469065D01*
X468399Y821514D01*
X472397D02*
X473064Y822181D01*
X474397D01*
X475063Y821514D01*
Y820848D01*
X474397Y820181D01*
X475063Y819515D01*
Y818848D01*
X474397Y818182D01*
X473064D01*
X472397Y818848D01*
Y819515D01*
X473064Y820181D01*
X472397Y820848D01*
Y821514D01*
X473064Y820181D02*
X474397D01*
X227672Y839772D02*
Y843771D01*
X229671D01*
X230338Y843104D01*
Y841771D01*
X229671Y841105D01*
X227672D01*
X229005D02*
X230338Y839772D01*
X234336D02*
X231671D01*
X234336Y842438D01*
Y843104D01*
X233670Y843771D01*
X232337D01*
X231671Y843104D01*
X235669Y840439D02*
X236336Y839772D01*
X237669D01*
X238335Y840439D01*
Y843104D01*
X237669Y843771D01*
X236336D01*
X235669Y843104D01*
Y842438D01*
X236336Y841771D01*
X238335D01*
X208328Y333414D02*
X212327D01*
Y331415D01*
X211660Y330748D01*
X210327D01*
X209661Y331415D01*
Y333414D01*
Y332081D02*
X208328Y330748D01*
Y329415D02*
Y328082D01*
Y328749D01*
X212327D01*
X211660Y329415D01*
Y326083D02*
X212327Y325417D01*
Y324084D01*
X211660Y323417D01*
X210994D01*
X210327Y324084D01*
Y324750D01*
Y324084D01*
X209661Y323417D01*
X208995D01*
X208328Y324084D01*
Y325417D01*
X208995Y326083D01*
X646636Y809332D02*
X642637D01*
Y811331D01*
X643304Y811998D01*
X644637D01*
X645303Y811331D01*
Y809332D01*
Y810665D02*
X646636Y811998D01*
X643304Y813331D02*
X642637Y813997D01*
Y815330D01*
X643304Y815996D01*
X643970D01*
X644637Y815330D01*
Y814664D01*
Y815330D01*
X645303Y815996D01*
X645969D01*
X646636Y815330D01*
Y813997D01*
X645969Y813331D01*
X642637Y817329D02*
Y819995D01*
X643304D01*
X645969Y817329D01*
X646636D01*
X163624Y559220D02*
X167623D01*
Y557221D01*
X166956Y556554D01*
X165623D01*
X164957Y557221D01*
Y559220D01*
Y557887D02*
X163624Y556554D01*
X166956Y555221D02*
X167623Y554555D01*
Y553222D01*
X166956Y552556D01*
X166290D01*
X165623Y553222D01*
Y553888D01*
Y553222D01*
X164957Y552556D01*
X164291D01*
X163624Y553222D01*
Y554555D01*
X164291Y555221D01*
X166956Y551223D02*
X167623Y550556D01*
Y549223D01*
X166956Y548557D01*
X166290D01*
X165623Y549223D01*
Y549890D01*
Y549223D01*
X164957Y548557D01*
X164291D01*
X163624Y549223D01*
Y550556D01*
X164291Y551223D01*
X166956Y547224D02*
X167623Y546558D01*
Y545224D01*
X166956Y544558D01*
X166290D01*
X165623Y545224D01*
Y545891D01*
Y545224D01*
X164957Y544558D01*
X164291D01*
X163624Y545224D01*
Y546558D01*
X164291Y547224D01*
X361298Y751063D02*
Y755062D01*
X358632D01*
X357299Y751730D02*
X356633Y751063D01*
X355300D01*
X354633Y751730D01*
Y752396D01*
X355300Y753063D01*
X355966D01*
X355300D01*
X354633Y753729D01*
Y754396D01*
X355300Y755062D01*
X356633D01*
X357299Y754396D01*
X226458Y884951D02*
Y880952D01*
X229124D01*
X232456D02*
Y884951D01*
X230457Y882951D01*
X233123D01*
X290488Y651781D02*
Y655780D01*
X287822D01*
X283824Y651781D02*
X285156Y652448D01*
X286489Y653781D01*
Y655114D01*
X285823Y655780D01*
X284490D01*
X283824Y655114D01*
Y654447D01*
X284490Y653781D01*
X286489D01*
X291185Y397580D02*
X284521D01*
X282855Y395914D01*
Y392582D01*
X284521Y390916D01*
X291185D01*
X292852Y392582D01*
Y395914D01*
X289519Y394248D02*
X292852Y397580D01*
Y395914D02*
X291185Y397580D01*
X292852Y407577D02*
Y400913D01*
X286187Y407577D01*
X284521D01*
X282855Y405911D01*
Y402579D01*
X284521Y400913D01*
D12*
X334398Y532602D02*
G03*
X334398Y532602I-1000J0D01*
G01*
X418682Y388128D02*
G03*
X418682Y388128I-1000J0D01*
G01*
X502030Y809600D02*
G03*
X502030Y809600I-1000J0D01*
G01*
X48662Y602942D02*
G03*
X48662Y602942I-1000J0D01*
G01*
X403732Y624180D02*
G03*
X403732Y624180I-1000J0D01*
G01*
X267352Y377916D02*
G03*
X267352Y377916I-1000J0D01*
G01*
X82334Y320330D02*
G03*
X82334Y320330I-1000J0D01*
G01*
X322802Y971444D02*
G03*
X322802Y971444I-1000J0D01*
G01*
X71806Y460690D02*
G03*
X71806Y460690I-1000J0D01*
G01*
D13*
X252859Y-402595D02*
G03*
X252859Y-402595I-4166J0D01*
G01*
X643738Y181356D02*
G03*
X643738Y181356I-4166J0D01*
G01*
X439268Y4826D02*
G03*
X439268Y4826I-4166J0D01*
G01*
X93482Y-55921D02*
G03*
X93482Y-55921I-4166J0D01*
G01*
X560395Y-254272D02*
G03*
X560395Y-254272I-4166J0D01*
G01*
X732892Y-174498D02*
G03*
X732892Y-174498I-4166J0D01*
G01*
X1022936Y-45202D02*
G03*
X1022936Y-45202I-4166J0D01*
G01*
X1213968Y-28448D02*
G03*
X1213968Y-28448I-4166J0D01*
G01*
X1404722Y-44450D02*
G03*
X1404722Y-44450I-4166J0D01*
G01*
X1832566Y113549D02*
G03*
X1832566Y113549I-4166J0D01*
G01*
X1833728Y495554D02*
G03*
X1833728Y495554I-4166J0D01*
G01*
X1834490Y686562D02*
G03*
X1834490Y686562I-4166J0D01*
G01*
X1597508Y685292D02*
G03*
X1597508Y685292I-4166J0D01*
G01*
X1405735Y718539D02*
G03*
X1405735Y718539I-4166J0D01*
G01*
X1215238Y734568D02*
G03*
X1215238Y734568I-4166J0D01*
G01*
X1024738Y718312D02*
G03*
X1024738Y718312I-4166J0D01*
G01*
X832434Y704078D02*
G03*
X832434Y704078I-4166J0D01*
G01*
X643484Y467614D02*
G03*
X643484Y467614I-4166J0D01*
G01*
X1784941Y-76953D02*
G03*
X1784941Y-76953I-4166J0D01*
G01*
X1594440D02*
G03*
X1594440Y-76953I-4166J0D01*
G01*
Y113549D02*
G03*
X1594440Y113549I-4166J0D01*
G01*
X1405735Y147035D02*
G03*
X1405735Y147035I-4166J0D01*
G01*
X1214730Y161544D02*
G03*
X1214730Y161544I-4166J0D01*
G01*
X1024732Y147035D02*
G03*
X1024732Y147035I-4166J0D01*
G01*
X835000Y134620D02*
G03*
X835000Y134620I-4166J0D01*
G01*
X1832566Y304050D02*
G03*
X1832566Y304050I-4166J0D01*
G01*
X1594440D02*
G03*
X1594440Y304050I-4166J0D01*
G01*
X1403938Y335801D02*
G03*
X1403938Y335801I-4166J0D01*
G01*
X1213437Y351777D02*
G03*
X1213437Y351777I-4166J0D01*
G01*
X1022936Y335801D02*
G03*
X1022936Y335801I-4166J0D01*
G01*
X833222Y324612D02*
G03*
X833222Y324612I-4166J0D01*
G01*
X1595730Y495554D02*
G03*
X1595730Y495554I-4166J0D01*
G01*
X1405992Y528574D02*
G03*
X1405992Y528574I-4166J0D01*
G01*
X1216254Y543814D02*
G03*
X1216254Y543814I-4166J0D01*
G01*
X1024732Y528037D02*
G03*
X1024732Y528037I-4166J0D01*
G01*
X834231Y515337D02*
G03*
X834231Y515337I-4166J0D01*
G01*
X643738Y706882D02*
G03*
X643738Y706882I-4166J0D01*
G01*
X175270Y-228387D02*
G03*
X175270Y-228387I-4166J0D01*
G01*
X267352Y377916D02*
G03*
X267352Y377916I-1000J0D01*
G01*
X1244897Y388874D02*
G03*
X1244897Y388874I-27221J0D01*
G01*
X395131Y-355092D02*
G03*
X395131Y-355092I-32927J0D01*
G01*
X361660Y-361424D02*
X432907Y-484827D01*
X298065Y-562678D02*
X432907Y-484827D01*
X297718Y-562585D02*
X298065Y-562678D01*
X226598Y-439402D02*
X297718Y-562585D01*
X226598Y-439402D02*
X251674Y-424924D01*
X252046Y-423536D01*
X247220Y-415177D02*
X252046Y-423536D01*
X247220Y-415177D02*
X248150Y-411707D01*
X278286Y-394308D01*
X281409Y-395145D01*
X286870Y-404604D01*
X361660Y-361424D01*
X476250Y62938D02*
X618744D01*
X476250D02*
Y218640D01*
X476504Y218894D01*
X618744D01*
Y189938D02*
Y218894D01*
Y189938D02*
X619760Y188922D01*
X629412D01*
X631952Y186382D01*
Y151584D02*
Y186382D01*
X629666Y149298D02*
X631952Y151584D01*
X618744Y149298D02*
X629666D01*
X618744Y62938D02*
Y149298D01*
X271780Y-113592D02*
X414274D01*
X271780D02*
Y42110D01*
X272034Y42364D01*
X414274D01*
Y13408D02*
Y42364D01*
Y13408D02*
X415290Y12392D01*
X424942D01*
X427482Y9852D01*
Y-24946D02*
Y9852D01*
X425196Y-27232D02*
X427482Y-24946D01*
X414274Y-27232D02*
X425196D01*
X414274Y-113592D02*
Y-27232D01*
X202283Y-14750D02*
X273530Y-138153D01*
X138688Y-216004D02*
X273530Y-138153D01*
X138341Y-215911D02*
X138688Y-216004D01*
X67221Y-92728D02*
X138341Y-215911D01*
X67221Y-92728D02*
X92297Y-78250D01*
X92669Y-76862D01*
X87843Y-68503D02*
X92669Y-76862D01*
X87843Y-68503D02*
X88773Y-65033D01*
X118909Y-47634D01*
X122032Y-48471D01*
X127493Y-57930D01*
X202283Y-14750D01*
X392907Y-372690D02*
X535401D01*
X392907D02*
Y-216988D01*
X393162Y-216734D01*
X535401D01*
Y-245690D02*
Y-216734D01*
Y-245690D02*
X536418Y-246706D01*
X546069D01*
X548610Y-249246D01*
Y-284044D02*
Y-249246D01*
X546324Y-286330D02*
X548610Y-284044D01*
X535401Y-286330D02*
X546324D01*
X535401Y-372690D02*
Y-286330D01*
X565404Y-292916D02*
X707898D01*
X565404D02*
Y-137214D01*
X565658Y-136960D01*
X707898D01*
Y-165916D02*
Y-136960D01*
Y-165916D02*
X708914Y-166932D01*
X718566D01*
X721106Y-169472D01*
Y-204270D02*
Y-169472D01*
X718820Y-206556D02*
X721106Y-204270D01*
X707898Y-206556D02*
X718820D01*
X707898Y-292916D02*
Y-206556D01*
X855448Y-163620D02*
X997942D01*
X855448D02*
Y-7918D01*
X855702Y-7664D01*
X997942D01*
Y-36620D02*
Y-7664D01*
Y-36620D02*
X998958Y-37636D01*
X1008610D01*
X1011150Y-40176D01*
Y-74974D02*
Y-40176D01*
X1008864Y-77260D02*
X1011150Y-74974D01*
X997942Y-77260D02*
X1008864D01*
X997942Y-163620D02*
Y-77260D01*
X1046480Y-146866D02*
X1188974D01*
X1046480D02*
Y8836D01*
X1046734Y9090D01*
X1188974D01*
Y-19866D02*
Y9090D01*
Y-19866D02*
X1189990Y-20882D01*
X1199642D01*
X1202182Y-23422D01*
Y-58220D02*
Y-23422D01*
X1199896Y-60506D02*
X1202182Y-58220D01*
X1188974Y-60506D02*
X1199896D01*
X1188974Y-146866D02*
Y-60506D01*
X1237234Y-162868D02*
X1379728D01*
X1237234D02*
Y-7166D01*
X1237488Y-6912D01*
X1379728D01*
Y-35868D02*
Y-6912D01*
Y-35868D02*
X1380744Y-36884D01*
X1390396D01*
X1392936Y-39424D01*
Y-74222D02*
Y-39424D01*
X1390650Y-76508D02*
X1392936Y-74222D01*
X1379728Y-76508D02*
X1390650D01*
X1379728Y-162868D02*
Y-76508D01*
X1665078Y-4869D02*
X1807572D01*
X1665078D02*
Y150833D01*
X1665332Y151087D01*
X1807572D01*
Y122131D02*
Y151087D01*
Y122131D02*
X1808588Y121115D01*
X1818240D01*
X1820780Y118575D01*
Y83777D02*
Y118575D01*
X1818494Y81491D02*
X1820780Y83777D01*
X1807572Y81491D02*
X1818494D01*
X1807572Y-4869D02*
Y81491D01*
X1666240Y377136D02*
X1808734D01*
X1666240D02*
Y532838D01*
X1666494Y533092D01*
X1808734D01*
Y504136D02*
Y533092D01*
Y504136D02*
X1809750Y503120D01*
X1819402D01*
X1821942Y500580D01*
Y465782D02*
Y500580D01*
X1819656Y463496D02*
X1821942Y465782D01*
X1808734Y463496D02*
X1819656D01*
X1808734Y377136D02*
Y463496D01*
X1667002Y568144D02*
X1809496D01*
X1667002D02*
Y723846D01*
X1667256Y724100D01*
X1809496D01*
Y695144D02*
Y724100D01*
Y695144D02*
X1810512Y694128D01*
X1820164D01*
X1822704Y691588D01*
Y656790D02*
Y691588D01*
X1820418Y654504D02*
X1822704Y656790D01*
X1809496Y654504D02*
X1820418D01*
X1809496Y568144D02*
Y654504D01*
X1430020Y566874D02*
X1572514D01*
X1430020D02*
Y722576D01*
X1430274Y722830D01*
X1572514D01*
Y693874D02*
Y722830D01*
Y693874D02*
X1573530Y692858D01*
X1583182D01*
X1585722Y690318D01*
Y655520D02*
Y690318D01*
X1583436Y653234D02*
X1585722Y655520D01*
X1572514Y653234D02*
X1583436D01*
X1572514Y566874D02*
Y653234D01*
X1238248Y600121D02*
X1380741D01*
X1238248D02*
Y755823D01*
X1238502Y756077D01*
X1380741D01*
Y727121D02*
Y756077D01*
Y727121D02*
X1381758Y726105D01*
X1391409D01*
X1393949Y723565D01*
Y688767D02*
Y723565D01*
X1391664Y686481D02*
X1393949Y688767D01*
X1380741Y686481D02*
X1391664D01*
X1380741Y600121D02*
Y686481D01*
X1047750Y616150D02*
X1190244D01*
X1047750D02*
Y771852D01*
X1048004Y772106D01*
X1190244D01*
Y743150D02*
Y772106D01*
Y743150D02*
X1191260Y742134D01*
X1200912D01*
X1203452Y739594D01*
Y704796D02*
Y739594D01*
X1201166Y702510D02*
X1203452Y704796D01*
X1190244Y702510D02*
X1201166D01*
X1190244Y616150D02*
Y702510D01*
X857250Y599894D02*
X999744D01*
X857250D02*
Y755596D01*
X857504Y755850D01*
X999744D01*
Y726894D02*
Y755850D01*
Y726894D02*
X1000760Y725878D01*
X1010412D01*
X1012952Y723338D01*
Y688540D02*
Y723338D01*
X1010666Y686254D02*
X1012952Y688540D01*
X999744Y686254D02*
X1010666D01*
X999744Y599894D02*
Y686254D01*
X664946Y585660D02*
X807440D01*
X664946D02*
Y741362D01*
X665200Y741616D01*
X807440D01*
Y712660D02*
Y741616D01*
Y712660D02*
X808456Y711644D01*
X818108D01*
X820648Y709104D01*
Y674306D02*
Y709104D01*
X818362Y672020D02*
X820648Y674306D01*
X807440Y672020D02*
X818362D01*
X807440Y585660D02*
Y672020D01*
X475996Y349196D02*
X618490D01*
X475996D02*
Y504898D01*
X476250Y505152D01*
X618490D01*
Y476196D02*
Y505152D01*
Y476196D02*
X619506Y475180D01*
X629158D01*
X631698Y472640D01*
Y437842D02*
Y472640D01*
X629412Y435556D02*
X631698Y437842D01*
X618490Y435556D02*
X629412D01*
X618490Y349196D02*
Y435556D01*
X166370Y638048D02*
Y686562D01*
X215138D01*
Y638048D02*
Y686562D01*
X166370Y638048D02*
X215138D01*
X187198Y341884D02*
X235712D01*
X187198D02*
Y390652D01*
X235712D01*
Y341884D02*
Y390652D01*
X1759947Y-195371D02*
Y-109011D01*
X1770869D01*
X1773155Y-106725D01*
Y-71927D01*
X1770615Y-69387D02*
X1773155Y-71927D01*
X1760963Y-69387D02*
X1770615D01*
X1759947Y-68371D02*
X1760963Y-69387D01*
X1759947Y-68371D02*
Y-39415D01*
X1617707D02*
X1759947D01*
X1617453Y-39669D02*
X1617707Y-39415D01*
X1617453Y-195371D02*
Y-39669D01*
Y-195371D02*
X1759947D01*
X1569446D02*
Y-109011D01*
X1580368D01*
X1582654Y-106725D01*
Y-71927D01*
X1580114Y-69387D02*
X1582654Y-71927D01*
X1570462Y-69387D02*
X1580114D01*
X1569446Y-68371D02*
X1570462Y-69387D01*
X1569446Y-68371D02*
Y-39415D01*
X1427206D02*
X1569446D01*
X1426952Y-39669D02*
X1427206Y-39415D01*
X1426952Y-195371D02*
Y-39669D01*
Y-195371D02*
X1569446D01*
Y-4869D02*
Y81491D01*
X1580368D01*
X1582654Y83777D01*
Y118575D01*
X1580114Y121115D02*
X1582654Y118575D01*
X1570462Y121115D02*
X1580114D01*
X1569446Y122131D02*
X1570462Y121115D01*
X1569446Y122131D02*
Y151087D01*
X1427206D02*
X1569446D01*
X1426952Y150833D02*
X1427206Y151087D01*
X1426952Y-4869D02*
Y150833D01*
Y-4869D02*
X1569446D01*
X1380741Y28617D02*
Y114977D01*
X1391664D01*
X1393949Y117263D01*
Y152061D01*
X1391409Y154601D02*
X1393949Y152061D01*
X1381758Y154601D02*
X1391409D01*
X1380741Y155617D02*
X1381758Y154601D01*
X1380741Y155617D02*
Y184573D01*
X1238502D02*
X1380741D01*
X1238248Y184319D02*
X1238502Y184573D01*
X1238248Y28617D02*
Y184319D01*
Y28617D02*
X1380741D01*
X1189736Y43126D02*
Y129486D01*
X1200658D01*
X1202944Y131772D01*
Y166570D01*
X1200404Y169110D02*
X1202944Y166570D01*
X1190752Y169110D02*
X1200404D01*
X1189736Y170126D02*
X1190752Y169110D01*
X1189736Y170126D02*
Y199082D01*
X1047496D02*
X1189736D01*
X1047242Y198828D02*
X1047496Y199082D01*
X1047242Y43126D02*
Y198828D01*
Y43126D02*
X1189736D01*
X999738Y28617D02*
Y114977D01*
X1010660D01*
X1012946Y117263D01*
Y152061D01*
X1010406Y154601D02*
X1012946Y152061D01*
X1000754Y154601D02*
X1010406D01*
X999738Y155617D02*
X1000754Y154601D01*
X999738Y155617D02*
Y184573D01*
X857498D02*
X999738D01*
X857244Y184319D02*
X857498Y184573D01*
X857244Y28617D02*
Y184319D01*
Y28617D02*
X999738D01*
X810006Y16202D02*
Y102562D01*
X820928D01*
X823214Y104848D01*
Y139646D01*
X820674Y142186D02*
X823214Y139646D01*
X811022Y142186D02*
X820674D01*
X810006Y143202D02*
X811022Y142186D01*
X810006Y143202D02*
Y172158D01*
X667766D02*
X810006D01*
X667512Y171904D02*
X667766Y172158D01*
X667512Y16202D02*
Y171904D01*
Y16202D02*
X810006D01*
X1807572Y185632D02*
Y271992D01*
X1818494D01*
X1820780Y274278D01*
Y309076D01*
X1818240Y311616D02*
X1820780Y309076D01*
X1808588Y311616D02*
X1818240D01*
X1807572Y312632D02*
X1808588Y311616D01*
X1807572Y312632D02*
Y341588D01*
X1665332D02*
X1807572D01*
X1665078Y341334D02*
X1665332Y341588D01*
X1665078Y185632D02*
Y341334D01*
Y185632D02*
X1807572D01*
X1569446D02*
Y271992D01*
X1580368D01*
X1582654Y274278D01*
Y309076D01*
X1580114Y311616D02*
X1582654Y309076D01*
X1570462Y311616D02*
X1580114D01*
X1569446Y312632D02*
X1570462Y311616D01*
X1569446Y312632D02*
Y341588D01*
X1427206D02*
X1569446D01*
X1426952Y341334D02*
X1427206Y341588D01*
X1426952Y185632D02*
Y341334D01*
Y185632D02*
X1569446D01*
X1378945Y217383D02*
Y303743D01*
X1389867D01*
X1392153Y306029D01*
Y340827D01*
X1389613Y343367D02*
X1392153Y340827D01*
X1379961Y343367D02*
X1389613D01*
X1378945Y344383D02*
X1379961Y343367D01*
X1378945Y344383D02*
Y373339D01*
X1236705D02*
X1378945D01*
X1236451Y373085D02*
X1236705Y373339D01*
X1236451Y217383D02*
Y373085D01*
Y217383D02*
X1378945D01*
X1188443Y233359D02*
Y319719D01*
X1199365D01*
X1201651Y322005D01*
Y356803D01*
X1199111Y359343D02*
X1201651Y356803D01*
X1189459Y359343D02*
X1199111D01*
X1188443Y360359D02*
X1189459Y359343D01*
X1188443Y360359D02*
Y389315D01*
X1046203D02*
X1188443D01*
X1045949Y389061D02*
X1046203Y389315D01*
X1045949Y233359D02*
Y389061D01*
Y233359D02*
X1188443D01*
X997942Y217383D02*
Y303743D01*
X1008864D01*
X1011150Y306029D01*
Y340827D01*
X1008610Y343367D02*
X1011150Y340827D01*
X998958Y343367D02*
X1008610D01*
X997942Y344383D02*
X998958Y343367D01*
X997942Y344383D02*
Y373339D01*
X855702D02*
X997942D01*
X855448Y373085D02*
X855702Y373339D01*
X855448Y217383D02*
Y373085D01*
Y217383D02*
X997942D01*
X808228Y206194D02*
Y292554D01*
X819150D01*
X821436Y294840D01*
Y329638D01*
X818896Y332178D02*
X821436Y329638D01*
X809244Y332178D02*
X818896D01*
X808228Y333194D02*
X809244Y332178D01*
X808228Y333194D02*
Y362150D01*
X665988D02*
X808228D01*
X665734Y361896D02*
X665988Y362150D01*
X665734Y206194D02*
Y361896D01*
Y206194D02*
X808228D01*
X1570736Y377136D02*
Y463496D01*
X1581658D01*
X1583944Y465782D01*
Y500580D01*
X1581404Y503120D02*
X1583944Y500580D01*
X1571752Y503120D02*
X1581404D01*
X1570736Y504136D02*
X1571752Y503120D01*
X1570736Y504136D02*
Y533092D01*
X1428496D02*
X1570736D01*
X1428242Y532838D02*
X1428496Y533092D01*
X1428242Y377136D02*
Y532838D01*
Y377136D02*
X1570736D01*
X1380998Y410156D02*
Y496516D01*
X1391920D01*
X1394206Y498802D01*
Y533600D01*
X1391666Y536140D02*
X1394206Y533600D01*
X1382014Y536140D02*
X1391666D01*
X1380998Y537156D02*
X1382014Y536140D01*
X1380998Y537156D02*
Y566112D01*
X1238758D02*
X1380998D01*
X1238504Y565858D02*
X1238758Y566112D01*
X1238504Y410156D02*
Y565858D01*
Y410156D02*
X1380998D01*
X1191260Y425396D02*
Y511756D01*
X1202182D01*
X1204468Y514042D01*
Y548840D01*
X1201928Y551380D02*
X1204468Y548840D01*
X1192276Y551380D02*
X1201928D01*
X1191260Y552396D02*
X1192276Y551380D01*
X1191260Y552396D02*
Y581352D01*
X1049020D02*
X1191260D01*
X1048766Y581098D02*
X1049020Y581352D01*
X1048766Y425396D02*
Y581098D01*
Y425396D02*
X1191260D01*
X999738Y409619D02*
Y495979D01*
X1010660D01*
X1012946Y498265D01*
Y533063D01*
X1010406Y535603D02*
X1012946Y533063D01*
X1000754Y535603D02*
X1010406D01*
X999738Y536619D02*
X1000754Y535603D01*
X999738Y536619D02*
Y565575D01*
X857498D02*
X999738D01*
X857244Y565321D02*
X857498Y565575D01*
X857244Y409619D02*
Y565321D01*
Y409619D02*
X999738D01*
X809237Y396919D02*
Y483279D01*
X820159D01*
X822445Y485565D01*
Y520363D01*
X819905Y522903D02*
X822445Y520363D01*
X810253Y522903D02*
X819905D01*
X809237Y523919D02*
X810253Y522903D01*
X809237Y523919D02*
Y552875D01*
X666997D02*
X809237D01*
X666743Y552621D02*
X666997Y552875D01*
X666743Y396919D02*
Y552621D01*
Y396919D02*
X809237D01*
X618744Y588464D02*
Y674824D01*
X629666D01*
X631952Y677110D01*
Y711908D01*
X629412Y714448D02*
X631952Y711908D01*
X619760Y714448D02*
X629412D01*
X618744Y715464D02*
X619760Y714448D01*
X618744Y715464D02*
Y744420D01*
X476504D02*
X618744D01*
X476250Y744166D02*
X476504Y744420D01*
X476250Y588464D02*
Y744166D01*
Y588464D02*
X618744D01*
X209281Y-230396D02*
X284071Y-187216D01*
X203820Y-220937D02*
X209281Y-230396D01*
X200697Y-220100D02*
X203820Y-220937D01*
X170561Y-237499D02*
X200697Y-220100D01*
X169631Y-240969D02*
X170561Y-237499D01*
X169631Y-240969D02*
X174457Y-249328D01*
X174086Y-250716D02*
X174457Y-249328D01*
X149009Y-265194D02*
X174086Y-250716D01*
X149009Y-265194D02*
X220129Y-388377D01*
X220476Y-388470D01*
X355318Y-310619D01*
X284071Y-187216D02*
X355318Y-310619D01*
X221234Y434946D02*
X258826D01*
X221234D02*
Y472284D01*
X258826D01*
Y434946D02*
Y472284D01*
X55626Y379222D02*
X67818D01*
Y348234D02*
Y379222D01*
X56134Y348234D02*
X67818D01*
X55626Y348742D02*
X56134Y348234D01*
X55626Y348742D02*
Y379984D01*
X168910Y655823D02*
Y640588D01*
X179067D01*
X194302Y655823D02*
X184145D01*
Y648205D01*
X189223Y650745D01*
X191763D01*
X194302Y648205D01*
Y643127D01*
X191763Y640588D01*
X186684D01*
X184145Y643127D01*
X217937Y344424D02*
X233172D01*
Y354581D01*
X220476Y359659D02*
X217937Y362198D01*
Y367277D01*
X220476Y369816D01*
X223015D01*
X225554Y367277D01*
X228093Y369816D01*
X230633D01*
X233172Y367277D01*
Y362198D01*
X230633Y359659D01*
X228093D01*
X225554Y362198D01*
X223015Y359659D01*
X220476D01*
X225554Y362198D02*
Y367277D01*
X240035Y437326D02*
X255270D01*
Y447483D01*
X240035Y452561D02*
Y462718D01*
X242574D01*
X252731Y452561D01*
X255270D01*
X2334Y236330D02*
X8428D01*
Y233283D01*
X7412Y232267D01*
X5381D01*
X4365Y233283D01*
Y236330D01*
X7412Y226173D02*
X8428Y227189D01*
Y229220D01*
X7412Y230236D01*
X3350D01*
X2334Y229220D01*
Y227189D01*
X3350Y226173D01*
X8428Y224142D02*
X2334D01*
Y221095D01*
X3350Y220079D01*
X4365D01*
X5381Y221095D01*
Y224142D01*
Y221095D01*
X6397Y220079D01*
X7412D01*
X8428Y221095D01*
Y224142D01*
Y207891D02*
Y211954D01*
X2334D01*
Y207891D01*
X5381Y211954D02*
Y209923D01*
X8428Y205860D02*
X2334D01*
Y202813D01*
X3350Y201797D01*
X7412D01*
X8428Y202813D01*
Y205860D01*
X7412Y195703D02*
X8428Y196719D01*
Y198750D01*
X7412Y199766D01*
X3350D01*
X2334Y198750D01*
Y196719D01*
X3350Y195703D01*
X5381D01*
Y197735D01*
X8428Y189609D02*
Y193672D01*
X2334D01*
Y189609D01*
X5381Y193672D02*
Y191641D01*
D16*
X119662Y678942D02*
G03*
X119662Y678942I-30000J0D01*
G01*
X1121416Y-119936D02*
G03*
X1121416Y-119936I-3301J0D01*
G01*
X1312504Y-131010D02*
G03*
X1312504Y-131010I-3301J0D01*
G01*
X1501226Y-167260D02*
G03*
X1501226Y-167260I-3301J0D01*
G01*
X549408Y378666D02*
G03*
X549408Y378666I-3301J0D01*
G01*
X1504702Y405590D02*
G03*
X1504702Y405590I-3301J0D01*
G01*
X548886Y95381D02*
G03*
X548886Y95381I-3301J0D01*
G01*
X1120654Y72596D02*
G03*
X1120654Y72596I-3301J0D01*
G01*
X1311321Y61101D02*
G03*
X1311321Y61101I-3301J0D01*
G01*
X1740414Y26368D02*
G03*
X1740414Y26368I-3301J0D01*
G01*
X1692408Y-164132D02*
G03*
X1692408Y-164132I-3301J0D01*
G01*
X1500878Y25956D02*
G03*
X1500878Y25956I-3301J0D01*
G01*
X1311181Y440309D02*
G03*
X1311181Y440309I-3301J0D01*
G01*
X552456Y620982D02*
G03*
X552456Y620982I-3301J0D01*
G01*
X740924Y618442D02*
G03*
X740924Y618442I-3301J0D01*
G01*
X930916Y631396D02*
G03*
X930916Y631396I-3301J0D01*
G01*
X1122940Y646890D02*
G03*
X1122940Y646890I-3301J0D01*
G01*
X1315218Y633682D02*
G03*
X1315218Y633682I-3301J0D01*
G01*
X1503178Y599900D02*
G03*
X1503178Y599900I-3301J0D01*
G01*
X1740908Y597456D02*
G03*
X1740908Y597456I-3301J0D01*
G01*
X1740668Y407368D02*
G03*
X1740668Y407368I-3301J0D01*
G01*
X1740159Y210400D02*
G03*
X1740159Y210400I-3301J0D01*
G01*
X1498352Y207978D02*
G03*
X1498352Y207978I-3301J0D01*
G01*
X1312932Y240236D02*
G03*
X1312932Y240236I-3301J0D01*
G01*
X1121924Y263604D02*
G03*
X1121924Y263604I-3301J0D01*
G01*
X929900Y249380D02*
G03*
X929900Y249380I-3301J0D01*
G01*
X738892Y237696D02*
G03*
X738892Y237696I-3301J0D01*
G01*
X742049Y46133D02*
G03*
X742049Y46133I-3301J0D01*
G01*
X934104Y59081D02*
G03*
X934104Y59081I-3301J0D01*
G01*
X638562Y-269796D02*
G03*
X638562Y-269796I-3301J0D01*
G01*
X214415Y-88139D02*
G03*
X214415Y-88139I-3301J0D01*
G01*
X293884Y-264970D02*
G03*
X293884Y-264970I-3301J0D01*
G01*
X382276Y-439468D02*
G03*
X382276Y-439468I-3301J0D01*
G01*
X467112Y-335836D02*
G03*
X467112Y-335836I-3301J0D01*
G01*
X928710Y-130887D02*
G03*
X928710Y-130887I-3301J0D01*
G01*
X346716Y-79804D02*
G03*
X346716Y-79804I-3301J0D01*
G01*
X1123702Y455882D02*
G03*
X1123702Y455882I-3301J0D01*
G01*
X930971Y441324D02*
G03*
X930971Y441324I-3301J0D01*
G01*
X743571Y428602D02*
G03*
X743571Y428602I-3301J0D01*
G01*
X436822Y68072D02*
Y178562D01*
X16822Y68072D02*
X436822D01*
X16822D02*
Y178562D01*
X436822D01*
X448822Y117460D02*
Y131460D01*
X441822Y124460D02*
X455822D01*
X-2178D02*
X11822D01*
X173898Y584602D02*
X352898D01*
Y539602D02*
Y584602D01*
X173898Y539602D02*
X352898D01*
X173898D02*
Y584602D01*
X327064Y212676D02*
X341464D01*
X327064Y190676D02*
X341464D01*
Y212676D01*
X327064Y190676D02*
Y212676D01*
X470182Y295628D02*
Y355628D01*
X410182Y295628D02*
X470182D01*
X410182D02*
Y355628D01*
X470182D01*
X609170Y835318D02*
Y849718D01*
X587170Y835318D02*
Y849718D01*
Y835318D02*
X609170D01*
X587170Y849718D02*
X609170D01*
X510780Y785100D02*
Y815100D01*
X540780Y785100D02*
Y815100D01*
X510780D02*
X540780D01*
X510780Y785100D02*
X540780D01*
X127166Y821350D02*
X141566D01*
X127166Y799350D02*
X141566D01*
Y821350D01*
X127166Y799350D02*
Y821350D01*
X242396Y613734D02*
Y628134D01*
X264396Y613734D02*
Y628134D01*
X242396D02*
X264396D01*
X242396Y613734D02*
X264396D01*
X89320Y497090D02*
X103720D01*
X89320Y519090D02*
X103720D01*
X89320Y497090D02*
Y519090D01*
X103720Y497090D02*
Y519090D01*
X94500Y466510D02*
Y480910D01*
X116500Y466510D02*
Y480910D01*
X94500D02*
X116500D01*
X94500Y466510D02*
X116500D01*
X147232Y540844D02*
X161632D01*
X147232Y518844D02*
X161632D01*
Y540844D01*
X147232Y518844D02*
Y540844D01*
X27162Y611942D02*
X152162D01*
Y745942D01*
X27162D02*
X152162D01*
X27162Y611942D02*
Y745942D01*
X1105415Y-111046D02*
X1130815D01*
X1105415Y-128826D02*
Y-111046D01*
Y-128826D02*
X1130815D01*
Y-111046D01*
X1321903Y-139900D02*
Y-122120D01*
X1296503Y-139900D02*
X1321903D01*
X1296503D02*
Y-122120D01*
X1321903D01*
X1485225Y-158370D02*
X1510625D01*
X1485225Y-176150D02*
Y-158370D01*
Y-176150D02*
X1510625D01*
Y-158370D01*
X558807Y369776D02*
Y387556D01*
X533407Y369776D02*
X558807D01*
X533407D02*
Y387556D01*
X558807D01*
X1488701Y414480D02*
X1514101D01*
X1488701Y396700D02*
Y414480D01*
Y396700D02*
X1514101D01*
Y414480D01*
X558285Y86491D02*
Y104271D01*
X532885Y86491D02*
X558285D01*
X532885D02*
Y104271D01*
X558285D01*
X1104653Y81486D02*
X1130053D01*
X1104653Y63706D02*
Y81486D01*
Y63706D02*
X1130053D01*
Y81486D01*
X1320720Y52211D02*
Y69991D01*
X1295320Y52211D02*
X1320720D01*
X1295320D02*
Y69991D01*
X1320720D01*
X1749813Y17478D02*
Y35258D01*
X1724413Y17478D02*
X1749813D01*
X1724413D02*
Y35258D01*
X1749813D01*
X1701807Y-173022D02*
Y-155242D01*
X1676407Y-173022D02*
X1701807D01*
X1676407D02*
Y-155242D01*
X1701807D01*
X1484877Y17066D02*
X1510277D01*
Y34846D01*
X1484877D02*
X1510277D01*
X1484877Y17066D02*
Y34846D01*
X1295179Y431419D02*
Y449199D01*
X1320580D01*
Y431419D02*
Y449199D01*
X1295179Y431419D02*
X1320580D01*
X536455Y629872D02*
X561855D01*
X536455Y612092D02*
Y629872D01*
Y612092D02*
X561855D01*
Y629872D01*
X750323Y609552D02*
Y627332D01*
X724923Y609552D02*
X750323D01*
X724923D02*
Y627332D01*
X750323D01*
X914915Y640286D02*
X940315D01*
X914915Y622506D02*
Y640286D01*
Y622506D02*
X940315D01*
Y640286D01*
X1132339Y638000D02*
Y655780D01*
X1106939Y638000D02*
X1132339D01*
X1106939D02*
Y655780D01*
X1132339D01*
X1299217Y642572D02*
X1324617D01*
X1299217Y624792D02*
Y642572D01*
Y624792D02*
X1324617D01*
Y642572D01*
X1512577Y591010D02*
Y608790D01*
X1487177Y591010D02*
X1512577D01*
X1487177D02*
Y608790D01*
X1512577D01*
X1724907Y588566D02*
X1750307D01*
Y606346D01*
X1724907D02*
X1750307D01*
X1724907Y588566D02*
Y606346D01*
X1750067Y398478D02*
Y416258D01*
X1724667Y398478D02*
X1750067D01*
X1724667D02*
Y416258D01*
X1750067D01*
X1749558Y201510D02*
Y219290D01*
X1724158Y201510D02*
X1749558D01*
X1724158D02*
Y219290D01*
X1749558D01*
X1482351Y216868D02*
X1507751D01*
X1482351Y199088D02*
Y216868D01*
Y199088D02*
X1507751D01*
Y216868D01*
X1322331Y231346D02*
Y249126D01*
X1296931Y231346D02*
X1322331D01*
X1296931D02*
Y249126D01*
X1322331D01*
X1105923Y272494D02*
X1131323D01*
X1105923Y254714D02*
Y272494D01*
Y254714D02*
X1131323D01*
Y272494D01*
X939299Y240490D02*
Y258270D01*
X913899Y240490D02*
X939299D01*
X913899D02*
Y258270D01*
X939299D01*
X722891Y246586D02*
X748291D01*
X722891Y228806D02*
Y246586D01*
Y228806D02*
X748291D01*
Y246586D01*
X726048Y37243D02*
X751448D01*
Y55023D01*
X726048D02*
X751448D01*
X726048Y37243D02*
Y55023D01*
X943502Y50191D02*
Y67971D01*
X918102Y50191D02*
X943502D01*
X918102D02*
Y67971D01*
X943502D01*
X622561Y-260906D02*
X647961D01*
X622561Y-278686D02*
Y-260906D01*
Y-278686D02*
X647961D01*
Y-260906D01*
X198413Y-79249D02*
X223813D01*
X198413Y-97029D02*
Y-79249D01*
Y-97029D02*
X223813D01*
Y-79249D01*
X277883Y-256080D02*
X303283D01*
X277883Y-273860D02*
Y-256080D01*
Y-273860D02*
X303283D01*
Y-256080D01*
X366275Y-430578D02*
X391675D01*
X366275Y-448358D02*
Y-430578D01*
Y-448358D02*
X391675D01*
Y-430578D01*
X476511Y-344726D02*
Y-326946D01*
X451111Y-344726D02*
X476511D01*
X451111D02*
Y-326946D01*
X476511D01*
X912709Y-121997D02*
X938109D01*
X912709Y-139777D02*
Y-121997D01*
Y-139777D02*
X938109D01*
Y-121997D01*
X330715Y-70914D02*
X356115D01*
X330715Y-88694D02*
Y-70914D01*
Y-88694D02*
X356115D01*
Y-70914D01*
X1133101Y446992D02*
Y464772D01*
X1107701Y446992D02*
X1133101D01*
X1107701D02*
Y464772D01*
X1133101D01*
X914970Y450214D02*
X940370D01*
X914970Y432434D02*
Y450214D01*
Y432434D02*
X940370D01*
Y450214D01*
X752970Y419712D02*
Y437492D01*
X727570Y419712D02*
X752970D01*
X727570D02*
Y437492D01*
X752970D01*
X412482Y599680D02*
X442482D01*
X412482Y629680D02*
X442482D01*
Y599680D02*
Y629680D01*
X412482Y599680D02*
Y629680D01*
X187318Y712726D02*
X202318D01*
X187318Y744726D02*
X202318D01*
X187318Y712726D02*
Y744726D01*
X202318Y712726D02*
Y744726D01*
X293852Y389916D02*
Y424916D01*
X258852Y389916D02*
Y424916D01*
X293852D01*
X258852Y389916D02*
X293852D01*
X101854Y313436D02*
Y411734D01*
X159258Y313436D02*
Y411734D01*
X101854Y313436D02*
X159258D01*
X101854Y411734D02*
X159258D01*
X234Y198330D02*
Y343330D01*
X-4666Y333030D02*
X68834D01*
Y243630D02*
Y333030D01*
X-4666Y243630D02*
X68834D01*
X-4666D02*
Y333030D01*
X354302Y918944D02*
Y978944D01*
X414302D01*
Y918944D02*
Y978944D01*
X354302Y918944D02*
X414302D01*
X5306Y492690D02*
X65306D01*
X5306Y465690D02*
Y492690D01*
Y435690D02*
Y465690D01*
Y388690D02*
Y435690D01*
Y388690D02*
X65306D01*
Y492690D01*
X-34694Y435690D02*
X5306D01*
X-34694Y465690D02*
X5306D01*
X-34694Y435690D02*
Y465690D01*
D194*
X330327Y797814D02*
G03*
X330327Y791718I0J-3048D01*
G01*
X326923Y796163D02*
G03*
X326923Y796163I-762J0D01*
G01*
D195*
X527812Y350393D02*
Y389763D01*
X573532D01*
Y350393D02*
Y389763D01*
X527812Y350393D02*
X573532D01*
X527812Y360235D02*
X537654Y350393D01*
X527812Y379921D02*
X537654Y389763D01*
X573532Y381127D02*
X578612D01*
Y359029D02*
Y381127D01*
X573532Y359029D02*
X578612D01*
X573532D02*
Y381127D01*
X522732Y359029D02*
X527812D01*
X522732D02*
Y381127D01*
X527812D01*
Y359029D02*
Y381127D01*
X616204Y-291973D02*
Y-252603D01*
X661924D01*
Y-291973D02*
Y-252603D01*
X616204Y-291973D02*
X661924D01*
X616204Y-282131D02*
X626046Y-291973D01*
X616204Y-262446D02*
X626046Y-252603D01*
X661924Y-261239D02*
X667004D01*
Y-283337D02*
Y-261239D01*
X661924Y-283337D02*
X667004D01*
X661924D02*
Y-261239D01*
X611124Y-283337D02*
X616204D01*
X611124D02*
Y-261239D01*
X616204D01*
Y-283337D02*
Y-261239D01*
X904748Y408305D02*
Y447675D01*
X950468D01*
Y408305D02*
Y447675D01*
X904748Y408305D02*
X950468D01*
X904748Y418148D02*
X914591Y408305D01*
X904748Y437832D02*
X914591Y447675D01*
X950468Y439039D02*
X955548D01*
Y416941D02*
Y439039D01*
X950468Y416941D02*
X955548D01*
X950468D02*
Y439039D01*
X899668Y416941D02*
X904748D01*
X899668D02*
Y439039D01*
X904748D01*
Y416941D02*
Y439039D01*
X1286764Y-151257D02*
Y-129159D01*
X1281684D02*
X1286764D01*
X1281684Y-151257D02*
Y-129159D01*
Y-151257D02*
X1286764D01*
X1332484D02*
Y-129159D01*
Y-151257D02*
X1337564D01*
Y-129159D01*
X1332484D02*
X1337564D01*
X1286764Y-130365D02*
X1296606Y-120523D01*
X1286764Y-150050D02*
X1296606Y-159893D01*
X1286764D02*
X1332484D01*
Y-120523D01*
X1286764D02*
X1332484D01*
X1286764Y-159893D02*
Y-120523D01*
X1283970Y412877D02*
Y452247D01*
X1329690D01*
Y412877D02*
Y452247D01*
X1283970Y412877D02*
X1329690D01*
X1283970Y422719D02*
X1293813Y412877D01*
X1283970Y442405D02*
X1293813Y452247D01*
X1329690Y443611D02*
X1334770D01*
Y421513D02*
Y443611D01*
X1329690Y421513D02*
X1334770D01*
X1329690D02*
Y443611D01*
X1278890Y421513D02*
X1283970D01*
X1278890D02*
Y443611D01*
X1283970D01*
Y421513D02*
Y443611D01*
X1472692Y184785D02*
Y224155D01*
X1518412D01*
Y184785D02*
Y224155D01*
X1472692Y184785D02*
X1518412D01*
X1472692Y194627D02*
X1482534Y184785D01*
X1472692Y214312D02*
X1482534Y224155D01*
X1518412Y215519D02*
X1523492D01*
Y193421D02*
Y215519D01*
X1518412Y193421D02*
X1523492D01*
X1518412D02*
Y215519D01*
X1467612Y193421D02*
X1472692D01*
X1467612D02*
Y215519D01*
X1472692D01*
Y193421D02*
Y215519D01*
X1477772Y-190119D02*
Y-150749D01*
X1523492D01*
Y-190119D02*
Y-150749D01*
X1477772Y-190119D02*
X1523492D01*
X1477772Y-180277D02*
X1487614Y-190119D01*
X1477772Y-160592D02*
X1487614Y-150749D01*
X1523492Y-159385D02*
X1528572D01*
Y-181483D02*
Y-159385D01*
X1523492Y-181483D02*
X1528572D01*
X1523492D02*
Y-159385D01*
X1472692Y-181483D02*
X1477772D01*
X1472692D02*
Y-159385D01*
X1477772D01*
Y-181483D02*
Y-159385D01*
X1670050Y-182753D02*
Y-160655D01*
X1664970D02*
X1670050D01*
X1664970Y-182753D02*
Y-160655D01*
Y-182753D02*
X1670050D01*
X1715770D02*
Y-160655D01*
Y-182753D02*
X1720850D01*
Y-160655D01*
X1715770D02*
X1720850D01*
X1670050Y-161861D02*
X1679892Y-152019D01*
X1670050Y-181546D02*
X1679892Y-191389D01*
X1670050D02*
X1715770D01*
Y-152019D01*
X1670050D02*
X1715770D01*
X1670050Y-191389D02*
Y-152019D01*
X1713992Y127D02*
Y39497D01*
X1759712D01*
Y127D02*
Y39497D01*
X1713992Y127D02*
X1759712D01*
X1713992Y9969D02*
X1723835Y127D01*
X1713992Y29655D02*
X1723835Y39497D01*
X1759712Y30861D02*
X1764792D01*
Y8763D02*
Y30861D01*
X1759712Y8763D02*
X1764792D01*
X1759712D02*
Y30861D01*
X1708912Y8763D02*
X1713992D01*
X1708912D02*
Y30861D01*
X1713992D01*
Y8763D02*
Y30861D01*
X1715008Y200279D02*
Y222377D01*
X1709928D02*
X1715008D01*
X1709928Y200279D02*
Y222377D01*
Y200279D02*
X1715008D01*
X1760728D02*
Y222377D01*
Y200279D02*
X1765808D01*
Y222377D01*
X1760728D02*
X1765808D01*
X1715008Y221171D02*
X1724850Y231013D01*
X1715008Y201486D02*
X1724850Y191643D01*
X1715008D02*
X1760728D01*
Y231013D01*
X1715008D02*
X1760728D01*
X1715008Y191643D02*
Y231013D01*
X1717802Y378841D02*
Y418211D01*
X1763522D01*
Y378841D02*
Y418211D01*
X1717802Y378841D02*
X1763522D01*
X1717802Y388684D02*
X1727645Y378841D01*
X1717802Y408368D02*
X1727645Y418211D01*
X1763522Y409575D02*
X1768602D01*
Y387477D02*
Y409575D01*
X1763522Y387477D02*
X1768602D01*
X1763522D02*
Y409575D01*
X1712722Y387477D02*
X1717802D01*
X1712722D02*
Y409575D01*
X1717802D01*
Y387477D02*
Y409575D01*
X1714754Y580771D02*
Y602869D01*
X1709674D02*
X1714754D01*
X1709674Y580771D02*
Y602869D01*
Y580771D02*
X1714754D01*
X1760474D02*
Y602869D01*
Y580771D02*
X1765554D01*
Y602869D01*
X1760474D02*
X1765554D01*
X1714754Y601662D02*
X1724597Y611505D01*
X1714754Y581978D02*
X1724597Y572135D01*
X1714754D02*
X1760474D01*
Y611505D01*
X1714754D02*
X1760474D01*
X1714754Y572135D02*
Y611505D01*
X1478038Y572015D02*
Y611385D01*
X1523758D01*
Y572015D02*
Y611385D01*
X1478038Y572015D02*
X1523758D01*
X1478038Y581858D02*
X1487881Y572015D01*
X1478038Y601543D02*
X1487881Y611385D01*
X1523758Y602749D02*
X1528838D01*
Y580651D02*
Y602749D01*
X1523758Y580651D02*
X1528838D01*
X1523758D02*
Y602749D01*
X1472958Y580651D02*
X1478038D01*
X1472958D02*
Y602749D01*
X1478038D01*
Y580651D02*
Y602749D01*
X1288554Y611131D02*
Y633229D01*
X1283474D02*
X1288554D01*
X1283474Y611131D02*
Y633229D01*
Y611131D02*
X1288554D01*
X1334274D02*
Y633229D01*
Y611131D02*
X1339354D01*
Y633229D01*
X1334274D02*
X1339354D01*
X1288554Y632023D02*
X1298397Y641865D01*
X1288554Y612338D02*
X1298397Y602495D01*
X1288554D02*
X1334274D01*
Y641865D01*
X1288554D02*
X1334274D01*
X1288554Y602495D02*
Y641865D01*
X1096276Y612909D02*
Y652279D01*
X1141996D01*
Y612909D02*
Y652279D01*
X1096276Y612909D02*
X1141996D01*
X1096276Y622752D02*
X1106119Y612909D01*
X1096276Y642437D02*
X1106119Y652279D01*
X1141996Y643643D02*
X1147076D01*
Y621545D02*
Y643643D01*
X1141996Y621545D02*
X1147076D01*
X1141996D02*
Y643643D01*
X1091196Y621545D02*
X1096276D01*
X1091196D02*
Y643643D01*
X1096276D01*
Y621545D02*
Y643643D01*
X903744Y611131D02*
Y633229D01*
X898664D02*
X903744D01*
X898664Y611131D02*
Y633229D01*
Y611131D02*
X903744D01*
X949464D02*
Y633229D01*
Y611131D02*
X954544D01*
Y633229D01*
X949464D02*
X954544D01*
X903744Y632023D02*
X913587Y641865D01*
X903744Y612338D02*
X913587Y602495D01*
X903744D02*
X949464D01*
Y641865D01*
X903744D02*
X949464D01*
X903744Y602495D02*
Y641865D01*
X668274Y589661D02*
Y629031D01*
X713994D01*
Y589661D02*
Y629031D01*
X668274Y589661D02*
X713994D01*
X668274Y599504D02*
X678117Y589661D01*
X668274Y619188D02*
X678117Y629031D01*
X713994Y620395D02*
X719074D01*
Y598297D02*
Y620395D01*
X713994Y598297D02*
X719074D01*
X713994D02*
Y620395D01*
X663194Y598297D02*
X668274D01*
X663194D02*
Y620395D01*
X668274D01*
Y598297D02*
Y620395D01*
X903478Y-149479D02*
Y-127381D01*
X898398D02*
X903478D01*
X898398Y-149479D02*
Y-127381D01*
Y-149479D02*
X903478D01*
X949198D02*
Y-127381D01*
Y-149479D02*
X954278D01*
Y-127381D01*
X949198D02*
X954278D01*
X903478Y-128588D02*
X913320Y-118745D01*
X903478Y-148272D02*
X913320Y-158115D01*
X903478D02*
X949198D01*
Y-118745D01*
X903478D02*
X949198D01*
X903478Y-158115D02*
Y-118745D01*
X1092962Y-143891D02*
Y-104521D01*
X1138682D01*
Y-143891D02*
Y-104521D01*
X1092962Y-143891D02*
X1138682D01*
X1092962Y-134049D02*
X1102804Y-143891D01*
X1092962Y-114363D02*
X1102804Y-104521D01*
X1138682Y-113157D02*
X1143762D01*
Y-135255D02*
Y-113157D01*
X1138682Y-135255D02*
X1143762D01*
X1138682D02*
Y-113157D01*
X1087882Y-135255D02*
X1092962D01*
X1087882D02*
Y-113157D01*
X1092962D01*
Y-135255D02*
Y-113157D01*
X1094994Y56515D02*
Y78613D01*
X1089914D02*
X1094994D01*
X1089914Y56515D02*
Y78613D01*
Y56515D02*
X1094994D01*
X1140714D02*
Y78613D01*
Y56515D02*
X1145794D01*
Y78613D01*
X1140714D02*
X1145794D01*
X1094994Y77407D02*
X1104837Y87249D01*
X1094994Y57722D02*
X1104837Y47879D01*
X1094994D02*
X1140714D01*
Y87249D01*
X1094994D02*
X1140714D01*
X1094994Y47879D02*
Y87249D01*
X1472438Y4699D02*
Y26797D01*
X1467358D02*
X1472438D01*
X1467358Y4699D02*
Y26797D01*
Y4699D02*
X1472438D01*
X1518158D02*
Y26797D01*
Y4699D02*
X1523238D01*
Y26797D01*
X1518158D02*
X1523238D01*
X1472438Y25591D02*
X1482280Y35433D01*
X1472438Y5906D02*
X1482280Y-3937D01*
X1472438D02*
X1518158D01*
Y35433D01*
X1472438D02*
X1518158D01*
X1472438Y-3937D02*
Y35433D01*
X438150Y-361061D02*
Y-338963D01*
X433070D02*
X438150D01*
X433070Y-361061D02*
Y-338963D01*
Y-361061D02*
X438150D01*
X483870D02*
Y-338963D01*
Y-361061D02*
X488950D01*
Y-338963D01*
X483870D02*
X488950D01*
X438150Y-340169D02*
X447993Y-330327D01*
X438150Y-359855D02*
X447993Y-369697D01*
X438150D02*
X483870D01*
Y-330327D01*
X438150D02*
X483870D01*
X438150Y-369697D02*
Y-330327D01*
X903744Y227337D02*
Y249435D01*
X898664D02*
X903744D01*
X898664Y227337D02*
Y249435D01*
Y227337D02*
X903744D01*
X949464D02*
Y249435D01*
Y227337D02*
X954544D01*
Y249435D01*
X949464D02*
X954544D01*
X903744Y248229D02*
X913587Y258071D01*
X903744Y228544D02*
X913587Y218701D01*
X903744D02*
X949464D01*
Y258071D01*
X903744D02*
X949464D01*
X903744Y218701D02*
Y258071D01*
X1096530Y236735D02*
Y276105D01*
X1142250D01*
Y236735D02*
Y276105D01*
X1096530Y236735D02*
X1142250D01*
X1096530Y246578D02*
X1106373Y236735D01*
X1096530Y266263D02*
X1106373Y276105D01*
X1142250Y267469D02*
X1147330D01*
Y245371D02*
Y267469D01*
X1142250Y245371D02*
X1147330D01*
X1142250D02*
Y267469D01*
X1091450Y245371D02*
X1096530D01*
X1091450D02*
Y267469D01*
X1096530D01*
Y245371D02*
Y267469D01*
X1289050Y226695D02*
Y248793D01*
X1283970D02*
X1289050D01*
X1283970Y226695D02*
Y248793D01*
Y226695D02*
X1289050D01*
X1334770D02*
Y248793D01*
Y226695D02*
X1339850D01*
Y248793D01*
X1334770D02*
X1339850D01*
X1289050Y247586D02*
X1298893Y257429D01*
X1289050Y227901D02*
X1298893Y218059D01*
X1289050D02*
X1334770D01*
Y257429D01*
X1289050D02*
X1334770D01*
X1289050Y218059D02*
Y257429D01*
X1287780Y32385D02*
Y71755D01*
X1333500D01*
Y32385D02*
Y71755D01*
X1287780Y32385D02*
X1333500D01*
X1287780Y42228D02*
X1297623Y32385D01*
X1287780Y61912D02*
X1297623Y71755D01*
X1333500Y63119D02*
X1338580D01*
Y41021D02*
Y63119D01*
X1333500Y41021D02*
X1338580D01*
X1333500D02*
Y63119D01*
X1282700Y41021D02*
X1287780D01*
X1282700D02*
Y63119D01*
X1287780D01*
Y41021D02*
Y63119D01*
X712978Y29337D02*
Y51435D01*
X707898D02*
X712978D01*
X707898Y29337D02*
Y51435D01*
Y29337D02*
X712978D01*
X758698D02*
Y51435D01*
Y29337D02*
X763778D01*
Y51435D01*
X758698D02*
X763778D01*
X712978Y50229D02*
X722821Y60071D01*
X712978Y30543D02*
X722821Y20701D01*
X712978D02*
X758698D01*
Y60071D01*
X712978D02*
X758698D01*
X712978Y20701D02*
Y60071D01*
X520852Y64803D02*
Y104173D01*
X566572D01*
Y64803D02*
Y104173D01*
X520852Y64803D02*
X566572D01*
X520852Y74646D02*
X530695Y64803D01*
X520852Y94331D02*
X530695Y104173D01*
X566572Y95537D02*
X571652D01*
Y73439D02*
Y95537D01*
X566572Y73439D02*
X571652D01*
X566572D02*
Y95537D01*
X515772Y73439D02*
X520852D01*
X515772D02*
Y95537D01*
X520852D01*
Y73439D02*
Y95537D01*
X341376Y-252857D02*
Y-230759D01*
Y-252857D02*
X346456D01*
Y-230759D01*
X341376D02*
X346456D01*
X295656Y-252857D02*
Y-230759D01*
X290576D02*
X295656D01*
X290576Y-252857D02*
Y-230759D01*
Y-252857D02*
X295656D01*
X331534Y-261493D02*
X341376Y-251651D01*
X331534Y-222123D02*
X341376Y-231966D01*
X295656Y-222123D02*
X341376D01*
X295656Y-261493D02*
Y-222123D01*
Y-261493D02*
X341376D01*
Y-222123D01*
X1479562Y392945D02*
Y415043D01*
X1474482D02*
X1479562D01*
X1474482Y392945D02*
Y415043D01*
Y392945D02*
X1479562D01*
X1525282D02*
Y415043D01*
Y392945D02*
X1530362D01*
Y415043D01*
X1525282D02*
X1530362D01*
X1479562Y413837D02*
X1489405Y423679D01*
X1479562Y394152D02*
X1489405Y384309D01*
X1479562D02*
X1525282D01*
Y423679D01*
X1479562D02*
X1525282D01*
X1479562Y384309D02*
Y423679D01*
X906526Y37973D02*
Y60071D01*
X901446D02*
X906526D01*
X901446Y37973D02*
Y60071D01*
Y37973D02*
X906526D01*
X952246D02*
Y60071D01*
Y37973D02*
X957326D01*
Y60071D01*
X952246D02*
X957326D01*
X906526Y58864D02*
X916368Y68707D01*
X906526Y39179D02*
X916368Y29337D01*
X906526D02*
X952246D01*
Y68707D01*
X906526D02*
X952246D01*
X906526Y29337D02*
Y68707D01*
X710946Y217805D02*
Y239903D01*
X705866D02*
X710946D01*
X705866Y217805D02*
Y239903D01*
Y217805D02*
X710946D01*
X756666D02*
Y239903D01*
Y217805D02*
X761746D01*
Y239903D01*
X756666D02*
X761746D01*
X710946Y238696D02*
X720788Y248539D01*
X710946Y219011D02*
X720788Y209169D01*
X710946D02*
X756666D01*
Y248539D01*
X710946D02*
X756666D01*
X710946Y209169D02*
Y248539D01*
X322072Y-109855D02*
Y-70485D01*
X367792D01*
Y-109855D02*
Y-70485D01*
X322072Y-109855D02*
X367792D01*
X322072Y-100013D02*
X331914Y-109855D01*
X322072Y-80328D02*
X331914Y-70485D01*
X367792Y-79121D02*
X372872D01*
Y-101219D02*
Y-79121D01*
X367792Y-101219D02*
X372872D01*
X367792D02*
Y-79121D01*
X316992Y-101219D02*
X322072D01*
X316992D02*
Y-79121D01*
X322072D01*
Y-101219D02*
Y-79121D01*
X1097026Y420497D02*
Y459867D01*
X1142746D01*
Y420497D02*
Y459867D01*
X1097026Y420497D02*
X1142746D01*
X1097026Y430340D02*
X1106869Y420497D01*
X1097026Y450024D02*
X1106869Y459867D01*
X1142746Y451231D02*
X1147826D01*
Y429133D02*
Y451231D01*
X1142746Y429133D02*
X1147826D01*
X1142746D02*
Y451231D01*
X1091946Y429133D02*
X1097026D01*
X1091946D02*
Y451231D01*
X1097026D01*
Y429133D02*
Y451231D01*
X715772Y402209D02*
Y441579D01*
X761492D01*
Y402209D02*
Y441579D01*
X715772Y402209D02*
X761492D01*
X715772Y412052D02*
X725614Y402209D01*
X715772Y431736D02*
X725614Y441579D01*
X761492Y432943D02*
X766572D01*
Y410845D02*
Y432943D01*
X761492Y410845D02*
X766572D01*
X761492D02*
Y432943D01*
X710692Y410845D02*
X715772D01*
X710692D02*
Y432943D01*
X715772D01*
Y410845D02*
Y432943D01*
X476758Y589661D02*
Y629031D01*
X522478D01*
Y589661D02*
Y629031D01*
X476758Y589661D02*
X522478D01*
X476758Y599504D02*
X486600Y589661D01*
X476758Y619188D02*
X486600Y629031D01*
X522478Y620395D02*
X527558D01*
Y598297D02*
Y620395D01*
X522478Y598297D02*
X527558D01*
X522478D02*
Y620395D01*
X471678Y598297D02*
X476758D01*
X471678D02*
Y620395D01*
X476758D01*
Y598297D02*
Y620395D01*
X377190Y-430657D02*
Y-408559D01*
X372110D02*
X377190D01*
X372110Y-430657D02*
Y-408559D01*
Y-430657D02*
X377190D01*
X422910D02*
Y-408559D01*
Y-430657D02*
X427990D01*
Y-408559D01*
X422910D02*
X427990D01*
X377190Y-409766D02*
X387033Y-399923D01*
X377190Y-429450D02*
X387033Y-439293D01*
X377190D02*
X422910D01*
Y-399923D01*
X377190D02*
X422910D01*
X377190Y-439293D02*
Y-399923D01*
X249682Y-73533D02*
Y-51435D01*
Y-73533D02*
X254762D01*
Y-51435D01*
X249682D02*
X254762D01*
X203962Y-73533D02*
Y-51435D01*
X198882D02*
X203962D01*
X198882Y-73533D02*
Y-51435D01*
Y-73533D02*
X203962D01*
X239839Y-82169D02*
X249682Y-72326D01*
X239839Y-42799D02*
X249682Y-52642D01*
X203962Y-42799D02*
X249682D01*
X203962Y-82169D02*
Y-42799D01*
Y-82169D02*
X249682D01*
Y-42799D01*
X346964Y240665D02*
Y280035D01*
X301244Y240665D02*
X346964D01*
X301244D02*
Y280035D01*
X346964D01*
X337122D02*
X346964Y270193D01*
X337122Y240665D02*
X346964Y250508D01*
X296164Y249301D02*
X301244D01*
X296164D02*
Y271399D01*
X301244D01*
Y249301D02*
Y271399D01*
X346964D02*
X352044D01*
Y249301D02*
Y271399D01*
X346964Y249301D02*
X352044D01*
X346964D02*
Y271399D01*
X309245Y803275D02*
X330327D01*
Y786257D02*
Y803275D01*
X309245Y786257D02*
X330327D01*
X309245D02*
Y803275D01*
D196*
X287332Y796098D02*
Y789433D01*
X288998Y787767D01*
X292330D01*
X293996Y789433D01*
Y796098D01*
X292330Y797764D01*
X288998D01*
X290664Y794432D02*
X287332Y797764D01*
X288998D02*
X287332Y796098D01*
X283999Y797764D02*
X280667D01*
X282333D01*
Y787767D01*
X283999Y789433D01*
D197*
X420447Y-482709D02*
X419837Y-484985D01*
X421503Y-487870D01*
X423779Y-488480D01*
X425222Y-487647D01*
X425832Y-485371D01*
X424166Y-482485D01*
X424776Y-480209D01*
X426219Y-479376D01*
X428495Y-479986D01*
X430161Y-482872D01*
X429551Y-485148D01*
X417338Y-480656D02*
X425996Y-475657D01*
X421444Y-474438D01*
X422663Y-469886D01*
X414006Y-474884D01*
X413783Y-471165D02*
X411507Y-470555D01*
X409841Y-467670D01*
X410450Y-465394D01*
X411893Y-464561D01*
X414169Y-465170D01*
X415002Y-466613D01*
X414169Y-465170D01*
X414779Y-462895D01*
X416222Y-462061D01*
X418498Y-462671D01*
X420164Y-465557D01*
X419554Y-467833D01*
X407341Y-463341D02*
X404009Y-457569D01*
X405452Y-456736D01*
X414556Y-459176D01*
X415999Y-458343D01*
X484314Y72669D02*
X482648Y74335D01*
X479316D01*
X477650Y72669D01*
Y71002D01*
X479316Y69336D01*
X482648D01*
X484314Y67670D01*
Y66004D01*
X482648Y64338D01*
X479316D01*
X477650Y66004D01*
X487647Y74335D02*
Y64338D01*
X490979Y67670D01*
X494311Y64338D01*
Y74335D01*
X497644Y64338D02*
X500976D01*
X499310D01*
Y74335D01*
X497644Y72669D01*
X512639Y74335D02*
X505974D01*
Y69336D01*
X509306Y71002D01*
X510973D01*
X512639Y69336D01*
Y66004D01*
X510973Y64338D01*
X507640D01*
X505974Y66004D01*
X279845Y-103861D02*
X278179Y-102195D01*
X274846D01*
X273180Y-103861D01*
Y-105527D01*
X274846Y-107194D01*
X278179D01*
X279845Y-108860D01*
Y-110526D01*
X278179Y-112192D01*
X274846D01*
X273180Y-110526D01*
X283177Y-102195D02*
Y-112192D01*
X286509Y-108860D01*
X289841Y-112192D01*
Y-102195D01*
X299838Y-112192D02*
X293174D01*
X299838Y-105527D01*
Y-103861D01*
X298172Y-102195D01*
X294840D01*
X293174Y-103861D01*
X309835Y-112192D02*
X303171D01*
X309835Y-105527D01*
Y-103861D01*
X308169Y-102195D01*
X304837D01*
X303171Y-103861D01*
X261070Y-136034D02*
X260460Y-138310D01*
X262127Y-141196D01*
X264403Y-141806D01*
X265845Y-140973D01*
X266455Y-138697D01*
X264789Y-135811D01*
X265399Y-133535D01*
X266842Y-132702D01*
X269118Y-133312D01*
X270784Y-136198D01*
X270174Y-138474D01*
X257961Y-133982D02*
X266619Y-128983D01*
X262067Y-127764D01*
X263286Y-123212D01*
X254629Y-128210D01*
X254406Y-124491D02*
X252130Y-123881D01*
X250464Y-120996D01*
X251073Y-118720D01*
X252516Y-117886D01*
X254792Y-118496D01*
X255625Y-119939D01*
X254792Y-118496D01*
X255402Y-116220D01*
X256845Y-115387D01*
X259121Y-115997D01*
X260787Y-118883D01*
X260177Y-121159D01*
X255179Y-112501D02*
X255789Y-110225D01*
X254123Y-107340D01*
X251847Y-106730D01*
X246075Y-110062D01*
X245465Y-112338D01*
X247131Y-115224D01*
X249407Y-115834D01*
X250850Y-115001D01*
X251460Y-112725D01*
X248961Y-108396D01*
X400972Y-362959D02*
X399306Y-361293D01*
X395974D01*
X394308Y-362959D01*
Y-364626D01*
X395974Y-366292D01*
X399306D01*
X400972Y-367958D01*
Y-369624D01*
X399306Y-371290D01*
X395974D01*
X394308Y-369624D01*
X404304Y-361293D02*
Y-371290D01*
X407636Y-367958D01*
X410969Y-371290D01*
Y-361293D01*
X414301Y-362959D02*
X415967Y-361293D01*
X419299D01*
X420965Y-362959D01*
Y-364626D01*
X419299Y-366292D01*
X420965Y-367958D01*
Y-369624D01*
X419299Y-371290D01*
X415967D01*
X414301Y-369624D01*
Y-367958D01*
X415967Y-366292D01*
X414301Y-364626D01*
Y-362959D01*
X415967Y-366292D02*
X419299D01*
X573469Y-283185D02*
X571802Y-281519D01*
X568470D01*
X566804Y-283185D01*
Y-284851D01*
X568470Y-286518D01*
X571802D01*
X573469Y-288184D01*
Y-289850D01*
X571802Y-291516D01*
X568470D01*
X566804Y-289850D01*
X576801Y-281519D02*
Y-291516D01*
X580133Y-288184D01*
X583465Y-291516D01*
Y-281519D01*
X586798D02*
X593462D01*
Y-283185D01*
X586798Y-289850D01*
Y-291516D01*
X863512Y-153890D02*
X861846Y-152223D01*
X858514D01*
X856848Y-153890D01*
Y-155556D01*
X858514Y-157222D01*
X861846D01*
X863512Y-158888D01*
Y-160554D01*
X861846Y-162220D01*
X858514D01*
X856848Y-160554D01*
X866844Y-152223D02*
Y-162220D01*
X870177Y-158888D01*
X873509Y-162220D01*
Y-152223D01*
X883506D02*
X880173Y-153890D01*
X876841Y-157222D01*
Y-160554D01*
X878507Y-162220D01*
X881840D01*
X883506Y-160554D01*
Y-158888D01*
X881840Y-157222D01*
X876841D01*
X1054544Y-137135D02*
X1052878Y-135469D01*
X1049546D01*
X1047880Y-137135D01*
Y-138802D01*
X1049546Y-140468D01*
X1052878D01*
X1054544Y-142134D01*
Y-143800D01*
X1052878Y-145466D01*
X1049546D01*
X1047880Y-143800D01*
X1057877Y-135469D02*
Y-145466D01*
X1061209Y-142134D01*
X1064541Y-145466D01*
Y-135469D01*
X1074538D02*
X1067873D01*
Y-140468D01*
X1071206Y-138802D01*
X1072872D01*
X1074538Y-140468D01*
Y-143800D01*
X1072872Y-145466D01*
X1069539D01*
X1067873Y-143800D01*
X1245299Y-153137D02*
X1243633Y-151471D01*
X1240300D01*
X1238634Y-153137D01*
Y-154803D01*
X1240300Y-156469D01*
X1243633D01*
X1245299Y-158135D01*
Y-159802D01*
X1243633Y-161468D01*
X1240300D01*
X1238634Y-159802D01*
X1248631Y-151471D02*
Y-161468D01*
X1251963Y-158135D01*
X1255295Y-161468D01*
Y-151471D01*
X1263626Y-161468D02*
Y-151471D01*
X1258628Y-156469D01*
X1265292D01*
X1673143Y4861D02*
X1671477Y6528D01*
X1668144D01*
X1666478Y4861D01*
Y3195D01*
X1668144Y1529D01*
X1671477D01*
X1673143Y-137D01*
Y-1803D01*
X1671477Y-3469D01*
X1668144D01*
X1666478Y-1803D01*
X1676475Y6528D02*
Y-3469D01*
X1679807Y-137D01*
X1683139Y-3469D01*
Y6528D01*
X1686472Y-1803D02*
X1688138Y-3469D01*
X1691470D01*
X1693136Y-1803D01*
Y4861D01*
X1691470Y6528D01*
X1688138D01*
X1686472Y4861D01*
Y3195D01*
X1688138Y1529D01*
X1693136D01*
X1674305Y386867D02*
X1672639Y388533D01*
X1669306D01*
X1667640Y386867D01*
Y385201D01*
X1669306Y383535D01*
X1672639D01*
X1674305Y381868D01*
Y380202D01*
X1672639Y378536D01*
X1669306D01*
X1667640Y380202D01*
X1677637Y388533D02*
Y378536D01*
X1680969Y381868D01*
X1684301Y378536D01*
Y388533D01*
X1694298Y378536D02*
X1687634D01*
X1694298Y385201D01*
Y386867D01*
X1692632Y388533D01*
X1689300D01*
X1687634Y386867D01*
X1697630D02*
X1699297Y388533D01*
X1702629D01*
X1704295Y386867D01*
Y385201D01*
X1702629Y383535D01*
X1700963D01*
X1702629D01*
X1704295Y381868D01*
Y380202D01*
X1702629Y378536D01*
X1699297D01*
X1697630Y380202D01*
X1675067Y577874D02*
X1673400Y579541D01*
X1670068D01*
X1668402Y577874D01*
Y576208D01*
X1670068Y574542D01*
X1673400D01*
X1675067Y572876D01*
Y571210D01*
X1673400Y569544D01*
X1670068D01*
X1668402Y571210D01*
X1678399Y579541D02*
Y569544D01*
X1681731Y572876D01*
X1685063Y569544D01*
Y579541D01*
X1688396Y577874D02*
X1690062Y579541D01*
X1693394D01*
X1695060Y577874D01*
Y576208D01*
X1693394Y574542D01*
X1691728D01*
X1693394D01*
X1695060Y572876D01*
Y571210D01*
X1693394Y569544D01*
X1690062D01*
X1688396Y571210D01*
X1698392Y577874D02*
X1700058Y579541D01*
X1703391D01*
X1705057Y577874D01*
Y571210D01*
X1703391Y569544D01*
X1700058D01*
X1698392Y571210D01*
Y577874D01*
X1438085Y576605D02*
X1436418Y578271D01*
X1433086D01*
X1431420Y576605D01*
Y574939D01*
X1433086Y573273D01*
X1436418D01*
X1438085Y571606D01*
Y569940D01*
X1436418Y568274D01*
X1433086D01*
X1431420Y569940D01*
X1441417Y578271D02*
Y568274D01*
X1444749Y571606D01*
X1448081Y568274D01*
Y578271D01*
X1451414Y576605D02*
X1453080Y578271D01*
X1456412D01*
X1458078Y576605D01*
Y574939D01*
X1456412Y573273D01*
X1454746D01*
X1456412D01*
X1458078Y571606D01*
Y569940D01*
X1456412Y568274D01*
X1453080D01*
X1451414Y569940D01*
X1461410Y568274D02*
X1464743D01*
X1463077D01*
Y578271D01*
X1461410Y576605D01*
X1246312Y609852D02*
X1244646Y611518D01*
X1241314D01*
X1239648Y609852D01*
Y608185D01*
X1241314Y606519D01*
X1244646D01*
X1246312Y604853D01*
Y603187D01*
X1244646Y601521D01*
X1241314D01*
X1239648Y603187D01*
X1249644Y611518D02*
Y601521D01*
X1252977Y604853D01*
X1256309Y601521D01*
Y611518D01*
X1259641Y609852D02*
X1261307Y611518D01*
X1264639D01*
X1266305Y609852D01*
Y608185D01*
X1264639Y606519D01*
X1262973D01*
X1264639D01*
X1266305Y604853D01*
Y603187D01*
X1264639Y601521D01*
X1261307D01*
X1259641Y603187D01*
X1276302Y601521D02*
X1269638D01*
X1276302Y608185D01*
Y609852D01*
X1274636Y611518D01*
X1271304D01*
X1269638Y609852D01*
X1055814Y625881D02*
X1054148Y627547D01*
X1050816D01*
X1049150Y625881D01*
Y624215D01*
X1050816Y622548D01*
X1054148D01*
X1055814Y620882D01*
Y619216D01*
X1054148Y617550D01*
X1050816D01*
X1049150Y619216D01*
X1059147Y627547D02*
Y617550D01*
X1062479Y620882D01*
X1065811Y617550D01*
Y627547D01*
X1069143Y625881D02*
X1070809Y627547D01*
X1074142D01*
X1075808Y625881D01*
Y624215D01*
X1074142Y622548D01*
X1072476D01*
X1074142D01*
X1075808Y620882D01*
Y619216D01*
X1074142Y617550D01*
X1070809D01*
X1069143Y619216D01*
X1079140Y625881D02*
X1080806Y627547D01*
X1084138D01*
X1085805Y625881D01*
Y624215D01*
X1084138Y622548D01*
X1082472D01*
X1084138D01*
X1085805Y620882D01*
Y619216D01*
X1084138Y617550D01*
X1080806D01*
X1079140Y619216D01*
X865315Y609625D02*
X863649Y611291D01*
X860316D01*
X858650Y609625D01*
Y607959D01*
X860316Y606292D01*
X863649D01*
X865315Y604626D01*
Y602960D01*
X863649Y601294D01*
X860316D01*
X858650Y602960D01*
X868647Y611291D02*
Y601294D01*
X871979Y604626D01*
X875311Y601294D01*
Y611291D01*
X878644Y609625D02*
X880310Y611291D01*
X883642D01*
X885308Y609625D01*
Y607959D01*
X883642Y606292D01*
X881976D01*
X883642D01*
X885308Y604626D01*
Y602960D01*
X883642Y601294D01*
X880310D01*
X878644Y602960D01*
X893639Y601294D02*
Y611291D01*
X888640Y606292D01*
X895305D01*
X673011Y595390D02*
X671345Y597057D01*
X668012D01*
X666346Y595390D01*
Y593724D01*
X668012Y592058D01*
X671345D01*
X673011Y590392D01*
Y588726D01*
X671345Y587060D01*
X668012D01*
X666346Y588726D01*
X676343Y597057D02*
Y587060D01*
X679675Y590392D01*
X683007Y587060D01*
Y597057D01*
X686340Y595390D02*
X688006Y597057D01*
X691338D01*
X693004Y595390D01*
Y593724D01*
X691338Y592058D01*
X689672D01*
X691338D01*
X693004Y590392D01*
Y588726D01*
X691338Y587060D01*
X688006D01*
X686340Y588726D01*
X703001Y597057D02*
X696336D01*
Y592058D01*
X699669Y593724D01*
X701335D01*
X703001Y592058D01*
Y588726D01*
X701335Y587060D01*
X698003D01*
X696336Y588726D01*
X484060Y358927D02*
X482394Y360593D01*
X479062D01*
X477396Y358927D01*
Y357261D01*
X479062Y355594D01*
X482394D01*
X484060Y353928D01*
Y352262D01*
X482394Y350596D01*
X479062D01*
X477396Y352262D01*
X487393Y360593D02*
Y350596D01*
X490725Y353928D01*
X494057Y350596D01*
Y360593D01*
X504054Y350596D02*
X497389D01*
X504054Y357261D01*
Y358927D01*
X502388Y360593D01*
X499055D01*
X497389Y358927D01*
X507386Y352262D02*
X509052Y350596D01*
X512384D01*
X514051Y352262D01*
Y358927D01*
X512384Y360593D01*
X509052D01*
X507386Y358927D01*
Y357261D01*
X509052Y355594D01*
X514051D01*
X1625517Y-185640D02*
X1623851Y-183974D01*
X1620519D01*
X1618853Y-185640D01*
Y-187306D01*
X1620519Y-188972D01*
X1623851D01*
X1625517Y-190638D01*
Y-192304D01*
X1623851Y-193971D01*
X1620519D01*
X1618853Y-192304D01*
X1628850Y-183974D02*
Y-193971D01*
X1632182Y-190638D01*
X1635514Y-193971D01*
Y-183974D01*
X1645511Y-193971D02*
X1638847D01*
X1645511Y-187306D01*
Y-185640D01*
X1643845Y-183974D01*
X1640513D01*
X1638847Y-185640D01*
X1435016D02*
X1433350Y-183974D01*
X1430018D01*
X1428352Y-185640D01*
Y-187306D01*
X1430018Y-188972D01*
X1433350D01*
X1435016Y-190638D01*
Y-192304D01*
X1433350Y-193971D01*
X1430018D01*
X1428352Y-192304D01*
X1438349Y-183974D02*
Y-193971D01*
X1441681Y-190638D01*
X1445013Y-193971D01*
Y-183974D01*
X1448345Y-185640D02*
X1450011Y-183974D01*
X1453344D01*
X1455010Y-185640D01*
Y-187306D01*
X1453344Y-188972D01*
X1451678D01*
X1453344D01*
X1455010Y-190638D01*
Y-192304D01*
X1453344Y-193971D01*
X1450011D01*
X1448345Y-192304D01*
X1435016Y4861D02*
X1433350Y6528D01*
X1430018D01*
X1428352Y4861D01*
Y3195D01*
X1430018Y1529D01*
X1433350D01*
X1435016Y-137D01*
Y-1803D01*
X1433350Y-3469D01*
X1430018D01*
X1428352Y-1803D01*
X1438349Y6528D02*
Y-3469D01*
X1441681Y-137D01*
X1445013Y-3469D01*
Y6528D01*
X1448345Y-3469D02*
X1451678D01*
X1450011D01*
Y6528D01*
X1448345Y4861D01*
X1456676D02*
X1458342Y6528D01*
X1461674D01*
X1463340Y4861D01*
Y-1803D01*
X1461674Y-3469D01*
X1458342D01*
X1456676Y-1803D01*
Y4861D01*
X1246312Y38347D02*
X1244646Y40014D01*
X1241314D01*
X1239648Y38347D01*
Y36681D01*
X1241314Y35015D01*
X1244646D01*
X1246312Y33349D01*
Y31683D01*
X1244646Y30017D01*
X1241314D01*
X1239648Y31683D01*
X1249644Y40014D02*
Y30017D01*
X1252977Y33349D01*
X1256309Y30017D01*
Y40014D01*
X1259641Y30017D02*
X1262973D01*
X1261307D01*
Y40014D01*
X1259641Y38347D01*
X1267972Y30017D02*
X1271304D01*
X1269638D01*
Y40014D01*
X1267972Y38347D01*
X1055306Y52857D02*
X1053640Y54523D01*
X1050308D01*
X1048642Y52857D01*
Y51191D01*
X1050308Y49525D01*
X1053640D01*
X1055306Y47859D01*
Y46192D01*
X1053640Y44526D01*
X1050308D01*
X1048642Y46192D01*
X1058639Y54523D02*
Y44526D01*
X1061971Y47859D01*
X1065303Y44526D01*
Y54523D01*
X1068635Y44526D02*
X1071968D01*
X1070302D01*
Y54523D01*
X1068635Y52857D01*
X1083631Y44526D02*
X1076966D01*
X1083631Y51191D01*
Y52857D01*
X1081964Y54523D01*
X1078632D01*
X1076966Y52857D01*
X865309Y38347D02*
X863643Y40014D01*
X860311D01*
X858644Y38347D01*
Y36681D01*
X860311Y35015D01*
X863643D01*
X865309Y33349D01*
Y31683D01*
X863643Y30017D01*
X860311D01*
X858644Y31683D01*
X868641Y40014D02*
Y30017D01*
X871973Y33349D01*
X875306Y30017D01*
Y40014D01*
X878638Y30017D02*
X881970D01*
X880304D01*
Y40014D01*
X878638Y38347D01*
X886969D02*
X888635Y40014D01*
X891967D01*
X893633Y38347D01*
Y36681D01*
X891967Y35015D01*
X890301D01*
X891967D01*
X893633Y33349D01*
Y31683D01*
X891967Y30017D01*
X888635D01*
X886969Y31683D01*
X675576Y25933D02*
X673910Y27599D01*
X670578D01*
X668912Y25933D01*
Y24267D01*
X670578Y22600D01*
X673910D01*
X675576Y20934D01*
Y19268D01*
X673910Y17602D01*
X670578D01*
X668912Y19268D01*
X678909Y27599D02*
Y17602D01*
X682241Y20934D01*
X685573Y17602D01*
Y27599D01*
X688906Y17602D02*
X692238D01*
X690572D01*
Y27599D01*
X688906Y25933D01*
X702235Y17602D02*
Y27599D01*
X697236Y22600D01*
X703901D01*
X1673143Y195363D02*
X1671477Y197029D01*
X1668145D01*
X1666478Y195363D01*
Y193697D01*
X1668145Y192031D01*
X1671477D01*
X1673143Y190364D01*
Y188698D01*
X1671477Y187032D01*
X1668145D01*
X1666478Y188698D01*
X1676475Y197029D02*
Y187032D01*
X1679807Y190364D01*
X1683140Y187032D01*
Y197029D01*
X1686472Y187032D02*
X1689804D01*
X1688138D01*
Y197029D01*
X1686472Y195363D01*
X1701467Y197029D02*
X1698135Y195363D01*
X1694803Y192031D01*
Y188698D01*
X1696469Y187032D01*
X1699801D01*
X1701467Y188698D01*
Y190364D01*
X1699801Y192031D01*
X1694803D01*
X1435016Y195363D02*
X1433350Y197029D01*
X1430018D01*
X1428352Y195363D01*
Y193697D01*
X1430018Y192031D01*
X1433350D01*
X1435016Y190364D01*
Y188698D01*
X1433350Y187032D01*
X1430018D01*
X1428352Y188698D01*
X1438349Y197029D02*
Y187032D01*
X1441681Y190364D01*
X1445013Y187032D01*
Y197029D01*
X1448345Y187032D02*
X1451678D01*
X1450011D01*
Y197029D01*
X1448345Y195363D01*
X1456676Y197029D02*
X1463340D01*
Y195363D01*
X1456676Y188698D01*
Y187032D01*
X1244515Y227113D02*
X1242849Y228779D01*
X1239517D01*
X1237851Y227113D01*
Y225447D01*
X1239517Y223781D01*
X1242849D01*
X1244515Y222115D01*
Y220449D01*
X1242849Y218783D01*
X1239517D01*
X1237851Y220449D01*
X1247847Y228779D02*
Y218783D01*
X1251180Y222115D01*
X1254512Y218783D01*
Y228779D01*
X1257844Y218783D02*
X1261176D01*
X1259510D01*
Y228779D01*
X1257844Y227113D01*
X1266175D02*
X1267841Y228779D01*
X1271173D01*
X1272839Y227113D01*
Y225447D01*
X1271173Y223781D01*
X1272839Y222115D01*
Y220449D01*
X1271173Y218783D01*
X1267841D01*
X1266175Y220449D01*
Y222115D01*
X1267841Y223781D01*
X1266175Y225447D01*
Y227113D01*
X1267841Y223781D02*
X1271173D01*
X1054013Y243090D02*
X1052347Y244756D01*
X1049015D01*
X1047349Y243090D01*
Y241423D01*
X1049015Y239757D01*
X1052347D01*
X1054013Y238091D01*
Y236425D01*
X1052347Y234759D01*
X1049015D01*
X1047349Y236425D01*
X1057346Y244756D02*
Y234759D01*
X1060678Y238091D01*
X1064010Y234759D01*
Y244756D01*
X1067343Y234759D02*
X1070675D01*
X1069009D01*
Y244756D01*
X1067343Y243090D01*
X1075673Y236425D02*
X1077339Y234759D01*
X1080671D01*
X1082338Y236425D01*
Y243090D01*
X1080671Y244756D01*
X1077339D01*
X1075673Y243090D01*
Y241423D01*
X1077339Y239757D01*
X1082338D01*
X863512Y227113D02*
X861846Y228779D01*
X858514D01*
X856848Y227113D01*
Y225447D01*
X858514Y223781D01*
X861846D01*
X863512Y222115D01*
Y220449D01*
X861846Y218783D01*
X858514D01*
X856848Y220449D01*
X866844Y228779D02*
Y218783D01*
X870177Y222115D01*
X873509Y218783D01*
Y228779D01*
X883506Y218783D02*
X876841D01*
X883506Y225447D01*
Y227113D01*
X881840Y228779D01*
X878507D01*
X876841Y227113D01*
X886838D02*
X888504Y228779D01*
X891836D01*
X893503Y227113D01*
Y220449D01*
X891836Y218783D01*
X888504D01*
X886838Y220449D01*
Y227113D01*
X673799Y215925D02*
X672132Y217591D01*
X668800D01*
X667134Y215925D01*
Y214258D01*
X668800Y212592D01*
X672132D01*
X673799Y210926D01*
Y209260D01*
X672132Y207594D01*
X668800D01*
X667134Y209260D01*
X677131Y217591D02*
Y207594D01*
X680463Y210926D01*
X683795Y207594D01*
Y217591D01*
X693792Y207594D02*
X687128D01*
X693792Y214258D01*
Y215925D01*
X692126Y217591D01*
X688794D01*
X687128Y215925D01*
X697124Y207594D02*
X700457D01*
X698791D01*
Y217591D01*
X697124Y215925D01*
X1436307Y386867D02*
X1434641Y388533D01*
X1431308D01*
X1429642Y386867D01*
Y385201D01*
X1431308Y383535D01*
X1434641D01*
X1436307Y381868D01*
Y380202D01*
X1434641Y378536D01*
X1431308D01*
X1429642Y380202D01*
X1439639Y388533D02*
Y378536D01*
X1442971Y381868D01*
X1446303Y378536D01*
Y388533D01*
X1456300Y378536D02*
X1449636D01*
X1456300Y385201D01*
Y386867D01*
X1454634Y388533D01*
X1451302D01*
X1449636Y386867D01*
X1464631Y378536D02*
Y388533D01*
X1459632Y383535D01*
X1466297D01*
X1246568Y419887D02*
X1244902Y421553D01*
X1241570D01*
X1239904Y419887D01*
Y418221D01*
X1241570Y416554D01*
X1244902D01*
X1246568Y414888D01*
Y413222D01*
X1244902Y411556D01*
X1241570D01*
X1239904Y413222D01*
X1249901Y421553D02*
Y411556D01*
X1253233Y414888D01*
X1256565Y411556D01*
Y421553D01*
X1266562Y411556D02*
X1259898D01*
X1266562Y418221D01*
Y419887D01*
X1264896Y421553D01*
X1261564D01*
X1259898Y419887D01*
X1276559Y421553D02*
X1269894D01*
Y416554D01*
X1273226Y418221D01*
X1274893D01*
X1276559Y416554D01*
Y413222D01*
X1274893Y411556D01*
X1271560D01*
X1269894Y413222D01*
X1056830Y435126D02*
X1055164Y436793D01*
X1051832D01*
X1050166Y435126D01*
Y433460D01*
X1051832Y431794D01*
X1055164D01*
X1056830Y430128D01*
Y428462D01*
X1055164Y426796D01*
X1051832D01*
X1050166Y428462D01*
X1060163Y436793D02*
Y426796D01*
X1063495Y430128D01*
X1066827Y426796D01*
Y436793D01*
X1076824Y426796D02*
X1070159D01*
X1076824Y433460D01*
Y435126D01*
X1075158Y436793D01*
X1071825D01*
X1070159Y435126D01*
X1086821Y436793D02*
X1083488Y435126D01*
X1080156Y431794D01*
Y428462D01*
X1081822Y426796D01*
X1085154D01*
X1086821Y428462D01*
Y430128D01*
X1085154Y431794D01*
X1080156D01*
X865309Y419350D02*
X863643Y421016D01*
X860311D01*
X858644Y419350D01*
Y417684D01*
X860311Y416018D01*
X863643D01*
X865309Y414351D01*
Y412685D01*
X863643Y411019D01*
X860311D01*
X858644Y412685D01*
X868641Y421016D02*
Y411019D01*
X871973Y414351D01*
X875306Y411019D01*
Y421016D01*
X885303Y411019D02*
X878638D01*
X885303Y417684D01*
Y419350D01*
X883636Y421016D01*
X880304D01*
X878638Y419350D01*
X888635Y421016D02*
X895299D01*
Y419350D01*
X888635Y412685D01*
Y411019D01*
X674808Y406650D02*
X673142Y408316D01*
X669809D01*
X668143Y406650D01*
Y404984D01*
X669809Y403318D01*
X673142D01*
X674808Y401651D01*
Y399985D01*
X673142Y398319D01*
X669809D01*
X668143Y399985D01*
X678140Y408316D02*
Y398319D01*
X681472Y401651D01*
X684805Y398319D01*
Y408316D01*
X694801Y398319D02*
X688137D01*
X694801Y404984D01*
Y406650D01*
X693135Y408316D01*
X689803D01*
X688137Y406650D01*
X698134D02*
X699800Y408316D01*
X703132D01*
X704798Y406650D01*
Y404984D01*
X703132Y403318D01*
X704798Y401651D01*
Y399985D01*
X703132Y398319D01*
X699800D01*
X698134Y399985D01*
Y401651D01*
X699800Y403318D01*
X698134Y404984D01*
Y406650D01*
X699800Y403318D02*
X703132D01*
X484314Y598195D02*
X482648Y599861D01*
X479316D01*
X477650Y598195D01*
Y596528D01*
X479316Y594862D01*
X482648D01*
X484314Y593196D01*
Y591530D01*
X482648Y589864D01*
X479316D01*
X477650Y591530D01*
X487647Y599861D02*
Y589864D01*
X490979Y593196D01*
X494311Y589864D01*
Y599861D01*
X497643Y598195D02*
X499310Y599861D01*
X502642D01*
X504308Y598195D01*
Y596528D01*
X502642Y594862D01*
X500976D01*
X502642D01*
X504308Y593196D01*
Y591530D01*
X502642Y589864D01*
X499310D01*
X497643Y591530D01*
X514305Y599861D02*
X510972Y598195D01*
X507640Y594862D01*
Y591530D01*
X509306Y589864D01*
X512639D01*
X514305Y591530D01*
Y593196D01*
X512639Y594862D01*
X507640D01*
X342858Y-308500D02*
X342248Y-310776D01*
X343914Y-313662D01*
X346190Y-314272D01*
X347633Y-313439D01*
X348243Y-311163D01*
X346577Y-308277D01*
X347187Y-306001D01*
X348630Y-305168D01*
X350906Y-305778D01*
X352572Y-308664D01*
X351962Y-310940D01*
X339749Y-306448D02*
X348407Y-301449D01*
X343855Y-300230D01*
X345074Y-295678D01*
X336417Y-300676D01*
X336194Y-296957D02*
X333918Y-296347D01*
X332252Y-293461D01*
X332861Y-291185D01*
X334304Y-290352D01*
X336580Y-290962D01*
X337413Y-292405D01*
X336580Y-290962D01*
X337190Y-288686D01*
X338633Y-287853D01*
X340909Y-288463D01*
X342575Y-291349D01*
X341965Y-293625D01*
X331195Y-288300D02*
X328919Y-287690D01*
X327253Y-284804D01*
X327863Y-282528D01*
X329306Y-281695D01*
X331582Y-282305D01*
X332192Y-280029D01*
X333635Y-279196D01*
X335911Y-279806D01*
X337577Y-282691D01*
X336967Y-284967D01*
X335524Y-285800D01*
X333248Y-285191D01*
X332638Y-287467D01*
X331195Y-288300D01*
X333248Y-285191D02*
X331582Y-282305D01*
M02*
