G04*
G04 #@! TF.GenerationSoftware,Altium Limited,Altium Designer,24.10.1 (45)*
G04*
G04 Layer_Color=255*
%FSLAX44Y44*%
%MOMM*%
G71*
G04*
G04 #@! TF.SameCoordinates,3551A3A7-0B07-42EA-8A9A-C0D20DE36A30*
G04*
G04*
G04 #@! TF.FilePolarity,Positive*
G04*
G01*
G75*
%ADD38R,0.9000X0.9000*%
%ADD172C,0.5000*%
%ADD173R,1.3080X1.3080*%
%ADD174C,1.3080*%
%ADD175C,4.5720*%
%ADD176R,1.6500X1.6500*%
%ADD177C,1.6500*%
%ADD178O,3.0000X6.0000*%
%ADD179C,1.6000*%
%ADD180R,1.6000X1.6000*%
%ADD181C,0.3000*%
G04:AMPARAMS|DCode=182|XSize=1.308mm|YSize=1.308mm|CornerRadius=0.327mm|HoleSize=0mm|Usage=FLASHONLY|Rotation=90.000|XOffset=0mm|YOffset=0mm|HoleType=Round|Shape=RoundedRectangle|*
%AMROUNDEDRECTD182*
21,1,1.3080,0.6540,0,0,90.0*
21,1,0.6540,1.3080,0,0,90.0*
1,1,0.6540,0.3270,0.3270*
1,1,0.6540,0.3270,-0.3270*
1,1,0.6540,-0.3270,-0.3270*
1,1,0.6540,-0.3270,0.3270*
%
%ADD182ROUNDEDRECTD182*%
%ADD183O,1.7000X0.9000*%
%ADD184O,2.0000X0.9000*%
%ADD185C,0.6000*%
%ADD186R,1.4380X1.4380*%
%ADD187C,1.4380*%
%ADD188C,2.2650*%
%ADD190R,2.1000X1.4000*%
D38*
X1127608Y-110388D02*
D03*
Y-129388D02*
D03*
X1108608D02*
D03*
Y-110388D02*
D03*
X1299696Y-121462D02*
D03*
Y-140462D02*
D03*
X1318696D02*
D03*
Y-121462D02*
D03*
X1507418Y-157712D02*
D03*
Y-176712D02*
D03*
X1488418D02*
D03*
Y-157712D02*
D03*
X536600Y388214D02*
D03*
Y369214D02*
D03*
X555600D02*
D03*
Y388214D02*
D03*
X1510894Y415138D02*
D03*
Y396138D02*
D03*
X1491894D02*
D03*
Y415138D02*
D03*
X536078Y104929D02*
D03*
Y85929D02*
D03*
X555078D02*
D03*
Y104929D02*
D03*
X1126846Y82144D02*
D03*
Y63144D02*
D03*
X1107846D02*
D03*
Y82144D02*
D03*
X1298513Y70649D02*
D03*
Y51649D02*
D03*
X1317513D02*
D03*
Y70649D02*
D03*
X1727606Y35916D02*
D03*
Y16916D02*
D03*
X1746606D02*
D03*
Y35916D02*
D03*
X1679600Y-154584D02*
D03*
Y-173584D02*
D03*
X1698600D02*
D03*
Y-154584D02*
D03*
X1488084Y16408D02*
D03*
Y35408D02*
D03*
X1507084D02*
D03*
Y16408D02*
D03*
X1317387Y430761D02*
D03*
Y449761D02*
D03*
X1298387D02*
D03*
Y430761D02*
D03*
X558648Y630530D02*
D03*
Y611530D02*
D03*
X539648D02*
D03*
Y630530D02*
D03*
X728116Y627990D02*
D03*
Y608990D02*
D03*
X747116D02*
D03*
Y627990D02*
D03*
X937108Y640944D02*
D03*
Y621944D02*
D03*
X918108D02*
D03*
Y640944D02*
D03*
X1110132Y656438D02*
D03*
Y637438D02*
D03*
X1129132D02*
D03*
Y656438D02*
D03*
X1321410Y643230D02*
D03*
Y624230D02*
D03*
X1302410D02*
D03*
Y643230D02*
D03*
X1490370Y609448D02*
D03*
Y590448D02*
D03*
X1509370D02*
D03*
Y609448D02*
D03*
X1728114Y587908D02*
D03*
Y606908D02*
D03*
X1747114D02*
D03*
Y587908D02*
D03*
X1727860Y416916D02*
D03*
Y397916D02*
D03*
X1746860D02*
D03*
Y416916D02*
D03*
X1727351Y219948D02*
D03*
Y200948D02*
D03*
X1746351D02*
D03*
Y219948D02*
D03*
X1504544Y217526D02*
D03*
Y198526D02*
D03*
X1485544D02*
D03*
Y217526D02*
D03*
X1300124Y249784D02*
D03*
Y230784D02*
D03*
X1319124D02*
D03*
Y249784D02*
D03*
X1128116Y273152D02*
D03*
Y254152D02*
D03*
X1109116D02*
D03*
Y273152D02*
D03*
X917092Y258928D02*
D03*
Y239928D02*
D03*
X936092D02*
D03*
Y258928D02*
D03*
X745084Y247244D02*
D03*
Y228244D02*
D03*
X726084D02*
D03*
Y247244D02*
D03*
X729255Y36585D02*
D03*
Y55585D02*
D03*
X748255D02*
D03*
Y36585D02*
D03*
X921295Y68630D02*
D03*
Y49630D02*
D03*
X940295D02*
D03*
Y68630D02*
D03*
X644754Y-260248D02*
D03*
Y-279248D02*
D03*
X625754D02*
D03*
Y-260248D02*
D03*
X220606Y-78591D02*
D03*
Y-97591D02*
D03*
X201606D02*
D03*
Y-78591D02*
D03*
X300076Y-255422D02*
D03*
Y-274422D02*
D03*
X281076D02*
D03*
Y-255422D02*
D03*
X388468Y-429920D02*
D03*
Y-448920D02*
D03*
X369468D02*
D03*
Y-429920D02*
D03*
X454304Y-326288D02*
D03*
Y-345288D02*
D03*
X473304D02*
D03*
Y-326288D02*
D03*
X934902Y-121339D02*
D03*
Y-140339D02*
D03*
X915902D02*
D03*
Y-121339D02*
D03*
X352908Y-70256D02*
D03*
Y-89256D02*
D03*
X333908D02*
D03*
Y-70256D02*
D03*
X1110894Y465430D02*
D03*
Y446430D02*
D03*
X1129894D02*
D03*
Y465430D02*
D03*
X937162Y450872D02*
D03*
Y431872D02*
D03*
X918163D02*
D03*
Y450872D02*
D03*
X730762Y438151D02*
D03*
Y419151D02*
D03*
X749762D02*
D03*
Y438151D02*
D03*
D172*
X265370Y780314D02*
D03*
X276546D02*
D03*
Y769392D02*
D03*
X276292Y758724D02*
D03*
Y747548D02*
D03*
X265624D02*
D03*
X265370Y758724D02*
D03*
Y769138D02*
D03*
X254194D02*
D03*
X254448Y758978D02*
D03*
X254194Y747802D02*
D03*
Y780314D02*
D03*
X243526Y780568D02*
D03*
Y769138D02*
D03*
X243272Y758724D02*
D03*
X243018Y747802D02*
D03*
D173*
X333398Y556602D02*
D03*
D174*
X313398D02*
D03*
X293398D02*
D03*
X273398D02*
D03*
X253398D02*
D03*
X233398D02*
D03*
X213398D02*
D03*
X193398D02*
D03*
X136144Y337458D02*
D03*
Y362458D02*
D03*
D175*
X36576Y869950D02*
D03*
X782574Y-330962D02*
D03*
D176*
X64662Y608942D02*
D03*
D177*
X114662D02*
D03*
X64662Y753942D02*
D03*
X89662D02*
D03*
X114662D02*
D03*
D178*
X32662Y678942D02*
D03*
X146662D02*
D03*
D179*
X150876Y876046D02*
D03*
D180*
X176276D02*
D03*
D181*
X268602Y407416D02*
D03*
X276352D02*
D03*
X284102D02*
D03*
X276352Y399666D02*
D03*
Y415166D02*
D03*
D182*
X136144Y387458D02*
D03*
D183*
X21334Y245080D02*
D03*
Y331580D02*
D03*
D184*
X63034Y245080D02*
D03*
Y331580D02*
D03*
D185*
X58134Y259430D02*
D03*
Y317230D02*
D03*
D186*
X47806Y460690D02*
D03*
D187*
Y440690D02*
D03*
Y420690D02*
D03*
X22806Y460690D02*
D03*
Y440690D02*
D03*
Y420690D02*
D03*
D188*
X35306Y490690D02*
D03*
Y390690D02*
D03*
D190*
X338802Y926444D02*
D03*
X429802D02*
D03*
Y971444D02*
D03*
X338802D02*
D03*
M02*
