G04*
G04 #@! TF.GenerationSoftware,Altium Limited,Altium Designer,24.10.1 (45)*
G04*
G04 Layer_Color=8388736*
%FSLAX44Y44*%
%MOMM*%
G71*
G04*
G04 #@! TF.SameCoordinates,3551A3A7-0B07-42EA-8A9A-C0D20DE36A30*
G04*
G04*
G04 #@! TF.FilePolarity,Negative*
G04*
G01*
G75*
%ADD69R,0.6858X0.5842*%
%ADD82C,3.6032*%
%ADD83R,1.4032X1.2032*%
G04:AMPARAMS|DCode=84|XSize=1.4032mm|YSize=1.2032mm|CornerRadius=0.3516mm|HoleSize=0mm|Usage=FLASHONLY|Rotation=180.000|XOffset=0mm|YOffset=0mm|HoleType=Round|Shape=RoundedRectangle|*
%AMROUNDEDRECTD84*
21,1,1.4032,0.5000,0,0,180.0*
21,1,0.7000,1.2032,0,0,180.0*
1,1,0.7032,-0.3500,0.2500*
1,1,0.7032,0.3500,0.2500*
1,1,0.7032,0.3500,-0.2500*
1,1,0.7032,-0.3500,-0.2500*
%
%ADD84ROUNDEDRECTD84*%
%ADD85R,4.8000X4.8000*%
G04:AMPARAMS|DCode=86|XSize=0.36mm|YSize=0.96mm|CornerRadius=0.115mm|HoleSize=0mm|Usage=FLASHONLY|Rotation=180.000|XOffset=0mm|YOffset=0mm|HoleType=Round|Shape=RoundedRectangle|*
%AMROUNDEDRECTD86*
21,1,0.3600,0.7300,0,0,180.0*
21,1,0.1300,0.9600,0,0,180.0*
1,1,0.2300,-0.0650,0.3650*
1,1,0.2300,0.0650,0.3650*
1,1,0.2300,0.0650,-0.3650*
1,1,0.2300,-0.0650,-0.3650*
%
%ADD86ROUNDEDRECTD86*%
G04:AMPARAMS|DCode=87|XSize=0.36mm|YSize=0.96mm|CornerRadius=0.115mm|HoleSize=0mm|Usage=FLASHONLY|Rotation=270.000|XOffset=0mm|YOffset=0mm|HoleType=Round|Shape=RoundedRectangle|*
%AMROUNDEDRECTD87*
21,1,0.3600,0.7300,0,0,270.0*
21,1,0.1300,0.9600,0,0,270.0*
1,1,0.2300,-0.3650,-0.0650*
1,1,0.2300,-0.3650,0.0650*
1,1,0.2300,0.3650,0.0650*
1,1,0.2300,0.3650,-0.0650*
%
%ADD87ROUNDEDRECTD87*%
%ADD88R,0.9600X0.3600*%
%ADD89R,0.7924X0.6732*%
G04:AMPARAMS|DCode=90|XSize=0.7924mm|YSize=0.6732mm|CornerRadius=0.2191mm|HoleSize=0mm|Usage=FLASHONLY|Rotation=180.000|XOffset=0mm|YOffset=0mm|HoleType=Round|Shape=RoundedRectangle|*
%AMROUNDEDRECTD90*
21,1,0.7924,0.2350,0,0,180.0*
21,1,0.3542,0.6732,0,0,180.0*
1,1,0.4382,-0.1771,0.1175*
1,1,0.4382,0.1771,0.1175*
1,1,0.4382,0.1771,-0.1175*
1,1,0.4382,-0.1771,-0.1175*
%
%ADD90ROUNDEDRECTD90*%
%ADD91R,0.7032X0.8432*%
G04:AMPARAMS|DCode=92|XSize=0.8432mm|YSize=0.7032mm|CornerRadius=0.2266mm|HoleSize=0mm|Usage=FLASHONLY|Rotation=90.000|XOffset=0mm|YOffset=0mm|HoleType=Round|Shape=RoundedRectangle|*
%AMROUNDEDRECTD92*
21,1,0.8432,0.2500,0,0,90.0*
21,1,0.3900,0.7032,0,0,90.0*
1,1,0.4532,0.1250,0.1950*
1,1,0.4532,0.1250,-0.1950*
1,1,0.4532,-0.1250,-0.1950*
1,1,0.4532,-0.1250,0.1950*
%
%ADD92ROUNDEDRECTD92*%
%ADD93R,0.8432X0.6732*%
G04:AMPARAMS|DCode=94|XSize=1.2192mm|YSize=0.597mm|CornerRadius=0.2001mm|HoleSize=0mm|Usage=FLASHONLY|Rotation=180.000|XOffset=0mm|YOffset=0mm|HoleType=Round|Shape=RoundedRectangle|*
%AMROUNDEDRECTD94*
21,1,1.2192,0.1969,0,0,180.0*
21,1,0.8191,0.5970,0,0,180.0*
1,1,0.4001,-0.4096,0.0984*
1,1,0.4001,0.4096,0.0984*
1,1,0.4001,0.4096,-0.0984*
1,1,0.4001,-0.4096,-0.0984*
%
%ADD94ROUNDEDRECTD94*%
%ADD95R,1.1032X1.1032*%
G04:AMPARAMS|DCode=96|XSize=1.1032mm|YSize=1.1032mm|CornerRadius=0.3266mm|HoleSize=0mm|Usage=FLASHONLY|Rotation=180.000|XOffset=0mm|YOffset=0mm|HoleType=Round|Shape=RoundedRectangle|*
%AMROUNDEDRECTD96*
21,1,1.1032,0.4500,0,0,180.0*
21,1,0.4500,1.1032,0,0,180.0*
1,1,0.6532,-0.2250,0.2250*
1,1,0.6532,0.2250,0.2250*
1,1,0.6532,0.2250,-0.2250*
1,1,0.6532,-0.2250,-0.2250*
%
%ADD96ROUNDEDRECTD96*%
G04:AMPARAMS|DCode=97|XSize=2.7532mm|YSize=2.7032mm|CornerRadius=0mm|HoleSize=0mm|Usage=FLASHONLY|Rotation=120.000|XOffset=0mm|YOffset=0mm|HoleType=Round|Shape=Rectangle|*
%AMROTATEDRECTD97*
4,1,4,1.8588,-0.5164,-0.4822,-1.8680,-1.8588,0.5164,0.4822,1.8680,1.8588,-0.5164,0.0*
%
%ADD97ROTATEDRECTD97*%

G04:AMPARAMS|DCode=98|XSize=1.1032mm|YSize=1.1032mm|CornerRadius=0.3266mm|HoleSize=0mm|Usage=FLASHONLY|Rotation=270.000|XOffset=0mm|YOffset=0mm|HoleType=Round|Shape=RoundedRectangle|*
%AMROUNDEDRECTD98*
21,1,1.1032,0.4500,0,0,270.0*
21,1,0.4500,1.1032,0,0,270.0*
1,1,0.6532,-0.2250,-0.2250*
1,1,0.6532,-0.2250,0.2250*
1,1,0.6532,0.2250,0.2250*
1,1,0.6532,0.2250,-0.2250*
%
%ADD98ROUNDEDRECTD98*%
%ADD99R,1.1032X1.1032*%
%ADD100R,1.0032X1.1032*%
%ADD101R,2.7532X2.7032*%
G04:AMPARAMS|DCode=102|XSize=1.4032mm|YSize=1.2032mm|CornerRadius=0.3516mm|HoleSize=0mm|Usage=FLASHONLY|Rotation=270.000|XOffset=0mm|YOffset=0mm|HoleType=Round|Shape=RoundedRectangle|*
%AMROUNDEDRECTD102*
21,1,1.4032,0.5000,0,0,270.0*
21,1,0.7000,1.2032,0,0,270.0*
1,1,0.7032,-0.2500,-0.3500*
1,1,0.7032,-0.2500,0.3500*
1,1,0.7032,0.2500,0.3500*
1,1,0.7032,0.2500,-0.3500*
%
%ADD102ROUNDEDRECTD102*%
%ADD103R,1.2032X1.4032*%
%ADD104R,1.6732X1.3632*%
%ADD105R,1.6032X2.3032*%
%ADD106R,1.3632X1.6732*%
%ADD107C,1.4032*%
%ADD108R,1.5900X1.5900*%
G04:AMPARAMS|DCode=109|XSize=0.74mm|YSize=0.4mm|CornerRadius=0.1025mm|HoleSize=0mm|Usage=FLASHONLY|Rotation=0.000|XOffset=0mm|YOffset=0mm|HoleType=Round|Shape=RoundedRectangle|*
%AMROUNDEDRECTD109*
21,1,0.7400,0.1950,0,0,0.0*
21,1,0.5350,0.4000,0,0,0.0*
1,1,0.2050,0.2675,-0.0975*
1,1,0.2050,-0.2675,-0.0975*
1,1,0.2050,-0.2675,0.0975*
1,1,0.2050,0.2675,0.0975*
%
%ADD109ROUNDEDRECTD109*%
%ADD110R,0.7400X0.4000*%
G04:AMPARAMS|DCode=111|XSize=0.74mm|YSize=0.4mm|CornerRadius=0.1025mm|HoleSize=0mm|Usage=FLASHONLY|Rotation=90.000|XOffset=0mm|YOffset=0mm|HoleType=Round|Shape=RoundedRectangle|*
%AMROUNDEDRECTD111*
21,1,0.7400,0.1950,0,0,90.0*
21,1,0.5350,0.4000,0,0,90.0*
1,1,0.2050,0.0975,0.2675*
1,1,0.2050,0.0975,-0.2675*
1,1,0.2050,-0.0975,-0.2675*
1,1,0.2050,-0.0975,0.2675*
%
%ADD111ROUNDEDRECTD111*%
G04:AMPARAMS|DCode=112|XSize=0.54mm|YSize=1.04mm|CornerRadius=0.17mm|HoleSize=0mm|Usage=FLASHONLY|Rotation=0.000|XOffset=0mm|YOffset=0mm|HoleType=Round|Shape=RoundedRectangle|*
%AMROUNDEDRECTD112*
21,1,0.5400,0.7000,0,0,0.0*
21,1,0.2000,1.0400,0,0,0.0*
1,1,0.3400,0.1000,-0.3500*
1,1,0.3400,-0.1000,-0.3500*
1,1,0.3400,-0.1000,0.3500*
1,1,0.3400,0.1000,0.3500*
%
%ADD112ROUNDEDRECTD112*%
%ADD113R,0.5400X1.0400*%
%ADD114R,1.0508X0.7508*%
G04:AMPARAMS|DCode=115|XSize=2.8956mm|YSize=0.762mm|CornerRadius=0.2159mm|HoleSize=0mm|Usage=FLASHONLY|Rotation=0.000|XOffset=0mm|YOffset=0mm|HoleType=Round|Shape=RoundedRectangle|*
%AMROUNDEDRECTD115*
21,1,2.8956,0.3302,0,0,0.0*
21,1,2.4638,0.7620,0,0,0.0*
1,1,0.4318,1.2319,-0.1651*
1,1,0.4318,-1.2319,-0.1651*
1,1,0.4318,-1.2319,0.1651*
1,1,0.4318,1.2319,0.1651*
%
%ADD115ROUNDEDRECTD115*%
%ADD116R,1.0400X0.5400*%
G04:AMPARAMS|DCode=117|XSize=0.54mm|YSize=1.04mm|CornerRadius=0.17mm|HoleSize=0mm|Usage=FLASHONLY|Rotation=270.000|XOffset=0mm|YOffset=0mm|HoleType=Round|Shape=RoundedRectangle|*
%AMROUNDEDRECTD117*
21,1,0.5400,0.7000,0,0,270.0*
21,1,0.2000,1.0400,0,0,270.0*
1,1,0.3400,-0.3500,-0.1000*
1,1,0.3400,-0.3500,0.1000*
1,1,0.3400,0.3500,0.1000*
1,1,0.3400,0.3500,-0.1000*
%
%ADD117ROUNDEDRECTD117*%
G04:AMPARAMS|DCode=118|XSize=1.8032mm|YSize=4.5032mm|CornerRadius=0.5016mm|HoleSize=0mm|Usage=FLASHONLY|Rotation=0.000|XOffset=0mm|YOffset=0mm|HoleType=Round|Shape=RoundedRectangle|*
%AMROUNDEDRECTD118*
21,1,1.8032,3.5000,0,0,0.0*
21,1,0.8000,4.5032,0,0,0.0*
1,1,1.0032,0.4000,-1.7500*
1,1,1.0032,-0.4000,-1.7500*
1,1,1.0032,-0.4000,1.7500*
1,1,1.0032,0.4000,1.7500*
%
%ADD118ROUNDEDRECTD118*%
%ADD119R,1.8032X4.5032*%
G04:AMPARAMS|DCode=120|XSize=1.8032mm|YSize=4.5032mm|CornerRadius=0.5016mm|HoleSize=0mm|Usage=FLASHONLY|Rotation=90.000|XOffset=0mm|YOffset=0mm|HoleType=Round|Shape=RoundedRectangle|*
%AMROUNDEDRECTD120*
21,1,1.8032,3.5000,0,0,90.0*
21,1,0.8000,4.5032,0,0,90.0*
1,1,1.0032,1.7500,0.4000*
1,1,1.0032,1.7500,-0.4000*
1,1,1.0032,-1.7500,-0.4000*
1,1,1.0032,-1.7500,0.4000*
%
%ADD120ROUNDEDRECTD120*%
%ADD121R,4.5032X1.8032*%
%ADD122R,1.7400X2.6400*%
G04:AMPARAMS|DCode=123|XSize=0.59mm|YSize=0.99mm|CornerRadius=0.1825mm|HoleSize=0mm|Usage=FLASHONLY|Rotation=90.000|XOffset=0mm|YOffset=0mm|HoleType=Round|Shape=RoundedRectangle|*
%AMROUNDEDRECTD123*
21,1,0.5900,0.6250,0,0,90.0*
21,1,0.2250,0.9900,0,0,90.0*
1,1,0.3650,0.3125,0.1125*
1,1,0.3650,0.3125,-0.1125*
1,1,0.3650,-0.3125,-0.1125*
1,1,0.3650,-0.3125,0.1125*
%
%ADD123ROUNDEDRECTD123*%
%ADD124R,0.9900X0.5900*%
%ADD125R,2.1032X1.3032*%
G04:AMPARAMS|DCode=126|XSize=1.2032mm|YSize=3.4032mm|CornerRadius=0.3516mm|HoleSize=0mm|Usage=FLASHONLY|Rotation=90.000|XOffset=0mm|YOffset=0mm|HoleType=Round|Shape=RoundedRectangle|*
%AMROUNDEDRECTD126*
21,1,1.2032,2.7000,0,0,90.0*
21,1,0.5000,3.4032,0,0,90.0*
1,1,0.7032,1.3500,0.2500*
1,1,0.7032,1.3500,-0.2500*
1,1,0.7032,-1.3500,-0.2500*
1,1,0.7032,-1.3500,0.2500*
%
%ADD126ROUNDEDRECTD126*%
%ADD127R,3.4032X1.2032*%
%ADD128R,0.8032X0.6032*%
G04:AMPARAMS|DCode=129|XSize=0.8032mm|YSize=0.6032mm|CornerRadius=0.2016mm|HoleSize=0mm|Usage=FLASHONLY|Rotation=180.000|XOffset=0mm|YOffset=0mm|HoleType=Round|Shape=RoundedRectangle|*
%AMROUNDEDRECTD129*
21,1,0.8032,0.2000,0,0,180.0*
21,1,0.4000,0.6032,0,0,180.0*
1,1,0.4032,-0.2000,0.1000*
1,1,0.4032,0.2000,0.1000*
1,1,0.4032,0.2000,-0.1000*
1,1,0.4032,-0.2000,-0.1000*
%
%ADD129ROUNDEDRECTD129*%
%ADD130R,0.6032X0.8032*%
G04:AMPARAMS|DCode=131|XSize=0.8032mm|YSize=0.6032mm|CornerRadius=0.2016mm|HoleSize=0mm|Usage=FLASHONLY|Rotation=90.000|XOffset=0mm|YOffset=0mm|HoleType=Round|Shape=RoundedRectangle|*
%AMROUNDEDRECTD131*
21,1,0.8032,0.2000,0,0,90.0*
21,1,0.4000,0.6032,0,0,90.0*
1,1,0.4032,0.1000,0.2000*
1,1,0.4032,0.1000,-0.2000*
1,1,0.4032,-0.1000,-0.2000*
1,1,0.4032,-0.1000,0.2000*
%
%ADD131ROUNDEDRECTD131*%
G04:AMPARAMS|DCode=132|XSize=0.8432mm|YSize=0.6732mm|CornerRadius=0.2191mm|HoleSize=0mm|Usage=FLASHONLY|Rotation=270.000|XOffset=0mm|YOffset=0mm|HoleType=Round|Shape=RoundedRectangle|*
%AMROUNDEDRECTD132*
21,1,0.8432,0.2350,0,0,270.0*
21,1,0.4050,0.6732,0,0,270.0*
1,1,0.4382,-0.1175,-0.2025*
1,1,0.4382,-0.1175,0.2025*
1,1,0.4382,0.1175,0.2025*
1,1,0.4382,0.1175,-0.2025*
%
%ADD132ROUNDEDRECTD132*%
%ADD133R,0.6732X0.8432*%
%ADD134R,2.1900X2.1900*%
G04:AMPARAMS|DCode=135|XSize=1.0032mm|YSize=1.0032mm|CornerRadius=0.3016mm|HoleSize=0mm|Usage=FLASHONLY|Rotation=270.000|XOffset=0mm|YOffset=0mm|HoleType=Round|Shape=RoundedRectangle|*
%AMROUNDEDRECTD135*
21,1,1.0032,0.4000,0,0,270.0*
21,1,0.4000,1.0032,0,0,270.0*
1,1,0.6032,-0.2000,-0.2000*
1,1,0.6032,-0.2000,0.2000*
1,1,0.6032,0.2000,0.2000*
1,1,0.6032,0.2000,-0.2000*
%
%ADD135ROUNDEDRECTD135*%
%ADD136R,1.0032X1.0032*%
G04:AMPARAMS|DCode=137|XSize=1.0032mm|YSize=1.0032mm|CornerRadius=0.3016mm|HoleSize=0mm|Usage=FLASHONLY|Rotation=0.000|XOffset=0mm|YOffset=0mm|HoleType=Round|Shape=RoundedRectangle|*
%AMROUNDEDRECTD137*
21,1,1.0032,0.4000,0,0,0.0*
21,1,0.4000,1.0032,0,0,0.0*
1,1,0.6032,0.2000,-0.2000*
1,1,0.6032,-0.2000,-0.2000*
1,1,0.6032,-0.2000,0.2000*
1,1,0.6032,0.2000,0.2000*
%
%ADD137ROUNDEDRECTD137*%
%ADD138R,1.0032X1.0032*%
%ADD139R,1.2400X0.7000*%
%ADD140R,1.2400X0.4000*%
%ADD141R,0.7508X1.0508*%
%ADD142C,0.7032*%
%ADD143R,1.5112X1.5112*%
%ADD144C,1.5112*%
%ADD145C,4.7752*%
%ADD146C,0.2032*%
%ADD147R,1.8532X1.8532*%
%ADD148C,1.8532*%
%ADD149O,3.2032X6.2032*%
%ADD150C,1.8032*%
%ADD151R,1.8032X1.8032*%
G04:AMPARAMS|DCode=152|XSize=1.5112mm|YSize=1.5112mm|CornerRadius=0.4286mm|HoleSize=0mm|Usage=FLASHONLY|Rotation=90.000|XOffset=0mm|YOffset=0mm|HoleType=Round|Shape=RoundedRectangle|*
%AMROUNDEDRECTD152*
21,1,1.5112,0.6540,0,0,90.0*
21,1,0.6540,1.5112,0,0,90.0*
1,1,0.8572,0.3270,0.3270*
1,1,0.8572,0.3270,-0.3270*
1,1,0.8572,-0.3270,-0.3270*
1,1,0.8572,-0.3270,0.3270*
%
%ADD152ROUNDEDRECTD152*%
%ADD153O,1.9032X1.1032*%
%ADD154O,2.2032X1.1032*%
%ADD155C,0.8032*%
%ADD156R,1.6412X1.6412*%
%ADD157C,1.6412*%
%ADD158C,2.4682*%
%ADD159C,0.7366*%
G36*
X287832Y427606D02*
X287852D01*
X287882Y427596D01*
X287902D01*
X287932Y427586D01*
X287952Y427576D01*
X287982Y427566D01*
X288002Y427546D01*
X288022Y427536D01*
X288042Y427516D01*
X288062Y427506D01*
X288082Y427486D01*
X288102Y427466D01*
X288122Y427446D01*
X288142Y427426D01*
X288152Y427406D01*
X288172Y427386D01*
X288182Y427366D01*
X288202Y427346D01*
X288212Y427316D01*
X288222Y427296D01*
X288232Y427266D01*
Y427246D01*
X288242Y427216D01*
Y427196D01*
X288252Y427166D01*
Y420666D01*
X288242Y420636D01*
Y420616D01*
X288232Y420586D01*
Y420566D01*
X288222Y420536D01*
X288212Y420516D01*
X288202Y420486D01*
X288182Y420466D01*
X288172Y420446D01*
X288152Y420426D01*
X288142Y420406D01*
X288122Y420386D01*
X288102Y420366D01*
X288082Y420346D01*
X288062Y420326D01*
X288042Y420316D01*
X288022Y420296D01*
X288002Y420286D01*
X287982Y420266D01*
X287952Y420256D01*
X287932Y420246D01*
X287902Y420236D01*
X287882D01*
X287852Y420226D01*
X287832D01*
X287802Y420216D01*
X284902D01*
X284872Y420226D01*
X284852D01*
X284822Y420236D01*
X284802D01*
X284772Y420246D01*
X284752Y420256D01*
X284722Y420266D01*
X284702Y420286D01*
X284682Y420296D01*
X284662Y420316D01*
X284642Y420326D01*
X284622Y420346D01*
X284602Y420366D01*
X284582Y420386D01*
X284562Y420406D01*
X284552Y420426D01*
X284532Y420446D01*
X284522Y420466D01*
X284502Y420486D01*
X284492Y420516D01*
X284482Y420536D01*
X284472Y420566D01*
Y420586D01*
X284462Y420616D01*
Y420636D01*
X284452Y420666D01*
Y427166D01*
X284462Y427196D01*
Y427216D01*
X284472Y427246D01*
Y427266D01*
X284482Y427296D01*
X284492Y427316D01*
X284502Y427346D01*
X284522Y427366D01*
X284532Y427386D01*
X284552Y427406D01*
X284562Y427426D01*
X284582Y427446D01*
X284602Y427466D01*
X284622Y427486D01*
X284642Y427506D01*
X284662Y427516D01*
X284682Y427536D01*
X284702Y427546D01*
X284722Y427566D01*
X284752Y427576D01*
X284772Y427586D01*
X284802Y427596D01*
X284822D01*
X284852Y427606D01*
X284872D01*
X284902Y427616D01*
X287802D01*
X287832Y427606D01*
D02*
G37*
G36*
X282832D02*
X282852D01*
X282882Y427596D01*
X282902D01*
X282932Y427586D01*
X282952Y427576D01*
X282982Y427566D01*
X283002Y427546D01*
X283022Y427536D01*
X283042Y427516D01*
X283062Y427506D01*
X283082Y427486D01*
X283102Y427466D01*
X283122Y427446D01*
X283142Y427426D01*
X283152Y427406D01*
X283172Y427386D01*
X283182Y427366D01*
X283202Y427346D01*
X283212Y427316D01*
X283222Y427296D01*
X283232Y427266D01*
Y427246D01*
X283242Y427216D01*
Y427196D01*
X283252Y427166D01*
Y420666D01*
X283242Y420636D01*
Y420616D01*
X283232Y420586D01*
Y420566D01*
X283222Y420536D01*
X283212Y420516D01*
X283202Y420486D01*
X283182Y420466D01*
X283172Y420446D01*
X283152Y420426D01*
X283142Y420406D01*
X283122Y420386D01*
X283102Y420366D01*
X283082Y420346D01*
X283062Y420326D01*
X283042Y420316D01*
X283022Y420296D01*
X283002Y420286D01*
X282982Y420266D01*
X282952Y420256D01*
X282932Y420246D01*
X282902Y420236D01*
X282882D01*
X282852Y420226D01*
X282832D01*
X282802Y420216D01*
X279902D01*
X279872Y420226D01*
X279852D01*
X279822Y420236D01*
X279802D01*
X279772Y420246D01*
X279752Y420256D01*
X279722Y420266D01*
X279702Y420286D01*
X279682Y420296D01*
X279662Y420316D01*
X279642Y420326D01*
X279622Y420346D01*
X279602Y420366D01*
X279582Y420386D01*
X279562Y420406D01*
X279552Y420426D01*
X279532Y420446D01*
X279522Y420466D01*
X279502Y420486D01*
X279492Y420516D01*
X279482Y420536D01*
X279472Y420566D01*
Y420586D01*
X279462Y420616D01*
Y420636D01*
X279452Y420666D01*
Y427166D01*
X279462Y427196D01*
Y427216D01*
X279472Y427246D01*
Y427266D01*
X279482Y427296D01*
X279492Y427316D01*
X279502Y427346D01*
X279522Y427366D01*
X279532Y427386D01*
X279552Y427406D01*
X279562Y427426D01*
X279582Y427446D01*
X279602Y427466D01*
X279622Y427486D01*
X279642Y427506D01*
X279662Y427516D01*
X279682Y427536D01*
X279702Y427546D01*
X279722Y427566D01*
X279752Y427576D01*
X279772Y427586D01*
X279802Y427596D01*
X279822D01*
X279852Y427606D01*
X279872D01*
X279902Y427616D01*
X282802D01*
X282832Y427606D01*
D02*
G37*
G36*
X277832D02*
X277852D01*
X277882Y427596D01*
X277902D01*
X277932Y427586D01*
X277952Y427576D01*
X277982Y427566D01*
X278002Y427546D01*
X278022Y427536D01*
X278042Y427516D01*
X278062Y427506D01*
X278082Y427486D01*
X278102Y427466D01*
X278122Y427446D01*
X278142Y427426D01*
X278152Y427406D01*
X278172Y427386D01*
X278182Y427366D01*
X278202Y427346D01*
X278212Y427316D01*
X278222Y427296D01*
X278232Y427266D01*
Y427246D01*
X278242Y427216D01*
Y427196D01*
X278252Y427166D01*
Y420666D01*
X278242Y420636D01*
Y420616D01*
X278232Y420586D01*
Y420566D01*
X278222Y420536D01*
X278212Y420516D01*
X278202Y420486D01*
X278182Y420466D01*
X278172Y420446D01*
X278152Y420426D01*
X278142Y420406D01*
X278122Y420386D01*
X278102Y420366D01*
X278082Y420346D01*
X278062Y420326D01*
X278042Y420316D01*
X278022Y420296D01*
X278002Y420286D01*
X277982Y420266D01*
X277952Y420256D01*
X277932Y420246D01*
X277902Y420236D01*
X277882D01*
X277852Y420226D01*
X277832D01*
X277802Y420216D01*
X274902D01*
X274872Y420226D01*
X274852D01*
X274822Y420236D01*
X274802D01*
X274772Y420246D01*
X274752Y420256D01*
X274722Y420266D01*
X274702Y420286D01*
X274682Y420296D01*
X274662Y420316D01*
X274642Y420326D01*
X274622Y420346D01*
X274602Y420366D01*
X274582Y420386D01*
X274562Y420406D01*
X274552Y420426D01*
X274532Y420446D01*
X274522Y420466D01*
X274502Y420486D01*
X274492Y420516D01*
X274482Y420536D01*
X274472Y420566D01*
Y420586D01*
X274462Y420616D01*
Y420636D01*
X274452Y420666D01*
Y427166D01*
X274462Y427196D01*
Y427216D01*
X274472Y427246D01*
Y427266D01*
X274482Y427296D01*
X274492Y427316D01*
X274502Y427346D01*
X274522Y427366D01*
X274532Y427386D01*
X274552Y427406D01*
X274562Y427426D01*
X274582Y427446D01*
X274602Y427466D01*
X274622Y427486D01*
X274642Y427506D01*
X274662Y427516D01*
X274682Y427536D01*
X274702Y427546D01*
X274722Y427566D01*
X274752Y427576D01*
X274772Y427586D01*
X274802Y427596D01*
X274822D01*
X274852Y427606D01*
X274872D01*
X274902Y427616D01*
X277802D01*
X277832Y427606D01*
D02*
G37*
G36*
X272832D02*
X272852D01*
X272882Y427596D01*
X272902D01*
X272932Y427586D01*
X272952Y427576D01*
X272982Y427566D01*
X273002Y427546D01*
X273022Y427536D01*
X273042Y427516D01*
X273062Y427506D01*
X273082Y427486D01*
X273102Y427466D01*
X273122Y427446D01*
X273142Y427426D01*
X273152Y427406D01*
X273172Y427386D01*
X273182Y427366D01*
X273202Y427346D01*
X273212Y427316D01*
X273222Y427296D01*
X273232Y427266D01*
Y427246D01*
X273242Y427216D01*
Y427196D01*
X273252Y427166D01*
Y420666D01*
X273242Y420636D01*
Y420616D01*
X273232Y420586D01*
Y420566D01*
X273222Y420536D01*
X273212Y420516D01*
X273202Y420486D01*
X273182Y420466D01*
X273172Y420446D01*
X273152Y420426D01*
X273142Y420406D01*
X273122Y420386D01*
X273102Y420366D01*
X273082Y420346D01*
X273062Y420326D01*
X273042Y420316D01*
X273022Y420296D01*
X273002Y420286D01*
X272982Y420266D01*
X272952Y420256D01*
X272932Y420246D01*
X272902Y420236D01*
X272882D01*
X272852Y420226D01*
X272832D01*
X272802Y420216D01*
X269902D01*
X269872Y420226D01*
X269852D01*
X269822Y420236D01*
X269802D01*
X269772Y420246D01*
X269752Y420256D01*
X269722Y420266D01*
X269702Y420286D01*
X269682Y420296D01*
X269662Y420316D01*
X269642Y420326D01*
X269622Y420346D01*
X269602Y420366D01*
X269582Y420386D01*
X269562Y420406D01*
X269552Y420426D01*
X269532Y420446D01*
X269522Y420466D01*
X269502Y420486D01*
X269492Y420516D01*
X269482Y420536D01*
X269472Y420566D01*
Y420586D01*
X269462Y420616D01*
Y420636D01*
X269452Y420666D01*
Y427166D01*
X269462Y427196D01*
Y427216D01*
X269472Y427246D01*
Y427266D01*
X269482Y427296D01*
X269492Y427316D01*
X269502Y427346D01*
X269522Y427366D01*
X269532Y427386D01*
X269552Y427406D01*
X269562Y427426D01*
X269582Y427446D01*
X269602Y427466D01*
X269622Y427486D01*
X269642Y427506D01*
X269662Y427516D01*
X269682Y427536D01*
X269702Y427546D01*
X269722Y427566D01*
X269752Y427576D01*
X269772Y427586D01*
X269802Y427596D01*
X269822D01*
X269852Y427606D01*
X269872D01*
X269902Y427616D01*
X272802D01*
X272832Y427606D01*
D02*
G37*
G36*
X267832D02*
X267852D01*
X267882Y427596D01*
X267902D01*
X267932Y427586D01*
X267952Y427576D01*
X267982Y427566D01*
X268002Y427546D01*
X268022Y427536D01*
X268042Y427516D01*
X268062Y427506D01*
X268082Y427486D01*
X268102Y427466D01*
X268122Y427446D01*
X268142Y427426D01*
X268152Y427406D01*
X268172Y427386D01*
X268182Y427366D01*
X268202Y427346D01*
X268212Y427316D01*
X268222Y427296D01*
X268232Y427266D01*
Y427246D01*
X268242Y427216D01*
Y427196D01*
X268252Y427166D01*
Y420666D01*
X268242Y420636D01*
Y420616D01*
X268232Y420586D01*
Y420566D01*
X268222Y420536D01*
X268212Y420516D01*
X268202Y420486D01*
X268182Y420466D01*
X268172Y420446D01*
X268152Y420426D01*
X268142Y420406D01*
X268122Y420386D01*
X268102Y420366D01*
X268082Y420346D01*
X268062Y420326D01*
X268042Y420316D01*
X268022Y420296D01*
X268002Y420286D01*
X267982Y420266D01*
X267952Y420256D01*
X267932Y420246D01*
X267902Y420236D01*
X267882D01*
X267852Y420226D01*
X267832D01*
X267802Y420216D01*
X264902D01*
X264872Y420226D01*
X264852D01*
X264822Y420236D01*
X264802D01*
X264772Y420246D01*
X264752Y420256D01*
X264722Y420266D01*
X264702Y420286D01*
X264682Y420296D01*
X264662Y420316D01*
X264642Y420326D01*
X264622Y420346D01*
X264602Y420366D01*
X264582Y420386D01*
X264562Y420406D01*
X264552Y420426D01*
X264532Y420446D01*
X264522Y420466D01*
X264502Y420486D01*
X264492Y420516D01*
X264482Y420536D01*
X264472Y420566D01*
Y420586D01*
X264462Y420616D01*
Y420636D01*
X264452Y420666D01*
Y427166D01*
X264462Y427196D01*
Y427216D01*
X264472Y427246D01*
Y427266D01*
X264482Y427296D01*
X264492Y427316D01*
X264502Y427346D01*
X264522Y427366D01*
X264532Y427386D01*
X264552Y427406D01*
X264562Y427426D01*
X264582Y427446D01*
X264602Y427466D01*
X264622Y427486D01*
X264642Y427506D01*
X264662Y427516D01*
X264682Y427536D01*
X264702Y427546D01*
X264722Y427566D01*
X264752Y427576D01*
X264772Y427586D01*
X264802Y427596D01*
X264822D01*
X264852Y427606D01*
X264872D01*
X264902Y427616D01*
X267802D01*
X267832Y427606D01*
D02*
G37*
G36*
X296132Y419306D02*
X296152D01*
X296182Y419296D01*
X296202D01*
X296232Y419286D01*
X296252Y419276D01*
X296282Y419266D01*
X296302Y419246D01*
X296322Y419236D01*
X296342Y419216D01*
X296362Y419206D01*
X296382Y419186D01*
X296402Y419166D01*
X296422Y419146D01*
X296442Y419126D01*
X296452Y419106D01*
X296472Y419086D01*
X296482Y419066D01*
X296502Y419046D01*
X296512Y419016D01*
X296522Y418996D01*
X296532Y418966D01*
Y418946D01*
X296542Y418916D01*
Y418896D01*
X296552Y418866D01*
Y415966D01*
X296542Y415936D01*
Y415916D01*
X296532Y415886D01*
Y415866D01*
X296522Y415836D01*
X296512Y415816D01*
X296502Y415786D01*
X296482Y415766D01*
X296472Y415746D01*
X296452Y415726D01*
X296442Y415706D01*
X296422Y415686D01*
X296402Y415666D01*
X296382Y415646D01*
X296362Y415626D01*
X296342Y415616D01*
X296322Y415596D01*
X296302Y415586D01*
X296282Y415566D01*
X296252Y415556D01*
X296232Y415546D01*
X296202Y415536D01*
X296182D01*
X296152Y415526D01*
X296132D01*
X296102Y415516D01*
X289602D01*
X289572Y415526D01*
X289552D01*
X289522Y415536D01*
X289502D01*
X289472Y415546D01*
X289452Y415556D01*
X289422Y415566D01*
X289402Y415586D01*
X289382Y415596D01*
X289362Y415616D01*
X289342Y415626D01*
X289322Y415646D01*
X289302Y415666D01*
X289282Y415686D01*
X289262Y415706D01*
X289252Y415726D01*
X289232Y415746D01*
X289222Y415766D01*
X289202Y415786D01*
X289192Y415816D01*
X289182Y415836D01*
X289172Y415866D01*
Y415886D01*
X289162Y415916D01*
Y415936D01*
X289152Y415966D01*
Y418866D01*
X289162Y418896D01*
Y418916D01*
X289172Y418946D01*
Y418966D01*
X289182Y418996D01*
X289192Y419016D01*
X289202Y419046D01*
X289222Y419066D01*
X289232Y419086D01*
X289252Y419106D01*
X289262Y419126D01*
X289282Y419146D01*
X289302Y419166D01*
X289322Y419186D01*
X289342Y419206D01*
X289362Y419216D01*
X289382Y419236D01*
X289402Y419246D01*
X289422Y419266D01*
X289452Y419276D01*
X289472Y419286D01*
X289502Y419296D01*
X289522D01*
X289552Y419306D01*
X289572D01*
X289602Y419316D01*
X296102D01*
X296132Y419306D01*
D02*
G37*
G36*
X263132D02*
X263152D01*
X263182Y419296D01*
X263202D01*
X263232Y419286D01*
X263252Y419276D01*
X263282Y419266D01*
X263302Y419246D01*
X263322Y419236D01*
X263342Y419216D01*
X263362Y419206D01*
X263382Y419186D01*
X263402Y419166D01*
X263422Y419146D01*
X263442Y419126D01*
X263452Y419106D01*
X263472Y419086D01*
X263482Y419066D01*
X263502Y419046D01*
X263512Y419016D01*
X263522Y418996D01*
X263532Y418966D01*
Y418946D01*
X263542Y418916D01*
Y418896D01*
X263552Y418866D01*
Y415966D01*
X263542Y415936D01*
Y415916D01*
X263532Y415886D01*
Y415866D01*
X263522Y415836D01*
X263512Y415816D01*
X263502Y415786D01*
X263482Y415766D01*
X263472Y415746D01*
X263452Y415726D01*
X263442Y415706D01*
X263422Y415686D01*
X263402Y415666D01*
X263382Y415646D01*
X263362Y415626D01*
X263342Y415616D01*
X263322Y415596D01*
X263302Y415586D01*
X263282Y415566D01*
X263252Y415556D01*
X263232Y415546D01*
X263202Y415536D01*
X263182D01*
X263152Y415526D01*
X263132D01*
X263102Y415516D01*
X256602D01*
X256572Y415526D01*
X256552D01*
X256522Y415536D01*
X256502D01*
X256472Y415546D01*
X256452Y415556D01*
X256422Y415566D01*
X256402Y415586D01*
X256382Y415596D01*
X256362Y415616D01*
X256342Y415626D01*
X256322Y415646D01*
X256302Y415666D01*
X256282Y415686D01*
X256262Y415706D01*
X256252Y415726D01*
X256232Y415746D01*
X256222Y415766D01*
X256202Y415786D01*
X256192Y415816D01*
X256182Y415836D01*
X256172Y415866D01*
Y415886D01*
X256162Y415916D01*
Y415936D01*
X256152Y415966D01*
Y418866D01*
X256162Y418896D01*
Y418916D01*
X256172Y418946D01*
Y418966D01*
X256182Y418996D01*
X256192Y419016D01*
X256202Y419046D01*
X256222Y419066D01*
X256232Y419086D01*
X256252Y419106D01*
X256262Y419126D01*
X256282Y419146D01*
X256302Y419166D01*
X256322Y419186D01*
X256342Y419206D01*
X256362Y419216D01*
X256382Y419236D01*
X256402Y419246D01*
X256422Y419266D01*
X256452Y419276D01*
X256472Y419286D01*
X256502Y419296D01*
X256522D01*
X256552Y419306D01*
X256572D01*
X256602Y419316D01*
X263102D01*
X263132Y419306D01*
D02*
G37*
G36*
X296132Y414306D02*
X296152D01*
X296182Y414296D01*
X296202D01*
X296232Y414286D01*
X296252Y414276D01*
X296282Y414266D01*
X296302Y414246D01*
X296322Y414236D01*
X296342Y414216D01*
X296362Y414206D01*
X296382Y414186D01*
X296402Y414166D01*
X296422Y414146D01*
X296442Y414126D01*
X296452Y414106D01*
X296472Y414086D01*
X296482Y414066D01*
X296502Y414046D01*
X296512Y414016D01*
X296522Y413996D01*
X296532Y413966D01*
Y413946D01*
X296542Y413916D01*
Y413896D01*
X296552Y413866D01*
Y410966D01*
X296542Y410936D01*
Y410916D01*
X296532Y410886D01*
Y410866D01*
X296522Y410836D01*
X296512Y410816D01*
X296502Y410786D01*
X296482Y410766D01*
X296472Y410746D01*
X296452Y410726D01*
X296442Y410706D01*
X296422Y410686D01*
X296402Y410666D01*
X296382Y410646D01*
X296362Y410626D01*
X296342Y410616D01*
X296322Y410596D01*
X296302Y410586D01*
X296282Y410566D01*
X296252Y410556D01*
X296232Y410546D01*
X296202Y410536D01*
X296182D01*
X296152Y410526D01*
X296132D01*
X296102Y410516D01*
X289602D01*
X289572Y410526D01*
X289552D01*
X289522Y410536D01*
X289502D01*
X289472Y410546D01*
X289452Y410556D01*
X289422Y410566D01*
X289402Y410586D01*
X289382Y410596D01*
X289362Y410616D01*
X289342Y410626D01*
X289322Y410646D01*
X289302Y410666D01*
X289282Y410686D01*
X289262Y410706D01*
X289252Y410726D01*
X289232Y410746D01*
X289222Y410766D01*
X289202Y410786D01*
X289192Y410816D01*
X289182Y410836D01*
X289172Y410866D01*
Y410886D01*
X289162Y410916D01*
Y410936D01*
X289152Y410966D01*
Y413866D01*
X289162Y413896D01*
Y413916D01*
X289172Y413946D01*
Y413966D01*
X289182Y413996D01*
X289192Y414016D01*
X289202Y414046D01*
X289222Y414066D01*
X289232Y414086D01*
X289252Y414106D01*
X289262Y414126D01*
X289282Y414146D01*
X289302Y414166D01*
X289322Y414186D01*
X289342Y414206D01*
X289362Y414216D01*
X289382Y414236D01*
X289402Y414246D01*
X289422Y414266D01*
X289452Y414276D01*
X289472Y414286D01*
X289502Y414296D01*
X289522D01*
X289552Y414306D01*
X289572D01*
X289602Y414316D01*
X296102D01*
X296132Y414306D01*
D02*
G37*
G36*
X263132D02*
X263152D01*
X263182Y414296D01*
X263202D01*
X263232Y414286D01*
X263252Y414276D01*
X263282Y414266D01*
X263302Y414246D01*
X263322Y414236D01*
X263342Y414216D01*
X263362Y414206D01*
X263382Y414186D01*
X263402Y414166D01*
X263422Y414146D01*
X263442Y414126D01*
X263452Y414106D01*
X263472Y414086D01*
X263482Y414066D01*
X263502Y414046D01*
X263512Y414016D01*
X263522Y413996D01*
X263532Y413966D01*
Y413946D01*
X263542Y413916D01*
Y413896D01*
X263552Y413866D01*
Y410966D01*
X263542Y410936D01*
Y410916D01*
X263532Y410886D01*
Y410866D01*
X263522Y410836D01*
X263512Y410816D01*
X263502Y410786D01*
X263482Y410766D01*
X263472Y410746D01*
X263452Y410726D01*
X263442Y410706D01*
X263422Y410686D01*
X263402Y410666D01*
X263382Y410646D01*
X263362Y410626D01*
X263342Y410616D01*
X263322Y410596D01*
X263302Y410586D01*
X263282Y410566D01*
X263252Y410556D01*
X263232Y410546D01*
X263202Y410536D01*
X263182D01*
X263152Y410526D01*
X263132D01*
X263102Y410516D01*
X256602D01*
X256572Y410526D01*
X256552D01*
X256522Y410536D01*
X256502D01*
X256472Y410546D01*
X256452Y410556D01*
X256422Y410566D01*
X256402Y410586D01*
X256382Y410596D01*
X256362Y410616D01*
X256342Y410626D01*
X256322Y410646D01*
X256302Y410666D01*
X256282Y410686D01*
X256262Y410706D01*
X256252Y410726D01*
X256232Y410746D01*
X256222Y410766D01*
X256202Y410786D01*
X256192Y410816D01*
X256182Y410836D01*
X256172Y410866D01*
Y410886D01*
X256162Y410916D01*
Y410936D01*
X256152Y410966D01*
Y413866D01*
X256162Y413896D01*
Y413916D01*
X256172Y413946D01*
Y413966D01*
X256182Y413996D01*
X256192Y414016D01*
X256202Y414046D01*
X256222Y414066D01*
X256232Y414086D01*
X256252Y414106D01*
X256262Y414126D01*
X256282Y414146D01*
X256302Y414166D01*
X256322Y414186D01*
X256342Y414206D01*
X256362Y414216D01*
X256382Y414236D01*
X256402Y414246D01*
X256422Y414266D01*
X256452Y414276D01*
X256472Y414286D01*
X256502Y414296D01*
X256522D01*
X256552Y414306D01*
X256572D01*
X256602Y414316D01*
X263102D01*
X263132Y414306D01*
D02*
G37*
G36*
X296132Y409306D02*
X296152D01*
X296182Y409296D01*
X296202D01*
X296232Y409286D01*
X296252Y409276D01*
X296282Y409266D01*
X296302Y409246D01*
X296322Y409236D01*
X296342Y409216D01*
X296362Y409206D01*
X296382Y409186D01*
X296402Y409166D01*
X296422Y409146D01*
X296442Y409126D01*
X296452Y409106D01*
X296472Y409086D01*
X296482Y409066D01*
X296502Y409046D01*
X296512Y409016D01*
X296522Y408996D01*
X296532Y408966D01*
Y408946D01*
X296542Y408916D01*
Y408896D01*
X296552Y408866D01*
Y405966D01*
X296542Y405936D01*
Y405916D01*
X296532Y405886D01*
Y405866D01*
X296522Y405836D01*
X296512Y405816D01*
X296502Y405786D01*
X296482Y405766D01*
X296472Y405746D01*
X296452Y405726D01*
X296442Y405706D01*
X296422Y405686D01*
X296402Y405666D01*
X296382Y405646D01*
X296362Y405626D01*
X296342Y405616D01*
X296322Y405596D01*
X296302Y405586D01*
X296282Y405566D01*
X296252Y405556D01*
X296232Y405546D01*
X296202Y405536D01*
X296182D01*
X296152Y405526D01*
X296132D01*
X296102Y405516D01*
X289602D01*
X289572Y405526D01*
X289552D01*
X289522Y405536D01*
X289502D01*
X289472Y405546D01*
X289452Y405556D01*
X289422Y405566D01*
X289402Y405586D01*
X289382Y405596D01*
X289362Y405616D01*
X289342Y405626D01*
X289322Y405646D01*
X289302Y405666D01*
X289282Y405686D01*
X289262Y405706D01*
X289252Y405726D01*
X289232Y405746D01*
X289222Y405766D01*
X289202Y405786D01*
X289192Y405816D01*
X289182Y405836D01*
X289172Y405866D01*
Y405886D01*
X289162Y405916D01*
Y405936D01*
X289152Y405966D01*
Y408866D01*
X289162Y408896D01*
Y408916D01*
X289172Y408946D01*
Y408966D01*
X289182Y408996D01*
X289192Y409016D01*
X289202Y409046D01*
X289222Y409066D01*
X289232Y409086D01*
X289252Y409106D01*
X289262Y409126D01*
X289282Y409146D01*
X289302Y409166D01*
X289322Y409186D01*
X289342Y409206D01*
X289362Y409216D01*
X289382Y409236D01*
X289402Y409246D01*
X289422Y409266D01*
X289452Y409276D01*
X289472Y409286D01*
X289502Y409296D01*
X289522D01*
X289552Y409306D01*
X289572D01*
X289602Y409316D01*
X296102D01*
X296132Y409306D01*
D02*
G37*
G36*
X263132D02*
X263152D01*
X263182Y409296D01*
X263202D01*
X263232Y409286D01*
X263252Y409276D01*
X263282Y409266D01*
X263302Y409246D01*
X263322Y409236D01*
X263342Y409216D01*
X263362Y409206D01*
X263382Y409186D01*
X263402Y409166D01*
X263422Y409146D01*
X263442Y409126D01*
X263452Y409106D01*
X263472Y409086D01*
X263482Y409066D01*
X263502Y409046D01*
X263512Y409016D01*
X263522Y408996D01*
X263532Y408966D01*
Y408946D01*
X263542Y408916D01*
Y408896D01*
X263552Y408866D01*
Y405966D01*
X263542Y405936D01*
Y405916D01*
X263532Y405886D01*
Y405866D01*
X263522Y405836D01*
X263512Y405816D01*
X263502Y405786D01*
X263482Y405766D01*
X263472Y405746D01*
X263452Y405726D01*
X263442Y405706D01*
X263422Y405686D01*
X263402Y405666D01*
X263382Y405646D01*
X263362Y405626D01*
X263342Y405616D01*
X263322Y405596D01*
X263302Y405586D01*
X263282Y405566D01*
X263252Y405556D01*
X263232Y405546D01*
X263202Y405536D01*
X263182D01*
X263152Y405526D01*
X263132D01*
X263102Y405516D01*
X256602D01*
X256572Y405526D01*
X256552D01*
X256522Y405536D01*
X256502D01*
X256472Y405546D01*
X256452Y405556D01*
X256422Y405566D01*
X256402Y405586D01*
X256382Y405596D01*
X256362Y405616D01*
X256342Y405626D01*
X256322Y405646D01*
X256302Y405666D01*
X256282Y405686D01*
X256262Y405706D01*
X256252Y405726D01*
X256232Y405746D01*
X256222Y405766D01*
X256202Y405786D01*
X256192Y405816D01*
X256182Y405836D01*
X256172Y405866D01*
Y405886D01*
X256162Y405916D01*
Y405936D01*
X256152Y405966D01*
Y408866D01*
X256162Y408896D01*
Y408916D01*
X256172Y408946D01*
Y408966D01*
X256182Y408996D01*
X256192Y409016D01*
X256202Y409046D01*
X256222Y409066D01*
X256232Y409086D01*
X256252Y409106D01*
X256262Y409126D01*
X256282Y409146D01*
X256302Y409166D01*
X256322Y409186D01*
X256342Y409206D01*
X256362Y409216D01*
X256382Y409236D01*
X256402Y409246D01*
X256422Y409266D01*
X256452Y409276D01*
X256472Y409286D01*
X256502Y409296D01*
X256522D01*
X256552Y409306D01*
X256572D01*
X256602Y409316D01*
X263102D01*
X263132Y409306D01*
D02*
G37*
G36*
X296132Y404306D02*
X296152D01*
X296182Y404296D01*
X296202D01*
X296232Y404286D01*
X296252Y404276D01*
X296282Y404266D01*
X296302Y404246D01*
X296322Y404236D01*
X296342Y404216D01*
X296362Y404206D01*
X296382Y404186D01*
X296402Y404166D01*
X296422Y404146D01*
X296442Y404126D01*
X296452Y404106D01*
X296472Y404086D01*
X296482Y404066D01*
X296502Y404046D01*
X296512Y404016D01*
X296522Y403996D01*
X296532Y403966D01*
Y403946D01*
X296542Y403916D01*
Y403896D01*
X296552Y403866D01*
Y400966D01*
X296542Y400936D01*
Y400916D01*
X296532Y400886D01*
Y400866D01*
X296522Y400836D01*
X296512Y400816D01*
X296502Y400786D01*
X296482Y400766D01*
X296472Y400746D01*
X296452Y400726D01*
X296442Y400706D01*
X296422Y400686D01*
X296402Y400666D01*
X296382Y400646D01*
X296362Y400626D01*
X296342Y400616D01*
X296322Y400596D01*
X296302Y400586D01*
X296282Y400566D01*
X296252Y400556D01*
X296232Y400546D01*
X296202Y400536D01*
X296182D01*
X296152Y400526D01*
X296132D01*
X296102Y400516D01*
X289602D01*
X289572Y400526D01*
X289552D01*
X289522Y400536D01*
X289502D01*
X289472Y400546D01*
X289452Y400556D01*
X289422Y400566D01*
X289402Y400586D01*
X289382Y400596D01*
X289362Y400616D01*
X289342Y400626D01*
X289322Y400646D01*
X289302Y400666D01*
X289282Y400686D01*
X289262Y400706D01*
X289252Y400726D01*
X289232Y400746D01*
X289222Y400766D01*
X289202Y400786D01*
X289192Y400816D01*
X289182Y400836D01*
X289172Y400866D01*
Y400886D01*
X289162Y400916D01*
Y400936D01*
X289152Y400966D01*
Y403866D01*
X289162Y403896D01*
Y403916D01*
X289172Y403946D01*
Y403966D01*
X289182Y403996D01*
X289192Y404016D01*
X289202Y404046D01*
X289222Y404066D01*
X289232Y404086D01*
X289252Y404106D01*
X289262Y404126D01*
X289282Y404146D01*
X289302Y404166D01*
X289322Y404186D01*
X289342Y404206D01*
X289362Y404216D01*
X289382Y404236D01*
X289402Y404246D01*
X289422Y404266D01*
X289452Y404276D01*
X289472Y404286D01*
X289502Y404296D01*
X289522D01*
X289552Y404306D01*
X289572D01*
X289602Y404316D01*
X296102D01*
X296132Y404306D01*
D02*
G37*
G36*
X263132D02*
X263152D01*
X263182Y404296D01*
X263202D01*
X263232Y404286D01*
X263252Y404276D01*
X263282Y404266D01*
X263302Y404246D01*
X263322Y404236D01*
X263342Y404216D01*
X263362Y404206D01*
X263382Y404186D01*
X263402Y404166D01*
X263422Y404146D01*
X263442Y404126D01*
X263452Y404106D01*
X263472Y404086D01*
X263482Y404066D01*
X263502Y404046D01*
X263512Y404016D01*
X263522Y403996D01*
X263532Y403966D01*
Y403946D01*
X263542Y403916D01*
Y403896D01*
X263552Y403866D01*
Y400966D01*
X263542Y400936D01*
Y400916D01*
X263532Y400886D01*
Y400866D01*
X263522Y400836D01*
X263512Y400816D01*
X263502Y400786D01*
X263482Y400766D01*
X263472Y400746D01*
X263452Y400726D01*
X263442Y400706D01*
X263422Y400686D01*
X263402Y400666D01*
X263382Y400646D01*
X263362Y400626D01*
X263342Y400616D01*
X263322Y400596D01*
X263302Y400586D01*
X263282Y400566D01*
X263252Y400556D01*
X263232Y400546D01*
X263202Y400536D01*
X263182D01*
X263152Y400526D01*
X263132D01*
X263102Y400516D01*
X256602D01*
X256572Y400526D01*
X256552D01*
X256522Y400536D01*
X256502D01*
X256472Y400546D01*
X256452Y400556D01*
X256422Y400566D01*
X256402Y400586D01*
X256382Y400596D01*
X256362Y400616D01*
X256342Y400626D01*
X256322Y400646D01*
X256302Y400666D01*
X256282Y400686D01*
X256262Y400706D01*
X256252Y400726D01*
X256232Y400746D01*
X256222Y400766D01*
X256202Y400786D01*
X256192Y400816D01*
X256182Y400836D01*
X256172Y400866D01*
Y400886D01*
X256162Y400916D01*
Y400936D01*
X256152Y400966D01*
Y403866D01*
X256162Y403896D01*
Y403916D01*
X256172Y403946D01*
Y403966D01*
X256182Y403996D01*
X256192Y404016D01*
X256202Y404046D01*
X256222Y404066D01*
X256232Y404086D01*
X256252Y404106D01*
X256262Y404126D01*
X256282Y404146D01*
X256302Y404166D01*
X256322Y404186D01*
X256342Y404206D01*
X256362Y404216D01*
X256382Y404236D01*
X256402Y404246D01*
X256422Y404266D01*
X256452Y404276D01*
X256472Y404286D01*
X256502Y404296D01*
X256522D01*
X256552Y404306D01*
X256572D01*
X256602Y404316D01*
X263102D01*
X263132Y404306D01*
D02*
G37*
G36*
X296132Y399306D02*
X296152D01*
X296182Y399296D01*
X296202D01*
X296232Y399286D01*
X296252Y399276D01*
X296282Y399266D01*
X296302Y399246D01*
X296322Y399236D01*
X296342Y399216D01*
X296362Y399206D01*
X296382Y399186D01*
X296402Y399166D01*
X296422Y399146D01*
X296442Y399126D01*
X296452Y399106D01*
X296472Y399086D01*
X296482Y399066D01*
X296502Y399046D01*
X296512Y399016D01*
X296522Y398996D01*
X296532Y398966D01*
Y398946D01*
X296542Y398916D01*
Y398896D01*
X296552Y398866D01*
Y395966D01*
X296542Y395936D01*
Y395916D01*
X296532Y395886D01*
Y395866D01*
X296522Y395836D01*
X296512Y395816D01*
X296502Y395786D01*
X296482Y395766D01*
X296472Y395746D01*
X296452Y395726D01*
X296442Y395706D01*
X296422Y395686D01*
X296402Y395666D01*
X296382Y395646D01*
X296362Y395626D01*
X296342Y395616D01*
X296322Y395596D01*
X296302Y395586D01*
X296282Y395566D01*
X296252Y395556D01*
X296232Y395546D01*
X296202Y395536D01*
X296182D01*
X296152Y395526D01*
X296132D01*
X296102Y395516D01*
X289602D01*
X289572Y395526D01*
X289552D01*
X289522Y395536D01*
X289502D01*
X289472Y395546D01*
X289452Y395556D01*
X289422Y395566D01*
X289402Y395586D01*
X289382Y395596D01*
X289362Y395616D01*
X289342Y395626D01*
X289322Y395646D01*
X289302Y395666D01*
X289282Y395686D01*
X289262Y395706D01*
X289252Y395726D01*
X289232Y395746D01*
X289222Y395766D01*
X289202Y395786D01*
X289192Y395816D01*
X289182Y395836D01*
X289172Y395866D01*
Y395886D01*
X289162Y395916D01*
Y395936D01*
X289152Y395966D01*
Y398866D01*
X289162Y398896D01*
Y398916D01*
X289172Y398946D01*
Y398966D01*
X289182Y398996D01*
X289192Y399016D01*
X289202Y399046D01*
X289222Y399066D01*
X289232Y399086D01*
X289252Y399106D01*
X289262Y399126D01*
X289282Y399146D01*
X289302Y399166D01*
X289322Y399186D01*
X289342Y399206D01*
X289362Y399216D01*
X289382Y399236D01*
X289402Y399246D01*
X289422Y399266D01*
X289452Y399276D01*
X289472Y399286D01*
X289502Y399296D01*
X289522D01*
X289552Y399306D01*
X289572D01*
X289602Y399316D01*
X296102D01*
X296132Y399306D01*
D02*
G37*
G36*
X263132D02*
X263152D01*
X263182Y399296D01*
X263202D01*
X263232Y399286D01*
X263252Y399276D01*
X263282Y399266D01*
X263302Y399246D01*
X263322Y399236D01*
X263342Y399216D01*
X263362Y399206D01*
X263382Y399186D01*
X263402Y399166D01*
X263422Y399146D01*
X263442Y399126D01*
X263452Y399106D01*
X263472Y399086D01*
X263482Y399066D01*
X263502Y399046D01*
X263512Y399016D01*
X263522Y398996D01*
X263532Y398966D01*
Y398946D01*
X263542Y398916D01*
Y398896D01*
X263552Y398866D01*
Y395966D01*
X263542Y395936D01*
Y395916D01*
X263532Y395886D01*
Y395866D01*
X263522Y395836D01*
X263512Y395816D01*
X263502Y395786D01*
X263482Y395766D01*
X263472Y395746D01*
X263452Y395726D01*
X263442Y395706D01*
X263422Y395686D01*
X263402Y395666D01*
X263382Y395646D01*
X263362Y395626D01*
X263342Y395616D01*
X263322Y395596D01*
X263302Y395586D01*
X263282Y395566D01*
X263252Y395556D01*
X263232Y395546D01*
X263202Y395536D01*
X263182D01*
X263152Y395526D01*
X263132D01*
X263102Y395516D01*
X256602D01*
X256572Y395526D01*
X256552D01*
X256522Y395536D01*
X256502D01*
X256472Y395546D01*
X256452Y395556D01*
X256422Y395566D01*
X256402Y395586D01*
X256382Y395596D01*
X256362Y395616D01*
X256342Y395626D01*
X256322Y395646D01*
X256302Y395666D01*
X256282Y395686D01*
X256262Y395706D01*
X256252Y395726D01*
X256232Y395746D01*
X256222Y395766D01*
X256202Y395786D01*
X256192Y395816D01*
X256182Y395836D01*
X256172Y395866D01*
Y395886D01*
X256162Y395916D01*
Y395936D01*
X256152Y395966D01*
Y398866D01*
X256162Y398896D01*
Y398916D01*
X256172Y398946D01*
Y398966D01*
X256182Y398996D01*
X256192Y399016D01*
X256202Y399046D01*
X256222Y399066D01*
X256232Y399086D01*
X256252Y399106D01*
X256262Y399126D01*
X256282Y399146D01*
X256302Y399166D01*
X256322Y399186D01*
X256342Y399206D01*
X256362Y399216D01*
X256382Y399236D01*
X256402Y399246D01*
X256422Y399266D01*
X256452Y399276D01*
X256472Y399286D01*
X256502Y399296D01*
X256522D01*
X256552Y399306D01*
X256572D01*
X256602Y399316D01*
X263102D01*
X263132Y399306D01*
D02*
G37*
G36*
X287832Y394606D02*
X287852D01*
X287882Y394596D01*
X287902D01*
X287932Y394586D01*
X287952Y394576D01*
X287982Y394566D01*
X288002Y394546D01*
X288022Y394536D01*
X288042Y394516D01*
X288062Y394506D01*
X288082Y394486D01*
X288102Y394466D01*
X288122Y394446D01*
X288142Y394426D01*
X288152Y394406D01*
X288172Y394386D01*
X288182Y394366D01*
X288202Y394346D01*
X288212Y394316D01*
X288222Y394296D01*
X288232Y394266D01*
Y394246D01*
X288242Y394216D01*
Y394196D01*
X288252Y394166D01*
Y387666D01*
X288242Y387636D01*
Y387616D01*
X288232Y387586D01*
Y387566D01*
X288222Y387536D01*
X288212Y387516D01*
X288202Y387486D01*
X288182Y387466D01*
X288172Y387446D01*
X288152Y387426D01*
X288142Y387406D01*
X288122Y387386D01*
X288102Y387366D01*
X288082Y387346D01*
X288062Y387326D01*
X288042Y387316D01*
X288022Y387296D01*
X288002Y387286D01*
X287982Y387266D01*
X287952Y387256D01*
X287932Y387246D01*
X287902Y387236D01*
X287882D01*
X287852Y387226D01*
X287832D01*
X287802Y387216D01*
X284902D01*
X284872Y387226D01*
X284852D01*
X284822Y387236D01*
X284802D01*
X284772Y387246D01*
X284752Y387256D01*
X284722Y387266D01*
X284702Y387286D01*
X284682Y387296D01*
X284662Y387316D01*
X284642Y387326D01*
X284622Y387346D01*
X284602Y387366D01*
X284582Y387386D01*
X284562Y387406D01*
X284552Y387426D01*
X284532Y387446D01*
X284522Y387466D01*
X284502Y387486D01*
X284492Y387516D01*
X284482Y387536D01*
X284472Y387566D01*
Y387586D01*
X284462Y387616D01*
Y387636D01*
X284452Y387666D01*
Y394166D01*
X284462Y394196D01*
Y394216D01*
X284472Y394246D01*
Y394266D01*
X284482Y394296D01*
X284492Y394316D01*
X284502Y394346D01*
X284522Y394366D01*
X284532Y394386D01*
X284552Y394406D01*
X284562Y394426D01*
X284582Y394446D01*
X284602Y394466D01*
X284622Y394486D01*
X284642Y394506D01*
X284662Y394516D01*
X284682Y394536D01*
X284702Y394546D01*
X284722Y394566D01*
X284752Y394576D01*
X284772Y394586D01*
X284802Y394596D01*
X284822D01*
X284852Y394606D01*
X284872D01*
X284902Y394616D01*
X287802D01*
X287832Y394606D01*
D02*
G37*
G36*
X282832D02*
X282852D01*
X282882Y394596D01*
X282902D01*
X282932Y394586D01*
X282952Y394576D01*
X282982Y394566D01*
X283002Y394546D01*
X283022Y394536D01*
X283042Y394516D01*
X283062Y394506D01*
X283082Y394486D01*
X283102Y394466D01*
X283122Y394446D01*
X283142Y394426D01*
X283152Y394406D01*
X283172Y394386D01*
X283182Y394366D01*
X283202Y394346D01*
X283212Y394316D01*
X283222Y394296D01*
X283232Y394266D01*
Y394246D01*
X283242Y394216D01*
Y394196D01*
X283252Y394166D01*
Y387666D01*
X283242Y387636D01*
Y387616D01*
X283232Y387586D01*
Y387566D01*
X283222Y387536D01*
X283212Y387516D01*
X283202Y387486D01*
X283182Y387466D01*
X283172Y387446D01*
X283152Y387426D01*
X283142Y387406D01*
X283122Y387386D01*
X283102Y387366D01*
X283082Y387346D01*
X283062Y387326D01*
X283042Y387316D01*
X283022Y387296D01*
X283002Y387286D01*
X282982Y387266D01*
X282952Y387256D01*
X282932Y387246D01*
X282902Y387236D01*
X282882D01*
X282852Y387226D01*
X282832D01*
X282802Y387216D01*
X279902D01*
X279872Y387226D01*
X279852D01*
X279822Y387236D01*
X279802D01*
X279772Y387246D01*
X279752Y387256D01*
X279722Y387266D01*
X279702Y387286D01*
X279682Y387296D01*
X279662Y387316D01*
X279642Y387326D01*
X279622Y387346D01*
X279602Y387366D01*
X279582Y387386D01*
X279562Y387406D01*
X279552Y387426D01*
X279532Y387446D01*
X279522Y387466D01*
X279502Y387486D01*
X279492Y387516D01*
X279482Y387536D01*
X279472Y387566D01*
Y387586D01*
X279462Y387616D01*
Y387636D01*
X279452Y387666D01*
Y394166D01*
X279462Y394196D01*
Y394216D01*
X279472Y394246D01*
Y394266D01*
X279482Y394296D01*
X279492Y394316D01*
X279502Y394346D01*
X279522Y394366D01*
X279532Y394386D01*
X279552Y394406D01*
X279562Y394426D01*
X279582Y394446D01*
X279602Y394466D01*
X279622Y394486D01*
X279642Y394506D01*
X279662Y394516D01*
X279682Y394536D01*
X279702Y394546D01*
X279722Y394566D01*
X279752Y394576D01*
X279772Y394586D01*
X279802Y394596D01*
X279822D01*
X279852Y394606D01*
X279872D01*
X279902Y394616D01*
X282802D01*
X282832Y394606D01*
D02*
G37*
G36*
X277832D02*
X277852D01*
X277882Y394596D01*
X277902D01*
X277932Y394586D01*
X277952Y394576D01*
X277982Y394566D01*
X278002Y394546D01*
X278022Y394536D01*
X278042Y394516D01*
X278062Y394506D01*
X278082Y394486D01*
X278102Y394466D01*
X278122Y394446D01*
X278142Y394426D01*
X278152Y394406D01*
X278172Y394386D01*
X278182Y394366D01*
X278202Y394346D01*
X278212Y394316D01*
X278222Y394296D01*
X278232Y394266D01*
Y394246D01*
X278242Y394216D01*
Y394196D01*
X278252Y394166D01*
Y387666D01*
X278242Y387636D01*
Y387616D01*
X278232Y387586D01*
Y387566D01*
X278222Y387536D01*
X278212Y387516D01*
X278202Y387486D01*
X278182Y387466D01*
X278172Y387446D01*
X278152Y387426D01*
X278142Y387406D01*
X278122Y387386D01*
X278102Y387366D01*
X278082Y387346D01*
X278062Y387326D01*
X278042Y387316D01*
X278022Y387296D01*
X278002Y387286D01*
X277982Y387266D01*
X277952Y387256D01*
X277932Y387246D01*
X277902Y387236D01*
X277882D01*
X277852Y387226D01*
X277832D01*
X277802Y387216D01*
X274902D01*
X274872Y387226D01*
X274852D01*
X274822Y387236D01*
X274802D01*
X274772Y387246D01*
X274752Y387256D01*
X274722Y387266D01*
X274702Y387286D01*
X274682Y387296D01*
X274662Y387316D01*
X274642Y387326D01*
X274622Y387346D01*
X274602Y387366D01*
X274582Y387386D01*
X274562Y387406D01*
X274552Y387426D01*
X274532Y387446D01*
X274522Y387466D01*
X274502Y387486D01*
X274492Y387516D01*
X274482Y387536D01*
X274472Y387566D01*
Y387586D01*
X274462Y387616D01*
Y387636D01*
X274452Y387666D01*
Y394166D01*
X274462Y394196D01*
Y394216D01*
X274472Y394246D01*
Y394266D01*
X274482Y394296D01*
X274492Y394316D01*
X274502Y394346D01*
X274522Y394366D01*
X274532Y394386D01*
X274552Y394406D01*
X274562Y394426D01*
X274582Y394446D01*
X274602Y394466D01*
X274622Y394486D01*
X274642Y394506D01*
X274662Y394516D01*
X274682Y394536D01*
X274702Y394546D01*
X274722Y394566D01*
X274752Y394576D01*
X274772Y394586D01*
X274802Y394596D01*
X274822D01*
X274852Y394606D01*
X274872D01*
X274902Y394616D01*
X277802D01*
X277832Y394606D01*
D02*
G37*
G36*
X272832D02*
X272852D01*
X272882Y394596D01*
X272902D01*
X272932Y394586D01*
X272952Y394576D01*
X272982Y394566D01*
X273002Y394546D01*
X273022Y394536D01*
X273042Y394516D01*
X273062Y394506D01*
X273082Y394486D01*
X273102Y394466D01*
X273122Y394446D01*
X273142Y394426D01*
X273152Y394406D01*
X273172Y394386D01*
X273182Y394366D01*
X273202Y394346D01*
X273212Y394316D01*
X273222Y394296D01*
X273232Y394266D01*
Y394246D01*
X273242Y394216D01*
Y394196D01*
X273252Y394166D01*
Y387666D01*
X273242Y387636D01*
Y387616D01*
X273232Y387586D01*
Y387566D01*
X273222Y387536D01*
X273212Y387516D01*
X273202Y387486D01*
X273182Y387466D01*
X273172Y387446D01*
X273152Y387426D01*
X273142Y387406D01*
X273122Y387386D01*
X273102Y387366D01*
X273082Y387346D01*
X273062Y387326D01*
X273042Y387316D01*
X273022Y387296D01*
X273002Y387286D01*
X272982Y387266D01*
X272952Y387256D01*
X272932Y387246D01*
X272902Y387236D01*
X272882D01*
X272852Y387226D01*
X272832D01*
X272802Y387216D01*
X269902D01*
X269872Y387226D01*
X269852D01*
X269822Y387236D01*
X269802D01*
X269772Y387246D01*
X269752Y387256D01*
X269722Y387266D01*
X269702Y387286D01*
X269682Y387296D01*
X269662Y387316D01*
X269642Y387326D01*
X269622Y387346D01*
X269602Y387366D01*
X269582Y387386D01*
X269562Y387406D01*
X269552Y387426D01*
X269532Y387446D01*
X269522Y387466D01*
X269502Y387486D01*
X269492Y387516D01*
X269482Y387536D01*
X269472Y387566D01*
Y387586D01*
X269462Y387616D01*
Y387636D01*
X269452Y387666D01*
Y394166D01*
X269462Y394196D01*
Y394216D01*
X269472Y394246D01*
Y394266D01*
X269482Y394296D01*
X269492Y394316D01*
X269502Y394346D01*
X269522Y394366D01*
X269532Y394386D01*
X269552Y394406D01*
X269562Y394426D01*
X269582Y394446D01*
X269602Y394466D01*
X269622Y394486D01*
X269642Y394506D01*
X269662Y394516D01*
X269682Y394536D01*
X269702Y394546D01*
X269722Y394566D01*
X269752Y394576D01*
X269772Y394586D01*
X269802Y394596D01*
X269822D01*
X269852Y394606D01*
X269872D01*
X269902Y394616D01*
X272802D01*
X272832Y394606D01*
D02*
G37*
G36*
X267832D02*
X267852D01*
X267882Y394596D01*
X267902D01*
X267932Y394586D01*
X267952Y394576D01*
X267982Y394566D01*
X268002Y394546D01*
X268022Y394536D01*
X268042Y394516D01*
X268062Y394506D01*
X268082Y394486D01*
X268102Y394466D01*
X268122Y394446D01*
X268142Y394426D01*
X268152Y394406D01*
X268172Y394386D01*
X268182Y394366D01*
X268202Y394346D01*
X268212Y394316D01*
X268222Y394296D01*
X268232Y394266D01*
Y394246D01*
X268242Y394216D01*
Y394196D01*
X268252Y394166D01*
Y387666D01*
X268242Y387636D01*
Y387616D01*
X268232Y387586D01*
Y387566D01*
X268222Y387536D01*
X268212Y387516D01*
X268202Y387486D01*
X268182Y387466D01*
X268172Y387446D01*
X268152Y387426D01*
X268142Y387406D01*
X268122Y387386D01*
X268102Y387366D01*
X268082Y387346D01*
X268062Y387326D01*
X268042Y387316D01*
X268022Y387296D01*
X268002Y387286D01*
X267982Y387266D01*
X267952Y387256D01*
X267932Y387246D01*
X267902Y387236D01*
X267882D01*
X267852Y387226D01*
X267832D01*
X267802Y387216D01*
X264902D01*
X264872Y387226D01*
X264852D01*
X264822Y387236D01*
X264802D01*
X264772Y387246D01*
X264752Y387256D01*
X264722Y387266D01*
X264702Y387286D01*
X264682Y387296D01*
X264662Y387316D01*
X264642Y387326D01*
X264622Y387346D01*
X264602Y387366D01*
X264582Y387386D01*
X264562Y387406D01*
X264552Y387426D01*
X264532Y387446D01*
X264522Y387466D01*
X264502Y387486D01*
X264492Y387516D01*
X264482Y387536D01*
X264472Y387566D01*
Y387586D01*
X264462Y387616D01*
Y387636D01*
X264452Y387666D01*
Y394166D01*
X264462Y394196D01*
Y394216D01*
X264472Y394246D01*
Y394266D01*
X264482Y394296D01*
X264492Y394316D01*
X264502Y394346D01*
X264522Y394366D01*
X264532Y394386D01*
X264552Y394406D01*
X264562Y394426D01*
X264582Y394446D01*
X264602Y394466D01*
X264622Y394486D01*
X264642Y394506D01*
X264662Y394516D01*
X264682Y394536D01*
X264702Y394546D01*
X264722Y394566D01*
X264752Y394576D01*
X264772Y394586D01*
X264802Y394596D01*
X264822D01*
X264852Y394606D01*
X264872D01*
X264902Y394616D01*
X267802D01*
X267832Y394606D01*
D02*
G37*
D69*
X326161Y790448D02*
D03*
X313411D02*
D03*
Y799084D02*
D03*
X326161D02*
D03*
D82*
X46822Y124460D02*
D03*
X406822D02*
D03*
D83*
X267208Y463944D02*
D03*
X274066Y704710D02*
D03*
X484886Y279514D02*
D03*
X580898Y-328054D02*
D03*
X1088644Y-174384D02*
D03*
X1310640Y-189624D02*
D03*
X1251966Y428892D02*
D03*
X545846Y549910D02*
D03*
X993140Y20942D02*
D03*
X1417957Y170492D02*
D03*
X1622806Y-25260D02*
D03*
X1790192Y170688D02*
D03*
X471424Y-403746D02*
D03*
X451866Y-403492D02*
D03*
X239522Y401346D02*
D03*
X215392Y401206D02*
D03*
X285461Y349644D02*
D03*
X1221994Y209296D02*
D03*
X1223264Y15862D02*
D03*
X1032764Y209804D02*
D03*
X803148Y193802D02*
D03*
X667258Y-648D02*
D03*
X602742Y44424D02*
D03*
X301498Y-127140D02*
D03*
X215392Y-114694D02*
D03*
X859790Y401066D02*
D03*
X682244Y806818D02*
D03*
X708660Y808368D02*
D03*
X345694Y818528D02*
D03*
X208280Y754660D02*
D03*
X187960Y754520D02*
D03*
X260350Y704456D02*
D03*
X223266Y672198D02*
D03*
D84*
X267208Y481444D02*
D03*
X274066Y687210D02*
D03*
X484886Y262014D02*
D03*
X580898Y-345554D02*
D03*
X1088644Y-191884D02*
D03*
X1310640Y-207124D02*
D03*
X1251966Y446392D02*
D03*
X545846Y532410D02*
D03*
X993140Y3442D02*
D03*
X1417957Y152992D02*
D03*
X1622806Y-7760D02*
D03*
X1790192Y188188D02*
D03*
X471424Y-421246D02*
D03*
X451866Y-420992D02*
D03*
X239522Y418846D02*
D03*
X215392Y418706D02*
D03*
X285461Y367144D02*
D03*
X1221994Y191796D02*
D03*
X1223264Y-1638D02*
D03*
X1032764Y192304D02*
D03*
X803148Y211302D02*
D03*
X667258Y-18148D02*
D03*
X602742Y26924D02*
D03*
X301498Y-144640D02*
D03*
X215392Y-132194D02*
D03*
X859790Y383566D02*
D03*
X682244Y789318D02*
D03*
X708660Y825868D02*
D03*
X345694Y836028D02*
D03*
X208280Y772160D02*
D03*
X187960Y772020D02*
D03*
X260350Y686956D02*
D03*
X223266Y654698D02*
D03*
D85*
X260036Y763804D02*
D03*
D86*
X287536Y729454D02*
D03*
X282536D02*
D03*
X277536D02*
D03*
X272536D02*
D03*
X267536D02*
D03*
X262536D02*
D03*
X257536D02*
D03*
X252536D02*
D03*
X247536D02*
D03*
X242536D02*
D03*
X237536D02*
D03*
X232536D02*
D03*
Y798154D02*
D03*
X237536D02*
D03*
X242536D02*
D03*
X247536D02*
D03*
X252536D02*
D03*
X257536D02*
D03*
X262536D02*
D03*
X267536D02*
D03*
X272536D02*
D03*
X277536D02*
D03*
X282536D02*
D03*
X287536D02*
D03*
D87*
X225686Y736304D02*
D03*
Y741304D02*
D03*
Y746304D02*
D03*
Y751304D02*
D03*
Y756304D02*
D03*
Y761304D02*
D03*
Y766304D02*
D03*
Y771304D02*
D03*
Y776304D02*
D03*
Y781304D02*
D03*
Y786304D02*
D03*
Y791304D02*
D03*
X294386D02*
D03*
Y786304D02*
D03*
Y781304D02*
D03*
Y776304D02*
D03*
Y771304D02*
D03*
Y766304D02*
D03*
Y761304D02*
D03*
Y756304D02*
D03*
Y751304D02*
D03*
Y746304D02*
D03*
Y741304D02*
D03*
D88*
Y736304D02*
D03*
D89*
X267970Y818976D02*
D03*
D90*
Y828976D02*
D03*
D91*
X268304Y838454D02*
D03*
D92*
X278304D02*
D03*
D93*
X267970Y865712D02*
D03*
D94*
Y875712D02*
D03*
D95*
X171196Y738506D02*
D03*
X391922Y662050D02*
D03*
X288290Y442596D02*
D03*
X395732Y358904D02*
D03*
X1856486Y793116D02*
D03*
X1622552Y786766D02*
D03*
X1428750Y782702D02*
D03*
X1214120Y785750D02*
D03*
X1012444Y782702D02*
D03*
X840232Y771272D02*
D03*
X626364Y755524D02*
D03*
X207264Y811404D02*
D03*
X96520Y442720D02*
D03*
X86360Y-45210D02*
D03*
D96*
X171196Y754506D02*
D03*
X391922Y646050D02*
D03*
X288290Y458596D02*
D03*
X395732Y374904D02*
D03*
X1856486Y809116D02*
D03*
X1622552Y802766D02*
D03*
X1428750Y798702D02*
D03*
X1214120Y801750D02*
D03*
X1012444Y798702D02*
D03*
X840232Y787272D02*
D03*
X626364Y771524D02*
D03*
X207264Y827404D02*
D03*
X96520Y426720D02*
D03*
X86360Y-29210D02*
D03*
D97*
X273084Y-416394D02*
D03*
X313047Y-536412D02*
D03*
X113707Y-69720D02*
D03*
X153670Y-189738D02*
D03*
X235458Y-362204D02*
D03*
X195495Y-242186D02*
D03*
D98*
X440818Y668782D02*
D03*
X292990Y667766D02*
D03*
X291466Y685546D02*
D03*
X313284Y375898D02*
D03*
X329284Y393974D02*
D03*
Y412050D02*
D03*
Y430127D02*
D03*
X313284Y448203D02*
D03*
X313284Y466279D02*
D03*
X329284Y484356D02*
D03*
X566802Y787146D02*
D03*
X582802Y802894D02*
D03*
X394588Y898906D02*
D03*
X232284Y814832D02*
D03*
X226046Y853988D02*
D03*
X100708Y264454D02*
D03*
X99692Y294172D02*
D03*
D99*
X456818Y668782D02*
D03*
X308990Y667766D02*
D03*
X307466Y685546D02*
D03*
X329284Y375898D02*
D03*
X313284Y393974D02*
D03*
Y412050D02*
D03*
Y430127D02*
D03*
X329284Y448203D02*
D03*
X329284Y466279D02*
D03*
X313284Y484356D02*
D03*
X582802Y787146D02*
D03*
X566802Y802894D02*
D03*
X378588Y898906D02*
D03*
X248284Y814832D02*
D03*
X242046Y853988D02*
D03*
X84708Y264454D02*
D03*
X83692Y294172D02*
D03*
D100*
X560172Y380078D02*
D03*
X541172D02*
D03*
X550672Y360078D02*
D03*
X648564Y-262288D02*
D03*
X629564D02*
D03*
X639064Y-282288D02*
D03*
X937108Y437990D02*
D03*
X918108D02*
D03*
X927608Y417990D02*
D03*
X1309624Y-150208D02*
D03*
X1300124Y-130208D02*
D03*
X1319124D02*
D03*
X1316330Y442562D02*
D03*
X1297330D02*
D03*
X1306830Y422562D02*
D03*
X1505052Y214470D02*
D03*
X1486052D02*
D03*
X1495552Y194470D02*
D03*
X1510132Y-160434D02*
D03*
X1491132D02*
D03*
X1500632Y-180434D02*
D03*
X1692910Y-181704D02*
D03*
X1683410Y-161704D02*
D03*
X1702410D02*
D03*
X1746352Y29812D02*
D03*
X1727352D02*
D03*
X1736852Y9812D02*
D03*
X1737868Y201328D02*
D03*
X1728368Y221328D02*
D03*
X1747368D02*
D03*
X1750162Y408526D02*
D03*
X1731162D02*
D03*
X1740662Y388526D02*
D03*
X1737614Y581820D02*
D03*
X1728114Y601820D02*
D03*
X1747114D02*
D03*
X1510398Y601700D02*
D03*
X1491398D02*
D03*
X1500898Y581700D02*
D03*
X1311414Y612180D02*
D03*
X1301914Y632180D02*
D03*
X1320914D02*
D03*
X1128636Y642594D02*
D03*
X1109636D02*
D03*
X1119136Y622594D02*
D03*
X926604Y612180D02*
D03*
X917104Y632180D02*
D03*
X936104D02*
D03*
X700634Y619346D02*
D03*
X681634D02*
D03*
X691134Y599346D02*
D03*
X926338Y-148430D02*
D03*
X916838Y-128430D02*
D03*
X935838D02*
D03*
X1125322Y-114206D02*
D03*
X1106322D02*
D03*
X1115822Y-134206D02*
D03*
X1117854Y57564D02*
D03*
X1108354Y77564D02*
D03*
X1127354D02*
D03*
X1495298Y5748D02*
D03*
X1485798Y25748D02*
D03*
X1504798D02*
D03*
X461010Y-360012D02*
D03*
X451510Y-340012D02*
D03*
X470510D02*
D03*
X926604Y228386D02*
D03*
X917104Y248386D02*
D03*
X936104D02*
D03*
X1128890Y266420D02*
D03*
X1109890D02*
D03*
X1119390Y246420D02*
D03*
X1311910Y227744D02*
D03*
X1302410Y247744D02*
D03*
X1321410D02*
D03*
X1320140Y62070D02*
D03*
X1301140D02*
D03*
X1310640Y42070D02*
D03*
X735838Y30386D02*
D03*
X726338Y50386D02*
D03*
X745338D02*
D03*
X553212Y94488D02*
D03*
X534212D02*
D03*
X543712Y74488D02*
D03*
X318516Y-231808D02*
D03*
X328016Y-251808D02*
D03*
X309016D02*
D03*
X1502422Y393994D02*
D03*
X1492922Y413994D02*
D03*
X1511922D02*
D03*
X929386Y39022D02*
D03*
X919886Y59022D02*
D03*
X938886D02*
D03*
X733806Y218854D02*
D03*
X724306Y238854D02*
D03*
X743306D02*
D03*
X354432Y-80170D02*
D03*
X335432D02*
D03*
X344932Y-100170D02*
D03*
X1129386Y450182D02*
D03*
X1110386D02*
D03*
X1119886Y430182D02*
D03*
X748132Y431894D02*
D03*
X729132D02*
D03*
X738632Y411894D02*
D03*
X509118Y619346D02*
D03*
X490118D02*
D03*
X499618Y599346D02*
D03*
X400050Y-429608D02*
D03*
X390550Y-409608D02*
D03*
X409550D02*
D03*
X226822Y-52484D02*
D03*
X236322Y-72484D02*
D03*
X217322D02*
D03*
X314604Y250350D02*
D03*
X333604D02*
D03*
X324104Y270350D02*
D03*
D101*
X615426Y167132D02*
D03*
X491506Y192532D02*
D03*
X410956Y-9398D02*
D03*
X287036Y16002D02*
D03*
X532084Y-268496D02*
D03*
X408163Y-243096D02*
D03*
X704580Y-188722D02*
D03*
X580660Y-163322D02*
D03*
X994624Y-59426D02*
D03*
X870704Y-34026D02*
D03*
X1185656Y-42672D02*
D03*
X1061736Y-17272D02*
D03*
X1376410Y-58674D02*
D03*
X1252490Y-33274D02*
D03*
X1804254Y99325D02*
D03*
X1680334Y124725D02*
D03*
X1805416Y481330D02*
D03*
X1681496Y506730D02*
D03*
X1806178Y672338D02*
D03*
X1682258Y697738D02*
D03*
X1569196Y671068D02*
D03*
X1445276Y696468D02*
D03*
X1377424Y704315D02*
D03*
X1253503Y729715D02*
D03*
X1186926Y720344D02*
D03*
X1063006Y745744D02*
D03*
X996426Y704088D02*
D03*
X872506Y729488D02*
D03*
X804122Y689854D02*
D03*
X680202Y715254D02*
D03*
X615172Y453390D02*
D03*
X491252Y478790D02*
D03*
X1632709Y-65777D02*
D03*
X1756629Y-91177D02*
D03*
X1442208Y-65777D02*
D03*
X1566128Y-91177D02*
D03*
X1442208Y124725D02*
D03*
X1566128Y99325D02*
D03*
X1253503Y158211D02*
D03*
X1377424Y132811D02*
D03*
X1062498Y172720D02*
D03*
X1186418Y147320D02*
D03*
X872500Y158211D02*
D03*
X996420Y132811D02*
D03*
X682768Y145796D02*
D03*
X806688Y120396D02*
D03*
X1680334Y315226D02*
D03*
X1804254Y289826D02*
D03*
X1442208Y315226D02*
D03*
X1566128Y289826D02*
D03*
X1251707Y346977D02*
D03*
X1375627Y321577D02*
D03*
X1061205Y362953D02*
D03*
X1185125Y337553D02*
D03*
X870704Y346977D02*
D03*
X994624Y321577D02*
D03*
X680990Y335788D02*
D03*
X804910Y310388D02*
D03*
X1443498Y506730D02*
D03*
X1567418Y481330D02*
D03*
X1253760Y539750D02*
D03*
X1377680Y514350D02*
D03*
X1064022Y554990D02*
D03*
X1187942Y529590D02*
D03*
X872501Y539213D02*
D03*
X996421Y513813D02*
D03*
X681999Y526513D02*
D03*
X805919Y501113D02*
D03*
X491506Y718058D02*
D03*
X615426Y692658D02*
D03*
D102*
X1433290Y548005D02*
D03*
X1231278Y579120D02*
D03*
X1045798Y593543D02*
D03*
X851504Y578481D02*
D03*
X674510Y575564D02*
D03*
X1413650Y-212344D02*
D03*
X1593482Y-209550D02*
D03*
X951598Y-175514D02*
D03*
X1427620Y-25400D02*
D03*
X226708Y688594D02*
D03*
X361302Y767588D02*
D03*
X329044Y777748D02*
D03*
X263994Y349736D02*
D03*
X1187196Y23622D02*
D03*
X846468Y196596D02*
D03*
X377558Y-183896D02*
D03*
X609854Y341122D02*
D03*
X669938Y384556D02*
D03*
X1037222Y406654D02*
D03*
X1426350Y363474D02*
D03*
X1648600Y361950D02*
D03*
X1800466Y622046D02*
D03*
X409394Y896486D02*
D03*
X231026Y828040D02*
D03*
X226454Y870712D02*
D03*
X265544Y643128D02*
D03*
Y661416D02*
D03*
X223914Y708406D02*
D03*
X161240Y579982D02*
D03*
X342298Y750062D02*
D03*
X245458Y885952D02*
D03*
D103*
X1450790Y548005D02*
D03*
X1248778Y579120D02*
D03*
X1063298Y593543D02*
D03*
X869004Y578481D02*
D03*
X692010Y575564D02*
D03*
X1431150Y-212344D02*
D03*
X1610982Y-209550D02*
D03*
X934098Y-175514D02*
D03*
X1445120Y-25400D02*
D03*
X244208Y688594D02*
D03*
X343802Y767588D02*
D03*
X311544Y777748D02*
D03*
X246494Y349736D02*
D03*
X1169696Y23622D02*
D03*
X863968Y196596D02*
D03*
X360058Y-183896D02*
D03*
X592354Y341122D02*
D03*
X687438Y384556D02*
D03*
X1054722Y406654D02*
D03*
X1443850Y363474D02*
D03*
X1666100Y361950D02*
D03*
X1782966Y622046D02*
D03*
X426894Y896486D02*
D03*
X248526Y828040D02*
D03*
X243954Y870712D02*
D03*
X248044Y643128D02*
D03*
Y661416D02*
D03*
X241414Y708406D02*
D03*
X143740Y579982D02*
D03*
X362298Y750062D02*
D03*
X225458Y885952D02*
D03*
D104*
X334264Y192876D02*
D03*
Y210476D02*
D03*
X134366Y801550D02*
D03*
Y819150D02*
D03*
X96520Y516890D02*
D03*
Y499290D02*
D03*
X154432Y521044D02*
D03*
Y538644D02*
D03*
D105*
X417682Y371128D02*
D03*
Y280128D02*
D03*
X462682D02*
D03*
Y371128D02*
D03*
D106*
X589370Y842518D02*
D03*
X606970D02*
D03*
X262196Y620934D02*
D03*
X244596D02*
D03*
X114300Y473710D02*
D03*
X96700D02*
D03*
D107*
X523240Y761746D02*
D03*
X346202Y850900D02*
D03*
X344678Y785368D02*
D03*
X341884Y800100D02*
D03*
X386842Y794766D02*
D03*
X387858Y754380D02*
D03*
X405384Y733044D02*
D03*
X481076Y787654D02*
D03*
X383101Y776224D02*
D03*
X481584Y757936D02*
D03*
X448818Y732282D02*
D03*
X481076Y772668D02*
D03*
X116840Y499110D02*
D03*
X217678Y618744D02*
D03*
X347726Y891032D02*
D03*
X458724Y654812D02*
D03*
X566674Y820166D02*
D03*
X399034Y832358D02*
D03*
X117348Y815340D02*
D03*
X482346Y805942D02*
D03*
X289560Y625856D02*
D03*
X366776Y836168D02*
D03*
X425958Y583692D02*
D03*
X117094Y830072D02*
D03*
X56896Y824484D02*
D03*
X154432Y428244D02*
D03*
X176403Y384175D02*
D03*
X192786Y323596D02*
D03*
X360172Y217170D02*
D03*
D108*
X525780Y800100D02*
D03*
X427482Y614680D02*
D03*
D109*
X540130Y807600D02*
D03*
Y802600D02*
D03*
Y797600D02*
D03*
Y792600D02*
D03*
X511430D02*
D03*
Y797600D02*
D03*
Y802600D02*
D03*
X413132Y617180D02*
D03*
Y612180D02*
D03*
Y607180D02*
D03*
X441832D02*
D03*
Y612180D02*
D03*
Y617180D02*
D03*
Y622180D02*
D03*
D110*
X511430Y807600D02*
D03*
X413132Y622180D02*
D03*
D111*
X518280Y814450D02*
D03*
X523280D02*
D03*
X528280D02*
D03*
X533280D02*
D03*
Y785750D02*
D03*
X528280D02*
D03*
X523280D02*
D03*
X518280D02*
D03*
X419982Y600330D02*
D03*
X424982D02*
D03*
X429982D02*
D03*
X434982D02*
D03*
Y629030D02*
D03*
X429982D02*
D03*
X424982D02*
D03*
X419982D02*
D03*
D112*
X132230Y546276D02*
D03*
X125730D02*
D03*
X119230D02*
D03*
Y568276D02*
D03*
X125730D02*
D03*
X621284Y802816D02*
D03*
X627784D02*
D03*
Y824816D02*
D03*
X621284D02*
D03*
X614784D02*
D03*
D113*
X132230Y568276D02*
D03*
X614784Y802816D02*
D03*
D114*
X411480Y862432D02*
D03*
Y852932D02*
D03*
Y843432D02*
D03*
X435105D02*
D03*
Y852932D02*
D03*
Y862432D02*
D03*
D115*
X454914Y753364D02*
D03*
X414274D02*
D03*
X454914Y766064D02*
D03*
X414274D02*
D03*
X454914Y778764D02*
D03*
X414274D02*
D03*
X454914Y791464D02*
D03*
X414274D02*
D03*
X454914Y804164D02*
D03*
X414274D02*
D03*
D116*
X170766Y831700D02*
D03*
D117*
Y838200D02*
D03*
Y844700D02*
D03*
X148766D02*
D03*
Y838200D02*
D03*
Y831700D02*
D03*
D118*
X204292Y662178D02*
D03*
D119*
X177292D02*
D03*
D120*
X211582Y379806D02*
D03*
D121*
Y352806D02*
D03*
D122*
X88900Y818642D02*
D03*
D123*
X103400Y808642D02*
D03*
Y818642D02*
D03*
X74400Y808642D02*
D03*
Y818642D02*
D03*
X103400Y828642D02*
D03*
D124*
X74400D02*
D03*
D125*
X194818Y716226D02*
D03*
Y741226D02*
D03*
D126*
X240030Y464566D02*
D03*
D127*
Y442566D02*
D03*
D128*
X267970Y847686D02*
D03*
X197866Y854710D02*
D03*
X430276Y651080D02*
D03*
X211328Y333414D02*
D03*
X643636Y809332D02*
D03*
X166624Y559220D02*
D03*
D129*
X267970Y858686D02*
D03*
X197866Y865710D02*
D03*
X430276Y640080D02*
D03*
X211328Y322414D02*
D03*
X643636Y820332D02*
D03*
X166624Y548220D02*
D03*
D130*
X464400Y821182D02*
D03*
X227672Y842772D02*
D03*
D131*
X475400Y821182D02*
D03*
X238672Y842772D02*
D03*
D132*
X279988Y652780D02*
D03*
D133*
X289988D02*
D03*
D134*
X276352Y407416D02*
D03*
D135*
X314072Y750824D02*
D03*
X284862Y485648D02*
D03*
D136*
X330072Y750824D02*
D03*
X300862Y485648D02*
D03*
D137*
X114554Y426594D02*
D03*
D138*
Y442594D02*
D03*
D139*
X68834Y256330D02*
D03*
Y264330D02*
D03*
Y312330D02*
D03*
Y320330D02*
D03*
D140*
Y270830D02*
D03*
Y275830D02*
D03*
Y280830D02*
D03*
Y285830D02*
D03*
Y305830D02*
D03*
Y300830D02*
D03*
Y295830D02*
D03*
Y290830D02*
D03*
D141*
X125880Y268577D02*
D03*
X135380D02*
D03*
X144880D02*
D03*
Y292202D02*
D03*
X135380D02*
D03*
X125880D02*
D03*
D142*
X265370Y780314D02*
D03*
X276546D02*
D03*
Y769392D02*
D03*
X276292Y758724D02*
D03*
Y747548D02*
D03*
X265624D02*
D03*
X265370Y758724D02*
D03*
Y769138D02*
D03*
X254194D02*
D03*
X254448Y758978D02*
D03*
X254194Y747802D02*
D03*
Y780314D02*
D03*
X243526Y780568D02*
D03*
Y769138D02*
D03*
X243272Y758724D02*
D03*
X243018Y747802D02*
D03*
D143*
X333398Y556602D02*
D03*
D144*
X313398D02*
D03*
X293398D02*
D03*
X273398D02*
D03*
X253398D02*
D03*
X233398D02*
D03*
X213398D02*
D03*
X193398D02*
D03*
X136144Y337458D02*
D03*
Y362458D02*
D03*
D145*
X36576Y869950D02*
D03*
X782574Y-330962D02*
D03*
D146*
X297942Y-510249D02*
D03*
X288189Y-442557D02*
D03*
X521716Y192532D02*
D03*
X585216Y167132D02*
D03*
X317246Y16002D02*
D03*
X380746Y-9398D02*
D03*
X138565Y-163575D02*
D03*
X128812Y-95883D02*
D03*
X438373Y-243096D02*
D03*
X501874Y-268496D02*
D03*
X610870Y-163322D02*
D03*
X674370Y-188722D02*
D03*
X900914Y-34026D02*
D03*
X964414Y-59426D02*
D03*
X1091946Y-17272D02*
D03*
X1155446Y-42672D02*
D03*
X1282700Y-33274D02*
D03*
X1346200Y-58674D02*
D03*
X1710544Y124725D02*
D03*
X1774044Y99325D02*
D03*
X1711706Y506730D02*
D03*
X1775206Y481330D02*
D03*
X1712468Y697738D02*
D03*
X1775968Y672338D02*
D03*
X1475486Y696468D02*
D03*
X1538986Y671068D02*
D03*
X1283714Y729715D02*
D03*
X1347213Y704315D02*
D03*
X1093216Y745744D02*
D03*
X1156716Y720344D02*
D03*
X902716Y729488D02*
D03*
X966216Y704088D02*
D03*
X710412Y715254D02*
D03*
X773912Y689854D02*
D03*
X521462Y478790D02*
D03*
X584962Y453390D02*
D03*
X1726419Y-91177D02*
D03*
X1662919Y-65777D02*
D03*
X1535918Y-91177D02*
D03*
X1472418Y-65777D02*
D03*
X1535918Y99325D02*
D03*
X1472418Y124725D02*
D03*
X1347213Y132811D02*
D03*
X1283714Y158211D02*
D03*
X1156208Y147320D02*
D03*
X1092708Y172720D02*
D03*
X966210Y132811D02*
D03*
X902710Y158211D02*
D03*
X776478Y120396D02*
D03*
X712978Y145796D02*
D03*
X1774044Y289826D02*
D03*
X1710544Y315226D02*
D03*
X1535918Y289826D02*
D03*
X1472418Y315226D02*
D03*
X1345417Y321577D02*
D03*
X1281917Y346977D02*
D03*
X1154915Y337553D02*
D03*
X1091415Y362953D02*
D03*
X964414Y321577D02*
D03*
X900914Y346977D02*
D03*
X774700Y310388D02*
D03*
X711200Y335788D02*
D03*
X1537208Y481330D02*
D03*
X1473708Y506730D02*
D03*
X1347470Y514350D02*
D03*
X1283970Y539750D02*
D03*
X1157732Y529590D02*
D03*
X1094232Y554990D02*
D03*
X966210Y513813D02*
D03*
X902710Y539213D02*
D03*
X775709Y501113D02*
D03*
X712209Y526513D02*
D03*
X585216Y692658D02*
D03*
X521716Y718058D02*
D03*
X210600Y-268349D02*
D03*
X220353Y-336041D02*
D03*
D147*
X64662Y608942D02*
D03*
D148*
X114662D02*
D03*
X64662Y753942D02*
D03*
X89662D02*
D03*
X114662D02*
D03*
D149*
X32662Y678942D02*
D03*
X146662D02*
D03*
D150*
X150876Y876046D02*
D03*
D151*
X176276D02*
D03*
D152*
X136144Y387458D02*
D03*
D153*
X21334Y245080D02*
D03*
Y331580D02*
D03*
D154*
X63034Y245080D02*
D03*
Y331580D02*
D03*
D155*
X58134Y259430D02*
D03*
Y317230D02*
D03*
D156*
X47806Y460690D02*
D03*
D157*
Y440690D02*
D03*
Y420690D02*
D03*
X22806Y460690D02*
D03*
Y440690D02*
D03*
Y420690D02*
D03*
D158*
X35306Y490690D02*
D03*
Y390690D02*
D03*
D159*
X242365Y698674D02*
D03*
X232664Y665734D02*
D03*
X294894Y703326D02*
D03*
X306483Y702723D02*
D03*
X293624Y729742D02*
D03*
X454406Y602742D02*
D03*
X453390Y591820D02*
D03*
X452882Y578358D02*
D03*
X305352Y724613D02*
D03*
X344777Y725043D02*
D03*
X138684Y832104D02*
D03*
X34798Y769112D02*
D03*
X125694Y670778D02*
D03*
X144399Y723900D02*
D03*
X105156Y865642D02*
D03*
X153416Y724154D02*
D03*
X125222Y658062D02*
D03*
X220980Y586994D02*
D03*
X157503Y594360D02*
D03*
X146050Y595122D02*
D03*
X1529334Y183642D02*
D03*
X1537208Y199898D02*
D03*
X355854Y-116078D02*
D03*
X1624584Y-209296D02*
D03*
X55372Y769112D02*
D03*
X157608Y822073D02*
D03*
X149098Y821944D02*
D03*
X105156Y849376D02*
D03*
X1747644Y-199006D02*
D03*
M02*
