G04*
G04 #@! TF.GenerationSoftware,Altium Limited,Altium Designer,24.10.1 (45)*
G04*
G04 Layer_Color=65535*
%FSLAX44Y44*%
%MOMM*%
G71*
G04*
G04 #@! TF.SameCoordinates,3551A3A7-0B07-42EA-8A9A-C0D20DE36A30*
G04*
G04*
G04 #@! TF.FilePolarity,Positive*
G04*
G01*
G75*
%ADD10C,0.2500*%
%ADD11C,0.1000*%
%ADD12C,0.2000*%
%ADD13C,0.2540*%
%ADD14C,0.1524*%
%ADD15C,0.3000*%
%ADD16C,0.1270*%
%ADD17C,0.2032*%
%ADD18C,0.2050*%
%ADD19C,0.1016*%
D10*
X303286Y729804D02*
G03*
X303286Y729804I-1250J0D01*
G01*
X140980Y568276D02*
G03*
X140980Y568276I-1250J0D01*
G01*
X172016Y824200D02*
G03*
X172016Y824200I-1250J0D01*
G01*
X608534Y802816D02*
G03*
X608534Y802816I-1250J0D01*
G01*
D11*
X263149Y814055D02*
G03*
X263149Y814055I-500J0D01*
G01*
X263883Y843775D02*
G03*
X263883Y843775I-500J0D01*
G01*
X263149Y860791D02*
G03*
X263149Y860791I-500J0D01*
G01*
X68900Y835142D02*
G03*
X68900Y835142I-500J0D01*
G01*
X295409Y647459D02*
G03*
X295409Y647459I-500J0D01*
G01*
X333572Y743824D02*
G03*
X333572Y743824I-500J0D01*
G01*
X304362Y478648D02*
G03*
X304362Y478648I-500J0D01*
G01*
X122054Y445594D02*
G03*
X122054Y445594I-500J0D01*
G01*
D12*
X334398Y532602D02*
G03*
X334398Y532602I-1000J0D01*
G01*
X416290Y350012D02*
G03*
X416290Y350012I-1000J0D01*
G01*
X502030Y809600D02*
G03*
X502030Y809600I-1000J0D01*
G01*
X403732Y624180D02*
G03*
X403732Y624180I-1000J0D01*
G01*
X267352Y377916D02*
G03*
X267352Y377916I-1000J0D01*
G01*
X82334Y320330D02*
G03*
X82334Y320330I-1000J0D01*
G01*
X71806Y460690D02*
G03*
X71806Y460690I-1000J0D01*
G01*
X261958Y471948D02*
Y473948D01*
X272458Y471948D02*
Y473948D01*
X292836Y799304D02*
X295536D01*
Y796604D02*
Y799304D01*
X224536D02*
X227236D01*
X224536Y796604D02*
Y799304D01*
Y728304D02*
Y731004D01*
Y728304D02*
X227236D01*
X292836D02*
X295536D01*
Y731004D01*
X262720Y822976D02*
Y824976D01*
X273220Y822976D02*
Y824976D01*
X272304Y843704D02*
X274304D01*
X272304Y833204D02*
X274304D01*
X262720Y869712D02*
Y871712D01*
X273220Y869712D02*
Y871712D01*
X279316Y694706D02*
Y696706D01*
X268816Y694706D02*
Y696706D01*
X479636Y269510D02*
Y271510D01*
X490136Y269510D02*
Y271510D01*
X575648Y-338058D02*
Y-336058D01*
X586148Y-338058D02*
Y-336058D01*
X1083394Y-184388D02*
Y-182388D01*
X1093894Y-184388D02*
Y-182388D01*
X1305390Y-199628D02*
Y-197628D01*
X1315890Y-199628D02*
Y-197628D01*
X1257216Y436896D02*
Y438896D01*
X1246716Y436896D02*
Y438896D01*
X1440786Y553255D02*
X1442786D01*
X1440786Y542755D02*
X1442786D01*
X1238774Y584370D02*
X1240774D01*
X1238774Y573870D02*
X1240774D01*
X1053294Y598793D02*
X1055294D01*
X1053294Y588293D02*
X1055294D01*
X859000Y583731D02*
X861000D01*
X859000Y573231D02*
X861000D01*
X682006Y580814D02*
X684006D01*
X682006Y570314D02*
X684006D01*
X540596Y539906D02*
Y541906D01*
X551096Y539906D02*
Y541906D01*
X1421146Y-207094D02*
X1423146D01*
X1421146Y-217594D02*
X1423146D01*
X1600978Y-204300D02*
X1602978D01*
X1600978Y-214800D02*
X1602978D01*
X942102Y-180764D02*
X944102D01*
X942102Y-170264D02*
X944102D01*
X987890Y10938D02*
Y12938D01*
X998390Y10938D02*
Y12938D01*
X1412707Y160487D02*
Y162488D01*
X1423207Y160487D02*
Y162488D01*
X1435116Y-20150D02*
X1437116D01*
X1435116Y-30650D02*
X1437116D01*
X1628056Y-17256D02*
Y-15256D01*
X1617556Y-17256D02*
Y-15256D01*
X1795442Y178692D02*
Y180692D01*
X1784942Y178692D02*
Y180692D01*
X234204Y693844D02*
X236204D01*
X234204Y683344D02*
X236204D01*
X466174Y-413750D02*
Y-411750D01*
X476674Y-413750D02*
Y-411750D01*
X446616Y-413496D02*
Y-411496D01*
X457116Y-413496D02*
Y-411496D01*
X351806Y762338D02*
X353806D01*
X351806Y772838D02*
X353806D01*
X319548Y772498D02*
X321548D01*
X319548Y782998D02*
X321548D01*
X244772Y409350D02*
Y411350D01*
X234272Y409350D02*
Y411350D01*
X220642Y409210D02*
Y411210D01*
X210142Y409210D02*
Y411210D01*
X254498Y344486D02*
X256498D01*
X254498Y354986D02*
X256498D01*
X290711Y357648D02*
Y359648D01*
X280211Y357648D02*
Y359648D01*
X1216744Y199292D02*
Y201292D01*
X1227244Y199292D02*
Y201292D01*
X1218014Y5858D02*
Y7858D01*
X1228514Y5858D02*
Y7858D01*
X1177700Y18372D02*
X1179700D01*
X1177700Y28872D02*
X1179700D01*
X1027514Y199800D02*
Y201800D01*
X1038014Y199800D02*
Y201800D01*
X853964Y201846D02*
X855964D01*
X853964Y191346D02*
X855964D01*
X808398Y201806D02*
Y203806D01*
X797898Y201806D02*
Y203806D01*
X662008Y-10652D02*
Y-8652D01*
X672508Y-10652D02*
Y-8652D01*
X597492Y34420D02*
Y36420D01*
X607992Y34420D02*
Y36420D01*
X368062Y-189146D02*
X370062D01*
X368062Y-178646D02*
X370062D01*
X296248Y-137144D02*
Y-135144D01*
X306748Y-137144D02*
Y-135144D01*
X210142Y-124698D02*
Y-122698D01*
X220642Y-124698D02*
Y-122698D01*
X600358Y335872D02*
X602358D01*
X600358Y346372D02*
X602358D01*
X677434Y389806D02*
X679434D01*
X677434Y379306D02*
X679434D01*
X854540Y391062D02*
Y393062D01*
X865040Y391062D02*
Y393062D01*
X1044718Y411904D02*
X1046718D01*
X1044718Y401404D02*
X1046718D01*
X1433846Y368724D02*
X1435846D01*
X1433846Y358224D02*
X1435846D01*
X1656096Y367200D02*
X1658096D01*
X1656096Y356700D02*
X1658096D01*
X1790970Y616796D02*
X1792970D01*
X1790970Y627296D02*
X1792970D01*
X676994Y796814D02*
Y798814D01*
X687494Y796814D02*
Y798814D01*
X713910Y816372D02*
Y818372D01*
X703410Y816372D02*
Y818372D01*
X416890Y901736D02*
X418890D01*
X416890Y891236D02*
X418890D01*
X350944Y826532D02*
Y828532D01*
X340444Y826532D02*
Y828532D01*
X238522Y833290D02*
X240522D01*
X238522Y822790D02*
X240522D01*
X233950Y875962D02*
X235950D01*
X233950Y865462D02*
X235950D01*
X213530Y762664D02*
Y764664D01*
X203030Y762664D02*
Y764664D01*
X193210Y762524D02*
Y764524D01*
X182710Y762524D02*
Y764524D01*
X256048Y637878D02*
X258048D01*
X256048Y648378D02*
X258048D01*
X256048Y656166D02*
X258048D01*
X256048Y666666D02*
X258048D01*
X255100Y694452D02*
Y696452D01*
X265600Y694452D02*
Y696452D01*
X231410Y713656D02*
X233410D01*
X231410Y703156D02*
X233410D01*
X218016Y662194D02*
Y664194D01*
X228516Y662194D02*
Y664194D01*
X151744Y574732D02*
X153744D01*
X151744Y585232D02*
X153744D01*
X114730Y554276D02*
X136730D01*
X114730Y560276D02*
X136730D01*
X114730Y554276D02*
Y560276D01*
X136730Y554276D02*
Y560276D01*
X136276Y863600D02*
X190876D01*
X136276Y888492D02*
X190876D01*
Y863600D02*
Y888492D01*
X136276Y863600D02*
Y888492D01*
X156766Y827200D02*
X162766D01*
X156766Y849200D02*
X162766D01*
Y827200D02*
Y849200D01*
X156766Y827200D02*
Y849200D01*
X610284Y810816D02*
Y816816D01*
X632284Y810816D02*
Y816816D01*
X610284Y810816D02*
X632284D01*
X610284Y816816D02*
X632284D01*
X100300Y802142D02*
X105400D01*
X72400D02*
X77500D01*
X100300Y835142D02*
X105400D01*
X72400D02*
X77500D01*
X105400Y802142D02*
Y802392D01*
Y834892D02*
Y835142D01*
X72400Y802142D02*
Y802392D01*
Y834892D02*
Y835142D01*
X351298Y755312D02*
X353298D01*
X351298Y744812D02*
X353298D01*
X234458Y880702D02*
X236458D01*
X234458Y891202D02*
X236458D01*
X283988Y658030D02*
X285988D01*
X283988Y647530D02*
X285988D01*
X321572Y750824D02*
X323572D01*
X292362Y485648D02*
X294362D01*
X114554Y434094D02*
Y436094D01*
D13*
X537675Y392684D02*
G03*
X537675Y392684I-1481J0D01*
G01*
X626067Y-249682D02*
G03*
X626067Y-249682I-1481J0D01*
G01*
X914611Y450596D02*
G03*
X914611Y450596I-1481J0D01*
G01*
X1296627Y-117602D02*
G03*
X1296627Y-117602I-1481J0D01*
G01*
X1293833Y455168D02*
G03*
X1293833Y455168I-1481J0D01*
G01*
X1482555Y227076D02*
G03*
X1482555Y227076I-1481J0D01*
G01*
X1487635Y-147828D02*
G03*
X1487635Y-147828I-1481J0D01*
G01*
X1679913Y-149098D02*
G03*
X1679913Y-149098I-1481J0D01*
G01*
X1723855Y42418D02*
G03*
X1723855Y42418I-1481J0D01*
G01*
X1724871Y233934D02*
G03*
X1724871Y233934I-1481J0D01*
G01*
X1727665Y421132D02*
G03*
X1727665Y421132I-1481J0D01*
G01*
X1724617Y614426D02*
G03*
X1724617Y614426I-1481J0D01*
G01*
X1487901Y614306D02*
G03*
X1487901Y614306I-1481J0D01*
G01*
X1298417Y644786D02*
G03*
X1298417Y644786I-1481J0D01*
G01*
X1106139Y655200D02*
G03*
X1106139Y655200I-1481J0D01*
G01*
X913607Y644786D02*
G03*
X913607Y644786I-1481J0D01*
G01*
X678137Y631952D02*
G03*
X678137Y631952I-1481J0D01*
G01*
X913341Y-115824D02*
G03*
X913341Y-115824I-1481J0D01*
G01*
X1102825Y-101600D02*
G03*
X1102825Y-101600I-1481J0D01*
G01*
X1104857Y90170D02*
G03*
X1104857Y90170I-1481J0D01*
G01*
X1482301Y38354D02*
G03*
X1482301Y38354I-1481J0D01*
G01*
X448013Y-327406D02*
G03*
X448013Y-327406I-1481J0D01*
G01*
X913607Y260992D02*
G03*
X913607Y260992I-1481J0D01*
G01*
X1106393Y279026D02*
G03*
X1106393Y279026I-1481J0D01*
G01*
X1298913Y260350D02*
G03*
X1298913Y260350I-1481J0D01*
G01*
X1297643Y74676D02*
G03*
X1297643Y74676I-1481J0D01*
G01*
X722841Y62992D02*
G03*
X722841Y62992I-1481J0D01*
G01*
X530715Y107094D02*
G03*
X530715Y107094I-1481J0D01*
G01*
X334475Y-264414D02*
G03*
X334475Y-264414I-1481J0D01*
G01*
X1489425Y426600D02*
G03*
X1489425Y426600I-1481J0D01*
G01*
X916389Y71628D02*
G03*
X916389Y71628I-1481J0D01*
G01*
X720809Y251460D02*
G03*
X720809Y251460I-1481J0D01*
G01*
X331935Y-67564D02*
G03*
X331935Y-67564I-1481J0D01*
G01*
X1106889Y462788D02*
G03*
X1106889Y462788I-1481J0D01*
G01*
X725635Y444500D02*
G03*
X725635Y444500I-1481J0D01*
G01*
X486621Y631952D02*
G03*
X486621Y631952I-1481J0D01*
G01*
X387053Y-397002D02*
G03*
X387053Y-397002I-1481J0D01*
G01*
X242781Y-85090D02*
G03*
X242781Y-85090I-1481J0D01*
G01*
X340063Y237744D02*
G03*
X340063Y237744I-1481J0D01*
G01*
X181476Y706628D02*
G03*
X181476Y706628I-1136J0D01*
G01*
X261546Y-480230D02*
X265065Y-478198D01*
X266106Y-478476D01*
X279060Y-500914D01*
X278781Y-501954D02*
X279060Y-500914D01*
X274822Y-504240D02*
X278781Y-501954D01*
X265462Y-514044D02*
X278543Y-536701D01*
X234474Y-460371D02*
X249841Y-486988D01*
X565912Y204978D02*
Y209042D01*
X565150Y204216D02*
X565912Y204978D01*
X539242Y204216D02*
X565150D01*
X538480Y204978D02*
X539242Y204216D01*
X538480Y204978D02*
Y209550D01*
X508508Y222558D02*
X534670D01*
X565912D02*
X596646D01*
X361442Y28448D02*
Y32512D01*
X360680Y27686D02*
X361442Y28448D01*
X334772Y27686D02*
X360680D01*
X334010Y28448D02*
X334772Y27686D01*
X334010Y28448D02*
Y33020D01*
X304038Y46028D02*
X330200D01*
X361442D02*
X392176D01*
X102169Y-133555D02*
X105688Y-131524D01*
X106729Y-131802D01*
X119683Y-154239D01*
X119404Y-155280D02*
X119683Y-154239D01*
X115445Y-157566D02*
X119404Y-155280D01*
X106085Y-167370D02*
X119166Y-190027D01*
X75097Y-113697D02*
X90464Y-140314D01*
X482570Y-230650D02*
Y-226586D01*
X481808Y-231412D02*
X482570Y-230650D01*
X455900Y-231412D02*
X481808D01*
X455137Y-230650D02*
X455900Y-231412D01*
X455137Y-230650D02*
Y-226078D01*
X425165Y-213070D02*
X451328D01*
X482570D02*
X513303D01*
X655066Y-150876D02*
Y-146812D01*
X654304Y-151638D02*
X655066Y-150876D01*
X628396Y-151638D02*
X654304D01*
X627634Y-150876D02*
X628396Y-151638D01*
X627634Y-150876D02*
Y-146304D01*
X597662Y-133296D02*
X623824D01*
X655066D02*
X685800D01*
X945110Y-21580D02*
Y-17516D01*
X944348Y-22342D02*
X945110Y-21580D01*
X918440Y-22342D02*
X944348D01*
X917678Y-21580D02*
X918440Y-22342D01*
X917678Y-21580D02*
Y-17008D01*
X887706Y-4000D02*
X913868D01*
X945110D02*
X975844D01*
X1136142Y-4826D02*
Y-762D01*
X1135380Y-5588D02*
X1136142Y-4826D01*
X1109472Y-5588D02*
X1135380D01*
X1108710Y-4826D02*
X1109472Y-5588D01*
X1108710Y-4826D02*
Y-254D01*
X1078738Y12754D02*
X1104900D01*
X1136142D02*
X1166876D01*
X1326896Y-20828D02*
Y-16764D01*
X1326134Y-21590D02*
X1326896Y-20828D01*
X1300226Y-21590D02*
X1326134D01*
X1299464Y-20828D02*
X1300226Y-21590D01*
X1299464Y-20828D02*
Y-16256D01*
X1269492Y-3248D02*
X1295654D01*
X1326896D02*
X1357630D01*
X1754740Y137171D02*
Y141235D01*
X1753978Y136409D02*
X1754740Y137171D01*
X1728070Y136409D02*
X1753978D01*
X1727308Y137171D02*
X1728070Y136409D01*
X1727308Y137171D02*
Y141743D01*
X1697336Y154751D02*
X1723498D01*
X1754740D02*
X1785474D01*
X1755902Y519176D02*
Y523240D01*
X1755140Y518414D02*
X1755902Y519176D01*
X1729232Y518414D02*
X1755140D01*
X1728470Y519176D02*
X1729232Y518414D01*
X1728470Y519176D02*
Y523748D01*
X1698498Y536756D02*
X1724660D01*
X1755902D02*
X1786636D01*
X1756664Y710184D02*
Y714248D01*
X1755902Y709422D02*
X1756664Y710184D01*
X1729994Y709422D02*
X1755902D01*
X1729232Y710184D02*
X1729994Y709422D01*
X1729232Y710184D02*
Y714756D01*
X1699260Y727764D02*
X1725422D01*
X1756664D02*
X1787398D01*
X1519682Y708914D02*
Y712978D01*
X1518920Y708152D02*
X1519682Y708914D01*
X1493012Y708152D02*
X1518920D01*
X1492250Y708914D02*
X1493012Y708152D01*
X1492250Y708914D02*
Y713486D01*
X1462278Y726494D02*
X1488440D01*
X1519682D02*
X1550416D01*
X1327910Y742161D02*
Y746225D01*
X1327148Y741399D02*
X1327910Y742161D01*
X1301239Y741399D02*
X1327148D01*
X1300477Y742161D02*
X1301239Y741399D01*
X1300477Y742161D02*
Y746733D01*
X1270506Y759741D02*
X1296667D01*
X1327910D02*
X1358643D01*
X1137412Y758190D02*
Y762254D01*
X1136650Y757428D02*
X1137412Y758190D01*
X1110742Y757428D02*
X1136650D01*
X1109980Y758190D02*
X1110742Y757428D01*
X1109980Y758190D02*
Y762762D01*
X1080008Y775770D02*
X1106170D01*
X1137412D02*
X1168146D01*
X946912Y741934D02*
Y745998D01*
X946150Y741172D02*
X946912Y741934D01*
X920242Y741172D02*
X946150D01*
X919480Y741934D02*
X920242Y741172D01*
X919480Y741934D02*
Y746506D01*
X889508Y759514D02*
X915670D01*
X946912D02*
X977646D01*
X754608Y727700D02*
Y731764D01*
X753846Y726938D02*
X754608Y727700D01*
X727938Y726938D02*
X753846D01*
X727176Y727700D02*
X727938Y726938D01*
X727176Y727700D02*
Y732272D01*
X697204Y745280D02*
X723366D01*
X754608D02*
X785342D01*
X565658Y491236D02*
Y495300D01*
X564896Y490474D02*
X565658Y491236D01*
X538988Y490474D02*
X564896D01*
X538226Y491236D02*
X538988Y490474D01*
X538226Y491236D02*
Y495808D01*
X508254Y508816D02*
X534416D01*
X565658D02*
X596392D01*
X396494Y815594D02*
X472694D01*
X396494Y741934D02*
Y815594D01*
Y741934D02*
X472694D01*
Y815594D01*
X214884Y638048D02*
Y686562D01*
X166370D02*
X214884D01*
X166370Y638048D02*
X214884D01*
X166370D02*
Y686562D01*
X187198Y390398D02*
X235712D01*
X187198Y341884D02*
Y390398D01*
X235712Y341884D02*
Y390398D01*
X187198Y341884D02*
X235712D01*
X1707115Y-35751D02*
X1737849D01*
X1649711D02*
X1675873D01*
X1679683Y-53331D02*
Y-48759D01*
Y-53331D02*
X1680445Y-54093D01*
X1706353D01*
X1707115Y-53331D01*
Y-49267D01*
X1516614Y-35751D02*
X1547348D01*
X1459210D02*
X1485372D01*
X1489182Y-53331D02*
Y-48759D01*
Y-53331D02*
X1489944Y-54093D01*
X1515852D01*
X1516614Y-53331D01*
Y-49267D01*
Y154751D02*
X1547348D01*
X1459210D02*
X1485372D01*
X1489182Y137171D02*
Y141743D01*
Y137171D02*
X1489944Y136409D01*
X1515852D01*
X1516614Y137171D01*
Y141235D01*
X1327910Y188237D02*
X1358643D01*
X1270506D02*
X1296667D01*
X1300477Y170657D02*
Y175229D01*
Y170657D02*
X1301239Y169895D01*
X1327148D01*
X1327910Y170657D01*
Y174721D01*
X1136904Y202746D02*
X1167638D01*
X1079500D02*
X1105662D01*
X1109472Y185166D02*
Y189738D01*
Y185166D02*
X1110234Y184404D01*
X1136142D01*
X1136904Y185166D01*
Y189230D01*
X946906Y188237D02*
X977640D01*
X889502D02*
X915664D01*
X919474Y170657D02*
Y175229D01*
Y170657D02*
X920236Y169895D01*
X946144D01*
X946906Y170657D01*
Y174721D01*
X757174Y175822D02*
X787908D01*
X699770D02*
X725932D01*
X729742Y158242D02*
Y162814D01*
Y158242D02*
X730504Y157480D01*
X756412D01*
X757174Y158242D01*
Y162306D01*
X1754740Y345252D02*
X1785474D01*
X1697336D02*
X1723498D01*
X1727308Y327672D02*
Y332244D01*
Y327672D02*
X1728070Y326910D01*
X1753978D01*
X1754740Y327672D01*
Y331736D01*
X1516614Y345252D02*
X1547348D01*
X1459210D02*
X1485372D01*
X1489182Y327672D02*
Y332244D01*
Y327672D02*
X1489944Y326910D01*
X1515852D01*
X1516614Y327672D01*
Y331736D01*
X1326113Y377003D02*
X1356847D01*
X1268709D02*
X1294871D01*
X1298681Y359423D02*
Y363995D01*
Y359423D02*
X1299443Y358661D01*
X1325351D01*
X1326113Y359423D01*
Y363487D01*
X1135611Y392979D02*
X1166345D01*
X1078207D02*
X1104369D01*
X1108179Y375399D02*
Y379971D01*
Y375399D02*
X1108941Y374637D01*
X1134849D01*
X1135611Y375399D01*
Y379463D01*
X945110Y377003D02*
X975844D01*
X887706D02*
X913868D01*
X917678Y359423D02*
Y363995D01*
Y359423D02*
X918440Y358661D01*
X944348D01*
X945110Y359423D01*
Y363487D01*
X755396Y365814D02*
X786130D01*
X697992D02*
X724154D01*
X727964Y348234D02*
Y352806D01*
Y348234D02*
X728726Y347472D01*
X754634D01*
X755396Y348234D01*
Y352298D01*
X1517904Y536756D02*
X1548638D01*
X1460500D02*
X1486662D01*
X1490472Y519176D02*
Y523748D01*
Y519176D02*
X1491234Y518414D01*
X1517142D01*
X1517904Y519176D01*
Y523240D01*
X1328166Y569776D02*
X1358900D01*
X1270762D02*
X1296924D01*
X1300734Y552196D02*
Y556768D01*
Y552196D02*
X1301496Y551434D01*
X1327404D01*
X1328166Y552196D01*
Y556260D01*
X1138428Y585016D02*
X1169162D01*
X1081024D02*
X1107186D01*
X1110996Y567436D02*
Y572008D01*
Y567436D02*
X1111758Y566674D01*
X1137666D01*
X1138428Y567436D01*
Y571500D01*
X946907Y569239D02*
X977641D01*
X889502D02*
X915665D01*
X919474Y551659D02*
Y556231D01*
Y551659D02*
X920237Y550897D01*
X946144D01*
X946907Y551659D01*
Y555723D01*
X756405Y556539D02*
X787139D01*
X699001D02*
X725163D01*
X728973Y538959D02*
Y543531D01*
Y538959D02*
X729735Y538197D01*
X755643D01*
X756405Y538959D01*
Y543023D01*
X565912Y748084D02*
X596646D01*
X508508D02*
X534670D01*
X538480Y730504D02*
Y735076D01*
Y730504D02*
X539242Y729742D01*
X565150D01*
X565912Y730504D01*
Y734568D01*
X156885Y-286163D02*
X172252Y-312780D01*
X187873Y-339836D02*
X200954Y-362493D01*
X197233Y-330032D02*
X201192Y-327746D01*
X201471Y-326705D01*
X188517Y-304268D02*
X201471Y-326705D01*
X187477Y-303990D02*
X188517Y-304268D01*
X183957Y-306021D02*
X187477Y-303990D01*
X221234Y472284D02*
X258572D01*
Y434946D02*
Y472284D01*
X221234Y434946D02*
X258572D01*
X221234D02*
Y472284D01*
X1082548Y931672D02*
X1783080D01*
X386842Y499364D02*
Y508508D01*
X313690Y909828D02*
X439420D01*
X275844D02*
X296672D01*
X5080D02*
X258064D01*
X568452Y908812D02*
X569722Y907542D01*
X652272D01*
Y617220D02*
Y907542D01*
X544322Y509270D02*
X652272Y617220D01*
X386842Y509270D02*
X544322D01*
X386842Y181864D02*
X386842Y509270D01*
X6858Y508508D02*
X14986D01*
X386842D01*
X1080262Y989546D02*
X1090419D01*
X1085340D01*
Y974311D01*
X1103115D02*
X1098036D01*
X1095497Y976850D01*
Y981929D01*
X1098036Y984468D01*
X1103115D01*
X1105654Y981929D01*
Y979389D01*
X1095497D01*
X1113271Y984468D02*
X1118350D01*
X1120889Y981929D01*
Y974311D01*
X1113271D01*
X1110732Y976850D01*
X1113271Y979389D01*
X1120889D01*
X1125967Y974311D02*
Y984468D01*
X1128506D01*
X1131046Y981929D01*
Y974311D01*
Y981929D01*
X1133585Y984468D01*
X1136124Y981929D01*
Y974311D01*
X1141202Y984468D02*
X1143742D01*
Y981929D01*
X1141202D01*
Y984468D01*
Y976850D02*
X1143742D01*
Y974311D01*
X1141202D01*
Y976850D01*
X1169133Y989546D02*
Y974311D01*
X1179290D01*
X1186908D02*
X1191986D01*
X1194525Y976850D01*
Y981929D01*
X1191986Y984468D01*
X1186908D01*
X1184368Y981929D01*
Y976850D01*
X1186908Y974311D01*
X1199603Y984468D02*
Y976850D01*
X1202143Y974311D01*
X1204682Y976850D01*
X1207221Y974311D01*
X1209760Y976850D01*
Y984468D01*
X1240230Y987007D02*
X1237691Y989546D01*
X1232613D01*
X1230073Y987007D01*
Y984468D01*
X1232613Y981929D01*
X1237691D01*
X1240230Y979389D01*
Y976850D01*
X1237691Y974311D01*
X1232613D01*
X1230073Y976850D01*
X1252926Y974311D02*
X1247848D01*
X1245309Y976850D01*
Y981929D01*
X1247848Y984468D01*
X1252926D01*
X1255465Y981929D01*
Y979389D01*
X1245309D01*
X1260544Y974311D02*
X1265622D01*
X1263083D01*
Y989546D01*
X1260544D01*
X1275779Y974311D02*
Y987007D01*
Y981929D01*
X1273240D01*
X1278318D01*
X1275779D01*
Y987007D01*
X1278318Y989546D01*
X1311327D02*
X1301171D01*
Y974311D01*
X1311327D01*
X1301171Y981929D02*
X1306249D01*
X1316406Y974311D02*
X1324023D01*
X1326562Y976850D01*
X1324023Y979389D01*
X1318945D01*
X1316406Y981929D01*
X1318945Y984468D01*
X1326562D01*
X1334180Y987007D02*
Y984468D01*
X1331641D01*
X1336719D01*
X1334180D01*
Y976850D01*
X1336719Y974311D01*
X1351954D02*
X1346876D01*
X1344337Y976850D01*
Y981929D01*
X1346876Y984468D01*
X1351954D01*
X1354493Y981929D01*
Y979389D01*
X1344337D01*
X1367189Y974311D02*
X1362111D01*
X1359572Y976850D01*
Y981929D01*
X1362111Y984468D01*
X1367189D01*
X1369728Y981929D01*
Y979389D01*
X1359572D01*
X1374807Y974311D02*
Y984468D01*
X1377346D01*
X1379885Y981929D01*
Y974311D01*
Y981929D01*
X1382424Y984468D01*
X1384963Y981929D01*
Y974311D01*
X1725213Y984468D02*
X1730292Y974311D01*
X1735370Y984468D01*
X1740448Y974311D02*
X1745527D01*
X1742988D01*
Y989546D01*
X1740448Y987007D01*
X1753144Y974311D02*
Y976850D01*
X1755683D01*
Y974311D01*
X1753144D01*
X1765840D02*
X1770919D01*
X1768379D01*
Y989546D01*
X1765840Y987007D01*
X1080262Y965168D02*
Y949933D01*
X1090419D01*
X1098036D02*
X1103115D01*
X1105654Y952472D01*
Y957551D01*
X1103115Y960090D01*
X1098036D01*
X1095497Y957551D01*
Y952472D01*
X1098036Y949933D01*
X1110732Y960090D02*
Y952472D01*
X1113271Y949933D01*
X1115810Y952472D01*
X1118350Y949933D01*
X1120889Y952472D01*
Y960090D01*
X1141202Y949933D02*
Y965168D01*
X1148820D01*
X1151359Y962629D01*
Y957551D01*
X1148820Y955011D01*
X1141202D01*
X1158977Y949933D02*
X1164055D01*
X1166594Y952472D01*
Y957551D01*
X1164055Y960090D01*
X1158977D01*
X1156437Y957551D01*
Y952472D01*
X1158977Y949933D01*
X1171672Y960090D02*
Y952472D01*
X1174212Y949933D01*
X1176751Y952472D01*
X1179290Y949933D01*
X1181829Y952472D01*
Y960090D01*
X1194525Y949933D02*
X1189447D01*
X1186908Y952472D01*
Y957551D01*
X1189447Y960090D01*
X1194525D01*
X1197064Y957551D01*
Y955011D01*
X1186908D01*
X1202143Y960090D02*
Y949933D01*
Y955011D01*
X1204682Y957551D01*
X1207221Y960090D01*
X1209760D01*
X1242769Y965168D02*
X1232613D01*
Y949933D01*
X1242769D01*
X1232613Y957551D02*
X1237691D01*
X1247848Y949933D02*
Y960090D01*
X1250387D01*
X1252926Y957551D01*
Y949933D01*
Y957551D01*
X1255465Y960090D01*
X1258005Y957551D01*
Y949933D01*
X1263083Y965168D02*
Y949933D01*
X1270700D01*
X1273240Y952472D01*
Y955011D01*
Y957551D01*
X1270700Y960090D01*
X1263083D01*
X1285936Y949933D02*
X1280857D01*
X1278318Y952472D01*
Y957551D01*
X1280857Y960090D01*
X1285936D01*
X1288475Y957551D01*
Y955011D01*
X1278318D01*
X1303710Y965168D02*
Y949933D01*
X1296092D01*
X1293553Y952472D01*
Y957551D01*
X1296092Y960090D01*
X1303710D01*
X1318945Y965168D02*
Y949933D01*
X1311327D01*
X1308788Y952472D01*
Y957551D01*
X1311327Y960090D01*
X1318945D01*
X1331641Y949933D02*
X1326562D01*
X1324023Y952472D01*
Y957551D01*
X1326562Y960090D01*
X1331641D01*
X1334180Y957551D01*
Y955011D01*
X1324023D01*
X1349415Y965168D02*
Y949933D01*
X1341797D01*
X1339258Y952472D01*
Y957551D01*
X1341797Y960090D01*
X1349415D01*
X1369728Y965168D02*
Y949933D01*
X1377346D01*
X1379885Y952472D01*
Y962629D01*
X1377346Y965168D01*
X1369728D01*
X1392581Y949933D02*
X1387503D01*
X1384963Y952472D01*
Y957551D01*
X1387503Y960090D01*
X1392581D01*
X1395120Y957551D01*
Y955011D01*
X1384963D01*
X1400199Y949933D02*
X1407816D01*
X1410355Y952472D01*
X1407816Y955011D01*
X1402738D01*
X1400199Y957551D01*
X1402738Y960090D01*
X1410355D01*
X1415434Y949933D02*
X1420512D01*
X1417973D01*
Y960090D01*
X1415434D01*
X1433208Y944855D02*
X1435747D01*
X1438286Y947394D01*
Y960090D01*
X1430669D01*
X1428129Y957551D01*
Y952472D01*
X1430669Y949933D01*
X1438286D01*
X1443365D02*
Y960090D01*
X1450982D01*
X1453521Y957551D01*
Y949933D01*
X1473835Y965168D02*
X1483991D01*
X1478913D01*
Y949933D01*
X1496687D02*
X1491609D01*
X1489070Y952472D01*
Y957551D01*
X1491609Y960090D01*
X1496687D01*
X1499227Y957551D01*
Y955011D01*
X1489070D01*
X1514462Y960090D02*
X1506844D01*
X1504305Y957551D01*
Y952472D01*
X1506844Y949933D01*
X1514462D01*
X1519540Y965168D02*
Y949933D01*
Y957551D01*
X1522079Y960090D01*
X1527157D01*
X1529697Y957551D01*
Y949933D01*
X1534775D02*
Y960090D01*
X1542392D01*
X1544932Y957551D01*
Y949933D01*
X1550010D02*
X1555088D01*
X1552549D01*
Y960090D01*
X1550010D01*
X1572863Y944855D02*
Y960090D01*
X1565245D01*
X1562706Y957551D01*
Y952472D01*
X1565245Y949933D01*
X1572863D01*
X1577941Y960090D02*
Y952472D01*
X1580480Y949933D01*
X1588098D01*
Y960090D01*
X1600794Y949933D02*
X1595715D01*
X1593176Y952472D01*
Y957551D01*
X1595715Y960090D01*
X1600794D01*
X1603333Y957551D01*
Y955011D01*
X1593176D01*
X1608411Y949933D02*
X1616029D01*
X1618568Y952472D01*
X1616029Y955011D01*
X1610950D01*
X1608411Y957551D01*
X1610950Y960090D01*
X1618568D01*
X1669351Y949933D02*
X1674430D01*
X1671891D01*
Y965168D01*
X1669351Y962629D01*
X1682047Y949933D02*
X1687126D01*
X1684586D01*
Y965168D01*
X1682047Y962629D01*
X1694743Y949933D02*
X1704900Y960090D01*
X1720135Y949933D02*
X1709978D01*
X1720135Y960090D01*
Y962629D01*
X1717596Y965168D01*
X1712518D01*
X1709978Y962629D01*
X1725213Y949933D02*
X1735370Y960090D01*
X1750605Y949933D02*
X1740448D01*
X1750605Y960090D01*
Y962629D01*
X1748066Y965168D01*
X1742988D01*
X1740448Y962629D01*
X1763301Y949933D02*
Y965168D01*
X1755683Y957551D01*
X1765840D01*
X1080262Y896098D02*
Y911334D01*
X1087879D01*
X1090419Y908794D01*
Y903716D01*
X1087879Y901177D01*
X1080262D01*
X1098036Y906255D02*
X1103115D01*
X1105654Y903716D01*
Y896098D01*
X1098036D01*
X1095497Y898638D01*
X1098036Y901177D01*
X1105654D01*
X1110732Y906255D02*
Y896098D01*
Y901177D01*
X1113271Y903716D01*
X1115810Y906255D01*
X1118350D01*
X1128506Y908794D02*
Y906255D01*
X1125967D01*
X1131046D01*
X1128506D01*
Y898638D01*
X1131046Y896098D01*
X1138663Y911334D02*
Y896098D01*
Y903716D01*
X1141202Y906255D01*
X1146281D01*
X1148820Y903716D01*
Y896098D01*
X1169133Y911334D02*
X1179290D01*
X1174212D01*
Y896098D01*
X1184368Y911334D02*
Y896098D01*
Y903716D01*
X1186908Y906255D01*
X1191986D01*
X1194525Y903716D01*
Y896098D01*
X1202143Y906255D02*
X1207221D01*
X1209760Y903716D01*
Y896098D01*
X1202143D01*
X1199603Y898638D01*
X1202143Y901177D01*
X1209760D01*
X1214838Y896098D02*
Y911334D01*
Y901177D02*
X1222456Y906255D01*
X1214838Y901177D02*
X1222456Y896098D01*
X1230073D02*
Y911334D01*
Y901177D02*
X1237691Y906255D01*
X1230073Y901177D02*
X1237691Y896098D01*
X1247848Y906255D02*
X1252926D01*
X1255465Y903716D01*
Y896098D01*
X1247848D01*
X1245309Y898638D01*
X1247848Y901177D01*
X1255465D01*
X1260544Y906255D02*
Y896098D01*
Y901177D01*
X1263083Y903716D01*
X1265622Y906255D01*
X1268161D01*
X1080262Y871720D02*
Y881877D01*
X1085340Y886955D01*
X1090419Y881877D01*
Y871720D01*
Y879338D01*
X1080262D01*
X1095497Y871720D02*
Y881877D01*
X1103115D01*
X1105654Y879338D01*
Y871720D01*
X1113271Y881877D02*
X1118350D01*
X1120889Y879338D01*
Y871720D01*
X1113271D01*
X1110732Y874260D01*
X1113271Y876799D01*
X1120889D01*
X1131046Y866642D02*
X1133585D01*
X1136124Y869181D01*
Y881877D01*
X1128506D01*
X1125967Y879338D01*
Y874260D01*
X1128506Y871720D01*
X1136124D01*
X1141202Y886955D02*
Y871720D01*
Y879338D01*
X1143742Y881877D01*
X1148820D01*
X1151359Y879338D01*
Y871720D01*
X1158977Y881877D02*
X1164055D01*
X1166594Y879338D01*
Y871720D01*
X1158977D01*
X1156437Y874260D01*
X1158977Y876799D01*
X1166594D01*
X1186908Y871720D02*
Y881877D01*
X1191986Y886955D01*
X1197064Y881877D01*
Y871720D01*
Y879338D01*
X1186908D01*
X1212299Y886955D02*
Y871720D01*
X1204682D01*
X1202143Y874260D01*
Y879338D01*
X1204682Y881877D01*
X1212299D01*
X1217378Y871720D02*
X1222456D01*
X1219917D01*
Y881877D01*
X1217378D01*
X1232613Y884416D02*
Y881877D01*
X1230073D01*
X1235152D01*
X1232613D01*
Y874260D01*
X1235152Y871720D01*
X1242769Y886955D02*
Y871720D01*
Y879338D01*
X1245309Y881877D01*
X1250387D01*
X1252926Y879338D01*
Y871720D01*
X1258005Y881877D02*
Y874260D01*
X1260544Y871720D01*
X1268161D01*
Y869181D01*
X1265622Y866642D01*
X1263083D01*
X1268161Y871720D02*
Y881877D01*
X1275779D02*
X1280857D01*
X1283396Y879338D01*
Y871720D01*
X1275779D01*
X1273240Y874260D01*
X1275779Y876799D01*
X1283396D01*
X1080262Y842264D02*
Y852421D01*
X1085340Y857499D01*
X1090419Y852421D01*
Y842264D01*
Y849882D01*
X1080262D01*
X1095497Y842264D02*
Y857499D01*
Y847342D02*
X1103115Y852421D01*
X1095497Y847342D02*
X1103115Y842264D01*
X1113271Y852421D02*
X1118350D01*
X1120889Y849882D01*
Y842264D01*
X1113271D01*
X1110732Y844803D01*
X1113271Y847342D01*
X1120889D01*
X1125967Y842264D02*
X1133585D01*
X1136124Y844803D01*
X1133585Y847342D01*
X1128506D01*
X1125967Y849882D01*
X1128506Y852421D01*
X1136124D01*
X1141202Y857499D02*
Y842264D01*
Y849882D01*
X1143742Y852421D01*
X1148820D01*
X1151359Y849882D01*
Y842264D01*
X1171672Y857499D02*
Y842264D01*
Y847342D01*
X1181829Y857499D01*
X1174212Y849882D01*
X1181829Y842264D01*
X1189447Y852421D02*
X1194525D01*
X1197064Y849882D01*
Y842264D01*
X1189447D01*
X1186908Y844803D01*
X1189447Y847342D01*
X1197064D01*
X1202143Y852421D02*
Y842264D01*
Y847342D01*
X1204682Y849882D01*
X1207221Y852421D01*
X1209760D01*
X1219917Y842264D02*
X1224995D01*
X1227534Y844803D01*
Y849882D01*
X1224995Y852421D01*
X1219917D01*
X1217378Y849882D01*
Y844803D01*
X1219917Y842264D01*
X1232613D02*
X1240230D01*
X1242769Y844803D01*
X1240230Y847342D01*
X1235152D01*
X1232613Y849882D01*
X1235152Y852421D01*
X1242769D01*
X1247848Y857499D02*
Y842264D01*
Y849882D01*
X1250387Y852421D01*
X1255465D01*
X1258005Y849882D01*
Y842264D01*
X1263083D02*
X1268161D01*
X1265622D01*
Y852421D01*
X1263083D01*
X114805Y885948D02*
X112266Y888487D01*
X107187D01*
X104648Y885948D01*
Y875791D01*
X107187Y873252D01*
X112266D01*
X114805Y875791D01*
X130040Y885948D02*
X127501Y888487D01*
X122422D01*
X119883Y885948D01*
Y883409D01*
X122422Y880870D01*
X127501D01*
X130040Y878330D01*
Y875791D01*
X127501Y873252D01*
X122422D01*
X119883Y875791D01*
X83316Y333756D02*
X96012D01*
Y340104D01*
X93896Y342220D01*
X91780D01*
X89664Y340104D01*
Y333756D01*
Y340104D01*
X87548Y342220D01*
X85432D01*
X83316Y340104D01*
Y333756D01*
X96012Y346452D02*
X87548D01*
X83316Y350684D01*
X87548Y354916D01*
X96012D01*
X89664D01*
Y346452D01*
X83316Y359148D02*
Y367612D01*
Y363380D01*
X96012D01*
X83316Y371844D02*
Y380308D01*
Y376076D01*
X96012D01*
X83316Y393004D02*
Y384539D01*
X96012D01*
Y393004D01*
X89664Y384539D02*
Y388772D01*
X96012Y397235D02*
X83316D01*
Y403583D01*
X85432Y405699D01*
X89664D01*
X91780Y403583D01*
Y397235D01*
Y401467D02*
X96012Y405699D01*
X83316Y409931D02*
X85432D01*
X89664Y414163D01*
X85432Y418395D01*
X83316D01*
X89664Y414163D02*
X96012D01*
X210566Y533649D02*
Y518414D01*
X218183D01*
X220723Y520953D01*
Y531110D01*
X218183Y533649D01*
X210566D01*
X225801D02*
X230879D01*
X228340D01*
Y518414D01*
X225801D01*
X230879D01*
X248654Y531110D02*
X246115Y533649D01*
X241036D01*
X238497Y531110D01*
Y528571D01*
X241036Y526031D01*
X246115D01*
X248654Y523492D01*
Y520953D01*
X246115Y518414D01*
X241036D01*
X238497Y520953D01*
X253732Y518414D02*
Y533649D01*
X261350D01*
X263889Y531110D01*
Y526031D01*
X261350Y523492D01*
X253732D01*
X268967Y533649D02*
Y518414D01*
X279124D01*
X284202D02*
Y528571D01*
X289280Y533649D01*
X294359Y528571D01*
Y518414D01*
Y526031D01*
X284202D01*
X299437Y533649D02*
Y531110D01*
X304516Y526031D01*
X309594Y531110D01*
Y533649D01*
X304516Y526031D02*
Y518414D01*
X131315Y123694D02*
X128776Y126233D01*
X123697D01*
X121158Y123694D01*
Y121155D01*
X123697Y118616D01*
X128776D01*
X131315Y116076D01*
Y113537D01*
X128776Y110998D01*
X123697D01*
X121158Y113537D01*
X138932Y110998D02*
X144011D01*
X146550Y113537D01*
Y118616D01*
X144011Y121155D01*
X138932D01*
X136393Y118616D01*
Y113537D01*
X138932Y110998D01*
X151628D02*
X156706D01*
X154167D01*
Y126233D01*
X151628D01*
X166863Y121155D02*
X171942D01*
X174481Y118616D01*
Y110998D01*
X166863D01*
X164324Y113537D01*
X166863Y116076D01*
X174481D01*
X179559Y121155D02*
Y110998D01*
Y116076D01*
X182098Y118616D01*
X184638Y121155D01*
X187177D01*
X210029Y110998D02*
Y126233D01*
X217647D01*
X220186Y123694D01*
Y118616D01*
X217647Y116076D01*
X210029D01*
X227803Y121155D02*
X232882D01*
X235421Y118616D01*
Y110998D01*
X227803D01*
X225264Y113537D01*
X227803Y116076D01*
X235421D01*
X240499Y110998D02*
Y121155D01*
X248117D01*
X250656Y118616D01*
Y110998D01*
X263352D02*
X258274D01*
X255735Y113537D01*
Y118616D01*
X258274Y121155D01*
X263352D01*
X265891Y118616D01*
Y116076D01*
X255735D01*
X270970Y110998D02*
X276048D01*
X273509D01*
Y126233D01*
X270970D01*
D14*
X410169Y871474D02*
G03*
X410169Y871474I-1796J0D01*
G01*
X327177Y815263D02*
G03*
X327177Y815263I-1016J0D01*
G01*
X118634Y265470D02*
G03*
X118634Y265470I-1796J0D01*
G01*
X562737Y349123D02*
X567436D01*
X558546Y353314D02*
X562737Y349123D01*
X533908D02*
X538607D01*
X542798Y353314D01*
X533908Y349123D02*
Y355448D01*
X534416Y380746D02*
Y387604D01*
X566674D01*
X567436Y349123D02*
Y355448D01*
X542798Y353314D02*
X558546D01*
X566674Y375412D02*
Y387604D01*
X651129Y-293243D02*
X655828D01*
X646938Y-289052D02*
X651129Y-293243D01*
X622300D02*
X626999D01*
X631190Y-289052D01*
X622300Y-293243D02*
Y-286918D01*
X622808Y-261620D02*
Y-254762D01*
X655066D01*
X655828Y-293243D02*
Y-286918D01*
X631190Y-289052D02*
X646938D01*
X655066Y-266954D02*
Y-254762D01*
X939673Y407035D02*
X944372D01*
X935482Y411226D02*
X939673Y407035D01*
X910844D02*
X915543D01*
X919734Y411226D01*
X910844Y407035D02*
Y413360D01*
X911352Y438658D02*
Y445516D01*
X943610D01*
X944372Y407035D02*
Y413360D01*
X919734Y411226D02*
X935482D01*
X943610Y433324D02*
Y445516D01*
X1325626Y-134874D02*
Y-122682D01*
X1301750Y-156972D02*
X1317498D01*
X1326388Y-161163D02*
Y-154838D01*
X1293368Y-122682D02*
X1325626D01*
X1293368Y-129540D02*
Y-122682D01*
X1292860Y-161163D02*
Y-154838D01*
X1297559Y-161163D02*
X1301750Y-156972D01*
X1292860Y-161163D02*
X1297559D01*
X1317498Y-156972D02*
X1321689Y-161163D01*
X1326388D01*
X1318895Y411607D02*
X1323594D01*
X1314704Y415798D02*
X1318895Y411607D01*
X1290066D02*
X1294765D01*
X1298956Y415798D01*
X1290066Y411607D02*
Y417932D01*
X1290574Y443230D02*
Y450088D01*
X1322832D01*
X1323594Y411607D02*
Y417932D01*
X1298956Y415798D02*
X1314704D01*
X1322832Y437896D02*
Y450088D01*
X1507617Y183515D02*
X1512316D01*
X1503426Y187706D02*
X1507617Y183515D01*
X1478788D02*
X1483487D01*
X1487678Y187706D01*
X1478788Y183515D02*
Y189840D01*
X1479296Y215138D02*
Y221996D01*
X1511554D01*
X1512316Y183515D02*
Y189840D01*
X1487678Y187706D02*
X1503426D01*
X1511554Y209804D02*
Y221996D01*
X1512697Y-191389D02*
X1517396D01*
X1508506Y-187198D02*
X1512697Y-191389D01*
X1483868D02*
X1488567D01*
X1492758Y-187198D01*
X1483868Y-191389D02*
Y-185064D01*
X1484376Y-159766D02*
Y-152908D01*
X1516634D01*
X1517396Y-191389D02*
Y-185064D01*
X1492758Y-187198D02*
X1508506D01*
X1516634Y-165100D02*
Y-152908D01*
X1708912Y-166370D02*
Y-154178D01*
X1685036Y-188468D02*
X1700784D01*
X1709674Y-192659D02*
Y-186334D01*
X1676654Y-154178D02*
X1708912D01*
X1676654Y-161036D02*
Y-154178D01*
X1676146Y-192659D02*
Y-186334D01*
X1680845Y-192659D02*
X1685036Y-188468D01*
X1676146Y-192659D02*
X1680845D01*
X1700784Y-188468D02*
X1704975Y-192659D01*
X1709674D01*
X1748917Y-1143D02*
X1753616D01*
X1744726Y3048D02*
X1748917Y-1143D01*
X1720088D02*
X1724787D01*
X1728978Y3048D01*
X1720088Y-1143D02*
Y5182D01*
X1720596Y30480D02*
Y37338D01*
X1752854D01*
X1753616Y-1143D02*
Y5182D01*
X1728978Y3048D02*
X1744726D01*
X1752854Y25146D02*
Y37338D01*
X1753870Y216662D02*
Y228854D01*
X1729994Y194564D02*
X1745742D01*
X1754632Y190373D02*
Y196698D01*
X1721612Y228854D02*
X1753870D01*
X1721612Y221996D02*
Y228854D01*
X1721104Y190373D02*
Y196698D01*
X1725803Y190373D02*
X1729994Y194564D01*
X1721104Y190373D02*
X1725803D01*
X1745742Y194564D02*
X1749933Y190373D01*
X1754632D01*
X1752727Y377571D02*
X1757426D01*
X1748536Y381762D02*
X1752727Y377571D01*
X1723898D02*
X1728597D01*
X1732788Y381762D01*
X1723898Y377571D02*
Y383896D01*
X1724406Y409194D02*
Y416052D01*
X1756664D01*
X1757426Y377571D02*
Y383896D01*
X1732788Y381762D02*
X1748536D01*
X1756664Y403860D02*
Y416052D01*
X1753616Y597154D02*
Y609346D01*
X1729740Y575056D02*
X1745488D01*
X1754378Y570865D02*
Y577190D01*
X1721358Y609346D02*
X1753616D01*
X1721358Y602488D02*
Y609346D01*
X1720850Y570865D02*
Y577190D01*
X1725549Y570865D02*
X1729740Y575056D01*
X1720850Y570865D02*
X1725549D01*
X1745488Y575056D02*
X1749679Y570865D01*
X1754378D01*
X1512963Y570745D02*
X1517662D01*
X1508772Y574936D02*
X1512963Y570745D01*
X1484134D02*
X1488833D01*
X1493024Y574936D01*
X1484134Y570745D02*
Y577070D01*
X1484642Y602368D02*
Y609226D01*
X1516900D01*
X1517662Y570745D02*
Y577070D01*
X1493024Y574936D02*
X1508772D01*
X1516900Y597034D02*
Y609226D01*
X1327416Y627514D02*
Y639706D01*
X1303540Y605416D02*
X1319288D01*
X1328178Y601225D02*
Y607550D01*
X1295158Y639706D02*
X1327416D01*
X1295158Y632848D02*
Y639706D01*
X1294650Y601225D02*
Y607550D01*
X1299349Y601225D02*
X1303540Y605416D01*
X1294650Y601225D02*
X1299349D01*
X1319288Y605416D02*
X1323479Y601225D01*
X1328178D01*
X1131201Y611639D02*
X1135900D01*
X1127010Y615830D02*
X1131201Y611639D01*
X1102372D02*
X1107071D01*
X1111262Y615830D01*
X1102372Y611639D02*
Y617964D01*
X1102880Y643262D02*
Y650120D01*
X1135138D01*
X1135900Y611639D02*
Y617964D01*
X1111262Y615830D02*
X1127010D01*
X1135138Y637928D02*
Y650120D01*
X942606Y627514D02*
Y639706D01*
X918730Y605416D02*
X934478D01*
X943368Y601225D02*
Y607550D01*
X910348Y639706D02*
X942606D01*
X910348Y632848D02*
Y639706D01*
X909840Y601225D02*
Y607550D01*
X914539Y601225D02*
X918730Y605416D01*
X909840Y601225D02*
X914539D01*
X934478Y605416D02*
X938669Y601225D01*
X943368D01*
X703199Y588391D02*
X707898D01*
X699008Y592582D02*
X703199Y588391D01*
X674370D02*
X679069D01*
X683260Y592582D01*
X674370Y588391D02*
Y594716D01*
X674878Y620014D02*
Y626872D01*
X707136D01*
X707898Y588391D02*
Y594716D01*
X683260Y592582D02*
X699008D01*
X707136Y614680D02*
Y626872D01*
X942340Y-133096D02*
Y-120904D01*
X918464Y-155194D02*
X934212D01*
X943102Y-159385D02*
Y-153060D01*
X910082Y-120904D02*
X942340D01*
X910082Y-127762D02*
Y-120904D01*
X909574Y-159385D02*
Y-153060D01*
X914273Y-159385D02*
X918464Y-155194D01*
X909574Y-159385D02*
X914273D01*
X934212Y-155194D02*
X938403Y-159385D01*
X943102D01*
X1127887Y-145161D02*
X1132586D01*
X1123696Y-140970D02*
X1127887Y-145161D01*
X1099058D02*
X1103757D01*
X1107948Y-140970D01*
X1099058Y-145161D02*
Y-138836D01*
X1099566Y-113538D02*
Y-106680D01*
X1131824D01*
X1132586Y-145161D02*
Y-138836D01*
X1107948Y-140970D02*
X1123696D01*
X1131824Y-118872D02*
Y-106680D01*
X1133856Y72898D02*
Y85090D01*
X1109980Y50800D02*
X1125728D01*
X1134618Y46609D02*
Y52934D01*
X1101598Y85090D02*
X1133856D01*
X1101598Y78232D02*
Y85090D01*
X1101090Y46609D02*
Y52934D01*
X1105789Y46609D02*
X1109980Y50800D01*
X1101090Y46609D02*
X1105789D01*
X1125728Y50800D02*
X1129919Y46609D01*
X1134618D01*
X1511300Y21082D02*
Y33274D01*
X1487424Y-1016D02*
X1503172D01*
X1512062Y-5207D02*
Y1118D01*
X1479042Y33274D02*
X1511300D01*
X1479042Y26416D02*
Y33274D01*
X1478534Y-5207D02*
Y1118D01*
X1483233Y-5207D02*
X1487424Y-1016D01*
X1478534Y-5207D02*
X1483233D01*
X1503172Y-1016D02*
X1507363Y-5207D01*
X1512062D01*
X477012Y-344678D02*
Y-332486D01*
X453136Y-366776D02*
X468884D01*
X477774Y-370967D02*
Y-364642D01*
X444754Y-332486D02*
X477012D01*
X444754Y-339344D02*
Y-332486D01*
X444246Y-370967D02*
Y-364642D01*
X448945Y-370967D02*
X453136Y-366776D01*
X444246Y-370967D02*
X448945D01*
X468884Y-366776D02*
X473075Y-370967D01*
X477774D01*
X942606Y243720D02*
Y255912D01*
X918730Y221622D02*
X934478D01*
X943368Y217431D02*
Y223756D01*
X910348Y255912D02*
X942606D01*
X910348Y249054D02*
Y255912D01*
X909840Y217431D02*
Y223756D01*
X914539Y217431D02*
X918730Y221622D01*
X909840Y217431D02*
X914539D01*
X934478Y221622D02*
X938669Y217431D01*
X943368D01*
X1131455Y235465D02*
X1136154D01*
X1127264Y239656D02*
X1131455Y235465D01*
X1102626D02*
X1107325D01*
X1111516Y239656D01*
X1102626Y235465D02*
Y241790D01*
X1103134Y267088D02*
Y273946D01*
X1135392D01*
X1136154Y235465D02*
Y241790D01*
X1111516Y239656D02*
X1127264D01*
X1135392Y261754D02*
Y273946D01*
X1327912Y243078D02*
Y255270D01*
X1304036Y220980D02*
X1319784D01*
X1328674Y216789D02*
Y223114D01*
X1295654Y255270D02*
X1327912D01*
X1295654Y248412D02*
Y255270D01*
X1295146Y216789D02*
Y223114D01*
X1299845Y216789D02*
X1304036Y220980D01*
X1295146Y216789D02*
X1299845D01*
X1319784Y220980D02*
X1323975Y216789D01*
X1328674D01*
X1322705Y31115D02*
X1327404D01*
X1318514Y35306D02*
X1322705Y31115D01*
X1293876D02*
X1298575D01*
X1302766Y35306D01*
X1293876Y31115D02*
Y37440D01*
X1294384Y62738D02*
Y69596D01*
X1326642D01*
X1327404Y31115D02*
Y37440D01*
X1302766Y35306D02*
X1318514D01*
X1326642Y57404D02*
Y69596D01*
X751840Y45720D02*
Y57912D01*
X727964Y23622D02*
X743712D01*
X752602Y19431D02*
Y25756D01*
X719582Y57912D02*
X751840D01*
X719582Y51054D02*
Y57912D01*
X719074Y19431D02*
Y25756D01*
X723773Y19431D02*
X727964Y23622D01*
X719074Y19431D02*
X723773D01*
X743712Y23622D02*
X747903Y19431D01*
X752602D01*
X555777Y63533D02*
X560476D01*
X551586Y67724D02*
X555777Y63533D01*
X526948D02*
X531647D01*
X535838Y67724D01*
X526948Y63533D02*
Y69858D01*
X527456Y95156D02*
Y102014D01*
X559714D01*
X560476Y63533D02*
Y69858D01*
X535838Y67724D02*
X551586D01*
X559714Y89822D02*
Y102014D01*
X302514Y-259334D02*
Y-247142D01*
X310642Y-225044D02*
X326390D01*
X301752Y-227178D02*
Y-220853D01*
X302514Y-259334D02*
X334772D01*
Y-252476D01*
X335280Y-227178D02*
Y-220853D01*
X326390Y-225044D02*
X330581Y-220853D01*
X335280D01*
X306451D02*
X310642Y-225044D01*
X301752Y-220853D02*
X306451D01*
X1518424Y409328D02*
Y421520D01*
X1494548Y387230D02*
X1510296D01*
X1519186Y383039D02*
Y389364D01*
X1486166Y421520D02*
X1518424D01*
X1486166Y414662D02*
Y421520D01*
X1485658Y383039D02*
Y389364D01*
X1490357Y383039D02*
X1494548Y387230D01*
X1485658Y383039D02*
X1490357D01*
X1510296Y387230D02*
X1514487Y383039D01*
X1519186D01*
X945388Y54356D02*
Y66548D01*
X921512Y32258D02*
X937260D01*
X946150Y28067D02*
Y34392D01*
X913130Y66548D02*
X945388D01*
X913130Y59690D02*
Y66548D01*
X912622Y28067D02*
Y34392D01*
X917321Y28067D02*
X921512Y32258D01*
X912622Y28067D02*
X917321D01*
X937260Y32258D02*
X941451Y28067D01*
X946150D01*
X749808Y234188D02*
Y246380D01*
X725932Y212090D02*
X741680D01*
X750570Y207899D02*
Y214224D01*
X717550Y246380D02*
X749808D01*
X717550Y239522D02*
Y246380D01*
X717042Y207899D02*
Y214224D01*
X721741Y207899D02*
X725932Y212090D01*
X717042Y207899D02*
X721741D01*
X741680Y212090D02*
X745871Y207899D01*
X750570D01*
X356997Y-111125D02*
X361696D01*
X352806Y-106934D02*
X356997Y-111125D01*
X328168D02*
X332867D01*
X337058Y-106934D01*
X328168Y-111125D02*
Y-104800D01*
X328676Y-79502D02*
Y-72644D01*
X360934D01*
X361696Y-111125D02*
Y-104800D01*
X337058Y-106934D02*
X352806D01*
X360934Y-84836D02*
Y-72644D01*
X1131951Y419227D02*
X1136650D01*
X1127760Y423418D02*
X1131951Y419227D01*
X1103122D02*
X1107821D01*
X1112012Y423418D01*
X1103122Y419227D02*
Y425552D01*
X1103630Y450850D02*
Y457708D01*
X1135888D01*
X1136650Y419227D02*
Y425552D01*
X1112012Y423418D02*
X1127760D01*
X1135888Y445516D02*
Y457708D01*
X750697Y400939D02*
X755396D01*
X746506Y405130D02*
X750697Y400939D01*
X721868D02*
X726567D01*
X730758Y405130D01*
X721868Y400939D02*
Y407264D01*
X722376Y432562D02*
Y439420D01*
X754634D01*
X755396Y400939D02*
Y407264D01*
X730758Y405130D02*
X746506D01*
X754634Y427228D02*
Y439420D01*
X511683Y588391D02*
X516382D01*
X507492Y592582D02*
X511683Y588391D01*
X482854D02*
X487553D01*
X491744Y592582D01*
X482854Y588391D02*
Y594716D01*
X483362Y620014D02*
Y626872D01*
X515620D01*
X516382Y588391D02*
Y594716D01*
X491744Y592582D02*
X507492D01*
X515620Y614680D02*
Y626872D01*
X416052Y-414274D02*
Y-402082D01*
X392176Y-436372D02*
X407924D01*
X416814Y-440563D02*
Y-434238D01*
X383794Y-402082D02*
X416052D01*
X383794Y-408940D02*
Y-402082D01*
X383286Y-440563D02*
Y-434238D01*
X387985Y-440563D02*
X392176Y-436372D01*
X383286Y-440563D02*
X387985D01*
X407924Y-436372D02*
X412115Y-440563D01*
X416814D01*
X210820Y-80010D02*
Y-67818D01*
X218948Y-45720D02*
X234696D01*
X210058Y-47854D02*
Y-41529D01*
X210820Y-80010D02*
X243078D01*
Y-73152D01*
X243586Y-47854D02*
Y-41529D01*
X234696Y-45720D02*
X238887Y-41529D01*
X243586D01*
X214757D02*
X218948Y-45720D01*
X210058Y-41529D02*
X214757D01*
X307340Y281305D02*
X312039D01*
X316230Y277114D01*
X336169Y281305D02*
X340868D01*
X331978Y277114D02*
X336169Y281305D01*
X340868Y274980D02*
Y281305D01*
X340360Y242824D02*
Y249682D01*
X308102Y242824D02*
X340360D01*
X307340Y274980D02*
Y281305D01*
X316230Y277114D02*
X331978D01*
X308102Y242824D02*
Y255016D01*
X318989Y804545D02*
X320583D01*
X318989Y784987D02*
X320583D01*
X396243Y261620D02*
Y264159D01*
Y262890D01*
X403861D01*
Y261620D01*
Y264159D01*
X396243Y271777D02*
Y269237D01*
X397513Y267968D01*
X402591D01*
X403861Y269237D01*
Y271777D01*
X402591Y273046D01*
X397513D01*
X396243Y271777D01*
X403861Y287012D02*
Y284473D01*
X402591Y283203D01*
X400052D01*
X398783Y284473D01*
Y287012D01*
X400052Y288281D01*
X401322D01*
Y283203D01*
X398783Y290821D02*
X403861Y295899D01*
X401322Y293360D01*
X398783Y295899D01*
X403861Y290821D01*
X406400Y298438D02*
X398783D01*
Y302247D01*
X400052Y303516D01*
X402591D01*
X403861Y302247D01*
Y298438D01*
Y313673D02*
X396243D01*
Y317482D01*
X397513Y318752D01*
X400052D01*
X401322Y317482D01*
Y313673D01*
Y316212D02*
X403861Y318752D01*
Y325099D02*
Y322560D01*
X402591Y321291D01*
X400052D01*
X398783Y322560D01*
Y325099D01*
X400052Y326369D01*
X401322D01*
Y321291D01*
X403861Y328908D02*
Y332717D01*
X402591Y333987D01*
X401322Y332717D01*
Y330178D01*
X400052Y328908D01*
X398783Y330178D01*
Y333987D01*
X403861Y340335D02*
Y337795D01*
X402591Y336526D01*
X400052D01*
X398783Y337795D01*
Y340335D01*
X400052Y341604D01*
X401322D01*
Y336526D01*
X397513Y345413D02*
X398783D01*
Y344143D01*
Y346683D01*
Y345413D01*
X402591D01*
X403861Y346683D01*
X65786Y521713D02*
Y514096D01*
X69595D01*
X70864Y515366D01*
Y520444D01*
X69595Y521713D01*
X65786D01*
X73404Y514096D02*
Y521713D01*
X78482Y514096D01*
Y521713D01*
X81021Y514096D02*
Y521713D01*
X84830D01*
X86099Y520444D01*
Y517905D01*
X84830Y516635D01*
X81021D01*
X315471Y191008D02*
X323088D01*
Y194817D01*
X321818Y196086D01*
X316740D01*
X315471Y194817D01*
Y191008D01*
X323088Y198626D02*
X315471D01*
X323088Y203704D01*
X315471D01*
X323088Y206243D02*
X315471D01*
Y210052D01*
X316740Y211321D01*
X319279D01*
X320549Y210052D01*
Y206243D01*
X59436Y849119D02*
X64514D01*
X61975D01*
Y841501D01*
X70862D02*
X68323D01*
X67053Y842771D01*
Y845310D01*
X68323Y846580D01*
X70862D01*
X72132Y845310D01*
Y844040D01*
X67053D01*
X74671Y841501D02*
Y846580D01*
X75941D01*
X77210Y845310D01*
Y841501D01*
Y845310D01*
X78480Y846580D01*
X79749Y845310D01*
Y841501D01*
X82289Y838962D02*
Y846580D01*
X86097D01*
X87367Y845310D01*
Y842771D01*
X86097Y841501D01*
X82289D01*
X102602Y847849D02*
X101333Y849119D01*
X98793D01*
X97524Y847849D01*
Y846580D01*
X98793Y845310D01*
X101333D01*
X102602Y844040D01*
Y842771D01*
X101333Y841501D01*
X98793D01*
X97524Y842771D01*
X108950Y841501D02*
X106411D01*
X105141Y842771D01*
Y845310D01*
X106411Y846580D01*
X108950D01*
X110220Y845310D01*
Y844040D01*
X105141D01*
X112759Y841501D02*
Y846580D01*
X116567D01*
X117837Y845310D01*
Y841501D01*
X120376D02*
X124185D01*
X125455Y842771D01*
X124185Y844040D01*
X121646D01*
X120376Y845310D01*
X121646Y846580D01*
X125455D01*
X129263Y841501D02*
X131803D01*
X133072Y842771D01*
Y845310D01*
X131803Y846580D01*
X129263D01*
X127994Y845310D01*
Y842771D01*
X129263Y841501D01*
X135611Y846580D02*
Y841501D01*
Y844040D01*
X136881Y845310D01*
X138151Y846580D01*
X139420D01*
X421892Y829562D02*
X420623Y830832D01*
X418084D01*
X416814Y829562D01*
Y828292D01*
X418084Y827023D01*
X420623D01*
X421892Y825753D01*
Y824484D01*
X420623Y823214D01*
X418084D01*
X416814Y824484D01*
X424431Y830832D02*
Y823214D01*
X426971Y825753D01*
X429510Y823214D01*
Y830832D01*
X432049D02*
Y823214D01*
X435858D01*
X437127Y824484D01*
Y829562D01*
X435858Y830832D01*
X432049D01*
X425028Y876299D02*
Y872237D01*
X427060D01*
X427737Y872914D01*
Y875622D01*
X427060Y876299D01*
X425028D01*
X431122Y872237D02*
Y876299D01*
X429091Y874268D01*
X431799D01*
X433154Y872237D02*
X434508D01*
X433831D01*
Y876299D01*
X433154Y875622D01*
D15*
X391158Y809845D02*
G03*
X391027Y809851I0J1500D01*
G01*
D16*
X436822Y67310D02*
Y94932D01*
X429006Y102748D02*
X436822Y94932D01*
Y150177D02*
Y177800D01*
X429006Y142361D02*
X436822Y150177D01*
X429006Y102748D02*
Y142361D01*
X16822Y67310D02*
X436822D01*
X16822Y94932D02*
Y150177D01*
Y177800D02*
X436822D01*
X376936Y116952D02*
Y130952D01*
X369936Y123952D02*
X383936D01*
X68580Y124968D02*
X82580D01*
X16822Y150177D02*
Y177800D01*
Y67310D02*
Y94932D01*
X173898Y584602D02*
X352898D01*
X173898Y539602D02*
Y584602D01*
X352898Y539602D02*
Y584602D01*
X173898Y539602D02*
X352898D01*
X410182Y355628D02*
X470182D01*
X410182Y295628D02*
Y355628D01*
Y295628D02*
X470182D01*
Y355628D01*
X510780Y812100D02*
Y815100D01*
Y785100D02*
Y788100D01*
X540780Y812100D02*
Y815100D01*
Y785100D02*
Y788100D01*
X510780Y815100D02*
X513780D01*
X510780Y785100D02*
X513780D01*
X537780Y815100D02*
X540780D01*
X537780Y785100D02*
X540780D01*
X439482Y599680D02*
X442482D01*
X439482Y629680D02*
X442482D01*
X412482Y599680D02*
X415482D01*
X412482Y629680D02*
X415482D01*
X442482Y599680D02*
Y602680D01*
Y626680D02*
Y629680D01*
X412482Y599680D02*
Y602680D01*
Y626680D02*
Y629680D01*
X187318Y724926D02*
Y732526D01*
X202318Y724926D02*
Y732526D01*
X293852Y389916D02*
Y393016D01*
Y421816D02*
Y424916D01*
X258852Y389916D02*
Y393016D01*
Y421816D02*
Y424916D01*
X261952D01*
X290752D02*
X293852D01*
X258852Y389916D02*
X261952D01*
X290752D02*
X293852D01*
X159258Y313436D02*
Y411734D01*
X101854Y313436D02*
Y411734D01*
X159258D01*
X101854Y313436D02*
X159258D01*
X5332Y243630D02*
Y333030D01*
X9634D01*
X33034D02*
X49834D01*
X5332Y243630D02*
X9634D01*
X33034D02*
X49834D01*
X49831Y492690D02*
X65306D01*
X5306D02*
X20781D01*
X49831Y388690D02*
X65306D01*
X5306D02*
X20781D01*
X5306Y465690D02*
Y492690D01*
Y415690D02*
Y465690D01*
Y388690D02*
Y415690D01*
X65306Y388690D02*
Y492690D01*
X5306Y465690D02*
X10414D01*
Y415690D02*
Y465690D01*
X5306Y415690D02*
X10414D01*
X134705Y530690D02*
X134028Y531367D01*
X132674D01*
X131997Y530690D01*
Y527982D01*
X132674Y527305D01*
X134028D01*
X134705Y527982D01*
X136060Y531367D02*
X138768D01*
Y530690D01*
X136060Y527982D01*
Y527305D01*
X140122Y530690D02*
X140800Y531367D01*
X142154D01*
X142831Y530690D01*
Y527982D01*
X142154Y527305D01*
X140800D01*
X140122Y527982D01*
Y530690D01*
X128102Y589618D02*
X127424Y590295D01*
X126070D01*
X125393Y589618D01*
Y586910D01*
X126070Y586233D01*
X127424D01*
X128102Y586910D01*
X132164Y590295D02*
X130810Y589618D01*
X129456Y588264D01*
Y586910D01*
X130133Y586233D01*
X131487D01*
X132164Y586910D01*
Y587587D01*
X131487Y588264D01*
X129456D01*
X133518Y586910D02*
X134196Y586233D01*
X135550D01*
X136227Y586910D01*
Y589618D01*
X135550Y590295D01*
X134196D01*
X133518Y589618D01*
Y588941D01*
X134196Y588264D01*
X136227D01*
X440013Y331046D02*
X439336Y331723D01*
X437981D01*
X437304Y331046D01*
Y330369D01*
X437981Y329692D01*
X439336D01*
X440013Y329015D01*
Y328338D01*
X439336Y327661D01*
X437981D01*
X437304Y328338D01*
X444076Y327661D02*
X441367D01*
X444076Y330369D01*
Y331046D01*
X443399Y331723D01*
X442044D01*
X441367Y331046D01*
X371265Y373127D02*
Y377189D01*
X373296D01*
X373974Y376512D01*
Y375158D01*
X373296Y374481D01*
X371265D01*
X372619D02*
X373974Y373127D01*
X375328Y376512D02*
X376005Y377189D01*
X377359D01*
X378036Y376512D01*
Y375835D01*
X377359Y375158D01*
X376682D01*
X377359D01*
X378036Y374481D01*
Y373804D01*
X377359Y373127D01*
X376005D01*
X375328Y373804D01*
X379390Y376512D02*
X380068Y377189D01*
X381422D01*
X382099Y376512D01*
Y375835D01*
X381422Y375158D01*
X382099Y374481D01*
Y373804D01*
X381422Y373127D01*
X380068D01*
X379390Y373804D01*
Y374481D01*
X380068Y375158D01*
X379390Y375835D01*
Y376512D01*
X380068Y375158D02*
X381422D01*
X486241Y-410888D02*
X485564Y-410211D01*
X484210D01*
X483533Y-410888D01*
Y-413596D01*
X484210Y-414273D01*
X485564D01*
X486241Y-413596D01*
X490304Y-410211D02*
X488950Y-410888D01*
X487596Y-412242D01*
Y-413596D01*
X488273Y-414273D01*
X489627D01*
X490304Y-413596D01*
Y-412919D01*
X489627Y-412242D01*
X487596D01*
X491659Y-410888D02*
X492336Y-410211D01*
X493690D01*
X494367Y-410888D01*
Y-411565D01*
X493690Y-412242D01*
X494367Y-412919D01*
Y-413596D01*
X493690Y-414273D01*
X492336D01*
X491659Y-413596D01*
Y-412919D01*
X492336Y-412242D01*
X491659Y-411565D01*
Y-410888D01*
X492336Y-412242D02*
X493690D01*
X941155Y-186352D02*
X940478Y-185675D01*
X939124D01*
X938447Y-186352D01*
Y-189060D01*
X939124Y-189737D01*
X940478D01*
X941155Y-189060D01*
X945218Y-185675D02*
X943864Y-186352D01*
X942510Y-187706D01*
Y-189060D01*
X943187Y-189737D01*
X944541D01*
X945218Y-189060D01*
Y-188383D01*
X944541Y-187706D01*
X942510D01*
X946572Y-185675D02*
X949281D01*
Y-186352D01*
X946572Y-189060D01*
Y-189737D01*
X1101937Y-182288D02*
X1101260Y-181611D01*
X1099906D01*
X1099229Y-182288D01*
Y-184996D01*
X1099906Y-185673D01*
X1101260D01*
X1101937Y-184996D01*
X1106000Y-181611D02*
X1104646Y-182288D01*
X1103292Y-183642D01*
Y-184996D01*
X1103969Y-185673D01*
X1105323D01*
X1106000Y-184996D01*
Y-184319D01*
X1105323Y-183642D01*
X1103292D01*
X1110063Y-181611D02*
X1108709Y-182288D01*
X1107355Y-183642D01*
Y-184996D01*
X1108032Y-185673D01*
X1109386D01*
X1110063Y-184996D01*
Y-184319D01*
X1109386Y-183642D01*
X1107355D01*
X1205824Y6942D02*
X1205146Y7619D01*
X1203792D01*
X1203115Y6942D01*
Y4234D01*
X1203792Y3557D01*
X1205146D01*
X1205824Y4234D01*
X1209886Y7619D02*
X1208532Y6942D01*
X1207178Y5588D01*
Y4234D01*
X1207855Y3557D01*
X1209209D01*
X1209886Y4234D01*
Y4911D01*
X1209209Y5588D01*
X1207178D01*
X1213949Y7619D02*
X1211240D01*
Y5588D01*
X1212595Y6265D01*
X1213272D01*
X1213949Y5588D01*
Y4234D01*
X1213272Y3557D01*
X1211918D01*
X1211240Y4234D01*
X1325204Y-187368D02*
X1324526Y-186691D01*
X1323172D01*
X1322495Y-187368D01*
Y-190076D01*
X1323172Y-190753D01*
X1324526D01*
X1325204Y-190076D01*
X1329266Y-186691D02*
X1327912Y-187368D01*
X1326558Y-188722D01*
Y-190076D01*
X1327235Y-190753D01*
X1328589D01*
X1329266Y-190076D01*
Y-189399D01*
X1328589Y-188722D01*
X1326558D01*
X1332652Y-190753D02*
Y-186691D01*
X1330621Y-188722D01*
X1333329D01*
X1408515Y-192956D02*
X1407838Y-192279D01*
X1406484D01*
X1405807Y-192956D01*
Y-195664D01*
X1406484Y-196341D01*
X1407838D01*
X1408515Y-195664D01*
X1412578Y-192279D02*
X1411224Y-192956D01*
X1409870Y-194310D01*
Y-195664D01*
X1410547Y-196341D01*
X1411901D01*
X1412578Y-195664D01*
Y-194987D01*
X1411901Y-194310D01*
X1409870D01*
X1413932Y-192956D02*
X1414610Y-192279D01*
X1415964D01*
X1416641Y-192956D01*
Y-193633D01*
X1415964Y-194310D01*
X1415287D01*
X1415964D01*
X1416641Y-194987D01*
Y-195664D01*
X1415964Y-196341D01*
X1414610D01*
X1413932Y-195664D01*
X1433916Y-35476D02*
X1433238Y-34799D01*
X1431884D01*
X1431207Y-35476D01*
Y-38184D01*
X1431884Y-38861D01*
X1433238D01*
X1433916Y-38184D01*
X1437978Y-34799D02*
X1436624Y-35476D01*
X1435270Y-36830D01*
Y-38184D01*
X1435947Y-38861D01*
X1437301D01*
X1437978Y-38184D01*
Y-37507D01*
X1437301Y-36830D01*
X1435270D01*
X1442041Y-38861D02*
X1439332D01*
X1442041Y-36153D01*
Y-35476D01*
X1441364Y-34799D01*
X1440010D01*
X1439332Y-35476D01*
X439167Y-393362D02*
X438489Y-392685D01*
X437135D01*
X436458Y-393362D01*
Y-396070D01*
X437135Y-396747D01*
X438489D01*
X439167Y-396070D01*
X443229Y-392685D02*
X441875Y-393362D01*
X440521Y-394716D01*
Y-396070D01*
X441198Y-396747D01*
X442552D01*
X443229Y-396070D01*
Y-395393D01*
X442552Y-394716D01*
X440521D01*
X444584Y-396747D02*
X445938D01*
X445261D01*
Y-392685D01*
X444584Y-393362D01*
X1634068Y-6012D02*
X1633390Y-5335D01*
X1632036D01*
X1631359Y-6012D01*
Y-8720D01*
X1632036Y-9397D01*
X1633390D01*
X1634068Y-8720D01*
X1638130Y-5335D02*
X1636776Y-6012D01*
X1635422Y-7366D01*
Y-8720D01*
X1636099Y-9397D01*
X1637453D01*
X1638130Y-8720D01*
Y-8043D01*
X1637453Y-7366D01*
X1635422D01*
X1639485Y-6012D02*
X1640162Y-5335D01*
X1641516D01*
X1642193Y-6012D01*
Y-8720D01*
X1641516Y-9397D01*
X1640162D01*
X1639485Y-8720D01*
Y-6012D01*
X1597238Y-190416D02*
X1596560Y-189739D01*
X1595206D01*
X1594529Y-190416D01*
Y-193124D01*
X1595206Y-193801D01*
X1596560D01*
X1597238Y-193124D01*
X1601300Y-189739D02*
X1598592D01*
Y-191770D01*
X1599946Y-191093D01*
X1600623D01*
X1601300Y-191770D01*
Y-193124D01*
X1600623Y-193801D01*
X1599269D01*
X1598592Y-193124D01*
X1602655D02*
X1603332Y-193801D01*
X1604686D01*
X1605363Y-193124D01*
Y-190416D01*
X1604686Y-189739D01*
X1603332D01*
X1602655Y-190416D01*
Y-191093D01*
X1603332Y-191770D01*
X1605363D01*
X1173311Y12784D02*
X1172634Y13461D01*
X1171280D01*
X1170603Y12784D01*
Y10076D01*
X1171280Y9399D01*
X1172634D01*
X1173311Y10076D01*
X1177374Y13461D02*
X1174666D01*
Y11430D01*
X1176020Y12107D01*
X1176697D01*
X1177374Y11430D01*
Y10076D01*
X1176697Y9399D01*
X1175343D01*
X1174666Y10076D01*
X1178728Y12784D02*
X1179406Y13461D01*
X1180760D01*
X1181437Y12784D01*
Y12107D01*
X1180760Y11430D01*
X1181437Y10753D01*
Y10076D01*
X1180760Y9399D01*
X1179406D01*
X1178728Y10076D01*
Y10753D01*
X1179406Y11430D01*
X1178728Y12107D01*
Y12784D01*
X1179406Y11430D02*
X1180760D01*
X594953Y-331386D02*
X594276Y-330709D01*
X592922D01*
X592245Y-331386D01*
Y-334094D01*
X592922Y-334771D01*
X594276D01*
X594953Y-334094D01*
X599016Y-330709D02*
X596308D01*
Y-332740D01*
X597662Y-332063D01*
X598339D01*
X599016Y-332740D01*
Y-334094D01*
X598339Y-334771D01*
X596985D01*
X596308Y-334094D01*
X600370Y-330709D02*
X603079D01*
Y-331386D01*
X600370Y-334094D01*
Y-334771D01*
X226653Y-122090D02*
X225976Y-121413D01*
X224622D01*
X223945Y-122090D01*
Y-124798D01*
X224622Y-125475D01*
X225976D01*
X226653Y-124798D01*
X230716Y-121413D02*
X228008D01*
Y-123444D01*
X229362Y-122767D01*
X230039D01*
X230716Y-123444D01*
Y-124798D01*
X230039Y-125475D01*
X228685D01*
X228008Y-124798D01*
X234779Y-121413D02*
X233425Y-122090D01*
X232071Y-123444D01*
Y-124798D01*
X232748Y-125475D01*
X234102D01*
X234779Y-124798D01*
Y-124121D01*
X234102Y-123444D01*
X232071D01*
X355006Y-165524D02*
X354329Y-164847D01*
X352975D01*
X352298Y-165524D01*
Y-168233D01*
X352975Y-168910D01*
X354329D01*
X355006Y-168233D01*
X359069Y-164847D02*
X356361D01*
Y-166879D01*
X357715Y-166201D01*
X358392D01*
X359069Y-166879D01*
Y-168233D01*
X358392Y-168910D01*
X357038D01*
X356361Y-168233D01*
X363132Y-164847D02*
X360423D01*
Y-166879D01*
X361778Y-166201D01*
X362455D01*
X363132Y-166879D01*
Y-168233D01*
X362455Y-168910D01*
X361101D01*
X360423Y-168233D01*
X614258Y35644D02*
X613580Y36321D01*
X612226D01*
X611549Y35644D01*
Y32936D01*
X612226Y32259D01*
X613580D01*
X614258Y32936D01*
X618320Y36321D02*
X615612D01*
Y34290D01*
X616966Y34967D01*
X617643D01*
X618320Y34290D01*
Y32936D01*
X617643Y32259D01*
X616289D01*
X615612Y32936D01*
X621706Y32259D02*
Y36321D01*
X619674Y34290D01*
X622383D01*
X679027Y-7282D02*
X678350Y-6605D01*
X676996D01*
X676319Y-7282D01*
Y-9990D01*
X676996Y-10667D01*
X678350D01*
X679027Y-9990D01*
X683090Y-6605D02*
X680382D01*
Y-8636D01*
X681736Y-7959D01*
X682413D01*
X683090Y-8636D01*
Y-9990D01*
X682413Y-10667D01*
X681059D01*
X680382Y-9990D01*
X684445Y-7282D02*
X685122Y-6605D01*
X686476D01*
X687153Y-7282D01*
Y-7959D01*
X686476Y-8636D01*
X685799D01*
X686476D01*
X687153Y-9313D01*
Y-9990D01*
X686476Y-10667D01*
X685122D01*
X684445Y-9990D01*
X973668Y22690D02*
X972990Y23367D01*
X971636D01*
X970959Y22690D01*
Y19982D01*
X971636Y19305D01*
X972990D01*
X973668Y19982D01*
X977730Y23367D02*
X975022D01*
Y21336D01*
X976376Y22013D01*
X977053D01*
X977730Y21336D01*
Y19982D01*
X977053Y19305D01*
X975699D01*
X975022Y19982D01*
X981793Y19305D02*
X979084D01*
X981793Y22013D01*
Y22690D01*
X981116Y23367D01*
X979762D01*
X979084Y22690D01*
X313691Y-126154D02*
X313013Y-125477D01*
X311659D01*
X310982Y-126154D01*
Y-128862D01*
X311659Y-129539D01*
X313013D01*
X313691Y-128862D01*
X317753Y-125477D02*
X315045D01*
Y-127508D01*
X316399Y-126831D01*
X317076D01*
X317753Y-127508D01*
Y-128862D01*
X317076Y-129539D01*
X315722D01*
X315045Y-128862D01*
X319108Y-129539D02*
X320462D01*
X319785D01*
Y-125477D01*
X319108Y-126154D01*
X1031580Y231986D02*
X1030902Y232663D01*
X1029548D01*
X1028871Y231986D01*
Y229278D01*
X1029548Y228601D01*
X1030902D01*
X1031580Y229278D01*
X1035642Y232663D02*
X1032934D01*
Y230632D01*
X1034288Y231309D01*
X1034965D01*
X1035642Y230632D01*
Y229278D01*
X1034965Y228601D01*
X1033611D01*
X1032934Y229278D01*
X1036997Y231986D02*
X1037674Y232663D01*
X1039028D01*
X1039705Y231986D01*
Y229278D01*
X1039028Y228601D01*
X1037674D01*
X1036997Y229278D01*
Y231986D01*
X1203029Y196172D02*
X1202352Y196849D01*
X1200998D01*
X1200321Y196172D01*
Y193464D01*
X1200998Y192787D01*
X1202352D01*
X1203029Y193464D01*
X1206415Y192787D02*
Y196849D01*
X1204384Y194818D01*
X1207092D01*
X1208447Y193464D02*
X1209124Y192787D01*
X1210478D01*
X1211155Y193464D01*
Y196172D01*
X1210478Y196849D01*
X1209124D01*
X1208447Y196172D01*
Y195495D01*
X1209124Y194818D01*
X1211155D01*
X1429597Y163914D02*
X1428920Y164591D01*
X1427566D01*
X1426889Y163914D01*
Y161206D01*
X1427566Y160529D01*
X1428920D01*
X1429597Y161206D01*
X1432983Y160529D02*
Y164591D01*
X1430952Y162560D01*
X1433660D01*
X1435014Y163914D02*
X1435692Y164591D01*
X1437046D01*
X1437723Y163914D01*
Y163237D01*
X1437046Y162560D01*
X1437723Y161883D01*
Y161206D01*
X1437046Y160529D01*
X1435692D01*
X1435014Y161206D01*
Y161883D01*
X1435692Y162560D01*
X1435014Y163237D01*
Y163914D01*
X1435692Y162560D02*
X1437046D01*
X1802469Y187028D02*
X1801792Y187705D01*
X1800438D01*
X1799761Y187028D01*
Y184320D01*
X1800438Y183643D01*
X1801792D01*
X1802469Y184320D01*
X1805855Y183643D02*
Y187705D01*
X1803824Y185674D01*
X1806532D01*
X1807887Y187705D02*
X1810595D01*
Y187028D01*
X1807887Y184320D01*
Y183643D01*
X1420791Y381846D02*
X1420113Y382523D01*
X1418759D01*
X1418082Y381846D01*
Y379137D01*
X1418759Y378460D01*
X1420113D01*
X1420791Y379137D01*
X1424176Y378460D02*
Y382523D01*
X1422145Y380491D01*
X1424853D01*
X1428916Y382523D02*
X1427562Y381846D01*
X1426207Y380491D01*
Y379137D01*
X1426884Y378460D01*
X1428239D01*
X1428916Y379137D01*
Y379814D01*
X1428239Y380491D01*
X1426207D01*
X1256624Y466428D02*
X1255946Y467105D01*
X1254592D01*
X1253915Y466428D01*
Y463720D01*
X1254592Y463043D01*
X1255946D01*
X1256624Y463720D01*
X1260009Y463043D02*
Y467105D01*
X1257978Y465074D01*
X1260686D01*
X1264749Y467105D02*
X1262040D01*
Y465074D01*
X1263395Y465751D01*
X1264072D01*
X1264749Y465074D01*
Y463720D01*
X1264072Y463043D01*
X1262718D01*
X1262040Y463720D01*
X1032087Y420200D02*
X1031410Y420877D01*
X1030056D01*
X1029379Y420200D01*
Y417492D01*
X1030056Y416815D01*
X1031410D01*
X1032087Y417492D01*
X1035473Y416815D02*
Y420877D01*
X1033442Y418846D01*
X1036150D01*
X1039536Y416815D02*
Y420877D01*
X1037505Y418846D01*
X1040213D01*
X852764Y414104D02*
X852086Y414781D01*
X850732D01*
X850055Y414104D01*
Y411396D01*
X850732Y410719D01*
X852086D01*
X852764Y411396D01*
X856149Y410719D02*
Y414781D01*
X854118Y412750D01*
X856826D01*
X858180Y414104D02*
X858858Y414781D01*
X860212D01*
X860889Y414104D01*
Y413427D01*
X860212Y412750D01*
X859535D01*
X860212D01*
X860889Y412073D01*
Y411396D01*
X860212Y410719D01*
X858858D01*
X858180Y411396D01*
X670137Y398356D02*
X669460Y399033D01*
X668106D01*
X667429Y398356D01*
Y395648D01*
X668106Y394971D01*
X669460D01*
X670137Y395648D01*
X673523Y394971D02*
Y399033D01*
X671492Y397002D01*
X674200D01*
X678263Y394971D02*
X675555D01*
X678263Y397679D01*
Y398356D01*
X677586Y399033D01*
X676232D01*
X675555Y398356D01*
X591821Y355176D02*
X591143Y355853D01*
X589789D01*
X589112Y355176D01*
Y352468D01*
X589789Y351791D01*
X591143D01*
X591821Y352468D01*
X595206Y351791D02*
Y355853D01*
X593175Y353822D01*
X595883D01*
X597238Y351791D02*
X598592D01*
X597915D01*
Y355853D01*
X597238Y355176D01*
X814918Y208872D02*
X814240Y209549D01*
X812886D01*
X812209Y208872D01*
Y206164D01*
X812886Y205487D01*
X814240D01*
X814918Y206164D01*
X818303Y205487D02*
Y209549D01*
X816272Y207518D01*
X818980D01*
X820334Y208872D02*
X821012Y209549D01*
X822366D01*
X823043Y208872D01*
Y206164D01*
X822366Y205487D01*
X821012D01*
X820334Y206164D01*
Y208872D01*
X856320Y186520D02*
X855642Y187197D01*
X854288D01*
X853611Y186520D01*
Y183812D01*
X854288Y183135D01*
X855642D01*
X856320Y183812D01*
X857674Y186520D02*
X858351Y187197D01*
X859705D01*
X860382Y186520D01*
Y185843D01*
X859705Y185166D01*
X859028D01*
X859705D01*
X860382Y184489D01*
Y183812D01*
X859705Y183135D01*
X858351D01*
X857674Y183812D01*
X861737D02*
X862414Y183135D01*
X863768D01*
X864445Y183812D01*
Y186520D01*
X863768Y187197D01*
X862414D01*
X861737Y186520D01*
Y185843D01*
X862414Y185166D01*
X864445D01*
X541189Y568790D02*
X540511Y569467D01*
X539157D01*
X538480Y568790D01*
Y566081D01*
X539157Y565404D01*
X540511D01*
X541189Y566081D01*
X542543Y568790D02*
X543220Y569467D01*
X544574D01*
X545251Y568790D01*
Y568112D01*
X544574Y567435D01*
X543897D01*
X544574D01*
X545251Y566758D01*
Y566081D01*
X544574Y565404D01*
X543220D01*
X542543Y566081D01*
X546605Y568790D02*
X547282Y569467D01*
X548637D01*
X549314Y568790D01*
Y568112D01*
X548637Y567435D01*
X549314Y566758D01*
Y566081D01*
X548637Y565404D01*
X547282D01*
X546605Y566081D01*
Y566758D01*
X547282Y567435D01*
X546605Y568112D01*
Y568790D01*
X547282Y567435D02*
X548637D01*
X678773Y564726D02*
X678096Y565403D01*
X676742D01*
X676065Y564726D01*
Y562018D01*
X676742Y561341D01*
X678096D01*
X678773Y562018D01*
X680128Y564726D02*
X680805Y565403D01*
X682159D01*
X682836Y564726D01*
Y564049D01*
X682159Y563372D01*
X681482D01*
X682159D01*
X682836Y562695D01*
Y562018D01*
X682159Y561341D01*
X680805D01*
X680128Y562018D01*
X684191Y565403D02*
X686899D01*
Y564726D01*
X684191Y562018D01*
Y561341D01*
X845988Y596984D02*
X845311Y597661D01*
X843957D01*
X843280Y596984D01*
Y594275D01*
X843957Y593598D01*
X845311D01*
X845988Y594275D01*
X847343Y596984D02*
X848020Y597661D01*
X849374D01*
X850051Y596984D01*
Y596306D01*
X849374Y595629D01*
X848697D01*
X849374D01*
X850051Y594952D01*
Y594275D01*
X849374Y593598D01*
X848020D01*
X847343Y594275D01*
X854114Y597661D02*
X852760Y596984D01*
X851405Y595629D01*
Y594275D01*
X852083Y593598D01*
X853437D01*
X854114Y594275D01*
Y594952D01*
X853437Y595629D01*
X851405D01*
X1028785Y608668D02*
X1028108Y609345D01*
X1026754D01*
X1026077Y608668D01*
Y605960D01*
X1026754Y605283D01*
X1028108D01*
X1028785Y605960D01*
X1030140Y608668D02*
X1030817Y609345D01*
X1032171D01*
X1032848Y608668D01*
Y607991D01*
X1032171Y607314D01*
X1031494D01*
X1032171D01*
X1032848Y606637D01*
Y605960D01*
X1032171Y605283D01*
X1030817D01*
X1030140Y605960D01*
X1036911Y609345D02*
X1034202D01*
Y607314D01*
X1035557Y607991D01*
X1036234D01*
X1036911Y607314D01*
Y605960D01*
X1036234Y605283D01*
X1034880D01*
X1034202Y605960D01*
X1212935Y590126D02*
X1212258Y590803D01*
X1210904D01*
X1210227Y590126D01*
Y587418D01*
X1210904Y586741D01*
X1212258D01*
X1212935Y587418D01*
X1214290Y590126D02*
X1214967Y590803D01*
X1216321D01*
X1216998Y590126D01*
Y589449D01*
X1216321Y588772D01*
X1215644D01*
X1216321D01*
X1216998Y588095D01*
Y587418D01*
X1216321Y586741D01*
X1214967D01*
X1214290Y587418D01*
X1220384Y586741D02*
Y590803D01*
X1218353Y588772D01*
X1221061D01*
X1437218Y570568D02*
X1436540Y571245D01*
X1435186D01*
X1434509Y570568D01*
Y567860D01*
X1435186Y567183D01*
X1436540D01*
X1437218Y567860D01*
X1438572Y570568D02*
X1439249Y571245D01*
X1440603D01*
X1441280Y570568D01*
Y569891D01*
X1440603Y569214D01*
X1439926D01*
X1440603D01*
X1441280Y568537D01*
Y567860D01*
X1440603Y567183D01*
X1439249D01*
X1438572Y567860D01*
X1442634Y570568D02*
X1443312Y571245D01*
X1444666D01*
X1445343Y570568D01*
Y569891D01*
X1444666Y569214D01*
X1443989D01*
X1444666D01*
X1445343Y568537D01*
Y567860D01*
X1444666Y567183D01*
X1443312D01*
X1442634Y567860D01*
X1777914Y640418D02*
X1777237Y641095D01*
X1775883D01*
X1775206Y640418D01*
Y637709D01*
X1775883Y637032D01*
X1777237D01*
X1777914Y637709D01*
X1779269Y640418D02*
X1779946Y641095D01*
X1781300D01*
X1781977Y640418D01*
Y639740D01*
X1781300Y639063D01*
X1780623D01*
X1781300D01*
X1781977Y638386D01*
Y637709D01*
X1781300Y637032D01*
X1779946D01*
X1779269Y637709D01*
X1786040Y637032D02*
X1783331D01*
X1786040Y639740D01*
Y640418D01*
X1785363Y641095D01*
X1784008D01*
X1783331Y640418D01*
X1643040Y380322D02*
X1642363Y380999D01*
X1641009D01*
X1640332Y380322D01*
Y377613D01*
X1641009Y376936D01*
X1642363D01*
X1643040Y377613D01*
X1644395Y380322D02*
X1645072Y380999D01*
X1646426D01*
X1647103Y380322D01*
Y379645D01*
X1646426Y378967D01*
X1645749D01*
X1646426D01*
X1647103Y378290D01*
Y377613D01*
X1646426Y376936D01*
X1645072D01*
X1644395Y377613D01*
X1648457Y376936D02*
X1649812D01*
X1649135D01*
Y380999D01*
X1648457Y380322D01*
X586063Y855810D02*
X585386Y856487D01*
X584032D01*
X583355Y855810D01*
Y853102D01*
X584032Y852425D01*
X585386D01*
X586063Y853102D01*
X587418Y855810D02*
X588095Y856487D01*
X589449D01*
X590126Y855810D01*
Y855133D01*
X589449Y854456D01*
X588772D01*
X589449D01*
X590126Y853779D01*
Y853102D01*
X589449Y852425D01*
X588095D01*
X587418Y853102D01*
X591480Y855810D02*
X592158Y856487D01*
X593512D01*
X594189Y855810D01*
Y853102D01*
X593512Y852425D01*
X592158D01*
X591480Y853102D01*
Y855810D01*
X665819Y800438D02*
X665142Y801115D01*
X663788D01*
X663111Y800438D01*
Y797730D01*
X663788Y797053D01*
X665142D01*
X665819Y797730D01*
X669882Y797053D02*
X667174D01*
X669882Y799761D01*
Y800438D01*
X669205Y801115D01*
X667851D01*
X667174Y800438D01*
X671236Y797730D02*
X671914Y797053D01*
X673268D01*
X673945Y797730D01*
Y800438D01*
X673268Y801115D01*
X671914D01*
X671236Y800438D01*
Y799761D01*
X671914Y799084D01*
X673945D01*
X146643Y808312D02*
X145966Y808989D01*
X144612D01*
X143935Y808312D01*
Y805604D01*
X144612Y804927D01*
X145966D01*
X146643Y805604D01*
X150706Y804927D02*
X147998D01*
X150706Y807635D01*
Y808312D01*
X150029Y808989D01*
X148675D01*
X147998Y808312D01*
X152060D02*
X152738Y808989D01*
X154092D01*
X154769Y808312D01*
Y807635D01*
X154092Y806958D01*
X154769Y806281D01*
Y805604D01*
X154092Y804927D01*
X152738D01*
X152060Y805604D01*
Y806281D01*
X152738Y806958D01*
X152060Y807635D01*
Y808312D01*
X152738Y806958D02*
X154092D01*
X498941Y280754D02*
X498264Y281431D01*
X496910D01*
X496233Y280754D01*
Y278046D01*
X496910Y277369D01*
X498264D01*
X498941Y278046D01*
X503004Y277369D02*
X500296D01*
X503004Y280077D01*
Y280754D01*
X502327Y281431D01*
X500973D01*
X500296Y280754D01*
X504358Y281431D02*
X507067D01*
Y280754D01*
X504358Y278046D01*
Y277369D01*
X193718Y887475D02*
Y883413D01*
Y885444D01*
X196427D01*
Y887475D01*
Y883413D01*
X197781Y886798D02*
X198458Y887475D01*
X199813D01*
X200490Y886798D01*
Y886121D01*
X199813Y885444D01*
X199135D01*
X199813D01*
X200490Y884767D01*
Y884090D01*
X199813Y883413D01*
X198458D01*
X197781Y884090D01*
X720175Y817202D02*
X719498Y817879D01*
X718144D01*
X717467Y817202D01*
Y814494D01*
X718144Y813817D01*
X719498D01*
X720175Y814494D01*
X724238Y813817D02*
X721530D01*
X724238Y816525D01*
Y817202D01*
X723561Y817879D01*
X722207D01*
X721530Y817202D01*
X728301Y817879D02*
X726947Y817202D01*
X725592Y815848D01*
Y814494D01*
X726270Y813817D01*
X727624D01*
X728301Y814494D01*
Y815171D01*
X727624Y815848D01*
X725592D01*
X145968Y552197D02*
Y556259D01*
X147999D01*
X148676Y555582D01*
Y554228D01*
X147999Y553551D01*
X145968D01*
X147322D02*
X148676Y552197D01*
X150030Y555582D02*
X150708Y556259D01*
X152062D01*
X152739Y555582D01*
Y554905D01*
X152062Y554228D01*
X151385D01*
X152062D01*
X152739Y553551D01*
Y552874D01*
X152062Y552197D01*
X150708D01*
X150030Y552874D01*
X154093Y555582D02*
X154770Y556259D01*
X156124D01*
X156802Y555582D01*
Y554905D01*
X156124Y554228D01*
X155447D01*
X156124D01*
X156802Y553551D01*
Y552874D01*
X156124Y552197D01*
X154770D01*
X154093Y552874D01*
X158156Y555582D02*
X158833Y556259D01*
X160187D01*
X160864Y555582D01*
Y554905D01*
X160187Y554228D01*
X159510D01*
X160187D01*
X160864Y553551D01*
Y552874D01*
X160187Y552197D01*
X158833D01*
X158156Y552874D01*
X646175Y825417D02*
X642113D01*
Y827448D01*
X642790Y828126D01*
X644144D01*
X644821Y827448D01*
Y825417D01*
Y826771D02*
X646175Y828126D01*
X642790Y829480D02*
X642113Y830157D01*
Y831511D01*
X642790Y832188D01*
X643467D01*
X644144Y831511D01*
Y830834D01*
Y831511D01*
X644821Y832188D01*
X645498D01*
X646175Y831511D01*
Y830157D01*
X645498Y829480D01*
X642113Y833542D02*
Y836251D01*
X642790D01*
X645498Y833542D01*
X646175D01*
X625433Y832782D02*
Y835490D01*
X624756Y836167D01*
X623401D01*
X622724Y835490D01*
Y832782D01*
X623401Y832105D01*
X624756D01*
X624079Y833459D02*
X625433Y832105D01*
X624756D02*
X625433Y832782D01*
X626787Y835490D02*
X627464Y836167D01*
X628819D01*
X629496Y835490D01*
Y834813D01*
X628819Y834136D01*
X629496Y833459D01*
Y832782D01*
X628819Y832105D01*
X627464D01*
X626787Y832782D01*
Y833459D01*
X627464Y834136D01*
X626787Y834813D01*
Y835490D01*
X627464Y834136D02*
X628819D01*
X107273Y563034D02*
Y565742D01*
X106596Y566419D01*
X105241D01*
X104564Y565742D01*
Y563034D01*
X105241Y562357D01*
X106596D01*
X105919Y563711D02*
X107273Y562357D01*
X106596D02*
X107273Y563034D01*
X108627Y566419D02*
X111336D01*
Y565742D01*
X108627Y563034D01*
Y562357D01*
X172466Y597661D02*
Y593598D01*
X174497D01*
X175175Y594275D01*
Y594952D01*
X174497Y595629D01*
X172466D01*
X174497D01*
X175175Y596306D01*
Y596984D01*
X174497Y597661D01*
X172466D01*
X176529D02*
X179237D01*
X177883D01*
Y593598D01*
X180591Y596984D02*
X181269Y597661D01*
X182623D01*
X183300Y596984D01*
Y596306D01*
X182623Y595629D01*
X181946D01*
X182623D01*
X183300Y594952D01*
Y594275D01*
X182623Y593598D01*
X181269D01*
X180591Y594275D01*
X1630936Y796037D02*
Y800099D01*
X1632967D01*
X1633644Y799422D01*
Y798068D01*
X1632967Y797391D01*
X1630936D01*
X1632290D02*
X1633644Y796037D01*
X1634998D02*
X1636353D01*
X1635675D01*
Y800099D01*
X1634998Y799422D01*
X1638384Y796714D02*
X1639061Y796037D01*
X1640415D01*
X1641092Y796714D01*
Y799422D01*
X1640415Y800099D01*
X1639061D01*
X1638384Y799422D01*
Y798745D01*
X1639061Y798068D01*
X1641092D01*
X199814Y419946D02*
X199137Y420623D01*
X197783D01*
X197106Y419946D01*
Y417238D01*
X197783Y416561D01*
X199137D01*
X199814Y417238D01*
X201168Y416561D02*
X202523D01*
X201845D01*
Y420623D01*
X201168Y419946D01*
X207262Y420623D02*
X204554D01*
Y418592D01*
X205908Y419269D01*
X206585D01*
X207262Y418592D01*
Y417238D01*
X206585Y416561D01*
X205231D01*
X204554Y417238D01*
X224706Y429852D02*
X224029Y430529D01*
X222675D01*
X221998Y429852D01*
Y427144D01*
X222675Y426467D01*
X224029D01*
X224706Y427144D01*
X226060Y426467D02*
X227415D01*
X226737D01*
Y430529D01*
X226060Y429852D01*
X232154Y430529D02*
X230800Y429852D01*
X229446Y428498D01*
Y427144D01*
X230123Y426467D01*
X231477D01*
X232154Y427144D01*
Y427821D01*
X231477Y428498D01*
X229446D01*
X254424Y339428D02*
X253747Y340105D01*
X252393D01*
X251716Y339428D01*
Y336720D01*
X252393Y336043D01*
X253747D01*
X254424Y336720D01*
X255778Y336043D02*
X257133D01*
X256455D01*
Y340105D01*
X255778Y339428D01*
X259164Y340105D02*
X261872D01*
Y339428D01*
X259164Y336720D01*
Y336043D01*
X296334Y364320D02*
X295657Y364997D01*
X294303D01*
X293626Y364320D01*
Y361612D01*
X294303Y360935D01*
X295657D01*
X296334Y361612D01*
X297688Y360935D02*
X299043D01*
X298365D01*
Y364997D01*
X297688Y364320D01*
X301074D02*
X301751Y364997D01*
X303105D01*
X303782Y364320D01*
Y363643D01*
X303105Y362966D01*
X303782Y362289D01*
Y361612D01*
X303105Y360935D01*
X301751D01*
X301074Y361612D01*
Y362289D01*
X301751Y362966D01*
X301074Y363643D01*
Y364320D01*
X301751Y362966D02*
X303105D01*
X251630Y479636D02*
X250953Y480313D01*
X249599D01*
X248922Y479636D01*
Y476928D01*
X249599Y476251D01*
X250953D01*
X251630Y476928D01*
X252984Y476251D02*
X254339D01*
X253661D01*
Y480313D01*
X252984Y479636D01*
X256370Y476928D02*
X257047Y476251D01*
X258401D01*
X259078Y476928D01*
Y479636D01*
X258401Y480313D01*
X257047D01*
X256370Y479636D01*
Y478959D01*
X257047Y478282D01*
X259078D01*
X346541Y207602D02*
X345864Y208279D01*
X344510D01*
X343833Y207602D01*
Y204894D01*
X344510Y204217D01*
X345864D01*
X346541Y204894D01*
X350604Y204217D02*
X347896D01*
X350604Y206925D01*
Y207602D01*
X349927Y208279D01*
X348573D01*
X347896Y207602D01*
X351959D02*
X352636Y208279D01*
X353990D01*
X354667Y207602D01*
Y206925D01*
X353990Y206248D01*
X353313D01*
X353990D01*
X354667Y205571D01*
Y204894D01*
X353990Y204217D01*
X352636D01*
X351959Y204894D01*
X290576Y293877D02*
Y289814D01*
X292607D01*
X293284Y290491D01*
Y293200D01*
X292607Y293877D01*
X290576D01*
X294639Y289814D02*
X295993D01*
X295316D01*
Y293877D01*
X294639Y293200D01*
X131996Y282193D02*
Y278131D01*
X134028D01*
X134705Y278808D01*
Y281516D01*
X134028Y282193D01*
X131996D01*
X138768Y278131D02*
X136059D01*
X138768Y280839D01*
Y281516D01*
X138090Y282193D01*
X136736D01*
X136059Y281516D01*
X37169Y343915D02*
X35815D01*
X36492D01*
Y340530D01*
X35815Y339853D01*
X35138D01*
X34460Y340530D01*
X41232Y339853D02*
X38523D01*
X41232Y342561D01*
Y343238D01*
X40554Y343915D01*
X39200D01*
X38523Y343238D01*
X236898Y455421D02*
Y451359D01*
X239607D01*
X240961Y455421D02*
X243670D01*
Y454744D01*
X240961Y452036D01*
Y451359D01*
X216832Y368299D02*
Y364237D01*
X219541D01*
X220895Y367622D02*
X221572Y368299D01*
X222927D01*
X223604Y367622D01*
Y366945D01*
X222927Y366268D01*
X223604Y365591D01*
Y364914D01*
X222927Y364237D01*
X221572D01*
X220895Y364914D01*
Y365591D01*
X221572Y366268D01*
X220895Y366945D01*
Y367622D01*
X221572Y366268D02*
X222927D01*
X121245Y437133D02*
Y433071D01*
X123953D01*
X128016Y437133D02*
X125308D01*
Y433071D01*
X128016D01*
X125308Y435102D02*
X126662D01*
X129370Y437133D02*
Y433071D01*
X131402D01*
X132079Y433748D01*
Y436456D01*
X131402Y437133D01*
X129370D01*
X133433Y433071D02*
X134787D01*
X134110D01*
Y437133D01*
X133433Y436456D01*
X297773Y427398D02*
Y430106D01*
X297096Y430783D01*
X295742D01*
X295064Y430106D01*
Y427398D01*
X295742Y426721D01*
X297096D01*
X296419Y428075D02*
X297773Y426721D01*
X297096D02*
X297773Y427398D01*
X301836Y426721D02*
X299127D01*
X301836Y429429D01*
Y430106D01*
X301159Y430783D01*
X299804D01*
X299127Y430106D01*
X336212Y485141D02*
Y489203D01*
X338244D01*
X338921Y488526D01*
Y487172D01*
X338244Y486495D01*
X336212D01*
X337567D02*
X338921Y485141D01*
X342984D02*
X340275D01*
X342984Y487849D01*
Y488526D01*
X342307Y489203D01*
X340952D01*
X340275Y488526D01*
X343832Y467869D02*
Y471931D01*
X345864D01*
X346541Y471254D01*
Y469900D01*
X345864Y469223D01*
X343832D01*
X345187D02*
X346541Y467869D01*
X347895Y471931D02*
X350604D01*
Y471254D01*
X347895Y468546D01*
Y467869D01*
X81450Y301245D02*
Y305307D01*
X83482D01*
X84159Y304630D01*
Y303276D01*
X83482Y302599D01*
X81450D01*
X82805D02*
X84159Y301245D01*
X85513Y301922D02*
X86190Y301245D01*
X87544D01*
X88222Y301922D01*
Y304630D01*
X87544Y305307D01*
X86190D01*
X85513Y304630D01*
Y303953D01*
X86190Y303276D01*
X88222D01*
X82298Y253493D02*
Y257555D01*
X84329D01*
X85006Y256878D01*
Y255524D01*
X84329Y254847D01*
X82298D01*
X83652D02*
X85006Y253493D01*
X86360D02*
X87715D01*
X87037D01*
Y257555D01*
X86360Y256878D01*
X89746D02*
X90423Y257555D01*
X91777D01*
X92454Y256878D01*
Y254170D01*
X91777Y253493D01*
X90423D01*
X89746Y254170D01*
Y256878D01*
X336213Y394971D02*
Y399033D01*
X338244D01*
X338921Y398356D01*
Y397002D01*
X338244Y396325D01*
X336213D01*
X337567D02*
X338921Y394971D01*
X340275D02*
X341630D01*
X340953D01*
Y399033D01*
X340275Y398356D01*
X343661Y394971D02*
X345015D01*
X344338D01*
Y399033D01*
X343661Y398356D01*
X335790Y411989D02*
Y416051D01*
X337821D01*
X338498Y415374D01*
Y414020D01*
X337821Y413343D01*
X335790D01*
X337144D02*
X338498Y411989D01*
X339852D02*
X341207D01*
X340529D01*
Y416051D01*
X339852Y415374D01*
X345946Y411989D02*
X343238D01*
X345946Y414697D01*
Y415374D01*
X345269Y416051D01*
X343915D01*
X343238Y415374D01*
X215394Y325883D02*
Y329945D01*
X217425D01*
X218102Y329268D01*
Y327914D01*
X217425Y327237D01*
X215394D01*
X216748D02*
X218102Y325883D01*
X219456D02*
X220811D01*
X220133D01*
Y329945D01*
X219456Y329268D01*
X222842D02*
X223519Y329945D01*
X224873D01*
X225550Y329268D01*
Y328591D01*
X224873Y327914D01*
X224196D01*
X224873D01*
X225550Y327237D01*
Y326560D01*
X224873Y325883D01*
X223519D01*
X222842Y326560D01*
X335790Y430785D02*
Y434847D01*
X337821D01*
X338498Y434170D01*
Y432816D01*
X337821Y432139D01*
X335790D01*
X337144D02*
X338498Y430785D01*
X339852D02*
X341207D01*
X340529D01*
Y434847D01*
X339852Y434170D01*
X345269Y430785D02*
Y434847D01*
X343238Y432816D01*
X345946D01*
X343664Y374651D02*
Y378713D01*
X345695D01*
X346372Y378036D01*
Y376682D01*
X345695Y376005D01*
X343664D01*
X345018D02*
X346372Y374651D01*
X347726D02*
X349081D01*
X348403D01*
Y378713D01*
X347726Y378036D01*
X353820Y378713D02*
X351112D01*
Y376682D01*
X352466Y377359D01*
X353143D01*
X353820Y376682D01*
Y375328D01*
X353143Y374651D01*
X351789D01*
X351112Y375328D01*
X342394Y447803D02*
Y451865D01*
X344425D01*
X345102Y451188D01*
Y449834D01*
X344425Y449157D01*
X342394D01*
X343748D02*
X345102Y447803D01*
X346456D02*
X347811D01*
X347133D01*
Y451865D01*
X346456Y451188D01*
X349842Y451865D02*
X352550D01*
Y451188D01*
X349842Y448480D01*
Y447803D01*
X283212Y471425D02*
Y475487D01*
X285243D01*
X285920Y474810D01*
Y473456D01*
X285243Y472779D01*
X283212D01*
X284566D02*
X285920Y471425D01*
X287274D02*
X288629D01*
X287951D01*
Y475487D01*
X287274Y474810D01*
X290660D02*
X291337Y475487D01*
X292691D01*
X293368Y474810D01*
Y474133D01*
X292691Y473456D01*
X293368Y472779D01*
Y472102D01*
X292691Y471425D01*
X291337D01*
X290660Y472102D01*
Y472779D01*
X291337Y473456D01*
X290660Y474133D01*
Y474810D01*
X291337Y473456D02*
X292691D01*
X353316Y229615D02*
X356025D01*
X354670D01*
Y225553D01*
X357379D02*
Y229615D01*
X359410D01*
X360087Y228938D01*
Y227584D01*
X359410Y226907D01*
X357379D01*
X361442Y225553D02*
X362796D01*
X362119D01*
Y229615D01*
X361442Y228938D01*
X367536Y229615D02*
X364827D01*
Y227584D01*
X366181Y228261D01*
X366859D01*
X367536Y227584D01*
Y226230D01*
X366859Y225553D01*
X365504D01*
X364827Y226230D01*
X167642Y325627D02*
X170351D01*
X168997D01*
Y321565D01*
X171705D02*
Y325627D01*
X173736D01*
X174413Y324950D01*
Y323596D01*
X173736Y322919D01*
X171705D01*
X175768Y321565D02*
X177122D01*
X176445D01*
Y325627D01*
X175768Y324950D01*
X181862Y325627D02*
X180508Y324950D01*
X179153Y323596D01*
Y322242D01*
X179830Y321565D01*
X181185D01*
X181862Y322242D01*
Y322919D01*
X181185Y323596D01*
X179153D01*
X166880Y375919D02*
X169589D01*
X168235D01*
Y371857D01*
X170943D02*
Y375919D01*
X172974D01*
X173651Y375242D01*
Y373888D01*
X172974Y373211D01*
X170943D01*
X175006Y371857D02*
X176360D01*
X175683D01*
Y375919D01*
X175006Y375242D01*
X178391Y375919D02*
X181100D01*
Y375242D01*
X178391Y372534D01*
Y371857D01*
X161292Y434085D02*
X164001D01*
X162647D01*
Y430023D01*
X165355D02*
Y434085D01*
X167386D01*
X168063Y433408D01*
Y432054D01*
X167386Y431377D01*
X165355D01*
X169418Y430023D02*
X170772D01*
X170095D01*
Y434085D01*
X169418Y433408D01*
X172803D02*
X173480Y434085D01*
X174835D01*
X175512Y433408D01*
Y432731D01*
X174835Y432054D01*
X175512Y431377D01*
Y430700D01*
X174835Y430023D01*
X173480D01*
X172803Y430700D01*
Y431377D01*
X173480Y432054D01*
X172803Y432731D01*
Y433408D01*
X173480Y432054D02*
X174835D01*
X242910Y609938D02*
X242232Y610615D01*
X240878D01*
X240201Y609938D01*
Y607230D01*
X240878Y606553D01*
X242232D01*
X242910Y607230D01*
X246972Y606553D02*
X244264D01*
X246972Y609261D01*
Y609938D01*
X246295Y610615D01*
X244941D01*
X244264Y609938D01*
X251035Y610615D02*
X248326D01*
Y608584D01*
X249681Y609261D01*
X250358D01*
X251035Y608584D01*
Y607230D01*
X250358Y606553D01*
X249004D01*
X248326Y607230D01*
X78317Y495384D02*
X77640Y496061D01*
X76286D01*
X75609Y495384D01*
Y492676D01*
X76286Y491999D01*
X77640D01*
X78317Y492676D01*
X82380Y491999D02*
X79672D01*
X82380Y494707D01*
Y495384D01*
X81703Y496061D01*
X80349D01*
X79672Y495384D01*
X85766Y491999D02*
Y496061D01*
X83735Y494030D01*
X86443D01*
X397427Y651257D02*
Y655319D01*
X399458D01*
X400135Y654642D01*
Y653288D01*
X399458Y652611D01*
X397427D01*
X398781D02*
X400135Y651257D01*
X401490Y654642D02*
X402167Y655319D01*
X403521D01*
X404198Y654642D01*
Y653965D01*
X403521Y653288D01*
X402844D01*
X403521D01*
X404198Y652611D01*
Y651934D01*
X403521Y651257D01*
X402167D01*
X401490Y651934D01*
X408261Y655319D02*
X405552D01*
Y653288D01*
X406907Y653965D01*
X407584D01*
X408261Y653288D01*
Y651934D01*
X407584Y651257D01*
X406230D01*
X405552Y651934D01*
X563797Y776225D02*
Y780287D01*
X565828D01*
X566506Y779610D01*
Y778256D01*
X565828Y777579D01*
X563797D01*
X565151D02*
X566506Y776225D01*
X567860Y779610D02*
X568537Y780287D01*
X569891D01*
X570568Y779610D01*
Y778933D01*
X569891Y778256D01*
X569214D01*
X569891D01*
X570568Y777579D01*
Y776902D01*
X569891Y776225D01*
X568537D01*
X567860Y776902D01*
X573954Y776225D02*
Y780287D01*
X571922Y778256D01*
X574631D01*
X208705Y855473D02*
Y859535D01*
X210736D01*
X211413Y858858D01*
Y857504D01*
X210736Y856827D01*
X208705D01*
X210059D02*
X211413Y855473D01*
X212768Y858858D02*
X213445Y859535D01*
X214799D01*
X215476Y858858D01*
Y858181D01*
X214799Y857504D01*
X214122D01*
X214799D01*
X215476Y856827D01*
Y856150D01*
X214799Y855473D01*
X213445D01*
X212768Y856150D01*
X216831Y858858D02*
X217508Y859535D01*
X218862D01*
X219539Y858858D01*
Y858181D01*
X218862Y857504D01*
X218185D01*
X218862D01*
X219539Y856827D01*
Y856150D01*
X218862Y855473D01*
X217508D01*
X216831Y856150D01*
X1863854Y802133D02*
Y806195D01*
X1865885D01*
X1866562Y805518D01*
Y804164D01*
X1865885Y803487D01*
X1863854D01*
X1865208D02*
X1866562Y802133D01*
X1867916D02*
X1869271D01*
X1868593D01*
Y806195D01*
X1867916Y805518D01*
X1874010Y806195D02*
X1872656Y805518D01*
X1871302Y804164D01*
Y802810D01*
X1871979Y802133D01*
X1873333D01*
X1874010Y802810D01*
Y803487D01*
X1873333Y804164D01*
X1871302D01*
X193718Y815595D02*
Y819657D01*
X195750D01*
X196427Y818980D01*
Y817626D01*
X195750Y816949D01*
X193718D01*
X195073D02*
X196427Y815595D01*
X197781Y818980D02*
X198458Y819657D01*
X199813D01*
X200490Y818980D01*
Y818303D01*
X199813Y817626D01*
X199135D01*
X199813D01*
X200490Y816949D01*
Y816272D01*
X199813Y815595D01*
X198458D01*
X197781Y816272D01*
X230041Y804165D02*
Y808227D01*
X232072D01*
X232750Y807550D01*
Y806196D01*
X232072Y805519D01*
X230041D01*
X231395D02*
X232750Y804165D01*
X234104Y807550D02*
X234781Y808227D01*
X236135D01*
X236812Y807550D01*
Y806873D01*
X236135Y806196D01*
X235458D01*
X236135D01*
X236812Y805519D01*
Y804842D01*
X236135Y804165D01*
X234781D01*
X234104Y804842D01*
X240875Y808227D02*
X239521Y807550D01*
X238167Y806196D01*
Y804842D01*
X238844Y804165D01*
X240198D01*
X240875Y804842D01*
Y805519D01*
X240198Y806196D01*
X238167D01*
X204555Y788754D02*
X203878Y789431D01*
X202524D01*
X201847Y788754D01*
Y786046D01*
X202524Y785369D01*
X203878D01*
X204555Y786046D01*
X205909Y785369D02*
X207264D01*
X206587D01*
Y789431D01*
X205909Y788754D01*
X209295Y785369D02*
X210649D01*
X209972D01*
Y789431D01*
X209295Y788754D01*
X411650Y887306D02*
X410973Y887983D01*
X409619D01*
X408942Y887306D01*
Y884598D01*
X409619Y883921D01*
X410973D01*
X411650Y884598D01*
X413004Y883921D02*
X414359D01*
X413681D01*
Y887983D01*
X413004Y887306D01*
X418421Y883921D02*
Y887983D01*
X416390Y885952D01*
X419098D01*
X32852Y872743D02*
Y868681D01*
Y870712D01*
X35560D01*
Y872743D01*
Y868681D01*
X36914D02*
X38268D01*
X37591D01*
Y872743D01*
X36914Y872066D01*
X286430Y500633D02*
Y496571D01*
X289138D01*
X293201Y500633D02*
X290492D01*
Y496571D01*
X293201D01*
X290492Y498602D02*
X291847D01*
X294555Y500633D02*
Y496571D01*
X296586D01*
X297264Y497248D01*
Y499956D01*
X296586Y500633D01*
X294555D01*
X300649Y496571D02*
Y500633D01*
X298618Y498602D01*
X301326D01*
X94066Y-150538D02*
X93389Y-149861D01*
X92035D01*
X91358Y-150538D01*
Y-151215D01*
X92035Y-151892D01*
X93389D01*
X94066Y-152569D01*
Y-153246D01*
X93389Y-153923D01*
X92035D01*
X91358Y-153246D01*
X95420Y-149861D02*
Y-153923D01*
X96775Y-152569D01*
X98129Y-153923D01*
Y-149861D01*
X99483Y-150538D02*
X100160Y-149861D01*
X101515D01*
X102192Y-150538D01*
Y-151215D01*
X101515Y-151892D01*
X100837D01*
X101515D01*
X102192Y-152569D01*
Y-153246D01*
X101515Y-153923D01*
X100160D01*
X99483Y-153246D01*
X103546D02*
X104223Y-153923D01*
X105577D01*
X106254Y-153246D01*
Y-150538D01*
X105577Y-149861D01*
X104223D01*
X103546Y-150538D01*
Y-151215D01*
X104223Y-151892D01*
X106254D01*
X135550Y-154094D02*
X134873Y-153417D01*
X133519D01*
X132842Y-154094D01*
Y-154771D01*
X133519Y-155449D01*
X134873D01*
X135550Y-156126D01*
Y-156803D01*
X134873Y-157480D01*
X133519D01*
X132842Y-156803D01*
X136905Y-153417D02*
Y-157480D01*
X138259Y-156126D01*
X139613Y-157480D01*
Y-153417D01*
X140967Y-154094D02*
X141644Y-153417D01*
X142999D01*
X143676Y-154094D01*
Y-154771D01*
X142999Y-155449D01*
X142322D01*
X142999D01*
X143676Y-156126D01*
Y-156803D01*
X142999Y-157480D01*
X141644D01*
X140967Y-156803D01*
X145030Y-154094D02*
X145707Y-153417D01*
X147061D01*
X147739Y-154094D01*
Y-154771D01*
X147061Y-155449D01*
X147739Y-156126D01*
Y-156803D01*
X147061Y-157480D01*
X145707D01*
X145030Y-156803D01*
Y-156126D01*
X145707Y-155449D01*
X145030Y-154771D01*
Y-154094D01*
X145707Y-155449D02*
X147061D01*
X175600Y-326306D02*
X174923Y-325629D01*
X173569D01*
X172892Y-326306D01*
Y-326983D01*
X173569Y-327660D01*
X174923D01*
X175600Y-328337D01*
Y-329014D01*
X174923Y-329691D01*
X173569D01*
X172892Y-329014D01*
X176954Y-325629D02*
Y-329691D01*
X178309Y-328337D01*
X179663Y-329691D01*
Y-325629D01*
X181017Y-326306D02*
X181694Y-325629D01*
X183048D01*
X183726Y-326306D01*
Y-326983D01*
X183048Y-327660D01*
X182371D01*
X183048D01*
X183726Y-328337D01*
Y-329014D01*
X183048Y-329691D01*
X181694D01*
X181017Y-329014D01*
X185080Y-325629D02*
X187788D01*
Y-326306D01*
X185080Y-329014D01*
Y-329691D01*
X207689Y-56897D02*
Y-60959D01*
X209720D01*
X210397Y-60282D01*
Y-57574D01*
X209720Y-56897D01*
X207689D01*
X213783Y-60959D02*
Y-56897D01*
X211752Y-58928D01*
X214460D01*
X215814Y-57574D02*
X216492Y-56897D01*
X217846D01*
X218523Y-57574D01*
Y-60282D01*
X217846Y-60959D01*
X216492D01*
X215814Y-60282D01*
Y-57574D01*
X296335Y-233935D02*
Y-237997D01*
X298366D01*
X299044Y-237320D01*
Y-234612D01*
X298366Y-233935D01*
X296335D01*
X300398Y-234612D02*
X301075Y-233935D01*
X302429D01*
X303106Y-234612D01*
Y-235289D01*
X302429Y-235966D01*
X301752D01*
X302429D01*
X303106Y-236643D01*
Y-237320D01*
X302429Y-237997D01*
X301075D01*
X300398Y-237320D01*
X304461D02*
X305138Y-237997D01*
X306492D01*
X307169Y-237320D01*
Y-234612D01*
X306492Y-233935D01*
X305138D01*
X304461Y-234612D01*
Y-235289D01*
X305138Y-235966D01*
X307169D01*
X410635Y-421133D02*
Y-425195D01*
X412666D01*
X413344Y-424518D01*
Y-421810D01*
X412666Y-421133D01*
X410635D01*
X414698Y-421810D02*
X415375Y-421133D01*
X416729D01*
X417406Y-421810D01*
Y-422487D01*
X416729Y-423164D01*
X416052D01*
X416729D01*
X417406Y-423841D01*
Y-424518D01*
X416729Y-425195D01*
X415375D01*
X414698Y-424518D01*
X418760Y-421810D02*
X419438Y-421133D01*
X420792D01*
X421469Y-421810D01*
Y-422487D01*
X420792Y-423164D01*
X421469Y-423841D01*
Y-424518D01*
X420792Y-425195D01*
X419438D01*
X418760Y-424518D01*
Y-423841D01*
X419438Y-423164D01*
X418760Y-422487D01*
Y-421810D01*
X419438Y-423164D02*
X420792D01*
X191686Y730757D02*
X194395Y726695D01*
Y730757D02*
X191686Y726695D01*
X198458D02*
X195749D01*
X198458Y729403D01*
Y730080D01*
X197780Y730757D01*
X196426D01*
X195749Y730080D01*
X309965Y808227D02*
X312674Y804165D01*
Y808227D02*
X309965Y804165D01*
X314028D02*
X315382D01*
X314705D01*
Y808227D01*
X314028Y807550D01*
X33954Y826261D02*
X36662D01*
X35308D01*
Y822199D01*
X38016D02*
Y826261D01*
X40048D01*
X40725Y825584D01*
Y824230D01*
X40048Y823553D01*
X38016D01*
X42079Y825584D02*
X42756Y826261D01*
X44110D01*
X44788Y825584D01*
Y824907D01*
X44110Y824230D01*
X43433D01*
X44110D01*
X44788Y823553D01*
Y822876D01*
X44110Y822199D01*
X42756D01*
X42079Y822876D01*
X48173Y822199D02*
Y826261D01*
X46142Y824230D01*
X48850D01*
X125902Y832357D02*
X128610D01*
X127256D01*
Y828295D01*
X129964D02*
Y832357D01*
X131996D01*
X132673Y831680D01*
Y830326D01*
X131996Y829649D01*
X129964D01*
X134027Y831680D02*
X134704Y832357D01*
X136059D01*
X136736Y831680D01*
Y831003D01*
X136059Y830326D01*
X135381D01*
X136059D01*
X136736Y829649D01*
Y828972D01*
X136059Y828295D01*
X134704D01*
X134027Y828972D01*
X138090Y831680D02*
X138767Y832357D01*
X140121D01*
X140798Y831680D01*
Y831003D01*
X140121Y830326D01*
X139444D01*
X140121D01*
X140798Y829649D01*
Y828972D01*
X140121Y828295D01*
X138767D01*
X138090Y828972D01*
X430702Y567689D02*
X433410D01*
X432056D01*
Y563627D01*
X434764D02*
Y567689D01*
X436796D01*
X437473Y567012D01*
Y565658D01*
X436796Y564981D01*
X434764D01*
X438827Y567012D02*
X439504Y567689D01*
X440858D01*
X441536Y567012D01*
Y566335D01*
X440858Y565658D01*
X440181D01*
X440858D01*
X441536Y564981D01*
Y564304D01*
X440858Y563627D01*
X439504D01*
X438827Y564304D01*
X445598Y563627D02*
X442890D01*
X445598Y566335D01*
Y567012D01*
X444921Y567689D01*
X443567D01*
X442890Y567012D01*
X360259Y849121D02*
X362967D01*
X361613D01*
Y845059D01*
X364322D02*
Y849121D01*
X366353D01*
X367030Y848444D01*
Y847090D01*
X366353Y846413D01*
X364322D01*
X368384Y848444D02*
X369061Y849121D01*
X370416D01*
X371093Y848444D01*
Y847767D01*
X370416Y847090D01*
X369739D01*
X370416D01*
X371093Y846413D01*
Y845736D01*
X370416Y845059D01*
X369061D01*
X368384Y845736D01*
X372447Y845059D02*
X373801D01*
X373124D01*
Y849121D01*
X372447Y848444D01*
X297352Y628903D02*
X300060D01*
X298706D01*
Y624841D01*
X301414D02*
Y628903D01*
X303446D01*
X304123Y628226D01*
Y626872D01*
X303446Y626195D01*
X301414D01*
X305477Y628226D02*
X306154Y628903D01*
X307509D01*
X308186Y628226D01*
Y627549D01*
X307509Y626872D01*
X306831D01*
X307509D01*
X308186Y626195D01*
Y625518D01*
X307509Y624841D01*
X306154D01*
X305477Y625518D01*
X309540Y628226D02*
X310217Y628903D01*
X311571D01*
X312248Y628226D01*
Y625518D01*
X311571Y624841D01*
X310217D01*
X309540Y625518D01*
Y628226D01*
X532048Y762253D02*
X534756D01*
X533402D01*
Y758191D01*
X536110D02*
Y762253D01*
X538142D01*
X538819Y761576D01*
Y760222D01*
X538142Y759545D01*
X536110D01*
X542882Y758191D02*
X540173D01*
X542882Y760899D01*
Y761576D01*
X542205Y762253D01*
X540850D01*
X540173Y761576D01*
X544236Y758868D02*
X544913Y758191D01*
X546267D01*
X546944Y758868D01*
Y761576D01*
X546267Y762253D01*
X544913D01*
X544236Y761576D01*
Y760899D01*
X544913Y760222D01*
X546944D01*
X482772Y820927D02*
X485480D01*
X484126D01*
Y816865D01*
X486834D02*
Y820927D01*
X488866D01*
X489543Y820250D01*
Y818896D01*
X488866Y818219D01*
X486834D01*
X493606Y816865D02*
X490897D01*
X493606Y819573D01*
Y820250D01*
X492929Y820927D01*
X491574D01*
X490897Y820250D01*
X494960D02*
X495637Y820927D01*
X496991D01*
X497668Y820250D01*
Y819573D01*
X496991Y818896D01*
X497668Y818219D01*
Y817542D01*
X496991Y816865D01*
X495637D01*
X494960Y817542D01*
Y818219D01*
X495637Y818896D01*
X494960Y819573D01*
Y820250D01*
X495637Y818896D02*
X496991D01*
X110154Y805941D02*
X112862D01*
X111508D01*
Y801879D01*
X114216D02*
Y805941D01*
X116248D01*
X116925Y805264D01*
Y803910D01*
X116248Y803233D01*
X114216D01*
X120988Y801879D02*
X118279D01*
X120988Y804587D01*
Y805264D01*
X120310Y805941D01*
X118956D01*
X118279Y805264D01*
X122342Y805941D02*
X125050D01*
Y805264D01*
X122342Y802556D01*
Y801879D01*
X386760Y849375D02*
X389468D01*
X388114D01*
Y845313D01*
X390822D02*
Y849375D01*
X392854D01*
X393531Y848698D01*
Y847344D01*
X392854Y846667D01*
X390822D01*
X397594Y845313D02*
X394885D01*
X397594Y848021D01*
Y848698D01*
X396917Y849375D01*
X395562D01*
X394885Y848698D01*
X401656Y849375D02*
X398948D01*
Y847344D01*
X400302Y848021D01*
X400979D01*
X401656Y847344D01*
Y845990D01*
X400979Y845313D01*
X399625D01*
X398948Y845990D01*
X560832Y837691D02*
X563540D01*
X562186D01*
Y833628D01*
X564895D02*
Y837691D01*
X566926D01*
X567603Y837014D01*
Y835659D01*
X566926Y834982D01*
X564895D01*
X571666Y833628D02*
X568957D01*
X571666Y836337D01*
Y837014D01*
X570989Y837691D01*
X569635D01*
X568957Y837014D01*
X575051Y833628D02*
Y837691D01*
X573020Y835659D01*
X575728D01*
X449752Y646175D02*
X452460D01*
X451106D01*
Y642113D01*
X453814D02*
Y646175D01*
X455846D01*
X456523Y645498D01*
Y644144D01*
X455846Y643467D01*
X453814D01*
X460586Y642113D02*
X457877D01*
X460586Y644821D01*
Y645498D01*
X459908Y646175D01*
X458554D01*
X457877Y645498D01*
X461940D02*
X462617Y646175D01*
X463971D01*
X464648Y645498D01*
Y644821D01*
X463971Y644144D01*
X463294D01*
X463971D01*
X464648Y643467D01*
Y642790D01*
X463971Y642113D01*
X462617D01*
X461940Y642790D01*
X340532Y880363D02*
X343240D01*
X341886D01*
Y876301D01*
X344594D02*
Y880363D01*
X346626D01*
X347303Y879686D01*
Y878332D01*
X346626Y877655D01*
X344594D01*
X351366Y876301D02*
X348657D01*
X351366Y879009D01*
Y879686D01*
X350689Y880363D01*
X349334D01*
X348657Y879686D01*
X355428Y876301D02*
X352720D01*
X355428Y879009D01*
Y879686D01*
X354751Y880363D01*
X353397D01*
X352720Y879686D01*
X199731Y608837D02*
X202439D01*
X201085D01*
Y604775D01*
X203794D02*
Y608837D01*
X205825D01*
X206502Y608160D01*
Y606806D01*
X205825Y606129D01*
X203794D01*
X210565Y604775D02*
X207856D01*
X210565Y607483D01*
Y608160D01*
X209888Y608837D01*
X208533D01*
X207856Y608160D01*
X211919Y604775D02*
X213273D01*
X212596D01*
Y608837D01*
X211919Y608160D01*
X125902Y501141D02*
X128610D01*
X127256D01*
Y497079D01*
X129965D02*
Y501141D01*
X131996D01*
X132673Y500464D01*
Y499110D01*
X131996Y498433D01*
X129965D01*
X136736Y497079D02*
X134027D01*
X136736Y499787D01*
Y500464D01*
X136059Y501141D01*
X134704D01*
X134027Y500464D01*
X138090D02*
X138767Y501141D01*
X140121D01*
X140798Y500464D01*
Y497756D01*
X140121Y497079D01*
X138767D01*
X138090Y497756D01*
Y500464D01*
X493016Y770635D02*
X495725D01*
X494370D01*
Y766573D01*
X497079D02*
Y770635D01*
X499110D01*
X499787Y769958D01*
Y768604D01*
X499110Y767927D01*
X497079D01*
X501142Y766573D02*
X502496D01*
X501819D01*
Y770635D01*
X501142Y769958D01*
X504527D02*
X505204Y770635D01*
X506559D01*
X507236Y769958D01*
Y769281D01*
X506559Y768604D01*
X505882D01*
X506559D01*
X507236Y767927D01*
Y767250D01*
X506559Y766573D01*
X505204D01*
X504527Y767250D01*
X425198Y731519D02*
X427907D01*
X426553D01*
Y727457D01*
X429261D02*
Y731519D01*
X431292D01*
X431969Y730842D01*
Y729488D01*
X431292Y728811D01*
X429261D01*
X433324Y727457D02*
X434678D01*
X434001D01*
Y731519D01*
X433324Y730842D01*
X439418Y727457D02*
X436709D01*
X439418Y730165D01*
Y730842D01*
X438741Y731519D01*
X437386D01*
X436709Y730842D01*
X492931Y760729D02*
X495640D01*
X494286D01*
Y756667D01*
X496994D02*
Y760729D01*
X499025D01*
X499703Y760052D01*
Y758698D01*
X499025Y758021D01*
X496994D01*
X501057Y756667D02*
X502411D01*
X501734D01*
Y760729D01*
X501057Y760052D01*
X504442Y756667D02*
X505797D01*
X505120D01*
Y760729D01*
X504442Y760052D01*
X371857Y778766D02*
Y781475D01*
Y780121D01*
X375919D01*
Y782829D02*
X371857D01*
Y784860D01*
X372534Y785537D01*
X373888D01*
X374565Y784860D01*
Y782829D01*
X375919Y786892D02*
Y788246D01*
Y787569D01*
X371857D01*
X372534Y786892D01*
Y790277D02*
X371857Y790954D01*
Y792309D01*
X372534Y792986D01*
X375242D01*
X375919Y792309D01*
Y790954D01*
X375242Y790277D01*
X372534D01*
X492423Y783589D02*
X495131D01*
X493777D01*
Y779527D01*
X496486D02*
Y783589D01*
X498517D01*
X499194Y782912D01*
Y781558D01*
X498517Y780881D01*
X496486D01*
X500549Y780204D02*
X501226Y779527D01*
X502580D01*
X503257Y780204D01*
Y782912D01*
X502580Y783589D01*
X501226D01*
X500549Y782912D01*
Y782235D01*
X501226Y781558D01*
X503257D01*
X399967Y723899D02*
X402676D01*
X401321D01*
Y719837D01*
X404030D02*
Y723899D01*
X406061D01*
X406738Y723222D01*
Y721868D01*
X406061Y721191D01*
X404030D01*
X408092Y723222D02*
X408770Y723899D01*
X410124D01*
X410801Y723222D01*
Y722545D01*
X410124Y721868D01*
X410801Y721191D01*
Y720514D01*
X410124Y719837D01*
X408770D01*
X408092Y720514D01*
Y721191D01*
X408770Y721868D01*
X408092Y722545D01*
Y723222D01*
X408770Y721868D02*
X410124D01*
X382187Y745235D02*
X384896D01*
X383541D01*
Y741173D01*
X386250D02*
Y745235D01*
X388281D01*
X388958Y744558D01*
Y743204D01*
X388281Y742527D01*
X386250D01*
X390312Y745235D02*
X393021D01*
Y744558D01*
X390312Y741850D01*
Y741173D01*
X372281Y807465D02*
X374990D01*
X373635D01*
Y803403D01*
X376344D02*
Y807465D01*
X378375D01*
X379052Y806788D01*
Y805434D01*
X378375Y804757D01*
X376344D01*
X383115Y807465D02*
X381761Y806788D01*
X380406Y805434D01*
Y804080D01*
X381084Y803403D01*
X382438D01*
X383115Y804080D01*
Y804757D01*
X382438Y805434D01*
X380406D01*
X349929Y802639D02*
X352637D01*
X351283D01*
Y798577D01*
X353992D02*
Y802639D01*
X356023D01*
X356700Y801962D01*
Y800608D01*
X356023Y799931D01*
X353992D01*
X358055Y801962D02*
X358732Y802639D01*
X360086D01*
X360763Y801962D01*
Y801285D01*
X360086Y800608D01*
X359409D01*
X360086D01*
X360763Y799931D01*
Y799254D01*
X360086Y798577D01*
X358732D01*
X358055Y799254D01*
X352723Y788161D02*
X355432D01*
X354077D01*
Y784099D01*
X356786D02*
Y788161D01*
X358817D01*
X359494Y787484D01*
Y786130D01*
X358817Y785453D01*
X356786D01*
X363557Y784099D02*
X360849D01*
X363557Y786807D01*
Y787484D01*
X362880Y788161D01*
X361526D01*
X360849Y787484D01*
X326984Y858265D02*
X329693D01*
X328338D01*
Y854203D01*
X331047D02*
Y858265D01*
X333078D01*
X333755Y857588D01*
Y856234D01*
X333078Y855557D01*
X331047D01*
X335110Y854203D02*
X336464D01*
X335787D01*
Y858265D01*
X335110Y857588D01*
X547964Y747352D02*
X547287Y748029D01*
X545933D01*
X545256Y747352D01*
Y746675D01*
X545933Y745998D01*
X547287D01*
X547964Y745321D01*
Y744644D01*
X547287Y743967D01*
X545933D01*
X545256Y744644D01*
X549318Y748029D02*
Y743967D01*
X550673Y745321D01*
X552027Y743967D01*
Y748029D01*
X553381Y747352D02*
X554058Y748029D01*
X555412D01*
X556090Y747352D01*
Y746675D01*
X555412Y745998D01*
X554735D01*
X555412D01*
X556090Y745321D01*
Y744644D01*
X555412Y743967D01*
X554058D01*
X553381Y744644D01*
X560152Y748029D02*
X558798Y747352D01*
X557444Y745998D01*
Y744644D01*
X558121Y743967D01*
X559475D01*
X560152Y744644D01*
Y745321D01*
X559475Y745998D01*
X557444D01*
X732876Y750654D02*
X732199Y751331D01*
X730845D01*
X730168Y750654D01*
Y749977D01*
X730845Y749300D01*
X732199D01*
X732876Y748623D01*
Y747946D01*
X732199Y747269D01*
X730845D01*
X730168Y747946D01*
X734230Y751331D02*
Y747269D01*
X735585Y748623D01*
X736939Y747269D01*
Y751331D01*
X738293Y750654D02*
X738970Y751331D01*
X740324D01*
X741002Y750654D01*
Y749977D01*
X740324Y749300D01*
X739647D01*
X740324D01*
X741002Y748623D01*
Y747946D01*
X740324Y747269D01*
X738970D01*
X738293Y747946D01*
X745064Y751331D02*
X742356D01*
Y749300D01*
X743710Y749977D01*
X744387D01*
X745064Y749300D01*
Y747946D01*
X744387Y747269D01*
X743033D01*
X742356Y747946D01*
X925916Y761068D02*
X925239Y761745D01*
X923885D01*
X923208Y761068D01*
Y760391D01*
X923885Y759714D01*
X925239D01*
X925916Y759037D01*
Y758360D01*
X925239Y757683D01*
X923885D01*
X923208Y758360D01*
X927270Y761745D02*
Y757683D01*
X928625Y759037D01*
X929979Y757683D01*
Y761745D01*
X931333Y761068D02*
X932010Y761745D01*
X933364D01*
X934042Y761068D01*
Y760391D01*
X933364Y759714D01*
X932687D01*
X933364D01*
X934042Y759037D01*
Y758360D01*
X933364Y757683D01*
X932010D01*
X931333Y758360D01*
X937427Y757683D02*
Y761745D01*
X935396Y759714D01*
X938104D01*
X1115654Y777070D02*
X1114977Y777747D01*
X1113623D01*
X1112946Y777070D01*
Y776393D01*
X1113623Y775716D01*
X1114977D01*
X1115654Y775039D01*
Y774362D01*
X1114977Y773685D01*
X1113623D01*
X1112946Y774362D01*
X1117008Y777747D02*
Y773685D01*
X1118363Y775039D01*
X1119717Y773685D01*
Y777747D01*
X1121071Y777070D02*
X1121748Y777747D01*
X1123102D01*
X1123780Y777070D01*
Y776393D01*
X1123102Y775716D01*
X1122425D01*
X1123102D01*
X1123780Y775039D01*
Y774362D01*
X1123102Y773685D01*
X1121748D01*
X1121071Y774362D01*
X1125134Y777070D02*
X1125811Y777747D01*
X1127165D01*
X1127842Y777070D01*
Y776393D01*
X1127165Y775716D01*
X1126488D01*
X1127165D01*
X1127842Y775039D01*
Y774362D01*
X1127165Y773685D01*
X1125811D01*
X1125134Y774362D01*
X1305392Y761322D02*
X1304715Y761999D01*
X1303361D01*
X1302684Y761322D01*
Y760645D01*
X1303361Y759968D01*
X1304715D01*
X1305392Y759291D01*
Y758614D01*
X1304715Y757937D01*
X1303361D01*
X1302684Y758614D01*
X1306746Y761999D02*
Y757937D01*
X1308101Y759291D01*
X1309455Y757937D01*
Y761999D01*
X1310809Y761322D02*
X1311486Y761999D01*
X1312841D01*
X1313518Y761322D01*
Y760645D01*
X1312841Y759968D01*
X1312163D01*
X1312841D01*
X1313518Y759291D01*
Y758614D01*
X1312841Y757937D01*
X1311486D01*
X1310809Y758614D01*
X1317580Y757937D02*
X1314872D01*
X1317580Y760645D01*
Y761322D01*
X1316903Y761999D01*
X1315549D01*
X1314872Y761322D01*
X1499871Y727540D02*
X1499194Y728217D01*
X1497840D01*
X1497163Y727540D01*
Y726863D01*
X1497840Y726186D01*
X1499194D01*
X1499871Y725509D01*
Y724832D01*
X1499194Y724155D01*
X1497840D01*
X1497163Y724832D01*
X1501225Y728217D02*
Y724155D01*
X1502580Y725509D01*
X1503934Y724155D01*
Y728217D01*
X1505288Y727540D02*
X1505965Y728217D01*
X1507320D01*
X1507997Y727540D01*
Y726863D01*
X1507320Y726186D01*
X1506642D01*
X1507320D01*
X1507997Y725509D01*
Y724832D01*
X1507320Y724155D01*
X1505965D01*
X1505288Y724832D01*
X1509351Y724155D02*
X1510705D01*
X1510028D01*
Y728217D01*
X1509351Y727540D01*
X1734652Y729318D02*
X1733975Y729995D01*
X1732621D01*
X1731944Y729318D01*
Y728641D01*
X1732621Y727964D01*
X1733975D01*
X1734652Y727287D01*
Y726610D01*
X1733975Y725933D01*
X1732621D01*
X1731944Y726610D01*
X1736006Y729995D02*
Y725933D01*
X1737361Y727287D01*
X1738715Y725933D01*
Y729995D01*
X1740069Y729318D02*
X1740746Y729995D01*
X1742101D01*
X1742778Y729318D01*
Y728641D01*
X1742101Y727964D01*
X1741423D01*
X1742101D01*
X1742778Y727287D01*
Y726610D01*
X1742101Y725933D01*
X1740746D01*
X1740069Y726610D01*
X1744132Y729318D02*
X1744809Y729995D01*
X1746163D01*
X1746840Y729318D01*
Y726610D01*
X1746163Y725933D01*
X1744809D01*
X1744132Y726610D01*
Y729318D01*
X547202Y501480D02*
X546525Y502157D01*
X545171D01*
X544494Y501480D01*
Y500803D01*
X545171Y500126D01*
X546525D01*
X547202Y499449D01*
Y498772D01*
X546525Y498095D01*
X545171D01*
X544494Y498772D01*
X548556Y502157D02*
Y498095D01*
X549911Y499449D01*
X551265Y498095D01*
Y502157D01*
X555328Y498095D02*
X552619D01*
X555328Y500803D01*
Y501480D01*
X554650Y502157D01*
X553296D01*
X552619Y501480D01*
X556682Y498772D02*
X557359Y498095D01*
X558713D01*
X559390Y498772D01*
Y501480D01*
X558713Y502157D01*
X557359D01*
X556682Y501480D01*
Y500803D01*
X557359Y500126D01*
X559390D01*
X733638Y561678D02*
X732961Y562355D01*
X731607D01*
X730930Y561678D01*
Y561001D01*
X731607Y560324D01*
X732961D01*
X733638Y559647D01*
Y558970D01*
X732961Y558293D01*
X731607D01*
X730930Y558970D01*
X734992Y562355D02*
Y558293D01*
X736347Y559647D01*
X737701Y558293D01*
Y562355D01*
X741764Y558293D02*
X739055D01*
X741764Y561001D01*
Y561678D01*
X741087Y562355D01*
X739732D01*
X739055Y561678D01*
X743118D02*
X743795Y562355D01*
X745149D01*
X745826Y561678D01*
Y561001D01*
X745149Y560324D01*
X745826Y559647D01*
Y558970D01*
X745149Y558293D01*
X743795D01*
X743118Y558970D01*
Y559647D01*
X743795Y560324D01*
X743118Y561001D01*
Y561678D01*
X743795Y560324D02*
X745149D01*
X924646Y571330D02*
X923969Y572007D01*
X922615D01*
X921938Y571330D01*
Y570653D01*
X922615Y569976D01*
X923969D01*
X924646Y569299D01*
Y568622D01*
X923969Y567945D01*
X922615D01*
X921938Y568622D01*
X926000Y572007D02*
Y567945D01*
X927355Y569299D01*
X928709Y567945D01*
Y572007D01*
X932772Y567945D02*
X930063D01*
X932772Y570653D01*
Y571330D01*
X932094Y572007D01*
X930740D01*
X930063Y571330D01*
X934126Y572007D02*
X936834D01*
Y571330D01*
X934126Y568622D01*
Y567945D01*
X1117432Y586824D02*
X1116755Y587501D01*
X1115401D01*
X1114724Y586824D01*
Y586147D01*
X1115401Y585470D01*
X1116755D01*
X1117432Y584793D01*
Y584116D01*
X1116755Y583439D01*
X1115401D01*
X1114724Y584116D01*
X1118786Y587501D02*
Y583439D01*
X1120141Y584793D01*
X1121495Y583439D01*
Y587501D01*
X1125558Y583439D02*
X1122849D01*
X1125558Y586147D01*
Y586824D01*
X1124881Y587501D01*
X1123526D01*
X1122849Y586824D01*
X1129620Y587501D02*
X1128266Y586824D01*
X1126912Y585470D01*
Y584116D01*
X1127589Y583439D01*
X1128943D01*
X1129620Y584116D01*
Y584793D01*
X1128943Y585470D01*
X1126912D01*
X1305900Y570822D02*
X1305223Y571499D01*
X1303869D01*
X1303192Y570822D01*
Y570145D01*
X1303869Y569468D01*
X1305223D01*
X1305900Y568791D01*
Y568114D01*
X1305223Y567437D01*
X1303869D01*
X1303192Y568114D01*
X1307254Y571499D02*
Y567437D01*
X1308609Y568791D01*
X1309963Y567437D01*
Y571499D01*
X1314026Y567437D02*
X1311317D01*
X1314026Y570145D01*
Y570822D01*
X1313349Y571499D01*
X1311994D01*
X1311317Y570822D01*
X1318088Y571499D02*
X1315380D01*
Y569468D01*
X1316734Y570145D01*
X1317411D01*
X1318088Y569468D01*
Y568114D01*
X1317411Y567437D01*
X1316057D01*
X1315380Y568114D01*
X1497924Y533484D02*
X1497247Y534161D01*
X1495893D01*
X1495216Y533484D01*
Y532807D01*
X1495893Y532130D01*
X1497247D01*
X1497924Y531453D01*
Y530776D01*
X1497247Y530099D01*
X1495893D01*
X1495216Y530776D01*
X1499278Y534161D02*
Y530099D01*
X1500633Y531453D01*
X1501987Y530099D01*
Y534161D01*
X1506050Y530099D02*
X1503341D01*
X1506050Y532807D01*
Y533484D01*
X1505372Y534161D01*
X1504018D01*
X1503341Y533484D01*
X1509435Y530099D02*
Y534161D01*
X1507404Y532130D01*
X1510112D01*
X1734398Y538564D02*
X1733721Y539241D01*
X1732367D01*
X1731690Y538564D01*
Y537887D01*
X1732367Y537210D01*
X1733721D01*
X1734398Y536533D01*
Y535856D01*
X1733721Y535179D01*
X1732367D01*
X1731690Y535856D01*
X1735752Y539241D02*
Y535179D01*
X1737107Y536533D01*
X1738461Y535179D01*
Y539241D01*
X1742524Y535179D02*
X1739815D01*
X1742524Y537887D01*
Y538564D01*
X1741846Y539241D01*
X1740492D01*
X1739815Y538564D01*
X1743878D02*
X1744555Y539241D01*
X1745909D01*
X1746586Y538564D01*
Y537887D01*
X1745909Y537210D01*
X1745232D01*
X1745909D01*
X1746586Y536533D01*
Y535856D01*
X1745909Y535179D01*
X1744555D01*
X1743878Y535856D01*
X341716Y46566D02*
X341039Y47243D01*
X339685D01*
X339008Y46566D01*
Y45889D01*
X339685Y45212D01*
X341039D01*
X341716Y44535D01*
Y43858D01*
X341039Y43181D01*
X339685D01*
X339008Y43858D01*
X343070Y47243D02*
Y43181D01*
X344425Y44535D01*
X345779Y43181D01*
Y47243D01*
X349842Y43181D02*
X347133D01*
X349842Y45889D01*
Y46566D01*
X349165Y47243D01*
X347810D01*
X347133Y46566D01*
X353904Y43181D02*
X351196D01*
X353904Y45889D01*
Y46566D01*
X353227Y47243D01*
X351873D01*
X351196Y46566D01*
X670307Y369654D02*
X669630Y370331D01*
X668276D01*
X667599Y369654D01*
Y368977D01*
X668276Y368300D01*
X669630D01*
X670307Y367623D01*
Y366946D01*
X669630Y366269D01*
X668276D01*
X667599Y366946D01*
X671662Y370331D02*
Y366269D01*
X673016Y367623D01*
X674370Y366269D01*
Y370331D01*
X678433Y366269D02*
X675724D01*
X678433Y368977D01*
Y369654D01*
X677756Y370331D01*
X676401D01*
X675724Y369654D01*
X679787Y366269D02*
X681141D01*
X680464D01*
Y370331D01*
X679787Y369654D01*
X924138Y376766D02*
X923461Y377443D01*
X922107D01*
X921430Y376766D01*
Y376089D01*
X922107Y375412D01*
X923461D01*
X924138Y374735D01*
Y374058D01*
X923461Y373381D01*
X922107D01*
X921430Y374058D01*
X925492Y377443D02*
Y373381D01*
X926847Y374735D01*
X928201Y373381D01*
Y377443D01*
X932264Y373381D02*
X929555D01*
X932264Y376089D01*
Y376766D01*
X931587Y377443D01*
X930232D01*
X929555Y376766D01*
X933618D02*
X934295Y377443D01*
X935649D01*
X936326Y376766D01*
Y374058D01*
X935649Y373381D01*
X934295D01*
X933618Y374058D01*
Y376766D01*
X1116247Y393784D02*
X1115570Y394461D01*
X1114215D01*
X1113538Y393784D01*
Y393107D01*
X1114215Y392430D01*
X1115570D01*
X1116247Y391753D01*
Y391076D01*
X1115570Y390399D01*
X1114215D01*
X1113538Y391076D01*
X1117601Y394461D02*
Y390399D01*
X1118955Y391753D01*
X1120309Y390399D01*
Y394461D01*
X1121664Y390399D02*
X1123018D01*
X1122341D01*
Y394461D01*
X1121664Y393784D01*
X1125049Y391076D02*
X1125726Y390399D01*
X1127081D01*
X1127758Y391076D01*
Y393784D01*
X1127081Y394461D01*
X1125726D01*
X1125049Y393784D01*
Y393107D01*
X1125726Y392430D01*
X1127758D01*
X1304715Y377782D02*
X1304038Y378459D01*
X1302683D01*
X1302006Y377782D01*
Y377105D01*
X1302683Y376428D01*
X1304038D01*
X1304715Y375751D01*
Y375074D01*
X1304038Y374397D01*
X1302683D01*
X1302006Y375074D01*
X1306069Y378459D02*
Y374397D01*
X1307423Y375751D01*
X1308777Y374397D01*
Y378459D01*
X1310132Y374397D02*
X1311486D01*
X1310809D01*
Y378459D01*
X1310132Y377782D01*
X1313517D02*
X1314194Y378459D01*
X1315549D01*
X1316226Y377782D01*
Y377105D01*
X1315549Y376428D01*
X1316226Y375751D01*
Y375074D01*
X1315549Y374397D01*
X1314194D01*
X1313517Y375074D01*
Y375751D01*
X1314194Y376428D01*
X1313517Y377105D01*
Y377782D01*
X1314194Y376428D02*
X1315549D01*
X1495469Y346286D02*
X1494792Y346963D01*
X1493437D01*
X1492760Y346286D01*
Y345609D01*
X1493437Y344932D01*
X1494792D01*
X1495469Y344255D01*
Y343578D01*
X1494792Y342901D01*
X1493437D01*
X1492760Y343578D01*
X1496823Y346963D02*
Y342901D01*
X1498177Y344255D01*
X1499531Y342901D01*
Y346963D01*
X1500886Y342901D02*
X1502240D01*
X1501563D01*
Y346963D01*
X1500886Y346286D01*
X1504271Y346963D02*
X1506980D01*
Y346286D01*
X1504271Y343578D01*
Y342901D01*
X1734483Y345778D02*
X1733806Y346455D01*
X1732451D01*
X1731774Y345778D01*
Y345101D01*
X1732451Y344424D01*
X1733806D01*
X1734483Y343747D01*
Y343070D01*
X1733806Y342393D01*
X1732451D01*
X1731774Y343070D01*
X1735837Y346455D02*
Y342393D01*
X1737191Y343747D01*
X1738545Y342393D01*
Y346455D01*
X1739900Y342393D02*
X1741254D01*
X1740577D01*
Y346455D01*
X1739900Y345778D01*
X1745994Y346455D02*
X1744639Y345778D01*
X1743285Y344424D01*
Y343070D01*
X1743962Y342393D01*
X1745317D01*
X1745994Y343070D01*
Y343747D01*
X1745317Y344424D01*
X1743285D01*
X546271Y222588D02*
X545594Y223265D01*
X544239D01*
X543562Y222588D01*
Y221911D01*
X544239Y221234D01*
X545594D01*
X546271Y220557D01*
Y219880D01*
X545594Y219203D01*
X544239D01*
X543562Y219880D01*
X547625Y223265D02*
Y219203D01*
X548979Y220557D01*
X550333Y219203D01*
Y223265D01*
X551688Y219203D02*
X553042D01*
X552365D01*
Y223265D01*
X551688Y222588D01*
X557782Y223265D02*
X555073D01*
Y221234D01*
X556427Y221911D01*
X557105D01*
X557782Y221234D01*
Y219880D01*
X557105Y219203D01*
X555750D01*
X555073Y219880D01*
X669967Y186774D02*
X669289Y187451D01*
X667935D01*
X667258Y186774D01*
Y186096D01*
X667935Y185419D01*
X669289D01*
X669967Y184742D01*
Y184065D01*
X669289Y183388D01*
X667935D01*
X667258Y184065D01*
X671321Y187451D02*
Y183388D01*
X672675Y184742D01*
X674029Y183388D01*
Y187451D01*
X675383Y183388D02*
X676738D01*
X676060D01*
Y187451D01*
X675383Y186774D01*
X680800Y183388D02*
Y187451D01*
X678769Y185419D01*
X681477D01*
X929557Y189314D02*
X928880Y189991D01*
X927525D01*
X926848Y189314D01*
Y188637D01*
X927525Y187960D01*
X928880D01*
X929557Y187283D01*
Y186606D01*
X928880Y185929D01*
X927525D01*
X926848Y186606D01*
X930911Y189991D02*
Y185929D01*
X932265Y187283D01*
X933619Y185929D01*
Y189991D01*
X934974Y185929D02*
X936328D01*
X935651D01*
Y189991D01*
X934974Y189314D01*
X938359D02*
X939036Y189991D01*
X940391D01*
X941068Y189314D01*
Y188637D01*
X940391Y187960D01*
X939714D01*
X940391D01*
X941068Y187283D01*
Y186606D01*
X940391Y185929D01*
X939036D01*
X938359Y186606D01*
X1118279Y199220D02*
X1117602Y199897D01*
X1116247D01*
X1115570Y199220D01*
Y198543D01*
X1116247Y197866D01*
X1117602D01*
X1118279Y197189D01*
Y196512D01*
X1117602Y195835D01*
X1116247D01*
X1115570Y196512D01*
X1119633Y199897D02*
Y195835D01*
X1120987Y197189D01*
X1122341Y195835D01*
Y199897D01*
X1123696Y195835D02*
X1125050D01*
X1124373D01*
Y199897D01*
X1123696Y199220D01*
X1129790Y195835D02*
X1127081D01*
X1129790Y198543D01*
Y199220D01*
X1129113Y199897D01*
X1127758D01*
X1127081Y199220D01*
X1305900Y188298D02*
X1305223Y188975D01*
X1303869D01*
X1303191Y188298D01*
Y187621D01*
X1303869Y186944D01*
X1305223D01*
X1305900Y186267D01*
Y185590D01*
X1305223Y184913D01*
X1303869D01*
X1303191Y185590D01*
X1307254Y188975D02*
Y184913D01*
X1308608Y186267D01*
X1309963Y184913D01*
Y188975D01*
X1311317Y184913D02*
X1312671D01*
X1311994D01*
Y188975D01*
X1311317Y188298D01*
X1314702Y184913D02*
X1316057D01*
X1315379D01*
Y188975D01*
X1314702Y188298D01*
X1497501Y155278D02*
X1496824Y155955D01*
X1495469D01*
X1494792Y155278D01*
Y154601D01*
X1495469Y153924D01*
X1496824D01*
X1497501Y153247D01*
Y152570D01*
X1496824Y151893D01*
X1495469D01*
X1494792Y152570D01*
X1498855Y155955D02*
Y151893D01*
X1500209Y153247D01*
X1501563Y151893D01*
Y155955D01*
X1502918Y151893D02*
X1504272D01*
X1503595D01*
Y155955D01*
X1502918Y155278D01*
X1506303D02*
X1506980Y155955D01*
X1508335D01*
X1509012Y155278D01*
Y152570D01*
X1508335Y151893D01*
X1506980D01*
X1506303Y152570D01*
Y155278D01*
X1736176D02*
X1735498Y155955D01*
X1734144D01*
X1733467Y155278D01*
Y154601D01*
X1734144Y153924D01*
X1735498D01*
X1736176Y153247D01*
Y152570D01*
X1735498Y151893D01*
X1734144D01*
X1733467Y152570D01*
X1737530Y155955D02*
Y151893D01*
X1738884Y153247D01*
X1740238Y151893D01*
Y155955D01*
X1741593Y152570D02*
X1742270Y151893D01*
X1743624D01*
X1744301Y152570D01*
Y155278D01*
X1743624Y155955D01*
X1742270D01*
X1741593Y155278D01*
Y154601D01*
X1742270Y153924D01*
X1744301D01*
X462873Y-213784D02*
X462196Y-213107D01*
X460842D01*
X460165Y-213784D01*
Y-214461D01*
X460842Y-215138D01*
X462196D01*
X462873Y-215815D01*
Y-216492D01*
X462196Y-217169D01*
X460842D01*
X460165Y-216492D01*
X464228Y-213107D02*
Y-217169D01*
X465582Y-215815D01*
X466936Y-217169D01*
Y-213107D01*
X468290Y-213784D02*
X468968Y-213107D01*
X470322D01*
X470999Y-213784D01*
Y-214461D01*
X470322Y-215138D01*
X470999Y-215815D01*
Y-216492D01*
X470322Y-217169D01*
X468968D01*
X468290Y-216492D01*
Y-215815D01*
X468968Y-215138D01*
X468290Y-214461D01*
Y-213784D01*
X468968Y-215138D02*
X470322D01*
X636609Y-129710D02*
X635932Y-129033D01*
X634578D01*
X633901Y-129710D01*
Y-130387D01*
X634578Y-131064D01*
X635932D01*
X636609Y-131741D01*
Y-132418D01*
X635932Y-133095D01*
X634578D01*
X633901Y-132418D01*
X637964Y-129033D02*
Y-133095D01*
X639318Y-131741D01*
X640672Y-133095D01*
Y-129033D01*
X642027D02*
X644735D01*
Y-129710D01*
X642027Y-132418D01*
Y-133095D01*
X928963Y-2964D02*
X928286Y-2287D01*
X926932D01*
X926255Y-2964D01*
Y-3641D01*
X926932Y-4318D01*
X928286D01*
X928963Y-4995D01*
Y-5672D01*
X928286Y-6349D01*
X926932D01*
X926255Y-5672D01*
X930318Y-2287D02*
Y-6349D01*
X931672Y-4995D01*
X933026Y-6349D01*
Y-2287D01*
X937089D02*
X935735Y-2964D01*
X934380Y-4318D01*
Y-5672D01*
X935058Y-6349D01*
X936412D01*
X937089Y-5672D01*
Y-4995D01*
X936412Y-4318D01*
X934380D01*
X1119210Y9228D02*
X1118532Y9905D01*
X1117178D01*
X1116501Y9228D01*
Y8551D01*
X1117178Y7874D01*
X1118532D01*
X1119210Y7197D01*
Y6520D01*
X1118532Y5843D01*
X1117178D01*
X1116501Y6520D01*
X1120564Y9905D02*
Y5843D01*
X1121918Y7197D01*
X1123272Y5843D01*
Y9905D01*
X1127335D02*
X1124626D01*
Y7874D01*
X1125981Y8551D01*
X1126658D01*
X1127335Y7874D01*
Y6520D01*
X1126658Y5843D01*
X1125304D01*
X1124626Y6520D01*
X1306915Y-1694D02*
X1306238Y-1017D01*
X1304884D01*
X1304207Y-1694D01*
Y-2371D01*
X1304884Y-3048D01*
X1306238D01*
X1306915Y-3725D01*
Y-4402D01*
X1306238Y-5079D01*
X1304884D01*
X1304207Y-4402D01*
X1308270Y-1017D02*
Y-5079D01*
X1309624Y-3725D01*
X1310978Y-5079D01*
Y-1017D01*
X1314364Y-5079D02*
Y-1017D01*
X1312332Y-3048D01*
X1315041D01*
X1498940Y-34714D02*
X1498262Y-34037D01*
X1496908D01*
X1496231Y-34714D01*
Y-35391D01*
X1496908Y-36068D01*
X1498262D01*
X1498940Y-36745D01*
Y-37422D01*
X1498262Y-38099D01*
X1496908D01*
X1496231Y-37422D01*
X1500294Y-34037D02*
Y-38099D01*
X1501648Y-36745D01*
X1503002Y-38099D01*
Y-34037D01*
X1504357Y-34714D02*
X1505034Y-34037D01*
X1506388D01*
X1507065Y-34714D01*
Y-35391D01*
X1506388Y-36068D01*
X1505711D01*
X1506388D01*
X1507065Y-36745D01*
Y-37422D01*
X1506388Y-38099D01*
X1505034D01*
X1504357Y-37422D01*
X1686900Y-35984D02*
X1686222Y-35307D01*
X1684868D01*
X1684191Y-35984D01*
Y-36661D01*
X1684868Y-37338D01*
X1686222D01*
X1686900Y-38015D01*
Y-38692D01*
X1686222Y-39369D01*
X1684868D01*
X1684191Y-38692D01*
X1688254Y-35307D02*
Y-39369D01*
X1689608Y-38015D01*
X1690962Y-39369D01*
Y-35307D01*
X1695025Y-39369D02*
X1692316D01*
X1695025Y-36661D01*
Y-35984D01*
X1694348Y-35307D01*
X1692994D01*
X1692316Y-35984D01*
X54103Y501010D02*
X53426Y501687D01*
X52071D01*
X51394Y501010D01*
Y500333D01*
X52071Y499656D01*
X53426D01*
X54103Y498979D01*
Y498302D01*
X53426Y497625D01*
X52071D01*
X51394Y498302D01*
X55457Y501687D02*
Y497625D01*
X56811Y498979D01*
X58165Y497625D01*
Y501687D01*
X59520Y497625D02*
X60874D01*
X60197D01*
Y501687D01*
X59520Y501010D01*
X289857Y692023D02*
Y696085D01*
X291888D01*
X292565Y695408D01*
Y694054D01*
X291888Y693377D01*
X289857D01*
X291211D02*
X292565Y692023D01*
X293920Y695408D02*
X294597Y696085D01*
X295951D01*
X296628Y695408D01*
Y694731D01*
X295951Y694054D01*
X295274D01*
X295951D01*
X296628Y693377D01*
Y692700D01*
X295951Y692023D01*
X294597D01*
X293920Y692700D01*
X300691Y692023D02*
X297982D01*
X300691Y694731D01*
Y695408D01*
X300014Y696085D01*
X298659D01*
X297982Y695408D01*
X315808Y665735D02*
Y669797D01*
X317840D01*
X318517Y669120D01*
Y667766D01*
X317840Y667089D01*
X315808D01*
X317162D02*
X318517Y665735D01*
X319871Y669120D02*
X320548Y669797D01*
X321902D01*
X322579Y669120D01*
Y668443D01*
X321902Y667766D01*
X321225D01*
X321902D01*
X322579Y667089D01*
Y666412D01*
X321902Y665735D01*
X320548D01*
X319871Y666412D01*
X323934Y665735D02*
X325288D01*
X324611D01*
Y669797D01*
X323934Y669120D01*
X589451Y805689D02*
Y809751D01*
X591482D01*
X592160Y809074D01*
Y807720D01*
X591482Y807043D01*
X589451D01*
X590805D02*
X592160Y805689D01*
X593514Y809074D02*
X594191Y809751D01*
X595545D01*
X596222Y809074D01*
Y808397D01*
X595545Y807720D01*
X594868D01*
X595545D01*
X596222Y807043D01*
Y806366D01*
X595545Y805689D01*
X594191D01*
X593514Y806366D01*
X597576Y809074D02*
X598254Y809751D01*
X599608D01*
X600285Y809074D01*
Y806366D01*
X599608Y805689D01*
X598254D01*
X597576Y806366D01*
Y809074D01*
X213023Y840233D02*
Y844295D01*
X215054D01*
X215732Y843618D01*
Y842264D01*
X215054Y841587D01*
X213023D01*
X214377D02*
X215732Y840233D01*
X219794D02*
X217086D01*
X219794Y842941D01*
Y843618D01*
X219117Y844295D01*
X217763D01*
X217086Y843618D01*
X221148Y840910D02*
X221826Y840233D01*
X223180D01*
X223857Y840910D01*
Y843618D01*
X223180Y844295D01*
X221826D01*
X221148Y843618D01*
Y842941D01*
X221826Y842264D01*
X223857D01*
X464737Y827025D02*
Y831087D01*
X466768D01*
X467445Y830410D01*
Y829056D01*
X466768Y828379D01*
X464737D01*
X466091D02*
X467445Y827025D01*
X471508D02*
X468800D01*
X471508Y829733D01*
Y830410D01*
X470831Y831087D01*
X469477D01*
X468800Y830410D01*
X472863D02*
X473540Y831087D01*
X474894D01*
X475571Y830410D01*
Y829733D01*
X474894Y829056D01*
X475571Y828379D01*
Y827702D01*
X474894Y827025D01*
X473540D01*
X472863Y827702D01*
Y828379D01*
X473540Y829056D01*
X472863Y829733D01*
Y830410D01*
X473540Y829056D02*
X474894D01*
X434765Y643891D02*
Y647953D01*
X436796D01*
X437473Y647276D01*
Y645922D01*
X436796Y645245D01*
X434765D01*
X436119D02*
X437473Y643891D01*
X441536D02*
X438828D01*
X441536Y646599D01*
Y647276D01*
X440859Y647953D01*
X439505D01*
X438828Y647276D01*
X442891Y647953D02*
X445599D01*
Y647276D01*
X442891Y644568D01*
Y643891D01*
X434848Y682498D02*
Y686561D01*
X436879D01*
X437556Y685884D01*
Y684529D01*
X436879Y683852D01*
X434848D01*
X436202D02*
X437556Y682498D01*
X441619D02*
X438911D01*
X441619Y685207D01*
Y685884D01*
X440942Y686561D01*
X439588D01*
X438911Y685884D01*
X445682Y686561D02*
X444328Y685884D01*
X442973Y684529D01*
Y683175D01*
X443651Y682498D01*
X445005D01*
X445682Y683175D01*
Y683852D01*
X445005Y684529D01*
X442973D01*
X79419Y-56133D02*
Y-52071D01*
X81450D01*
X82128Y-52748D01*
Y-54102D01*
X81450Y-54779D01*
X79419D01*
X80773D02*
X82128Y-56133D01*
X86190D02*
X83482D01*
X86190Y-53425D01*
Y-52748D01*
X85513Y-52071D01*
X84159D01*
X83482Y-52748D01*
X90253Y-52071D02*
X87544D01*
Y-54102D01*
X88899Y-53425D01*
X89576D01*
X90253Y-54102D01*
Y-55456D01*
X89576Y-56133D01*
X88222D01*
X87544Y-55456D01*
X633393Y768605D02*
Y772667D01*
X635424D01*
X636101Y771990D01*
Y770636D01*
X635424Y769959D01*
X633393D01*
X634747D02*
X636101Y768605D01*
X640164D02*
X637456D01*
X640164Y771313D01*
Y771990D01*
X639487Y772667D01*
X638133D01*
X637456Y771990D01*
X643550Y768605D02*
Y772667D01*
X641518Y770636D01*
X644227D01*
X816527Y781051D02*
Y785113D01*
X818558D01*
X819236Y784436D01*
Y783082D01*
X818558Y782405D01*
X816527D01*
X817881D02*
X819236Y781051D01*
X823298D02*
X820590D01*
X823298Y783759D01*
Y784436D01*
X822621Y785113D01*
X821267D01*
X820590Y784436D01*
X824652D02*
X825330Y785113D01*
X826684D01*
X827361Y784436D01*
Y783759D01*
X826684Y783082D01*
X826007D01*
X826684D01*
X827361Y782405D01*
Y781728D01*
X826684Y781051D01*
X825330D01*
X824652Y781728D01*
X1022775Y790449D02*
Y794511D01*
X1024806D01*
X1025483Y793834D01*
Y792480D01*
X1024806Y791803D01*
X1022775D01*
X1024129D02*
X1025483Y790449D01*
X1029546D02*
X1026838D01*
X1029546Y793157D01*
Y793834D01*
X1028869Y794511D01*
X1027515D01*
X1026838Y793834D01*
X1033609Y790449D02*
X1030900D01*
X1033609Y793157D01*
Y793834D01*
X1032932Y794511D01*
X1031578D01*
X1030900Y793834D01*
X1222588Y795021D02*
Y799083D01*
X1224620D01*
X1225297Y798406D01*
Y797052D01*
X1224620Y796375D01*
X1222588D01*
X1223942D02*
X1225297Y795021D01*
X1229359D02*
X1226651D01*
X1229359Y797729D01*
Y798406D01*
X1228682Y799083D01*
X1227328D01*
X1226651Y798406D01*
X1230714Y795021D02*
X1232068D01*
X1231391D01*
Y799083D01*
X1230714Y798406D01*
X1437811Y791973D02*
Y796035D01*
X1439842D01*
X1440520Y795358D01*
Y794004D01*
X1439842Y793327D01*
X1437811D01*
X1439165D02*
X1440520Y791973D01*
X1444582D02*
X1441874D01*
X1444582Y794681D01*
Y795358D01*
X1443905Y796035D01*
X1442551D01*
X1441874Y795358D01*
X1445936D02*
X1446614Y796035D01*
X1447968D01*
X1448645Y795358D01*
Y792650D01*
X1447968Y791973D01*
X1446614D01*
X1445936Y792650D01*
Y795358D01*
X82466Y432563D02*
Y436625D01*
X84498D01*
X85175Y435948D01*
Y434594D01*
X84498Y433917D01*
X82466D01*
X83821D02*
X85175Y432563D01*
X86529Y435948D02*
X87206Y436625D01*
X88560D01*
X89238Y435948D01*
Y435271D01*
X88560Y434594D01*
X89238Y433917D01*
Y433240D01*
X88560Y432563D01*
X87206D01*
X86529Y433240D01*
Y433917D01*
X87206Y434594D01*
X86529Y435271D01*
Y435948D01*
X87206Y434594D02*
X88560D01*
X375328Y886207D02*
Y890269D01*
X377360D01*
X378037Y889592D01*
Y888238D01*
X377360Y887561D01*
X375328D01*
X376683D02*
X378037Y886207D01*
X382100Y890269D02*
X380745Y889592D01*
X379391Y888238D01*
Y886884D01*
X380068Y886207D01*
X381423D01*
X382100Y886884D01*
Y887561D01*
X381423Y888238D01*
X379391D01*
X154856Y744729D02*
Y748791D01*
X156888D01*
X157565Y748114D01*
Y746760D01*
X156888Y746083D01*
X154856D01*
X156211D02*
X157565Y744729D01*
X161628Y748791D02*
X158919D01*
Y746760D01*
X160273Y747437D01*
X160951D01*
X161628Y746760D01*
Y745406D01*
X160951Y744729D01*
X159596D01*
X158919Y745406D01*
X194226Y845821D02*
Y849883D01*
X196258D01*
X196935Y849206D01*
Y847852D01*
X196258Y847175D01*
X194226D01*
X195581D02*
X196935Y845821D01*
X200320D02*
Y849883D01*
X198289Y847852D01*
X200998D01*
X281010Y852679D02*
Y856741D01*
X283041D01*
X283718Y856064D01*
Y854710D01*
X283041Y854033D01*
X281010D01*
X282364D02*
X283718Y852679D01*
X285072D02*
X286427D01*
X285749D01*
Y856741D01*
X285072Y856064D01*
X87969Y800016D02*
Y802724D01*
X87292Y803401D01*
X85938D01*
X85260Y802724D01*
Y800016D01*
X85938Y799339D01*
X87292D01*
X86615Y800693D02*
X87969Y799339D01*
X87292D02*
X87969Y800016D01*
X92032Y803401D02*
X90677Y802724D01*
X89323Y801370D01*
Y800016D01*
X90000Y799339D01*
X91355D01*
X92032Y800016D01*
Y800693D01*
X91355Y801370D01*
X89323D01*
X159851Y815002D02*
Y817710D01*
X159174Y818387D01*
X157819D01*
X157142Y817710D01*
Y815002D01*
X157819Y814325D01*
X159174D01*
X158497Y815679D02*
X159851Y814325D01*
X159174D02*
X159851Y815002D01*
X163914Y818387D02*
X161205D01*
Y816356D01*
X162559Y817033D01*
X163237D01*
X163914Y816356D01*
Y815002D01*
X163237Y814325D01*
X161882D01*
X161205Y815002D01*
X522563Y820082D02*
Y822790D01*
X521886Y823467D01*
X520532D01*
X519854Y822790D01*
Y820082D01*
X520532Y819405D01*
X521886D01*
X521209Y820759D02*
X522563Y819405D01*
X521886D02*
X522563Y820082D01*
X525948Y819405D02*
Y823467D01*
X523917Y821436D01*
X526626D01*
X405977Y632376D02*
Y635084D01*
X405300Y635761D01*
X403946D01*
X403268Y635084D01*
Y632376D01*
X403946Y631699D01*
X405300D01*
X404623Y633053D02*
X405977Y631699D01*
X405300D02*
X405977Y632376D01*
X407331Y635084D02*
X408008Y635761D01*
X409362D01*
X410040Y635084D01*
Y634407D01*
X409362Y633730D01*
X408685D01*
X409362D01*
X410040Y633053D01*
Y632376D01*
X409362Y631699D01*
X408008D01*
X407331Y632376D01*
X296418Y805858D02*
Y808566D01*
X295741Y809243D01*
X294387D01*
X293710Y808566D01*
Y805858D01*
X294387Y805181D01*
X295741D01*
X295064Y806535D02*
X296418Y805181D01*
X295741D02*
X296418Y805858D01*
X297772Y805181D02*
X299126D01*
X298449D01*
Y809243D01*
X297772Y808566D01*
X310814Y741933D02*
Y737871D01*
X313522D01*
X317585Y741933D02*
X314876D01*
Y737871D01*
X317585D01*
X314876Y739902D02*
X316231D01*
X318939Y741933D02*
Y737871D01*
X320970D01*
X321648Y738548D01*
Y741256D01*
X320970Y741933D01*
X318939D01*
X325710Y737871D02*
X323002D01*
X325710Y740579D01*
Y741256D01*
X325033Y741933D01*
X323679D01*
X323002Y741256D01*
X282110Y644651D02*
Y640589D01*
X284819D01*
X288882Y644651D02*
X287527Y643974D01*
X286173Y642620D01*
Y641266D01*
X286850Y640589D01*
X288204D01*
X288882Y641266D01*
Y641943D01*
X288204Y642620D01*
X286173D01*
X179748Y634999D02*
Y630937D01*
X182457D01*
X186520Y634999D02*
X183811D01*
Y632968D01*
X185165Y633645D01*
X185842D01*
X186520Y632968D01*
Y631614D01*
X185842Y630937D01*
X184488D01*
X183811Y631614D01*
X211498Y888491D02*
Y884429D01*
X214207D01*
X217593D02*
Y888491D01*
X215561Y886460D01*
X218270D01*
X368978Y754125D02*
Y750063D01*
X371687D01*
X373041Y753448D02*
X373718Y754125D01*
X375073D01*
X375750Y753448D01*
Y752771D01*
X375073Y752094D01*
X374395D01*
X375073D01*
X375750Y751417D01*
Y750740D01*
X375073Y750063D01*
X373718D01*
X373041Y750740D01*
X280586Y873759D02*
Y869697D01*
X283295D01*
X287358D02*
X284649D01*
X287358Y872405D01*
Y873082D01*
X286681Y873759D01*
X285326D01*
X284649Y873082D01*
X281430Y823490D02*
Y819427D01*
X284138D01*
X285492D02*
X286846D01*
X286169D01*
Y823490D01*
X285492Y822813D01*
X444416Y822959D02*
Y818897D01*
Y820928D01*
X447125D01*
Y822959D01*
Y818897D01*
X448479Y819574D02*
X449156Y818897D01*
X450510D01*
X451188Y819574D01*
Y822282D01*
X450510Y822959D01*
X449156D01*
X448479Y822282D01*
Y821605D01*
X449156Y820928D01*
X451188D01*
X780966Y-330201D02*
Y-334263D01*
Y-332232D01*
X783675D01*
Y-330201D01*
Y-334263D01*
X787738D02*
X785029D01*
X787738Y-331555D01*
Y-330878D01*
X787060Y-330201D01*
X785706D01*
X785029Y-330878D01*
X478199Y607313D02*
Y603251D01*
X480230D01*
X480908Y603928D01*
Y606636D01*
X480230Y607313D01*
X478199D01*
X482262Y606636D02*
X482939Y607313D01*
X484293D01*
X484970Y606636D01*
Y605959D01*
X484293Y605282D01*
X483616D01*
X484293D01*
X484970Y604605D01*
Y603928D01*
X484293Y603251D01*
X482939D01*
X482262Y603928D01*
X486325Y607313D02*
X489033D01*
Y606636D01*
X486325Y603928D01*
Y603251D01*
X670985Y608075D02*
Y604013D01*
X673016D01*
X673693Y604690D01*
Y607398D01*
X673016Y608075D01*
X670985D01*
X675048Y607398D02*
X675725Y608075D01*
X677079D01*
X677756Y607398D01*
Y606721D01*
X677079Y606044D01*
X676402D01*
X677079D01*
X677756Y605367D01*
Y604690D01*
X677079Y604013D01*
X675725D01*
X675048Y604690D01*
X681819Y608075D02*
X680465Y607398D01*
X679110Y606044D01*
Y604690D01*
X679788Y604013D01*
X681142D01*
X681819Y604690D01*
Y605367D01*
X681142Y606044D01*
X679110D01*
X905173Y622807D02*
Y618745D01*
X907204D01*
X907881Y619422D01*
Y622130D01*
X907204Y622807D01*
X905173D01*
X909236Y622130D02*
X909913Y622807D01*
X911267D01*
X911944Y622130D01*
Y621453D01*
X911267Y620776D01*
X910590D01*
X911267D01*
X911944Y620099D01*
Y619422D01*
X911267Y618745D01*
X909913D01*
X909236Y619422D01*
X916007Y622807D02*
X913298D01*
Y620776D01*
X914653Y621453D01*
X915330D01*
X916007Y620776D01*
Y619422D01*
X915330Y618745D01*
X913976D01*
X913298Y619422D01*
X1098721Y633475D02*
Y629413D01*
X1100752D01*
X1101430Y630090D01*
Y632798D01*
X1100752Y633475D01*
X1098721D01*
X1102784Y632798D02*
X1103461Y633475D01*
X1104815D01*
X1105492Y632798D01*
Y632121D01*
X1104815Y631444D01*
X1104138D01*
X1104815D01*
X1105492Y630767D01*
Y630090D01*
X1104815Y629413D01*
X1103461D01*
X1102784Y630090D01*
X1108878Y629413D02*
Y633475D01*
X1106846Y631444D01*
X1109555D01*
X1290745Y624077D02*
Y620015D01*
X1292776D01*
X1293454Y620692D01*
Y623400D01*
X1292776Y624077D01*
X1290745D01*
X1294808Y623400D02*
X1295485Y624077D01*
X1296839D01*
X1297516Y623400D01*
Y622723D01*
X1296839Y622046D01*
X1296162D01*
X1296839D01*
X1297516Y621369D01*
Y620692D01*
X1296839Y620015D01*
X1295485D01*
X1294808Y620692D01*
X1298871Y623400D02*
X1299548Y624077D01*
X1300902D01*
X1301579Y623400D01*
Y622723D01*
X1300902Y622046D01*
X1300225D01*
X1300902D01*
X1301579Y621369D01*
Y620692D01*
X1300902Y620015D01*
X1299548D01*
X1298871Y620692D01*
X1479213Y593089D02*
Y589027D01*
X1481244D01*
X1481922Y589704D01*
Y592412D01*
X1481244Y593089D01*
X1479213D01*
X1483276Y592412D02*
X1483953Y593089D01*
X1485307D01*
X1485984Y592412D01*
Y591735D01*
X1485307Y591058D01*
X1484630D01*
X1485307D01*
X1485984Y590381D01*
Y589704D01*
X1485307Y589027D01*
X1483953D01*
X1483276Y589704D01*
X1490047Y589027D02*
X1487339D01*
X1490047Y591735D01*
Y592412D01*
X1489370Y593089D01*
X1488016D01*
X1487339Y592412D01*
X1717380Y592073D02*
Y588011D01*
X1719411D01*
X1720089Y588688D01*
Y591396D01*
X1719411Y592073D01*
X1717380D01*
X1721443Y591396D02*
X1722120Y592073D01*
X1723474D01*
X1724151Y591396D01*
Y590719D01*
X1723474Y590042D01*
X1722797D01*
X1723474D01*
X1724151Y589365D01*
Y588688D01*
X1723474Y588011D01*
X1722120D01*
X1721443Y588688D01*
X1725506Y588011D02*
X1726860D01*
X1726183D01*
Y592073D01*
X1725506Y591396D01*
X529253Y370077D02*
Y366015D01*
X531284D01*
X531962Y366692D01*
Y369400D01*
X531284Y370077D01*
X529253D01*
X533316Y369400D02*
X533993Y370077D01*
X535347D01*
X536024Y369400D01*
Y368723D01*
X535347Y368046D01*
X534670D01*
X535347D01*
X536024Y367369D01*
Y366692D01*
X535347Y366015D01*
X533993D01*
X533316Y366692D01*
X537379Y369400D02*
X538056Y370077D01*
X539410D01*
X540087Y369400D01*
Y366692D01*
X539410Y366015D01*
X538056D01*
X537379Y366692D01*
Y369400D01*
X705104Y457707D02*
Y453644D01*
X707135D01*
X707812Y454321D01*
Y457030D01*
X707135Y457707D01*
X705104D01*
X711875Y453644D02*
X709167D01*
X711875Y456353D01*
Y457030D01*
X711198Y457707D01*
X709844D01*
X709167Y457030D01*
X713229Y454321D02*
X713906Y453644D01*
X715261D01*
X715938Y454321D01*
Y457030D01*
X715261Y457707D01*
X713906D01*
X713229Y457030D01*
Y456353D01*
X713906Y455675D01*
X715938D01*
X907205Y426465D02*
Y422403D01*
X909236D01*
X909913Y423080D01*
Y425788D01*
X909236Y426465D01*
X907205D01*
X913976Y422403D02*
X911268D01*
X913976Y425111D01*
Y425788D01*
X913299Y426465D01*
X911945D01*
X911268Y425788D01*
X915331D02*
X916008Y426465D01*
X917362D01*
X918039Y425788D01*
Y425111D01*
X917362Y424434D01*
X918039Y423757D01*
Y423080D01*
X917362Y422403D01*
X916008D01*
X915331Y423080D01*
Y423757D01*
X916008Y424434D01*
X915331Y425111D01*
Y425788D01*
X916008Y424434D02*
X917362D01*
X1086358Y475995D02*
Y471932D01*
X1088389D01*
X1089066Y472609D01*
Y475318D01*
X1088389Y475995D01*
X1086358D01*
X1093129Y471932D02*
X1090421D01*
X1093129Y474641D01*
Y475318D01*
X1092452Y475995D01*
X1091098D01*
X1090421Y475318D01*
X1094483Y475995D02*
X1097192D01*
Y475318D01*
X1094483Y472609D01*
Y471932D01*
X1284649Y431545D02*
Y427483D01*
X1286680D01*
X1287357Y428160D01*
Y430868D01*
X1286680Y431545D01*
X1284649D01*
X1291420Y427483D02*
X1288712D01*
X1291420Y430191D01*
Y430868D01*
X1290743Y431545D01*
X1289389D01*
X1288712Y430868D01*
X1295483Y431545D02*
X1294129Y430868D01*
X1292775Y429514D01*
Y428160D01*
X1293452Y427483D01*
X1294806D01*
X1295483Y428160D01*
Y428837D01*
X1294806Y429514D01*
X1292775D01*
X1480737Y405891D02*
Y401829D01*
X1482768D01*
X1483445Y402506D01*
Y405214D01*
X1482768Y405891D01*
X1480737D01*
X1487508Y401829D02*
X1484800D01*
X1487508Y404537D01*
Y405214D01*
X1486831Y405891D01*
X1485477D01*
X1484800Y405214D01*
X1491571Y405891D02*
X1488862D01*
Y403860D01*
X1490217Y404537D01*
X1490894D01*
X1491571Y403860D01*
Y402506D01*
X1490894Y401829D01*
X1489540D01*
X1488862Y402506D01*
X1717973Y401319D02*
Y397257D01*
X1720004D01*
X1720681Y397934D01*
Y400642D01*
X1720004Y401319D01*
X1717973D01*
X1724744Y397257D02*
X1722036D01*
X1724744Y399965D01*
Y400642D01*
X1724067Y401319D01*
X1722713D01*
X1722036Y400642D01*
X1728130Y397257D02*
Y401319D01*
X1726098Y399288D01*
X1728807D01*
X324529Y-91187D02*
Y-95249D01*
X326560D01*
X327238Y-94572D01*
Y-91864D01*
X326560Y-91187D01*
X324529D01*
X331300Y-95249D02*
X328592D01*
X331300Y-92541D01*
Y-91864D01*
X330623Y-91187D01*
X329269D01*
X328592Y-91864D01*
X332654D02*
X333332Y-91187D01*
X334686D01*
X335363Y-91864D01*
Y-92541D01*
X334686Y-93218D01*
X334009D01*
X334686D01*
X335363Y-93895D01*
Y-94572D01*
X334686Y-95249D01*
X333332D01*
X332654Y-94572D01*
X700278Y264667D02*
Y260604D01*
X702309D01*
X702987Y261281D01*
Y263990D01*
X702309Y264667D01*
X700278D01*
X707049Y260604D02*
X704341D01*
X707049Y263312D01*
Y263990D01*
X706372Y264667D01*
X705018D01*
X704341Y263990D01*
X711112Y260604D02*
X708403D01*
X711112Y263312D01*
Y263990D01*
X710435Y264667D01*
X709081D01*
X708403Y263990D01*
X906866Y237997D02*
Y233935D01*
X908897D01*
X909575Y234612D01*
Y237320D01*
X908897Y237997D01*
X906866D01*
X913637Y233935D02*
X910929D01*
X913637Y236643D01*
Y237320D01*
X912960Y237997D01*
X911606D01*
X910929Y237320D01*
X914992Y233935D02*
X916346D01*
X915669D01*
Y237997D01*
X914992Y237320D01*
X1097451Y256539D02*
Y252477D01*
X1099482D01*
X1100160Y253154D01*
Y255862D01*
X1099482Y256539D01*
X1097451D01*
X1104222Y252477D02*
X1101514D01*
X1104222Y255185D01*
Y255862D01*
X1103545Y256539D01*
X1102191D01*
X1101514Y255862D01*
X1105576D02*
X1106254Y256539D01*
X1107608D01*
X1108285Y255862D01*
Y253154D01*
X1107608Y252477D01*
X1106254D01*
X1105576Y253154D01*
Y255862D01*
X1289814Y239521D02*
Y235459D01*
X1291845D01*
X1292522Y236136D01*
Y238844D01*
X1291845Y239521D01*
X1289814D01*
X1293876Y235459D02*
X1295231D01*
X1294553D01*
Y239521D01*
X1293876Y238844D01*
X1297262Y236136D02*
X1297939Y235459D01*
X1299293D01*
X1299970Y236136D01*
Y238844D01*
X1299293Y239521D01*
X1297939D01*
X1297262Y238844D01*
Y238167D01*
X1297939Y237490D01*
X1299970D01*
X1475234Y205485D02*
Y201423D01*
X1477265D01*
X1477942Y202100D01*
Y204808D01*
X1477265Y205485D01*
X1475234D01*
X1479296Y201423D02*
X1480651D01*
X1479973D01*
Y205485D01*
X1479296Y204808D01*
X1482682D02*
X1483359Y205485D01*
X1484713D01*
X1485390Y204808D01*
Y204131D01*
X1484713Y203454D01*
X1485390Y202777D01*
Y202100D01*
X1484713Y201423D01*
X1483359D01*
X1482682Y202100D01*
Y202777D01*
X1483359Y203454D01*
X1482682Y204131D01*
Y204808D01*
X1483359Y203454D02*
X1484713D01*
X1713232Y211581D02*
Y207519D01*
X1715263D01*
X1715940Y208196D01*
Y210904D01*
X1715263Y211581D01*
X1713232D01*
X1717294Y207519D02*
X1718649D01*
X1717971D01*
Y211581D01*
X1717294Y210904D01*
X1720680Y211581D02*
X1723388D01*
Y210904D01*
X1720680Y208196D01*
Y207519D01*
X522734Y84835D02*
Y80773D01*
X524765D01*
X525442Y81450D01*
Y84158D01*
X524765Y84835D01*
X522734D01*
X526796Y80773D02*
X528151D01*
X527473D01*
Y84835D01*
X526796Y84158D01*
X532890Y84835D02*
X531536Y84158D01*
X530182Y82804D01*
Y81450D01*
X530859Y80773D01*
X532213D01*
X532890Y81450D01*
Y82127D01*
X532213Y82804D01*
X530182D01*
X713996Y40131D02*
Y36069D01*
X716027D01*
X716704Y36746D01*
Y39454D01*
X716027Y40131D01*
X713996D01*
X718058Y36069D02*
X719413D01*
X718735D01*
Y40131D01*
X718058Y39454D01*
X724152Y40131D02*
X721444D01*
Y38100D01*
X722798Y38777D01*
X723475D01*
X724152Y38100D01*
Y36746D01*
X723475Y36069D01*
X722121D01*
X721444Y36746D01*
X895858Y84835D02*
Y80772D01*
X897889D01*
X898567Y81449D01*
Y84158D01*
X897889Y84835D01*
X895858D01*
X899921Y80772D02*
X901275D01*
X900598D01*
Y84835D01*
X899921Y84158D01*
X905338Y80772D02*
Y84835D01*
X903306Y82803D01*
X906015D01*
X1098044Y68071D02*
Y64009D01*
X1100075D01*
X1100752Y64686D01*
Y67394D01*
X1100075Y68071D01*
X1098044D01*
X1102106Y64009D02*
X1103461D01*
X1102783D01*
Y68071D01*
X1102106Y67394D01*
X1105492D02*
X1106169Y68071D01*
X1107523D01*
X1108200Y67394D01*
Y66717D01*
X1107523Y66040D01*
X1106846D01*
X1107523D01*
X1108200Y65363D01*
Y64686D01*
X1107523Y64009D01*
X1106169D01*
X1105492Y64686D01*
X1288290Y53593D02*
Y49531D01*
X1290321D01*
X1290998Y50208D01*
Y52916D01*
X1290321Y53593D01*
X1288290D01*
X1292352Y49531D02*
X1293707D01*
X1293029D01*
Y53593D01*
X1292352Y52916D01*
X1298446Y49531D02*
X1295738D01*
X1298446Y52239D01*
Y52916D01*
X1297769Y53593D01*
X1296415D01*
X1295738Y52916D01*
X1502581Y15747D02*
Y11685D01*
X1504612D01*
X1505289Y12362D01*
Y15070D01*
X1504612Y15747D01*
X1502581D01*
X1506643Y11685D02*
X1507998D01*
X1507321D01*
Y15747D01*
X1506643Y15070D01*
X1510029Y11685D02*
X1511383D01*
X1510706D01*
Y15747D01*
X1510029Y15070D01*
X1715518Y19303D02*
Y15241D01*
X1717549D01*
X1718226Y15918D01*
Y18626D01*
X1717549Y19303D01*
X1715518D01*
X1719580Y15241D02*
X1720935D01*
X1720257D01*
Y19303D01*
X1719580Y18626D01*
X1722966D02*
X1723643Y19303D01*
X1724997D01*
X1725674Y18626D01*
Y15918D01*
X1724997Y15241D01*
X1723643D01*
X1722966Y15918D01*
Y18626D01*
X442130Y-349251D02*
Y-353313D01*
X444162D01*
X444839Y-352636D01*
Y-349928D01*
X444162Y-349251D01*
X442130D01*
X446193Y-352636D02*
X446870Y-353313D01*
X448224D01*
X448902Y-352636D01*
Y-349928D01*
X448224Y-349251D01*
X446870D01*
X446193Y-349928D01*
Y-350605D01*
X446870Y-351282D01*
X448902D01*
X620438Y-272289D02*
Y-276351D01*
X622470D01*
X623147Y-275674D01*
Y-272966D01*
X622470Y-272289D01*
X620438D01*
X624501Y-272966D02*
X625178Y-272289D01*
X626533D01*
X627210Y-272966D01*
Y-273643D01*
X626533Y-274320D01*
X627210Y-274997D01*
Y-275674D01*
X626533Y-276351D01*
X625178D01*
X624501Y-275674D01*
Y-274997D01*
X625178Y-274320D01*
X624501Y-273643D01*
Y-272966D01*
X625178Y-274320D02*
X626533D01*
X907712Y-138431D02*
Y-142493D01*
X909744D01*
X910421Y-141816D01*
Y-139108D01*
X909744Y-138431D01*
X907712D01*
X911775D02*
X914484D01*
Y-139108D01*
X911775Y-141816D01*
Y-142493D01*
X1097196Y-122937D02*
Y-126999D01*
X1099228D01*
X1099905Y-126322D01*
Y-123614D01*
X1099228Y-122937D01*
X1097196D01*
X1103968D02*
X1102613Y-123614D01*
X1101259Y-124968D01*
Y-126322D01*
X1101936Y-126999D01*
X1103290D01*
X1103968Y-126322D01*
Y-125645D01*
X1103290Y-124968D01*
X1101259D01*
X1291252Y-139955D02*
Y-144017D01*
X1293284D01*
X1293961Y-143340D01*
Y-140632D01*
X1293284Y-139955D01*
X1291252D01*
X1298024D02*
X1295315D01*
Y-141986D01*
X1296669Y-141309D01*
X1297346D01*
X1298024Y-141986D01*
Y-143340D01*
X1297346Y-144017D01*
X1295992D01*
X1295315Y-143340D01*
X1480228Y-169419D02*
Y-173481D01*
X1482260D01*
X1482937Y-172804D01*
Y-170096D01*
X1482260Y-169419D01*
X1480228D01*
X1486322Y-173481D02*
Y-169419D01*
X1484291Y-171450D01*
X1487000D01*
X1674284Y-171197D02*
Y-175259D01*
X1676316D01*
X1676993Y-174582D01*
Y-171874D01*
X1676316Y-171197D01*
X1674284D01*
X1678347Y-171874D02*
X1679024Y-171197D01*
X1680379D01*
X1681056Y-171874D01*
Y-172551D01*
X1680379Y-173228D01*
X1679701D01*
X1680379D01*
X1681056Y-173905D01*
Y-174582D01*
X1680379Y-175259D01*
X1679024D01*
X1678347Y-174582D01*
X104226Y463380D02*
X103548Y464057D01*
X102194D01*
X101517Y463380D01*
Y460672D01*
X102194Y459995D01*
X103548D01*
X104226Y460672D01*
X108288Y459995D02*
X105580D01*
X108288Y462703D01*
Y463380D01*
X107611Y464057D01*
X106257D01*
X105580Y463380D01*
X112351Y459995D02*
X109642D01*
X112351Y462703D01*
Y463380D01*
X111674Y464057D01*
X110320D01*
X109642Y463380D01*
X247651Y634322D02*
X246973Y634999D01*
X245619D01*
X244942Y634322D01*
Y631614D01*
X245619Y630937D01*
X246973D01*
X247651Y631614D01*
X251713Y630937D02*
X249005D01*
X251713Y633645D01*
Y634322D01*
X251036Y634999D01*
X249682D01*
X249005Y634322D01*
X253068Y630937D02*
X254422D01*
X253745D01*
Y634999D01*
X253068Y634322D01*
X248498Y674962D02*
X247820Y675639D01*
X246466D01*
X245789Y674962D01*
Y672254D01*
X246466Y671577D01*
X247820D01*
X248498Y672254D01*
X252560Y671577D02*
X249852D01*
X252560Y674285D01*
Y674962D01*
X251883Y675639D01*
X250529D01*
X249852Y674962D01*
X253915D02*
X254592Y675639D01*
X255946D01*
X256623Y674962D01*
Y672254D01*
X255946Y671577D01*
X254592D01*
X253915Y672254D01*
Y674962D01*
X221404Y719920D02*
X220727Y720597D01*
X219373D01*
X218696Y719920D01*
Y717212D01*
X219373Y716535D01*
X220727D01*
X221404Y717212D01*
X222758Y716535D02*
X224113D01*
X223435D01*
Y720597D01*
X222758Y719920D01*
X226144D02*
X226821Y720597D01*
X228175D01*
X228852Y719920D01*
Y719243D01*
X228175Y718566D01*
X227498D01*
X228175D01*
X228852Y717889D01*
Y717212D01*
X228175Y716535D01*
X226821D01*
X226144Y717212D01*
X256964Y721952D02*
X256287Y722629D01*
X254933D01*
X254256Y721952D01*
Y719244D01*
X254933Y718567D01*
X256287D01*
X256964Y719244D01*
X258318Y718567D02*
X259673D01*
X258995D01*
Y722629D01*
X258318Y721952D01*
X264412Y718567D02*
X261704D01*
X264412Y721275D01*
Y721952D01*
X263735Y722629D01*
X262381D01*
X261704Y721952D01*
X184574Y788500D02*
X183897Y789177D01*
X182543D01*
X181866Y788500D01*
Y785792D01*
X182543Y785115D01*
X183897D01*
X184574Y785792D01*
X185928Y785115D02*
X187283D01*
X186605D01*
Y789177D01*
X185928Y788500D01*
X189314D02*
X189991Y789177D01*
X191345D01*
X192022Y788500D01*
Y785792D01*
X191345Y785115D01*
X189991D01*
X189314Y785792D01*
Y788500D01*
X223351Y699854D02*
X222674Y700531D01*
X221320D01*
X220642Y699854D01*
Y697146D01*
X221320Y696469D01*
X222674D01*
X223351Y697146D01*
X224705D02*
X225382Y696469D01*
X226737D01*
X227414Y697146D01*
Y699854D01*
X226737Y700531D01*
X225382D01*
X224705Y699854D01*
Y699177D01*
X225382Y698500D01*
X227414D01*
X274405Y721952D02*
X273728Y722629D01*
X272374D01*
X271696Y721952D01*
Y719244D01*
X272374Y718567D01*
X273728D01*
X274405Y719244D01*
X275759Y721952D02*
X276436Y722629D01*
X277791D01*
X278468Y721952D01*
Y721275D01*
X277791Y720598D01*
X278468Y719921D01*
Y719244D01*
X277791Y718567D01*
X276436D01*
X275759Y719244D01*
Y719921D01*
X276436Y720598D01*
X275759Y721275D01*
Y721952D01*
X276436Y720598D02*
X277791D01*
X333333Y832442D02*
X332656Y833119D01*
X331301D01*
X330624Y832442D01*
Y829734D01*
X331301Y829057D01*
X332656D01*
X333333Y829734D01*
X334687Y833119D02*
X337396D01*
Y832442D01*
X334687Y829734D01*
Y829057D01*
X226399Y645498D02*
X225722Y646175D01*
X224368D01*
X223690Y645498D01*
Y642790D01*
X224368Y642113D01*
X225722D01*
X226399Y642790D01*
X230462Y646175D02*
X229107Y645498D01*
X227753Y644144D01*
Y642790D01*
X228430Y642113D01*
X229785D01*
X230462Y642790D01*
Y643467D01*
X229785Y644144D01*
X227753D01*
X246719Y846666D02*
X246042Y847343D01*
X244688D01*
X244010Y846666D01*
Y843958D01*
X244688Y843281D01*
X246042D01*
X246719Y843958D01*
X250782Y847343D02*
X248073D01*
Y845312D01*
X249427Y845989D01*
X250105D01*
X250782Y845312D01*
Y843958D01*
X250105Y843281D01*
X248750D01*
X248073Y843958D01*
X213953Y874860D02*
X213276Y875537D01*
X211922D01*
X211244Y874860D01*
Y872152D01*
X211922Y871475D01*
X213276D01*
X213953Y872152D01*
X217339Y871475D02*
Y875537D01*
X215307Y873506D01*
X218016D01*
X370925Y771482D02*
X370248Y772159D01*
X368894D01*
X368216Y771482D01*
Y768774D01*
X368894Y768097D01*
X370248D01*
X370925Y768774D01*
X372279Y771482D02*
X372956Y772159D01*
X374310D01*
X374988Y771482D01*
Y770805D01*
X374310Y770128D01*
X373633D01*
X374310D01*
X374988Y769451D01*
Y768774D01*
X374310Y768097D01*
X372956D01*
X372279Y768774D01*
X320887Y768434D02*
X320210Y769111D01*
X318855D01*
X318178Y768434D01*
Y765726D01*
X318855Y765049D01*
X320210D01*
X320887Y765726D01*
X324950Y765049D02*
X322241D01*
X324950Y767757D01*
Y768434D01*
X324272Y769111D01*
X322918D01*
X322241Y768434D01*
X288290Y840062D02*
X287613Y840739D01*
X286259D01*
X285581Y840062D01*
Y837354D01*
X286259Y836677D01*
X287613D01*
X288290Y837354D01*
X289644Y836677D02*
X290998D01*
X290321D01*
Y840739D01*
X289644Y840062D01*
X18459Y188467D02*
Y184405D01*
X20490D01*
X21168Y185082D01*
Y185759D01*
X20490Y186436D01*
X18459D01*
X20490D01*
X21168Y187113D01*
Y187790D01*
X20490Y188467D01*
X18459D01*
X22522D02*
X25230D01*
X23876D01*
Y184405D01*
X29293D02*
X26584D01*
X29293Y187113D01*
Y187790D01*
X28616Y188467D01*
X27262D01*
X26584Y187790D01*
X110322Y406145D02*
Y402083D01*
X112353D01*
X113031Y402760D01*
Y403437D01*
X112353Y404114D01*
X110322D01*
X112353D01*
X113031Y404791D01*
Y405468D01*
X112353Y406145D01*
X110322D01*
X114385D02*
X117093D01*
X115739D01*
Y402083D01*
X118448D02*
X119802D01*
X119125D01*
Y406145D01*
X118448Y405468D01*
X241133Y921767D02*
Y924475D01*
X242487Y925829D01*
X243841Y924475D01*
Y921767D01*
Y923798D01*
X241133D01*
X245196Y925829D02*
X247904D01*
X246550D01*
Y921767D01*
X249258Y925829D02*
X251967D01*
X250613D01*
Y921767D01*
X253321D02*
X254675D01*
X253998D01*
Y925829D01*
X253321Y925152D01*
D17*
X415725Y836676D02*
X430725D01*
X415485Y869188D02*
X430485D01*
X151636Y272822D02*
Y287822D01*
X119124Y272582D02*
Y287582D01*
D18*
X320572Y746824D02*
Y754824D01*
Y746824D02*
X323572Y750824D01*
X320572Y754824D02*
X323572Y750824D01*
X291362Y481648D02*
Y489648D01*
Y481648D02*
X294362Y485648D01*
X291362Y489648D02*
X294362Y485648D01*
X110554Y433094D02*
X118554D01*
X114554Y436094D02*
X118554Y433094D01*
X110554D02*
X114554Y436094D01*
D19*
X134104Y523657D02*
X134467Y523838D01*
X135011Y524383D01*
Y520573D01*
X136897Y523113D02*
Y521299D01*
X137079Y520755D01*
X137441Y520573D01*
X137986D01*
X138348Y520755D01*
X138892Y521299D01*
Y523113D02*
Y520573D01*
X139890Y524383D02*
Y520573D01*
Y524383D02*
X142248D01*
X139890Y522569D02*
X141341D01*
X128262Y582331D02*
X128625Y582512D01*
X129169Y583057D01*
Y579247D01*
X131055Y581787D02*
Y579973D01*
X131237Y579429D01*
X131599Y579247D01*
X132144D01*
X132506Y579429D01*
X133050Y579973D01*
Y581787D02*
Y579247D01*
X134048Y583057D02*
Y579247D01*
Y583057D02*
X136406D01*
X134048Y581243D02*
X135499D01*
X370878Y368717D02*
X371240Y368898D01*
X371785Y369443D01*
Y365633D01*
X374759Y369443D02*
X374215Y369261D01*
X373852Y368717D01*
X373671Y367810D01*
Y367266D01*
X373852Y366359D01*
X374215Y365815D01*
X374759Y365633D01*
X375122D01*
X375666Y365815D01*
X376029Y366359D01*
X376210Y367266D01*
Y367810D01*
X376029Y368717D01*
X375666Y369261D01*
X375122Y369443D01*
X374759D01*
X378151D02*
X377607Y369261D01*
X377244Y368717D01*
X377063Y367810D01*
Y367266D01*
X377244Y366359D01*
X377607Y365815D01*
X378151Y365633D01*
X378514D01*
X379058Y365815D01*
X379421Y366359D01*
X379602Y367266D01*
Y367810D01*
X379421Y368717D01*
X379058Y369261D01*
X378514Y369443D01*
X378151D01*
X380455D02*
Y365633D01*
Y369443D02*
X382088D01*
X382632Y369261D01*
X382813Y369080D01*
X382994Y368717D01*
Y368354D01*
X382813Y367991D01*
X382632Y367810D01*
X382088Y367629D01*
X380455D01*
X381725D02*
X382994Y365633D01*
X483354Y-418429D02*
X483717Y-418248D01*
X484261Y-417703D01*
Y-421513D01*
X486147Y-418973D02*
Y-420787D01*
X486329Y-421331D01*
X486691Y-421513D01*
X487236D01*
X487598Y-421331D01*
X488143Y-420787D01*
Y-418973D02*
Y-421513D01*
X489140Y-417703D02*
Y-421513D01*
Y-417703D02*
X491498D01*
X489140Y-419517D02*
X490591D01*
X939030Y-193131D02*
X939393Y-192950D01*
X939937Y-192405D01*
Y-196215D01*
X941823Y-193675D02*
Y-195489D01*
X942005Y-196033D01*
X942367Y-196215D01*
X942912D01*
X943274Y-196033D01*
X943819Y-195489D01*
Y-193675D02*
Y-196215D01*
X944816Y-192405D02*
Y-196215D01*
Y-192405D02*
X947174D01*
X944816Y-194219D02*
X946267D01*
X1099558Y-188559D02*
X1099921Y-188378D01*
X1100465Y-187833D01*
Y-191643D01*
X1102351Y-189103D02*
Y-190917D01*
X1102533Y-191461D01*
X1102895Y-191643D01*
X1103440D01*
X1103802Y-191461D01*
X1104346Y-190917D01*
Y-189103D02*
Y-191643D01*
X1105344Y-187833D02*
Y-191643D01*
Y-187833D02*
X1107702D01*
X1105344Y-189647D02*
X1106795D01*
X1202936Y-345D02*
X1203299Y-164D01*
X1203843Y381D01*
Y-3429D01*
X1205729Y-889D02*
Y-2703D01*
X1205911Y-3247D01*
X1206273Y-3429D01*
X1206818D01*
X1207180Y-3247D01*
X1207725Y-2703D01*
Y-889D02*
Y-3429D01*
X1208722Y381D02*
Y-3429D01*
Y381D02*
X1211080D01*
X1208722Y-1433D02*
X1210173D01*
X1323840Y-195417D02*
X1324203Y-195236D01*
X1324747Y-194691D01*
Y-198501D01*
X1326633Y-195961D02*
Y-197775D01*
X1326815Y-198319D01*
X1327177Y-198501D01*
X1327722D01*
X1328084Y-198319D01*
X1328629Y-197775D01*
Y-195961D02*
Y-198501D01*
X1329626Y-194691D02*
Y-198501D01*
Y-194691D02*
X1331984D01*
X1329626Y-196505D02*
X1331077D01*
X1407406Y-199735D02*
X1407769Y-199554D01*
X1408313Y-199009D01*
Y-202819D01*
X1410199Y-200279D02*
Y-202093D01*
X1410381Y-202637D01*
X1410743Y-202819D01*
X1411288D01*
X1411650Y-202637D01*
X1412195Y-202093D01*
Y-200279D02*
Y-202819D01*
X1413192Y-199009D02*
Y-202819D01*
Y-199009D02*
X1415550D01*
X1413192Y-200823D02*
X1414643D01*
X1430774Y-42001D02*
X1431137Y-41820D01*
X1431681Y-41275D01*
Y-45085D01*
X1433567Y-42545D02*
Y-44359D01*
X1433749Y-44903D01*
X1434111Y-45085D01*
X1434656D01*
X1435018Y-44903D01*
X1435562Y-44359D01*
Y-42545D02*
Y-45085D01*
X1436560Y-41275D02*
Y-45085D01*
Y-41275D02*
X1438918D01*
X1436560Y-43089D02*
X1438011D01*
X436110Y-400141D02*
X436473Y-399960D01*
X437017Y-399415D01*
Y-403225D01*
X438903Y-400685D02*
Y-402499D01*
X439085Y-403043D01*
X439447Y-403225D01*
X439992D01*
X440354Y-403043D01*
X440899Y-402499D01*
Y-400685D02*
Y-403225D01*
X441896Y-399415D02*
Y-403225D01*
Y-399415D02*
X444254D01*
X441896Y-401229D02*
X443347D01*
X1631688Y-13299D02*
X1632051Y-13118D01*
X1632595Y-12573D01*
Y-16383D01*
X1634481Y-13843D02*
Y-15657D01*
X1634663Y-16201D01*
X1635025Y-16383D01*
X1635570D01*
X1635932Y-16201D01*
X1636476Y-15657D01*
Y-13843D02*
Y-16383D01*
X1637474Y-12573D02*
Y-16383D01*
Y-12573D02*
X1639832D01*
X1637474Y-14387D02*
X1638925D01*
X1596636Y-197449D02*
X1596999Y-197268D01*
X1597543Y-196723D01*
Y-200533D01*
X1599429Y-197993D02*
Y-199807D01*
X1599611Y-200351D01*
X1599973Y-200533D01*
X1600518D01*
X1600880Y-200351D01*
X1601425Y-199807D01*
Y-197993D02*
Y-200533D01*
X1602422Y-196723D02*
Y-200533D01*
Y-196723D02*
X1604780D01*
X1602422Y-198537D02*
X1603873D01*
X1170424Y6259D02*
X1170787Y6440D01*
X1171331Y6985D01*
Y3175D01*
X1173217Y5715D02*
Y3901D01*
X1173399Y3357D01*
X1173761Y3175D01*
X1174306D01*
X1174668Y3357D01*
X1175212Y3901D01*
Y5715D02*
Y3175D01*
X1176210Y6985D02*
Y3175D01*
Y6985D02*
X1178568D01*
X1176210Y5171D02*
X1177661D01*
X591558Y-338673D02*
X591921Y-338492D01*
X592465Y-337947D01*
Y-341757D01*
X594351Y-339217D02*
Y-341031D01*
X594533Y-341575D01*
X594895Y-341757D01*
X595440D01*
X595802Y-341575D01*
X596347Y-341031D01*
Y-339217D02*
Y-341757D01*
X597344Y-337947D02*
Y-341757D01*
Y-337947D02*
X599702D01*
X597344Y-339761D02*
X598795D01*
X223766Y-129885D02*
X224129Y-129704D01*
X224673Y-129159D01*
Y-132969D01*
X226559Y-130429D02*
Y-132243D01*
X226741Y-132787D01*
X227103Y-132969D01*
X227648D01*
X228010Y-132787D01*
X228554Y-132243D01*
Y-130429D02*
Y-132969D01*
X229552Y-129159D02*
Y-132969D01*
Y-129159D02*
X231910D01*
X229552Y-130973D02*
X231003D01*
X353306Y-172049D02*
X353669Y-171868D01*
X354213Y-171323D01*
Y-175133D01*
X356099Y-172593D02*
Y-174407D01*
X356281Y-174951D01*
X356643Y-175133D01*
X357188D01*
X357550Y-174951D01*
X358094Y-174407D01*
Y-172593D02*
Y-175133D01*
X359092Y-171323D02*
Y-175133D01*
Y-171323D02*
X361450D01*
X359092Y-173137D02*
X360543D01*
X611878Y29119D02*
X612241Y29300D01*
X612785Y29845D01*
Y26035D01*
X614671Y28575D02*
Y26761D01*
X614853Y26217D01*
X615215Y26035D01*
X615760D01*
X616122Y26217D01*
X616666Y26761D01*
Y28575D02*
Y26035D01*
X617664Y29845D02*
Y26035D01*
Y29845D02*
X620022D01*
X617664Y28031D02*
X619115D01*
X676648Y-14061D02*
X677011Y-13880D01*
X677555Y-13335D01*
Y-17145D01*
X679441Y-14605D02*
Y-16419D01*
X679623Y-16963D01*
X679985Y-17145D01*
X680530D01*
X680892Y-16963D01*
X681436Y-16419D01*
Y-14605D02*
Y-17145D01*
X682434Y-13335D02*
Y-17145D01*
Y-13335D02*
X684792D01*
X682434Y-15149D02*
X683885D01*
X971796Y15911D02*
X972159Y16092D01*
X972703Y16637D01*
Y12827D01*
X974589Y15367D02*
Y13553D01*
X974771Y13009D01*
X975133Y12827D01*
X975678D01*
X976040Y13009D01*
X976584Y13553D01*
Y15367D02*
Y12827D01*
X977582Y16637D02*
Y12827D01*
Y16637D02*
X979940D01*
X977582Y14823D02*
X979033D01*
X311650Y-133187D02*
X312013Y-133006D01*
X312557Y-132461D01*
Y-136271D01*
X314443Y-133731D02*
Y-135545D01*
X314625Y-136089D01*
X314987Y-136271D01*
X315532D01*
X315894Y-136089D01*
X316439Y-135545D01*
Y-133731D02*
Y-136271D01*
X317436Y-132461D02*
Y-136271D01*
Y-132461D02*
X319794D01*
X317436Y-134275D02*
X318887D01*
X1029708Y224445D02*
X1030071Y224626D01*
X1030615Y225171D01*
Y221361D01*
X1032501Y223901D02*
Y222087D01*
X1032683Y221543D01*
X1033045Y221361D01*
X1033590D01*
X1033952Y221543D01*
X1034497Y222087D01*
Y223901D02*
Y221361D01*
X1035494Y225171D02*
Y221361D01*
Y225171D02*
X1037852D01*
X1035494Y223357D02*
X1036945D01*
X1202428Y188377D02*
X1202791Y188558D01*
X1203335Y189103D01*
Y185293D01*
X1205221Y187833D02*
Y186019D01*
X1205403Y185475D01*
X1205765Y185293D01*
X1206310D01*
X1206672Y185475D01*
X1207216Y186019D01*
Y187833D02*
Y185293D01*
X1208214Y189103D02*
Y185293D01*
Y189103D02*
X1210572D01*
X1208214Y187289D02*
X1209665D01*
X1427726Y156881D02*
X1428089Y157062D01*
X1428633Y157607D01*
Y153797D01*
X1430519Y156337D02*
Y154523D01*
X1430701Y153979D01*
X1431063Y153797D01*
X1431608D01*
X1431970Y153979D01*
X1432514Y154523D01*
Y156337D02*
Y153797D01*
X1433512Y157607D02*
Y153797D01*
Y157607D02*
X1435870D01*
X1433512Y155793D02*
X1434963D01*
X1800344Y180249D02*
X1800707Y180430D01*
X1801251Y180975D01*
Y177165D01*
X1803137Y179705D02*
Y177891D01*
X1803319Y177347D01*
X1803681Y177165D01*
X1804226D01*
X1804588Y177347D01*
X1805132Y177891D01*
Y179705D02*
Y177165D01*
X1806130Y180975D02*
Y177165D01*
Y180975D02*
X1808488D01*
X1806130Y179161D02*
X1807581D01*
X1432298Y381671D02*
X1432661Y381852D01*
X1433205Y382397D01*
Y378587D01*
X1435091Y381127D02*
Y379313D01*
X1435273Y378769D01*
X1435635Y378587D01*
X1436180D01*
X1436542Y378769D01*
X1437086Y379313D01*
Y381127D02*
Y378587D01*
X1438084Y382397D02*
Y378587D01*
Y382397D02*
X1440442D01*
X1438084Y380583D02*
X1439535D01*
X1255006Y459395D02*
X1255369Y459576D01*
X1255913Y460121D01*
Y456311D01*
X1257799Y458851D02*
Y457037D01*
X1257981Y456493D01*
X1258343Y456311D01*
X1258888D01*
X1259250Y456493D01*
X1259794Y457037D01*
Y458851D02*
Y456311D01*
X1260792Y460121D02*
Y456311D01*
Y460121D02*
X1263150D01*
X1260792Y458307D02*
X1262243D01*
X1046472Y419263D02*
X1046835Y419444D01*
X1047379Y419989D01*
Y416179D01*
X1049265Y418719D02*
Y416905D01*
X1049447Y416361D01*
X1049809Y416179D01*
X1050354D01*
X1050716Y416361D01*
X1051261Y416905D01*
Y418719D02*
Y416179D01*
X1052258Y419989D02*
Y416179D01*
Y419989D02*
X1054616D01*
X1052258Y418175D02*
X1053709D01*
X865370Y413421D02*
X865733Y413602D01*
X866277Y414147D01*
Y410337D01*
X868163Y412877D02*
Y411063D01*
X868345Y410519D01*
X868707Y410337D01*
X869252D01*
X869614Y410519D01*
X870158Y411063D01*
Y412877D02*
Y410337D01*
X871156Y414147D02*
Y410337D01*
Y414147D02*
X873514D01*
X871156Y412333D02*
X872607D01*
X682998Y397927D02*
X683361Y398108D01*
X683905Y398653D01*
Y394843D01*
X685791Y397383D02*
Y395569D01*
X685973Y395025D01*
X686335Y394843D01*
X686880D01*
X687242Y395025D01*
X687786Y395569D01*
Y397383D02*
Y394843D01*
X688784Y398653D02*
Y394843D01*
Y398653D02*
X691142D01*
X688784Y396839D02*
X690235D01*
X603242Y355255D02*
X603605Y355436D01*
X604149Y355981D01*
Y352171D01*
X606035Y354711D02*
Y352897D01*
X606217Y352353D01*
X606579Y352171D01*
X607124D01*
X607486Y352353D01*
X608031Y352897D01*
Y354711D02*
Y352171D01*
X609028Y355981D02*
Y352171D01*
Y355981D02*
X611386D01*
X609028Y354167D02*
X610479D01*
X812284Y202093D02*
X812647Y202274D01*
X813191Y202819D01*
Y199009D01*
X815077Y201549D02*
Y199735D01*
X815259Y199191D01*
X815621Y199009D01*
X816166D01*
X816528Y199191D01*
X817073Y199735D01*
Y201549D02*
Y199009D01*
X818070Y202819D02*
Y199009D01*
Y202819D02*
X820428D01*
X818070Y201005D02*
X819521D01*
X853432Y179741D02*
X853795Y179922D01*
X854339Y180467D01*
Y176657D01*
X856225Y179197D02*
Y177383D01*
X856407Y176839D01*
X856769Y176657D01*
X857314D01*
X857676Y176839D01*
X858221Y177383D01*
Y179197D02*
Y176657D01*
X859218Y180467D02*
Y176657D01*
Y180467D02*
X861576D01*
X859218Y178653D02*
X860669D01*
X538980Y561757D02*
X539343Y561938D01*
X539887Y562483D01*
Y558673D01*
X541773Y561213D02*
Y559399D01*
X541955Y558855D01*
X542317Y558673D01*
X542862D01*
X543224Y558855D01*
X543769Y559399D01*
Y561213D02*
Y558673D01*
X544766Y562483D02*
Y558673D01*
Y562483D02*
X547124D01*
X544766Y560669D02*
X546217D01*
X677410Y557947D02*
X677773Y558128D01*
X678317Y558673D01*
Y554863D01*
X680203Y557403D02*
Y555589D01*
X680385Y555045D01*
X680747Y554863D01*
X681292D01*
X681654Y555045D01*
X682198Y555589D01*
Y557403D02*
Y554863D01*
X683196Y558673D02*
Y554863D01*
Y558673D02*
X685554D01*
X683196Y556859D02*
X684647D01*
X845558Y590459D02*
X845921Y590640D01*
X846465Y591185D01*
Y587375D01*
X848351Y589915D02*
Y588101D01*
X848533Y587557D01*
X848895Y587375D01*
X849440D01*
X849802Y587557D01*
X850347Y588101D01*
Y589915D02*
Y587375D01*
X851344Y591185D02*
Y587375D01*
Y591185D02*
X853702D01*
X851344Y589371D02*
X852795D01*
X1025644Y600111D02*
X1026007Y600292D01*
X1026551Y600837D01*
Y597027D01*
X1028437Y599567D02*
Y597753D01*
X1028619Y597209D01*
X1028981Y597027D01*
X1029526D01*
X1029888Y597209D01*
X1030433Y597753D01*
Y599567D02*
Y597027D01*
X1031430Y600837D02*
Y597027D01*
Y600837D02*
X1033788D01*
X1031430Y599023D02*
X1032881D01*
X1211318Y583601D02*
X1211681Y583782D01*
X1212225Y584327D01*
Y580517D01*
X1214111Y583057D02*
Y581243D01*
X1214293Y580699D01*
X1214655Y580517D01*
X1215200D01*
X1215562Y580699D01*
X1216106Y581243D01*
Y583057D02*
Y580517D01*
X1217104Y584327D02*
Y580517D01*
Y584327D02*
X1219462D01*
X1217104Y582513D02*
X1218555D01*
X1435092Y562519D02*
X1435455Y562700D01*
X1435999Y563245D01*
Y559435D01*
X1437885Y561975D02*
Y560161D01*
X1438067Y559617D01*
X1438429Y559435D01*
X1438974D01*
X1439336Y559617D01*
X1439881Y560161D01*
Y561975D02*
Y559435D01*
X1440878Y563245D02*
Y559435D01*
Y563245D02*
X1443236D01*
X1440878Y561431D02*
X1442329D01*
X1776468Y633385D02*
X1776831Y633566D01*
X1777375Y634111D01*
Y630301D01*
X1779261Y632841D02*
Y631027D01*
X1779443Y630483D01*
X1779805Y630301D01*
X1780350D01*
X1780712Y630483D01*
X1781257Y631027D01*
Y632841D02*
Y630301D01*
X1782254Y634111D02*
Y630301D01*
Y634111D02*
X1784612D01*
X1782254Y632297D02*
X1783705D01*
X1653278Y380147D02*
X1653641Y380328D01*
X1654185Y380873D01*
Y377063D01*
X1656071Y379603D02*
Y377789D01*
X1656253Y377245D01*
X1656615Y377063D01*
X1657160D01*
X1657522Y377245D01*
X1658067Y377789D01*
Y379603D02*
Y377063D01*
X1659064Y380873D02*
Y377063D01*
Y380873D02*
X1661422D01*
X1659064Y379059D02*
X1660515D01*
X599432Y856143D02*
X599795Y856324D01*
X600339Y856869D01*
Y853059D01*
X602225Y855599D02*
Y853785D01*
X602407Y853241D01*
X602769Y853059D01*
X603314D01*
X603676Y853241D01*
X604221Y853785D01*
Y855599D02*
Y853059D01*
X605218Y856869D02*
Y853059D01*
Y856869D02*
X607576D01*
X605218Y855055D02*
X606669D01*
X664710Y793405D02*
X665073Y793586D01*
X665617Y794131D01*
Y790321D01*
X667503Y792861D02*
Y791047D01*
X667685Y790503D01*
X668047Y790321D01*
X668592D01*
X668954Y790503D01*
X669499Y791047D01*
Y792861D02*
Y790321D01*
X670496Y794131D02*
Y790321D01*
Y794131D02*
X672854D01*
X670496Y792317D02*
X671947D01*
X144010Y801787D02*
X144373Y801968D01*
X144917Y802513D01*
Y798703D01*
X146803Y801243D02*
Y799429D01*
X146985Y798885D01*
X147347Y798703D01*
X147892D01*
X148254Y798885D01*
X148799Y799429D01*
Y801243D02*
Y798703D01*
X149796Y802513D02*
Y798703D01*
Y802513D02*
X152154D01*
X149796Y800699D02*
X151247D01*
X495292Y271943D02*
X495655Y272124D01*
X496199Y272669D01*
Y268859D01*
X498085Y271399D02*
Y269585D01*
X498267Y269041D01*
X498629Y268859D01*
X499174D01*
X499536Y269041D01*
X500080Y269585D01*
Y271399D02*
Y268859D01*
X501078Y272669D02*
Y268859D01*
Y272669D02*
X503436D01*
X501078Y270855D02*
X502529D01*
X717542Y809661D02*
X717905Y809842D01*
X718449Y810387D01*
Y806577D01*
X720335Y809117D02*
Y807303D01*
X720517Y806759D01*
X720879Y806577D01*
X721424D01*
X721786Y806759D01*
X722330Y807303D01*
Y809117D02*
Y806577D01*
X723328Y810387D02*
Y806577D01*
Y810387D02*
X725686D01*
X723328Y808573D02*
X724779D01*
X1631117Y792643D02*
X1631479Y792824D01*
X1632024Y793369D01*
Y789559D01*
X1634998Y793369D02*
X1634454Y793187D01*
X1634091Y792643D01*
X1633910Y791736D01*
Y791192D01*
X1634091Y790285D01*
X1634454Y789741D01*
X1634998Y789559D01*
X1635361D01*
X1635905Y789741D01*
X1636268Y790285D01*
X1636449Y791192D01*
Y791736D01*
X1636268Y792643D01*
X1635905Y793187D01*
X1635361Y793369D01*
X1634998D01*
X1637302D02*
Y789559D01*
X1639116Y792099D02*
X1637302Y790285D01*
X1638028Y791011D02*
X1639297Y789559D01*
X1639896Y793369D02*
Y789559D01*
Y793369D02*
X1641528D01*
X1642073Y793187D01*
X1642254Y793006D01*
X1642435Y792643D01*
Y792280D01*
X1642254Y791917D01*
X1642073Y791736D01*
X1641528Y791555D01*
X1639896D01*
X1641166D02*
X1642435Y789559D01*
X196316Y412369D02*
X194502Y409829D01*
X197223D01*
X196316Y412369D02*
Y408559D01*
X198075Y408922D02*
X197894Y408741D01*
X198075Y408559D01*
X198257Y408741D01*
X198075Y408922D01*
X201631Y412369D02*
X199817Y408559D01*
X199091Y412369D02*
X201631D01*
X202483Y411099D02*
Y409285D01*
X202665Y408741D01*
X203027Y408559D01*
X203571D01*
X203934Y408741D01*
X204478Y409285D01*
Y411099D02*
Y408559D01*
X205476Y412369D02*
Y408559D01*
Y412369D02*
X207834D01*
X205476Y410555D02*
X206927D01*
X234770Y429677D02*
X235133Y429858D01*
X235677Y430403D01*
Y426593D01*
X238652Y430403D02*
X238107Y430221D01*
X237745Y429677D01*
X237563Y428770D01*
Y428226D01*
X237745Y427319D01*
X238107Y426775D01*
X238652Y426593D01*
X239014D01*
X239559Y426775D01*
X239921Y427319D01*
X240103Y428226D01*
Y428770D01*
X239921Y429677D01*
X239559Y430221D01*
X239014Y430403D01*
X238652D01*
X240955Y429133D02*
Y426593D01*
Y428407D02*
X241499Y428951D01*
X241862Y429133D01*
X242406D01*
X242769Y428951D01*
X242950Y428407D01*
Y426593D01*
X243948Y430403D02*
Y426593D01*
Y430403D02*
X246306D01*
X243948Y428589D02*
X245399D01*
X251688Y333883D02*
X249874Y331343D01*
X252595D01*
X251688Y333883D02*
Y330073D01*
X253447Y330436D02*
X253266Y330255D01*
X253447Y330073D01*
X253629Y330255D01*
X253447Y330436D01*
X257003Y333883D02*
X255189Y330073D01*
X254463Y333883D02*
X257003D01*
X257855Y332613D02*
Y330799D01*
X258036Y330255D01*
X258399Y330073D01*
X258943D01*
X259306Y330255D01*
X259850Y330799D01*
Y332613D02*
Y330073D01*
X260848Y333883D02*
Y330073D01*
Y333883D02*
X263206D01*
X260848Y332069D02*
X262299D01*
X293952Y358049D02*
X294315Y358230D01*
X294859Y358775D01*
Y354965D01*
X297833Y358775D02*
X297289Y358593D01*
X296927Y358049D01*
X296745Y357142D01*
Y356598D01*
X296927Y355691D01*
X297289Y355147D01*
X297833Y354965D01*
X298196D01*
X298741Y355147D01*
X299103Y355691D01*
X299285Y356598D01*
Y357142D01*
X299103Y358049D01*
X298741Y358593D01*
X298196Y358775D01*
X297833D01*
X300137Y357505D02*
Y354965D01*
Y356779D02*
X300681Y357323D01*
X301044Y357505D01*
X301588D01*
X301951Y357323D01*
X302132Y356779D01*
Y354965D01*
X303130Y358775D02*
Y354965D01*
Y358775D02*
X305488D01*
X303130Y356961D02*
X304581D01*
X248622Y485884D02*
Y486065D01*
X248803Y486428D01*
X248985Y486609D01*
X249347Y486791D01*
X250073D01*
X250436Y486609D01*
X250617Y486428D01*
X250799Y486065D01*
Y485702D01*
X250617Y485340D01*
X250254Y484795D01*
X248440Y482981D01*
X250980D01*
X252014Y485884D02*
Y486065D01*
X252195Y486428D01*
X252377Y486609D01*
X252740Y486791D01*
X253465D01*
X253828Y486609D01*
X254009Y486428D01*
X254191Y486065D01*
Y485702D01*
X254009Y485340D01*
X253646Y484795D01*
X251833Y482981D01*
X254372D01*
X255224Y485521D02*
Y483707D01*
X255406Y483163D01*
X255769Y482981D01*
X256313D01*
X256676Y483163D01*
X257220Y483707D01*
Y485521D02*
Y482981D01*
X258217Y486791D02*
Y482981D01*
Y486791D02*
X260576D01*
X258217Y484977D02*
X259669D01*
X344162Y194981D02*
X344525Y195162D01*
X345069Y195707D01*
Y191897D01*
X346955Y194437D02*
Y192623D01*
X347137Y192079D01*
X347499Y191897D01*
X348044D01*
X348406Y192079D01*
X348951Y192623D01*
Y194437D02*
Y191897D01*
X349948Y195707D02*
Y191897D01*
Y195707D02*
X352306D01*
X349948Y193893D02*
X351399D01*
X337059Y482727D02*
X336515Y482545D01*
X336334Y482182D01*
Y481820D01*
X336515Y481457D01*
X336878Y481275D01*
X337603Y481094D01*
X338148Y480913D01*
X338511Y480550D01*
X338692Y480187D01*
Y479643D01*
X338511Y479280D01*
X338329Y479099D01*
X337785Y478917D01*
X337059D01*
X336515Y479099D01*
X336334Y479280D01*
X336152Y479643D01*
Y480187D01*
X336334Y480550D01*
X336697Y480913D01*
X337241Y481094D01*
X337966Y481275D01*
X338329Y481457D01*
X338511Y481820D01*
Y482182D01*
X338329Y482545D01*
X337785Y482727D01*
X337059D01*
X339726Y479280D02*
X339544Y479099D01*
X339726Y478917D01*
X339907Y479099D01*
X339726Y479280D01*
X340923Y481820D02*
Y482001D01*
X341104Y482364D01*
X341286Y482545D01*
X341648Y482727D01*
X342374D01*
X342737Y482545D01*
X342918Y482364D01*
X343100Y482001D01*
Y481638D01*
X342918Y481275D01*
X342556Y480731D01*
X340742Y478917D01*
X343281D01*
X344134Y482727D02*
Y478917D01*
Y482727D02*
X345585Y478917D01*
X347036Y482727D02*
X345585Y478917D01*
X347036Y482727D02*
Y478917D01*
X348124Y482727D02*
Y478917D01*
Y482727D02*
X349757D01*
X350301Y482545D01*
X350482Y482364D01*
X350664Y482001D01*
Y481638D01*
X350482Y481275D01*
X350301Y481094D01*
X349757Y480913D01*
X348124D01*
X349394D02*
X350664Y478917D01*
X345160Y465455D02*
X343346Y462915D01*
X346067D01*
X345160Y465455D02*
Y461645D01*
X346920Y462008D02*
X346738Y461827D01*
X346920Y461645D01*
X347101Y461827D01*
X346920Y462008D01*
X350475Y465455D02*
X348661Y461645D01*
X347936Y465455D02*
X350475D01*
X353504D02*
X351690D01*
X351509Y463822D01*
X351690Y464003D01*
X352234Y464185D01*
X352779D01*
X353323Y464003D01*
X353686Y463641D01*
X353867Y463097D01*
Y462734D01*
X353686Y462190D01*
X353323Y461827D01*
X352779Y461645D01*
X352234D01*
X351690Y461827D01*
X351509Y462008D01*
X351328Y462371D01*
X354720Y465455D02*
Y461645D01*
Y465455D02*
X356171Y461645D01*
X357622Y465455D02*
X356171Y461645D01*
X357622Y465455D02*
Y461645D01*
X358710Y465455D02*
Y461645D01*
Y465455D02*
X360343D01*
X360887Y465273D01*
X361068Y465092D01*
X361250Y464729D01*
Y464366D01*
X361068Y464003D01*
X360887Y463822D01*
X360343Y463641D01*
X358710D01*
X359980D02*
X361250Y461645D01*
X97773Y305181D02*
X95959D01*
X95777Y303548D01*
X95959Y303729D01*
X96503Y303911D01*
X97047D01*
X97591Y303729D01*
X97954Y303367D01*
X98135Y302822D01*
Y302460D01*
X97954Y301916D01*
X97591Y301553D01*
X97047Y301371D01*
X96503D01*
X95959Y301553D01*
X95777Y301734D01*
X95596Y302097D01*
X99169Y301734D02*
X98988Y301553D01*
X99169Y301371D01*
X99351Y301553D01*
X99169Y301734D01*
X100185Y304455D02*
X100548Y304636D01*
X101092Y305181D01*
Y301371D01*
X102979Y305181D02*
Y301371D01*
X104792Y303911D02*
X102979Y302097D01*
X103704Y302822D02*
X104974Y301371D01*
X105573Y305181D02*
Y301371D01*
Y305181D02*
X107205D01*
X107749Y304999D01*
X107930Y304818D01*
X108112Y304455D01*
Y304092D01*
X107930Y303729D01*
X107749Y303548D01*
X107205Y303367D01*
X105573D01*
X106842D02*
X108112Y301371D01*
X102091Y257429D02*
X100277D01*
X100095Y255796D01*
X100277Y255977D01*
X100821Y256159D01*
X101365D01*
X101909Y255977D01*
X102272Y255615D01*
X102453Y255070D01*
Y254708D01*
X102272Y254164D01*
X101909Y253801D01*
X101365Y253619D01*
X100821D01*
X100277Y253801D01*
X100095Y253982D01*
X99914Y254345D01*
X103487Y253982D02*
X103306Y253801D01*
X103487Y253619D01*
X103669Y253801D01*
X103487Y253982D01*
X104503Y256703D02*
X104866Y256884D01*
X105410Y257429D01*
Y253619D01*
X107297Y257429D02*
Y253619D01*
X109110Y256159D02*
X107297Y254345D01*
X108022Y255070D02*
X109292Y253619D01*
X109890Y257429D02*
Y253619D01*
Y257429D02*
X111523D01*
X112067Y257247D01*
X112248Y257066D01*
X112430Y256703D01*
Y256340D01*
X112248Y255977D01*
X112067Y255796D01*
X111523Y255615D01*
X109890D01*
X111160D02*
X112430Y253619D01*
X339028Y391795D02*
X337214Y387985D01*
X336488Y391795D02*
X339028D01*
X340062Y388348D02*
X339880Y388167D01*
X340062Y387985D01*
X340243Y388167D01*
X340062Y388348D01*
X341440Y391795D02*
X343436D01*
X342347Y390344D01*
X342892D01*
X343254Y390162D01*
X343436Y389981D01*
X343617Y389436D01*
Y389074D01*
X343436Y388530D01*
X343073Y388167D01*
X342529Y387985D01*
X341984D01*
X341440Y388167D01*
X341259Y388348D01*
X341078Y388711D01*
X344651Y390888D02*
Y391069D01*
X344832Y391432D01*
X345014Y391613D01*
X345377Y391795D01*
X346102D01*
X346465Y391613D01*
X346646Y391432D01*
X346828Y391069D01*
Y390706D01*
X346646Y390344D01*
X346283Y389799D01*
X344470Y387985D01*
X347009D01*
X347862Y391795D02*
Y387985D01*
Y391795D02*
X349313Y387985D01*
X350764Y391795D02*
X349313Y387985D01*
X350764Y391795D02*
Y387985D01*
X351852Y391795D02*
Y387985D01*
Y391795D02*
X353485D01*
X354029Y391613D01*
X354210Y391432D01*
X354392Y391069D01*
Y390706D01*
X354210Y390344D01*
X354029Y390162D01*
X353485Y389981D01*
X351852D01*
X353122D02*
X354392Y387985D01*
X336280Y408595D02*
X336642Y408776D01*
X337187Y409321D01*
Y405511D01*
X339254Y405874D02*
X339073Y405693D01*
X339254Y405511D01*
X339436Y405693D01*
X339254Y405874D01*
X340452Y408414D02*
Y408595D01*
X340633Y408958D01*
X340815Y409139D01*
X341177Y409321D01*
X341903D01*
X342266Y409139D01*
X342447Y408958D01*
X342628Y408595D01*
Y408232D01*
X342447Y407869D01*
X342084Y407325D01*
X340270Y405511D01*
X342810D01*
X345476Y409321D02*
X343662Y406781D01*
X346383D01*
X345476Y409321D02*
Y405511D01*
X347054Y409321D02*
Y405511D01*
Y409321D02*
X348505Y405511D01*
X349957Y409321D02*
X348505Y405511D01*
X349957Y409321D02*
Y405511D01*
X351045Y409321D02*
Y405511D01*
Y409321D02*
X352677D01*
X353222Y409139D01*
X353403Y408958D01*
X353584Y408595D01*
Y408232D01*
X353403Y407869D01*
X353222Y407688D01*
X352677Y407507D01*
X351045D01*
X352315D02*
X353584Y405511D01*
X338611Y427826D02*
X338429Y428189D01*
X337885Y428371D01*
X337522D01*
X336978Y428189D01*
X336615Y427645D01*
X336434Y426738D01*
Y425831D01*
X336615Y425106D01*
X336978Y424743D01*
X337522Y424561D01*
X337704D01*
X338248Y424743D01*
X338611Y425106D01*
X338792Y425650D01*
Y425831D01*
X338611Y426375D01*
X338248Y426738D01*
X337704Y426920D01*
X337522D01*
X336978Y426738D01*
X336615Y426375D01*
X336434Y425831D01*
X339808Y424924D02*
X339626Y424743D01*
X339808Y424561D01*
X339989Y424743D01*
X339808Y424924D01*
X343000Y427826D02*
X342819Y428189D01*
X342275Y428371D01*
X341912D01*
X341368Y428189D01*
X341005Y427645D01*
X340824Y426738D01*
Y425831D01*
X341005Y425106D01*
X341368Y424743D01*
X341912Y424561D01*
X342093D01*
X342637Y424743D01*
X343000Y425106D01*
X343182Y425650D01*
Y425831D01*
X343000Y426375D01*
X342637Y426738D01*
X342093Y426920D01*
X341912D01*
X341368Y426738D01*
X341005Y426375D01*
X340824Y425831D01*
X346193Y428371D02*
X344379D01*
X344197Y426738D01*
X344379Y426920D01*
X344923Y427101D01*
X345467D01*
X346011Y426920D01*
X346374Y426557D01*
X346555Y426012D01*
Y425650D01*
X346374Y425106D01*
X346011Y424743D01*
X345467Y424561D01*
X344923D01*
X344379Y424743D01*
X344197Y424924D01*
X344016Y425287D01*
X347408Y428371D02*
Y424561D01*
Y428371D02*
X348859Y424561D01*
X350310Y428371D02*
X348859Y424561D01*
X350310Y428371D02*
Y424561D01*
X351399Y428371D02*
Y424561D01*
Y428371D02*
X353031D01*
X353575Y428189D01*
X353757Y428008D01*
X353938Y427645D01*
Y427282D01*
X353757Y426920D01*
X353575Y426738D01*
X353031Y426557D01*
X351399D01*
X352668D02*
X353938Y424561D01*
X344525Y371729D02*
X342711D01*
X342530Y370096D01*
X342711Y370277D01*
X343255Y370459D01*
X343799D01*
X344343Y370277D01*
X344706Y369915D01*
X344888Y369370D01*
Y369008D01*
X344706Y368464D01*
X344343Y368101D01*
X343799Y367919D01*
X343255D01*
X342711Y368101D01*
X342530Y368282D01*
X342348Y368645D01*
X345922Y368282D02*
X345740Y368101D01*
X345922Y367919D01*
X346103Y368101D01*
X345922Y368282D01*
X349114Y371184D02*
X348933Y371547D01*
X348388Y371729D01*
X348026D01*
X347481Y371547D01*
X347119Y371003D01*
X346937Y370096D01*
Y369189D01*
X347119Y368464D01*
X347481Y368101D01*
X348026Y367919D01*
X348207D01*
X348751Y368101D01*
X349114Y368464D01*
X349295Y369008D01*
Y369189D01*
X349114Y369733D01*
X348751Y370096D01*
X348207Y370277D01*
X348026D01*
X347481Y370096D01*
X347119Y369733D01*
X346937Y369189D01*
X350130Y371729D02*
Y367919D01*
Y371729D02*
X351581Y367919D01*
X353032Y371729D02*
X351581Y367919D01*
X353032Y371729D02*
Y367919D01*
X354120Y371729D02*
Y367919D01*
Y371729D02*
X355753D01*
X356297Y371547D01*
X356478Y371366D01*
X356660Y371003D01*
Y370640D01*
X356478Y370277D01*
X356297Y370096D01*
X355753Y369915D01*
X354120D01*
X355390D02*
X356660Y367919D01*
X343636Y445389D02*
X341822Y442849D01*
X344543D01*
X343636Y445389D02*
Y441579D01*
X345396Y441942D02*
X345214Y441761D01*
X345396Y441579D01*
X345577Y441761D01*
X345396Y441942D01*
X348770Y444119D02*
X348588Y443575D01*
X348226Y443212D01*
X347681Y443031D01*
X347500D01*
X346956Y443212D01*
X346593Y443575D01*
X346412Y444119D01*
Y444300D01*
X346593Y444844D01*
X346956Y445207D01*
X347500Y445389D01*
X347681D01*
X348226Y445207D01*
X348588Y444844D01*
X348770Y444119D01*
Y443212D01*
X348588Y442305D01*
X348226Y441761D01*
X347681Y441579D01*
X347318D01*
X346774Y441761D01*
X346593Y442124D01*
X352162Y444119D02*
X351980Y443575D01*
X351618Y443212D01*
X351073Y443031D01*
X350892D01*
X350348Y443212D01*
X349985Y443575D01*
X349804Y444119D01*
Y444300D01*
X349985Y444844D01*
X350348Y445207D01*
X350892Y445389D01*
X351073D01*
X351618Y445207D01*
X351980Y444844D01*
X352162Y444119D01*
Y443212D01*
X351980Y442305D01*
X351618Y441761D01*
X351073Y441579D01*
X350710D01*
X350166Y441761D01*
X349985Y442124D01*
X353196Y445389D02*
Y441579D01*
Y445389D02*
X354647Y441579D01*
X356098Y445389D02*
X354647Y441579D01*
X356098Y445389D02*
Y441579D01*
X357186Y445389D02*
Y441579D01*
Y445389D02*
X358819D01*
X359363Y445207D01*
X359544Y445026D01*
X359726Y444663D01*
Y444300D01*
X359544Y443937D01*
X359363Y443756D01*
X358819Y443575D01*
X357186D01*
X358456D02*
X359726Y441579D01*
X282486Y467777D02*
X282848Y467958D01*
X283393Y468503D01*
Y464693D01*
X286367Y468503D02*
X285823Y468321D01*
X285460Y467777D01*
X285279Y466870D01*
Y466326D01*
X285460Y465419D01*
X285823Y464875D01*
X286367Y464693D01*
X286730D01*
X287274Y464875D01*
X287637Y465419D01*
X287818Y466326D01*
Y466870D01*
X287637Y467777D01*
X287274Y468321D01*
X286730Y468503D01*
X286367D01*
X289759D02*
X289215Y468321D01*
X288852Y467777D01*
X288671Y466870D01*
Y466326D01*
X288852Y465419D01*
X289215Y464875D01*
X289759Y464693D01*
X290122D01*
X290666Y464875D01*
X291029Y465419D01*
X291210Y466326D01*
Y466870D01*
X291029Y467777D01*
X290666Y468321D01*
X290122Y468503D01*
X289759D01*
X292063D02*
Y464693D01*
Y468503D02*
X293696D01*
X294240Y468321D01*
X294421Y468140D01*
X294602Y467777D01*
Y467414D01*
X294421Y467052D01*
X294240Y466870D01*
X293696Y466689D01*
X292063D01*
X293333D02*
X294602Y464693D01*
X255770Y610017D02*
X256133Y610198D01*
X256677Y610743D01*
Y606933D01*
X258563Y609473D02*
Y607659D01*
X258745Y607115D01*
X259107Y606933D01*
X259652D01*
X260014Y607115D01*
X260558Y607659D01*
Y609473D02*
Y606933D01*
X261556Y610743D02*
Y606933D01*
Y610743D02*
X263914D01*
X261556Y608929D02*
X263007D01*
X76954Y502067D02*
X77317Y502248D01*
X77861Y502793D01*
Y498983D01*
X79747Y501523D02*
Y499709D01*
X79929Y499165D01*
X80291Y498983D01*
X80836D01*
X81198Y499165D01*
X81742Y499709D01*
Y501523D02*
Y498983D01*
X82740Y502793D02*
Y498983D01*
Y502793D02*
X85098D01*
X82740Y500979D02*
X84191D01*
X398709Y647609D02*
X399071Y647790D01*
X399616Y648335D01*
Y644525D01*
X402590Y648335D02*
X402046Y648153D01*
X401683Y647609D01*
X401502Y646702D01*
Y646158D01*
X401683Y645251D01*
X402046Y644707D01*
X402590Y644525D01*
X402953D01*
X403497Y644707D01*
X403860Y645251D01*
X404041Y646158D01*
Y646702D01*
X403860Y647609D01*
X403497Y648153D01*
X402953Y648335D01*
X402590D01*
X404894D02*
Y644525D01*
X406708Y647065D02*
X404894Y645251D01*
X405620Y645976D02*
X406889Y644525D01*
X407488Y648335D02*
Y644525D01*
Y648335D02*
X409120D01*
X409665Y648153D01*
X409846Y647972D01*
X410027Y647609D01*
Y647246D01*
X409846Y646883D01*
X409665Y646702D01*
X409120Y646521D01*
X407488D01*
X408758D02*
X410027Y644525D01*
X563047Y772831D02*
X563409Y773012D01*
X563954Y773557D01*
Y769747D01*
X566928Y773557D02*
X566384Y773375D01*
X566021Y772831D01*
X565840Y771924D01*
Y771380D01*
X566021Y770473D01*
X566384Y769929D01*
X566928Y769747D01*
X567291D01*
X567835Y769929D01*
X568198Y770473D01*
X568380Y771380D01*
Y771924D01*
X568198Y772831D01*
X567835Y773375D01*
X567291Y773557D01*
X566928D01*
X569232D02*
Y769747D01*
X571046Y772287D02*
X569232Y770473D01*
X569958Y771199D02*
X571227Y769747D01*
X571826Y773557D02*
Y769747D01*
Y773557D02*
X573458D01*
X574003Y773375D01*
X574184Y773194D01*
X574365Y772831D01*
Y772468D01*
X574184Y772105D01*
X574003Y771924D01*
X573458Y771743D01*
X571826D01*
X573096D02*
X574365Y769747D01*
X208209Y852587D02*
X208571Y852768D01*
X209116Y853313D01*
Y849503D01*
X212090Y853313D02*
X211546Y853131D01*
X211183Y852587D01*
X211002Y851680D01*
Y851136D01*
X211183Y850229D01*
X211546Y849685D01*
X212090Y849503D01*
X212453D01*
X212997Y849685D01*
X213360Y850229D01*
X213542Y851136D01*
Y851680D01*
X213360Y852587D01*
X212997Y853131D01*
X212453Y853313D01*
X212090D01*
X214394D02*
Y849503D01*
X216208Y852043D02*
X214394Y850229D01*
X215120Y850955D02*
X216389Y849503D01*
X216988Y853313D02*
Y849503D01*
Y853313D02*
X218620D01*
X219165Y853131D01*
X219346Y852950D01*
X219527Y852587D01*
Y852224D01*
X219346Y851861D01*
X219165Y851680D01*
X218620Y851499D01*
X216988D01*
X218258D02*
X219527Y849503D01*
X1863019Y797723D02*
X1863381Y797904D01*
X1863926Y798449D01*
Y794639D01*
X1866900Y798449D02*
X1866356Y798267D01*
X1865993Y797723D01*
X1865812Y796816D01*
Y796272D01*
X1865993Y795365D01*
X1866356Y794821D01*
X1866900Y794639D01*
X1867263D01*
X1867807Y794821D01*
X1868170Y795365D01*
X1868351Y796272D01*
Y796816D01*
X1868170Y797723D01*
X1867807Y798267D01*
X1867263Y798449D01*
X1866900D01*
X1869204D02*
Y794639D01*
X1871018Y797179D02*
X1869204Y795365D01*
X1869930Y796090D02*
X1871199Y794639D01*
X1871798Y798449D02*
Y794639D01*
Y798449D02*
X1873430D01*
X1873975Y798267D01*
X1874156Y798086D01*
X1874337Y797723D01*
Y797360D01*
X1874156Y796998D01*
X1873975Y796816D01*
X1873430Y796635D01*
X1871798D01*
X1873068D02*
X1874337Y794639D01*
X185748Y813181D02*
X187743D01*
X186655Y811730D01*
X187199D01*
X187562Y811548D01*
X187743Y811367D01*
X187925Y810823D01*
Y810460D01*
X187743Y809916D01*
X187381Y809553D01*
X186836Y809371D01*
X186292D01*
X185748Y809553D01*
X185567Y809734D01*
X185385Y810097D01*
X189140Y813181D02*
X191135D01*
X190047Y811730D01*
X190591D01*
X190954Y811548D01*
X191135Y811367D01*
X191317Y810823D01*
Y810460D01*
X191135Y809916D01*
X190773Y809553D01*
X190229Y809371D01*
X189684D01*
X189140Y809553D01*
X188959Y809734D01*
X188777Y810097D01*
X193258Y813181D02*
X192714Y812999D01*
X192351Y812455D01*
X192169Y811548D01*
Y811004D01*
X192351Y810097D01*
X192714Y809553D01*
X193258Y809371D01*
X193620D01*
X194165Y809553D01*
X194527Y810097D01*
X194709Y811004D01*
Y811548D01*
X194527Y812455D01*
X194165Y812999D01*
X193620Y813181D01*
X193258D01*
X195561D02*
Y809371D01*
X197375Y811911D02*
X195561Y810097D01*
X196287Y810823D02*
X197557Y809371D01*
X198155Y813181D02*
Y809371D01*
Y813181D02*
X199788D01*
X200332Y812999D01*
X200513Y812818D01*
X200695Y812455D01*
Y812092D01*
X200513Y811730D01*
X200332Y811548D01*
X199788Y811367D01*
X198155D01*
X199425D02*
X200695Y809371D01*
X243515Y807375D02*
X243877Y807556D01*
X244422Y808101D01*
Y804291D01*
X247396Y808101D02*
X246852Y807919D01*
X246489Y807375D01*
X246308Y806468D01*
Y805924D01*
X246489Y805017D01*
X246852Y804473D01*
X247396Y804291D01*
X247759D01*
X248303Y804473D01*
X248666Y805017D01*
X248848Y805924D01*
Y806468D01*
X248666Y807375D01*
X248303Y807919D01*
X247759Y808101D01*
X247396D01*
X249700D02*
Y804291D01*
X251514Y806831D02*
X249700Y805017D01*
X250426Y805742D02*
X251695Y804291D01*
X252294Y808101D02*
Y804291D01*
Y808101D02*
X253926D01*
X254471Y807919D01*
X254652Y807738D01*
X254833Y807375D01*
Y807012D01*
X254652Y806649D01*
X254471Y806468D01*
X253926Y806287D01*
X252294D01*
X253564D02*
X254833Y804291D01*
X200988Y781975D02*
X201351Y782156D01*
X201895Y782701D01*
Y778891D01*
X204869Y782701D02*
X204325Y782519D01*
X203963Y781975D01*
X203781Y781068D01*
Y780524D01*
X203963Y779617D01*
X204325Y779073D01*
X204869Y778891D01*
X205232D01*
X205777Y779073D01*
X206139Y779617D01*
X206321Y780524D01*
Y781068D01*
X206139Y781975D01*
X205777Y782519D01*
X205232Y782701D01*
X204869D01*
X207173Y781431D02*
Y778891D01*
Y780705D02*
X207717Y781249D01*
X208080Y781431D01*
X208624D01*
X208987Y781249D01*
X209168Y780705D01*
Y778891D01*
X210166Y782701D02*
Y778891D01*
Y782701D02*
X212524D01*
X210166Y780887D02*
X211617D01*
X423410Y887385D02*
X423773Y887566D01*
X424317Y888111D01*
Y884301D01*
X426203Y886841D02*
Y885027D01*
X426385Y884483D01*
X426747Y884301D01*
X427292D01*
X427654Y884483D01*
X428199Y885027D01*
Y886841D02*
Y884301D01*
X429196Y888111D02*
Y884301D01*
Y888111D02*
X431554D01*
X429196Y886297D02*
X430647D01*
X304601Y695233D02*
X304963Y695414D01*
X305508Y695959D01*
Y692149D01*
X308482Y695959D02*
X307938Y695777D01*
X307575Y695233D01*
X307394Y694326D01*
Y693782D01*
X307575Y692875D01*
X307938Y692331D01*
X308482Y692149D01*
X308845D01*
X309389Y692331D01*
X309752Y692875D01*
X309933Y693782D01*
Y694326D01*
X309752Y695233D01*
X309389Y695777D01*
X308845Y695959D01*
X308482D01*
X310786D02*
Y692149D01*
X312600Y694689D02*
X310786Y692875D01*
X311512Y693600D02*
X312781Y692149D01*
X313380Y695959D02*
Y692149D01*
Y695959D02*
X315012D01*
X315557Y695777D01*
X315738Y695596D01*
X315919Y695233D01*
Y694870D01*
X315738Y694508D01*
X315557Y694326D01*
X315012Y694145D01*
X313380D01*
X314650D02*
X315919Y692149D01*
X328605Y669453D02*
X328967Y669634D01*
X329512Y670179D01*
Y666369D01*
X332486Y670179D02*
X331942Y669997D01*
X331579Y669453D01*
X331398Y668546D01*
Y668002D01*
X331579Y667095D01*
X331942Y666551D01*
X332486Y666369D01*
X332849D01*
X333393Y666551D01*
X333756Y667095D01*
X333937Y668002D01*
Y668546D01*
X333756Y669453D01*
X333393Y669997D01*
X332849Y670179D01*
X332486D01*
X334790D02*
Y666369D01*
X336604Y668909D02*
X334790Y667095D01*
X335516Y667821D02*
X336785Y666369D01*
X337384Y670179D02*
Y666369D01*
Y670179D02*
X339016D01*
X339561Y669997D01*
X339742Y669816D01*
X339923Y669453D01*
Y669090D01*
X339742Y668727D01*
X339561Y668546D01*
X339016Y668365D01*
X337384D01*
X338654D02*
X339923Y666369D01*
X589209Y801787D02*
X589571Y801968D01*
X590116Y802513D01*
Y798703D01*
X593090Y802513D02*
X592546Y802331D01*
X592183Y801787D01*
X592002Y800880D01*
Y800336D01*
X592183Y799429D01*
X592546Y798885D01*
X593090Y798703D01*
X593453D01*
X593997Y798885D01*
X594360Y799429D01*
X594542Y800336D01*
Y800880D01*
X594360Y801787D01*
X593997Y802331D01*
X593453Y802513D01*
X593090D01*
X595394D02*
Y798703D01*
X597208Y801243D02*
X595394Y799429D01*
X596120Y800154D02*
X597389Y798703D01*
X597988Y802513D02*
Y798703D01*
Y802513D02*
X599620D01*
X600165Y802331D01*
X600346Y802150D01*
X600527Y801787D01*
Y801424D01*
X600346Y801061D01*
X600165Y800880D01*
X599620Y800699D01*
X597988D01*
X599258D02*
X600527Y798703D01*
X434777Y678597D02*
X435139Y678778D01*
X435684Y679323D01*
Y675513D01*
X438658Y679323D02*
X438114Y679141D01*
X437751Y678597D01*
X437570Y677690D01*
Y677146D01*
X437751Y676239D01*
X438114Y675695D01*
X438658Y675513D01*
X439021D01*
X439565Y675695D01*
X439928Y676239D01*
X440109Y677146D01*
Y677690D01*
X439928Y678597D01*
X439565Y679141D01*
X439021Y679323D01*
X438658D01*
X440962D02*
Y675513D01*
X442776Y678053D02*
X440962Y676239D01*
X441688Y676964D02*
X442957Y675513D01*
X443556Y679323D02*
Y675513D01*
Y679323D02*
X445188D01*
X445733Y679141D01*
X445914Y678960D01*
X446095Y678597D01*
Y678234D01*
X445914Y677871D01*
X445733Y677690D01*
X445188Y677509D01*
X443556D01*
X444826D02*
X446095Y675513D01*
X80010Y-59400D02*
X80373Y-59219D01*
X80917Y-58675D01*
Y-62484D01*
X83892Y-58675D02*
X83348Y-58856D01*
X82985Y-59400D01*
X82803Y-60307D01*
Y-60851D01*
X82985Y-61758D01*
X83348Y-62303D01*
X83892Y-62484D01*
X84255D01*
X84799Y-62303D01*
X85162Y-61758D01*
X85343Y-60851D01*
Y-60307D01*
X85162Y-59400D01*
X84799Y-58856D01*
X84255Y-58675D01*
X83892D01*
X86195D02*
Y-62484D01*
X88009Y-59945D02*
X86195Y-61758D01*
X86921Y-61033D02*
X88191Y-62484D01*
X88789Y-58675D02*
Y-62484D01*
Y-58675D02*
X90422D01*
X90966Y-58856D01*
X91147Y-59038D01*
X91329Y-59400D01*
Y-59763D01*
X91147Y-60126D01*
X90966Y-60307D01*
X90422Y-60489D01*
X88789D01*
X90059D02*
X91329Y-62484D01*
X633405Y764957D02*
X633767Y765138D01*
X634312Y765683D01*
Y761873D01*
X637286Y765683D02*
X636742Y765501D01*
X636379Y764957D01*
X636198Y764050D01*
Y763506D01*
X636379Y762599D01*
X636742Y762055D01*
X637286Y761873D01*
X637649D01*
X638193Y762055D01*
X638556Y762599D01*
X638737Y763506D01*
Y764050D01*
X638556Y764957D01*
X638193Y765501D01*
X637649Y765683D01*
X637286D01*
X639590D02*
Y761873D01*
X641404Y764413D02*
X639590Y762599D01*
X640316Y763325D02*
X641585Y761873D01*
X642184Y765683D02*
Y761873D01*
Y765683D02*
X643816D01*
X644361Y765501D01*
X644542Y765320D01*
X644723Y764957D01*
Y764594D01*
X644542Y764231D01*
X644361Y764050D01*
X643816Y763869D01*
X642184D01*
X643454D02*
X644723Y761873D01*
X815777Y777403D02*
X816139Y777584D01*
X816684Y778129D01*
Y774319D01*
X819658Y778129D02*
X819114Y777947D01*
X818751Y777403D01*
X818570Y776496D01*
Y775952D01*
X818751Y775045D01*
X819114Y774501D01*
X819658Y774319D01*
X820021D01*
X820565Y774501D01*
X820928Y775045D01*
X821109Y775952D01*
Y776496D01*
X820928Y777403D01*
X820565Y777947D01*
X820021Y778129D01*
X819658D01*
X821962D02*
Y774319D01*
X823776Y776859D02*
X821962Y775045D01*
X822688Y775770D02*
X823957Y774319D01*
X824556Y778129D02*
Y774319D01*
Y778129D02*
X826188D01*
X826733Y777947D01*
X826914Y777766D01*
X827095Y777403D01*
Y777040D01*
X826914Y776677D01*
X826733Y776496D01*
X826188Y776315D01*
X824556D01*
X825826D02*
X827095Y774319D01*
X1021771Y785023D02*
X1022133Y785204D01*
X1022678Y785749D01*
Y781939D01*
X1025652Y785749D02*
X1025108Y785567D01*
X1024745Y785023D01*
X1024564Y784116D01*
Y783572D01*
X1024745Y782665D01*
X1025108Y782121D01*
X1025652Y781939D01*
X1026015D01*
X1026559Y782121D01*
X1026922Y782665D01*
X1027104Y783572D01*
Y784116D01*
X1026922Y785023D01*
X1026559Y785567D01*
X1026015Y785749D01*
X1025652D01*
X1027956D02*
Y781939D01*
X1029770Y784479D02*
X1027956Y782665D01*
X1028682Y783391D02*
X1029951Y781939D01*
X1030550Y785749D02*
Y781939D01*
Y785749D02*
X1032182D01*
X1032727Y785567D01*
X1032908Y785386D01*
X1033089Y785023D01*
Y784660D01*
X1032908Y784297D01*
X1032727Y784116D01*
X1032182Y783935D01*
X1030550D01*
X1031820D02*
X1033089Y781939D01*
X1221669Y791119D02*
X1222031Y791300D01*
X1222576Y791845D01*
Y788035D01*
X1225550Y791845D02*
X1225006Y791663D01*
X1224643Y791119D01*
X1224462Y790212D01*
Y789668D01*
X1224643Y788761D01*
X1225006Y788217D01*
X1225550Y788035D01*
X1225913D01*
X1226457Y788217D01*
X1226820Y788761D01*
X1227001Y789668D01*
Y790212D01*
X1226820Y791119D01*
X1226457Y791663D01*
X1225913Y791845D01*
X1225550D01*
X1227854D02*
Y788035D01*
X1229668Y790575D02*
X1227854Y788761D01*
X1228580Y789486D02*
X1229849Y788035D01*
X1230448Y791845D02*
Y788035D01*
Y791845D02*
X1232080D01*
X1232625Y791663D01*
X1232806Y791482D01*
X1232987Y791119D01*
Y790756D01*
X1232806Y790394D01*
X1232625Y790212D01*
X1232080Y790031D01*
X1230448D01*
X1231718D02*
X1232987Y788035D01*
X1437569Y788579D02*
X1437931Y788760D01*
X1438476Y789305D01*
Y785495D01*
X1441450Y789305D02*
X1440906Y789123D01*
X1440543Y788579D01*
X1440362Y787672D01*
Y787128D01*
X1440543Y786221D01*
X1440906Y785677D01*
X1441450Y785495D01*
X1441813D01*
X1442357Y785677D01*
X1442720Y786221D01*
X1442901Y787128D01*
Y787672D01*
X1442720Y788579D01*
X1442357Y789123D01*
X1441813Y789305D01*
X1441450D01*
X1443754D02*
Y785495D01*
X1445568Y788035D02*
X1443754Y786221D01*
X1444480Y786946D02*
X1445749Y785495D01*
X1446348Y789305D02*
Y785495D01*
Y789305D02*
X1447980D01*
X1448525Y789123D01*
X1448706Y788942D01*
X1448887Y788579D01*
Y788216D01*
X1448706Y787853D01*
X1448525Y787672D01*
X1447980Y787491D01*
X1446348D01*
X1447618D02*
X1448887Y785495D01*
X75984Y429169D02*
X76346Y429350D01*
X76891Y429895D01*
Y426085D01*
X79865Y429895D02*
X79321Y429713D01*
X78958Y429169D01*
X78777Y428262D01*
Y427718D01*
X78958Y426811D01*
X79321Y426267D01*
X79865Y426085D01*
X80228D01*
X80772Y426267D01*
X81135Y426811D01*
X81316Y427718D01*
Y428262D01*
X81135Y429169D01*
X80772Y429713D01*
X80228Y429895D01*
X79865D01*
X83257D02*
X82713Y429713D01*
X82350Y429169D01*
X82169Y428262D01*
Y427718D01*
X82350Y426811D01*
X82713Y426267D01*
X83257Y426085D01*
X83620D01*
X84164Y426267D01*
X84527Y426811D01*
X84708Y427718D01*
Y428262D01*
X84527Y429169D01*
X84164Y429713D01*
X83620Y429895D01*
X83257D01*
X85561D02*
Y426085D01*
Y429895D02*
X87193D01*
X87738Y429713D01*
X87919Y429532D01*
X88100Y429169D01*
Y428806D01*
X87919Y428443D01*
X87738Y428262D01*
X87193Y428081D01*
X85561D01*
X86831D02*
X88100Y426085D01*
X387642Y889417D02*
X388004Y889598D01*
X388549Y890143D01*
Y886333D01*
X391523Y890143D02*
X390979Y889961D01*
X390616Y889417D01*
X390435Y888510D01*
Y887966D01*
X390616Y887059D01*
X390979Y886515D01*
X391523Y886333D01*
X391886D01*
X392430Y886515D01*
X392793Y887059D01*
X392974Y887966D01*
Y888510D01*
X392793Y889417D01*
X392430Y889961D01*
X391886Y890143D01*
X391523D01*
X394915D02*
X394371Y889961D01*
X394008Y889417D01*
X393827Y888510D01*
Y887966D01*
X394008Y887059D01*
X394371Y886515D01*
X394915Y886333D01*
X395278D01*
X395822Y886515D01*
X396185Y887059D01*
X396366Y887966D01*
Y888510D01*
X396185Y889417D01*
X395822Y889961D01*
X395278Y890143D01*
X394915D01*
X397219D02*
Y886333D01*
Y890143D02*
X398852D01*
X399396Y889961D01*
X399577Y889780D01*
X399758Y889417D01*
Y889054D01*
X399577Y888691D01*
X399396Y888510D01*
X398852Y888329D01*
X397219D01*
X398489D02*
X399758Y886333D01*
X155068Y740573D02*
X155430Y740754D01*
X155975Y741299D01*
Y737489D01*
X157861Y741299D02*
Y737489D01*
Y741299D02*
X159494D01*
X160038Y741117D01*
X160219Y740936D01*
X160400Y740573D01*
Y740210D01*
X160219Y739847D01*
X160038Y739666D01*
X159494Y739485D01*
X157861D01*
X159131D02*
X160400Y737489D01*
X115308Y462951D02*
X115671Y463132D01*
X116215Y463677D01*
Y459867D01*
X118101Y462407D02*
Y460593D01*
X118283Y460049D01*
X118645Y459867D01*
X119190D01*
X119552Y460049D01*
X120097Y460593D01*
Y462407D02*
Y459867D01*
X121094Y463677D02*
Y459867D01*
Y463677D02*
X123452D01*
X121094Y461863D02*
X122545D01*
X257376Y633893D02*
X257739Y634074D01*
X258283Y634619D01*
Y630809D01*
X261257Y634619D02*
X260713Y634437D01*
X260351Y633893D01*
X260169Y632986D01*
Y632442D01*
X260351Y631535D01*
X260713Y630991D01*
X261257Y630809D01*
X261620D01*
X262164Y630991D01*
X262527Y631535D01*
X262709Y632442D01*
Y632986D01*
X262527Y633893D01*
X262164Y634437D01*
X261620Y634619D01*
X261257D01*
X263561Y633349D02*
Y630809D01*
Y632623D02*
X264105Y633167D01*
X264468Y633349D01*
X265012D01*
X265375Y633167D01*
X265557Y632623D01*
Y630809D01*
X266554Y634619D02*
Y630809D01*
Y634619D02*
X268912D01*
X266554Y632805D02*
X268005D01*
X259408Y674787D02*
X259771Y674968D01*
X260315Y675513D01*
Y671703D01*
X263290Y675513D02*
X262745Y675331D01*
X262383Y674787D01*
X262201Y673880D01*
Y673336D01*
X262383Y672429D01*
X262745Y671885D01*
X263290Y671703D01*
X263652D01*
X264196Y671885D01*
X264559Y672429D01*
X264741Y673336D01*
Y673880D01*
X264559Y674787D01*
X264196Y675331D01*
X263652Y675513D01*
X263290D01*
X265593Y674243D02*
Y671703D01*
Y673517D02*
X266137Y674062D01*
X266500Y674243D01*
X267044D01*
X267407Y674062D01*
X267589Y673517D01*
Y671703D01*
X268586Y675513D02*
Y671703D01*
Y675513D02*
X270944D01*
X268586Y673699D02*
X270037D01*
X232910Y719491D02*
X233273Y719672D01*
X233817Y720217D01*
Y716407D01*
X235703Y718947D02*
Y717133D01*
X235885Y716589D01*
X236247Y716407D01*
X236792D01*
X237154Y716589D01*
X237698Y717133D01*
Y718947D02*
Y716407D01*
X238696Y720217D02*
Y716407D01*
Y720217D02*
X241054D01*
X238696Y718403D02*
X240147D01*
X256024Y714919D02*
X256387Y715100D01*
X256931Y715645D01*
Y711835D01*
X258817Y714375D02*
Y712561D01*
X258999Y712017D01*
X259361Y711835D01*
X259906D01*
X260268Y712017D01*
X260812Y712561D01*
Y714375D02*
Y711835D01*
X261810Y715645D02*
Y711835D01*
Y715645D02*
X264168D01*
X261810Y713831D02*
X263261D01*
X181684Y781975D02*
X182047Y782156D01*
X182591Y782701D01*
Y778891D01*
X185565Y782701D02*
X185021Y782519D01*
X184659Y781975D01*
X184477Y781068D01*
Y780524D01*
X184659Y779617D01*
X185021Y779073D01*
X185565Y778891D01*
X185928D01*
X186472Y779073D01*
X186835Y779617D01*
X187017Y780524D01*
Y781068D01*
X186835Y781975D01*
X186472Y782519D01*
X185928Y782701D01*
X185565D01*
X187869Y781431D02*
Y779617D01*
X188051Y779073D01*
X188413Y778891D01*
X188958D01*
X189320Y779073D01*
X189865Y779617D01*
Y781431D02*
Y778891D01*
X190862Y782701D02*
Y778891D01*
Y782701D02*
X193220D01*
X190862Y780887D02*
X192313D01*
X209288Y699933D02*
X209651Y700114D01*
X210195Y700659D01*
Y696849D01*
X212081Y699389D02*
Y697575D01*
X212263Y697031D01*
X212625Y696849D01*
X213170D01*
X213532Y697031D01*
X214076Y697575D01*
Y699389D02*
Y696849D01*
X215074Y700659D02*
Y696849D01*
Y700659D02*
X217432D01*
X215074Y698845D02*
X216525D01*
X271772Y714919D02*
X272135Y715100D01*
X272679Y715645D01*
Y711835D01*
X274565Y714375D02*
Y712561D01*
X274747Y712017D01*
X275109Y711835D01*
X275654D01*
X276016Y712017D01*
X276560Y712561D01*
Y714375D02*
Y711835D01*
X277558Y715645D02*
Y711835D01*
Y715645D02*
X279916D01*
X277558Y713831D02*
X279009D01*
X326210Y825155D02*
X326573Y825336D01*
X327117Y825881D01*
Y822071D01*
X330092Y825881D02*
X329547Y825699D01*
X329185Y825155D01*
X329003Y824248D01*
Y823704D01*
X329185Y822797D01*
X329547Y822253D01*
X330092Y822071D01*
X330454D01*
X330998Y822253D01*
X331361Y822797D01*
X331543Y823704D01*
Y824248D01*
X331361Y825155D01*
X330998Y825699D01*
X330454Y825881D01*
X330092D01*
X332395Y824611D02*
Y822797D01*
X332577Y822253D01*
X332939Y822071D01*
X333484D01*
X333846Y822253D01*
X334390Y822797D01*
Y824611D02*
Y822071D01*
X335388Y825881D02*
Y822071D01*
Y825881D02*
X337746D01*
X335388Y824067D02*
X336839D01*
X220446Y639191D02*
X218632Y636651D01*
X221353D01*
X220446Y639191D02*
Y635381D01*
X222205Y635744D02*
X222024Y635563D01*
X222205Y635381D01*
X222387Y635563D01*
X222205Y635744D01*
X225761Y639191D02*
X223947Y635381D01*
X223221Y639191D02*
X225761D01*
X226613Y637921D02*
Y636107D01*
X226794Y635563D01*
X227157Y635381D01*
X227701D01*
X228064Y635563D01*
X228608Y636107D01*
Y637921D02*
Y635381D01*
X229606Y639191D02*
Y635381D01*
Y639191D02*
X231964D01*
X229606Y637377D02*
X231057D01*
X242898Y840268D02*
X243261Y840449D01*
X243805Y840993D01*
Y837184D01*
X246779Y840993D02*
X246235Y840812D01*
X245873Y840268D01*
X245691Y839361D01*
Y838817D01*
X245873Y837910D01*
X246235Y837366D01*
X246779Y837184D01*
X247142D01*
X247687Y837366D01*
X248049Y837910D01*
X248231Y838817D01*
Y839361D01*
X248049Y840268D01*
X247687Y840812D01*
X247142Y840993D01*
X246779D01*
X249083Y839724D02*
Y835915D01*
Y839180D02*
X249446Y839542D01*
X249809Y839724D01*
X250353D01*
X250716Y839542D01*
X251078Y839180D01*
X251260Y838635D01*
Y838273D01*
X251078Y837728D01*
X250716Y837366D01*
X250353Y837184D01*
X249809D01*
X249446Y837366D01*
X249083Y837728D01*
X252076Y840993D02*
Y837184D01*
Y840993D02*
X254434D01*
X252076Y839180D02*
X253527D01*
X207220Y868154D02*
Y868335D01*
X207401Y868698D01*
X207583Y868879D01*
X207945Y869061D01*
X208671D01*
X209034Y868879D01*
X209215Y868698D01*
X209397Y868335D01*
Y867972D01*
X209215Y867609D01*
X208852Y867065D01*
X207038Y865251D01*
X209578D01*
X210612Y868154D02*
Y868335D01*
X210793Y868698D01*
X210975Y868879D01*
X211338Y869061D01*
X212063D01*
X212426Y868879D01*
X212607Y868698D01*
X212789Y868335D01*
Y867972D01*
X212607Y867609D01*
X212244Y867065D01*
X210431Y865251D01*
X212970D01*
X213822Y867791D02*
Y865251D01*
Y867065D02*
X214367Y867609D01*
X214729Y867791D01*
X215274D01*
X215636Y867609D01*
X215818Y867065D01*
Y865251D01*
X216815Y869061D02*
Y865251D01*
Y869061D02*
X219174D01*
X216815Y867247D02*
X218267D01*
X367948Y764830D02*
X368311Y765011D01*
X368855Y765555D01*
Y761746D01*
X371830Y765555D02*
X371285Y765374D01*
X370923Y764830D01*
X370741Y763923D01*
Y763379D01*
X370923Y762472D01*
X371285Y761928D01*
X371830Y761746D01*
X372192D01*
X372737Y761928D01*
X373099Y762472D01*
X373281Y763379D01*
Y763923D01*
X373099Y764830D01*
X372737Y765374D01*
X372192Y765555D01*
X371830D01*
X375222D02*
X374677Y765374D01*
X374315Y764830D01*
X374133Y763923D01*
Y763379D01*
X374315Y762472D01*
X374677Y761928D01*
X375222Y761746D01*
X375584D01*
X376129Y761928D01*
X376491Y762472D01*
X376673Y763379D01*
Y763923D01*
X376491Y764830D01*
X376129Y765374D01*
X375584Y765555D01*
X375222D01*
X377525Y764286D02*
Y760477D01*
Y763742D02*
X377888Y764104D01*
X378251Y764286D01*
X378795D01*
X379158Y764104D01*
X379520Y763742D01*
X379702Y763197D01*
Y762835D01*
X379520Y762290D01*
X379158Y761928D01*
X378795Y761746D01*
X378251D01*
X377888Y761928D01*
X377525Y762290D01*
X380518Y765555D02*
Y761746D01*
Y765555D02*
X382876D01*
X380518Y763742D02*
X381969D01*
X317402Y762036D02*
X317765Y762217D01*
X318309Y762762D01*
Y758952D01*
X321284Y762762D02*
X320739Y762580D01*
X320377Y762036D01*
X320195Y761129D01*
Y760585D01*
X320377Y759678D01*
X320739Y759134D01*
X321284Y758952D01*
X321646D01*
X322191Y759134D01*
X322553Y759678D01*
X322735Y760585D01*
Y761129D01*
X322553Y762036D01*
X322191Y762580D01*
X321646Y762762D01*
X321284D01*
X324676D02*
X324131Y762580D01*
X323769Y762036D01*
X323587Y761129D01*
Y760585D01*
X323769Y759678D01*
X324131Y759134D01*
X324676Y758952D01*
X325038D01*
X325583Y759134D01*
X325945Y759678D01*
X326127Y760585D01*
Y761129D01*
X325945Y762036D01*
X325583Y762580D01*
X325038Y762762D01*
X324676D01*
X326979Y761492D02*
Y757683D01*
Y760948D02*
X327342Y761310D01*
X327705Y761492D01*
X328249D01*
X328612Y761310D01*
X328974Y760948D01*
X329156Y760403D01*
Y760041D01*
X328974Y759496D01*
X328612Y759134D01*
X328249Y758952D01*
X327705D01*
X327342Y759134D01*
X326979Y759496D01*
X329972Y762762D02*
Y758952D01*
Y762762D02*
X332330D01*
X329972Y760948D02*
X331423D01*
M02*
