G04*
G04 #@! TF.GenerationSoftware,Altium Limited,Altium Designer,24.10.1 (45)*
G04*
G04 Layer_Color=32768*
%FSLAX44Y44*%
%MOMM*%
G71*
G04*
G04 #@! TF.SameCoordinates,3551A3A7-0B07-42EA-8A9A-C0D20DE36A30*
G04*
G04*
G04 #@! TF.FilePolarity,Positive*
G04*
G01*
G75*
%ADD11C,0.1000*%
%ADD13C,0.2540*%
%ADD14C,0.1524*%
%ADD198C,0.0500*%
D11*
X267208Y467948D02*
Y477948D01*
X262208Y472948D02*
X272208D01*
X260036Y758804D02*
Y768804D01*
X255036Y763804D02*
X265036D01*
X267970Y820976D02*
Y826976D01*
X264970Y823976D02*
X270970D01*
X270304Y838454D02*
X276304D01*
X273304Y835454D02*
Y841454D01*
X267970Y867712D02*
Y873712D01*
X264970Y870712D02*
X270970D01*
X274066Y690706D02*
Y700706D01*
X269066Y695706D02*
X279066D01*
X171196Y742006D02*
Y751006D01*
X166696Y746506D02*
X175696D01*
X448818Y664282D02*
Y673282D01*
X444318Y668782D02*
X453318D01*
X387422Y654050D02*
X396422D01*
X391922Y649550D02*
Y658550D01*
X479886Y270510D02*
X489886D01*
X484886Y265510D02*
Y275510D01*
X575898Y-337058D02*
X585898D01*
X580898Y-342058D02*
Y-332058D01*
X1083644Y-183388D02*
X1093644D01*
X1088644Y-188388D02*
Y-178388D01*
X1305640Y-198628D02*
X1315640D01*
X1310640Y-203628D02*
Y-193628D01*
X1246966Y437896D02*
X1256966D01*
X1251966Y432896D02*
Y442896D01*
X1441786Y543005D02*
Y553005D01*
X1436786Y548005D02*
X1446786D01*
X1239774Y574120D02*
Y584120D01*
X1234774Y579120D02*
X1244774D01*
X1054294Y588543D02*
Y598543D01*
X1049294Y593543D02*
X1059294D01*
X860000Y573481D02*
Y583481D01*
X855000Y578481D02*
X865000D01*
X683006Y570564D02*
Y580564D01*
X678006Y575564D02*
X688006D01*
X540846Y540906D02*
X550846D01*
X545846Y535906D02*
Y545906D01*
X1422146Y-217344D02*
Y-207344D01*
X1417146Y-212344D02*
X1427146D01*
X1601978Y-214550D02*
Y-204550D01*
X1596978Y-209550D02*
X1606978D01*
X943102Y-180514D02*
Y-170514D01*
X938102Y-175514D02*
X948102D01*
X988140Y11938D02*
X998140D01*
X993140Y6938D02*
Y16938D01*
X1412957Y161488D02*
X1422957D01*
X1417957Y156488D02*
Y166488D01*
X1436116Y-30400D02*
Y-20400D01*
X1431116Y-25400D02*
X1441116D01*
X1617806Y-16256D02*
X1627806D01*
X1622806Y-21256D02*
Y-11256D01*
X1785192Y179692D02*
X1795192D01*
X1790192Y174692D02*
Y184692D01*
X235204Y683594D02*
Y693594D01*
X230204Y688594D02*
X240204D01*
X466424Y-412750D02*
X476424D01*
X471424Y-417750D02*
Y-407750D01*
X446866Y-412496D02*
X456866D01*
X451866Y-417496D02*
Y-407496D01*
X352806Y762588D02*
Y772588D01*
X347806Y767588D02*
X357806D01*
X320548Y772748D02*
Y782748D01*
X315548Y777748D02*
X325548D01*
X300990Y663266D02*
Y672266D01*
X296490Y667766D02*
X305490D01*
X299466Y681046D02*
Y690046D01*
X294966Y685546D02*
X303966D01*
X234522Y410350D02*
X244522D01*
X239522Y405350D02*
Y415350D01*
X210392Y410210D02*
X220392D01*
X215392Y405210D02*
Y415210D01*
X255498Y344736D02*
Y354736D01*
X250498Y349736D02*
X260498D01*
X280461Y358648D02*
X290461D01*
X285461Y353648D02*
Y363648D01*
X321284Y371398D02*
Y380398D01*
X316784Y375898D02*
X325784D01*
X321284Y389474D02*
Y398474D01*
X316784Y393974D02*
X325784D01*
X321284Y407550D02*
Y416550D01*
X316784Y412050D02*
X325784D01*
X321284Y425627D02*
Y434627D01*
X316784Y430127D02*
X325784D01*
X321284Y443703D02*
Y452703D01*
X316784Y448203D02*
X325784D01*
X321284Y461779D02*
Y470779D01*
X316784Y466279D02*
X325784D01*
X321284Y479855D02*
Y488856D01*
X316784Y484356D02*
X325784D01*
X283790Y450596D02*
X292790D01*
X288290Y446096D02*
Y455096D01*
X1216994Y200292D02*
X1226994D01*
X1221994Y195292D02*
Y205292D01*
X1218264Y6858D02*
X1228264D01*
X1223264Y1858D02*
Y11858D01*
X1178700Y18622D02*
Y28622D01*
X1173700Y23622D02*
X1183700D01*
X1027764Y200800D02*
X1037764D01*
X1032764Y195800D02*
Y205800D01*
X854964Y191596D02*
Y201596D01*
X849964Y196596D02*
X859964D01*
X798148Y202806D02*
X808148D01*
X803148Y197806D02*
Y207806D01*
X662258Y-9652D02*
X672258D01*
X667258Y-14652D02*
Y-4652D01*
X597742Y35420D02*
X607742D01*
X602742Y30420D02*
Y40420D01*
X369062Y-188896D02*
Y-178896D01*
X364062Y-183896D02*
X374062D01*
X296498Y-136144D02*
X306498D01*
X301498Y-141144D02*
Y-131144D01*
X210392Y-123698D02*
X220392D01*
X215392Y-128698D02*
Y-118698D01*
X391232Y366904D02*
X400232D01*
X395732Y362404D02*
Y371404D01*
X601358Y336122D02*
Y346122D01*
X596358Y341122D02*
X606358D01*
X678434Y379556D02*
Y389556D01*
X673434Y384556D02*
X683434D01*
X854790Y392062D02*
X864790D01*
X859790Y387062D02*
Y397062D01*
X1045718Y401654D02*
Y411654D01*
X1040718Y406654D02*
X1050718D01*
X1434846Y358474D02*
Y368474D01*
X1429846Y363474D02*
X1439846D01*
X1657096Y356950D02*
Y366950D01*
X1652096Y361950D02*
X1662096D01*
X1791970Y617046D02*
Y627046D01*
X1786970Y622046D02*
X1796970D01*
X1851986Y801116D02*
X1860986D01*
X1856486Y796616D02*
Y805616D01*
X1618052Y794766D02*
X1627052D01*
X1622552Y790266D02*
Y799266D01*
X1424250Y790702D02*
X1433250D01*
X1428750Y786202D02*
Y795202D01*
X1209620Y793750D02*
X1218620D01*
X1214120Y789250D02*
Y798250D01*
X1007944Y790702D02*
X1016944D01*
X1012444Y786202D02*
Y795202D01*
X835732Y779272D02*
X844732D01*
X840232Y774772D02*
Y783772D01*
X574802Y782646D02*
Y791646D01*
X570302Y787146D02*
X579302D01*
X677244Y797814D02*
X687244D01*
X682244Y792814D02*
Y802814D01*
X703660Y817372D02*
X713660D01*
X708660Y812372D02*
Y822372D01*
X621864Y763524D02*
X630864D01*
X626364Y759024D02*
Y768024D01*
X574802Y798394D02*
Y807394D01*
X570302Y802894D02*
X579302D01*
X417890Y891486D02*
Y901486D01*
X412890Y896486D02*
X422890D01*
X386588Y894406D02*
Y903406D01*
X382088Y898906D02*
X391088D01*
X340694Y827532D02*
X350694D01*
X345694Y822532D02*
Y832532D01*
X239522Y823040D02*
Y833040D01*
X234522Y828040D02*
X244522D01*
X240284Y810332D02*
Y819332D01*
X235784Y814832D02*
X244784D01*
X234950Y865712D02*
Y875712D01*
X229950Y870712D02*
X239950D01*
X234046Y849488D02*
Y858487D01*
X229546Y853988D02*
X238546D01*
X202764Y819404D02*
X211764D01*
X207264Y814904D02*
Y823904D01*
X203280Y763664D02*
X213280D01*
X208280Y758664D02*
Y768664D01*
X182960Y763524D02*
X192960D01*
X187960Y758524D02*
Y768524D01*
X257048Y638128D02*
Y648128D01*
X252048Y643128D02*
X262048D01*
X257048Y656416D02*
Y666416D01*
X252048Y661416D02*
X262048D01*
X255350Y695452D02*
X265350D01*
X260350Y690452D02*
Y700452D01*
X232410Y703406D02*
Y713406D01*
X227410Y708406D02*
X237410D01*
X218266Y663194D02*
X228266D01*
X223266Y658194D02*
Y668194D01*
X152744Y574982D02*
Y584982D01*
X147744Y579982D02*
X157744D01*
X120730Y557276D02*
X130730D01*
X125730Y552276D02*
Y562276D01*
X92708Y259954D02*
Y268954D01*
X88208Y264454D02*
X97208D01*
X91692Y289672D02*
Y298672D01*
X87192Y294172D02*
X96192D01*
X92020Y434720D02*
X101020D01*
X96520Y430220D02*
Y439220D01*
X81860Y-37210D02*
X90860D01*
X86360Y-41710D02*
Y-32710D01*
X158576Y876046D02*
X168576D01*
X163576Y871046D02*
Y881046D01*
X154766Y838200D02*
X164766D01*
X159766Y833200D02*
Y843200D01*
X621284Y808816D02*
Y818816D01*
X616284Y813816D02*
X626284D01*
X88900Y813642D02*
Y823642D01*
X83900Y818642D02*
X93900D01*
X267970Y850186D02*
Y856186D01*
X264970Y853186D02*
X270970D01*
X197866Y857210D02*
Y863210D01*
X194866Y860210D02*
X200866D01*
X430276Y642580D02*
Y648580D01*
X427276Y645580D02*
X433276D01*
X466900Y821182D02*
X472900D01*
X469900Y818182D02*
Y824182D01*
X230172Y842772D02*
X236172D01*
X233172Y839772D02*
Y845772D01*
X211328Y324914D02*
Y330914D01*
X208328Y327914D02*
X214328D01*
X643636Y811832D02*
Y817832D01*
X640636Y814832D02*
X646636D01*
X166624Y550720D02*
Y556720D01*
X163624Y553720D02*
X169624D01*
X352298Y745062D02*
Y755062D01*
X347298Y750062D02*
X357298D01*
X235458Y880952D02*
Y890952D01*
X230458Y885952D02*
X240458D01*
X284988Y649780D02*
Y655780D01*
X281988Y652780D02*
X287988D01*
X276352Y407416D02*
Y411416D01*
Y403416D02*
Y407416D01*
X272352D02*
X276352D01*
X280352D01*
X322072Y745824D02*
Y755824D01*
X317072Y750824D02*
X327072D01*
X292862Y480648D02*
Y490648D01*
X287862Y485648D02*
X297862D01*
X109554Y434594D02*
X119554D01*
X114554Y429594D02*
Y439594D01*
D13*
X350760Y-462752D02*
G03*
X350760Y-462752I-21351J0D01*
G01*
X568467Y141532D02*
G03*
X568467Y141532I-21351J0D01*
G01*
X363997Y-34998D02*
G03*
X363997Y-34998I-21351J0D01*
G01*
X191383Y-116078D02*
G03*
X191383Y-116078I-21351J0D01*
G01*
X485125Y-294096D02*
G03*
X485125Y-294096I-21351J0D01*
G01*
X657621Y-214322D02*
G03*
X657621Y-214322I-21351J0D01*
G01*
X947665Y-85026D02*
G03*
X947665Y-85026I-21351J0D01*
G01*
X1138697Y-68272D02*
G03*
X1138697Y-68272I-21351J0D01*
G01*
X1329451Y-84274D02*
G03*
X1329451Y-84274I-21351J0D01*
G01*
X1757295Y73725D02*
G03*
X1757295Y73725I-21351J0D01*
G01*
X1758457Y455730D02*
G03*
X1758457Y455730I-21351J0D01*
G01*
X1759219Y646738D02*
G03*
X1759219Y646738I-21351J0D01*
G01*
X1522237Y645468D02*
G03*
X1522237Y645468I-21351J0D01*
G01*
X1330465Y678715D02*
G03*
X1330465Y678715I-21351J0D01*
G01*
X1139967Y694744D02*
G03*
X1139967Y694744I-21351J0D01*
G01*
X949467Y678488D02*
G03*
X949467Y678488I-21351J0D01*
G01*
X757163Y664254D02*
G03*
X757163Y664254I-21351J0D01*
G01*
X568213Y427790D02*
G03*
X568213Y427790I-21351J0D01*
G01*
X1709670Y-116777D02*
G03*
X1709670Y-116777I-21351J0D01*
G01*
X1519169D02*
G03*
X1519169Y-116777I-21351J0D01*
G01*
Y73725D02*
G03*
X1519169Y73725I-21351J0D01*
G01*
X1330465Y107211D02*
G03*
X1330465Y107211I-21351J0D01*
G01*
X1139459Y121720D02*
G03*
X1139459Y121720I-21351J0D01*
G01*
X949462Y107211D02*
G03*
X949462Y107211I-21351J0D01*
G01*
X759729Y94796D02*
G03*
X759729Y94796I-21351J0D01*
G01*
X1757296Y264226D02*
G03*
X1757296Y264226I-21351J0D01*
G01*
X1519169D02*
G03*
X1519169Y264226I-21351J0D01*
G01*
X1328668Y295977D02*
G03*
X1328668Y295977I-21351J0D01*
G01*
X1138166Y311953D02*
G03*
X1138166Y311953I-21351J0D01*
G01*
X947665Y295977D02*
G03*
X947665Y295977I-21351J0D01*
G01*
X757951Y284788D02*
G03*
X757951Y284788I-21351J0D01*
G01*
X1520459Y455730D02*
G03*
X1520459Y455730I-21351J0D01*
G01*
X1330721Y488750D02*
G03*
X1330721Y488750I-21351J0D01*
G01*
X1140983Y503990D02*
G03*
X1140983Y503990I-21351J0D01*
G01*
X949462Y488213D02*
G03*
X949462Y488213I-21351J0D01*
G01*
X758960Y475513D02*
G03*
X758960Y475513I-21351J0D01*
G01*
X568467Y667058D02*
G03*
X568467Y667058I-21351J0D01*
G01*
X273171Y-288544D02*
G03*
X273171Y-288544I-21351J0D01*
G01*
X88392Y901192D02*
X300736D01*
X88138Y901446D02*
X88392Y901192D01*
X88138Y901446D02*
Y999236D01*
X321056D01*
Y901700D02*
Y999236D01*
X300736Y901192D02*
X321056D01*
X229858Y-421897D02*
X307997Y-557237D01*
X279610Y-393262D02*
X357710Y-528535D01*
X229858Y-421897D02*
X279610Y-393262D01*
X307997Y-557237D02*
X358370Y-528154D01*
X312298Y-472631D02*
X346174Y-453073D01*
X319630Y-445815D02*
X339188Y-479690D01*
X475996Y207318D02*
X632274D01*
X475996Y149914D02*
X632196Y149914D01*
X632274Y207318D01*
X475996Y149152D02*
Y207318D01*
X547116Y122174D02*
Y161290D01*
X527558Y141532D02*
X566674D01*
X271526Y30788D02*
X427804D01*
X271526Y-26616D02*
X427726Y-26616D01*
X427804Y30788D01*
X271526Y-27378D02*
Y30788D01*
X342646Y-54356D02*
Y-15240D01*
X323088Y-34998D02*
X362204D01*
X70481Y-75223D02*
X148620Y-210563D01*
X120233Y-46588D02*
X198333Y-181861D01*
X70481Y-75223D02*
X120233Y-46588D01*
X148620Y-210563D02*
X198993Y-181480D01*
X152921Y-125957D02*
X186797Y-106399D01*
X160253Y-99141D02*
X179811Y-133016D01*
X392654Y-228310D02*
X548931D01*
X392654Y-285714D02*
X548853Y-285714D01*
X548931Y-228310D01*
X392654Y-286476D02*
Y-228310D01*
X463773Y-313454D02*
Y-274338D01*
X444216Y-294096D02*
X483331D01*
X565150Y-148536D02*
X721428D01*
X565150Y-205940D02*
X721350Y-205940D01*
X721428Y-148536D01*
X565150Y-206702D02*
Y-148536D01*
X636270Y-233680D02*
Y-194564D01*
X616712Y-214322D02*
X655828D01*
X855194Y-19240D02*
X1011471D01*
X855194Y-76644D02*
X1011393Y-76644D01*
X1011471Y-19240D01*
X855194Y-77406D02*
Y-19240D01*
X926314Y-104384D02*
Y-65268D01*
X906756Y-85026D02*
X945872D01*
X1046226Y-2486D02*
X1202503D01*
X1046226Y-59890D02*
X1202425Y-59890D01*
X1202503Y-2486D01*
X1046226Y-60652D02*
Y-2486D01*
X1117346Y-87630D02*
Y-48514D01*
X1097788Y-68272D02*
X1136904D01*
X1236980Y-18488D02*
X1393258D01*
X1236980Y-75892D02*
X1393180Y-75892D01*
X1393258Y-18488D01*
X1236980Y-76654D02*
Y-18488D01*
X1308100Y-103632D02*
Y-64516D01*
X1288542Y-84274D02*
X1327658D01*
X1664824Y139511D02*
X1821102D01*
X1664824Y82107D02*
X1821024Y82107D01*
X1821102Y139511D01*
X1664824Y81345D02*
Y139511D01*
X1735944Y54367D02*
Y93483D01*
X1716386Y73725D02*
X1755502D01*
X1665986Y521516D02*
X1822264D01*
X1665986Y464112D02*
X1822186Y464112D01*
X1822264Y521516D01*
X1665986Y463350D02*
Y521516D01*
X1737106Y436372D02*
Y475488D01*
X1717548Y455730D02*
X1756664D01*
X1666748Y712524D02*
X1823026D01*
X1666748Y655120D02*
X1822948Y655120D01*
X1823026Y712524D01*
X1666748Y654358D02*
Y712524D01*
X1737868Y627380D02*
Y666496D01*
X1718310Y646738D02*
X1757426D01*
X1429766Y711254D02*
X1586044D01*
X1429766Y653850D02*
X1585966Y653850D01*
X1586044Y711254D01*
X1429766Y653088D02*
Y711254D01*
X1500886Y626110D02*
Y665226D01*
X1481328Y645468D02*
X1520444D01*
X1237993Y744501D02*
X1394271D01*
X1237993Y687097D02*
X1394193Y687097D01*
X1394271Y744501D01*
X1237993Y686335D02*
Y744501D01*
X1309113Y659357D02*
Y698473D01*
X1289556Y678715D02*
X1328672D01*
X1047496Y760530D02*
X1203773D01*
X1047496Y703126D02*
X1203695Y703126D01*
X1203773Y760530D01*
X1047496Y702364D02*
Y760530D01*
X1118616Y675386D02*
Y714502D01*
X1099058Y694744D02*
X1138174D01*
X856996Y744274D02*
X1013274D01*
X856996Y686870D02*
X1013196Y686870D01*
X1013274Y744274D01*
X856996Y686108D02*
Y744274D01*
X928116Y659130D02*
Y698246D01*
X908558Y678488D02*
X947674D01*
X664692Y730040D02*
X820970D01*
X664692Y672636D02*
X820892Y672636D01*
X820970Y730040D01*
X664692Y671874D02*
Y730040D01*
X735812Y644896D02*
Y684012D01*
X716254Y664254D02*
X755370D01*
X475742Y493576D02*
X632019D01*
X475742Y436172D02*
X631941Y436172D01*
X632019Y493576D01*
X475742Y435410D02*
Y493576D01*
X546862Y408432D02*
Y447548D01*
X527304Y427790D02*
X566420D01*
X1668761Y-116777D02*
X1707877D01*
X1688319Y-136135D02*
Y-97019D01*
X1617199Y-109157D02*
Y-50991D01*
X1773399Y-108395D02*
X1773477Y-50991D01*
X1617199Y-108395D02*
X1773399Y-108395D01*
X1617199Y-50991D02*
X1773477D01*
X1478260Y-116777D02*
X1517376D01*
X1497818Y-136135D02*
Y-97019D01*
X1426698Y-109157D02*
Y-50991D01*
X1582897Y-108395D02*
X1582975Y-50991D01*
X1426698Y-108395D02*
X1582897Y-108395D01*
X1426698Y-50991D02*
X1582975D01*
X1478260Y73725D02*
X1517376D01*
X1497818Y54367D02*
Y93483D01*
X1426698Y81345D02*
Y139511D01*
X1582897Y82107D02*
X1582975Y139511D01*
X1426698Y82107D02*
X1582897Y82107D01*
X1426698Y139511D02*
X1582975D01*
X1289556Y107211D02*
X1328672D01*
X1309113Y87853D02*
Y126969D01*
X1237993Y114831D02*
Y172997D01*
X1394193Y115593D02*
X1394271Y172997D01*
X1237993Y115593D02*
X1394193Y115593D01*
X1237993Y172997D02*
X1394271D01*
X1098550Y121720D02*
X1137666D01*
X1118108Y102362D02*
Y141478D01*
X1046988Y129340D02*
Y187506D01*
X1203187Y130102D02*
X1203266Y187506D01*
X1046988Y130102D02*
X1203187Y130102D01*
X1046988Y187506D02*
X1203266D01*
X908552Y107211D02*
X947668D01*
X928110Y87853D02*
Y126969D01*
X856990Y114831D02*
Y172997D01*
X1013190Y115593D02*
X1013268Y172997D01*
X856990Y115593D02*
X1013190Y115593D01*
X856990Y172997D02*
X1013268D01*
X718820Y94796D02*
X757936D01*
X738378Y75438D02*
Y114554D01*
X667258Y102416D02*
Y160582D01*
X823458Y103178D02*
X823536Y160582D01*
X667258Y103178D02*
X823458Y103178D01*
X667258Y160582D02*
X823536D01*
X1716386Y264226D02*
X1755502D01*
X1735944Y244868D02*
Y283984D01*
X1664824Y271846D02*
Y330012D01*
X1821024Y272608D02*
X1821102Y330012D01*
X1664824Y272608D02*
X1821024Y272608D01*
X1664824Y330012D02*
X1821102D01*
X1478260Y264226D02*
X1517376D01*
X1497818Y244868D02*
Y283984D01*
X1426698Y271846D02*
Y330012D01*
X1582897Y272608D02*
X1582975Y330012D01*
X1426698Y272608D02*
X1582897Y272608D01*
X1426698Y330012D02*
X1582975D01*
X1287759Y295977D02*
X1326875D01*
X1307317Y276619D02*
Y315735D01*
X1236197Y303597D02*
Y361763D01*
X1392396Y304359D02*
X1392474Y361763D01*
X1236197Y304359D02*
X1392396Y304359D01*
X1236197Y361763D02*
X1392474D01*
X1097257Y311953D02*
X1136373D01*
X1116815Y292595D02*
Y331711D01*
X1045695Y319573D02*
Y377739D01*
X1201895Y320335D02*
X1201973Y377739D01*
X1045695Y320335D02*
X1201895Y320335D01*
X1045695Y377739D02*
X1201973D01*
X906756Y295977D02*
X945872D01*
X926314Y276619D02*
Y315735D01*
X855194Y303597D02*
Y361763D01*
X1011393Y304359D02*
X1011471Y361763D01*
X855194Y304359D02*
X1011393Y304359D01*
X855194Y361763D02*
X1011471D01*
X717042Y284788D02*
X756158D01*
X736600Y265430D02*
Y304546D01*
X665480Y292408D02*
Y350574D01*
X821680Y293170D02*
X821758Y350574D01*
X665480Y293170D02*
X821680Y293170D01*
X665480Y350574D02*
X821758D01*
X1479550Y455730D02*
X1518666D01*
X1499108Y436372D02*
Y475488D01*
X1427988Y463350D02*
Y521516D01*
X1584188Y464112D02*
X1584266Y521516D01*
X1427988Y464112D02*
X1584188Y464112D01*
X1427988Y521516D02*
X1584266D01*
X1289812Y488750D02*
X1328928D01*
X1309370Y469392D02*
Y508508D01*
X1238250Y496370D02*
Y554536D01*
X1394449Y497132D02*
X1394527Y554536D01*
X1238250Y497132D02*
X1394449Y497132D01*
X1238250Y554536D02*
X1394527D01*
X1100074Y503990D02*
X1139190D01*
X1119632Y484632D02*
Y523748D01*
X1048512Y511610D02*
Y569776D01*
X1204711Y512372D02*
X1204789Y569776D01*
X1048512Y512372D02*
X1204711Y512372D01*
X1048512Y569776D02*
X1204789D01*
X908552Y488213D02*
X947669D01*
X928111Y468855D02*
Y507971D01*
X856991Y495833D02*
Y553999D01*
X1013190Y496595D02*
X1013268Y553999D01*
X856991Y496595D02*
X1013190Y496595D01*
X856991Y553999D02*
X1013268D01*
X718051Y475513D02*
X757167D01*
X737609Y456155D02*
Y495271D01*
X666489Y483133D02*
Y541299D01*
X822689Y483895D02*
X822767Y541299D01*
X666489Y483895D02*
X822689Y483895D01*
X666489Y541299D02*
X822767D01*
X527558Y667058D02*
X566674D01*
X547116Y647700D02*
Y686816D01*
X475996Y674678D02*
Y732844D01*
X632195Y675440D02*
X632273Y732844D01*
X475996Y675440D02*
X632195Y675440D01*
X475996Y732844D02*
X632273D01*
X242041Y-271607D02*
X261599Y-305482D01*
X234709Y-298423D02*
X268585Y-278865D01*
X230408Y-383029D02*
X280781Y-353946D01*
X152269Y-247689D02*
X202022Y-219054D01*
X280121Y-354327D01*
X152269Y-247689D02*
X230408Y-383029D01*
D14*
X516636Y347853D02*
X584708D01*
Y392303D01*
X516636D02*
X584708D01*
X516636Y347853D02*
Y392303D01*
X605028Y-294513D02*
X673100D01*
Y-250063D01*
X605028D02*
X673100D01*
X605028Y-294513D02*
Y-250063D01*
X893572Y405765D02*
X961644D01*
Y450215D01*
X893572D02*
X961644D01*
X893572Y405765D02*
Y450215D01*
X1275588Y-162433D02*
Y-117983D01*
X1343660D01*
Y-162433D02*
Y-117983D01*
X1275588Y-162433D02*
X1343660D01*
X1272794Y410337D02*
X1340866D01*
Y454787D01*
X1272794D02*
X1340866D01*
X1272794Y410337D02*
Y454787D01*
X1461516Y182245D02*
X1529588D01*
Y226695D01*
X1461516D02*
X1529588D01*
X1461516Y182245D02*
Y226695D01*
X1466596Y-192659D02*
X1534668D01*
Y-148209D01*
X1466596D02*
X1534668D01*
X1466596Y-192659D02*
Y-148209D01*
X1658874Y-193929D02*
Y-149479D01*
X1726946D01*
Y-193929D02*
Y-149479D01*
X1658874Y-193929D02*
X1726946D01*
X1702816Y-2413D02*
X1770888D01*
Y42037D01*
X1702816D02*
X1770888D01*
X1702816Y-2413D02*
Y42037D01*
X1703832Y189103D02*
Y233553D01*
X1771904D01*
Y189103D02*
Y233553D01*
X1703832Y189103D02*
X1771904D01*
X1706626Y376301D02*
X1774698D01*
Y420751D01*
X1706626D02*
X1774698D01*
X1706626Y376301D02*
Y420751D01*
X1703578Y569595D02*
Y614045D01*
X1771650D01*
Y569595D02*
Y614045D01*
X1703578Y569595D02*
X1771650D01*
X1466862Y569475D02*
X1534934D01*
Y613925D01*
X1466862D02*
X1534934D01*
X1466862Y569475D02*
Y613925D01*
X1277378Y599955D02*
Y644405D01*
X1345450D01*
Y599955D02*
Y644405D01*
X1277378Y599955D02*
X1345450D01*
X1085100Y610369D02*
X1153172D01*
Y654819D01*
X1085100D02*
X1153172D01*
X1085100Y610369D02*
Y654819D01*
X892568Y599955D02*
Y644405D01*
X960640D01*
Y599955D02*
Y644405D01*
X892568Y599955D02*
X960640D01*
X657098Y587121D02*
X725170D01*
Y631571D01*
X657098D02*
X725170D01*
X657098Y587121D02*
Y631571D01*
X892302Y-160655D02*
Y-116205D01*
X960374D01*
Y-160655D02*
Y-116205D01*
X892302Y-160655D02*
X960374D01*
X1081786Y-146431D02*
X1149858D01*
Y-101981D01*
X1081786D02*
X1149858D01*
X1081786Y-146431D02*
Y-101981D01*
X1083818Y45339D02*
Y89789D01*
X1151890D01*
Y45339D02*
Y89789D01*
X1083818Y45339D02*
X1151890D01*
X1461262Y-6477D02*
Y37973D01*
X1529334D01*
Y-6477D02*
Y37973D01*
X1461262Y-6477D02*
X1529334D01*
X426974Y-372237D02*
Y-327787D01*
X495046D01*
Y-372237D02*
Y-327787D01*
X426974Y-372237D02*
X495046D01*
X892568Y216161D02*
Y260611D01*
X960640D01*
Y216161D02*
Y260611D01*
X892568Y216161D02*
X960640D01*
X1085354Y234195D02*
X1153426D01*
Y278645D01*
X1085354D02*
X1153426D01*
X1085354Y234195D02*
Y278645D01*
X1277874Y215519D02*
Y259969D01*
X1345946D01*
Y215519D02*
Y259969D01*
X1277874Y215519D02*
X1345946D01*
X1276604Y29845D02*
X1344676D01*
Y74295D01*
X1276604D02*
X1344676D01*
X1276604Y29845D02*
Y74295D01*
X701802Y18161D02*
Y62611D01*
X769874D01*
Y18161D02*
Y62611D01*
X701802Y18161D02*
X769874D01*
X509676Y62263D02*
X577748D01*
Y106713D01*
X509676D02*
X577748D01*
X509676Y62263D02*
Y106713D01*
X352552Y-264033D02*
Y-219583D01*
X284480Y-264033D02*
X352552D01*
X284480D02*
Y-219583D01*
X352552D01*
X1468386Y381769D02*
Y426219D01*
X1536458D01*
Y381769D02*
Y426219D01*
X1468386Y381769D02*
X1536458D01*
X895350Y26797D02*
Y71247D01*
X963422D01*
Y26797D02*
Y71247D01*
X895350Y26797D02*
X963422D01*
X699770Y206629D02*
Y251079D01*
X767842D01*
Y206629D02*
Y251079D01*
X699770Y206629D02*
X767842D01*
X310896Y-112395D02*
X378968D01*
Y-67945D01*
X310896D02*
X378968D01*
X310896Y-112395D02*
Y-67945D01*
X1085850Y417957D02*
X1153922D01*
Y462407D01*
X1085850D02*
X1153922D01*
X1085850Y417957D02*
Y462407D01*
X704596Y399669D02*
X772668D01*
Y444119D01*
X704596D02*
X772668D01*
X704596Y399669D02*
Y444119D01*
X465582Y587121D02*
X533654D01*
Y631571D01*
X465582D02*
X533654D01*
X465582Y587121D02*
Y631571D01*
X366014Y-441833D02*
Y-397383D01*
X434086D01*
Y-441833D02*
Y-397383D01*
X366014Y-441833D02*
X434086D01*
X260858Y-84709D02*
Y-40259D01*
X192786Y-84709D02*
X260858D01*
X192786D02*
Y-40259D01*
X260858D01*
X290068Y282575D02*
X358140D01*
X290068Y238125D02*
Y282575D01*
Y238125D02*
X358140D01*
Y282575D01*
X306705Y783717D02*
Y805815D01*
Y783717D02*
X307442D01*
X332130D02*
X332867D01*
Y805815D01*
X332130D02*
X332867D01*
X306705D02*
X307442D01*
Y783717D02*
X332130D01*
X307442Y805815D02*
X332130D01*
D198*
X439322Y66802D02*
Y178054D01*
X14322D02*
X439322D01*
X14322Y66802D02*
Y178054D01*
Y66802D02*
X439322D01*
X258708Y455168D02*
X275708D01*
X258708Y490728D02*
X275708D01*
X258708Y455168D02*
Y490728D01*
X275708Y455168D02*
Y490728D01*
X222036Y801804D02*
X298036D01*
X222036Y725804D02*
X298036D01*
X222036D02*
Y801804D01*
X298036Y725804D02*
Y801804D01*
X262970Y814476D02*
X272970D01*
X262970Y833476D02*
X272970D01*
X262970Y814476D02*
Y833476D01*
X272970Y814476D02*
Y833476D01*
X263804Y833454D02*
Y843454D01*
X282804Y833454D02*
Y843454D01*
X263804D02*
X282804D01*
X263804Y833454D02*
X282804D01*
X262970Y861212D02*
X272970D01*
X262970Y880212D02*
X272970D01*
X262970Y861212D02*
Y880212D01*
X272970Y861212D02*
Y880212D01*
X265566Y713486D02*
X282566D01*
X265566Y677926D02*
X282566D01*
Y713486D01*
X265566Y677926D02*
Y713486D01*
X164196Y731506D02*
Y761506D01*
X178196D01*
X164196Y731506D02*
X178196D01*
Y761506D01*
X171398Y587102D02*
X355398D01*
Y537102D02*
Y587102D01*
X171398Y537102D02*
X355398D01*
X171398D02*
Y587102D01*
X433818Y675782D02*
X463818D01*
Y661782D02*
Y675782D01*
X433818Y661782D02*
Y675782D01*
Y661782D02*
X463818D01*
X384922Y639050D02*
Y669050D01*
X398922D01*
X384922Y639050D02*
X398922D01*
Y669050D01*
X476386Y252730D02*
Y288290D01*
X493386Y252730D02*
Y288290D01*
X476386Y252730D02*
X493386D01*
X476386Y288290D02*
X493386D01*
X572398Y-354838D02*
Y-319278D01*
X589398Y-354838D02*
Y-319278D01*
X572398Y-354838D02*
X589398D01*
X572398Y-319278D02*
X589398D01*
X1080144Y-201168D02*
Y-165608D01*
X1097144Y-201168D02*
Y-165608D01*
X1080144Y-201168D02*
X1097144D01*
X1080144Y-165608D02*
X1097144D01*
X1302140Y-216408D02*
Y-180848D01*
X1319140Y-216408D02*
Y-180848D01*
X1302140Y-216408D02*
X1319140D01*
X1302140Y-180848D02*
X1319140D01*
X1260466Y420116D02*
Y455676D01*
X1243466Y420116D02*
Y455676D01*
X1260466D01*
X1243466Y420116D02*
X1260466D01*
X1424006Y556505D02*
X1459566D01*
X1424006Y539505D02*
X1459566D01*
X1424006D02*
Y556505D01*
X1459566Y539505D02*
Y556505D01*
X1221994Y587620D02*
X1257554D01*
X1221994Y570620D02*
X1257554D01*
X1221994D02*
Y587620D01*
X1257554Y570620D02*
Y587620D01*
X1036514Y602043D02*
X1072074D01*
X1036514Y585043D02*
X1072074D01*
X1036514D02*
Y602043D01*
X1072074Y585043D02*
Y602043D01*
X842220Y586981D02*
X877780D01*
X842220Y569981D02*
X877780D01*
X842220D02*
Y586981D01*
X877780Y569981D02*
Y586981D01*
X665226Y584064D02*
X700786D01*
X665226Y567064D02*
X700786D01*
X665226D02*
Y584064D01*
X700786Y567064D02*
Y584064D01*
X537346Y523126D02*
Y558686D01*
X554346Y523126D02*
Y558686D01*
X537346Y523126D02*
X554346D01*
X537346Y558686D02*
X554346D01*
X1404366Y-203844D02*
X1439926D01*
X1404366Y-220844D02*
X1439926D01*
X1404366D02*
Y-203844D01*
X1439926Y-220844D02*
Y-203844D01*
X1584198Y-201050D02*
X1619758D01*
X1584198Y-218050D02*
X1619758D01*
X1584198D02*
Y-201050D01*
X1619758Y-218050D02*
Y-201050D01*
X925322Y-184014D02*
X960882D01*
X925322Y-167014D02*
X960882D01*
Y-184014D02*
Y-167014D01*
X925322Y-184014D02*
Y-167014D01*
X984640Y-5842D02*
Y29718D01*
X1001640Y-5842D02*
Y29718D01*
X984640Y-5842D02*
X1001640D01*
X984640Y29718D02*
X1001640D01*
X1409457Y143708D02*
Y179268D01*
X1426457Y143708D02*
Y179268D01*
X1409457Y143708D02*
X1426457D01*
X1409457Y179268D02*
X1426457D01*
X1418336Y-16900D02*
X1453896D01*
X1418336Y-33900D02*
X1453896D01*
X1418336D02*
Y-16900D01*
X1453896Y-33900D02*
Y-16900D01*
X1631306Y-34036D02*
Y1524D01*
X1614306Y-34036D02*
Y1524D01*
X1631306D01*
X1614306Y-34036D02*
X1631306D01*
X1798692Y161912D02*
Y197472D01*
X1781692Y161912D02*
Y197472D01*
X1798692D01*
X1781692Y161912D02*
X1798692D01*
X217424Y697094D02*
X252984D01*
X217424Y680094D02*
X252984D01*
X217424D02*
Y697094D01*
X252984Y680094D02*
Y697094D01*
X462924Y-430530D02*
Y-394970D01*
X479924Y-430530D02*
Y-394970D01*
X462924Y-430530D02*
X479924D01*
X462924Y-394970D02*
X479924D01*
X443366Y-430276D02*
Y-394716D01*
X460366Y-430276D02*
Y-394716D01*
X443366Y-430276D02*
X460366D01*
X443366Y-394716D02*
X460366D01*
X335026Y759088D02*
X370586D01*
X335026Y776088D02*
X370586D01*
Y759088D02*
Y776088D01*
X335026Y759088D02*
Y776088D01*
X302768Y769248D02*
X338328D01*
X302768Y786248D02*
X338328D01*
Y769248D02*
Y786248D01*
X302768Y769248D02*
Y786248D01*
X285990Y674766D02*
X315990D01*
Y660766D02*
Y674766D01*
X285990Y660766D02*
Y674766D01*
Y660766D02*
X315990D01*
X284466Y692546D02*
X314466D01*
Y678546D02*
Y692546D01*
X284466Y678546D02*
Y692546D01*
Y678546D02*
X314466D01*
X248022Y392570D02*
Y428130D01*
X231022Y392570D02*
Y428130D01*
X248022D01*
X231022Y392570D02*
X248022D01*
X223892Y392430D02*
Y427990D01*
X206892Y392430D02*
Y427990D01*
X223892D01*
X206892Y392430D02*
X223892D01*
X237718Y341236D02*
X273278D01*
X237718Y358236D02*
X273278D01*
Y341236D02*
Y358236D01*
X237718Y341236D02*
Y358236D01*
X293961Y340868D02*
Y376428D01*
X276961Y340868D02*
Y376428D01*
X293961D01*
X276961Y340868D02*
X293961D01*
X306284Y382898D02*
X336284D01*
Y368898D02*
Y382898D01*
X306284Y368898D02*
Y382898D01*
Y368898D02*
X336284D01*
X306284Y386974D02*
X336284D01*
X306284D02*
Y400974D01*
X336284Y386974D02*
Y400974D01*
X306284D02*
X336284D01*
X306284Y405050D02*
X336284D01*
X306284D02*
Y419050D01*
X336284Y405050D02*
Y419050D01*
X306284D02*
X336284D01*
X306284Y423127D02*
X336284D01*
X306284D02*
Y437127D01*
X336284Y423127D02*
Y437127D01*
X306284D02*
X336284D01*
X306284Y455203D02*
X336284D01*
Y441203D02*
Y455203D01*
X306284Y441203D02*
Y455203D01*
Y441203D02*
X336284D01*
X306284Y473279D02*
X336284D01*
Y459279D02*
Y473279D01*
X306284Y459279D02*
Y473279D01*
Y459279D02*
X336284D01*
X306284Y477355D02*
X336284D01*
X306284D02*
Y491356D01*
X336284Y477355D02*
Y491356D01*
X306284D02*
X336284D01*
X295290Y435596D02*
Y465596D01*
X281290Y435596D02*
X295290D01*
X281290Y465596D02*
X295290D01*
X281290Y435596D02*
Y465596D01*
X1213494Y182512D02*
Y218072D01*
X1230494Y182512D02*
Y218072D01*
X1213494Y182512D02*
X1230494D01*
X1213494Y218072D02*
X1230494D01*
X1214764Y-10922D02*
Y24638D01*
X1231764Y-10922D02*
Y24638D01*
X1214764Y-10922D02*
X1231764D01*
X1214764Y24638D02*
X1231764D01*
X1160920Y15122D02*
X1196480D01*
X1160920Y32122D02*
X1196480D01*
Y15122D02*
Y32122D01*
X1160920Y15122D02*
Y32122D01*
X1024264Y183020D02*
Y218580D01*
X1041264Y183020D02*
Y218580D01*
X1024264Y183020D02*
X1041264D01*
X1024264Y218580D02*
X1041264D01*
X837184Y205096D02*
X872744D01*
X837184Y188096D02*
X872744D01*
X837184D02*
Y205096D01*
X872744Y188096D02*
Y205096D01*
X811648Y185026D02*
Y220586D01*
X794648Y185026D02*
Y220586D01*
X811648D01*
X794648Y185026D02*
X811648D01*
X658758Y-27432D02*
Y8128D01*
X675758Y-27432D02*
Y8128D01*
X658758Y-27432D02*
X675758D01*
X658758Y8128D02*
X675758D01*
X594242Y17640D02*
Y53200D01*
X611242Y17640D02*
Y53200D01*
X594242Y17640D02*
X611242D01*
X594242Y53200D02*
X611242D01*
X351282Y-192396D02*
X386842D01*
X351282Y-175396D02*
X386842D01*
Y-192396D02*
Y-175396D01*
X351282Y-192396D02*
Y-175396D01*
X292998Y-153924D02*
Y-118364D01*
X309998Y-153924D02*
Y-118364D01*
X292998Y-153924D02*
X309998D01*
X292998Y-118364D02*
X309998D01*
X206892Y-141478D02*
Y-105918D01*
X223892Y-141478D02*
Y-105918D01*
X206892Y-141478D02*
X223892D01*
X206892Y-105918D02*
X223892D01*
X324434Y184546D02*
X344094D01*
X324434Y218806D02*
X344094D01*
Y184546D02*
Y218806D01*
X324434Y184546D02*
Y218806D01*
X472682Y267128D02*
Y384128D01*
X407682Y267128D02*
X472682D01*
X407682D02*
Y384128D01*
X472682D01*
X402732Y351904D02*
Y381904D01*
X388732Y351904D02*
X402732D01*
X388732Y381904D02*
X402732D01*
X388732Y351904D02*
Y381904D01*
X583578Y332622D02*
X619138D01*
X583578Y349622D02*
X619138D01*
Y332622D02*
Y349622D01*
X583578Y332622D02*
Y349622D01*
X660654Y393056D02*
X696214D01*
X660654Y376056D02*
X696214D01*
X660654D02*
Y393056D01*
X696214Y376056D02*
Y393056D01*
X851290Y374282D02*
Y409842D01*
X868290Y374282D02*
Y409842D01*
X851290Y374282D02*
X868290D01*
X851290Y409842D02*
X868290D01*
X1027938Y415154D02*
X1063498D01*
X1027938Y398154D02*
X1063498D01*
X1027938D02*
Y415154D01*
X1063498Y398154D02*
Y415154D01*
X1417066Y371974D02*
X1452626D01*
X1417066Y354974D02*
X1452626D01*
X1417066D02*
Y371974D01*
X1452626Y354974D02*
Y371974D01*
X1639316Y370450D02*
X1674876D01*
X1639316Y353450D02*
X1674876D01*
X1639316D02*
Y370450D01*
X1674876Y353450D02*
Y370450D01*
X1774190Y613546D02*
X1809750D01*
X1774190Y630546D02*
X1809750D01*
Y613546D02*
Y630546D01*
X1774190Y613546D02*
Y630546D01*
X1863486Y786116D02*
Y816116D01*
X1849486Y786116D02*
X1863486D01*
X1849486Y816116D02*
X1863486D01*
X1849486Y786116D02*
Y816116D01*
X1629552Y779766D02*
Y809766D01*
X1615552Y779766D02*
X1629552D01*
X1615552Y809766D02*
X1629552D01*
X1615552Y779766D02*
Y809766D01*
X1435750Y775702D02*
Y805702D01*
X1421750Y775702D02*
X1435750D01*
X1421750Y805702D02*
X1435750D01*
X1421750Y775702D02*
Y805702D01*
X1221120Y778750D02*
Y808750D01*
X1207120Y778750D02*
X1221120D01*
X1207120Y808750D02*
X1221120D01*
X1207120Y778750D02*
Y808750D01*
X1019444Y775702D02*
Y805702D01*
X1005444Y775702D02*
X1019444D01*
X1005444Y805702D02*
X1019444D01*
X1005444Y775702D02*
Y805702D01*
X847232Y764272D02*
Y794272D01*
X833232Y764272D02*
X847232D01*
X833232Y794272D02*
X847232D01*
X833232Y764272D02*
Y794272D01*
X581040Y832688D02*
Y852348D01*
X615300Y832688D02*
Y852348D01*
X581040Y832688D02*
X615300D01*
X581040Y852348D02*
X615300D01*
X559802Y794146D02*
X589802D01*
Y780146D02*
Y794146D01*
X559802Y780146D02*
Y794146D01*
Y780146D02*
X589802D01*
X673744Y780034D02*
Y815594D01*
X690744Y780034D02*
Y815594D01*
X673744Y780034D02*
X690744D01*
X673744Y815594D02*
X690744D01*
X717160Y799592D02*
Y835152D01*
X700160Y799592D02*
Y835152D01*
X717160D01*
X700160Y799592D02*
X717160D01*
X633364Y748524D02*
Y778524D01*
X619364Y748524D02*
X633364D01*
X619364Y778524D02*
X633364D01*
X619364Y748524D02*
Y778524D01*
X559802Y795894D02*
X589802D01*
X559802D02*
Y809894D01*
X589802Y795894D02*
Y809894D01*
X559802D02*
X589802D01*
X546930Y778950D02*
Y821250D01*
X504630Y778950D02*
Y821250D01*
X546930D01*
X504630Y778950D02*
X546930D01*
X400110Y904986D02*
X435670D01*
X400110Y887986D02*
X435670D01*
X400110D02*
Y904986D01*
X435670Y887986D02*
Y904986D01*
X371588Y891906D02*
X401588D01*
X371588D02*
Y905906D01*
X401588Y891906D02*
Y905906D01*
X371588D02*
X401588D01*
X354194Y809752D02*
Y845312D01*
X337194Y809752D02*
Y845312D01*
X354194D01*
X337194Y809752D02*
X354194D01*
X221742Y836540D02*
X257302D01*
X221742Y819540D02*
X257302D01*
X221742D02*
Y836540D01*
X257302Y819540D02*
Y836540D01*
X225284Y821832D02*
X255284D01*
Y807832D02*
Y821832D01*
X225284Y807832D02*
Y821832D01*
Y807832D02*
X255284D01*
X217170Y879212D02*
X252730D01*
X217170Y862212D02*
X252730D01*
X217170D02*
Y879212D01*
X252730Y862212D02*
Y879212D01*
X219046Y860987D02*
X249046D01*
Y846988D02*
Y860987D01*
X219046Y846988D02*
Y860987D01*
Y846988D02*
X249046D01*
X124536Y793220D02*
X144196D01*
X124536Y827480D02*
X144196D01*
Y793220D02*
Y827480D01*
X124536Y793220D02*
Y827480D01*
X214264Y804404D02*
Y834404D01*
X200264Y804404D02*
X214264D01*
X200264Y834404D02*
X214264D01*
X200264Y804404D02*
Y834404D01*
X216780Y745884D02*
Y781444D01*
X199780Y745884D02*
Y781444D01*
X216780D01*
X199780Y745884D02*
X216780D01*
X196460Y745744D02*
Y781304D01*
X179460Y745744D02*
Y781304D01*
X196460D01*
X179460Y745744D02*
X196460D01*
X270526Y611104D02*
Y630764D01*
X236266Y611104D02*
Y630764D01*
X270526D01*
X236266Y611104D02*
X270526D01*
X239268Y634628D02*
X274828D01*
X239268Y651628D02*
X274828D01*
Y634628D02*
Y651628D01*
X239268Y634628D02*
Y651628D01*
Y652916D02*
X274828D01*
X239268Y669916D02*
X274828D01*
Y652916D02*
Y669916D01*
X239268Y652916D02*
Y669916D01*
X251850Y677672D02*
Y713232D01*
X268850Y677672D02*
Y713232D01*
X251850Y677672D02*
X268850D01*
X251850Y713232D02*
X268850D01*
X214630Y716906D02*
X250190D01*
X214630Y699906D02*
X250190D01*
X214630D02*
Y716906D01*
X250190Y699906D02*
Y716906D01*
X214766Y645414D02*
Y680974D01*
X231766Y645414D02*
Y680974D01*
X214766Y645414D02*
X231766D01*
X214766Y680974D02*
X231766D01*
X134964Y571482D02*
X170524D01*
X134964Y588482D02*
X170524D01*
Y571482D02*
Y588482D01*
X134964Y571482D02*
Y588482D01*
X112230Y539276D02*
Y575276D01*
X139230Y539276D02*
Y575276D01*
X112230Y539276D02*
X139230D01*
X112230Y575276D02*
X139230D01*
X77708Y257454D02*
X107708D01*
X77708D02*
Y271454D01*
X107708Y257454D02*
Y271454D01*
X77708D02*
X107708D01*
X76692Y287172D02*
X106692D01*
X76692D02*
Y301172D01*
X106692Y287172D02*
Y301172D01*
X76692D02*
X106692D01*
X89520Y419720D02*
Y449720D01*
X103520D01*
X89520Y419720D02*
X103520D01*
Y449720D01*
X86690Y525220D02*
X106350D01*
X86690Y490960D02*
X106350D01*
X86690D02*
Y525220D01*
X106350Y490960D02*
Y525220D01*
X122630Y463880D02*
Y483540D01*
X88370Y463880D02*
Y483540D01*
X122630D01*
X88370Y463880D02*
X122630D01*
X144602Y512714D02*
X164262D01*
X144602Y546974D02*
X164262D01*
Y512714D02*
Y546974D01*
X144602Y512714D02*
Y546974D01*
X93360Y-52210D02*
Y-22210D01*
X79360Y-52210D02*
X93360D01*
X79360Y-22210D02*
X93360D01*
X79360Y-52210D02*
Y-22210D01*
X15162Y597942D02*
Y764942D01*
X164162D01*
Y597942D02*
Y764942D01*
X15162Y597942D02*
X164162D01*
X406332Y593530D02*
X448632D01*
X406332Y635830D02*
X448632D01*
X406332Y593530D02*
Y635830D01*
X448632Y593530D02*
Y635830D01*
X134026Y861346D02*
X193126D01*
X134026Y890746D02*
X193126D01*
Y861346D02*
Y890746D01*
X134026Y861346D02*
Y890746D01*
X177766Y824700D02*
Y851700D01*
X141766Y824700D02*
Y851700D01*
Y824700D02*
X177766D01*
X141766Y851700D02*
X177766D01*
X607784Y795816D02*
X634784D01*
X607784Y831816D02*
X634784D01*
X607784Y795816D02*
Y831816D01*
X634784Y795816D02*
Y831816D01*
X68050Y801142D02*
X109750D01*
X68050Y836142D02*
X109750D01*
Y801142D02*
Y836142D01*
X68050Y801142D02*
Y836142D01*
X182818Y708226D02*
X206818D01*
Y749226D01*
X182818D02*
X206818D01*
X182818Y708226D02*
Y749226D01*
X263470Y844186D02*
X272470D01*
X263470Y862186D02*
X272470D01*
X263470Y844186D02*
Y862186D01*
X272470Y844186D02*
Y862186D01*
X193366Y851210D02*
X202366D01*
X193366Y869210D02*
X202366D01*
X193366Y851210D02*
Y869210D01*
X202366Y851210D02*
Y869210D01*
X425776Y654580D02*
X434776D01*
X425776Y636580D02*
X434776D01*
Y654580D01*
X425776Y636580D02*
Y654580D01*
X460900Y816682D02*
Y825682D01*
X478900Y816682D02*
Y825682D01*
X460900D02*
X478900D01*
X460900Y816682D02*
X478900D01*
X224172Y838272D02*
Y847272D01*
X242172Y838272D02*
Y847272D01*
X224172D02*
X242172D01*
X224172Y838272D02*
X242172D01*
X206828Y336914D02*
X215828D01*
X206828Y318914D02*
X215828D01*
Y336914D01*
X206828Y318914D02*
Y336914D01*
X639136Y805832D02*
X648136D01*
X639136Y823832D02*
X648136D01*
X639136Y805832D02*
Y823832D01*
X648136Y805832D02*
Y823832D01*
X162124Y562720D02*
X171124D01*
X162124Y544720D02*
X171124D01*
Y562720D01*
X162124Y544720D02*
Y562720D01*
X334518Y758562D02*
X370078D01*
X334518Y741562D02*
X370078D01*
X334518D02*
Y758562D01*
X370078Y741562D02*
Y758562D01*
X217678Y877452D02*
X253238D01*
X217678Y894452D02*
X253238D01*
Y877452D02*
Y894452D01*
X217678Y877452D02*
Y894452D01*
X275488Y657780D02*
X294488D01*
X275488Y647780D02*
X294488D01*
X275488D02*
Y657780D01*
X294488Y647780D02*
Y657780D01*
X254352Y385416D02*
X298352D01*
Y429416D01*
X254352D02*
X298352D01*
X254352Y385416D02*
Y429416D01*
X308822Y756824D02*
X335322D01*
X308822Y744824D02*
X335322D01*
X308822D02*
Y756824D01*
X335322Y744824D02*
Y756824D01*
X279612Y491648D02*
X306112D01*
X279612Y479648D02*
X306112D01*
X279612D02*
Y491648D01*
X306112Y479648D02*
Y491648D01*
X108554Y421344D02*
Y447844D01*
X120554Y421344D02*
Y447844D01*
X108554Y421344D02*
X120554D01*
X108554Y447844D02*
X120554D01*
X99568Y414450D02*
X162052Y414528D01*
Y312674D02*
Y414528D01*
X159836Y310458D02*
X162052Y312674D01*
X99822Y310458D02*
X159836D01*
X99822Y310388D02*
Y414450D01*
X77034Y238080D02*
Y338580D01*
X-7166Y238080D02*
X77034D01*
X-7166D02*
Y338580D01*
X77034D01*
X325802Y916444D02*
Y981444D01*
X442802D01*
Y916444D02*
Y981444D01*
X325802Y916444D02*
X442802D01*
X-37194Y504515D02*
X67806D01*
X-37194Y376865D02*
Y504515D01*
Y376865D02*
X67806D01*
Y504515D01*
M02*
