G04*
G04 #@! TF.GenerationSoftware,Altium Limited,Altium Designer,24.10.1 (45)*
G04*
G04 Layer_Color=32896*
%FSLAX44Y44*%
%MOMM*%
G71*
G04*
G04 #@! TF.SameCoordinates,3551A3A7-0B07-42EA-8A9A-C0D20DE36A30*
G04*
G04*
G04 #@! TF.FilePolarity,Positive*
G04*
G01*
G75*
%ADD12C,0.2000*%
%ADD13C,0.2540*%
%ADD14C,0.1524*%
%ADD16C,0.1270*%
%ADD167C,0.5080*%
%ADD192R,0.3563X2.1082*%
%ADD193R,0.6858X0.2540*%
G36*
X415902Y463025D02*
Y462508D01*
Y454758D01*
X414094Y454500D01*
X412027Y453983D01*
X407894Y451400D01*
X406860Y450883D01*
X405569Y449075D01*
X405052Y448042D01*
X403244Y446233D01*
X402210Y445717D01*
X400661Y444167D01*
X399885Y441325D01*
X399369Y439258D01*
X395752Y435642D01*
X394719Y430992D01*
X394202Y428925D01*
X392911Y427634D01*
X391877Y427117D01*
X389036Y421692D01*
X388519Y420659D01*
X386711Y418850D01*
X385677Y416267D01*
X384902Y413425D01*
X382319Y410842D01*
X381027Y409034D01*
X380252Y405676D01*
X379736Y403609D01*
X376636Y401542D01*
X376119Y400509D01*
X375344Y399734D01*
X374569Y394826D01*
X371986Y392242D01*
X370436Y389659D01*
X369403Y387076D01*
X366303Y383976D01*
X365786Y381909D01*
X364753Y378293D01*
X361136Y374676D01*
X360619Y370543D01*
X359586Y367959D01*
X358294Y367184D01*
X357261Y366668D01*
X355969Y365376D01*
X354420Y359176D01*
X353128Y357885D01*
X352094Y357368D01*
X350286Y354010D01*
X349253Y351426D01*
X347703Y349876D01*
X346153Y347293D01*
X344603Y343676D01*
X340986Y340060D01*
X340470Y336960D01*
X339953Y334893D01*
X337628Y332568D01*
X336595Y332052D01*
X336078Y331018D01*
X334270Y326110D01*
X333236Y325077D01*
X329620Y318360D01*
X326778Y315518D01*
X325486Y310094D01*
X324195Y308802D01*
X323162Y308285D01*
X321870Y306994D01*
X320837Y304410D01*
X319803Y300277D01*
X319028Y299502D01*
X317995Y298985D01*
X316703Y297177D01*
X316187Y296144D01*
X314637Y292527D01*
X312312Y290202D01*
X311020Y286844D01*
X309987Y284261D01*
X309212Y284002D01*
X308179Y282969D01*
X307145Y282452D01*
X306370Y281161D01*
X305337Y277027D01*
X304562Y274702D01*
X303529Y274186D01*
X302754Y273411D01*
X300687Y269794D01*
X299654Y266178D01*
X298104Y264628D01*
X295004Y258944D01*
X291904Y255844D01*
X291387Y253778D01*
X290354Y250161D01*
X289062Y248869D01*
X288029Y248353D01*
X286220Y246028D01*
X285704Y243961D01*
X284671Y241378D01*
X283120Y239828D01*
X280537Y235178D01*
X276921Y230011D01*
X276404Y227945D01*
X275371Y225361D01*
X274596Y224587D01*
X273562Y224070D01*
X271237Y221745D01*
X270721Y219678D01*
X269171Y216062D01*
X268654Y215028D01*
X266071Y212445D01*
X265554Y206762D01*
X265037Y204695D01*
X262196Y203403D01*
X259871Y204179D01*
X257288Y208828D01*
X256771Y209862D01*
X255738Y210895D01*
X254704Y213478D01*
X253671Y217095D01*
X251863Y218903D01*
X250829Y219420D01*
X249538Y221228D01*
X249021Y224845D01*
X247988Y227428D01*
X246696Y228720D01*
X245663Y229236D01*
X244371Y230528D01*
X243854Y233628D01*
X244371Y240345D01*
X245404Y243961D01*
X247988Y247578D01*
X248504Y251194D01*
X249538Y253778D01*
X251088Y255328D01*
X252379Y257136D01*
X253671Y262561D01*
X255738Y264628D01*
X257029Y266436D01*
X257804Y269794D01*
X259096Y272636D01*
X260129Y273153D01*
X261938Y274961D01*
X262454Y279094D01*
X263487Y281677D01*
X266329Y282969D01*
X267621Y284261D01*
X267104Y288394D01*
X268137Y290977D01*
X272271Y293561D01*
X272787Y299760D01*
X274079Y301052D01*
X275112Y301569D01*
X276921Y303377D01*
X277437Y304410D01*
X278471Y308027D01*
X279246Y308802D01*
X281570Y311644D01*
X282087Y313710D01*
X283120Y316294D01*
X285445Y317585D01*
X286996Y319135D01*
X286737Y323527D01*
X287770Y326110D01*
X290612Y327402D01*
X291904Y328693D01*
X292420Y334377D01*
X293712Y335668D01*
X294745Y336185D01*
X296554Y337993D01*
X297329Y339801D01*
X298104Y343160D01*
X300429Y345485D01*
X302237Y350393D01*
X303012Y351168D01*
X305595Y352718D01*
X306887Y354010D01*
X307404Y356593D01*
X306370Y360210D01*
X305595Y360984D01*
X301462Y361501D01*
X271496Y362018D01*
X269946Y362534D01*
X249538Y362276D01*
X246954Y361759D01*
X244629Y362018D01*
X241013Y365634D01*
X239979Y366151D01*
X238171Y367959D01*
X237654Y371576D01*
X237138Y373643D01*
X236363Y374418D01*
X234555Y375709D01*
X233263Y377518D01*
X232488Y380876D01*
X231455Y383459D01*
X229130Y385784D01*
X227838Y389142D01*
X227321Y391209D01*
X225513Y393017D01*
X224480Y393534D01*
X224221Y394309D01*
X223188Y395342D01*
X222671Y399476D01*
X223705Y400509D01*
X225771Y401026D01*
X294229Y400767D01*
X295779Y401284D01*
X300945Y400767D01*
X302495Y401284D01*
X303787Y401026D01*
X331945Y401284D01*
X335561Y402834D01*
X336595Y405417D01*
X337370Y408775D01*
X338661Y410067D01*
X339695Y410584D01*
X341503Y412392D01*
X342020Y414975D01*
X342536Y418592D01*
X343311Y419367D01*
X344345Y419884D01*
X346153Y421692D01*
X346928Y423500D01*
X347703Y426342D01*
X349770Y428409D01*
X351320Y430992D01*
X352353Y434608D01*
X356486Y437192D01*
X357003Y441842D01*
X357778Y444167D01*
X360361Y445717D01*
X362169Y449075D01*
X363203Y451658D01*
X363978Y452433D01*
X365011Y452950D01*
X366819Y455275D01*
X367336Y456308D01*
X369403Y458375D01*
X391361Y458116D01*
X398077Y457600D01*
X399627Y458116D01*
X403244Y458633D01*
X404794Y458116D01*
X409185Y458375D01*
X411769Y463025D01*
X413577Y464316D01*
X415644Y464833D01*
X415902Y463025D01*
D02*
G37*
G36*
X293712Y458633D02*
X295779Y458116D01*
X297329Y457600D01*
X306628Y457083D01*
X308179Y456566D01*
X312053Y456825D01*
X317737Y457341D01*
X321870Y457858D01*
X326778Y458633D01*
X328845Y458116D01*
X330136Y456825D01*
X330653Y451658D01*
X327037Y448042D01*
X325486Y441842D01*
X324712Y441067D01*
X322903Y439775D01*
X321612Y437967D01*
X320837Y433059D01*
X317220Y429442D01*
X315153Y424275D01*
X312828Y422467D01*
X309729Y421950D01*
X308179Y421434D01*
X304820Y421692D01*
X257546Y421434D01*
X216730Y420917D01*
X193997Y419884D01*
X187280Y420400D01*
X183664Y419884D01*
X182372Y418592D01*
X182889Y410842D01*
X183405Y408775D01*
X184180Y408000D01*
X185214Y407484D01*
X185989Y406709D01*
X187539Y404126D01*
X188572Y401542D01*
X189347Y400767D01*
X190380Y400251D01*
X192188Y397926D01*
X192705Y393792D01*
X193480Y393017D01*
X196063Y391467D01*
X197355Y390176D01*
X197872Y383459D01*
X200197Y382168D01*
X202005Y380359D01*
X203038Y377776D01*
X204330Y374418D01*
X206913Y371318D01*
X207688Y368476D01*
X210530Y366151D01*
X211563Y365634D01*
X212597Y363051D01*
X212338Y358660D01*
X213113Y357885D01*
X216730Y355818D01*
X217763Y353235D01*
X218280Y348585D01*
X221121Y346776D01*
X223705Y345743D01*
X226288Y345226D01*
X247213Y345485D01*
X248763Y344968D01*
X263746Y345485D01*
X265812Y344968D01*
X266587Y344193D01*
X267104Y340577D01*
X266587Y338510D01*
X265296Y337218D01*
X264263Y336702D01*
X263487Y335927D01*
X262196Y334118D01*
X260904Y330760D01*
X258321Y328177D01*
X257288Y325593D01*
X256254Y321977D01*
X255479Y321202D01*
X254446Y320685D01*
X253154Y319394D01*
X252638Y316810D01*
X251604Y312677D01*
X250829Y311902D01*
X249796Y311385D01*
X245663Y307252D01*
X241013Y304669D01*
X235330Y304152D01*
X233780Y304669D01*
X232230Y304152D01*
X229905Y304410D01*
X225771Y304927D01*
X218797Y305702D01*
X210013Y306735D01*
X204847Y307252D01*
X201230Y308285D01*
X198905Y311127D01*
X198388Y312160D01*
X196322Y314227D01*
X195805Y315260D01*
X195030Y316035D01*
X194255Y319394D01*
X193222Y321977D01*
X191930Y323268D01*
X190897Y323785D01*
X188572Y328177D01*
X187539Y330760D01*
X186505Y331793D01*
X183922Y336443D01*
X183405Y337477D01*
X182630Y338251D01*
X180305Y341093D01*
X179789Y343676D01*
X178755Y346260D01*
X176947Y348068D01*
X175914Y348585D01*
X175655Y349360D01*
X174880Y350135D01*
X174105Y352976D01*
X173072Y355560D01*
X171522Y357110D01*
X168939Y361759D01*
X168422Y362793D01*
X167389Y363826D01*
X166872Y364860D01*
X166097Y365634D01*
X164289Y370543D01*
X162997Y371834D01*
X161189Y373126D01*
X159897Y374934D01*
X159122Y378293D01*
X158606Y380359D01*
X157831Y381134D01*
X156797Y381651D01*
X156022Y382426D01*
X154472Y385009D01*
X152922Y388626D01*
X151889Y389659D01*
X149823Y393276D01*
X148789Y395859D01*
X148272Y396892D01*
X147498Y397667D01*
X146464Y398184D01*
X145173Y399992D01*
X144656Y403092D01*
Y403609D01*
X144139Y405159D01*
X141039Y408259D01*
X139489Y410842D01*
X138973Y413942D01*
X136906Y416009D01*
X134323Y420659D01*
X133806Y421692D01*
X133031Y422467D01*
X130706Y425309D01*
X130189Y428409D01*
X129156Y430992D01*
X128381Y431250D01*
X125540Y434092D01*
X125023Y437708D01*
X124506Y439775D01*
X123731Y440550D01*
X122698Y441067D01*
X120373Y443392D01*
X119340Y447525D01*
X118048Y450367D01*
X117015Y450883D01*
X115981Y451917D01*
X114948Y454500D01*
X115206Y456825D01*
X115981Y457600D01*
X118565Y458116D01*
X121148Y457083D01*
X124764Y456566D01*
X126314Y456050D01*
X129673Y456308D01*
X137681Y456050D01*
X141298Y457083D01*
X143364Y457600D01*
X162481Y458116D01*
X166097Y457600D01*
X197872Y458375D01*
X268654Y458891D01*
X293712Y458633D01*
D02*
G37*
D12*
X48662Y602942D02*
G03*
X48662Y602942I-1000J0D01*
G01*
X360918Y973836D02*
G03*
X360918Y973836I-1000J0D01*
G01*
D13*
X1120394Y-119888D02*
G03*
X1120394Y-119888I-2286J0D01*
G01*
X1311482Y-130962D02*
G03*
X1311482Y-130962I-2286J0D01*
G01*
X1500204Y-167212D02*
G03*
X1500204Y-167212I-2286J0D01*
G01*
X548386Y378714D02*
G03*
X548386Y378714I-2286J0D01*
G01*
X1503680Y405638D02*
G03*
X1503680Y405638I-2286J0D01*
G01*
X547864Y95429D02*
G03*
X547864Y95429I-2286J0D01*
G01*
X1119632Y72644D02*
G03*
X1119632Y72644I-2286J0D01*
G01*
X1310299Y61149D02*
G03*
X1310299Y61149I-2286J0D01*
G01*
X1739392Y26416D02*
G03*
X1739392Y26416I-2286J0D01*
G01*
X1691386Y-164084D02*
G03*
X1691386Y-164084I-2286J0D01*
G01*
X1499870Y25908D02*
G03*
X1499870Y25908I-2286J0D01*
G01*
X1310173Y440261D02*
G03*
X1310173Y440261I-2286J0D01*
G01*
X551434Y621030D02*
G03*
X551434Y621030I-2286J0D01*
G01*
X739902Y618490D02*
G03*
X739902Y618490I-2286J0D01*
G01*
X929894Y631444D02*
G03*
X929894Y631444I-2286J0D01*
G01*
X1121918Y646938D02*
G03*
X1121918Y646938I-2286J0D01*
G01*
X1314196Y633730D02*
G03*
X1314196Y633730I-2286J0D01*
G01*
X1502156Y599948D02*
G03*
X1502156Y599948I-2286J0D01*
G01*
X1739900Y597408D02*
G03*
X1739900Y597408I-2286J0D01*
G01*
X1739646Y407416D02*
G03*
X1739646Y407416I-2286J0D01*
G01*
X1739137Y210448D02*
G03*
X1739137Y210448I-2286J0D01*
G01*
X1497330Y208026D02*
G03*
X1497330Y208026I-2286J0D01*
G01*
X1311910Y240284D02*
G03*
X1311910Y240284I-2286J0D01*
G01*
X1120902Y263652D02*
G03*
X1120902Y263652I-2286J0D01*
G01*
X928878Y249428D02*
G03*
X928878Y249428I-2286J0D01*
G01*
X737870Y237744D02*
G03*
X737870Y237744I-2286J0D01*
G01*
X741041Y46085D02*
G03*
X741041Y46085I-2286J0D01*
G01*
X933081Y59130D02*
G03*
X933081Y59130I-2286J0D01*
G01*
X637540Y-269748D02*
G03*
X637540Y-269748I-2286J0D01*
G01*
X213392Y-88091D02*
G03*
X213392Y-88091I-2286J0D01*
G01*
X292862Y-264922D02*
G03*
X292862Y-264922I-2286J0D01*
G01*
X381254Y-439420D02*
G03*
X381254Y-439420I-2286J0D01*
G01*
X466090Y-335788D02*
G03*
X466090Y-335788I-2286J0D01*
G01*
X927688Y-130839D02*
G03*
X927688Y-130839I-2286J0D01*
G01*
X345694Y-79756D02*
G03*
X345694Y-79756I-2286J0D01*
G01*
X1122680Y455930D02*
G03*
X1122680Y455930I-2286J0D01*
G01*
X929949Y441372D02*
G03*
X929949Y441372I-2286J0D01*
G01*
X742549Y428651D02*
G03*
X742549Y428651I-2286J0D01*
G01*
X1680464Y985515D02*
Y970280D01*
X1672847D01*
X1670307Y972819D01*
Y975358D01*
X1672847Y977897D01*
X1680464D01*
X1672847D01*
X1670307Y980437D01*
Y982976D01*
X1672847Y985515D01*
X1680464D01*
X1657611Y970280D02*
X1662690D01*
X1665229Y972819D01*
Y977897D01*
X1662690Y980437D01*
X1657611D01*
X1655072Y977897D01*
Y975358D01*
X1665229D01*
X1634759Y985515D02*
Y982976D01*
X1629680Y977897D01*
X1624602Y982976D01*
Y985515D01*
X1629680Y977897D02*
Y970280D01*
X1616985D02*
X1611906D01*
X1609367Y972819D01*
Y977897D01*
X1611906Y980437D01*
X1616985D01*
X1619524Y977897D01*
Y972819D01*
X1616985Y970280D01*
X1604289Y980437D02*
Y972819D01*
X1601750Y970280D01*
X1594132D01*
Y980437D01*
D14*
X417322Y985266D02*
Y992884D01*
X414783Y990344D01*
X412244Y992884D01*
Y985266D01*
X404626Y991614D02*
X405896Y992884D01*
X408435D01*
X409705Y991614D01*
Y986536D01*
X408435Y985266D01*
X405896D01*
X404626Y986536D01*
X402087Y992884D02*
Y986536D01*
X400817Y985266D01*
X398278D01*
X397009Y986536D01*
Y992884D01*
X386852Y985266D02*
Y992884D01*
X383043D01*
X381773Y991614D01*
Y989075D01*
X383043Y987805D01*
X386852D01*
X384313D02*
X381773Y985266D01*
X375425D02*
X377965D01*
X379234Y986536D01*
Y989075D01*
X377965Y990344D01*
X375425D01*
X374156Y989075D01*
Y987805D01*
X379234D01*
X371617Y985266D02*
X367808D01*
X366538Y986536D01*
X367808Y987805D01*
X370347D01*
X371617Y989075D01*
X370347Y990344D01*
X366538D01*
X360191Y985266D02*
X362730D01*
X363999Y986536D01*
Y989075D01*
X362730Y990344D01*
X360191D01*
X358921Y989075D01*
Y987805D01*
X363999D01*
X355112Y991614D02*
Y990344D01*
X356382D01*
X353843D01*
X355112D01*
Y986536D01*
X353843Y985266D01*
D16*
X27162Y611942D02*
Y644942D01*
Y611942D02*
X52662D01*
X126662D02*
X152162D01*
Y644942D01*
X27162Y712942D02*
Y745942D01*
X52662D01*
X126662D02*
X152162D01*
Y712942D02*
Y745942D01*
X1104392Y-103632D02*
X1132332D01*
X1103891Y-136192D02*
X1131831D01*
X1294979Y-147266D02*
X1322919D01*
X1295480Y-114706D02*
X1323420D01*
X1484202Y-150956D02*
X1512142D01*
X1483701Y-183516D02*
X1511641D01*
X531883Y362410D02*
X559823D01*
X532384Y394970D02*
X560324D01*
X1487678Y421894D02*
X1515618D01*
X1487177Y389334D02*
X1515117D01*
X531361Y79125D02*
X559301D01*
X531862Y111685D02*
X559802D01*
X1103630Y88900D02*
X1131570D01*
X1103129Y56340D02*
X1131069D01*
X1293796Y44845D02*
X1321736D01*
X1294297Y77405D02*
X1322237D01*
X1722889Y10112D02*
X1750829D01*
X1723390Y42672D02*
X1751330D01*
X1674883Y-180388D02*
X1702823D01*
X1675384Y-147828D02*
X1703324D01*
X1483360Y9652D02*
X1511300D01*
X1483861Y42212D02*
X1511801D01*
X1294164Y456565D02*
X1322103D01*
X1293663Y424005D02*
X1321603D01*
X535432Y637286D02*
X563372D01*
X534931Y604726D02*
X562871D01*
X723399Y602186D02*
X751339D01*
X723900Y634746D02*
X751840D01*
X913892Y647700D02*
X941832D01*
X913391Y615140D02*
X941331D01*
X1105415Y630634D02*
X1133355D01*
X1105916Y663194D02*
X1133856D01*
X1298194Y649986D02*
X1326134D01*
X1297693Y617426D02*
X1325633D01*
X1485653Y583644D02*
X1513593D01*
X1486154Y616204D02*
X1514094D01*
X1723390Y581152D02*
X1751330D01*
X1723891Y613712D02*
X1751831D01*
X1723143Y391112D02*
X1751083D01*
X1723644Y423672D02*
X1751584D01*
X1722634Y194144D02*
X1750574D01*
X1723135Y226704D02*
X1751075D01*
X1481328Y224282D02*
X1509268D01*
X1480827Y191722D02*
X1508767D01*
X1295407Y223980D02*
X1323347D01*
X1295908Y256540D02*
X1323848D01*
X1104900Y279908D02*
X1132840D01*
X1104399Y247348D02*
X1132339D01*
X912375Y233124D02*
X940315D01*
X912876Y265684D02*
X940816D01*
X721868Y254000D02*
X749808D01*
X721367Y221440D02*
X749307D01*
X724531Y29829D02*
X752471D01*
X725032Y62389D02*
X752972D01*
X916578Y42825D02*
X944518D01*
X917079Y75385D02*
X945019D01*
X621538Y-253492D02*
X649478D01*
X621037Y-286052D02*
X648977D01*
X197390Y-71835D02*
X225330D01*
X196889Y-104395D02*
X224829D01*
X276860Y-248666D02*
X304800D01*
X276359Y-281226D02*
X304299D01*
X365252Y-423164D02*
X393192D01*
X364751Y-455724D02*
X392691D01*
X449587Y-352092D02*
X477527D01*
X450088Y-319532D02*
X478028D01*
X911686Y-114583D02*
X939626D01*
X911185Y-147143D02*
X939125D01*
X329692Y-63500D02*
X357632D01*
X329191Y-96060D02*
X357131D01*
X1106177Y439626D02*
X1134117D01*
X1106678Y472186D02*
X1134618D01*
X913947Y457628D02*
X941887D01*
X913446Y425068D02*
X941386D01*
X726046Y412346D02*
X753986D01*
X726546Y444907D02*
X754486D01*
X354302Y918944D02*
X414302D01*
Y978944D01*
X354302D02*
X414302D01*
X354302Y918944D02*
Y978944D01*
X1718393Y-145543D02*
Y-149605D01*
X1715685D01*
X1711622Y-145543D02*
X1714330D01*
Y-149605D01*
X1711622D01*
X1714330Y-147574D02*
X1712976D01*
X1710267Y-145543D02*
Y-149605D01*
X1708236D01*
X1707559Y-148928D01*
Y-146220D01*
X1708236Y-145543D01*
X1710267D01*
X587415Y612647D02*
Y608585D01*
X584706D01*
X580643Y612647D02*
X583352D01*
Y608585D01*
X580643D01*
X583352Y610616D02*
X581998D01*
X579289Y612647D02*
Y608585D01*
X577258D01*
X576581Y609262D01*
Y611970D01*
X577258Y612647D01*
X579289D01*
X573195Y608585D02*
Y612647D01*
X575226Y610616D01*
X572518D01*
X571164Y608585D02*
X569809D01*
X570487D01*
Y612647D01*
X571164Y611970D01*
X774782Y631443D02*
Y627381D01*
X772073D01*
X768010Y631443D02*
X770719D01*
Y627381D01*
X768010D01*
X770719Y629412D02*
X769365D01*
X766656Y631443D02*
Y627381D01*
X764625D01*
X763948Y628058D01*
Y630766D01*
X764625Y631443D01*
X766656D01*
X760562Y627381D02*
Y631443D01*
X762594Y629412D01*
X759885D01*
X758531Y630766D02*
X757854Y631443D01*
X756499D01*
X755822Y630766D01*
Y628058D01*
X756499Y627381D01*
X757854D01*
X758531Y628058D01*
Y630766D01*
X963758Y646429D02*
Y642367D01*
X961049D01*
X956986Y646429D02*
X959695D01*
Y642367D01*
X956986D01*
X959695Y644398D02*
X958341D01*
X955632Y646429D02*
Y642367D01*
X953601D01*
X952924Y643044D01*
Y645752D01*
X953601Y646429D01*
X955632D01*
X951570Y645752D02*
X950892Y646429D01*
X949538D01*
X948861Y645752D01*
Y645075D01*
X949538Y644398D01*
X950215D01*
X949538D01*
X948861Y643721D01*
Y643044D01*
X949538Y642367D01*
X950892D01*
X951570Y643044D01*
X947507D02*
X946830Y642367D01*
X945475D01*
X944798Y643044D01*
Y645752D01*
X945475Y646429D01*
X946830D01*
X947507Y645752D01*
Y645075D01*
X946830Y644398D01*
X944798D01*
X1161116Y650493D02*
Y646431D01*
X1158407D01*
X1154344Y650493D02*
X1157053D01*
Y646431D01*
X1154344D01*
X1157053Y648462D02*
X1155699D01*
X1152990Y650493D02*
Y646431D01*
X1150959D01*
X1150282Y647108D01*
Y649816D01*
X1150959Y650493D01*
X1152990D01*
X1148928Y649816D02*
X1148250Y650493D01*
X1146896D01*
X1146219Y649816D01*
Y649139D01*
X1146896Y648462D01*
X1147573D01*
X1146896D01*
X1146219Y647785D01*
Y647108D01*
X1146896Y646431D01*
X1148250D01*
X1148928Y647108D01*
X1144865Y649816D02*
X1144188Y650493D01*
X1142833D01*
X1142156Y649816D01*
Y649139D01*
X1142833Y648462D01*
X1142156Y647785D01*
Y647108D01*
X1142833Y646431D01*
X1144188D01*
X1144865Y647108D01*
Y647785D01*
X1144188Y648462D01*
X1144865Y649139D01*
Y649816D01*
X1144188Y648462D02*
X1142833D01*
X1347044Y648207D02*
Y644145D01*
X1344335D01*
X1340273Y648207D02*
X1342981D01*
Y644145D01*
X1340273D01*
X1342981Y646176D02*
X1341627D01*
X1338918Y648207D02*
Y644145D01*
X1336887D01*
X1336210Y644822D01*
Y647530D01*
X1336887Y648207D01*
X1338918D01*
X1334855Y647530D02*
X1334178Y648207D01*
X1332824D01*
X1332147Y647530D01*
Y646853D01*
X1332824Y646176D01*
X1333501D01*
X1332824D01*
X1332147Y645499D01*
Y644822D01*
X1332824Y644145D01*
X1334178D01*
X1334855Y644822D01*
X1330793Y648207D02*
X1328084D01*
Y647530D01*
X1330793Y644822D01*
Y644145D01*
X1538814Y615949D02*
Y611887D01*
X1536105D01*
X1532043Y615949D02*
X1534751D01*
Y611887D01*
X1532043D01*
X1534751Y613918D02*
X1533397D01*
X1530688Y615949D02*
Y611887D01*
X1528657D01*
X1527980Y612564D01*
Y615272D01*
X1528657Y615949D01*
X1530688D01*
X1526626Y615272D02*
X1525948Y615949D01*
X1524594D01*
X1523917Y615272D01*
Y614595D01*
X1524594Y613918D01*
X1525271D01*
X1524594D01*
X1523917Y613241D01*
Y612564D01*
X1524594Y611887D01*
X1525948D01*
X1526626Y612564D01*
X1519854Y615949D02*
X1521209Y615272D01*
X1522563Y613918D01*
Y612564D01*
X1521886Y611887D01*
X1520531D01*
X1519854Y612564D01*
Y613241D01*
X1520531Y613918D01*
X1522563D01*
X1712723Y604348D02*
X1716785D01*
Y601639D01*
X1712723Y597576D02*
Y600285D01*
X1716785D01*
Y597576D01*
X1714754Y600285D02*
Y598931D01*
X1712723Y596222D02*
X1716785D01*
Y594191D01*
X1716108Y593514D01*
X1713400D01*
X1712723Y594191D01*
Y596222D01*
X1713400Y592160D02*
X1712723Y591482D01*
Y590128D01*
X1713400Y589451D01*
X1714077D01*
X1714754Y590128D01*
Y590805D01*
Y590128D01*
X1715431Y589451D01*
X1716108D01*
X1716785Y590128D01*
Y591482D01*
X1716108Y592160D01*
X1712723Y585388D02*
Y588097D01*
X1714754D01*
X1714077Y586743D01*
Y586065D01*
X1714754Y585388D01*
X1716108D01*
X1716785Y586065D01*
Y587420D01*
X1716108Y588097D01*
X559644Y402081D02*
Y398019D01*
X556935D01*
X552873Y402081D02*
X555581D01*
Y398019D01*
X552873D01*
X555581Y400050D02*
X554227D01*
X551518Y402081D02*
Y398019D01*
X549487D01*
X548810Y398696D01*
Y401404D01*
X549487Y402081D01*
X551518D01*
X547455Y401404D02*
X546778Y402081D01*
X545424D01*
X544747Y401404D01*
Y400727D01*
X545424Y400050D01*
X546101D01*
X545424D01*
X544747Y399373D01*
Y398696D01*
X545424Y398019D01*
X546778D01*
X547455Y398696D01*
X541362Y398019D02*
Y402081D01*
X543393Y400050D01*
X540684D01*
X782000Y465988D02*
Y461925D01*
X779292D01*
X775229Y465988D02*
X777937D01*
Y461925D01*
X775229D01*
X777937Y463957D02*
X776583D01*
X773875Y465988D02*
Y461925D01*
X771843D01*
X771166Y462602D01*
Y465311D01*
X771843Y465988D01*
X773875D01*
X769812Y465311D02*
X769135Y465988D01*
X767781D01*
X767104Y465311D01*
Y464634D01*
X767781Y463957D01*
X768458D01*
X767781D01*
X767104Y463279D01*
Y462602D01*
X767781Y461925D01*
X769135D01*
X769812Y462602D01*
X765749Y465311D02*
X765072Y465988D01*
X763718D01*
X763041Y465311D01*
Y464634D01*
X763718Y463957D01*
X764395D01*
X763718D01*
X763041Y463279D01*
Y462602D01*
X763718Y461925D01*
X765072D01*
X765749Y462602D01*
X966044Y459993D02*
Y455931D01*
X963335D01*
X959273Y459993D02*
X961981D01*
Y455931D01*
X959273D01*
X961981Y457962D02*
X960627D01*
X957918Y459993D02*
Y455931D01*
X955887D01*
X955210Y456608D01*
Y459316D01*
X955887Y459993D01*
X957918D01*
X953856Y459316D02*
X953178Y459993D01*
X951824D01*
X951147Y459316D01*
Y458639D01*
X951824Y457962D01*
X952501D01*
X951824D01*
X951147Y457285D01*
Y456608D01*
X951824Y455931D01*
X953178D01*
X953856Y456608D01*
X947084Y455931D02*
X949793D01*
X947084Y458639D01*
Y459316D01*
X947762Y459993D01*
X949116D01*
X949793Y459316D01*
X1162725Y494029D02*
Y489967D01*
X1160016D01*
X1155953Y494029D02*
X1158662D01*
Y489967D01*
X1155953D01*
X1158662Y491998D02*
X1157308D01*
X1154599Y494029D02*
Y489967D01*
X1152568D01*
X1151891Y490644D01*
Y493352D01*
X1152568Y494029D01*
X1154599D01*
X1150536Y493352D02*
X1149859Y494029D01*
X1148505D01*
X1147828Y493352D01*
Y492675D01*
X1148505Y491998D01*
X1149182D01*
X1148505D01*
X1147828Y491321D01*
Y490644D01*
X1148505Y489967D01*
X1149859D01*
X1150536Y490644D01*
X1146474Y489967D02*
X1145119D01*
X1145797D01*
Y494029D01*
X1146474Y493352D01*
X1343488Y456183D02*
Y452121D01*
X1340779D01*
X1336716Y456183D02*
X1339425D01*
Y452121D01*
X1336716D01*
X1339425Y454152D02*
X1338071D01*
X1335362Y456183D02*
Y452121D01*
X1333331D01*
X1332654Y452798D01*
Y455506D01*
X1333331Y456183D01*
X1335362D01*
X1331299Y455506D02*
X1330622Y456183D01*
X1329268D01*
X1328591Y455506D01*
Y454829D01*
X1329268Y454152D01*
X1329945D01*
X1329268D01*
X1328591Y453475D01*
Y452798D01*
X1329268Y452121D01*
X1330622D01*
X1331299Y452798D01*
X1327237Y455506D02*
X1326560Y456183D01*
X1325206D01*
X1324528Y455506D01*
Y452798D01*
X1325206Y452121D01*
X1326560D01*
X1327237Y452798D01*
Y455506D01*
X1515954Y429259D02*
Y425197D01*
X1513245D01*
X1509182Y429259D02*
X1511891D01*
Y425197D01*
X1509182D01*
X1511891Y427228D02*
X1510537D01*
X1507828Y429259D02*
Y425197D01*
X1505797D01*
X1505120Y425874D01*
Y428582D01*
X1505797Y429259D01*
X1507828D01*
X1501057Y425197D02*
X1503766D01*
X1501057Y427905D01*
Y428582D01*
X1501734Y429259D01*
X1503088D01*
X1503766Y428582D01*
X1499703Y425874D02*
X1499026Y425197D01*
X1497672D01*
X1496994Y425874D01*
Y428582D01*
X1497672Y429259D01*
X1499026D01*
X1499703Y428582D01*
Y427905D01*
X1499026Y427228D01*
X1496994D01*
X1775034Y423417D02*
Y419355D01*
X1772325D01*
X1768262Y423417D02*
X1770971D01*
Y419355D01*
X1768262D01*
X1770971Y421386D02*
X1769617D01*
X1766908Y423417D02*
Y419355D01*
X1764877D01*
X1764200Y420032D01*
Y422740D01*
X1764877Y423417D01*
X1766908D01*
X1760137Y419355D02*
X1762845D01*
X1760137Y422063D01*
Y422740D01*
X1760814Y423417D01*
X1762168D01*
X1762845Y422740D01*
X1758783D02*
X1758106Y423417D01*
X1756752D01*
X1756074Y422740D01*
Y422063D01*
X1756752Y421386D01*
X1756074Y420709D01*
Y420032D01*
X1756752Y419355D01*
X1758106D01*
X1758783Y420032D01*
Y420709D01*
X1758106Y421386D01*
X1758783Y422063D01*
Y422740D01*
X1758106Y421386D02*
X1756752D01*
X229476Y-63454D02*
Y-67516D01*
X226767D01*
X222705Y-63454D02*
X225413D01*
Y-67516D01*
X222705D01*
X225413Y-65485D02*
X224059D01*
X221350Y-63454D02*
Y-67516D01*
X219319D01*
X218642Y-66839D01*
Y-64131D01*
X219319Y-63454D01*
X221350D01*
X214579Y-67516D02*
X217288D01*
X214579Y-64808D01*
Y-64131D01*
X215256Y-63454D01*
X216611D01*
X217288Y-64131D01*
X213225Y-63454D02*
X210516D01*
Y-64131D01*
X213225Y-66839D01*
Y-67516D01*
X380320Y-57659D02*
Y-61721D01*
X377611D01*
X373549Y-57659D02*
X376257D01*
Y-61721D01*
X373549D01*
X376257Y-59690D02*
X374903D01*
X372194Y-57659D02*
Y-61721D01*
X370163D01*
X369486Y-61044D01*
Y-58336D01*
X370163Y-57659D01*
X372194D01*
X365423Y-61721D02*
X368131D01*
X365423Y-59013D01*
Y-58336D01*
X366100Y-57659D01*
X367454D01*
X368131Y-58336D01*
X361360Y-57659D02*
X362715Y-58336D01*
X364069Y-59690D01*
Y-61044D01*
X363392Y-61721D01*
X362038D01*
X361360Y-61044D01*
Y-60367D01*
X362038Y-59690D01*
X364069D01*
X775544Y254761D02*
Y250699D01*
X772835D01*
X768773Y254761D02*
X771481D01*
Y250699D01*
X768773D01*
X771481Y252730D02*
X770127D01*
X767418Y254761D02*
Y250699D01*
X765387D01*
X764710Y251376D01*
Y254084D01*
X765387Y254761D01*
X767418D01*
X760647Y250699D02*
X763355D01*
X760647Y253407D01*
Y254084D01*
X761324Y254761D01*
X762678D01*
X763355Y254084D01*
X756584Y254761D02*
X759293D01*
Y252730D01*
X757939Y253407D01*
X757262D01*
X756584Y252730D01*
Y251376D01*
X757262Y250699D01*
X758616D01*
X759293Y251376D01*
X967314Y265937D02*
Y261875D01*
X964605D01*
X960543Y265937D02*
X963251D01*
Y261875D01*
X960543D01*
X963251Y263906D02*
X961897D01*
X959188Y265937D02*
Y261875D01*
X957157D01*
X956480Y262552D01*
Y265260D01*
X957157Y265937D01*
X959188D01*
X952417Y261875D02*
X955126D01*
X952417Y264583D01*
Y265260D01*
X953094Y265937D01*
X954448D01*
X955126Y265260D01*
X949032Y261875D02*
Y265937D01*
X951063Y263906D01*
X948354D01*
X1138002Y286511D02*
Y282449D01*
X1135293D01*
X1131230Y286511D02*
X1133939D01*
Y282449D01*
X1131230D01*
X1133939Y284480D02*
X1132585D01*
X1129876Y286511D02*
Y282449D01*
X1127845D01*
X1127168Y283126D01*
Y285834D01*
X1127845Y286511D01*
X1129876D01*
X1123105Y282449D02*
X1125814D01*
X1123105Y285157D01*
Y285834D01*
X1123782Y286511D01*
X1125136D01*
X1125814Y285834D01*
X1121751D02*
X1121074Y286511D01*
X1119719D01*
X1119042Y285834D01*
Y285157D01*
X1119719Y284480D01*
X1120397D01*
X1119719D01*
X1119042Y283803D01*
Y283126D01*
X1119719Y282449D01*
X1121074D01*
X1121751Y283126D01*
X1326978Y266191D02*
Y262129D01*
X1324269D01*
X1320206Y266191D02*
X1322915D01*
Y262129D01*
X1320206D01*
X1322915Y264160D02*
X1321561D01*
X1318852Y266191D02*
Y262129D01*
X1316821D01*
X1316144Y262806D01*
Y265514D01*
X1316821Y266191D01*
X1318852D01*
X1312081Y262129D02*
X1314789D01*
X1312081Y264837D01*
Y265514D01*
X1312758Y266191D01*
X1314112D01*
X1314789Y265514D01*
X1308018Y262129D02*
X1310727D01*
X1308018Y264837D01*
Y265514D01*
X1308696Y266191D01*
X1310050D01*
X1310727Y265514D01*
X1519848Y233171D02*
Y229109D01*
X1517140D01*
X1513077Y233171D02*
X1515786D01*
Y229109D01*
X1513077D01*
X1515786Y231140D02*
X1514432D01*
X1511723Y233171D02*
Y229109D01*
X1509692D01*
X1509015Y229786D01*
Y232494D01*
X1509692Y233171D01*
X1511723D01*
X1504952Y229109D02*
X1507660D01*
X1504952Y231817D01*
Y232494D01*
X1505629Y233171D01*
X1506983D01*
X1507660Y232494D01*
X1503598Y229109D02*
X1502243D01*
X1502921D01*
Y233171D01*
X1503598Y232494D01*
X1758016Y236219D02*
Y232157D01*
X1755307D01*
X1751245Y236219D02*
X1753953D01*
Y232157D01*
X1751245D01*
X1753953Y234188D02*
X1752599D01*
X1749890Y236219D02*
Y232157D01*
X1747859D01*
X1747182Y232834D01*
Y235542D01*
X1747859Y236219D01*
X1749890D01*
X1743119Y232157D02*
X1745827D01*
X1743119Y234865D01*
Y235542D01*
X1743796Y236219D01*
X1745150D01*
X1745827Y235542D01*
X1741765D02*
X1741088Y236219D01*
X1739733D01*
X1739056Y235542D01*
Y232834D01*
X1739733Y232157D01*
X1741088D01*
X1741765Y232834D01*
Y235542D01*
X305305Y-240539D02*
Y-244601D01*
X302597D01*
X298534Y-240539D02*
X301242D01*
Y-244601D01*
X298534D01*
X301242Y-242570D02*
X299888D01*
X297180Y-240539D02*
Y-244601D01*
X295148D01*
X294471Y-243924D01*
Y-241216D01*
X295148Y-240539D01*
X297180D01*
X293117Y-244601D02*
X291763D01*
X292440D01*
Y-240539D01*
X293117Y-241216D01*
X289731Y-243924D02*
X289054Y-244601D01*
X287700D01*
X287023Y-243924D01*
Y-241216D01*
X287700Y-240539D01*
X289054D01*
X289731Y-241216D01*
Y-241893D01*
X289054Y-242570D01*
X287023D01*
X582419Y109981D02*
Y105919D01*
X579711D01*
X575648Y109981D02*
X578356D01*
Y105919D01*
X575648D01*
X578356Y107950D02*
X577002D01*
X574294Y109981D02*
Y105919D01*
X572262D01*
X571585Y106596D01*
Y109304D01*
X572262Y109981D01*
X574294D01*
X570231Y105919D02*
X568877D01*
X569554D01*
Y109981D01*
X570231Y109304D01*
X566845D02*
X566168Y109981D01*
X564814D01*
X564137Y109304D01*
Y108627D01*
X564814Y107950D01*
X564137Y107273D01*
Y106596D01*
X564814Y105919D01*
X566168D01*
X566845Y106596D01*
Y107273D01*
X566168Y107950D01*
X566845Y108627D01*
Y109304D01*
X566168Y107950D02*
X564814D01*
X773173Y65531D02*
Y61469D01*
X770465D01*
X766402Y65531D02*
X769110D01*
Y61469D01*
X766402D01*
X769110Y63500D02*
X767756D01*
X765048Y65531D02*
Y61469D01*
X763016D01*
X762339Y62146D01*
Y64854D01*
X763016Y65531D01*
X765048D01*
X760985Y61469D02*
X759631D01*
X760308D01*
Y65531D01*
X760985Y64854D01*
X757599Y65531D02*
X754891D01*
Y64854D01*
X757599Y62146D01*
Y61469D01*
X969515Y74167D02*
Y70105D01*
X966807D01*
X962744Y74167D02*
X965452D01*
Y70105D01*
X962744D01*
X965452Y72136D02*
X964098D01*
X961390Y74167D02*
Y70105D01*
X959358D01*
X958681Y70782D01*
Y73490D01*
X959358Y74167D01*
X961390D01*
X957327Y70105D02*
X955973D01*
X956650D01*
Y74167D01*
X957327Y73490D01*
X951233Y74167D02*
X952587Y73490D01*
X953941Y72136D01*
Y70782D01*
X953264Y70105D01*
X951910D01*
X951233Y70782D01*
Y71459D01*
X951910Y72136D01*
X953941D01*
X1155443Y84581D02*
Y80519D01*
X1152735D01*
X1148672Y84581D02*
X1151380D01*
Y80519D01*
X1148672D01*
X1151380Y82550D02*
X1150026D01*
X1147318Y84581D02*
Y80519D01*
X1145286D01*
X1144609Y81196D01*
Y83904D01*
X1145286Y84581D01*
X1147318D01*
X1143255Y80519D02*
X1141901D01*
X1142578D01*
Y84581D01*
X1143255Y83904D01*
X1137161Y84581D02*
X1139869D01*
Y82550D01*
X1138515Y83227D01*
X1137838D01*
X1137161Y82550D01*
Y81196D01*
X1137838Y80519D01*
X1139192D01*
X1139869Y81196D01*
X1343911Y77215D02*
Y73153D01*
X1341203D01*
X1337140Y77215D02*
X1339848D01*
Y73153D01*
X1337140D01*
X1339848Y75184D02*
X1338494D01*
X1335786Y77215D02*
Y73153D01*
X1333754D01*
X1333077Y73830D01*
Y76538D01*
X1333754Y77215D01*
X1335786D01*
X1331723Y73153D02*
X1330369D01*
X1331046D01*
Y77215D01*
X1331723Y76538D01*
X1326306Y73153D02*
Y77215D01*
X1328337Y75184D01*
X1325629D01*
X1535427Y40385D02*
Y36323D01*
X1532719D01*
X1528656Y40385D02*
X1531364D01*
Y36323D01*
X1528656D01*
X1531364Y38354D02*
X1530010D01*
X1527302Y40385D02*
Y36323D01*
X1525270D01*
X1524593Y37000D01*
Y39708D01*
X1525270Y40385D01*
X1527302D01*
X1523239Y36323D02*
X1521885D01*
X1522562D01*
Y40385D01*
X1523239Y39708D01*
X1519853D02*
X1519176Y40385D01*
X1517822D01*
X1517145Y39708D01*
Y39031D01*
X1517822Y38354D01*
X1518499D01*
X1517822D01*
X1517145Y37677D01*
Y37000D01*
X1517822Y36323D01*
X1519176D01*
X1519853Y37000D01*
X1773425Y43687D02*
Y39625D01*
X1770717D01*
X1766654Y43687D02*
X1769362D01*
Y39625D01*
X1766654D01*
X1769362Y41656D02*
X1768008D01*
X1765300Y43687D02*
Y39625D01*
X1763268D01*
X1762591Y40302D01*
Y43010D01*
X1763268Y43687D01*
X1765300D01*
X1761237Y39625D02*
X1759883D01*
X1760560D01*
Y43687D01*
X1761237Y43010D01*
X1755143Y39625D02*
X1757851D01*
X1755143Y42333D01*
Y43010D01*
X1755820Y43687D01*
X1757174D01*
X1757851Y43010D01*
X394798Y-414783D02*
Y-418845D01*
X392090D01*
X388027Y-414783D02*
X390735D01*
Y-418845D01*
X388027D01*
X390735Y-416814D02*
X389381D01*
X386673Y-414783D02*
Y-418845D01*
X384641D01*
X383964Y-418168D01*
Y-415460D01*
X384641Y-414783D01*
X386673D01*
X382610Y-418845D02*
X381256D01*
X381933D01*
Y-414783D01*
X382610Y-415460D01*
X379224Y-418845D02*
X377870D01*
X378547D01*
Y-414783D01*
X379224Y-415460D01*
X497837Y-322835D02*
Y-326897D01*
X495129D01*
X491066Y-322835D02*
X493774D01*
Y-326897D01*
X491066D01*
X493774Y-324866D02*
X492420D01*
X489712Y-322835D02*
Y-326897D01*
X487680D01*
X487003Y-326220D01*
Y-323512D01*
X487680Y-322835D01*
X489712D01*
X485649Y-326897D02*
X484295D01*
X484972D01*
Y-322835D01*
X485649Y-323512D01*
X482263D02*
X481586Y-322835D01*
X480232D01*
X479555Y-323512D01*
Y-326220D01*
X480232Y-326897D01*
X481586D01*
X482263Y-326220D01*
Y-323512D01*
X654386Y-245365D02*
Y-249427D01*
X651678D01*
X647615Y-245365D02*
X650324D01*
Y-249427D01*
X647615D01*
X650324Y-247396D02*
X648969D01*
X646261Y-245365D02*
Y-249427D01*
X644230D01*
X643552Y-248750D01*
Y-246042D01*
X644230Y-245365D01*
X646261D01*
X642198Y-248750D02*
X641521Y-249427D01*
X640167D01*
X639490Y-248750D01*
Y-246042D01*
X640167Y-245365D01*
X641521D01*
X642198Y-246042D01*
Y-246719D01*
X641521Y-247396D01*
X639490D01*
X957996Y-105186D02*
Y-109248D01*
X955288D01*
X951225Y-105186D02*
X953934D01*
Y-109248D01*
X951225D01*
X953934Y-107217D02*
X952579D01*
X949871Y-105186D02*
Y-109248D01*
X947840D01*
X947162Y-108571D01*
Y-105863D01*
X947840Y-105186D01*
X949871D01*
X945808Y-105863D02*
X945131Y-105186D01*
X943777D01*
X943100Y-105863D01*
Y-106540D01*
X943777Y-107217D01*
X943100Y-107894D01*
Y-108571D01*
X943777Y-109248D01*
X945131D01*
X945808Y-108571D01*
Y-107894D01*
X945131Y-107217D01*
X945808Y-106540D01*
Y-105863D01*
X945131Y-107217D02*
X943777D01*
X1131906Y-95759D02*
Y-99821D01*
X1129198D01*
X1125135Y-95759D02*
X1127844D01*
Y-99821D01*
X1125135D01*
X1127844Y-97790D02*
X1126489D01*
X1123781Y-95759D02*
Y-99821D01*
X1121749D01*
X1121072Y-99144D01*
Y-96436D01*
X1121749Y-95759D01*
X1123781D01*
X1119718D02*
X1117010D01*
Y-96436D01*
X1119718Y-99144D01*
Y-99821D01*
X1343234Y-115825D02*
Y-119887D01*
X1340526D01*
X1336463Y-115825D02*
X1339172D01*
Y-119887D01*
X1336463D01*
X1339172Y-117856D02*
X1337817D01*
X1335109Y-115825D02*
Y-119887D01*
X1333078D01*
X1332400Y-119210D01*
Y-116502D01*
X1333078Y-115825D01*
X1335109D01*
X1328338D02*
X1329692Y-116502D01*
X1331046Y-117856D01*
Y-119210D01*
X1330369Y-119887D01*
X1329015D01*
X1328338Y-119210D01*
Y-118533D01*
X1329015Y-117856D01*
X1331046D01*
X1511462Y-143337D02*
Y-147399D01*
X1508754D01*
X1504691Y-143337D02*
X1507400D01*
Y-147399D01*
X1504691D01*
X1507400Y-145368D02*
X1506045D01*
X1503337Y-143337D02*
Y-147399D01*
X1501306D01*
X1500628Y-146722D01*
Y-144014D01*
X1501306Y-143337D01*
X1503337D01*
X1496566D02*
X1499274D01*
Y-145368D01*
X1497920Y-144691D01*
X1497243D01*
X1496566Y-145368D01*
Y-146722D01*
X1497243Y-147399D01*
X1498597D01*
X1499274Y-146722D01*
X163068Y771652D02*
Y775715D01*
X161714Y774361D01*
X160359Y775715D01*
Y771652D01*
X159005Y775715D02*
X156297D01*
X157651D01*
Y771652D01*
X154943D02*
X153588D01*
X154265D01*
Y775715D01*
X154943Y775038D01*
X382948Y949198D02*
X382271Y949875D01*
Y951229D01*
X382948Y951907D01*
X383625D01*
X384302Y951229D01*
Y949875D01*
X384979Y949198D01*
X385656D01*
X386333Y949875D01*
Y951229D01*
X385656Y951907D01*
X386333Y947844D02*
Y946489D01*
Y947167D01*
X382271D01*
X382948Y947844D01*
D167*
X378714Y-180594D02*
Y-180340D01*
X611886Y52832D01*
X612648D01*
X276479Y-21717D02*
X490220Y192024D01*
X522224D01*
X436626Y-243078D02*
X519938Y-159766D01*
X610362D01*
X217424Y-433070D02*
X296672Y-512318D01*
X217424Y-433070D02*
Y-335534D01*
X137668Y-255778D02*
X217424Y-335534D01*
X137668Y-255778D02*
Y-167386D01*
X610362Y-159766D02*
X775462D01*
X901446Y-33782D01*
X1076960D01*
X1091946Y-18796D01*
X1268984D01*
X1282446Y-32258D01*
X1441196D01*
X1471422Y-62484D01*
X1662176D01*
X1663446Y-63754D01*
X1661922D02*
X1663446D01*
X613156Y282956D02*
X655574D01*
X592963Y262763D02*
X613156Y282956D01*
X522224Y192024D02*
X592963Y262763D01*
X612648Y52832D02*
X718058Y158242D01*
X900430D01*
X918210Y176022D01*
X1090422D01*
X1105154Y161290D01*
X1281684D01*
X1473200Y128270D02*
X1476248Y125222D01*
X1707896D01*
X1281684Y161290D02*
X1307846Y135128D01*
X1323340D01*
X1330198Y128270D01*
X1473200D01*
X655574Y282956D02*
X719582Y346964D01*
X901954D01*
X919734Y364744D01*
X1091946D01*
X1106678Y350012D01*
X1283208D01*
X1474724Y316992D02*
X1477772Y313944D01*
X1709420D01*
X1283208Y350012D02*
X1309370Y323850D01*
X1324864D01*
X1331722Y316992D01*
X1474724D01*
X522732Y482346D02*
X661416D01*
X720090Y541020D01*
X902462D01*
X920242Y558800D01*
X1092454D01*
X1107186Y544068D01*
X1283716D01*
X1475232Y511048D02*
X1478280Y508000D01*
X1709928D01*
X1283716Y544068D02*
X1309878Y517906D01*
X1325372D01*
X1332230Y511048D01*
X1475232D01*
X1332484Y699770D02*
X1475486D01*
X1325626Y706628D02*
X1332484Y699770D01*
X1310132Y706628D02*
X1325626D01*
X1283970Y732790D02*
X1310132Y706628D01*
X1478534Y696722D02*
X1710182D01*
X1475486Y699770D02*
X1478534Y696722D01*
X1107440Y732790D02*
X1283970D01*
X1092708Y747522D02*
X1107440Y732790D01*
X920496Y747522D02*
X1092708D01*
X902716Y729742D02*
X920496Y747522D01*
X720344Y729742D02*
X902716D01*
X706882Y716280D02*
X720344Y729742D01*
X522986Y716280D02*
X706882D01*
X521462Y717804D02*
X522986Y716280D01*
X521462Y717804D02*
X522986D01*
D192*
X1116334Y-120063D02*
D03*
X1307422Y-131137D02*
D03*
X1496143Y-167387D02*
D03*
X544326Y378539D02*
D03*
X1499620Y405463D02*
D03*
X543803Y95254D02*
D03*
X1115572Y72469D02*
D03*
X1306238Y60974D02*
D03*
X1735332Y26241D02*
D03*
X1687326Y-164259D02*
D03*
X1499358Y26083D02*
D03*
X1309661Y440436D02*
D03*
X547374Y620855D02*
D03*
X735842Y618315D02*
D03*
X925834Y631269D02*
D03*
X1117858Y646763D02*
D03*
X1310136Y633555D02*
D03*
X1498096Y599773D02*
D03*
X1739388Y597583D02*
D03*
X1735586Y407241D02*
D03*
X1735076Y210273D02*
D03*
X1493270Y207851D02*
D03*
X1307850Y240109D02*
D03*
X1116842Y263477D02*
D03*
X924818Y249253D02*
D03*
X733810Y237569D02*
D03*
X740529Y46260D02*
D03*
X929021Y58954D02*
D03*
X633480Y-269923D02*
D03*
X209332Y-88266D02*
D03*
X288802Y-265097D02*
D03*
X377194Y-439595D02*
D03*
X462030Y-335963D02*
D03*
X923628Y-131014D02*
D03*
X341634Y-79931D02*
D03*
X1118620Y455755D02*
D03*
X925888Y441197D02*
D03*
X738488Y428475D02*
D03*
D193*
X1107059Y-137414D02*
D03*
X1298147Y-148488D02*
D03*
X1486869Y-184738D02*
D03*
X535051Y361188D02*
D03*
X1490345Y388112D02*
D03*
X534529Y77903D02*
D03*
X1106297Y55118D02*
D03*
X1296964Y43623D02*
D03*
X1726057Y8890D02*
D03*
X1678051Y-181610D02*
D03*
X1508633Y43434D02*
D03*
X1318936Y457787D02*
D03*
X538099Y603504D02*
D03*
X726567Y600964D02*
D03*
X916559Y613918D02*
D03*
X1108583Y629412D02*
D03*
X1300861Y616204D02*
D03*
X1488821Y582422D02*
D03*
X1748663Y614934D02*
D03*
X1726311Y389890D02*
D03*
X1725802Y192922D02*
D03*
X1483995Y190500D02*
D03*
X1298575Y222758D02*
D03*
X1107567Y246126D02*
D03*
X915543Y231902D02*
D03*
X724535Y220218D02*
D03*
X749804Y63611D02*
D03*
X919746Y41603D02*
D03*
X624205Y-287274D02*
D03*
X200057Y-105617D02*
D03*
X279527Y-282448D02*
D03*
X367919Y-456946D02*
D03*
X452755Y-353314D02*
D03*
X914353Y-148365D02*
D03*
X332359Y-97282D02*
D03*
X1109345Y438404D02*
D03*
X916613Y423846D02*
D03*
X729213Y411125D02*
D03*
M02*
